<svg width="165" height="190" viewBox="0 0 165 190" fill="none" xmlns="http://www.w3.org/2000/svg">
<path d="M4.19683 56.584C2.1705 55.6882 2.28068 55.3337 2.68307 55.2331C15.3776 55.4055 26.6733 53.8055 37.0732 55.0702C70.6442 54.4235 105.226 62.0498 136.071 72.2629C142.974 72.9335 133.082 64.5743 134.395 61.5995C129.187 53.6331 126.045 44.9002 120.498 37.2212C118.486 32.2728 114.615 28.8668 112.723 24.0525C110.414 16.8765 112.546 7.89453 111.875 0.124528C113.81 -0.876661 116.469 4.43587 117.398 6.16999C122.246 11.54 125.456 17.7915 130.308 23.377C135.549 28.2393 141.211 33.8967 145.144 38.3709C165.178 56.6798 181.839 76.1431 201.915 94.8783C204.372 101.134 212.099 102.284 216.545 106.634C224.09 110.04 229.651 117.383 237.062 120.914C248.569 132.66 263.457 146.653 270.825 162.811C276.381 166.341 273.67 172.799 270.863 177.024C270.82 180.76 269.929 188.679 266.825 189.388C250.36 171.582 235.52 151.127 217.536 134.878C203.802 123.252 187.697 116.181 171.554 108.837C154.414 101.269 160.679 105.499 163.209 120.128C165.901 132.603 164.148 146.365 166.61 158.763C173.053 209.043 134.237 164.952 117.235 149.656C112.574 142.59 108.479 135.242 103.281 128.368C103.377 121.091 105.087 91.0651 109.691 114.548C118.864 125.45 125.983 139.146 139.233 147.108C144.775 152.037 150.658 157.766 158.481 158.212C168.334 162.902 154.15 115.731 152.732 111.266C151.333 97.3309 143.836 98.5477 131.942 94.5094C119.396 89.3597 105.887 86.1406 91.8943 84.2963C91.1087 82.9454 90.8644 81.2209 88.8285 83.3143C85.777 83.0029 82.7303 81.9634 79.2142 82.4089C62.3425 79.4149 37.7918 77.1682 21.6386 80.7706C21.6769 84.8951 12.0914 79.8077 10.9561 77.6137C8.15847 71.3431 3.50701 65.13 0.388477 58.8115C-2.0115 53.5948 7.42076 57.9013 9.21715 57.0534C11.2004 55.4007 2.01721 55.5684 1.53817 57.2738C0.153748 58.4666 8.16805 58.6821 4.20162 56.5744L4.19683 56.584ZM150.509 66.0306C151.309 63.9324 146.72 61.5516 147.386 64.718C149.091 65.7863 147.573 67.6162 149.274 68.5695C150.634 70.5814 149.872 73.0437 151.554 74.7635C151.228 76.5263 152.047 77.3071 153.317 77.4796C177.68 88.507 158.572 74.1407 150.514 66.0306H150.509ZM76.9388 64.1671C78.8885 62.7156 72.752 62.7348 74.8454 64.1671C75.5448 64.1671 76.2442 64.1671 76.9388 64.1671ZM80.8765 64.8426C81.2118 65.4749 81.8106 64.8282 81.5854 64.5072C81.2836 63.8558 80.6609 64.5168 80.8765 64.8426Z" fill="#5541D9"/>
</svg>
