<svg width="135" height="192" viewBox="0 0 135 192" fill="none" xmlns="http://www.w3.org/2000/svg">
<path d="M124.677 109.682C124.604 110.052 124.535 110.422 124.454 110.836C123.93 110.966 123.386 111.104 122.845 111.238C123.044 111.587 123.215 111.884 123.426 112.257C122.886 112.343 122.427 112.412 121.924 112.493C121.753 113.045 121.578 113.618 121.367 114.292C120.669 114.26 119.97 114.223 118.853 114.17C119.605 114.727 120.019 115.035 120.437 115.344C119.775 116.16 119.129 115.384 118.342 115.336C118.37 114.637 118.402 113.939 118.439 113.057C118.35 113.236 117.042 115.815 117.001 115.892C116.77 115.612 116.559 115.356 116.132 114.84C115.828 115.137 115.446 115.445 115.149 115.819C114.869 116.176 114.674 116.603 114.455 116.981C114.122 116.916 113.878 116.871 113.643 116.822C112.904 117.322 112.172 117.817 111.441 118.313C111.348 118.804 111.251 119.295 111.157 119.787C109.659 120.485 107.774 120.213 106.621 121.675C106.353 121.318 106.137 121.034 105.926 120.749C105.382 121.119 104.862 121.472 104.33 121.83C103.546 122.021 102.702 121.35 101.885 122.13C101.422 122.573 100.529 121.517 99.9359 122.297C100.102 122.601 100.265 122.894 100.5 123.324C100.013 123.336 99.6638 123.345 99.213 123.357C98.945 123.73 98.616 124.185 98.287 124.64C98.0393 124.323 97.8281 124.051 97.6169 123.783C96.4311 124.583 95.2858 125.359 94.1243 126.143C93.8928 126.098 93.6491 126.049 93.4135 126.005C92.7759 126.415 92.1505 126.817 91.5494 127.199C91.1352 127.117 90.7656 127.048 90.3798 126.971C89.5594 126.959 89.198 127.824 88.4751 128.023C88.0364 128.084 87.5978 128.145 87.1023 128.214C87.3095 128.519 87.4516 128.73 87.5897 128.937C86.8099 129.461 85.4291 129.83 84.5762 129.818C84.5437 129.323 84.7103 128.758 83.963 129.136C84.1336 129.347 84.3001 129.558 84.5762 129.818C84.0726 130.874 82.8989 130.842 81.9527 131.203C81.8917 131.443 81.8349 131.678 81.7537 131.995C81.3272 132.052 80.8764 132.117 80.3485 132.19C80.2307 132.474 80.0967 132.795 79.9545 133.144C79.5728 133.404 79.1626 133.68 78.7361 133.969C78.525 133.68 78.3178 133.392 78.0823 133.071C77.7574 133.534 77.4325 133.989 77.1076 134.452C76.8639 134.131 76.6527 133.855 76.4456 133.579C76.007 133.875 75.5968 134.152 75.1298 134.468C75.6009 134.805 76.0557 135.126 76.5146 135.451C75.9298 136.003 75.3369 135.549 74.7602 135.545C74.3703 135.545 74.0495 135.695 74.0454 136.17C73.818 136.215 73.4362 136.198 73.3915 136.312C72.9123 137.6 72.0594 138.286 70.4025 137.815C70.7802 138.461 70.9548 138.761 71.1091 139.021C70.8086 139.366 70.508 139.711 70.2075 140.057C69.4196 140.264 68.6317 140.471 67.7708 140.698C67.6814 141.153 67.6002 141.641 67.4865 142.124C67.4621 142.221 67.3321 142.294 67.2184 142.416C66.5483 142.4 65.8457 142.384 65.0294 142.363C65.3137 142.83 65.5005 143.135 65.7036 143.468C65.1634 143.606 64.6273 143.74 64.0669 143.882C64.2496 144.154 64.3918 144.362 64.5339 144.573C64.5421 144.666 64.5949 144.816 64.5542 144.841C63.9369 145.275 63.3115 145.694 62.6861 146.12C62.2271 146.189 61.7682 146.258 61.2484 146.335C61.4839 146.717 61.6667 147.022 61.8535 147.322C60.0706 147.81 59.8838 147.94 58.7873 149.41C58.5517 149.365 58.308 149.316 57.9831 149.255C57.5973 150.352 56.6185 150.868 55.6966 151.493C55.8753 151.794 56.054 152.094 56.2368 152.399C55.5504 153.024 54.4336 153.248 54.263 154.405C53.7026 154.624 53.3858 155.351 52.6629 155.29C52.6304 154.795 52.7969 154.23 52.0496 154.608C52.2202 154.819 52.3867 155.03 52.6629 155.29C52.6344 155.664 52.3095 155.786 51.9075 155.806C51.6719 155.818 51.4364 155.822 51.0587 155.831C50.7906 157.788 49.1702 158.941 48.1102 160.485C47.8706 160.44 47.6229 160.391 47.302 160.33C47.0786 160.72 46.8431 161.122 46.5791 161.577C46.2583 161.585 45.9049 161.593 45.5435 161.606C45.0561 162.243 44.5566 162.893 43.9799 163.648C44.1627 164.03 44.3617 164.44 44.5932 164.924C44.1099 164.997 43.6509 165.066 43.1839 165.135C43.0336 165.452 42.8834 165.773 42.729 166.089C41.8924 166.654 41.0558 167.218 40.2192 167.787C40.2557 168.859 39.5044 169.525 38.9236 170.281C38.0992 170.268 37.5956 170.768 37.1651 171.385C36.8971 171.771 36.5965 172.136 36.1498 172.717C36.1092 172.924 36.0158 173.416 35.9224 173.899C35.3051 174.342 34.6999 174.776 34.0826 175.215C33.9405 175.962 33.7983 176.697 33.6602 177.396C33.2054 177.704 32.7871 177.989 32.3688 178.269C32.121 178.22 31.8733 178.176 31.6215 178.127C31.1869 178.679 30.7524 179.236 30.2813 179.837C30.4112 180.129 30.594 180.543 30.7158 180.824C30.659 181.12 30.6793 181.311 30.6062 181.36C29.4528 182.127 28.2913 182.879 27.1501 183.618C26.9917 184.434 26.8536 185.161 26.7236 185.827C25.6108 186.684 25.2169 188.17 23.8239 188.52C23.7589 188.853 23.7142 189.096 23.6493 189.421C23.2025 189.486 22.7436 189.551 22.2847 189.62C22.0491 190.022 21.8136 190.424 21.578 190.822C21.0216 190.717 20.5302 190.619 20.0388 190.526C19.4012 190.936 18.7757 191.338 18.1381 191.748C17.6467 191.655 17.1553 191.557 16.7207 191.476C16.3755 191.671 16.0791 191.838 15.7907 192C15.6161 191.74 15.4739 191.533 15.2749 191.237C15.0028 191.379 14.7185 191.525 14.4261 191.679C13.7398 191.107 13.0331 190.518 12.1843 189.807C11.6523 189.706 10.9091 189.563 10.0725 189.401C10.0115 188.97 9.95063 188.511 9.87347 187.955C9.59324 187.837 9.26834 187.703 8.91907 187.557C8.35862 186.046 8.39111 184.267 7.11993 183.045C7.22959 182.468 7.32706 181.981 7.40422 181.567C7.20928 181.209 7.05089 180.917 6.89656 180.633C7.17273 180.446 7.37985 180.304 7.66008 180.117C7.50981 179.837 7.35142 179.548 7.17273 179.215C7.42453 179.02 7.69663 178.805 8.01341 178.561C7.56261 178.237 7.11181 177.908 6.66101 177.583C6.97373 177.339 7.24989 177.124 7.522 176.913C7.35549 176.669 7.2174 176.458 7.02652 176.177C7.30269 175.877 7.59104 175.564 8.00529 175.117C7.85908 174.752 7.68039 174.317 7.49357 173.854C7.75755 173.599 8.08245 173.282 8.50482 172.872C8.26521 172.4 8.05402 171.982 7.83471 171.552C7.87939 171.328 7.92406 171.085 7.96874 170.853C8.19211 170.703 8.39923 170.561 8.76474 170.313C8.9475 169.367 9.15462 168.286 9.32926 167.397C9.79224 167.023 10.0765 166.796 10.4827 166.471C10.3324 166.041 10.1781 165.598 9.98718 165.041C10.1374 164.916 10.3892 164.704 10.706 164.44C10.8319 163.782 10.9741 163.047 11.1162 162.312C11.4289 162.077 11.7213 161.853 12.0219 161.63C11.8472 161.334 11.6645 161.029 11.437 160.647C11.9325 160.574 12.3914 160.509 12.8504 160.44C13.9428 159.612 12.2899 158.921 12.9275 157.768C13.3012 157.666 14.0484 157.459 14.3855 157.37C14.7876 155.29 15.0719 153.812 15.3724 152.261C15.2221 152.013 15.0313 151.696 14.816 151.335C15.3562 151.201 15.9004 151.063 16.4365 150.929C16.2334 150.587 16.0588 150.287 15.8354 149.909C16.3634 149.828 16.8223 149.755 17.2893 149.682C17.8213 149.077 17.5249 148.561 17.0538 148.045C18.463 146.81 18.9666 144.788 20.847 144.098C20.6236 143.683 20.4652 143.391 20.2947 143.078C20.8348 142.969 21.2937 142.875 21.8339 142.765C21.6674 142.453 21.509 142.164 21.3668 141.896C22.0207 141.104 22.6827 140.308 23.3893 139.456C23.1863 139.001 23.0035 138.591 22.7923 138.115C23.2675 138.038 23.7305 137.965 24.3234 137.872C24.165 137.559 24.0229 137.283 23.8279 136.893C23.9945 136.028 24.1813 135.053 24.3843 134.001C24.4899 133.904 24.6686 133.741 24.8392 133.575C25.5377 132.893 26.6668 132.75 27.0932 131.711C27.5074 130.695 28.6893 130.57 29.3594 129.855C29.6721 129.522 29.798 128.913 30.1594 128.734C30.8011 128.413 30.7768 127.69 31.2357 127.329C31.719 126.947 32.2875 126.671 32.7952 126.362C32.5597 125.956 32.381 125.655 32.1413 125.245C32.584 125.213 32.9373 125.184 33.4003 125.152C33.8065 124.206 34.7243 123.625 35.7152 122.995C35.2482 122.65 34.8096 122.329 34.1029 121.805C35.2117 121.216 36.1945 120.697 37.2748 120.12C37.0555 119.499 36.9011 119.056 36.7103 118.52C37.5509 118.049 38.4972 117.517 39.1673 117.139C39.3501 116.197 39.4435 115.705 39.5531 115.137C40.8609 114.869 41.2386 113.508 42.1726 112.745C42.4854 112.489 42.4813 111.839 42.7087 111.067C43.1433 110.856 43.8175 110.531 44.3454 110.271C44.5363 108.066 46.372 107.148 47.0583 105.593C47.4888 105.589 47.8381 105.581 48.1671 105.577C48.3782 105.008 48.0655 104.911 47.696 104.854C47.3264 104.797 47.0096 104.699 47.233 104.147C47.9193 104.171 48.6179 104.2 49.4667 104.232C49.1864 103.753 49.0077 103.453 48.8087 103.111C49.357 102.973 49.9053 102.835 50.4414 102.697C50.4982 102.401 50.547 102.157 50.5916 101.925C51.1277 101.564 51.6516 101.211 52.3299 100.752C52.5126 99.8055 52.7197 98.7252 52.8984 97.8074C53.536 97.2469 54.0112 97.6855 54.4661 97.5637C54.4986 98.0592 54.3321 98.6237 55.0793 98.246C54.9087 98.0348 54.7422 97.8236 54.4661 97.5637C54.6001 96.654 55.4611 97.2794 56.0175 96.9748C56.2368 96.0001 57.1384 95.5655 57.9384 95.0213C58.4664 94.3878 58.0847 93.3197 59.1325 92.8567C59.7376 92.5927 59.1243 91.3743 60.0259 91.0657C60.2412 91.3418 60.4564 91.6139 60.6879 91.9064C61.0981 91.3987 61.9144 91.3987 62.0241 90.6392C62.4708 90.8464 62.7632 90.5133 63.0028 90.2778C63.6567 89.6361 64.5624 89.7255 65.2853 89.4006C65.1309 88.9619 64.9807 88.5274 64.8304 88.0969C65.1959 88.1659 65.5655 88.239 66.1178 88.3446C66.5849 87.9588 67.1575 87.4918 67.4946 87.2156C68.1525 87.1587 68.4977 87.1263 69.1638 87.0653C68.4855 86.379 67.9779 85.8591 67.4662 85.3434L68.9932 84.3118C69.2003 84.5798 69.4115 84.8479 69.708 85.2215C69.9354 84.8032 70.1425 84.4215 70.3537 84.0316C70.9588 83.6092 71.5315 84.125 72.1325 84.1006C72.3356 83.9707 72.5427 83.727 72.7539 83.727C73.7652 83.7148 73.1966 82.0294 74.5084 82.1918C75.2475 82.2812 76.0557 81.8101 76.8639 81.5867C76.9533 81.1156 77.0467 80.6364 77.132 80.2059C77.6924 79.4951 78.7037 79.3774 79.0326 78.4961C79.7799 78.6788 80.0804 77.9234 80.7668 77.7123C80.2672 77.3427 79.8368 77.0218 79.4063 76.7051C80.1089 75.8888 80.7383 76.8959 81.2785 76.5629C81.5425 76.9569 81.6846 77.164 81.8227 77.3671C82.4603 77.2046 83.102 77.0422 83.8574 76.8472C83.9549 76.6198 84.0889 76.2989 84.2351 75.9537C84.7306 75.6166 85.2504 75.2674 85.9165 74.8166C86.0505 74.114 86.2129 73.2895 86.3632 72.5098C86.7246 72.4448 86.9561 72.3433 87.1754 72.3717C87.6709 72.4286 88.1623 72.5504 88.6294 72.5342C88.6619 73.0296 88.4954 73.5941 89.2426 73.2164C89.0721 73.0053 88.9055 72.7941 88.6294 72.5342C88.7715 72.0346 88.8893 71.4214 89.0071 70.8122C89.3076 70.5969 89.6041 70.3776 89.8843 70.1786C90.0792 69.8334 89.8112 69.1268 90.6031 69.3095C90.9199 69.9553 90.526 70.5157 90.4651 71.0802C90.1808 71.3036 89.9087 71.5148 89.6406 71.7219C89.9452 72.1727 90.2254 72.5829 90.5057 72.9971C91.5616 72.4042 90.8834 71.129 91.5413 70.3979C91.6631 70.2599 91.9799 70.2964 92.2033 70.2517C92.248 70.7553 91.6225 71.332 92.3617 71.7585C92.7055 71.1438 92.6527 70.6416 92.2033 70.2517C92.3251 69.277 93.1089 69.7969 93.6491 69.6141C93.8562 69.2689 94.0877 68.8831 94.3639 68.416C94.6766 68.7206 94.9731 69.009 95.3264 69.3542C96.4717 69.3542 97.1458 68.3714 98.0556 67.8881C98.1287 67.5104 98.1977 67.153 98.2667 66.7915C99.5054 66.6494 100.261 65.5488 101.309 65.0939C101.804 65.6747 101.378 66.1458 101.495 66.5966C101 66.6291 100.435 66.4626 100.813 67.2098C101.024 67.0393 101.236 66.8728 101.495 66.5966C101.837 66.9784 102.291 67.3398 102.665 67.6363C103.364 67.7906 103.648 67.2667 104.074 67.0555C104.399 66.8971 104.7 66.6941 105.142 66.4301C105.492 66.7347 105.841 67.0393 106.3 67.4373C106.897 67.5063 106.604 66.7875 107.092 66.3164C107.266 66.1986 107.681 65.9184 108.071 65.6544C108.424 65.963 108.769 66.2636 109.114 66.5641C109.114 67.0271 108.729 67.4779 109.106 67.9855C109.784 67.8515 110.325 67.5307 110.605 66.8484C110.796 66.9702 111.019 67.0596 111.169 67.218C111.929 68.0262 111.917 68.0221 112.92 67.5551C113.119 67.4616 113.358 67.4657 113.557 67.3114C113.59 67.8068 113.423 68.3714 114.171 67.9937C114 67.7825 113.834 67.5713 113.557 67.3114C113.675 66.9256 113.773 66.4301 113.866 65.9346C114.223 66.0037 114.585 66.0727 115.015 66.158C115.259 65.963 115.539 65.7356 115.836 65.5001C116.185 66.0565 116.477 66.5113 117.192 66.621C117.57 66.6778 117.566 67.5144 118.183 67.5388C118.065 68.0505 118.264 68.347 118.784 68.4242C118.829 68.9278 118.203 69.5045 118.943 69.9309C119.286 69.3163 119.234 68.814 118.784 68.4242C118.833 68.1764 118.882 67.9287 118.926 67.681C119.422 67.7784 119.917 67.8718 120.413 67.9693C120.449 68.1805 120.445 68.5582 120.522 68.5744C121.331 68.7572 121.627 69.6263 122.358 69.8862C122.407 70.1136 122.374 70.4385 122.512 70.5523C122.845 70.8244 123.256 70.999 123.881 71.3523C123.13 71.466 122.667 71.5351 122.171 71.6082C121.989 72.3189 122.833 72.5179 122.829 73.0702C123.174 73.1352 123.422 73.184 123.69 73.2368C123.828 73.7607 123.966 74.2886 124.202 75.1862C124.559 74.183 124.795 73.521 125.026 72.8753C125.619 72.8834 125.591 73.2083 125.51 73.5738C125.428 73.9434 125.363 74.317 125.294 74.6866C125.96 75.8969 127.11 76.5386 128.202 77.3386C128.625 76.7579 128.958 76.303 129.49 75.5679C129.482 76.5792 129.262 77.3792 129.526 77.96C129.79 78.5367 129.839 79.0971 129.831 79.6738C130.517 79.8891 131.09 80.0678 131.634 80.2384C132.483 81.3349 131.22 81.4486 130.826 82.0497C131.143 82.2203 131.451 82.3827 131.817 82.5776C132.138 83.7148 132.791 84.8844 132.458 86.2287C132.856 86.4724 133.254 86.7161 133.746 87.0207C133.307 87.3456 132.934 87.6177 132.572 87.8857C131.894 87.7476 131.593 86.3546 130.615 87.3293C131.179 88.1659 131.744 89.0026 132.312 89.8351C131.947 90.2575 131.585 90.6758 131.208 91.1103C132.117 91.7723 132.921 92.2759 133.198 93.1044C132.714 93.7177 132.28 94.2741 131.845 94.8264C131.24 94.8792 130.663 94.3553 129.985 94.7858C130.172 95.8498 131.216 95.1919 131.703 95.6224C132.385 96.5687 131.277 97.519 131.715 98.5343C132.446 98.7252 132.239 98.0429 132.438 97.7343C132.528 97.5962 132.779 97.5596 132.958 97.4743C133.388 98.112 132.869 98.6927 132.885 99.0948C132.357 99.773 132.028 100.492 131.472 100.849C130.676 101.357 131.005 102.218 130.505 102.904C130.233 102.916 129.884 102.933 129.425 102.949C129.153 103.323 128.816 103.786 128.482 104.24C128.19 104.184 127.946 104.135 127.703 104.09C127.26 104.655 126.826 105.207 126.322 105.849C126.35 106.161 127.016 106.409 126.773 106.986C126.066 106.933 125.388 106.519 124.608 106.811C124.73 107.514 125.063 108.046 125.741 108.33C125.676 108.667 125.696 109.061 125.518 109.317C125.376 109.524 124.986 109.561 124.71 109.674C124.669 109.451 124.689 109.085 124.572 109.037C124.145 108.85 124.007 109.167 124.007 109.483C123.467 109.622 122.89 108.972 122.456 109.691C123.07 110.034 123.587 109.965 124.007 109.483C124.214 109.577 124.462 109.626 124.71 109.674L124.677 109.682ZM92.0408 94.8995C92.2642 94.8589 92.6297 94.8792 92.6784 94.7614C92.8653 94.335 92.5485 94.1969 92.2276 94.3797C92.1749 93.7705 92.3414 93.206 91.5941 93.5837C91.7647 93.7948 91.9312 94.006 92.183 94.1563C92.1342 94.404 92.0855 94.6518 92.2642 94.8548C91.655 94.9076 91.0905 94.7411 91.4682 95.4884C91.6794 95.3178 91.8906 95.1513 92.0408 94.8995ZM110.178 96.857C110.061 97.3687 110.26 97.6652 110.779 97.7424C110.893 98.0226 110.93 98.4084 111.137 98.5506C111.393 98.7293 111.791 98.709 112.124 98.7739C112.002 98.9648 111.913 99.2735 111.75 99.3222C111.324 99.4522 110.861 99.4644 110.373 99.5293C110.373 99.9476 110.373 100.293 110.373 100.666C111.206 100.435 111.937 100.232 112.656 100.029C112.729 99.639 112.802 99.2775 112.871 98.9161C113.488 99.0339 114.106 99.1557 114.711 99.2694C114.93 99.5659 115.141 99.8542 115.791 100.731C115.324 98.4897 117.387 98.7942 117.765 97.5434C118.025 97.7667 118.272 97.9982 118.541 98.2054C118.715 98.3434 118.918 98.4531 119.064 98.3475C119.117 98.9567 118.951 99.5212 119.698 99.1435C119.527 98.9323 119.361 98.7211 119.109 98.5709C119.231 98.38 119.353 98.1891 119.475 97.9982C120.161 98.0104 120.843 98.0226 121.834 98.0429C121.107 97.5353 120.656 97.2185 120.112 96.8408C120.754 96.6946 121.294 96.5687 121.765 96.459C121.607 96.0001 121.461 95.5655 121.31 95.1351C122.557 95.1188 122.967 94.0548 123.65 93.2628C123.784 93.8192 123.91 94.3472 124.121 95.2163C124.856 93.872 124.689 92.5805 125.209 91.5205C125.445 91.4759 125.668 91.4312 125.847 91.1672C125.9 91.7764 125.733 92.3409 126.48 91.9632C126.31 91.752 126.143 91.5408 125.891 91.3906C125.778 91.1103 125.741 90.7245 125.534 90.5824C125.278 90.4037 124.88 90.424 124.547 90.359C124.616 89.9976 124.685 89.6321 124.771 89.2016C124.576 88.9538 124.348 88.6655 124.149 88.4177C124.373 87.2603 124.592 86.1719 124.783 85.0834C124.819 84.8682 124.742 84.6286 124.718 84.4052C124.58 84.2022 124.442 83.9991 124.291 83.7757C124.576 83.5686 124.864 83.3574 125.221 83.0975C124.807 82.8619 124.385 82.6792 124.035 82.399C123.901 82.2893 123.934 81.9725 123.666 81.7938C124.275 81.741 124.84 81.9075 124.462 81.1603C124.251 81.3308 124.039 81.4974 123.889 81.7491C123.564 81.8629 123.219 81.936 122.915 82.0944C122.399 82.3665 122.001 82.2771 121.664 81.8263C122.265 81.0709 122.858 80.3318 123.479 79.5479C122.794 79.3611 122.14 79.3896 121.517 79.6332C121.306 79.3855 121.103 79.1459 120.904 78.9144C119.82 79.6617 120.73 80.2181 120.941 80.8272C120.953 80.8557 120.75 80.9613 120.628 81.0425C119.726 80.8841 118.719 81.0222 118.004 80.2465C118.082 79.8404 118.151 79.4789 118.224 79.1134C118.561 79.3977 118.898 79.682 119.332 80.0475C119.897 79.5033 119.783 78.6463 119.999 77.9113C120.222 77.8706 120.587 77.891 120.636 77.7732C120.823 77.3467 120.506 77.2087 120.141 77.168C120.547 76.6157 120.949 76.0634 121.318 75.5598C120.929 74.9831 120.644 74.5648 120.295 74.0449C119.901 74.3455 119.499 74.6338 119.121 74.9547C118.76 75.2674 118.175 75.3445 118.065 75.9334C117.992 76.303 117.923 76.6766 117.846 77.0706C118.037 77.3711 118.232 77.6879 118.435 78.0087C118.366 78.3661 118.293 78.7398 118.224 79.1093C117.789 78.9347 117.217 79.1378 116.924 78.6301C116.607 77.6716 117.623 76.7579 116.997 75.8522C116.457 76.0431 115.929 76.2258 115.332 76.437C114.881 75.6613 114.516 75.0278 114.195 74.4754C113.46 74.3333 112.855 74.2155 112.25 74.1018C112.449 73.387 111.945 73.2855 111.161 73.1027C110.849 73.3586 110.381 73.7363 109.902 74.1302C109.809 74.6135 109.715 75.0968 109.634 75.5151C109.321 75.7669 109.066 75.9781 108.777 76.2137C109.378 76.8716 109.679 77.4929 108.769 78.0615C108.525 78.0128 108.282 77.9681 107.949 77.9031C107.729 78.2849 107.575 78.7601 107.258 79.0647C106.905 79.4017 106.434 79.6089 106.462 80.2384C106.613 80.5714 106.775 80.9369 106.958 81.3471C106.312 81.4364 105.853 81.4974 105.358 81.5623C105.358 81.9928 105.354 82.338 105.35 82.7279C105.829 82.5817 106.194 82.4721 106.678 82.3258C106.641 82.7929 106.617 83.134 106.592 83.4305C106.121 83.7513 105.707 84.0316 105.293 84.3118C105.077 84.0275 104.862 83.7392 104.598 83.3858C104.407 83.7148 104.229 84.0113 104.042 84.3321C104.375 84.8885 104.688 85.4002 104.891 85.7414C105.654 86.0622 106.393 85.8023 106.73 86.4643C106.418 86.8257 106.113 87.1709 105.813 87.5161C105 87.4715 104.456 87.971 104.099 88.568C103.851 88.9823 103.944 89.5224 104.639 89.6036C104.346 90.3468 103.697 90.6149 102.925 90.8667C102.689 90.6961 102.421 90.4971 102.023 90.2087C102.495 89.6036 102.913 89.0675 103.38 88.4665C103.201 88.0725 103.022 87.6664 102.832 87.2481C103.339 87.1181 103.847 86.9882 104.387 86.8501C104.054 86.3587 103.778 85.9485 103.502 85.5424C103.197 85.7373 102.888 85.9322 102.58 86.1272C102.218 86.0581 101.853 85.985 101.491 85.916C101.792 85.5708 102.092 85.2256 102.409 84.8641C102.097 84.06 101.41 83.593 100.639 83.2234C100.574 82.7645 100.513 82.3096 100.435 81.7491C99.7125 82.1918 99.8466 82.8741 99.6516 83.4183C99.5176 83.7879 99.2496 84.0275 98.8516 84.0803C98.7988 83.4711 98.9653 82.9066 98.218 83.2843C98.3886 83.4955 98.5551 83.7067 98.8069 83.8569C98.6282 84.7829 98.4495 85.7048 98.2546 86.712C98.9003 86.976 99.4607 87.0938 99.8141 87.6502C100.009 87.9588 100.63 87.9913 101.061 88.1497C101.207 88.5802 101.353 89.0107 101.508 89.4696C100.594 90.2575 100.269 89.0757 99.5988 88.702C99.3308 89.2706 98.4657 89.1853 98.3967 89.9488C98.0312 89.8798 97.6697 89.7904 97.3002 89.7498C97.2067 89.7376 97.0037 89.8717 97.0078 89.9285C97.0199 90.1153 97.0565 90.4159 97.1661 90.4605C97.5073 90.5905 97.889 90.623 98.2505 90.692C98.1774 91.0616 98.1083 91.4352 98.0393 91.7886C97.7428 92.0119 97.4545 92.2231 97.0808 92.5034C97.4504 92.7024 97.7591 92.8648 98.0637 93.0273C98.4292 92.808 98.746 92.613 99.0627 92.4221C99.2739 92.7024 99.4932 92.9948 99.7532 93.34C100.066 93.3278 100.415 93.3116 100.777 93.2953C100.655 92.345 99.6435 91.9145 99.741 90.9763C100.102 91.0454 100.464 91.1144 100.825 91.1834C101.106 91.9145 101.853 92.0891 102.32 92.4465C102.576 93.5105 102.815 94.5056 102.982 95.1797C103.754 95.7646 104.294 96.1747 105.134 96.5321C104.59 96.9951 104.245 97.2916 103.904 97.584C104.078 97.8642 104.265 98.1647 104.444 98.449C104.156 98.6683 103.883 98.8755 103.595 99.0948C104.221 99.5618 104.813 100.005 105.386 100.431C106.276 99.6796 105.406 99.1313 105.325 98.5465C105.581 98.3313 105.829 98.1282 106.056 97.9414C105.748 97.4662 105.48 97.056 104.838 96.5849C105.049 95.4965 105.264 94.4081 105.459 93.3156C105.475 93.2222 105.37 93.1044 105.321 92.9988C104.927 92.7755 104.529 92.5521 104.152 92.3368C104.452 91.1631 104.497 91.1185 105.22 91.2606C105.646 91.6302 106.081 91.9998 106.751 92.5805C107.161 92.1013 107.563 91.6342 107.993 91.1347C107.807 90.753 107.092 90.9479 106.552 90.7367C106.19 90.5946 105.955 90.3306 106.129 89.892C106.702 90.0016 107.275 90.1641 107.855 90.2047C108.197 90.2291 108.509 90.0138 108.505 89.5793C108.988 89.5833 109.155 89.9123 109.122 90.3062C109.082 90.7854 108.952 91.2566 108.907 91.4921C109.159 92.016 109.289 92.28 109.338 92.3775C109.151 92.8892 108.448 92.7755 108.781 93.34C109.443 93.5999 110.093 93.8598 110.719 94.1076C110.572 94.867 110.455 95.4843 110.333 96.1016C110.109 96.1422 109.744 96.1219 109.695 96.2397C109.508 96.6662 109.825 96.8042 110.191 96.8448L110.178 96.857ZM127.54 78.3905C127.593 78.9997 127.427 79.5642 128.174 79.1865C128.003 78.9753 127.837 78.7641 127.63 78.8413C127.577 78.2321 127.743 77.6676 126.996 78.0453C127.167 78.2565 127.333 78.4677 127.54 78.3905ZM116.071 73.8622C116.124 74.4714 115.958 75.0359 116.705 74.6582C116.534 74.447 116.368 74.2358 116.161 74.313C116.108 73.7038 116.274 73.1393 115.527 73.517C115.698 73.7282 115.864 73.9394 116.071 73.8622ZM113.984 72.6885C114.037 73.2977 113.87 73.8622 114.617 73.4845C114.447 73.2733 114.28 73.0621 114.073 73.1393C114.02 72.5301 114.187 71.9656 113.44 72.3433C113.61 72.5545 113.777 72.7656 113.984 72.6885ZM104.968 79.4342C105.021 80.0434 104.854 80.6079 105.601 80.2302C105.431 80.019 105.264 79.8079 105.012 79.6576C105.122 79.085 105.285 78.5123 105.325 77.9316C105.35 77.5904 105.134 77.2818 104.744 77.5051C104.692 76.8959 104.858 76.3314 104.111 76.7091C104.281 76.9203 104.448 77.1315 104.7 77.2818C104.671 78.0696 103.108 78.0981 103.867 79.4261C104.143 79.4789 104.578 79.5683 104.968 79.4302V79.4342ZM117.931 100.666C116.75 100.191 115.852 101.093 114.049 101.272C115.734 101.775 116.668 102.185 117.696 101.885C117.793 101.377 117.862 101.02 117.708 100.707C118.317 100.654 118.882 100.821 118.504 100.074C118.293 100.244 118.082 100.411 117.931 100.662V100.666ZM126.89 86.1881C127.088 86.7567 127.551 86.9949 128.279 86.9029C128.052 86.1759 127.374 86.3749 126.895 86.2003C126.895 86.2003 129.327 85.4936 129.364 85.4855C128.889 85.1403 128.43 84.8073 128.08 84.5514C128.048 84.0722 128.024 83.727 127.991 83.2802C127.585 83.5158 127.288 83.6864 126.972 83.8651C126.773 83.597 126.562 83.3087 126.293 82.9472C125.644 83.9097 125.441 84.8966 125.696 85.9729C126.164 86.0622 126.533 86.1353 126.895 86.1962L126.89 86.1881ZM102.413 80.8557C102.425 81.6801 101.958 82.2406 102.352 82.9188C103.205 83.0122 102.714 81.8954 103.461 81.7613C103.762 81.7248 104.208 81.672 104.704 81.6111C104.2 80.7338 103.42 80.941 102.413 80.8557ZM93.9659 98.2338C94.5791 98.2338 94.9162 97.7221 95.497 97.4094C94.9081 97.1819 95.0096 96.3656 94.3314 96.2478C93.8643 96.8611 93.7059 97.5068 93.9618 98.2338H93.9659ZM113.61 101.653C112.741 101.296 112.428 101.166 112.891 101.357C111.795 101.621 111.234 101.755 110.235 101.995C111.104 102.352 111.417 102.482 110.954 102.291C112.051 102.027 112.611 101.893 113.61 101.653ZM96.3945 103.562C96.2361 103.538 96.0777 103.513 95.9193 103.493C95.8097 103.814 95.6838 104.135 95.6107 104.464C95.5904 104.545 95.7406 104.752 95.8016 104.748C95.9884 104.732 96.297 104.675 96.3214 104.573C96.4026 104.253 96.3783 103.903 96.3945 103.566V103.562ZM107.717 75.5192C107.128 76.0796 106.82 76.5101 107.644 77.0218C107.941 76.5954 108.172 76.2137 107.717 75.5192ZM127.536 91.6139C127.695 91.6383 127.853 91.6627 128.011 91.683C128.121 91.3621 128.243 91.0413 128.32 90.7123C128.34 90.6311 128.19 90.424 128.129 90.4281C127.942 90.4443 127.634 90.5012 127.609 90.6027C127.528 90.9235 127.552 91.2728 127.536 91.6099V91.6139ZM128.401 100.37C127.772 100.764 127.674 101.259 128.113 101.86C128.742 101.467 128.84 100.971 128.401 100.37ZM116.461 67.7094L116.291 67.1814C116.193 67.2464 116.01 67.3154 116.01 67.3804C116.014 67.5632 116.096 67.7419 116.148 67.9246C116.246 67.8596 116.347 67.7906 116.465 67.7094H116.461ZM112.769 70.8528C112.713 70.6822 112.656 70.5035 112.599 70.3208C112.501 70.3857 112.319 70.4548 112.319 70.5198C112.323 70.7025 112.404 70.8812 112.457 71.064C112.554 70.999 112.656 70.93 112.774 70.8487L112.769 70.8528ZM111.567 71.665C111.47 71.73 111.287 71.7991 111.287 71.864C111.291 72.0468 111.372 72.2255 111.425 72.4083C111.523 72.3433 111.705 72.2742 111.705 72.2093C111.701 72.0265 111.62 71.8478 111.567 71.665ZM126.627 79.5845C126.562 79.487 126.492 79.3043 126.427 79.3043C126.245 79.3083 126.066 79.3896 125.883 79.4424C125.948 79.5398 126.017 79.7226 126.082 79.7226C126.265 79.7185 126.444 79.6373 126.627 79.5845ZM129.185 81.7329C129.128 81.5583 129.071 81.3796 129.015 81.2009C128.917 81.2659 128.734 81.3349 128.734 81.3999C128.738 81.5826 128.82 81.7613 128.872 81.9441C128.97 81.8791 129.071 81.8101 129.189 81.7288L129.185 81.7329ZM101.674 80.941C101.609 80.8435 101.54 80.6607 101.475 80.6607C101.292 80.6648 101.114 80.746 100.931 80.7988C100.996 80.8963 101.065 81.079 101.13 81.079C101.313 81.075 101.491 80.9938 101.674 80.941ZM126.391 88.7954C126.326 88.698 126.257 88.5152 126.192 88.5152C126.009 88.5193 125.83 88.6005 125.648 88.6533C125.713 88.7508 125.782 88.9335 125.847 88.9335C126.029 88.9295 126.208 88.8482 126.391 88.7954ZM131.151 92.6902C131.208 92.8608 131.264 93.0394 131.321 93.2222C131.419 93.1572 131.602 93.0882 131.602 93.0232C131.597 92.8404 131.516 92.6617 131.463 92.479C131.366 92.544 131.264 92.613 131.147 92.6942L131.151 92.6902ZM126.188 93.275C126.107 93.1572 126.042 93.0598 125.973 92.9582C125.859 93.1085 125.717 93.2466 125.644 93.4131C125.619 93.4699 125.761 93.604 125.83 93.7014C125.952 93.5552 126.07 93.4131 126.188 93.275ZM131.009 99.44C130.838 99.4968 130.659 99.5537 130.477 99.6106C130.542 99.708 130.611 99.8908 130.676 99.8908C130.858 99.8867 131.037 99.8055 131.22 99.7527C131.155 99.6552 131.086 99.5537 131.005 99.4359L131.009 99.44ZM90.0955 94.4081C90.2701 94.3512 90.4488 94.2944 90.6275 94.2375C90.5625 94.14 90.4935 93.9573 90.4285 93.9573C90.2458 93.9613 90.0671 94.0426 89.8843 94.0954C89.9493 94.1928 90.0183 94.2944 90.0995 94.4122L90.0955 94.4081ZM108.903 98.0348C109.021 97.9536 109.118 97.8886 109.22 97.8195C109.07 97.7058 108.932 97.5637 108.765 97.4906C108.708 97.4662 108.574 97.6084 108.477 97.6774C108.623 97.7992 108.765 97.917 108.903 98.0348ZM120.908 99.8014C120.734 99.8583 120.555 99.9151 120.376 99.972C120.441 100.069 120.51 100.252 120.575 100.252C120.758 100.248 120.937 100.167 121.119 100.114C121.054 100.017 120.985 99.9152 120.904 99.7974L120.908 99.8014ZM64.9198 90.9276C64.8629 90.757 64.806 90.5783 64.7492 90.3956C64.6517 90.4605 64.469 90.5296 64.469 90.5946C64.473 90.7773 64.5542 90.956 64.607 91.1388C64.7045 91.0738 64.806 91.0048 64.9238 90.9235L64.9198 90.9276ZM93.0968 95.9798C92.9262 96.0367 92.7475 96.0935 92.5647 96.1504C92.6297 96.2478 92.6988 96.4306 92.7637 96.4306C92.9465 96.4265 93.1252 96.3453 93.3079 96.2925C93.243 96.195 93.1739 96.0935 93.0927 95.9757L93.0968 95.9798ZM89.1492 95.8783C89.0517 95.9432 88.869 96.0123 88.869 96.0773C88.8731 96.26 88.9543 96.4387 89.0071 96.6215C89.1045 96.5565 89.2873 96.4875 89.2873 96.4225C89.2832 96.2397 89.202 96.061 89.1492 95.8783ZM97.4179 97.584C97.2433 97.6409 97.0646 97.6977 96.8859 97.7546C96.9509 97.852 97.0199 98.0348 97.0849 98.0348C97.2677 98.0307 97.4464 97.9495 97.6291 97.8967C97.5641 97.7992 97.4951 97.6977 97.4139 97.5799L97.4179 97.584ZM115.641 102.531C115.543 102.596 115.361 102.665 115.361 102.73C115.365 102.912 115.446 103.091 115.499 103.274C115.596 103.209 115.779 103.14 115.779 103.075C115.775 102.892 115.694 102.713 115.641 102.531ZM88.3654 98.5384C88.4466 98.6562 88.5116 98.7536 88.5806 98.8552C88.6944 98.7049 88.8365 98.5668 88.9096 98.4003C88.934 98.3434 88.7918 98.2094 88.7228 98.112C88.6009 98.2582 88.4832 98.4003 88.3654 98.5384ZM94.0146 99.245C93.844 99.3019 93.6613 99.3588 93.4826 99.4156C93.5476 99.5131 93.6166 99.6958 93.6816 99.6958C93.8643 99.6918 94.043 99.6106 94.2258 99.5578C94.1608 99.4603 94.0918 99.3588 94.0105 99.241L94.0146 99.245ZM109.719 102.661C109.663 102.49 109.606 102.311 109.549 102.133C109.451 102.198 109.269 102.267 109.269 102.332C109.273 102.514 109.354 102.693 109.407 102.876C109.504 102.811 109.606 102.742 109.724 102.661H109.719ZM108.794 119.454C108.737 119.283 108.68 119.105 108.623 118.922C108.525 118.987 108.343 119.056 108.343 119.121C108.347 119.304 108.428 119.482 108.481 119.665C108.578 119.6 108.68 119.531 108.798 119.45L108.794 119.454Z" fill="#C0B8F2"/>
<path d="M81.1932 51.1515C80.9699 51.1962 80.6409 51.1596 80.5434 51.2936C80.0155 52.0287 79.5647 52.8207 79.0367 53.5557C78.9392 53.6898 78.6103 53.6532 78.3869 53.6979C78.456 53.3324 78.5453 52.9709 78.5859 52.6013C78.5981 52.5079 78.4641 52.3049 78.4072 52.3089C78.2204 52.3211 77.9199 52.3577 77.8752 52.4673C77.7452 52.8085 77.7127 53.1902 77.6437 53.5517C77.2701 53.4786 76.9005 53.4095 76.5269 53.3364C75.8608 54.7741 74.3906 55.294 73.2657 56.2321C73.1966 56.5854 73.1235 56.9591 73.0545 57.3287C73.022 57.4464 73.0301 57.6251 72.953 57.6779C72.1285 58.2587 71.2878 58.8191 70.5081 59.343C69.9476 60.1715 69.4278 60.9432 68.8755 61.7636C68.3069 61.7229 67.7099 61.6783 67.1169 61.6376C67.0032 61.7148 66.8245 61.7676 66.8083 61.857C66.6458 62.592 66.5118 63.3353 66.3331 64.2531C65.5655 64.2531 64.7776 64.2612 63.9004 64.2653C64.1928 64.7567 64.3837 65.0735 64.5665 65.374C64.3268 65.9548 64.5786 66.698 63.8679 67.0716C63.6567 66.7873 63.4415 66.499 63.2222 66.2106C62.3409 66.7873 62.6942 67.8026 62.3937 68.5905C61.3012 69.35 61.0129 70.9461 59.6239 71.1654C59.3559 71.8883 59.5143 72.5868 58.9173 73.0823C58.6695 72.7696 58.4583 72.5056 58.239 72.2294C57.3293 72.5299 57.8654 73.5534 57.2562 74.1666C56.6511 74.1382 55.9444 74.1057 55.0875 74.0651C55.3393 74.5281 55.5017 74.8164 55.6682 75.1251C54.7504 75.5068 54.7951 76.843 53.7635 77.1313C52.6913 77.4278 53.0284 78.898 51.8425 78.9873C52.1268 79.4097 52.269 79.6168 52.4111 79.828C51.4811 80.7174 51.01 82.0617 49.6901 82.4475C49.6007 82.9146 49.5276 83.2841 49.4545 83.67C48.5976 84.7665 47.9031 86.0945 46.8228 86.919C45.6613 87.8125 45.1252 89.3273 43.655 89.7862C43.8581 90.1436 44.0246 90.4401 44.2277 90.8015C43.6875 90.8909 43.2286 90.968 42.6275 91.0696C42.4773 91.8534 42.3148 92.69 42.1646 93.4657C41.5635 93.5673 41.1046 93.6485 40.5644 93.7419C40.7634 94.0993 40.9299 94.3917 41.1249 94.745C40.5888 94.879 40.0486 95.0171 39.4923 95.1552C39.6547 95.3948 39.7968 95.606 39.9755 95.87C39.4395 97.0478 38.5338 97.9006 37.3601 98.5707C37.2261 99.2733 37.0839 100.004 36.9499 100.699C35.7356 101.426 35.5325 103.485 33.4572 102.969C33.2867 103.619 33.1364 104.2 32.9821 104.776C32.7749 104.918 32.5637 105.061 32.1982 105.308C32.0155 106.255 31.8084 107.335 31.6256 108.285C30.9474 108.744 30.4235 109.098 29.9036 109.451C29.7574 109.772 29.6112 110.093 29.4447 110.454C29.0954 110.462 28.7462 110.466 28.3928 110.474C28.2872 110.543 28.1085 110.6 28.0923 110.69C27.8852 111.672 27.7024 112.659 27.5156 113.626C27.1785 113.869 26.878 114.089 26.5693 114.312C26.4759 114.795 26.3825 115.291 26.2688 115.872C24.6646 116.322 24.2788 118.292 22.7193 118.771C22.5121 119.437 22.3334 120.01 22.1507 120.603C21.7405 120.615 21.3872 120.623 21.0135 120.631C20.2744 121.277 20.5424 122.252 20.2581 123.052C19.385 123.698 18.9139 124.681 18.2641 125.509C17.9879 125.862 18.2397 126.524 17.6671 126.788C16.9645 127.109 17.0376 128.051 16.2822 128.405C14.812 129.095 14.479 130.882 13.2037 131.824C12.9073 132.044 12.9844 132.771 12.9398 132.994C12.424 133.656 12.0625 134.115 11.4899 134.85C10.9538 135.211 10.1172 135.776 9.23995 136.373C9.15466 136.82 9.06126 137.307 8.98003 137.725C7.94441 138.996 6.12903 138.647 5.15839 139.841C4.62636 139.74 4.13495 139.642 3.5948 139.541C3.40798 139.285 3.18868 138.988 2.97343 138.692C2.67696 138.875 2.37236 139.057 1.97436 139.301C1.92563 138.887 1.88501 138.542 1.79973 137.77C1.63728 137.161 -0.0359613 137.449 0.00059003 136.141C0.524492 133.416 1.05246 130.695 1.57636 127.978C1.79567 127.832 2.00279 127.69 2.37236 127.442C2.54294 126.756 2.75006 125.931 2.95719 125.107C3.16837 124.965 3.37549 124.823 3.58262 124.685C4.28116 123.844 3.74101 122.54 4.91065 121.752C5.73102 121.2 4.95938 119.474 6.32397 118.95C6.23462 117.728 7.453 117.147 7.76165 116.168C7.53016 115.786 7.33928 115.474 7.1484 115.161C7.35553 115.019 7.56671 114.877 7.77384 114.735C8.43176 114.17 7.851 112.891 9.00034 112.61C9.24807 111.798 9.49581 110.982 9.74355 110.17C9.95473 110.028 10.1619 109.885 10.5274 109.642C10.7589 108.444 11.0147 107.12 11.2462 105.922C11.6117 105.674 11.8188 105.532 12.0706 105.365C12.2047 104.667 12.3468 103.932 12.489 103.196C12.8017 102.961 13.0981 102.738 13.419 102.49C13.6992 101.044 13.9835 99.5576 14.2678 98.0874C14.5805 97.8559 14.881 97.6366 15.1938 97.4051C15.478 95.9309 15.7664 94.4445 16.0507 92.9703C16.5827 92.6088 17.1066 92.2555 17.6874 91.8656C17.8498 91.3457 18.0326 90.7731 18.2072 90.2208C18.4387 90.0624 18.6458 89.9243 18.926 89.7375C19.1047 88.8196 19.2916 87.8449 19.4662 86.9474C20.0266 86.3585 20.5668 85.9524 20.713 85.1117C20.8227 84.4944 21.4765 83.9746 21.8502 83.4588C21.5781 83.0121 21.3872 82.6993 21.1516 82.3095C21.6471 82.2364 22.1101 82.1714 22.5731 82.1023C23.1335 81.355 22.833 80.0839 24.0067 79.7021C23.6737 78.4878 25.0748 78.1345 25.2779 77.1151C25.1235 76.8389 24.9448 76.5222 24.7458 76.1607C24.9976 75.9658 25.2697 75.7505 25.5743 75.515C25.7083 74.8124 25.8546 74.0732 25.9926 73.3422C26.3054 73.1107 26.6059 72.8914 26.9186 72.6599C27.0607 71.9289 27.2029 71.1897 27.345 70.4587C27.8811 70.0972 28.401 69.7439 29.1198 69.2566C29.1685 68.822 29.2741 68.2372 29.2782 67.6483C29.2782 67.5224 28.9167 67.3925 28.7218 67.2625C28.7949 66.8929 28.8639 66.5233 28.937 66.1416C29.4528 65.7964 29.9767 65.4471 30.6347 65.0085C30.5088 64.7526 30.3788 64.4846 30.1798 64.0785C30.2651 63.6317 30.3788 63.0469 30.5088 62.3687C30.8865 62.3687 31.2398 62.3646 31.6337 62.3605C32.0195 61.8651 32.45 61.3168 32.9455 60.6792C32.8399 60.5005 32.6653 60.204 32.4744 59.871C32.7059 58.677 32.9414 57.4464 33.1851 56.1874C33.4613 55.9884 33.7618 55.7691 34.0705 55.5458C34.1639 55.0625 34.2573 54.567 34.3507 54.0878C34.6594 53.8644 34.9599 53.6451 35.2685 53.4217C35.4107 52.6826 35.5528 51.9475 35.695 51.2165C36.7509 50.8753 36.6372 49.8681 36.9337 49.1005C38.0018 48.7756 37.7459 47.6872 38.148 46.9806C38.6069 46.8872 39.0658 46.7978 39.5166 46.7044C39.3745 46.2902 39.2323 45.8718 39.0293 45.2911C39.3217 45.0109 39.6628 44.686 40.0811 44.2839C40.1502 43.9224 40.2477 43.431 40.3411 42.9437C40.9543 42.5051 41.5635 42.0746 42.1727 41.64C42.2702 41.1405 42.3636 40.6531 42.4448 40.2226C42.7534 39.9749 43.0174 39.7637 43.2773 39.5525C43.1027 39.2926 42.9606 39.0855 42.8144 38.8702C42.8306 38.789 42.8184 38.6469 42.8672 38.6225C44.3089 37.863 45.0765 36.4985 45.9659 35.2354C46.0999 35.0445 46.3558 34.9349 46.567 34.7805C46.7091 34.0536 46.8512 33.3144 46.9893 32.5875C47.2086 32.4372 47.4198 32.2951 47.7772 32.0554C47.96 31.1092 48.1671 30.0329 48.3823 28.912C49.7997 28.6196 50.0678 27.1494 51.1399 26.5443C51.3389 25.399 52.4152 25.1351 53.1462 24.5381C52.9594 24.2335 52.7726 23.9289 52.5857 23.6243C53.1259 23.2588 53.6457 22.9095 54.259 22.4912C54.1209 22.2231 53.9747 21.9429 53.796 21.5896C54.0234 21.4028 54.2793 21.1916 54.5636 20.9601C54.7829 20.1925 54.7626 19.2422 55.7698 18.8807C55.6439 17.971 56.7851 17.8898 56.9069 17.1222C57.0247 16.379 58.1781 16.3018 58.0644 15.384C58.6776 15.1241 58.832 14.5108 59.1812 14.0356C59.5305 13.5564 60.1844 13.3046 60.7042 12.9513C61.0169 12.7401 61.3906 12.5817 61.622 12.3015C61.8332 12.0456 61.886 11.6639 61.9916 11.3796C62.5521 11.3024 63.011 11.2415 63.4455 11.1806C63.5105 10.8435 63.5593 10.5958 63.6121 10.3074C64.14 10.1775 64.6802 10.0394 65.3056 9.88504C64.7939 9.50328 64.3634 9.18245 63.7298 8.7154C64.3268 8.67479 64.6761 8.65448 65.196 8.61793C65.2934 8.45142 65.4681 8.16307 65.6224 7.8666C65.8092 7.50921 66.0285 7.25335 66.459 7.31427C66.4915 7.80974 66.325 8.37426 67.0723 7.99656C66.9017 7.78537 66.7352 7.57419 66.459 7.31427C66.5524 7.05435 66.6255 6.68477 66.6986 6.30708C67.2753 5.76287 67.8804 6.25022 68.5262 6.2624C68.7333 6.51826 68.9648 6.80255 69.2003 7.09902C70.1872 6.87159 69.5821 5.83191 69.8461 5.55574C70.4837 5.07245 70.8817 4.77598 71.2635 4.48763C71.5071 4.80441 71.7183 5.08058 71.9376 5.36486C72.3235 4.87345 72.6971 4.42671 73.0423 3.95561C73.3185 3.58197 73.5581 3.17991 73.8139 2.79003C74.1673 2.76566 74.5165 2.74535 74.8699 2.72099C75.1054 2.31892 75.341 1.92092 75.6171 1.44575C75.8892 1.79096 76.1045 2.06306 76.3563 2.3839C76.539 2.42045 76.8558 2.58696 77.0142 2.49355C78.0498 1.87218 79.4266 1.99808 80.2916 0.86499C81.8755 1.16958 83.4513 1.47418 84.8971 1.75441C85.2586 1.51073 85.4697 1.36859 85.75 1.17771C87.1552 1.44981 88.6213 1.73004 90.1686 2.03057C90.725 2.49355 91.3911 2.98091 91.9759 3.55354C92.4835 4.04902 92.6297 4.95062 93.6816 4.93843C93.8847 4.58104 94.1162 4.17492 94.3477 3.77285C94.4451 3.73224 94.5467 3.68756 94.6441 3.64695C94.9487 4.84908 95.034 5.01966 95.8219 6.0106C96.029 5.86846 96.2402 5.72632 96.4555 5.58417C97.0362 5.69789 97.617 5.80754 98.1287 5.90907C98.6891 6.92845 97.8038 7.21274 97.2961 7.60262C97.8119 8.3377 98.5348 8.09403 99.0912 8.3174C99.1724 9.33271 101.085 9.02406 100.622 10.4333C101.008 11.0709 101.394 11.7085 101.796 12.3746C101.755 12.5777 101.711 12.8254 101.662 13.065C102.202 13.796 103.4 13.9179 103.481 15.055C103.274 15.1972 103.063 15.3393 102.84 15.4896C102.925 16.7039 104.188 15.6358 104.489 16.4724C104.862 17.3334 104.558 18.235 104.212 19.1163C103.693 19.1934 103.238 19.2625 102.629 19.3518C103.64 20.1275 104.525 20.8058 105.427 21.4962C105.163 21.6749 104.956 21.817 104.679 22.0038C104.517 22.5156 104.334 23.0882 104.156 23.6527C103.94 23.7989 103.729 23.9411 103.494 24.0994C103.632 24.5015 103.774 24.9117 103.944 25.399C103.599 25.8174 103.226 26.2641 102.742 26.8449C102.929 27.2266 103.136 27.6449 103.376 28.1323C103.319 28.4206 103.25 28.7943 103.177 29.1638C102.958 29.2044 102.62 29.1679 102.543 29.2938C102.072 30.0451 102.275 31.1945 101.171 31.5722C101.057 32.161 100.943 32.7499 100.829 33.3388C100.464 33.2698 100.102 33.1804 99.7329 33.1398C99.6395 33.1276 99.4364 33.2616 99.4405 33.3185C99.4527 33.5053 99.4892 33.8058 99.5989 33.8505C99.94 33.9805 100.322 34.013 100.683 34.082C100.793 34.4029 100.915 34.7237 101.012 35.0486C101.073 35.2638 101.102 35.4913 101.142 35.7106C100.805 35.6456 100.448 35.4791 100.143 35.5481C99.8994 35.605 99.7207 35.9502 99.6232 36.1451C99.1278 36.1776 98.5632 36.0111 98.9409 36.7584C99.1521 36.5878 99.3633 36.4213 99.6232 36.1451C99.7532 36.3644 99.9928 36.5634 100.135 36.6772C100.151 37.461 99.6273 37.6112 99.3024 37.9483C99.0019 38.261 98.8435 38.7118 98.6323 39.0814C98.3074 39.0205 98.0637 38.9718 97.8241 38.9271C97.3963 39.5552 97.4234 40.0751 97.9053 40.4866C97.5926 41.3923 96.3336 41.4126 96.0899 42.1883C95.8178 43.0533 95.1031 43.2239 94.5873 43.6828C94.3761 43.3985 94.1608 43.1183 93.9293 42.8137C93.5882 43.2686 93.2714 43.6909 92.9384 44.1377C92.7394 43.8453 92.6013 43.6382 92.4429 43.4067C92.2683 43.4676 91.9231 43.5569 91.9271 43.5975C92.049 44.5194 90.9768 44.6129 90.7413 45.3561C90.5463 45.9693 89.9412 46.4526 89.2833 47.2892C88.3411 47.9268 87.0942 48.7716 85.8434 49.6163C85.4941 49.6366 85.1408 49.661 84.7956 49.6813C84.1904 50.5382 83.5853 51.3911 82.9924 52.2358C82.5375 51.9881 82.5538 51.2896 81.9283 51.2936C82.0258 50.7981 82.1192 50.3027 82.2167 49.8072C82.7284 49.925 83.0249 49.726 83.102 49.2061C83.6652 49.0112 83.9021 48.5645 83.8128 47.8659C82.964 47.9878 83.3295 48.7553 83.102 49.2061C82.5903 49.0884 82.2938 49.2874 82.2167 49.8072C81.9365 49.9209 81.5506 49.9575 81.4085 50.1646C81.2298 50.4205 81.2501 50.8185 81.1851 51.1515H81.1932ZM80.8846 12.3056C80.9374 12.9147 80.7709 13.4793 81.5181 13.1016C81.3476 12.8904 81.1811 12.6792 80.9293 12.5289L81.0714 11.7857C81.2948 11.7451 81.6603 11.7654 81.709 11.6476C81.8958 11.2212 81.5791 11.0831 81.2135 11.0425C81.2623 10.7948 81.311 10.547 81.1323 10.344C81.7415 10.2912 82.306 10.4577 81.9283 9.71041C81.7171 9.88098 81.506 10.0475 81.3557 10.2993C81.1323 10.3399 80.7668 10.3196 80.7181 10.4374C80.5313 10.8638 80.848 11.0019 81.2135 11.0425C81.1648 11.2902 81.1161 11.538 81.0714 11.7857C80.848 11.8263 80.4825 11.806 80.4338 11.9238C80.247 12.3502 80.5638 12.4883 80.8846 12.3056ZM86.9968 9.07279C86.9481 9.32053 86.8993 9.56827 86.8546 9.816C86.2915 10.0109 86.0546 10.4577 86.1439 11.1562C86.9927 11.0344 86.6231 10.2668 86.8546 9.816C87.078 9.77539 87.4435 9.7957 87.4922 9.67792C87.6791 9.25149 87.3623 9.1134 87.0415 9.29616C86.9887 8.68697 87.1552 8.12246 86.4079 8.50015C86.5785 8.71134 86.745 8.92252 86.9968 9.07279ZM89.6894 11.144C89.4917 10.5755 89.0288 10.3372 88.3004 10.4293C88.5279 11.1562 89.2061 10.9572 90.1402 11.2496C89.4945 10.9166 89.6853 11.7085 89.3036 11.7248C88.8528 11.7451 88.406 11.8426 87.9065 11.9116C87.9349 12.3665 87.9593 12.7157 87.9877 13.1706C88.3979 12.9269 88.6781 12.6426 88.9909 12.598C89.4376 12.533 89.9656 12.8498 90.2945 12.0944C90.2539 11.871 90.193 11.5258 89.6894 11.1359V11.144ZM86.5054 23.6365C86.3795 23.8314 86.2576 24.1847 86.1277 24.1888C85.5347 24.2132 84.9418 24.136 84.3732 24.0954C83.9549 24.3959 83.5691 24.6721 83.1914 24.9442C83.5894 25.663 84.3245 25.4072 84.9134 25.6549C85.4007 25.395 85.8515 24.8386 86.5907 25.2325C86.7694 25.4803 86.9846 25.7808 87.1917 26.0732C87.4882 25.8864 87.7928 25.6996 88.0811 25.5209C88.3167 25.8295 88.536 26.1179 88.5929 26.191C89.3036 26.6702 90.0671 26.3453 90.4285 27.0439C89.8153 27.8317 88.9015 26.7839 88.4751 27.2266C87.8537 27.8805 86.9927 27.2957 86.4688 27.8683C86.6597 28.1769 86.8465 28.4775 87.0211 28.7618C86.7328 28.9892 86.4688 29.2004 86.1886 29.4197C86.416 29.5903 86.6272 29.8705 86.7815 29.8421C87.5735 29.704 88.3573 29.4847 89.1371 29.2816C89.1695 29.2735 89.1655 29.1151 89.1695 29.0704C89.0193 28.7658 88.8893 28.4978 88.67 28.0632C89.2386 28.1038 89.5797 28.1323 89.9006 28.1566C89.9859 28.4369 90.059 28.6562 90.1158 28.8795C90.193 29.1963 90.258 29.5131 90.3148 29.7811C91.4723 30.0289 92.0409 29.4603 92.4754 28.6521C92.9343 28.6602 93.3811 29.0257 93.9415 28.6318C94.1283 27.6693 94.3273 26.6215 94.4695 25.9026C94.9771 25.3056 95.2736 24.9645 95.5701 24.6193C96.4839 24.5096 97.2393 24.201 97.3977 23.1613C97.0768 22.1663 96.2686 21.6505 95.4726 21.1225C95.5457 20.753 95.6148 20.3834 95.6879 20.0138C96.1427 20.1885 96.4189 19.9488 96.5367 19.563C96.7641 18.8117 96.6626 18.4015 95.9397 16.2896C95.5701 16.0785 95.2696 15.9038 94.9365 15.7089C95.2899 15.4368 95.5742 15.2215 95.8584 15.0022C94.9406 14.2793 93.9578 13.6214 93.1252 12.8051C92.6947 12.3827 92.2196 12.4558 91.7647 12.3259C91.5657 12.269 91.3139 12.403 91.0743 12.4558C90.3757 13.463 91.716 14.2022 91.3911 15.1281C91.8378 15.388 92.2439 15.6195 92.6297 15.8429C92.5648 16.1719 92.5201 16.4155 92.4145 16.9476C92.7759 17.3293 93.2836 17.8573 93.6532 18.2472C93.0521 19.0107 92.6216 19.559 92.0734 20.2534C91.6226 19.8676 91.1961 19.5062 90.7575 19.1325C90.461 19.5265 90.1443 19.9488 89.8072 20.3956C89.3076 19.6849 89.8275 19.1 89.7828 17.9385C89.596 17.772 89.0518 17.2765 88.3451 16.6389C89.1533 16.509 89.6122 16.4399 90.0833 16.3627C90.059 15.7495 89.6366 15.3759 89.2833 14.986C88.9827 15.1484 88.6944 15.3068 88.4385 15.4449C88.1745 15.1444 87.9715 14.9088 87.7725 14.6855C87.4598 14.8966 87.2486 15.0388 87.0333 15.185C86.1967 15.0713 85.356 14.9576 84.5113 14.8438C84.2229 15.6074 83.9752 16.2653 83.4066 17.7679C83.4026 16.0906 83.4026 15.3109 83.3985 14.4377C82.9112 14.7342 82.5944 14.9251 82.2614 15.1281C81.774 15.0347 81.2867 14.9413 80.7952 14.8438C80.3972 15.3353 79.5809 15.3312 79.4672 16.0988C78.9717 16.0013 78.4763 15.9079 78.0255 16.0338C77.9727 15.4246 78.1392 14.8601 77.3919 15.2378C77.5625 15.449 77.729 15.6602 77.9808 15.8104C77.8914 17.0247 76.7218 15.9769 76.3197 16.643C76.9736 17.1547 77.6356 17.6705 78.2976 18.1863C78.0011 18.5315 77.7046 18.8767 77.4082 19.2259C77.8346 19.6321 77.8711 20.5621 78.8133 20.5986C79.4428 20.3347 80.1129 20.1072 80.385 19.36C80.7343 19.6646 81.0836 19.9651 81.5303 20.3509C81.8674 20.4159 82.3507 20.5093 82.9112 20.6189C83.0655 20.8911 83.2442 21.2078 83.4026 21.484C83.8331 21.5693 84.1986 21.6383 84.56 21.7074C84.6006 21.9307 84.5803 22.2962 84.6981 22.345C85.1245 22.5318 85.2626 22.215 85.3032 21.8495C85.551 21.8982 85.7987 21.947 86.0464 21.9917C85.9815 22.3287 85.815 22.6861 85.884 22.9907C85.9409 23.2344 86.2861 23.4131 86.5013 23.6243L86.5054 23.6365ZM83.63 8.20368C82.9477 9.93378 82.964 9.93378 83.3782 10.5592C83.8777 9.97439 84.0036 9.31647 83.63 8.20368ZM92.0409 18.3893C92.0652 18.2309 92.0896 18.0725 92.1099 17.9141C91.7891 17.8045 91.4682 17.6786 91.1393 17.6055C91.058 17.5852 90.8509 17.7355 90.855 17.7964C90.8712 17.9832 90.9281 18.2918 91.0296 18.3162C91.3504 18.3974 91.6997 18.3731 92.0368 18.3893H92.0409ZM81.1486 2.81846C81.0673 2.70068 81.0024 2.60321 80.9333 2.50168C80.8196 2.65194 80.6775 2.79003 80.6044 2.95654C80.58 3.0134 80.7221 3.14742 80.7912 3.24489C80.913 3.09868 81.0308 2.95654 81.1486 2.81846ZM86.2658 12.2934C86.1845 12.1756 86.1196 12.0781 86.0505 11.9766C85.9368 12.1269 85.7946 12.2649 85.7215 12.4315C85.6972 12.4883 85.8393 12.6223 85.9084 12.7198C86.0302 12.5736 86.148 12.4315 86.2658 12.2934ZM78.5575 11.4161C78.3829 11.473 78.2042 11.5299 78.0255 11.5867C78.0904 11.6842 78.1595 11.8669 78.2245 11.8669C78.4072 11.8629 78.5859 11.7817 78.7687 11.7289C78.7037 11.6314 78.6347 11.5299 78.5534 11.4121L78.5575 11.4161ZM82.964 13.4224C82.9071 13.2518 82.8502 13.0691 82.7934 12.8904C82.6959 12.9554 82.5132 13.0244 82.5132 13.0894C82.5172 13.2721 82.5984 13.4508 82.6512 13.6336C82.7487 13.5686 82.8502 13.4996 82.968 13.4183L82.964 13.4224ZM103.603 17.5689C103.721 17.4877 103.819 17.4227 103.92 17.3537C103.77 17.24 103.632 17.0978 103.465 17.0247C103.408 17.0004 103.274 17.1425 103.177 17.2116C103.323 17.3334 103.465 17.4512 103.607 17.5689H103.603ZM76.6812 13.1462C76.799 13.065 76.8964 13 76.998 12.931C76.8477 12.8173 76.7096 12.6751 76.5431 12.602C76.4862 12.5777 76.3522 12.7198 76.2548 12.7888C76.401 12.9107 76.5431 13.0285 76.6812 13.1462ZM79.1707 14.2347C79.252 14.3524 79.3169 14.4499 79.386 14.5514C79.4997 14.4012 79.6418 14.2631 79.7149 14.0966C79.7393 14.0397 79.5972 13.9057 79.5281 13.8082C79.4063 13.9544 79.2885 14.0966 79.1707 14.2347ZM102.828 22.4343C102.746 22.3166 102.681 22.2191 102.612 22.1176C102.499 22.2678 102.356 22.4059 102.283 22.5724C102.259 22.6293 102.401 22.7633 102.47 22.8608C102.592 22.7146 102.71 22.5724 102.828 22.4343ZM76.9249 20.7448C76.868 20.5743 76.8111 20.3956 76.7543 20.2128C76.6568 20.2778 76.4741 20.3468 76.4741 20.4118C76.4781 20.5946 76.5593 20.7733 76.6121 20.956C76.7096 20.8911 76.8111 20.822 76.9289 20.7408L76.9249 20.7448ZM83.6016 22.6943C83.5366 22.5968 83.4675 22.414 83.4026 22.414C83.2198 22.4181 83.0411 22.4993 82.8584 22.5521C82.9233 22.6496 82.9924 22.8323 83.0574 22.8323C83.2401 22.8283 83.4188 22.747 83.6016 22.6943ZM77.9645 23.9207C77.8996 23.8233 77.8305 23.6405 77.7655 23.6405C77.5828 23.6446 77.4041 23.7258 77.2213 23.7786C77.2863 23.8761 77.3554 24.0588 77.4203 24.0588C77.6031 24.0548 77.7818 23.9735 77.9645 23.9207ZM79.1382 24.4203C79.256 24.3391 79.3535 24.2741 79.455 24.205C79.3048 24.0913 79.1667 23.9492 79.0002 23.8761C78.9433 23.8517 78.8093 23.9939 78.7118 24.0629C78.858 24.1847 79.0002 24.3025 79.1382 24.4203ZM80.6693 25.3259C80.6125 25.1554 80.5556 24.9726 80.4988 24.7939C80.4013 24.8589 80.2185 24.9279 80.2185 24.9929C80.2226 25.1757 80.3038 25.3544 80.3566 25.5371C80.4541 25.4721 80.5556 25.4031 80.6734 25.3219L80.6693 25.3259ZM75.9786 24.8061C75.804 24.863 75.6253 24.9198 75.4466 24.9767C75.5115 25.0741 75.5806 25.2569 75.6456 25.2569C75.8283 25.2528 76.007 25.1716 76.1898 25.1188C76.1248 25.0214 76.0558 24.9198 75.9745 24.802L75.9786 24.8061ZM78.2935 25.6387C78.2366 25.4681 78.1798 25.2894 78.1229 25.1107C78.0255 25.1757 77.8427 25.2447 77.8427 25.3097C77.8468 25.4925 77.928 25.6712 77.9808 25.8539C78.0783 25.7889 78.1798 25.7199 78.2976 25.6387H78.2935ZM85.4332 26.6296C85.3154 26.7108 85.2179 26.7758 85.1164 26.8449C85.2667 26.9586 85.4048 27.1007 85.5713 27.1738C85.6281 27.1982 85.7622 27.056 85.8596 26.987L85.4332 26.6296ZM81.2542 26.8692C81.1892 26.7718 81.1201 26.589 81.0552 26.589C80.8724 26.5931 80.6937 26.6743 80.511 26.7271C80.5759 26.8246 80.645 27.0073 80.71 27.0073C80.8927 27.0032 81.0714 26.922 81.2542 26.8692ZM90.7047 31.2797L91.2367 31.1092C91.1718 31.0117 91.1027 30.8289 91.0377 30.8289C90.855 30.833 90.6763 30.9142 90.4935 30.967C90.5585 31.0645 90.6275 31.166 90.7088 31.2838L90.7047 31.2797Z" fill="#C0B8F2"/>
<path d="M126.736 106.998C126.927 107.12 127.276 107.237 127.281 107.367C127.305 108.062 127.447 108.821 126.757 109.256C126.391 108.943 126.046 108.643 125.701 108.346C125.924 108.086 126.156 107.839 126.363 107.57C126.501 107.396 126.61 107.193 126.728 107.002L126.736 106.998Z" fill="#C0B8F2"/>
<path d="M128.369 73.8824C128.28 74.6784 128.243 74.9992 128.211 75.2916C127.565 75.6937 127.086 75.6044 126.749 74.9627C126.7 74.3657 127.297 74.8084 127.476 74.5119C127.585 74.3291 127.849 74.2398 128.373 73.8864L128.369 73.8824Z" fill="#C0B8F2"/>
<path d="M97.8284 40.5842C98.2751 40.0698 98.8058 39.9859 99.4204 40.3324C98.9858 41.0472 98.4091 40.3974 97.8284 40.5842Z" fill="#C0B8F2"/>
<path d="M92.6908 46.2578C92.1466 45.7501 92.1994 45.3318 92.6786 44.9785C93.6208 45.4374 92.6096 45.8638 92.6908 46.2578Z" fill="#C0B8F2"/>
<path d="M110.629 66.1987C111.076 65.6843 111.607 65.6004 112.221 65.9469C111.787 66.6617 111.21 66.0119 110.629 66.1987Z" fill="#C0B8F2"/>
<path d="M110.711 66.1049C110.662 66.3527 110.613 66.6004 110.568 66.8481C110.073 66.7507 109.578 66.6573 109.082 66.5598C109.289 66.3445 109.468 65.9993 109.716 65.9425C110.02 65.8734 110.378 66.0399 110.715 66.1049H110.711Z" fill="#C0B8F2"/>
<path d="M103.083 65.1871C103.38 65.5567 103.55 65.772 103.717 65.9831C102.97 66.3608 103.136 65.7963 103.083 65.1871Z" fill="#C0B8F2"/>
<path d="M122.102 69.9307C122.472 69.6343 122.687 69.4637 122.898 69.2972C123.276 70.0445 122.711 69.8779 122.102 69.9307Z" fill="#C0B8F2"/>
<path d="M98.2791 67.0067C97.9826 66.6371 97.812 66.4219 97.6455 66.2107C98.3928 65.833 98.2263 66.3975 98.2791 67.0067Z" fill="#C0B8F2"/>
<path d="M95.9317 66.7266C95.7489 66.7753 95.5702 66.8565 95.3875 66.8647C95.3225 66.8647 95.2535 66.6819 95.1885 66.5844C95.3712 66.5357 95.5499 66.4545 95.7327 66.4464C95.7977 66.4464 95.8667 66.6291 95.9317 66.7266Z" fill="#C0B8F2"/>
<path d="M126.858 74.8369C126.562 74.4673 126.391 74.2521 126.225 74.0409C126.972 73.6632 126.805 74.2277 126.858 74.8369Z" fill="#C0B8F2"/>
<path d="M67.3645 63.4166C67.4823 63.3354 67.5797 63.2704 67.6813 63.2014C67.7341 63.3841 67.8112 63.5628 67.8194 63.7456C67.8194 63.8105 67.6366 63.8796 67.5391 63.9446C67.4823 63.7659 67.4214 63.5872 67.3686 63.4125L67.3645 63.4166Z" fill="#C0B8F2"/>
<path d="M131.374 78.9632C131.191 79.0119 131.013 79.0931 130.83 79.1012C130.765 79.1012 130.696 78.9185 130.631 78.821C130.814 78.7723 130.992 78.691 131.175 78.6829C131.24 78.6829 131.309 78.8657 131.374 78.9632Z" fill="#C0B8F2"/>
<path d="M28.9328 67.2098C28.5633 67.5063 28.3521 67.6769 28.1368 67.8434C27.7591 67.0961 28.3237 67.2626 28.9328 67.2098Z" fill="#C0B8F2"/>
<path d="M79.0448 78.7233C78.7483 78.3537 78.5778 78.1425 78.4113 77.9272C79.1585 77.5495 78.992 78.1141 79.0448 78.7233Z" fill="#C0B8F2"/>
<path d="M74.866 80.5145L75.2234 80.0881C75.2883 80.1855 75.4345 80.3196 75.4102 80.3764C75.3371 80.5429 75.1949 80.681 75.0812 80.8313C75.0162 80.7338 74.9472 80.6323 74.866 80.5145Z" fill="#C0B8F2"/>
<path d="M134.201 91.7399C134.083 91.878 133.965 92.0242 133.843 92.1663C133.778 92.0688 133.632 91.9348 133.657 91.878C133.73 91.7114 133.872 91.5734 133.985 91.4231C134.05 91.5206 134.12 91.6221 134.201 91.7399Z" fill="#C0B8F2"/>
<path d="M72.5631 81.8871C72.6159 82.0698 72.693 82.2485 72.7011 82.4313C72.7011 82.4963 72.5184 82.5653 72.4209 82.6303C72.3722 82.4475 72.291 82.2688 72.2828 82.0861C72.2828 82.0211 72.4656 81.9521 72.5631 81.8871Z" fill="#C0B8F2"/>
<path d="M64.7247 87.4064C65.0943 87.11 65.3055 86.9394 65.5207 86.7729C65.8984 87.5202 65.3339 87.3537 64.7247 87.4064Z" fill="#C0B8F2"/>
<path d="M64.9481 87.3619C64.8993 87.6096 64.8506 87.8573 64.8059 88.1051C64.4404 88.0604 64.1236 87.9264 64.3104 87.5C64.3632 87.3822 64.7288 87.4066 64.9481 87.3619Z" fill="#C0B8F2"/>
<path d="M62.0446 90.8746C61.7481 90.505 61.5775 90.2938 61.411 90.0786C62.1583 89.7009 61.9918 90.2654 62.0446 90.8746Z" fill="#C0B8F2"/>
<path d="M128.47 107.44C128.609 107.558 128.755 107.676 128.897 107.798C128.799 107.863 128.665 108.009 128.609 107.985C128.442 107.912 128.304 107.769 128.154 107.656C128.251 107.591 128.353 107.522 128.47 107.44Z" fill="#C0B8F2"/>
<path d="M126.521 110.702C126.383 110.584 126.237 110.466 126.094 110.344C126.192 110.279 126.326 110.133 126.383 110.158C126.549 110.231 126.687 110.373 126.838 110.487C126.74 110.551 126.639 110.621 126.521 110.702Z" fill="#C0B8F2"/>
<path d="M74.0049 135.951C74.3014 136.32 74.4719 136.531 74.6384 136.747C73.8912 137.124 74.0577 136.56 74.0049 135.951Z" fill="#C0B8F2"/>
<path d="M75.6781 137.149C75.5969 137.031 75.5319 136.933 75.4629 136.832C75.6456 136.779 75.8243 136.702 76.0071 136.694C76.0721 136.694 76.1411 136.877 76.2061 136.974C76.0274 137.031 75.8487 137.092 75.6741 137.145L75.6781 137.149Z" fill="#C0B8F2"/>
<path d="M28.9896 128.364C29.0709 128.482 29.1358 128.58 29.2049 128.681C29.0221 128.734 28.8434 128.811 28.6607 128.819C28.5957 128.819 28.5267 128.636 28.4617 128.539C28.6404 128.482 28.8191 128.421 28.9937 128.368L28.9896 128.364Z" fill="#C0B8F2"/>
<path d="M70.167 139.837C70.4635 140.207 70.634 140.422 70.8005 140.633C70.0533 141.011 70.2198 140.447 70.167 139.837Z" fill="#C0B8F2"/>
<path d="M38.879 170.061C39.1755 170.431 39.3461 170.642 39.5126 170.857C38.7653 171.235 38.9318 170.67 38.879 170.061Z" fill="#C0B8F2"/>
<path d="M78.9025 0.454861C78.8213 0.337084 78.7563 0.239614 78.6873 0.138083C78.87 0.0893477 79.0487 0.00812251 79.2315 0C79.2964 0 79.3655 0.182757 79.4305 0.280227C79.2518 0.337084 79.0731 0.398003 78.8984 0.4508L78.9025 0.454861Z" fill="#C0B8F2"/>
<path d="M103.132 28.9404C103.429 29.31 103.599 29.5253 103.766 29.7364C103.018 30.1141 103.185 29.5496 103.132 28.9404Z" fill="#C0B8F2"/>
<path d="M103.25 31.3811C103.112 31.2634 102.966 31.1456 102.824 31.0238C102.921 30.9588 103.055 30.8126 103.112 30.8369C103.278 30.91 103.417 31.0522 103.567 31.1659C103.469 31.2309 103.368 31.2999 103.25 31.3811Z" fill="#C0B8F2"/>
<path d="M100.83 33.3388C101.195 33.3835 101.512 33.5175 101.325 33.9439C101.272 34.0617 100.907 34.0373 100.688 34.082C100.736 33.8343 100.785 33.5865 100.83 33.3388Z" fill="#C0B8F2"/>
<path d="M101.098 35.4912C101.394 35.8608 101.565 36.072 101.731 36.2872C100.984 36.6649 101.15 36.1004 101.098 35.4912Z" fill="#C0B8F2"/>
<path d="M97.2758 43.1791C97.158 43.2603 97.0605 43.3253 96.959 43.3943C96.9062 43.2116 96.829 43.0329 96.8209 42.8501C96.8209 42.7851 97.0037 42.7161 97.1012 42.6511C97.158 42.8298 97.2189 43.0085 97.2717 43.1831L97.2758 43.1791Z" fill="#C0B8F2"/>
<path d="M43.789 36.4985C43.6712 36.6366 43.5534 36.7828 43.4316 36.9249C43.3666 36.8274 43.2204 36.6934 43.2448 36.6366C43.3179 36.47 43.46 36.332 43.5737 36.1817C43.6387 36.2792 43.7078 36.3807 43.789 36.4985Z" fill="#C0B8F2"/>
<path d="M81.9366 51.2938C81.8919 51.6593 81.7579 51.976 81.3314 51.7892C81.2137 51.7364 81.238 51.3709 81.1934 51.1516C81.4411 51.2003 81.6888 51.2491 81.9366 51.2938Z" fill="#C0B8F2"/>
<path d="M78.387 53.698C78.3423 54.0635 78.2083 54.3803 77.7819 54.1935C77.6641 54.1407 77.6885 53.7752 77.6438 53.5558C77.8915 53.6046 78.1393 53.6533 78.387 53.698Z" fill="#C0B8F2"/>
<path d="M113.874 66.1579C113.578 65.7884 113.407 65.5731 113.24 65.3619C113.988 64.9842 113.821 65.5488 113.874 66.1579Z" fill="#C0B8F2"/>
<path d="M118.146 67.5385C118.191 67.173 118.325 66.8562 118.752 67.0431C118.869 67.0959 118.845 67.4614 118.89 67.6807C118.642 67.6319 118.394 67.5832 118.146 67.5385Z" fill="#C0B8F2"/>
<path d="M120.157 68.0139C120.526 67.7175 120.738 67.5469 120.953 67.3804C121.331 68.1276 120.766 67.9611 120.157 68.0139Z" fill="#C0B8F2"/>
<path d="M103.173 65.6381C102.876 65.2685 102.706 65.0573 102.539 64.842C103.286 64.4643 103.12 65.0289 103.173 65.6381Z" fill="#C0B8F2"/>
<path d="M108.014 84.0966C108.375 84.1656 108.737 84.2346 109.147 84.3159C109.594 85.0103 110.061 85.7332 110.572 86.5252C110.248 86.7648 109.882 87.0328 109.46 87.3456C108.416 86.5455 107.364 85.7454 106.312 84.9413C106.69 84.2631 107.904 85.3028 108.014 84.0966Z" fill="#C0B8F2"/>
<path d="M117.529 87.5365C118.037 87.9548 118.451 88.2959 119.004 88.7467C119.402 88.1741 119.714 87.7314 120.181 87.0573C120.425 87.6867 120.632 88.2147 120.929 88.9782C120.961 88.8604 120.9 89.0919 120.835 89.3234C120.734 89.3925 120.62 89.5346 120.531 89.5184C119.471 89.3316 118.411 89.1204 117.416 88.9295C117.306 88.7508 117.172 88.633 117.192 88.5477C117.274 88.2188 117.404 87.902 117.529 87.5365Z" fill="#C0B8F2"/>
<path d="M108.493 89.5911C107.92 89.4815 107.348 89.319 106.767 89.2784C106.426 89.2541 106.113 89.4693 106.117 89.9039C105.622 89.8064 105.126 89.713 104.631 89.6155C104.935 89.2662 105.236 88.917 105.622 88.4702C105.662 88.255 105.736 87.8895 105.805 87.528C106.3 87.6255 106.796 87.7189 107.291 87.8164C107.12 88.255 107.352 88.5393 107.713 88.653C108.201 88.8073 108.68 88.9007 108.489 89.5871L108.493 89.5911Z" fill="#C0B8F2"/>
<path d="M111.965 75.6043C112.112 76.0348 112.262 76.4693 112.412 76.9161C112.083 77.1394 111.681 77.4115 111.133 77.7811C110.828 77.6511 110.442 77.4806 109.866 77.2288C110.406 76.5221 110.812 75.9901 111.222 75.4581C111.47 75.5068 111.718 75.5555 111.965 75.6002V75.6043Z" fill="#C0B8F2"/>
<path d="M113.793 81.3228C113.777 82.6021 113.614 83.5118 112.944 84.7383C112.839 83.8448 112.786 83.3981 112.733 82.9473C112.351 82.7036 111.97 82.4599 111.466 82.135C112.23 81.867 112.916 81.6274 113.793 81.3187V81.3228Z" fill="#C0B8F2"/>
<path d="M111.372 94.4365C112.156 93.9044 112.887 93.413 113.695 92.8647C113.769 93.2303 113.838 93.5592 113.931 94.0263C113.103 94.4892 112.278 94.9441 111.381 95.4436C111.381 95.1025 111.376 94.7492 111.372 94.4324V94.4365Z" fill="#C0B8F2"/>
<path d="M112.026 87.2805C112.688 88.9903 112.298 89.8878 111.99 90.8463C111.267 90.7651 111.214 90.0584 110.812 89.6807C111.104 89.4655 111.393 89.2502 111.689 89.0309C111.758 88.6735 111.831 88.304 112.026 87.2805Z" fill="#C0B8F2"/>
<path d="M110.779 97.7463C110.897 97.2346 110.698 96.9381 110.178 96.8609C110.227 96.6132 110.276 96.3655 110.32 96.1177C110.564 96.1665 110.804 96.2396 111.051 96.2518C111.514 96.2761 111.713 96.5767 111.685 96.9584C111.648 97.4661 111.474 97.9412 110.775 97.7504L110.779 97.7463Z" fill="#C0B8F2"/>
<path d="M116.348 84.9087C116.088 85.6316 115.495 85.8874 114.67 86.1595C114.731 85.6641 114.784 85.2579 114.849 84.73C115.454 84.8031 115.897 84.8518 116.352 84.9087H116.348Z" fill="#C0B8F2"/>
<path d="M115.137 79.4583C115.535 79.4583 115.873 79.4583 116.177 79.4583C116.664 80.0919 116.567 80.5833 115.885 81.03C115.702 80.7214 115.507 80.4209 115.341 80.1041C115.255 79.9376 115.227 79.7426 115.137 79.4543V79.4583Z" fill="#C0B8F2"/>
<path d="M116.847 82.606C116.403 83.1205 115.872 83.2044 115.255 82.8578C115.689 82.143 116.266 82.7929 116.847 82.606Z" fill="#C0B8F2"/>
<path d="M108.01 84.0966C107.558 83.7067 107.505 83.2044 107.851 82.5898C108.594 83.0203 107.969 83.593 108.01 84.0966Z" fill="#C0B8F2"/>
<path d="M117.822 96.9017C118.266 96.3872 118.796 96.3033 119.414 96.6499C118.979 97.3646 118.402 96.7148 117.822 96.9017Z" fill="#C0B8F2"/>
<path d="M121.595 93.6606C121.497 94.1561 121.404 94.6516 121.307 95.147C120.6 95.0658 120.604 94.5703 120.754 94.083C120.868 93.7175 121.156 93.486 121.591 93.6606H121.595Z" fill="#C0B8F2"/>
<path d="M117.59 94.4322C117.363 94.883 117.728 95.6506 116.88 95.7724C116.788 95.0739 117.025 94.6271 117.59 94.4322Z" fill="#C0B8F2"/>
<path d="M117.903 96.8042C117.854 97.0519 117.805 97.2996 117.761 97.5474C117.395 97.4783 117.018 97.4458 116.676 97.3159C116.567 97.2753 116.53 96.9707 116.518 96.7838C116.518 96.727 116.717 96.593 116.81 96.6051C117.18 96.6498 117.542 96.7351 117.907 96.8042H117.903Z" fill="#C0B8F2"/>
<path d="M111.365 74.7149C111.446 74.1951 111.742 73.9961 112.25 74.1139C112.201 74.3616 112.152 74.6093 112.108 74.8571C111.86 74.8083 111.612 74.7596 111.365 74.7149Z" fill="#C0B8F2"/>
<path d="M111.218 75.458C110.853 75.4134 110.536 75.2794 110.723 74.8529C110.775 74.7351 111.141 74.7595 111.36 74.7148C111.311 74.9626 111.263 75.2103 111.218 75.458Z" fill="#C0B8F2"/>
<path d="M112.107 74.8612C112.473 74.9059 112.79 75.0399 112.603 75.4663C112.55 75.5841 112.185 75.5597 111.965 75.6044C112.014 75.3567 112.063 75.1089 112.107 74.8612Z" fill="#C0B8F2"/>
<path d="M114.597 77.3793C114.479 77.4606 114.382 77.5255 114.28 77.5946C114.228 77.4118 114.15 77.2331 114.142 77.0504C114.142 76.9854 114.325 76.9164 114.423 76.8514C114.479 77.0301 114.54 77.2088 114.593 77.3834L114.597 77.3793Z" fill="#C0B8F2"/>
<path d="M111.445 78.8617C111.563 78.7804 111.661 78.7155 111.762 78.6464C111.815 78.8292 111.892 79.0079 111.9 79.1906C111.9 79.2556 111.718 79.3247 111.62 79.3896C111.563 79.2109 111.502 79.0322 111.449 78.8576L111.445 78.8617Z" fill="#C0B8F2"/>
<path d="M116.543 82.7439C116.912 82.4474 117.123 82.2769 117.339 82.1104C117.716 82.8576 117.152 82.6911 116.543 82.7439Z" fill="#C0B8F2"/>
<path d="M116.335 84.9329C116.38 84.5674 116.514 84.2506 116.94 84.4375C117.058 84.4903 117.034 84.8558 117.078 85.0751C116.831 85.0263 116.583 84.9776 116.335 84.9329Z" fill="#C0B8F2"/>
<path d="M117.034 84.8517C117.331 85.2213 117.501 85.4366 117.668 85.6478C116.92 86.0255 117.087 85.4609 117.034 84.8517Z" fill="#C0B8F2"/>
<path d="M118.78 86.8335C118.642 86.7158 118.496 86.598 118.354 86.4761C118.451 86.4112 118.585 86.265 118.642 86.2893C118.809 86.3624 118.947 86.5046 119.097 86.6183C119 86.6833 118.898 86.7523 118.78 86.8335Z" fill="#C0B8F2"/>
<path d="M122.313 88.5112C122.395 88.629 122.46 88.7265 122.529 88.828C122.346 88.8808 122.167 88.958 121.984 88.9661C121.919 88.9661 121.85 88.7833 121.785 88.6859C121.964 88.629 122.143 88.5681 122.317 88.5153L122.313 88.5112Z" fill="#C0B8F2"/>
<path d="M111.945 88.1578C111.648 87.7882 111.478 87.577 111.311 87.3618C112.059 86.9841 111.892 87.5486 111.945 88.1578Z" fill="#C0B8F2"/>
<path d="M107.072 87.8613C107.441 87.5649 107.652 87.3943 107.868 87.2278C108.245 87.9751 107.681 87.8085 107.072 87.8613Z" fill="#C0B8F2"/>
<path d="M124.771 90.3265C124.401 90.6229 124.186 90.7935 123.975 90.96C123.597 90.2128 124.161 90.3793 124.771 90.3265Z" fill="#C0B8F2"/>
<path d="M119.337 90.8016C119.255 90.6838 119.19 90.5864 119.121 90.4848C119.304 90.4361 119.483 90.3549 119.666 90.3467C119.731 90.3467 119.8 90.5295 119.865 90.627C119.686 90.6838 119.507 90.7447 119.333 90.7975L119.337 90.8016Z" fill="#C0B8F2"/>
<path d="M121.371 93.7053C121.741 93.4089 121.952 93.2383 122.167 93.0718C122.545 93.819 121.981 93.6525 121.371 93.7053Z" fill="#C0B8F2"/>
<path d="M112.067 92.4828L111.852 92.166C112.034 92.1132 112.213 92.0361 112.396 92.028C112.461 92.028 112.53 92.2107 112.595 92.3082C112.416 92.365 112.237 92.426 112.063 92.4788L112.067 92.4828Z" fill="#C0B8F2"/>
<path d="M117.367 94.4772C117.736 94.1807 117.952 94.0101 118.163 93.8436C118.541 94.5909 117.976 94.4244 117.367 94.4772Z" fill="#C0B8F2"/>
<path d="M114.041 95.4031C114.122 95.5209 114.187 95.6183 114.256 95.7199C114.073 95.7686 113.895 95.8498 113.712 95.8579C113.647 95.8579 113.578 95.6752 113.513 95.5777C113.692 95.5209 113.87 95.4599 114.045 95.4071L114.041 95.4031Z" fill="#C0B8F2"/>
<path d="M115.425 96.2193C115.287 96.1015 115.141 95.9837 114.999 95.8619C115.096 95.7969 115.231 95.6507 115.287 95.6751C115.454 95.7482 115.592 95.8903 115.742 96.004C115.645 96.069 115.543 96.1381 115.425 96.2193Z" fill="#C0B8F2"/>
<path d="M113.756 96.8895C113.838 97.0073 113.903 97.1048 113.972 97.2063C113.789 97.255 113.61 97.3363 113.428 97.3444C113.363 97.3444 113.293 97.1616 113.229 97.0642C113.407 97.0073 113.586 96.9464 113.761 96.8936L113.756 96.8895Z" fill="#C0B8F2"/>
<path d="M112.867 98.9202C112.619 98.8715 112.371 98.8228 112.124 98.7781C112.168 98.4126 112.302 98.0958 112.729 98.2826C112.847 98.3354 112.822 98.7009 112.867 98.9202Z" fill="#C0B8F2"/>
<path d="M98.2507 90.7001L98.3929 89.9568C98.73 90.0218 99.1239 90.0015 99.3798 90.1802C99.5869 90.3224 99.6234 90.7122 99.7372 90.9884C99.2417 90.8909 98.7462 90.7975 98.2507 90.7001Z" fill="#C0B8F2"/>
<path d="M101.711 85.8793C101.341 86.1758 101.13 86.3464 100.915 86.5129C100.537 85.7656 101.101 85.9321 101.711 85.8793Z" fill="#C0B8F2"/>
<path d="M100.833 88.2024C101.203 87.9059 101.418 87.7354 101.629 87.5688C102.007 88.3161 101.443 88.1496 100.833 88.2024Z" fill="#C0B8F2"/>
<path d="M104.127 94.8101L103.701 94.4527C103.798 94.3877 103.932 94.2415 103.989 94.2659C104.156 94.339 104.294 94.4811 104.444 94.5949C104.347 94.6598 104.245 94.7289 104.127 94.8101Z" fill="#C0B8F2"/>
<path d="M119.446 77.2614C119.15 76.8918 118.979 76.6806 118.813 76.4654C119.56 76.0877 119.394 76.6522 119.446 77.2614Z" fill="#C0B8F2"/>
<path d="M120.145 77.1803C120.096 77.428 120.047 77.6758 120.003 77.9235C119.483 77.8423 119.284 77.5458 119.402 77.0381C119.649 77.0869 119.897 77.1356 120.145 77.1803Z" fill="#C0B8F2"/>
<path d="M92.4794 28.644C92.1301 27.4013 91.3869 26.5768 90.7493 25.6062C91.6387 24.9198 92.8855 26.2479 93.58 25.0132C94.0795 25.7361 93.5678 26.3088 93.5881 26.9017C93.2876 27.117 92.9911 27.3322 92.6905 27.5475C92.6215 27.913 92.5484 28.2785 92.4794 28.6481V28.644Z" fill="#C0B8F2"/>
<path d="M88.3046 22.0525C89.0721 21.8495 89.8032 21.6545 90.5342 21.4596C90.7698 22.1906 90.6439 22.8445 90.1524 23.4334C89.5473 22.9826 88.9422 22.5277 88.3046 22.0525Z" fill="#C0B8F2"/>
<path d="M95.6918 20.0137C95.2085 19.8269 94.5343 20.0259 94.3029 19.2989C95.0312 19.2041 95.4942 19.4424 95.6918 20.0137Z" fill="#C0B8F2"/>
<path d="M79.7799 18.4785C79.2844 18.3811 78.7889 18.2877 78.2935 18.1902C78.3747 17.4835 78.8702 17.4876 79.3575 17.6379C79.723 17.7516 79.9505 18.0399 79.7799 18.4745V18.4785Z" fill="#C0B8F2"/>
<path d="M85.9612 20.4443C85.5226 19.8433 85.6201 19.3478 86.2495 18.9539C86.6882 19.5549 86.5907 20.0504 85.9612 20.4443Z" fill="#C0B8F2"/>
<path d="M86.5012 23.6325L86.7896 22.1461C87.4962 22.2273 87.4922 22.7228 87.3419 23.2102C87.2282 23.5757 86.9398 23.8031 86.5053 23.6325H86.5012Z" fill="#C0B8F2"/>
<path d="M95.3019 18.0034C95.1192 18.0522 94.9405 18.1334 94.7577 18.1415C94.6927 18.1415 94.6237 17.9588 94.5587 17.8613C94.7415 17.8126 94.9202 17.7313 95.1029 17.7232C95.1679 17.7232 95.2369 17.906 95.3019 18.0034Z" fill="#C0B8F2"/>
<path d="M79.4226 15.8793C79.7191 16.2489 79.8897 16.4642 80.0562 16.6753C79.3089 17.053 79.4754 16.4885 79.4226 15.8793Z" fill="#C0B8F2"/>
<path d="M81.1689 17.8656C81.0308 17.7478 80.8846 17.63 80.7424 17.5082C80.8399 17.4432 80.9739 17.297 81.0308 17.3214C81.1973 17.3945 81.3354 17.5366 81.4856 17.6503C81.3882 17.7153 81.2866 17.7844 81.1689 17.8656Z" fill="#C0B8F2"/>
<path d="M94.7295 20.9764C94.5468 21.0251 94.3681 21.1064 94.1853 21.1145C94.1204 21.1145 94.0513 20.9317 93.9863 20.8342C94.1691 20.7855 94.3478 20.7043 94.5305 20.6962C94.5955 20.6962 94.6646 20.8789 94.7295 20.9764Z" fill="#C0B8F2"/>
<path d="M80.3808 19.368C79.861 19.2868 79.662 18.9903 79.7798 18.4827C80.2996 18.5639 80.4986 18.8604 80.3808 19.368Z" fill="#C0B8F2"/>
<path d="M82.5986 19.2992C82.4808 19.4373 82.363 19.5835 82.2412 19.7256C82.1762 19.6282 82.03 19.4941 82.0543 19.4373C82.1274 19.2708 82.2696 19.1327 82.3833 18.9824C82.4483 19.0799 82.5173 19.1814 82.5986 19.2992Z" fill="#C0B8F2"/>
<path d="M85.2991 21.8579C85.0514 21.8091 84.8036 21.7604 84.5559 21.7157C84.6006 21.3502 84.7346 21.0334 85.161 21.2202C85.2788 21.273 85.2544 21.6385 85.2991 21.8579Z" fill="#C0B8F2"/>
<path d="M86.7895 22.1462C86.5417 22.0975 86.294 22.0487 86.0463 22.004C86.0909 21.6385 86.225 21.3218 86.6514 21.5086C86.7692 21.5614 86.7448 21.9269 86.7895 22.1462Z" fill="#C0B8F2"/>
<path d="M95.6146 24.8347C95.3182 24.4651 95.1476 24.2539 94.9811 24.0387C95.7284 23.661 95.5618 24.2255 95.6146 24.8347Z" fill="#C0B8F2"/>
</svg>
