<svg width="190" height="86" viewBox="0 0 190 86" fill="none" xmlns="http://www.w3.org/2000/svg">
    <path
        d="M117.061 24.7559C102.107 19.0262 88.6567 10.9322 73.2293 5.37147C68.3611 3.24796 63.4202 1.77666 58.4395 0.702301C56.4463 0.126778 55.8616 2.3979 54.2394 2.78856C53.3685 3.73548 54.1848 5.09184 52.6849 5.14081C52.2951 4.98067 51.9031 4.84628 51.7134 5.33142C50.5487 5.6851 50.6093 7.04015 49.6729 7.62278C48.8243 6.83407 47.4304 9.06599 48.7616 9.40245C51.5059 9.13446 54.0621 12.6578 56.7588 12.4518C62.1281 15.4972 67.5911 15.8177 72.9058 18.8488C78.1117 19.9728 84.6003 24.8541 90.4006 26.0375C91.4058 27.0268 92.835 27.1384 94.2551 28.0368C94.1527 29.1934 92.4964 28.1025 91.717 27.9465C88.5197 27.5 85.1714 27.1815 81.9436 26.2808C79.1549 26.6258 76.396 25.7559 73.5714 25.9912C70.7192 23.6769 69.8783 24.6229 66.7825 23.7381C53.4855 22.1629 39.5853 21.8294 26.3218 22.5538C18.7836 23.7022 10.0739 24.3638 4.17186 29.0612C1.66481 32.1924 2.35588 35.9858 0.679602 39.3099C-3.10313 51.2765 15.1438 56.5536 24.4101 60.7988C47.7255 71.3265 71.3509 79.2068 95.1167 84.2541C98.2336 84.4928 101.166 85.5989 104.219 84.6425C105.985 84.5104 107.031 82.6349 107.077 81.1077C105.634 80.8306 103.934 80.8344 102.396 80.9529C91.8384 79.2471 80.9593 75.6287 70.938 72.8871C66.5486 71.4642 62.577 69.8334 58.5192 68.9557C56.5624 67.6934 54.8429 67.8462 52.8886 66.7009C52.4944 65.3084 50.6092 65.1726 49.5051 64.3834C48.8737 65.4789 52.5532 65.707 51.8245 66.5808C50.6561 66.125 48.9405 65.6231 48.4882 64.4407C46.3994 63.1625 43.3151 62.1328 47.4139 64.5791C45.5263 65.0154 43.1464 61.6219 40.6875 61.0307C40.3836 60.8657 40.6616 60.5143 40.8823 60.5832C43.8598 62.412 46.544 62.6707 49.5051 64.3834C50.8663 63.6423 52.8914 66.2286 54.3854 65.7299C57.4609 66.9785 59.6873 67.8527 62.4397 69.8122C63.199 69.0267 59.8125 68.46 61.3002 68.1115C63.0696 69.3029 64.42 68.9492 66.1817 70.0021C66.2894 70.6436 67.6108 71.7261 68.2553 71.2888C68.3241 70.7503 66.7987 70.7433 67.193 70.152C68.2356 70.1078 69.2204 71.4609 70.1727 70.8999C74.613 73.1453 78.8039 73.1082 83.2158 75.2451C84.2331 74.4129 85.3353 76.4204 86.4085 75.743C88.8242 76.7322 88.8916 76.0639 91.0522 78.0756C92.2001 77.9988 90.4559 77.4419 90.8598 77.0439C91.4953 76.8524 95.2339 80.4698 92.6575 77.453C94.176 77.3462 94.0549 78.7409 95.1018 78.8631C95.0703 76.9576 96.0732 79.06 96.9557 78.3289C98.0558 78.182 98.1303 80.0664 99.0231 79.5908C98.6292 78.3304 99.8495 78.9013 99.9784 79.7769C100.725 80.2312 100.824 79.7648 100.506 79.1993C101.002 79.1622 101.363 79.4217 101.588 79.9777C102.135 80.1044 102.045 79.332 102.535 79.3758C102.71 79.7879 102.82 80.3253 103.238 79.8083C103.692 78.9458 105.002 80.3266 106.476 80.1218C107.697 80.1141 107.889 78.8658 108.372 78.0454C109.334 77.7205 109.354 77.682 109.08 76.8055C109.314 75.8129 109.833 75.3523 109.567 74.975C94.3662 74.8022 79.4709 67.6785 64.5281 64.0056C52.9076 59.5938 41.3041 56.1245 29.8097 50.3931C21.8468 47.3772 12.4402 43.6206 6.11957 38.1005C8.79824 36.0631 13.1411 35.0479 16.5214 35.0435C20.3182 34.1335 24.1203 33.7967 27.89 34.0115C40.1039 33.0693 52.7073 34.6747 64.7311 36.2604C78.973 37.9625 93.2357 40.6791 107.191 45.3122C108.326 44.4484 102.621 43.4534 105.972 43.057C106.736 43.2162 107.606 44.2659 108.504 43.7796C109.027 43.8515 109.498 44.7335 109.264 45.0938C108.94 45.3227 108.584 44.6818 108.299 45.0107C109.025 46.4073 111.321 45.9145 112.534 46.8234C114.069 47.1182 131.997 52.871 127.038 53.7161C126.465 53.2211 125.712 53.2509 125.327 53.3162C125.426 52.8016 124.424 52.0506 124.322 52.9033C124.34 52.9153 124.354 52.925 124.374 52.9402C124.447 53.034 124.449 53.1886 124.313 53.0707C124.421 53.8013 124.007 53.0367 124.091 52.8558C123.258 52.1155 122.657 52.4887 121.771 52.2085C117.961 52.2318 114.515 51.7667 110.667 51.6578C103.369 51.3617 95.8946 50.5235 88.4763 51.1918C82.9562 50.7293 81.3756 52.2366 78.0101 55.85C79.0384 56.9371 78.6046 56.7789 77.3302 57.1684C69.0494 64.723 80.8523 60.3744 85.6816 61.6357C91.6559 61.0179 97.4852 61.64 103.485 61.0567C105.675 62.0284 108.129 61.1232 110.326 61.686C111.16 61.3368 112.012 62.0707 112.794 61.8597C113.554 62.0489 114.089 61.6903 114.788 62.2763C124.374 61.5728 133.823 63.3481 143.303 64.3507C150.178 66.2222 156.723 65.0356 163.49 67.6139C169.297 68.0845 177.138 74.5809 182.104 69.4571C182.545 69.2665 182.923 69.7003 183.319 69.4493C184.652 67.7677 188.312 68.32 189.608 66.3344C168.916 49.2809 141.567 37.8069 117.061 24.7559ZM20.7083 53.5556C21.2828 52.9858 22.6389 54.3658 23.4203 54.5551C28.8231 57.386 21.5984 54.7771 20.7083 53.5556ZM43.216 62.9116C43.9507 64.0785 39.0632 61.7702 39.7005 61.1139L35.0709 58.7643C36.2507 57.5004 41.5258 62.6459 43.216 62.9116ZM34.8764 59.1527C34.9106 59.0005 34.9682 58.8817 35.0417 58.7898C42.6502 64.8855 31.7025 57.3131 29.1933 56.333C28.4797 55.0503 35.0127 58.4386 34.8775 59.1506L34.8764 59.1527ZM30.6057 57.6339C35.3092 60.1934 29.341 57.8453 28.2308 56.9885C27.9489 55.8414 30.0601 57.4943 30.6057 57.6339ZM23.8851 53.6551C25.1021 54.4289 26.8632 54.8463 27.7922 55.8373C25.2359 55.5654 22.0633 52.9701 19.3356 51.906C19.6592 50.7594 22.7177 53.3991 23.8851 53.6551ZM17.9656 51.4126C16.9787 51.8511 15.2392 50.1392 14.0519 49.8004C13.0181 49.2757 11.9832 48.7532 10.9537 48.2199C10.9564 47.0692 17.0859 50.7912 17.9678 51.4137L17.9656 51.4126ZM6.83921 45.0039C10.783 46.6259 10.7405 47.9718 6.81395 45.4567C6.91625 44.5073 5.30578 44.7371 5.09035 43.7879C5.59984 43.675 7.27142 44.3538 6.83921 45.0039ZM84.0972 32.4908C84.3081 32.7754 84.0827 32.9437 83.8766 32.936C83.6562 32.6384 83.8501 32.5269 84.0972 32.4908ZM7.35744 32.3468C7.51143 32.2661 7.76658 32.3203 7.77869 32.4502C7.54277 32.9469 6.9772 32.5656 7.35744 32.3468ZM105.641 40.3886C105.397 40.604 104.63 40.1743 104.908 39.8389C105.155 39.6225 105.902 40.0392 105.641 40.3886ZM91.8639 36.01C64.3277 30.1393 34.7947 25.0156 8.081 32.3372C10.8208 30.4923 15.1812 29.7606 18.3138 29.5389C19.2396 28.924 20.3615 29.2432 20.9278 29.1456C22.281 28.8607 23.8249 28.285 25.1245 28.6996C26.1965 28.2262 27.3743 28.1753 28.4073 28.6646C28.7138 28.2037 29.536 28.0316 30.1213 28.3528C33.1735 28.1038 36.2944 28.0378 39.7021 28.1173C42.076 27.8632 44.8172 28.821 46.7116 27.7879C47.1445 29.3374 47.3581 27.3785 47.9271 27.8961C48.213 28.908 49.0612 28.8862 48.829 27.8586C49.1471 27.6351 49.4623 28.0589 49.7848 28.1499C49.7407 28.1679 49.707 28.2289 49.6977 28.3533C49.7149 28.5262 49.8828 28.8214 50.0792 28.6411C50.1373 28.4418 49.9246 28.1132 49.7934 28.1489C50.0272 27.8261 50.3851 27.752 50.6165 28.0121C51.1574 29.1103 51.1534 28.5188 51.8965 28.1207C52.0368 28.5176 52.4375 29.367 52.9773 28.855C52.6065 28.2226 53.0407 27.9451 53.5995 28.3821C53.9964 28.6024 54.4571 27.8698 54.8054 28.4881C54.976 28.868 55.1383 29.3596 55.485 28.8357C55.8852 28.1479 56.1777 28.6058 56.6906 28.8096C56.6465 28.8276 56.6129 28.8886 56.6035 29.0131C56.6207 29.186 56.7886 29.4811 56.985 29.3009C57.0431 29.1016 56.8304 28.7729 56.6992 28.8086C57.1744 28.1481 57.773 28.756 57.8629 29.3266C58.5723 29.5305 58.5786 27.959 59.0658 29.4014C59.7687 29.9735 59.8884 29.5309 59.7646 28.8732C59.8754 28.4692 60.7819 29.2872 60.7683 29.7594C61.4642 28.9982 62.4506 29.1813 63.24 29.302C63.4259 30.1554 64.7448 30.7548 64.2382 29.4936C64.5442 29.3098 64.7587 29.5129 65.0039 29.6185C65.514 30.8356 65.9605 29.2346 66.9871 30.5954C67.1808 30.5286 67.2073 30.2783 67.0668 29.8445C67.6266 29.5687 67.9727 30.0324 68.1008 30.5173C69.1267 31.8105 68.8128 28.4938 69.8075 30.8882C70.7536 31.5272 70.4356 30.8598 70.5192 30.3397C70.8286 30.1172 71.1589 30.5324 71.4643 30.6255C72.3391 29.5541 72.5035 31.6859 73.5395 31.6652C74.8848 31.6186 73.1881 31.1855 73.3222 30.6721C73.5609 30.4137 73.9474 30.766 74.1255 30.956C73.9957 31.4823 75.393 32.4256 75.7604 31.67C74.73 31.4674 74.8712 30.3089 75.7952 31.2355C75.53 31.9541 77.6566 32.6593 77.276 31.8659C77.2567 31.8561 77.2417 31.8485 77.2193 31.8344C77.2364 31.8431 77.2525 31.8485 77.2707 31.8551C77.2389 31.7905 77.191 31.7151 77.1228 31.632C77.2625 30.89 77.7414 31.9459 77.4067 31.916C78.0842 32.2464 78.7156 32.9222 79.0966 32.2246C78.0404 32.0197 78.2438 30.8659 79.1314 31.7901C78.8641 32.5077 80.9981 33.2139 80.6143 32.4216C80.595 32.4118 80.5801 32.4042 80.5565 32.3922C80.5726 32.3977 80.5887 32.4032 80.6069 32.4097C80.575 32.3451 80.5282 32.2729 80.4622 32.1909C80.5845 31.4832 81.0416 32.4069 80.7911 32.4709C89.6336 35.4298 99.6437 35.9182 107.854 39.6623C102.754 38.9071 97.2895 37.3854 91.8629 36.0068L91.8639 36.01ZM145.364 55.6285C142.981 54.7447 140.559 54.9448 137.995 54.6986C136.382 53.5382 134.808 54.6398 133.23 53.4431C132.795 52.1888 134.438 52.2288 134.686 51.0462C134.729 50.7749 134.25 50.362 134.82 49.8437C138.775 47.1999 147.512 54.6355 150.4 55.4311C150.561 57.1679 146.572 54.807 145.367 55.6274L145.364 55.6285Z"
        fill="#D6D1F6" />
</svg>