<svg width="203" height="108" viewBox="0 0 203 108" fill="none" xmlns="http://www.w3.org/2000/svg">
<path d="M37.8828 59.708C37.7881 59.5632 37.576 59.3811 37.6108 59.2802C37.7372 58.9353 37.9459 58.6204 38.2124 58.1228C38.5709 58.1142 39.0234 58.1076 39.4793 58.0992C39.5484 58.4702 39.633 58.937 39.7481 59.5525C39.9708 59.6465 40.276 59.7791 40.6478 59.9369C40.5883 59.5174 40.5506 59.2469 40.4995 58.9097C40.8842 59.0086 41.2252 59.1003 41.5697 59.1903C41.9673 58.8225 41.3315 58.0938 42.1831 57.8054C42.3425 57.8637 42.5913 57.9569 42.9523 58.0945C43.0811 57.9955 43.2909 57.8405 43.4917 57.6772C43.7304 57.4851 43.9688 57.3756 44.2307 57.6266C44.3735 57.5289 44.5632 57.3195 44.656 57.3526C44.9889 57.479 44.8887 57.7232 44.7097 57.9443C44.8682 58.0508 45.032 58.1588 45.1905 58.2653C45.4074 57.9243 45.6798 57.8704 46.0042 58.1055C46.3178 57.6133 46.8635 57.7653 47.3023 57.6663C47.6023 57.5977 47.8693 58.141 48.267 57.7818C48.0751 57.4545 47.8742 57.1103 47.6625 56.7458C48.3138 56.5554 48.5245 57.1676 48.9855 57.2519C49.7375 57.3506 49.6986 56.5037 50.2023 56.2356C50.6365 56.2778 51.0798 55.838 51.5436 56.1855C51.7067 55.9512 51.8592 55.7052 52.0382 55.4841C52.0824 55.4259 52.2663 55.3888 52.2965 55.4204C52.3923 55.5256 52.5329 55.7067 52.4944 55.7923C52.3786 56.049 52.1857 56.2688 52.0244 56.5065C52.4986 56.8484 52.9492 56.4307 53.4142 56.4392C54.0883 55.4514 55.0373 55.8703 55.9033 55.9169C55.8763 55.6581 55.8439 55.3977 55.8151 55.1354C56.4251 54.9756 56.6798 55.5124 57.1057 55.6805C58.031 55.5307 58.9968 55.5069 59.791 54.7198C60.0917 54.8938 60.4117 55.0792 60.9147 55.3754C61.5844 55.2445 62.4724 54.85 63.2667 54.9782C63.965 55.0923 64.7067 55.0967 65.3861 55.3251C65.5953 55.1443 65.8012 54.9653 65.971 54.8186C67.2395 54.9893 68.4818 55.1523 69.6893 55.3165C69.8443 55.1169 69.9618 54.9633 70.0452 54.8538C70.7514 54.7166 71.4193 54.5823 72.1167 54.4454C72.4108 54.6402 72.7278 54.8532 73.1399 55.1284C73.5129 54.7477 73.8944 54.3582 74.341 53.9079C74.9002 54.2349 75.4595 54.562 76.0152 54.8908C76.6692 54.5558 77.1067 54.9866 77.7315 55.3871C78.3366 55.243 79.0718 55.0686 79.8087 54.8976C80.2655 54.4333 80.3368 53.6189 81.1349 53.4631C81.2022 53.7309 81.2677 53.9954 81.3331 54.2598C81.7183 54.185 82.0983 54.1086 82.4834 54.0337C82.7627 53.6682 83.0453 53.3009 83.3551 52.8931C83.8225 53.4468 83.6727 54.0471 83.9001 54.516C83.9957 54.7124 84.3314 54.794 84.6234 54.9683C84.7034 54.4615 84.7643 54.0517 84.8128 53.7353C85.2786 53.2878 85.5551 53.6742 85.8925 53.7593C86.1286 53.8201 86.4121 53.704 86.6692 53.6712C86.7114 53.9004 86.746 54.0902 86.7806 54.28C87.6011 54.6154 88.0685 53.8548 88.7332 53.6312C88.7952 53.8975 88.8589 54.1586 88.9227 54.4282C89.6791 54.2773 90.4424 54.1226 91.289 53.9497C91.5616 54.1126 91.88 54.3032 92.4218 54.6308C92.7677 54.4987 93.3107 54.2878 93.724 54.1243C94.2259 54.4601 94.539 54.8487 94.861 54.8465C95.6895 54.8393 96.4795 55.0175 97.287 55.104C98.4694 55.2294 99.55 54.6977 100.713 54.6208C100.768 54.8564 100.833 55.1208 100.876 55.2931C101.356 55.3458 101.801 55.3997 102.418 55.4702C102.563 55.3673 102.857 55.1544 103.178 54.9182C103.327 55.173 103.473 55.4296 103.695 55.8144C104.022 55.3888 104.301 55.0233 104.584 54.656C105.16 54.4749 105.422 55.0081 105.885 55.1955C106.128 55.1615 106.413 55.1227 106.725 55.0778C107.178 55.3792 107.657 55.6969 108.199 56.0588C108.473 55.857 108.76 55.6478 109.045 55.4352C109.871 55.3731 110.221 56.3798 111.11 56.2794C111.085 56.0239 111.06 55.7684 111.034 55.4957C111.814 55.2631 112.145 56.0193 113.025 56.3751C113.3 56.2592 113.834 56.0314 114.209 55.8709C114.744 56.2279 115.06 56.4375 115.422 56.6783C116.308 56.2374 117.237 56.5279 118.152 56.5746C118.584 56.5962 118.992 56.9214 119.439 57.1214C119.88 57.0344 120.361 56.9391 120.893 56.8335C121.17 57.0203 121.483 57.2266 121.916 57.5165C121.813 58.1049 121.903 58.9466 121.519 59.4326C121.036 60.0544 121.476 60.7312 121.038 61.2809C120.555 61.8889 120.144 62.5547 119.7 63.1941C119.761 63.8648 119.63 64.4764 119.058 65.1064C119.202 65.5678 119.371 66.1109 119.544 66.6521C119.447 66.6605 119.351 66.6638 119.254 66.6722C119.214 67.1053 119.176 67.5332 119.137 67.9664C118.68 68.0574 118.2 68.1527 117.705 68.2467C117.697 68.3983 117.638 68.5689 117.685 68.7084C118.036 69.7839 117.347 70.9012 117.884 72.0427C117.426 71.9307 117.08 71.846 116.72 71.7601C116.177 72.4045 117.458 72.2651 117.028 72.9058C116.94 72.9311 116.696 73.0047 116.46 73.0779C116.399 73.7699 116.336 74.4756 116.265 75.29C116.005 75.6669 115.672 76.1477 115.349 76.6144C115.386 76.8162 115.421 77.006 115.482 77.3377C115.059 77.9489 114.577 78.648 114.181 79.2187C114.224 79.6732 114.251 79.9492 114.27 80.143C114.034 80.8889 112.634 80.4972 112.911 81.6251C113.226 81.5922 113.481 81.5647 113.737 81.5372C113.864 82.1505 113.315 82.4081 113.131 82.8701C113.224 83.3109 113.323 83.7789 113.404 84.165C113.333 84.9536 112.374 85.3987 112.853 86.2238C112.589 86.2774 112.4 86.313 112.161 86.3623C112.009 86.5601 111.738 86.7653 111.683 87.0115C111.507 87.795 111.407 88.5983 111.241 89.6498C111.071 89.8964 110.741 90.3754 110.505 90.7136C110.396 91.6652 110.304 92.4648 110.209 93.3007C109.904 93.4021 109.643 93.4934 109.341 93.593C109.331 93.6071 109.251 93.6718 109.258 93.7197C109.391 94.4773 109.535 95.2294 109.577 95.4499C109.489 96.4077 109.45 96.8408 109.408 97.2792C109.247 97.3087 109.056 97.3495 108.864 97.3869C108.809 97.4335 108.696 97.4889 108.704 97.5196C108.832 98.2757 108.977 99.0312 109.116 99.7904C109.016 99.952 108.916 100.114 108.8 100.296C109.417 101.248 109.733 102.39 110.554 103.233C110.683 103.368 110.869 103.451 111.052 103.57C111.164 104.097 111.281 104.641 111.398 105.186C111.603 105.147 111.796 105.109 112.108 105.047C112.59 105.329 113.151 105.659 113.663 105.963C113.963 105.938 114.212 105.914 114.586 105.884C114.43 106.249 114.323 106.497 114.209 106.766C114.272 106.85 114.347 107.057 114.444 107.066C115.346 107.146 116.239 107.086 117.102 107.56C117.614 107.839 118.326 107.772 118.951 107.847C119.042 107.859 119.14 107.811 119.237 107.794C119.716 107.713 120.195 107.631 120.628 107.562C120.777 107.344 120.887 107.185 121.034 106.977C121.368 107.064 121.715 107.152 122.111 107.254C122.285 107.083 122.486 106.894 122.722 106.664C123.038 106.743 123.388 106.826 123.841 106.936C124.191 106.429 124.561 105.894 124.874 105.441C125.495 105.319 125.975 105.223 126.484 105.122C126.449 104.858 126.419 104.593 126.388 104.327C126.917 104.206 127.455 104.085 127.97 103.971C127.94 103.64 127.912 103.364 127.879 102.969C128.202 102.819 128.532 102.665 129.035 102.428C129.357 101.961 129.796 101.329 130.173 100.781C130.927 100.41 131.583 100.087 132.365 99.7015C132.937 98.872 133.603 97.9103 134.147 97.1265C134.793 96.7693 135.254 96.3289 135.751 96.2813C136.575 96.1986 136.499 95.1242 137.274 95.1154C138.008 95.1062 137.987 94.2674 138.51 94.0365C138.861 94.1142 139.209 94.1937 139.622 94.2865C139.594 93.9846 139.569 93.7292 139.547 93.4976C139.936 93.3039 140.331 93.1066 140.966 92.7945C141.027 92.8097 141.374 92.903 141.723 92.9945C142.193 92.6536 141.476 91.8811 142.366 91.6069C142.522 91.6671 142.774 91.7584 143.142 91.8923C143.742 91.5298 144.433 91.1058 145.186 90.6487C145.377 90.7248 145.626 90.8266 145.878 90.9265C146.035 90.8386 146.218 90.7757 146.343 90.6528C146.561 90.4374 147.928 89.3971 148.312 89.2019C148.553 89.0733 148.793 88.95 149.029 88.8113C149.107 88.7657 149.157 88.678 149.262 88.5661C149.583 88.6465 149.929 88.7312 150.363 88.8388C150.571 88.5721 150.801 88.2805 151.167 87.8123C151.552 87.7374 152.109 87.6275 152.664 87.5143C153.124 87.4214 153.51 87.2812 153.916 86.9389C154.287 86.6289 154.954 86.6082 155.199 86.1131C155.595 86.2495 155.851 86.339 156.087 86.4171C157.113 85.8149 158.126 85.2235 159.246 84.5666C159.392 84.6236 159.641 84.7254 159.968 84.8589C160.207 84.684 160.498 84.4729 160.79 84.2567C161.138 84.3448 161.483 84.4347 161.82 84.5197C162.075 84.1499 162.296 83.8328 162.535 83.4842C163.186 83.3763 163.856 83.2626 164.58 83.142C164.682 83.2005 164.844 83.2966 165.009 83.3908C165.977 82.8972 166.944 82.4003 167.877 81.9251C168.392 82.1848 168.799 82.393 169.217 82.6044C169.82 82.5308 169.784 81.8645 170.196 81.615C170.752 81.3452 171.022 81.878 171.459 82.0663C172.283 82.3088 172.791 81.5829 173.488 81.3376C173.796 81.5423 174.114 81.7553 174.374 81.9289C175.382 82.1342 175.923 81.2128 176.774 81.0983C177.547 80.9949 178.307 80.8077 179.12 80.6479C179.293 80.4907 179.492 80.3068 179.694 80.1211C180.317 80.2103 180.958 80.2335 181.553 80.4114C181.87 80.5074 182.087 80.5397 182.297 80.3021C182.875 79.6427 183.732 79.872 184.433 79.5991C185.476 80.1541 186.472 79.4463 187.473 79.5555C188.632 79.7024 189.788 79.8459 190.938 79.9931C191.06 79.8152 191.171 79.6567 191.314 79.4506C192.404 79.4691 193.48 78.6708 194.637 79.2479C195.725 79.0548 196.796 78.6541 197.909 78.9987C197.881 78.7054 197.861 78.4515 197.827 78.0793C198.177 78.2138 198.428 78.3103 198.772 78.4485C199.283 78.4451 199.33 77.8345 199.821 77.4429C199.929 77.4118 200.201 77.3322 200.535 77.2366C201.048 76.4951 201.595 75.7009 202.184 74.8536C202.156 74.643 202.124 74.3654 202.084 74.057C202.286 73.763 202.503 73.4477 202.785 73.046C202.641 72.3593 202.292 71.5951 202.381 70.8713C202.46 70.2218 202.611 69.6163 202.309 68.9314C202.061 68.7643 201.74 68.5531 201.368 68.3041C201.597 67.3021 200.694 66.6632 200.498 65.7528C200.439 65.4675 199.945 65.2794 199.576 64.9855C199.565 63.5425 198.398 62.515 197.9 61.1882C197.707 61.2256 197.515 61.2631 197.19 61.3273C197.041 60.5306 196.891 59.7253 196.742 58.9201C196.097 58.491 195.458 58.0634 194.764 57.5999C194.856 57.2734 194.953 56.9312 195.038 56.6256C194.765 56.1375 194.508 55.6714 194.199 55.1243C193.884 54.9147 193.484 54.646 192.841 54.2203C192.856 53.8568 192.879 53.2848 192.899 52.8145C192.229 52.6546 191.714 53.0418 191.369 52.5356C191.412 51.9096 191.456 51.2837 191.501 50.5957C190.962 50.1889 190.445 49.8003 189.926 49.4082C189.838 48.9347 189.752 48.4645 189.654 47.931C189.379 47.7476 189.069 47.5395 188.865 47.4053C188.37 46.7664 188.742 45.9608 188.165 45.483C187.677 45.0745 187.771 44.2696 187.025 43.9902C186.508 43.7925 186.816 42.8824 186.153 42.6759C186.255 41.8278 185.408 41.6842 184.975 41.1121C185.064 40.9044 185.171 40.6565 185.303 40.3475C185.189 39.5583 184.591 39.7246 184.017 39.8522C183.704 39.4722 184.143 39.208 184.193 38.8434C184.092 38.3203 183.468 38.3051 183.197 37.9461C182.987 37.6676 183.126 37.2466 182.774 36.9435C182.456 36.6704 182.381 36.1207 182.066 35.8371C181.709 35.5153 181.299 35.2865 181.314 34.732C180.581 34.2457 180.732 33.4062 180.476 32.6579C180.057 32.3778 179.578 32.0601 179.097 31.7391C178.979 31.177 178.862 30.6236 178.741 30.0548C178.267 29.7386 177.788 29.421 177.325 29.1079C177.183 28.3334 177.043 27.5794 176.893 26.7742C176.637 26.8017 176.379 26.831 176.12 26.8603C176.064 26.0313 175.223 25.5589 175.174 24.635C175.137 23.9911 174.554 23.3862 174.212 22.7525C173.872 22.7863 173.594 22.8128 173.223 22.8493C173.078 22.0766 172.93 21.2748 172.784 20.4763C172.536 20.5259 172.347 20.5615 172.13 20.6032C171.714 20.1956 171.867 19.6021 171.675 19.0667C171.395 18.8817 171.083 18.6702 170.768 18.4606C170.697 18.1688 170.628 17.8976 170.555 17.5938C170.102 17.2925 169.627 16.9729 169.155 16.6602C169.089 16.37 169.027 16.0951 168.963 15.8082C168.647 15.5986 168.33 15.3856 168.015 15.176C167.929 14.6972 167.84 14.2236 167.741 13.7039C167.014 13.3189 166.832 12.3874 166.208 11.9215C165.518 11.4079 165.627 10.2654 164.582 10.0975C164.516 9.83302 164.451 9.55996 164.379 9.25958C164.083 9.06135 163.766 8.84834 163.455 8.64548C163.389 8.35523 163.327 8.08034 163.263 7.79348C162.953 7.5854 162.632 7.37423 162.335 7.17262C162.265 6.87562 162.199 6.60256 162.139 6.34825C161.715 6.0666 161.315 5.79788 160.917 5.53254C160.55 4.91695 160.412 4.12675 159.575 4.00004C159.683 3.5044 159.762 3.15423 159.852 2.74175C159.58 2.76983 159.322 2.79395 159.011 2.82504C158.263 2.32546 157.469 1.79816 156.673 1.26749C156.372 1.31026 156.089 1.35246 155.806 1.39464C155.743 1.14217 155.677 0.877707 155.612 0.61325C155.419 0.650682 155.226 0.688114 154.93 0.746243C154.598 0.57159 154.192 0.358127 153.716 0.104019C153.53 0.263348 153.325 0.442298 153.009 0.714386C152.101 0.863571 151.044 1.04013 150.164 1.18322C149.483 1.65854 149.346 2.53362 148.439 2.41785C148.468 2.69728 148.497 2.95952 148.528 3.22515C148.269 3.28887 147.999 3.35472 147.732 3.41874C147.51 3.74103 147.29 4.06149 146.913 4.60058C147.051 4.93485 147.262 5.43873 147.516 6.04952C146.901 5.92566 146.548 5.85321 146.194 5.78597C145.894 6.29665 146.504 6.30199 146.498 6.29185C146.753 6.82006 146.696 6.92004 146.491 6.9768C145.687 7.20507 145.028 7.75534 144.155 7.89476C143.586 7.98957 142.904 8.42191 142.602 8.90341C142.263 9.43949 141.69 9.43636 141.342 9.80418C141.382 10.0127 141.416 10.2025 141.457 10.4196C141.197 10.4886 140.931 10.556 140.668 10.6268C140.694 10.7996 140.721 10.9845 140.787 11.3917C140.511 12.0032 139.886 12.6262 139.478 13.3728C139.512 13.5626 139.547 13.7524 139.585 13.9404C139.525 14.111 139.499 14.3028 139.404 14.4488C138.975 15.098 138.524 15.7325 138.083 16.3752C138.021 17.3751 137.696 18.3769 138.101 19.3887C137.805 19.464 137.54 19.5314 137.256 19.6046C137.299 19.7769 137.342 19.9578 137.379 20.12C137.293 20.8471 136.685 21.2701 136.421 21.8708C136.455 22.0606 136.49 22.2504 136.543 22.5342C136.263 22.9392 135.944 23.4041 135.621 23.8709C135.634 24.1853 135.645 24.4567 135.666 24.8534C135.408 25.2251 135.085 25.6918 134.638 26.3416C134.806 26.7643 135.013 27.2958 135.163 27.6762C134.804 28.1923 134.587 28.5075 134.366 28.8246C134.411 29.1173 134.449 29.3964 134.494 29.6891C134.224 30.0801 133.945 30.4799 133.672 30.8814C133.768 31.0209 133.977 31.2049 133.942 31.2972C133.808 31.6286 133.563 31.5336 133.342 31.3604C133.179 31.5946 133.015 31.8341 132.875 32.0384C132.898 32.4213 132.923 32.7765 132.947 33.1714C132.596 33.3105 132.349 33.4117 131.955 33.5694C131.878 34.1827 131.79 34.9065 131.701 35.6045C131.431 35.6876 131.167 35.7669 130.852 35.8653C130.744 36.6689 130.636 37.4553 130.518 38.3245C130.271 38.5083 129.66 38.3344 129.519 38.9258C128.253 38.7871 127.348 38.5239 126.805 38.1361C126.773 37.9497 126.736 37.7651 126.658 37.3342C126.158 37.5608 125.659 37.7875 125.196 37.9991C124.995 37.4382 124.882 37.1168 124.765 36.7887C124.25 36.7372 123.811 36.6935 123.369 36.6463C123.079 37.1481 122.749 36.9201 122.376 36.6934C122.311 36.4548 122.237 36.1906 122.155 35.8871C121.91 35.9177 121.646 35.9541 121.377 35.989C121.314 35.7365 121.25 35.4754 121.188 35.2177C120.905 35.2599 120.622 35.3021 120.405 35.3352C119.768 35.145 119.895 34.5609 119.636 34.057C119.319 34.0349 118.962 34.0125 118.561 33.983C118.451 33.7596 118.301 33.4618 118.155 33.1622C117.486 32.746 116.858 33.2797 116.203 33.2724C114.448 32.1031 112.69 30.9303 110.933 29.7575C110.254 30.0057 109.734 30.6992 108.8 30.4588C108.127 30.1269 108.455 29.3194 108.149 28.5624C107.66 28.7492 107.136 28.9457 106.767 29.0854C106.255 28.7464 105.936 28.5301 105.623 28.3238C105.333 28.3697 105.048 28.4171 104.8 28.4581C104.456 28.2288 104.141 28.0192 103.854 27.8292C103.776 27.5239 103.71 27.2509 103.613 26.8774C102.827 26.7885 102.023 26.7002 100.967 26.5808C100.714 26.4122 100.245 26.0976 99.8542 25.8372C99.0263 25.7789 98.2995 25.7276 97.435 25.6672C97.2501 25.5444 96.9331 25.3314 96.6108 25.1168C96.5506 24.8539 96.4867 24.5842 96.4247 24.318C95.9389 24.4117 95.4636 24.5085 94.983 24.6038C94.0159 24.4504 93.7955 23.5787 93.4807 22.8874C93.0463 22.9364 92.7684 22.9715 92.4296 23.0087C91.8396 22.6156 91.2074 22.193 90.5699 21.7688C90.2747 21.8131 89.9898 21.852 89.6704 21.9005C89.3815 21.7072 89.0013 21.2589 88.7587 21.3273C87.9912 21.5406 87.3355 20.9656 86.6068 21.2103C86.5704 21.0171 86.5358 20.8273 86.5012 20.6375C86.4043 20.5387 85.866 20.5866 84.8864 20.7812C84.8194 20.5306 84.7541 20.2747 84.698 20.0529C83.9957 20.006 83.288 19.9575 82.5317 19.9089C82.6216 19.5704 82.7132 19.2267 82.8113 18.8621C82.1995 18.4113 82.241 19.4043 81.7577 19.3448C81.4089 19.3049 81.0321 19.4621 80.5671 19.5534C80.401 19.1082 80.2734 18.777 80.1201 18.3641C80.1219 18.3675 80.0592 18.2664 79.979 18.257C79.1884 18.1442 78.3964 18.0452 77.5799 17.9419C77.557 17.824 77.5242 17.6375 77.4896 17.4477C76.5258 17.1842 75.5566 17.1101 74.5684 17.4495C74.4991 17.1611 74.4388 16.8981 74.3768 16.6319C74.1929 16.669 74.0003 16.7064 73.6672 16.7709C73.2146 16.4696 72.6792 16.1125 72.2266 15.8112C71.8935 15.8757 71.7027 15.9165 71.3973 15.9749C71.3294 15.7725 71.2596 15.5581 71.1716 15.3012C70.6896 15.0112 70.6541 15.5767 70.3995 15.7555C70.0299 15.8264 69.6466 15.9047 69.2735 15.9774C69.0441 15.6961 69.2742 15.2049 68.8307 15.0289C68.6879 15.1266 68.4948 15.3378 68.4054 15.3029C68.0725 15.1765 68.1727 14.9323 68.3517 14.7112C67.8757 14.4657 66.44 14.1887 65.5134 14.1614C65.4806 13.9749 65.4425 13.787 65.4097 13.6006C65.3619 13.5523 65.3115 13.4576 65.2646 13.4609C65.0717 13.4812 64.8611 13.4848 64.6989 13.5711C63.9575 13.9831 63.2455 13.078 62.5127 13.6892C62.4264 13.3274 62.3662 13.0645 62.2969 12.7847C62.1219 12.8301 61.9382 12.8759 61.7787 12.9173C61.0412 12.8544 60.6273 12.2679 60.0394 11.9951C59.4697 12.2723 58.8983 12.5547 58.301 12.8466C57.7868 12.5043 57.3271 12.198 56.8657 11.8884C56.3621 11.6575 56.8482 10.6658 55.7834 10.803C55.6079 10.9225 55.3066 11.1218 55.0107 11.3227C54.7039 10.6965 54.3714 10.0883 53.5878 9.87204C53.3566 10.0948 53.1631 10.2803 52.913 10.5175C52.6158 10.4414 52.2731 10.3549 51.8674 10.2498C51.8325 10.5503 51.7957 10.8388 51.7574 11.1412C51.1246 11.1917 50.9234 10.8303 50.9127 10.2113C50.5181 10.1437 50.1216 10.0641 49.7238 10.0155C49.3924 9.97504 49.0563 9.9674 48.7251 9.94411C48.6903 9.74572 48.6541 9.56114 48.6195 9.37134C47.802 9.10805 47.3344 9.86005 46.6641 10.0563C46.6055 9.78818 46.5435 9.52189 46.4831 9.25038C46.2507 9.09647 46.0146 8.9358 45.7751 8.77697C45.6271 8.87311 45.4392 9.08586 45.3377 9.05314C44.991 8.93404 44.6759 8.73301 44.3229 8.55219C44.2469 8.28464 44.1711 8.02569 44.0416 7.58275C43.5758 7.83063 43.0737 8.0935 42.8805 8.19632C41.9364 7.65342 41.4229 7.25433 40.8881 6.93166C40.2624 7.69414 41.4218 7.59328 41.1931 8.16179C40.6633 8.13141 40.1022 8.10036 39.4888 8.06246C39.5823 7.73073 39.6757 7.39041 39.7889 6.98749C39.6088 6.84042 39.4075 6.67858 39.2222 6.52997C38.6058 6.82764 38.1232 7.31006 37.3572 7.30997C37.2944 7.10048 37.2243 6.86886 37.1615 6.65937C36.6571 6.58512 36.1493 6.51271 35.5733 6.42882C35.5415 6.70171 35.5065 6.99362 35.4749 7.2837C35.009 7.42321 34.8101 6.9912 34.477 6.85615C34.4278 6.93005 34.3589 7.07515 34.3274 7.06589C33.4745 6.86916 32.6279 6.94231 31.7803 7.15485C31.7214 7.16887 31.6343 7.06341 31.5603 7.016C31.288 7.47759 30.9153 7.36796 30.6563 7.08936C30.4506 6.86917 30.3871 6.51692 30.2583 6.21674C29.9297 6.43937 29.6406 6.6366 29.367 6.82126C29.0971 6.41399 28.8065 6.01774 28.5746 5.59028C28.5134 5.47535 28.6386 5.26127 28.6775 5.09309C28.508 5.05749 28.2901 4.93922 28.1728 5.00165C27.8692 5.16323 27.6087 5.40594 27.3114 5.62924C27.2396 5.30307 27.1829 5.03832 27.1261 4.77357C26.4493 4.89951 26.3181 5.46819 26.102 5.96059C26.3035 6.2394 26.505 6.51822 26.7191 6.82069C26.5462 6.88671 26.357 7.02208 26.2709 6.97681C25.8614 6.74798 25.4841 6.47163 25.0931 6.21122C24.8792 6.32507 24.6635 6.43553 24.5566 6.49245C23.8529 6.26834 24.0703 5.65376 23.733 5.2694C23.5285 5.22638 23.2752 5.17466 22.9502 5.10472C23.0397 5.4475 23.1088 5.71872 23.1702 5.95063C22.98 6.22539 22.8203 6.45784 22.6572 6.69212C22.8534 7.09957 22.7356 7.46881 22.3038 7.79985C21.9153 7.27787 22.5348 7.06094 22.6572 6.69212C22.2592 6.42678 21.8612 6.16145 21.458 5.89457C20.9924 6.15105 20.5215 6.40599 19.8162 6.79438C19.5812 7.10161 19.1827 7.61732 18.7656 8.16464C18.4606 8.04069 18.2082 7.94079 17.9154 7.82331C17.2608 8.22376 16.5717 8.64258 15.7672 9.1358C15.5547 8.92789 15.3209 8.69661 15.1014 8.48378C15.2916 8.20901 15.4021 8.05048 15.5091 7.89377C15.4399 7.51418 15.369 7.1398 15.2999 6.7688C15.0103 6.73207 14.8593 6.85585 14.1229 7.76827C13.5048 7.863 13.3038 7.51019 13.2215 6.98136C13.1944 6.82228 13.0389 6.68816 12.9424 6.54C12.6409 7.0301 12.0817 6.80286 11.69 7.00697C11.2022 6.78078 10.7319 6.5626 10.1089 6.27385C10.5433 7.14009 11.1838 7.73619 10.8022 8.62466C10.9607 8.73117 11.1244 8.83921 11.2107 8.99286C11.5005 8.73885 11.72 8.3444 11.9184 8.95018C11.71 8.97439 11.5015 8.99859 11.2107 8.99286C10.9244 9.35343 10.7726 9.94173 10.1577 10.2256C9.50435 9.78819 8.82113 9.3363 8.03562 8.80872C8.25532 8.32309 8.50188 7.77978 8.9111 6.87662C8.30295 7.34777 8.02632 7.56006 7.7428 7.77602C7.30257 7.88886 7.10229 7.47925 6.7761 7.34053C6.66567 7.49907 6.55359 7.66283 6.44316 7.82137C7.08424 8.2523 6.55605 8.61583 6.33775 8.97926C6.13293 9.31817 5.87849 9.60541 5.44436 9.26387C5.41728 9.61229 5.3902 9.96071 5.33816 10.5783C4.89748 10.6654 4.36484 10.771 3.84437 10.8745C3.8559 10.9378 3.8905 11.1276 3.94787 11.4267C2.86703 11.6419 1.78094 11.8556 0.609781 12.0841C0.871732 12.4349 1.07849 12.7152 1.34044 13.066C1.01873 13.5929 0.676623 14.148 0.341274 14.6909C0.412426 15.0824 0.483292 15.4568 0.552346 15.8278C0.932281 15.7514 1.314 15.6784 1.73038 15.5956C1.69986 15.3386 1.67277 15.0797 1.64194 14.8055C1.89677 14.7436 2.16902 14.6811 2.44291 14.6134C2.60255 14.381 2.76908 14.1449 2.9803 13.9761C2.72824 13.6938 2.33114 13.48 2.94913 13.2769C2.97009 13.4827 2.99102 13.6884 2.9803 13.9761C3.02859 14.0501 3.21918 14.2003 3.20236 14.335C3.16807 14.6699 3.03616 14.9961 2.94909 15.2983C4.21302 15.3024 5.32818 14.6525 6.6123 14.919C7.80027 15.163 8.96723 14.286 10.2077 14.5454C10.4247 14.2044 10.6971 14.1505 11.076 14.4217C11.4374 13.9777 11.4816 13.2038 12.2778 13.1444C12.0341 13.7512 11.6335 14.177 11.076 14.4217C10.8027 14.7233 10.5303 14.7772 10.2077 14.5454C9.94784 14.9223 9.68796 15.2992 9.34138 15.796C9.4202 16.1271 9.52328 16.5537 9.62263 16.965C9.86391 17.1272 10.0893 17.2762 10.3165 17.4285C10.3436 17.0801 10.3707 16.7317 10.3994 16.3781C11.0396 16.2499 11.704 16.1175 12.2922 15.9997C12.599 16.127 12.8461 16.2254 13.2038 16.3734C13.173 15.9994 13.1566 15.7522 13.1307 15.4623C13.3629 15.3995 13.6176 15.329 13.8879 15.2545C13.8093 14.7325 13.7269 14.195 13.6411 13.6595C14.0419 13.5806 14.4218 13.5042 14.8833 13.4147C14.7834 13.7759 14.6531 14.0968 14.617 14.4284C14.602 14.5665 14.7944 14.72 14.8891 14.8648C15.2668 14.4513 15.3935 13.8243 16.2411 13.512C16.2131 14.1081 16.1894 14.6543 16.1728 15.0058C17.0446 15.5872 17.6768 16.0099 18.3161 16.4374C18.3784 16.7209 18.4406 16.9958 18.5011 17.2759C18.7336 17.4298 18.9731 17.5887 19.233 17.7193C19.2652 17.6717 19.3219 17.5288 19.3707 17.5289C19.8845 17.546 20.3967 17.5684 20.9044 17.6322C20.9986 17.6428 21.0682 17.84 21.1698 17.9811C21.0024 18.1657 20.8298 18.3572 20.6164 18.5967C20.1338 18.2722 19.6953 17.9807 19.233 17.7193C18.8258 18.643 19.4874 19.2539 19.7886 19.9612C19.6709 20.1062 19.5551 20.2546 19.3983 20.4508C19.0801 20.3686 18.7408 20.2802 18.3614 20.1828C18.26 20.6662 18.1569 21.1462 18.0348 21.7404C18.1572 21.8705 18.3414 22.0587 18.5719 22.3004C18.6136 22.4951 18.6757 22.77 18.7327 23.0434C19.0479 23.253 19.3631 23.4626 19.74 23.7132C20.0046 23.5116 20.2881 23.2956 20.6662 23.0077C20.9497 23.4988 21.2278 23.9798 21.5291 24.4961C20.7469 24.4656 19.9404 24.1314 19.2572 24.7943C19.4915 24.9516 19.7239 25.1055 20.0039 25.2905C20.2395 25.2258 20.5151 25.1529 20.7541 25.0864C21.1099 25.3222 21.4198 25.5302 21.735 25.7399C22.4578 25.7586 22.4403 24.9437 22.9304 24.6916C23.2982 24.6173 23.6712 24.5446 24.0408 24.4737C24.0976 24.7384 24.1544 25.0032 24.2471 25.4353C24.5462 25.1156 24.7737 24.8774 24.9651 24.6715C24.668 23.9967 24.0703 23.8637 23.6604 23.5093C23.5141 23.6088 23.3176 23.8219 23.2298 23.7818C22.8213 23.6132 22.4429 23.3764 22.1741 23.2289C22.0518 22.6997 21.9689 22.336 21.8936 22.0031C22.0787 21.7354 22.2418 21.5011 22.4049 21.2668C22.2464 21.1603 22.0826 21.0523 21.9964 20.8986C21.7066 21.1526 21.4871 21.5471 21.2886 20.9413C21.4971 20.9171 21.7056 20.8929 21.9964 20.8986C22.0669 20.8481 22.2566 20.6387 22.3478 20.6769C22.6807 20.8034 22.5804 21.0476 22.4015 21.2686C22.9251 21.7534 22.7146 22.4727 22.963 23.0476C23.1955 23.2015 23.4245 23.3572 23.6569 23.5111C23.82 23.2768 23.9813 23.0392 24.1648 22.7767C24.5189 22.7183 24.8992 22.6591 25.2828 22.5981C25.4043 22.8761 25.5383 23.1779 25.6543 23.4458C26.3617 23.8848 26.9778 23.3704 27.6199 23.354C27.3848 24.0604 27.3725 24.761 27.6317 25.4559C27.9385 25.7828 28.5291 25.8111 28.6119 26.3743C28.2269 26.5576 27.8453 26.739 27.4084 26.9498C27.9023 27.8278 28.3243 28.5791 28.7231 29.2952C28.3985 29.4506 28.0826 29.6057 27.7614 29.7593C28.0129 30.0072 28.4765 30.0381 28.5329 30.4852C28.4627 30.6527 28.3907 30.8168 28.3188 30.9895C27.825 31.2263 27.3256 31.4444 26.7661 31.1999C26.7272 31.3681 26.6744 31.5351 26.6529 31.7027C26.6173 31.9602 26.6061 32.222 26.5844 32.4808C26.7429 32.5873 26.9067 32.6954 27.0652 32.8019C27.3203 32.549 27.3594 32.0901 27.8266 32.028C28.1665 32.3589 28.0683 32.8233 28.1797 33.2238C27.8569 33.6905 27.5342 34.1572 27.1588 34.6997C27.2784 35.174 27.4113 35.7149 27.5309 36.1891C27.3151 36.4991 27.1555 36.7316 26.9924 36.9659C27.8877 37.3005 27.9044 38.2719 28.3716 38.9169C28.6195 39.2578 28.5698 39.8134 28.6751 40.369C29.1124 40.3836 29.4695 40.3974 29.8858 40.4144C30.2745 41.0447 29.4475 41.2462 29.2709 41.7046C28.8857 41.7795 28.5058 41.8559 28.1206 41.9308C27.5782 41.5688 27.0358 41.2068 26.3032 40.7204C26.8522 40.5541 27.0964 40.4805 27.3527 40.4048C27.488 39.7689 26.77 39.8257 26.4875 39.4945C26.403 39.2359 26.3185 38.9772 26.2303 38.7118C25.7735 38.7684 25.5572 39.1524 25.5687 39.9228C25.2916 40.0009 25.0231 40.0787 24.7805 40.1471C24.5484 40.5179 24.3086 40.8493 24.8113 41.1283C25.027 41.0179 25.2462 40.9056 25.5638 40.7453C25.7987 41.2449 25.9847 41.636 26.227 42.1578C26.5229 42.1564 26.8815 42.1564 27.2767 42.1587C27.599 42.3732 27.9706 42.6222 28.5253 42.9907C28.1324 43.126 27.9196 43.2002 27.5995 43.3142C27.6096 43.4997 27.6223 43.7315 27.638 44.0355C27.0891 44.0023 26.528 43.9712 25.9808 43.9414C25.9176 43.7061 25.8508 43.4641 25.7767 43.2085C25.1925 43.5499 24.6547 43.8621 24.1135 44.1762C24.4465 44.3112 24.6564 44.7721 25.0956 44.5991C25.6472 44.3793 25.9856 44.724 26.2938 45.0285C26.5836 44.7745 26.8066 44.3782 27.0016 44.9858C26.7931 45.01 26.5846 45.0342 26.2938 45.0285C26.0484 45.1331 25.7324 45.2882 25.4131 45.4452C25.4637 45.557 25.5155 45.729 25.6084 45.8704C25.7461 46.0791 25.9113 46.2731 26.0501 46.4508C25.8395 46.7538 25.6798 46.9862 25.4703 47.1498C25.7223 47.4321 26.1194 47.6459 25.5014 47.849C25.4805 47.6432 25.4596 47.4375 25.4703 47.1498C25.1871 47.0836 24.9885 46.6688 24.3924 46.8299C24.5344 47.5958 24.682 48.3805 24.8156 49.164C24.8176 49.1845 24.6879 49.2319 24.6189 49.2686C24.1605 48.9314 23.4765 49.2433 23.0286 48.8094C23.1696 48.6085 23.2731 48.4536 23.404 48.2669C23.2818 47.7463 23.1576 47.2051 23.0486 46.7339C23.2167 46.4926 23.3237 46.3359 23.4239 46.1915C23.379 45.9074 23.336 45.6353 23.2948 45.3666C23.5735 44.9667 23.8435 44.5757 24.1136 44.1848C23.8522 44.1677 23.5909 44.1593 23.3275 44.1303C23.1566 44.1085 22.9904 44.0625 22.8209 44.0269C22.7922 44.3805 22.7616 44.7308 22.7258 45.1793C22.6273 45.3185 22.4694 45.5543 22.3064 45.7886C22.4027 45.9281 22.6131 46.1155 22.5764 46.2044C22.4428 46.5358 22.1974 46.4408 21.9769 46.2676C21.8223 46.493 21.666 46.715 21.4894 46.9738C20.8527 46.9006 20.1968 46.8245 19.541 46.7485L18.292 47.4132C18.3048 47.7534 18.3229 48.0951 18.3404 48.5022C17.9836 48.4059 17.6374 48.2213 17.3088 48.2444C16.6847 48.2946 16.0732 48.4683 15.3913 48.6013C15.6697 48.9996 15.8662 49.2855 16.0947 49.615C15.9605 49.8122 15.8127 50.0253 15.619 50.3019C15.3525 50.1922 15.1088 50.092 14.8038 49.968C14.1944 50.0625 14.0793 50.3536 14.4433 51.0708C14.8611 50.8687 15.2403 50.9879 15.581 51.4283C15.0582 51.7022 14.8029 51.2308 14.4433 51.0708C13.9444 51.6226 13.0467 51.2502 12.632 51.7355C12.1713 52.2756 11.6054 52.1691 11.0878 52.3361C10.6549 52.1717 10.4037 51.6331 9.78647 51.7794C9.80995 52.0315 9.83524 52.287 9.86443 52.5664C9.61303 52.6265 9.34258 52.6923 9.06525 52.7618C8.90725 52.9891 8.73908 53.2304 8.52786 53.3992C8.77992 53.6815 9.17702 53.8952 8.55903 54.0983C8.53807 53.8926 8.51714 53.6869 8.52786 53.3992C8.14725 53.1333 7.9757 53.5846 7.6664 53.7189C7.00804 54.0042 6.27518 54.1079 5.59227 54.2805C5.49965 53.9568 5.43281 53.7147 5.33631 53.367C5.06716 53.61 4.87004 53.7887 4.64381 53.9958C4.88385 54.3886 5.10604 54.7562 5.33003 55.1271C4.63718 55.4308 4.38299 54.6205 3.69395 54.6401C3.21742 54.768 3.18267 55.1769 3.29414 55.6858C3.32814 55.8412 3.22686 56.0252 3.18797 56.1934C3.82458 56.566 4.43876 55.9398 5.03882 56.1106C5.12197 56.4915 5.20498 56.8637 5.28258 57.2258C4.61342 57.4909 3.98065 57.4416 3.29708 57.1721C3.1403 57.3683 2.98021 57.575 2.83873 57.75C2.8675 57.9039 2.85066 58.0386 2.9054 58.0832C3.57571 58.594 4.29511 59.0223 4.96467 59.4902C5.5987 58.7016 4.40119 58.8141 4.6509 58.2517C5.19294 58.2886 5.75942 58.3298 6.32412 58.3676L6.43945 59.0002C6.77056 59.2231 7.14563 59.4703 7.55067 59.7405C8.27971 59.3135 8.47653 58.5104 9.0322 58.0238C8.78014 57.7415 8.38302 57.5278 9.00103 57.3246C9.02197 57.5304 9.04292 57.7361 9.0322 58.0238C9.2252 58.1119 9.4647 58.2708 9.6919 58.4231C9.75752 58.6962 9.81954 58.9625 9.87978 59.2254C10.376 59.1261 10.8565 59.0309 11.3337 58.9374C11.6729 59.0258 12.0105 59.1194 12.2833 59.1911C12.896 58.7783 12.5235 58.2782 12.6222 57.8396C13.0843 57.8843 13.5345 57.4408 13.9365 57.8385C14.2263 57.5845 14.4493 57.1882 14.6443 57.7958C14.4358 57.82 14.2273 57.8442 13.9365 57.8385C13.9817 58.1398 13.953 58.4934 13.9137 58.9437C13.8152 59.0829 13.6573 59.3188 13.4942 59.5531C13.6438 59.8508 13.7953 60.1519 13.9594 60.4853C14.6671 60.4341 14.6969 59.6417 15.1681 59.3042C14.9161 59.0219 14.5189 58.8081 15.1369 58.605C15.1579 58.8108 15.1788 59.0165 15.1681 59.3042C15.3593 59.3889 15.5954 59.5496 15.8278 59.7035C16.109 59.6579 16.3834 59.616 16.6577 59.5742C16.7578 60.0284 16.6975 60.5723 17.5308 60.6407C17.9391 60.5926 17.9863 59.9992 18.3186 59.6835C18.4958 59.6587 18.7463 59.547 18.8311 59.6233C19.5808 60.2915 20.562 60.0555 21.4222 60.2658C21.5869 60.0263 21.7534 59.7902 21.9647 59.6214C21.7126 59.3391 21.3155 59.1253 21.9335 58.9222C21.9544 59.128 21.9754 59.3337 21.9647 59.6214C22.6071 59.9301 21.8832 60.3501 21.9396 60.7972C22.0817 61.2638 22.614 61.3406 22.9688 61.6245C23.8732 61.4772 23.6312 60.8643 23.5215 60.259C23.9614 60.3285 24.3838 60.39 25.0593 60.4946C24.4836 59.9204 24.0603 59.4994 23.474 58.9135C24.7415 59.0241 25.3192 59.9182 26.1104 60.1738C26.4158 60.1153 26.6066 60.0745 26.8166 60.0365C26.8768 60.2994 26.9405 60.5605 27.0177 60.8968C27.3201 60.6665 27.602 60.4557 27.889 60.2379C28.4378 60.1627 28.6836 60.6912 29.1264 60.8243C29.5063 60.7479 29.888 60.6749 30.3842 60.5756C30.1493 60.2756 29.9428 60.0124 29.649 59.6352C30.4884 59.349 31.0027 58.4767 32.0489 58.679C31.9887 59.0233 31.9158 59.4438 31.805 60.0841C32.3338 59.5554 32.7155 59.1744 33.1091 58.7827C33.8085 58.8573 34.2225 59.4438 34.8853 59.7243C35.1467 59.5332 35.4354 59.3188 35.774 59.0649C36.1211 59.5091 36.1936 59.978 35.9868 60.5045C36.1476 60.5404 36.4124 60.6554 36.4481 60.606C36.8258 60.0927 37.5334 60.1412 37.9419 59.7026L37.8828 59.708ZM35.8735 35.202C35.6565 35.543 35.3841 35.5969 35.0598 35.3617C34.8373 35.684 34.6164 36.0011 34.3939 36.3234C34.7512 36.3458 35.105 36.3701 35.5581 36.3979C35.6972 36.493 35.9331 36.6451 36.1674 36.8023C36.5784 36.4101 37.054 36.3304 37.5923 36.4517C37.5545 37.0878 37.0523 37.4419 36.7994 37.9234C36.9689 37.959 37.1886 38.0807 37.3041 38.0149C37.7387 37.7749 38.1427 37.4775 38.5402 37.2095C38.531 36.9759 38.5219 36.7508 38.5013 36.2629C39.0137 36.6018 39.3283 36.7771 39.602 37.0001C39.7274 37.1026 39.7794 37.2918 39.8836 37.4793C39.6202 37.55 39.3689 37.6187 39.0206 37.713C39.1703 38.2189 39.3222 38.7454 39.4443 39.1662C39.2473 39.4532 39.1403 39.6099 39.0095 39.7967C39.2261 40.1455 39.4518 40.5113 39.6828 40.8871C38.8554 41.0629 38.5122 40.3346 37.9301 40.0979C37.6549 39.9884 37.3818 39.9993 37.2343 40.3294C37.3442 40.5442 37.4488 40.7574 37.5839 41.0195C36.8578 41.419 36.2355 41.7719 35.5987 42.0978C35.4365 42.1841 35.1769 42.2702 35.0434 42.2024C34.3059 41.8315 33.5847 42.1069 32.8556 42.226C32.8157 42.2342 32.7617 42.1328 32.7139 42.0845C32.5247 41.0053 33.8383 41.5685 34.0306 40.9066C34.1358 40.3474 34.1111 39.8183 33.5827 39.258C33.3341 39.2819 32.9796 39.3144 32.5624 39.3542C32.6412 39.078 32.7135 38.8227 32.7577 38.6647C33.4032 38.5381 33.9635 38.4264 34.6176 38.2995C34.3077 37.792 34.0874 37.4278 33.8724 37.0738C34.0575 36.8061 34.2222 36.5666 34.3888 36.3305C34.0593 36.302 33.7298 36.2735 33.3497 36.2415C33.3123 36.0879 33.2282 35.855 33.2153 35.6146C33.199 35.376 33.2574 35.1281 33.2846 34.888C33.0663 34.744 32.7825 34.6434 32.6572 34.4412C32.5569 34.2777 32.6513 33.9975 32.6578 33.7685C32.248 33.4227 31.6623 33.2789 31.4076 32.7421C31.7064 32.2968 32.7474 32.4976 32.4707 31.5951C32.0281 31.5704 31.5994 31.5469 31.1534 31.524C31.1098 31.1178 31.0825 30.8417 31.0599 30.6412C30.6555 30.6135 30.3069 30.5908 30.1046 30.4685C29.7391 30.7715 29.5195 31.166 29.3245 30.5584C29.533 30.5342 29.7415 30.51 29.9566 30.5647C30.4571 30.0077 30.6663 29.2196 31.3226 28.814C31.6535 28.9198 32.3652 28.9011 32.5776 28.8011C32.3451 28.6472 32.1109 28.4899 31.8766 28.3326C31.8382 27.9193 31.579 27.5237 31.7769 27.0887C32.2327 26.9719 32.433 27.3815 32.7627 27.5184C32.9852 27.1961 33.206 26.879 33.4285 26.5567C33.3321 26.4171 33.1217 26.2298 33.1585 26.1408C33.2921 25.8095 33.5374 25.9045 33.758 26.0777C33.8684 25.9192 33.9805 25.7554 34.1857 25.7416C33.8872 25.3887 33.49 25.1749 34.108 24.9718C34.129 25.1775 34.1499 25.3833 34.0909 25.5969C34.4326 25.6232 34.769 25.6481 35.1438 25.6785C35.1799 25.8545 35.2366 26.1106 35.299 26.4027C35.5667 26.5813 35.8899 26.7476 36.1499 26.9866C36.3446 27.1693 36.4049 27.4408 36.1601 27.6796C36.4045 27.9225 36.6714 27.8499 36.8733 27.647C37.3184 27.2106 37.4137 26.4745 38.12 26.2461C38.5462 26.4313 38.9826 26.6025 38.5994 27.1968C39.091 27.4384 39.436 27.9618 40.0625 27.9494C40.346 27.7334 40.6227 27.5211 40.9989 27.2298C40.9041 27.7921 40.8311 28.204 40.752 28.6626C41.5538 28.2142 42.29 27.8006 43.1332 27.3302C43.1257 28.0066 42.6694 28.2971 42.4797 28.7061C42.1918 28.7725 41.9109 28.8353 41.7219 28.8795C41.4613 29.1136 41.266 29.2956 41.1014 29.4439C40.6749 29.3412 40.397 28.9773 39.8396 29.3607C39.8152 29.6643 39.7841 30.0799 39.7529 30.4956C39.0353 30.2702 39.0353 30.2702 38.9104 29.994C38.8001 29.7534 38.6829 29.5165 38.5673 29.2744C38.3088 29.5291 38.2733 29.9947 37.8112 30.0498C37.6411 29.9798 37.3496 29.9311 37.3323 29.8405C37.2004 29.0519 36.5774 28.6634 36.0641 28.1731C35.9986 28.1082 36.1265 27.8493 36.167 27.6759C35.3658 27.1437 34.5662 26.6062 33.7649 26.074C33.6545 26.2326 33.5424 26.3963 33.432 26.5549C33.7634 26.6951 33.7891 26.9764 33.6508 27.2322C33.4635 27.5791 33.1948 27.8479 32.7661 27.5165C32.7272 27.6847 32.6744 27.8516 32.6529 28.0192C32.6173 28.2768 32.6061 28.5386 32.5845 28.7974C33.2406 29.0902 33.8591 28.6135 34.5722 28.6808C34.782 29.0333 35.4292 29.0098 35.474 29.5933L35.1462 30.3664C35.5512 30.7364 35.9403 31.0932 36.3471 31.4667C35.7141 31.9077 34.9338 31.5812 34.472 32.161C34.5684 32.3005 34.777 32.4845 34.742 32.5768C34.6084 32.9082 34.3631 32.8132 34.1425 32.64C33.8197 32.7988 33.4985 32.9523 33.0877 33.1536C32.9891 33.2929 32.8313 33.5287 32.6682 33.763C32.8865 33.907 33.1703 34.0076 33.2956 34.2098C33.3959 34.3734 33.3015 34.6535 33.295 34.8825C33.5292 35.0398 33.7635 35.1971 33.9043 35.287C34.3574 35.3148 34.7147 35.3372 35.0685 35.3615C35.2854 35.0204 35.5578 34.9665 35.7341 35.2978C36.0997 34.9948 36.3192 34.6004 36.5142 35.208C36.3057 35.2322 36.0972 35.2564 35.8822 35.2017L35.8735 35.202ZM12.3509 55.1254C11.9887 55.4266 11.7658 55.8229 11.5708 55.2152C11.7793 55.191 11.9878 55.1668 12.2028 55.2215C12.3133 55.063 12.4253 54.8993 12.5358 54.7407C12.2043 54.6005 12.1786 54.3192 12.3169 54.0634C12.5042 53.7164 12.7147 53.4049 12.247 53.1333C11.8677 53.552 11.7374 54.1723 11.1354 54.3972C10.9987 54.1403 10.862 53.8834 10.7216 53.6197C10.367 53.8519 10.0692 54.0494 9.77147 54.2469C9.73549 54.1793 9.70296 54.1098 9.63791 53.9709C9.87571 53.6275 10.1321 53.2524 10.3921 52.8842C11.0116 52.9666 11.6257 53.0475 12.2453 53.1385C12.405 52.906 12.5646 52.6736 12.726 52.4445C12.7508 52.5659 12.7773 52.6905 12.7985 52.8137C13.1809 52.5755 13.5615 52.3339 14.0145 52.0538C13.9339 52.8341 13.5803 53.3259 13.8419 53.8591C13.5679 53.9182 13.2956 53.9806 13.0285 54.036C12.8603 54.2774 12.7006 54.5098 12.541 54.7423C12.6995 54.8488 12.8633 54.9568 13.0149 55.067C13.435 54.8636 13.8154 54.9822 14.156 55.4226C13.6333 55.6965 13.378 55.2251 13.0218 55.0633C12.8048 55.4043 12.5324 55.4582 12.3561 55.1269L12.3509 55.1254ZM18.3876 14.9246C18.022 15.2276 17.8024 15.622 17.6075 15.0144C17.8159 14.9902 18.0244 14.966 18.2395 15.0207C18.3499 14.8622 18.462 14.6984 18.6672 14.6846C18.3687 14.3317 17.9715 14.1179 18.5895 13.9148C18.6105 14.1205 18.6314 14.3263 18.5724 14.5399C18.9138 14.7486 18.9636 15.017 18.4703 15.1798C19.2213 15.6593 19.7091 16.1211 19.9338 16.5655C19.22 16.5636 18.7193 16.2966 18.7203 15.3418C18.5618 15.2353 18.398 15.1272 18.3876 14.9246ZM20.9353 8.19847C20.5697 8.50148 20.3502 8.89593 20.1552 8.28831C20.3637 8.2641 20.5722 8.2399 20.6392 8.39076C21.0013 8.08959 21.2243 7.6933 21.4193 8.30092C21.2108 8.32512 21.0023 8.34933 20.9335 8.19509L20.9353 8.19847ZM20.2584 57.788C19.8429 57.9889 19.4714 57.8786 19.1438 57.4572C19.6784 57.0642 19.8874 57.6731 20.1087 57.8893C20.4743 57.5863 20.6938 57.1919 20.8888 57.7995C20.6803 57.8237 20.4718 57.8479 20.2568 57.7932L20.2584 57.788ZM21.3438 18.7821C21.4653 19.1686 22.0776 19.4456 21.9167 19.9086C21.4624 19.9118 21.0485 20.2406 20.554 19.9269C20.8275 19.534 21.0873 19.1572 22.0467 19.6703C22.2592 19.5789 22.4944 19.3886 22.6848 19.4218C22.9222 19.4603 23.1228 19.6875 23.029 20.2016C23.9381 19.1148 22.7198 19.0301 22.8756 18.4744C23.1479 18.4119 23.4167 18.3513 23.8432 18.2544C23.6655 17.7373 23.4879 17.2289 23.3155 16.722C23.8447 16.6183 24.2177 16.5455 24.6064 16.4688C24.4462 17.5821 24.2912 18.6883 24.1373 19.7636C23.9039 19.8574 23.7344 19.9216 23.3359 19.83C23.1234 19.9215 22.8881 20.1117 22.6978 20.0785C22.4604 20.0401 22.2598 19.8128 21.3385 18.7806L21.3438 18.7821ZM42.8496 25.117C43.2908 25.3637 43.1622 25.6794 42.928 26.0296C42.3037 26.2708 41.6474 26.7762 41.0856 25.8953C41.049 25.4854 41.4021 25.2671 41.5604 24.9573C41.2084 24.9364 40.8564 24.9156 40.4399 24.89C40.5157 24.6414 40.5931 24.3877 40.6806 24.1112C41.1641 23.9797 41.6129 23.858 41.9646 23.7619C42.4008 24.124 42.7109 24.3406 42.9542 24.6146C43.0234 24.6949 42.8954 24.9452 42.8567 25.1219L42.8496 25.117ZM40.1202 33.124C40.2166 33.2636 40.4252 33.4475 40.3903 33.5399C40.2567 33.8712 40.0113 33.7762 39.7908 33.603C39.4379 33.9383 39.8342 34.3086 39.7165 34.6532C39.3401 34.7278 38.9583 34.8008 38.5298 34.8857C38.485 34.5104 38.4403 34.1352 38.3737 33.6024C38.6349 33.2031 39.1766 32.7153 38.8815 31.9527C38.8341 31.8305 39.1844 31.5486 39.343 31.3558C40.1485 31.7657 40.5729 32.1139 40.6161 32.4003C40.4514 32.6398 40.2832 32.8811 40.1184 33.1206L40.1202 33.124ZM28.3304 21.7526C27.9577 21.0357 28.0865 20.7286 28.7762 20.6435C29.0848 20.9738 29.6754 21.0021 29.7701 21.546C29.736 22.0976 28.919 22.3676 29.2244 23.0163C29.4936 22.9814 29.7576 22.9451 30.2248 22.8829C29.9882 23.2951 29.826 23.581 29.613 23.9546C28.8029 23.4141 28.1109 22.9539 27.5209 22.5608C27.0902 22.6166 26.8122 22.6517 26.496 22.6898C26.3358 22.4802 26.1755 22.2705 26.0294 22.0793C26.4023 21.8982 26.72 21.7464 27.136 21.7376C26.8374 21.3847 26.4403 21.1709 27.0583 20.9678C27.0792 21.1735 27.1002 21.3793 27.0412 21.5929C27.2596 21.7369 27.4584 21.9608 27.6976 22.0026C27.8879 22.0358 28.1231 21.8456 28.3357 21.7541L28.3304 21.7526ZM152.959 23.497C152.659 23.1406 152.263 22.9302 152.881 22.7271C152.902 22.9329 152.923 23.1386 152.838 23.4529C153.217 23.4332 153.572 23.4179 153.956 23.3998C153.928 24.4691 154.612 25.2719 155.054 26.3031C155.431 26.5536 155.893 26.8633 156.31 27.14C156.408 27.6993 156.491 28.1713 156.571 28.6366C156.9 28.856 157.217 29.069 157.374 29.1721C157.721 29.8073 157.972 30.272 158.222 30.7333C158.16 31.0399 157.687 31.2914 158.083 31.6618C158.553 31.5462 159.035 31.4027 159.299 31.9908C159.207 32.3345 159.116 32.6782 159.06 32.89C159.347 33.3878 159.57 33.7726 159.819 34.1995C159.984 34.1768 160.259 34.1349 160.689 34.0705C160.716 34.6287 160.742 35.2007 160.766 35.6868C161.368 36.0863 161.838 36.4043 162.277 36.6958C162.375 37.2207 162.461 37.6909 162.549 38.1644C163.619 38.5191 163.474 40.0103 164.607 40.3095C164.562 41.1058 165.459 41.4696 165.457 42.2215C165.729 42.1934 165.981 42.1678 166.233 42.1421C166.33 42.6722 166.418 43.1457 166.514 43.65C166.779 43.617 167.043 43.5806 167.313 43.5458C167.374 43.8035 167.438 44.0732 167.504 44.3548C167.814 44.5629 168.134 44.774 168.43 44.9723C168.5 45.2693 168.565 45.5423 168.635 45.8308C168.95 46.0404 169.265 46.25 169.549 46.4418C169.736 46.9757 169.593 47.5637 169.998 47.9853C170.207 47.9439 170.399 47.9065 170.576 47.873C170.888 48.5094 171.197 49.139 171.554 49.8685C171.933 50.1224 172.412 50.4401 173.173 50.9461C173.282 51.5515 173.434 52.3859 173.605 53.3401C173.976 53.6201 174.25 54.0221 174.429 54.546C174.693 54.5096 174.96 54.4713 175.241 54.4344C175.734 54.8273 176.447 54.9857 176.726 55.618C176.775 55.8349 176.82 56.0192 176.863 56.2173C177.171 56.422 177.489 56.635 177.777 56.8283C177.854 57.113 177.919 57.3689 177.979 57.5974C178.271 57.5721 178.523 57.5464 178.764 57.5263C178.866 58.0665 178.954 58.5401 179.04 59.0103C179.402 59.2906 179.76 59.5727 180.025 59.7789C180.088 60.1226 180.123 60.3124 180.161 60.5003C180.466 60.841 181.066 60.8691 181.176 61.4176C181.079 61.7598 180.988 62.0949 180.894 62.418C181.922 63.1026 182.877 63.7398 183.888 64.4163C183.778 65.1425 184.37 65.8297 184.045 66.5838C183.357 67.1884 182.643 67.0352 181.927 66.8046C181.638 67.019 181.349 67.2335 181.042 67.4623C180.963 67.1312 180.901 66.8649 180.841 66.602C180.344 66.7012 179.867 66.7946 179.387 66.8899C179.051 66.7997 178.71 66.7079 178.385 66.6208C178.227 66.848 178.116 67.0065 178.013 67.1614C177.905 67.1839 177.8 67.2356 177.718 67.2143C177.455 67.1457 177.203 67.0458 176.947 66.9563C176.657 67.1674 176.368 67.3818 176.093 67.5803C175.876 67.4568 175.715 67.3607 175.31 67.1248C174.685 67.323 173.854 67.5832 173.419 67.7233C172.746 67.5481 172.486 67.4829 172.3 67.434C172.037 67.6872 171.841 67.8778 171.67 68.0384C171.334 67.9224 171.078 67.8329 170.663 67.6937C169.763 67.8994 168.721 68.1374 167.734 68.3632C167.508 68.2366 167.346 68.1405 167.182 68.0497C166.797 68.1246 166.417 68.201 166.025 68.2795C165.918 68.4362 165.808 68.5947 165.692 68.7603C164.741 68.9454 163.787 69.1322 162.833 69.3191C162.669 69.2111 162.511 69.1046 162.354 69.0014C161.125 69.7033 160.917 69.7447 159.531 69.5624C159.567 69.8296 159.605 70.1001 159.637 70.3691C158.857 70.5244 158.091 70.6756 157.325 70.8235C156.919 71.5081 156.176 71.6431 155.591 71.4598C154.679 71.1687 153.923 71.5622 153.106 71.7238C152.862 72.2705 152.324 72.2094 151.872 72.3072C151.11 72.4738 150.341 72.7095 149.572 72.737C148.748 72.7682 148.348 73.6056 147.517 73.6008C146.659 73.5935 146.084 74.3853 145.183 74.5222C144.442 74.6348 143.776 75.2885 143.076 75.7043C142.82 75.6148 142.566 75.5287 142.192 75.3985C141.952 75.9639 141.4 76.1407 140.827 76.129C140.178 76.1147 139.877 76.6735 139.357 76.8854C138.724 77.1441 138.273 76.5949 137.699 76.757C137.597 76.9066 137.487 77.0652 137.368 77.2326C137.404 77.4912 137.442 77.7703 137.478 78.0461C136.808 78.1769 136.138 78.3078 135.418 78.4524C135.248 78.2826 135.061 78.0963 134.921 77.9582C134.974 77.2923 135.67 77.0126 135.524 76.3139C135.42 75.8185 135.633 75.2539 135.729 74.5265C136.379 73.586 137.155 72.4658 137.92 71.3563C137.878 71.0618 137.835 70.7811 137.795 70.49C138.009 70.1766 138.23 69.8595 138.437 69.5583C138.397 69.2586 138.359 68.9795 138.318 68.685C138.645 68.2112 138.977 67.7356 139.187 67.424C139.28 66.5246 139.351 65.81 139.424 65.0901C139.589 64.8506 139.76 64.6161 139.918 64.3717C140.067 64.1361 140.199 63.8926 140.167 63.9487C140.256 63.2679 140.302 62.9137 140.343 62.5837C140.739 62.4861 141.016 62.4166 141.293 62.3471C141.259 62.0833 141.223 61.8075 141.182 61.5216C141.397 61.2116 141.617 60.8911 141.822 60.5952C141.78 60.2921 141.746 60.0111 141.706 59.72C143.033 57.8037 144.356 55.8893 145.667 53.9942C145.521 53.2043 145.381 52.4503 145.287 51.9322C145.383 51.2649 145.447 50.8189 145.542 50.1568C145.852 49.632 146.441 48.9929 146.727 48.407C146.667 47.9789 146.645 47.7956 146.623 47.6295C146.886 47.5587 147.146 47.4897 147.313 47.4446C147.393 46.6643 147.468 45.9478 147.545 45.2348C147.823 44.8349 148.097 44.4335 148.402 43.9931C148.377 43.7548 148.348 43.4754 148.315 43.1462L148.943 42.2391C148.857 41.6777 148.771 41.1249 148.683 40.586C148.95 40.5134 149.208 40.4411 149.44 40.3782C149.412 40.0592 149.387 39.7865 149.348 39.3732C150.273 39.1718 149.756 38.3582 149.904 37.98C150.375 37.7164 150.69 37.5355 150.944 37.3963C150.979 36.5057 150.662 35.8763 150.246 35.295C150.504 35.2227 150.759 35.1522 150.906 35.1129C151.065 33.9222 151.215 32.8145 151.364 31.6895C151.817 31.8085 152.167 31.9 152.615 32.0174C152.333 31.5383 152.112 31.1655 151.962 30.9159C152.058 30.3226 152.681 30.0953 152.516 29.5279C152.321 29.328 152.135 29.1364 152.023 29.0266C152.301 27.0699 152.567 25.215 152.94 23.5028L152.959 23.497ZM35.7107 33.3322C36.0164 33.291 36.2978 33.254 36.4593 33.2331C36.7369 32.9726 36.927 32.7891 37.3793 32.3662C37.2416 33.0641 37.1662 33.4382 37.0908 33.8123C37.3007 34.0737 37.5088 34.3316 37.7169 34.5896C36.8952 34.3849 36.0793 34.2162 35.7142 33.3304L35.7107 33.3322ZM19.2029 21.8388C19.4099 21.7286 19.5354 21.6401 19.6704 21.5943C19.9353 21.5097 20.2059 21.4525 20.4746 21.3832C20.5982 21.9898 20.3791 22.3103 19.7677 22.3927C19.6013 22.2297 19.4206 22.0483 19.2063 21.837L19.2029 21.8388ZM27.9063 36.5618C28.671 36.4846 29.1518 36.8056 29.361 37.5315C28.5963 37.6087 28.1155 37.2877 27.9063 36.5618ZM42.3463 38.9621C42.1393 39.0723 42.0137 39.1608 41.8787 39.2066C41.6138 39.2912 41.3432 39.3485 41.0746 39.4177C40.951 38.8111 41.17 38.4907 41.7814 38.4082C41.9479 38.5712 42.1285 38.7527 42.3428 38.964L42.3463 38.9621ZM30.0132 20.1977C29.9384 20.2982 29.8651 20.3936 29.7903 20.4942C29.5568 20.3799 29.3165 20.2778 29.0949 20.1442C29.0421 20.1116 29.0109 19.9199 29.0469 19.8878C29.1567 19.7946 29.3581 19.6571 29.4284 19.6977C29.6464 19.8246 29.8205 20.0269 30.0132 20.1977ZM29.5214 24.5976C29.5325 25.2424 29.461 25.6405 28.8022 25.4923C28.7369 25.0369 28.9379 24.7824 29.5214 24.5976ZM31.9081 24.1906C31.897 23.5459 31.9685 23.1478 32.6273 23.296C32.6926 23.7514 32.4916 24.0059 31.9081 24.1906ZM29.646 27.8931C30.2985 27.8712 30.6999 27.9351 30.5388 28.5891C30.077 28.6614 29.823 28.4669 29.646 27.8931ZM34.0837 33.8772C34.1586 33.7766 34.2318 33.6812 34.3067 33.5807C34.5402 33.695 34.7804 33.797 35.0021 33.9306C35.0548 33.9633 35.086 34.1549 35.05 34.1871C34.9402 34.2802 34.7389 34.4177 34.6685 34.3771C34.4505 34.2502 34.2764 34.0479 34.0837 33.8772ZM37.0899 30.6246C37.2562 30.8787 38.0462 30.558 37.772 31.3156C37.3189 31.3876 37.0649 31.1931 37.0899 30.6246ZM42.0123 29.5664C42.1127 29.6388 42.208 29.7095 42.3084 29.7819C42.1888 30.0147 42.0815 30.254 41.9426 30.4754C41.9087 30.5282 41.7143 30.5622 41.6824 30.5271C41.59 30.4201 41.4543 30.2234 41.4966 30.1532C41.6287 29.9354 41.8363 29.7599 42.0123 29.5664ZM32.7213 44.3362C32.6004 43.7846 32.8194 43.4641 33.3871 43.3745C33.5081 43.9261 33.289 44.2466 32.7213 44.3362ZM35.6123 58.0622C35.6871 57.9616 35.7604 57.8662 35.8352 57.7657C36.0687 57.88 36.309 57.982 36.5306 58.1156C36.5834 58.1483 36.6146 58.3399 36.5786 58.3721C36.4687 58.4652 36.2674 58.6027 36.1971 58.5621C35.979 58.4352 35.805 58.2329 35.6123 58.0622ZM5.44523 13.1587C6.09768 13.1368 6.49918 13.2007 6.33808 13.8547C5.87626 13.927 5.62222 13.7325 5.44523 13.1587ZM151.616 6.37465C151.599 6.28405 151.541 6.1501 151.575 6.11454C151.678 6.01647 151.822 5.96176 151.949 5.89382C151.966 5.98442 152.024 6.11838 151.99 6.15394C151.887 6.25201 151.744 6.30671 151.616 6.37465ZM154.194 5.03742C154.087 5.05995 153.995 5.07852 153.906 5.09525C153.928 4.95345 153.927 4.80209 153.977 4.67138C153.997 4.62598 154.147 4.63299 154.239 4.61442C154.226 4.75594 154.209 4.89928 154.194 5.03742ZM152.489 8.81235C152.613 8.74625 152.742 8.6817 152.872 8.61714C152.889 8.70773 152.947 8.84169 152.913 8.87725C152.81 8.97532 152.666 9.03003 152.539 9.09797L152.485 8.81418L152.489 8.81235ZM153.672 22.0331C153.548 22.0992 153.418 22.1638 153.289 22.2283C153.271 22.1377 153.213 22.0038 153.248 21.9682C153.352 21.8735 153.494 21.8154 153.622 21.7475C153.639 21.8381 153.654 21.9253 153.675 22.0313L153.672 22.0331ZM4.37108 11.7394C4.46302 11.7208 4.59952 11.6612 4.6349 11.6944C4.73238 11.7943 4.78528 11.9353 4.85185 12.0604C4.75989 12.079 4.62339 12.1386 4.58801 12.1054C4.49055 12.0054 4.43764 11.8644 4.37108 11.7394ZM7.39807 9.89846C7.38085 9.80786 7.32284 9.6739 7.35704 9.63835C7.45981 9.54028 7.60335 9.48557 7.73101 9.41763C7.74823 9.50823 7.80625 9.64219 7.77205 9.67774C7.66929 9.77581 7.52573 9.83053 7.39807 9.89846ZM11.5525 11.8647C11.5315 11.7587 11.5143 11.6681 11.4989 11.5809C11.642 11.6002 11.7951 11.5968 11.9265 11.644C11.9721 11.6631 11.9624 11.8114 11.9797 11.902C11.8367 11.8913 11.692 11.8772 11.5525 11.8647ZM17.0226 14.1068C17.0016 14.0008 16.9844 13.9102 16.9689 13.823C17.112 13.8423 17.2652 13.8388 17.3966 13.886C17.4421 13.9052 17.4325 14.0534 17.4497 14.144C17.3068 14.1333 17.1621 14.1193 17.0226 14.1068ZM22.7307 8.5356C22.8227 8.51703 22.9592 8.45739 22.9946 8.4906C23.092 8.59055 23.1449 8.73157 23.2115 8.85664C23.1196 8.87521 22.9831 8.93484 22.9477 8.90162C22.8502 8.80167 22.7973 8.66067 22.7307 8.5356ZM20.3469 13.8644C20.2227 13.9305 20.0933 13.9951 19.9638 14.0596C19.9466 13.969 19.8886 13.8351 19.9228 13.7995C20.0256 13.7014 20.1691 13.6467 20.2967 13.5788C20.314 13.6694 20.3294 13.7566 20.3504 13.8626L20.3469 13.8644ZM20.2366 15.5455C20.2156 15.4395 20.1984 15.3489 20.183 15.2617C20.326 15.281 20.4792 15.2775 20.6106 15.3247C20.6561 15.3439 20.6465 15.4921 20.6637 15.5827C20.5208 15.572 20.3761 15.558 20.2366 15.5455ZM24.0417 15.6242C23.9175 15.6903 23.7881 15.7548 23.6586 15.8194C23.6414 15.7288 23.5834 15.5948 23.6176 15.5593C23.7203 15.4612 23.8639 15.4065 23.9915 15.3385C24.0088 15.4291 24.0242 15.5164 24.0452 15.6223L24.0417 15.6242ZM23.347 20.9823C23.4713 20.9162 23.6007 20.8516 23.7301 20.7871C23.7474 20.8777 23.8054 21.0116 23.7712 21.0472C23.6684 21.1453 23.5249 21.2 23.3972 21.2679C23.38 21.1773 23.3646 21.0901 23.3436 20.9841L23.347 20.9823ZM36.391 7.91528C36.2835 7.93782 36.1915 7.95639 36.103 7.97312C36.125 7.83132 36.1241 7.67995 36.1741 7.54925C36.1942 7.50384 36.344 7.51085 36.4342 7.48891L36.3892 7.9119L36.391 7.91528ZM31.248 20.4298C31.1238 20.4959 30.9943 20.5604 30.8649 20.625C30.8477 20.5344 30.7896 20.4004 30.8238 20.3649C30.9266 20.2668 31.0702 20.2121 31.1978 20.1441C31.215 20.2347 31.2305 20.322 31.2514 20.4279L31.248 20.4298ZM28.5914 24.2727C28.4672 24.3388 28.3378 24.4034 28.2083 24.468C28.1911 24.3774 28.1331 24.2434 28.1673 24.2078C28.27 24.1098 28.4136 24.0551 28.5412 23.9871C28.5585 24.0777 28.5739 24.1649 28.5949 24.2709L28.5914 24.2727ZM29.1844 27.4751C29.0602 27.5412 28.9308 27.6057 28.8013 27.6703C28.7841 27.5797 28.7261 27.4457 28.7603 27.4102C28.8631 27.3121 29.0066 27.2574 29.1343 27.1894L29.1879 27.4732L29.1844 27.4751ZM30.9935 25.8746C30.8693 25.9407 30.7399 26.0053 30.607 26.0717C30.5897 25.9811 30.5317 25.8471 30.5659 25.8115C30.6687 25.7135 30.8122 25.6588 30.9399 25.5908C30.9571 25.6814 30.9725 25.7686 30.9935 25.8746ZM30.2325 26.9737C30.125 26.9962 30.033 27.0148 29.9445 27.0315C29.9665 26.8897 29.9656 26.7383 30.0156 26.6076C30.0357 26.5622 30.1855 26.5692 30.2775 26.5507C30.2642 26.6922 30.2476 26.8355 30.2325 26.9737ZM17.5358 49.3946C17.4282 49.4171 17.3363 49.4357 17.2478 49.4524C17.2697 49.3106 17.2688 49.1593 17.3188 49.0286C17.3389 48.9832 17.4888 48.9902 17.5807 48.9716C17.5675 49.1131 17.5508 49.2565 17.5358 49.3946ZM11.482 57.6439C11.5468 57.7656 11.6099 57.8925 11.673 58.0194C11.5811 58.038 11.4446 58.0976 11.4092 58.0644C11.3117 57.9645 11.2588 57.8234 11.1922 57.6984C11.2842 57.6798 11.3727 57.6631 11.4802 57.6405L11.482 57.6439ZM29.3017 32.67C29.4259 32.6039 29.5554 32.5394 29.6848 32.4748C29.702 32.5654 29.76 32.6994 29.7258 32.7349C29.6231 32.833 29.4795 32.8877 29.3519 32.9556C29.3346 32.865 29.3192 32.7778 29.2982 32.6719L29.3017 32.67ZM15.1492 55.6749C15.0844 55.5532 15.0213 55.4263 14.9582 55.2994C15.0502 55.2808 15.1866 55.2212 15.222 55.2544C15.3195 55.3543 15.3724 55.4953 15.439 55.6204L15.151 55.6783L15.1492 55.6749ZM29.8662 38.6637C29.7586 38.6862 29.6667 38.7048 29.5782 38.7215C29.6001 38.5797 29.5992 38.4284 29.6492 38.2977C29.6693 38.2523 29.8192 38.2593 29.9111 38.2407C29.8979 38.3822 29.8812 38.5256 29.8662 38.6637ZM29.7933 42.8277C29.6858 42.8502 29.5938 42.8688 29.5053 42.8855C29.5273 42.7437 29.5264 42.5923 29.5764 42.4616C29.5965 42.4162 29.7463 42.4233 29.8383 42.4047C29.825 42.5462 29.8083 42.6896 29.7933 42.8277ZM28.7893 43.5616C28.9135 43.4955 29.0429 43.4309 29.1758 43.3645C29.1931 43.4551 29.2511 43.5891 29.2169 43.6246C29.1141 43.7227 28.9706 43.7774 28.8429 43.8453C28.8257 43.7547 28.8102 43.6675 28.7893 43.5616ZM25.6683 49.4519C25.6511 49.3613 25.5931 49.2273 25.6273 49.1918C25.73 49.0937 25.8736 49.039 26.0012 48.9711C26.0185 49.0617 26.0765 49.1956 26.0423 49.2312C25.9395 49.3292 25.796 49.3839 25.6683 49.4519ZM43.9343 25.9322C43.9991 26.0539 44.0622 26.1808 44.1253 26.3077C44.0333 26.3263 43.8968 26.3859 43.8614 26.3527C43.764 26.2527 43.7111 26.1117 43.6445 25.9866L43.9325 25.9288L43.9343 25.9322ZM30.3491 48.1146C30.2415 48.1371 30.1496 48.1557 30.0611 48.1724C30.083 48.0306 30.0822 47.8793 30.1321 47.7486C30.1523 47.7031 30.3021 47.7102 30.394 47.6916C30.3808 47.8331 30.3641 47.9765 30.3491 48.1146ZM22.7002 58.4578C22.8244 58.3917 22.9538 58.3271 23.0833 58.2626C23.1005 58.3532 23.1585 58.4871 23.1243 58.5227C23.0216 58.6208 22.878 58.6755 22.7503 58.7434C22.7331 58.6528 22.7177 58.5656 22.6967 58.4596L22.7002 58.4578ZM41.8673 32.9793C41.9321 33.101 41.9952 33.2279 42.0583 33.3548C41.9663 33.3734 41.8298 33.433 41.7945 33.3998C41.697 33.2999 41.6441 33.1589 41.5775 33.0338C41.6695 33.0152 41.758 32.9985 41.8655 32.9759L41.8673 32.9793ZM39.9479 36.2608C39.8403 36.2834 39.7484 36.3019 39.6599 36.3187C39.6818 36.1769 39.681 36.0255 39.7309 35.8948C39.7511 35.8494 39.9009 35.8564 39.9928 35.8378C39.9796 35.9793 39.9629 36.1227 39.9479 36.2608ZM33.7522 45.3665C33.8441 45.3479 33.9806 45.2883 34.016 45.3215C34.1135 45.4214 34.1664 45.5625 34.233 45.6875C34.141 45.7061 34.0045 45.7657 33.9691 45.7325C33.8717 45.6326 33.8188 45.4915 33.7522 45.3665ZM25.261 58.6608C25.3529 58.6423 25.4894 58.5826 25.5248 58.6159C25.6188 58.7176 25.6752 58.8568 25.7418 58.9819C25.6498 59.0005 25.5133 59.0601 25.4779 59.0269C25.3805 58.9269 25.3275 58.7859 25.261 58.6608ZM39.069 42.2462C39.0518 42.1556 38.9938 42.0216 39.028 41.9861C39.1308 41.888 39.2743 41.8333 39.402 41.7654C39.4192 41.856 39.4772 41.9899 39.443 42.0255C39.3402 42.1235 39.1967 42.1782 39.069 42.2462ZM40.1928 41.4876C40.1718 41.3817 40.1546 41.2911 40.1391 41.2038C40.2822 41.2231 40.4354 41.2197 40.5667 41.2669C40.6123 41.286 40.6027 41.4343 40.6234 41.5231C40.4804 41.5124 40.3357 41.4983 40.1962 41.4858L40.1928 41.4876ZM28.4002 59.7012C28.383 59.6106 28.325 59.4766 28.3592 59.4411C28.462 59.343 28.6055 59.2883 28.7332 59.2204C28.7504 59.311 28.8084 59.4449 28.7742 59.4805C28.6715 59.5786 28.5279 59.6333 28.4002 59.7012ZM55.9808 28.9513C55.9635 28.8607 55.9055 28.7267 55.9397 28.6912C56.0425 28.5931 56.186 28.5384 56.3137 28.4704C56.3309 28.561 56.3889 28.695 56.3547 28.7306C56.252 28.8286 56.1084 28.8833 55.9808 28.9513ZM66.1974 53.9129C66.1326 53.7913 66.0695 53.6643 66.0064 53.5374C66.0983 53.5189 66.2348 53.4592 66.2702 53.4924C66.3642 53.5942 66.4206 53.7334 66.4872 53.8585C66.3952 53.8771 66.3067 53.8938 66.1992 53.9163L66.1974 53.9129ZM69.5322 54.3807C69.408 54.4468 69.2785 54.5114 69.1491 54.576C69.1319 54.4854 69.0739 54.3514 69.1081 54.3158C69.2108 54.2178 69.3544 54.1631 69.482 54.0951C69.4993 54.1857 69.5147 54.273 69.5357 54.3789L69.5322 54.3807ZM94.6205 53.4129C94.6414 53.5189 94.6587 53.6095 94.6741 53.6967C94.531 53.6774 94.3779 53.6808 94.2465 53.6336C94.2009 53.6145 94.2105 53.4662 94.1933 53.3756C94.3362 53.3863 94.481 53.4004 94.6205 53.4129Z" fill="#C0B8F2"/>
</svg>
