<svg width="337" height="77" viewBox="0 0 337 77" fill="none" xmlns="http://www.w3.org/2000/svg">
    <path
        d="M115.823 58.2332C112.745 58.2499 110.204 60.465 107.482 61.6248C105.167 62.7261 102.692 62.7596 100.77 64.4219C94.577 66.2852 89.6277 68.7808 84.3434 71.984C81.584 72.7461 78.1463 79.4248 75.9438 75.8489C74.1475 71.4397 72.2339 66.9384 71.2499 62.2111C81.9734 52.1366 94.2671 45.4872 107.612 40.3244C120.462 34.0519 133.816 29.4795 147.993 26.1171C165.291 21.1846 107.683 30.8445 106.331 32.5822C73.7665 38.9468 42.0189 47.5767 11.473 59.0706C5.50202 62.881 4.67295 48.1796 0 45.504C4.65201 40.8352 11.1967 39.353 17.1886 37.0249C26.2958 32.779 36.2112 29.7014 46.1977 27.344C71.9953 18.8146 98.5884 11.8345 126.048 6.94378C146.268 3.50188 168.641 -2.03364 190.029 0.76343C192.232 0.302834 192.114 1.68462 193.253 3.01616C193.634 20.2257 200.841 12.2783 213.658 11.2022C226.261 8.32976 349.022 -12.8702 335.979 12.6007C338.395 16.4697 335.586 21.0548 336.9 25.1164C336.13 25.5267 336.13 25.5351 334.652 25.5225C332.081 23.0479 326.805 26.2679 324.23 23.7681C305.982 25.2504 286.08 23.8309 267.878 27.3021C238.748 28.8974 210.982 34.1147 183.543 40.4584C160.208 44.4446 137.299 49.3353 115.831 58.2416L115.823 58.2332ZM123.821 36.1288C124.553 36.1623 125.856 36.3088 125.697 35.2453C126.429 35.2788 127.731 35.4253 127.572 34.3618C128.393 34.7219 133.242 33.2898 131.873 32.6785C130.868 32.4356 130.579 32.5948 130.386 33.4783C129.482 33.5997 127.464 32.9549 127.568 34.3618C125.877 33.9305 125.889 35.4672 124.424 35.2662C123.62 35.7017 123.745 36.3884 122.502 36.1413C121.049 36.9872 124.005 37.6111 123.812 36.133L123.821 36.1288ZM57.1683 42.3175C60.0951 42.8786 60.7609 40.8059 57.4697 41.5973C57.0133 43.0335 55.2756 41.6141 54.4466 42.8409C54.9281 43.4481 57.4572 43.5067 57.1683 42.3175ZM63.738 40.5505C101.164 32.6743 137.433 22.5412 176.684 19.3087C177.388 19.1161 177.325 18.354 176.492 18.4419C167.74 17.9185 160.036 20.1252 151.532 20.2215C140.021 23.4457 126.928 23.3912 115.731 27.3272C96.8925 30.1913 78.1756 35.6849 61.0163 41.0781C61.4476 41.6978 64.0646 41.7355 63.738 40.5547V40.5505ZM321.935 6.06446C320.964 6.29058 316.429 5.35682 317.681 6.93541C319.971 6.53762 324.083 7.82729 325.511 6.37851C324.678 5.64993 323.049 6.2487 321.935 6.06446ZM288.421 7.09452C287.834 7.37088 288.433 7.86497 288.731 7.68074C289.338 7.4295 288.722 6.91866 288.421 7.09452ZM118.972 38.1931C118.679 37.6404 118.155 38.2057 118.352 38.4862C118.616 39.0557 119.16 38.4778 118.972 38.1931ZM133.991 32.0044C133.698 31.4516 133.175 32.0169 133.372 32.2975C133.635 32.8669 134.18 32.2891 133.991 32.0044Z"
        fill="#5541D9" fill-opacity="0.24" />
</svg>