<svg width="201" height="155" viewBox="0 0 201 155" fill="none" xmlns="http://www.w3.org/2000/svg">
<g clip-path="url(#clip0_0_965)">
<path d="M62.5614 -6.07893e-05C67.3411 0.412478 71.937 0.389559 76.349 1.29485C81.7491 2.40642 87.2182 3.4836 92.2851 5.86716C95.1805 7.23083 98.2598 8.23926 101.075 9.7519C104.487 11.5854 107.796 13.6481 110.99 15.8368C115.264 18.7705 119.297 22.0249 122.779 25.8868C124.364 27.6515 125.823 29.5423 127.248 31.4446C127.869 32.2696 128.478 32.8312 129.558 32.9343C131.005 33.0718 131.155 33.5646 130.684 34.9855C130.477 35.6387 130.5 36.4867 130.741 37.1399C131.901 40.4058 133.418 43.5801 134.314 46.9148C134.992 49.4358 135.073 52.1403 135.176 54.7645C135.256 57.1251 134.981 59.4972 134.9 61.8693C134.751 66.5218 133.142 70.8306 131.626 75.1278C129.213 82.0035 125.927 88.4666 121.986 94.6088C118.792 99.5937 115.276 104.315 111.289 108.704C109.106 111.11 107.095 113.666 104.935 116.084C103.993 117.138 102.913 118.066 101.822 118.983C97.1338 122.937 92.4919 126.936 87.7122 130.763C85.2535 132.734 82.5764 134.442 79.8993 136.126C76.3375 138.361 72.7872 140.664 69.0301 142.544C64.2963 144.927 59.3903 147.013 54.4957 149.075C51.6807 150.267 48.7853 151.333 45.8325 152.147C41.6043 153.327 37.3416 154.312 32.9411 154.794C28.4371 155.286 24.0711 154.725 19.705 154.014C16.3845 153.476 13.2363 152.318 10.5248 150.221C8.61749 148.743 7.74428 146.6 7.00894 144.434C5.89444 141.111 5.48081 137.731 5.95189 134.19C6.77915 127.91 9.62858 122.49 13.2019 117.493C17.6369 111.294 22.4395 105.335 27.2652 99.4103C29.3678 96.832 31.8955 94.5859 34.2969 92.2597C36.4224 90.1855 38.6629 88.226 40.8 86.1747C41.1562 85.8424 41.4779 85.2351 41.4319 84.7996C41.3975 84.4787 40.7426 84.0891 40.3174 83.986C33.6075 82.5421 27.4605 79.6658 21.5433 76.3426C14.3968 72.3318 8.4911 66.9344 4.26291 59.8181C2.35563 56.598 0.896443 53.2633 0.643671 49.4702C0.528774 47.7513 -0.114646 46.0209 0.000250324 44.3364C0.33345 39.2943 1.59731 34.5615 4.29738 30.1267C8.1579 23.8011 13.0755 18.5069 19.0386 14.2096C22.1753 11.9521 25.6681 10.1415 29.1495 8.42261C32.9641 6.54326 36.882 4.85873 40.8804 3.41484C43.4426 2.48663 46.2001 2.06263 48.9002 1.60426C51.2441 1.20318 53.6339 1.08858 56.0008 0.802098C58.2528 0.538532 60.5048 0.217668 62.5384 -0.0458984L62.5614 -6.07893e-05ZM132.752 56.3803C132.752 55.1426 132.947 53.8706 132.717 52.6789C131.89 48.4274 131.396 44.0843 129.374 40.1423C128.88 39.1682 128.34 38.1942 127.662 37.3576C127.375 37.0024 126.536 36.7274 126.134 36.8993C123.261 38.091 120.435 39.4089 117.597 40.6923C114.633 42.0331 111.68 43.3853 108.715 44.726C106.636 45.6657 104.487 46.4679 102.465 47.5221C98.2483 49.7109 94.089 52.0142 89.9298 54.2946C81.841 58.7294 74.0396 63.6226 66.5138 68.9512C61.9525 72.1828 57.5634 75.6435 53.0939 79.0011C52.1058 79.7345 51.0488 80.3992 50.1641 81.2243C49.716 81.6483 49.176 82.6108 49.3598 82.9202C49.6585 83.4245 50.4973 83.7339 51.1637 83.8599C52.7378 84.1464 54.3693 84.1464 55.9319 84.4787C62.1018 85.7851 68.3177 86.083 74.5221 85.0059C78.8997 84.2495 83.2083 83.138 87.5399 82.141C89.137 81.7743 90.3434 81.9691 90.4123 82.8286C90.5272 84.2152 89.3783 84.6048 88.3787 84.8454C85.1271 85.6476 81.887 86.5529 78.578 86.9998C70.9259 88.0541 63.2163 88.0999 55.5412 87.1259C52.8297 86.7821 50.1526 86.083 47.4755 85.5445C46.2806 85.3038 45.2925 85.4757 44.3388 86.4039C40.6277 90.0022 36.6867 93.3827 33.1249 97.107C29.0461 101.37 25.1971 105.862 21.4055 110.377C19.4637 112.68 17.8781 115.27 16.0973 117.711C12.4091 122.753 9.32985 128.07 8.54855 134.396C8.37621 135.828 8.29578 137.307 8.44514 138.728C8.62898 140.401 9.12303 142.039 9.45623 143.701C10.0192 146.463 11.7082 148.399 14.1785 149.568C15.6492 150.267 17.2577 150.68 18.8203 151.15C22.2212 152.169 25.7486 152.903 29.2414 152.616C33.7454 152.25 38.3068 151.7 42.6384 150.496C48.3142 148.915 53.8063 146.669 59.3328 144.618C61.4699 143.827 63.584 142.887 65.6062 141.822C68.5935 140.24 71.5233 138.533 74.4072 136.768C77.7622 134.705 81.1861 132.711 84.3113 130.351C88.7233 127.016 92.8251 123.269 97.1912 119.854C101.523 116.462 105.119 112.382 108.623 108.223C111.335 105.003 114.035 101.76 116.448 98.3102C119.251 94.2994 122.009 90.2084 124.249 85.8882C126.857 80.869 129.121 75.6664 130.626 70.1545C131.855 65.628 132.786 61.1015 132.729 56.4032L132.752 56.3803ZM62.9865 2.65852V2.8075C61.1482 2.8075 59.2869 2.62414 57.483 2.85333C54.5301 3.20857 51.6118 3.80446 48.6819 4.34306C40.6736 5.82132 33.1594 8.60596 26.0818 12.6282C22.3132 14.7711 18.8548 17.2693 15.6836 20.2258C11.5703 24.0647 8.00854 28.2703 5.40039 33.2895C1.7237 40.36 1.90753 47.6023 4.44675 54.8561C6.18168 59.8295 9.64007 63.783 13.3972 67.3698C18.7054 72.4234 25.0132 75.9644 31.7921 78.6344C35.4458 80.0669 39.2719 81.0867 43.0405 82.2327C44.2929 82.6108 45.4188 82.2785 46.4874 81.4191C51.1522 77.6489 55.794 73.8559 60.5852 70.2576C64.2849 67.4844 68.1224 64.8831 72.0289 62.4079C77.7507 58.7867 83.5645 55.3145 89.3783 51.8538C91.5728 50.5474 93.8707 49.39 96.1801 48.2555C101.936 45.448 107.704 42.6748 113.484 39.9131C117.241 38.1254 121.032 36.4065 124.801 34.6417C125.823 34.1604 125.938 33.3927 125.088 32.4301C123.422 30.5507 121.745 28.6714 120.021 26.8493C116.276 22.8729 112.162 19.2976 107.555 16.3525C101.488 12.4678 95.215 8.91536 88.2063 6.99018C82.9096 5.53484 77.5554 4.23992 72.1553 3.22003C69.168 2.65852 66.0428 2.83041 62.975 2.66998L62.9865 2.65852Z" fill="white"/>
<path d="M190.004 55.9448C191.751 55.9448 193.486 55.9448 195.232 55.9448C196.301 55.9448 197.036 56.4032 197.013 57.5606C196.99 58.6263 196.197 58.9586 195.301 58.9243C191.498 58.7982 187.649 58.9586 183.903 58.3971C180.135 57.8242 176.297 56.9189 173.299 54.2374C172.701 53.6988 172.253 52.8508 172.046 52.0715C171.564 50.3068 171.012 50.0432 169.507 51.0058C168.863 51.4184 168.105 51.6819 167.37 51.8767C165.382 52.4039 163.211 52.5528 161.395 53.4352C159.293 54.4551 157.431 55.9907 155.57 57.4575C151.663 60.54 147.504 62.8319 142.299 62.4881C140.116 62.3392 138.232 60.0702 137.933 57.3773C137.531 53.6644 138.749 50.6391 141.541 48.2097C142.047 47.7743 142.702 46.995 143.242 47.7857C143.644 48.3702 143.575 49.3557 143.494 50.1464C143.46 50.4787 142.862 50.7652 142.518 51.0517C140.76 52.5185 139.806 56.3688 140.99 58.2482C141.415 58.9243 142.495 59.4743 143.322 59.5545C147.642 59.9671 151.1 57.9388 154.295 55.3489C155.421 54.4436 155.179 53.5269 153.938 52.782C152.835 52.1174 151.583 51.4069 150.905 50.3755C149.768 48.6566 150.227 46.147 151.801 44.7031C154.019 42.6748 156.328 40.7153 158.707 38.8818C160.602 37.415 164.762 39.1453 165.175 41.5174C165.589 43.8322 165.451 46.0783 163.9 48.0493C163.636 48.3816 163.452 48.8973 163.498 49.3098C163.521 49.5619 164.107 50.0088 164.325 49.9516C166.267 49.4244 168.255 48.9546 170.081 48.1524C170.989 47.7628 171.92 46.8461 172.299 45.9522C173.505 43.0759 175.16 40.5319 177.435 38.4234C181.341 34.8022 185.489 31.4675 190.234 28.9923C191.613 28.2703 193.268 28.0755 194.807 27.7088C195.91 27.4453 197.071 27.3994 198.162 27.1129C199.254 26.8265 199.828 27.3421 200.276 28.1672C201.414 30.2414 201.161 32.5676 199.495 34.2522C198.564 35.1918 197.542 36.0627 196.439 36.7847C192.406 39.3974 188.384 42.0331 184.237 44.451C181.56 46.0095 178.71 47.2815 175.861 48.542C173.839 49.4359 173.574 50.1349 174.861 51.8997C175.769 53.1487 176.918 53.9394 178.4 54.329C180.296 54.8333 182.146 55.6125 184.076 55.8875C186.006 56.1626 188.017 55.9448 189.981 55.9448V55.9792L190.004 55.9448ZM198.633 31.2269C198.07 30.7112 197.565 29.8976 197.197 29.9549C195.083 30.2987 192.877 30.5393 190.958 31.3988C188.959 32.2926 187.201 33.7709 185.432 35.1231C183.226 36.8191 181.066 38.5953 178.974 40.4402C177.883 41.4028 176.964 42.5602 176.033 43.6947C175.815 43.9583 175.895 44.451 175.838 44.8407C176.217 44.8865 176.631 45.0584 176.975 44.9667C177.63 44.7834 178.262 44.4854 178.859 44.1531C181.146 42.904 183.467 41.7122 185.673 40.3486C189.522 37.965 193.302 35.4898 197.082 33.0031C197.622 32.6478 197.955 32.0061 198.622 31.2269H198.633ZM160.143 41.2882C159.856 41.4028 159.074 41.5289 158.546 41.9643C157.098 43.1447 155.65 44.3594 154.41 45.7345C152.502 47.843 152.732 48.9775 155.133 50.5474C155.581 50.8454 156.121 51.235 156.604 51.2235C157.454 51.2006 158.718 51.1663 159.074 50.6506C160.488 48.5535 161.774 46.3304 162.774 44.0156C163.371 42.6519 162.062 41.2653 160.143 41.2997V41.2882Z" fill="white"/>
</g>
<defs>
<clipPath id="clip0_0_965">
<rect width="201" height="155" fill="white"/>
</clipPath>
</defs>
</svg>
