<svg width="173" height="253" viewBox="0 0 173 253" fill="none" xmlns="http://www.w3.org/2000/svg">
<path d="M66.201 80.3925C50.0341 55.5335 36.7505 23.8343 7.52564 10.1739C5.05139 9.57392 -3.92334 8.4434 2.9763 6.23442C16.669 -4.43856 25.6635 2.85031 38.776 11.1085C59.4229 29.2266 68.8711 51.8047 85.3256 72.2607C104.128 98.3022 124.73 119.39 148.783 137.87C153.896 142.928 160.091 146.188 165.235 151.164C165.808 154.275 160.389 154.087 158.643 156.417C156.69 156.219 156.464 158.587 154.602 156.368C151.788 156.995 157.233 158.562 150.638 160.015C146.86 163.471 146.418 159.236 142.771 158.163C132.25 153.17 121.661 148.442 110.532 144.825C109.309 144.867 93.7351 138.302 97.206 141.703C123.31 162.6 144.294 187.432 170.35 208.595C188.205 223.058 207.06 235.586 229.449 239.446C234.237 239.761 240.968 242.119 244.533 238.365C245.227 238.077 245.512 239.235 246.172 238.794C246.687 236.24 250.193 234.44 252.484 233.682C255.31 229.234 259.227 232.978 257.013 236.952C249.005 242.441 241.402 249.251 231.968 251.986C218.89 254.81 204.781 250.662 192.859 245.741C157.297 229.948 127.896 196.333 99.6108 169.247C84.9141 152.85 65.5292 139.906 45.2269 134.761C41.7709 131.623 21.2852 136.004 30.9864 129.491C43.9551 121.485 44.7237 119.621 62.9632 122.202C77.4591 123.012 91.8881 123.736 105.358 127.364C95.0317 114.98 77.6946 96.5271 66.2035 80.3949L66.201 80.3925ZM75.8005 140.25C77.2013 142.316 78.8227 141.483 76.4054 140.003C75.5129 140.33 75.2427 139.598 74.4717 138.946C72.8329 138.517 75.2477 141.413 75.8055 140.25L75.8005 140.25ZM185.372 234.113C147.849 210.633 115.996 166.721 78.8152 141.788C111.806 166.885 157.721 221.09 185.372 234.113ZM56.961 51.2593C55.766 51.8345 59.2642 54.8814 58.813 53.141C56.9362 51.7849 57.4445 50.0569 55.4437 48.795C54.1248 49.033 56.542 50.6767 56.9585 51.2568L56.961 51.2593ZM48.4945 38.6029C47.6962 40.3285 51.2341 41.0747 50.6267 42.8275C52.9001 44.2035 52.4513 46.8736 54.881 47.6917C49.9945 40.1624 45.9038 32.9826 39.0785 26.0383C38.6099 24.4938 37.3902 22.8178 37.5811 25.597C42.5073 29.715 44.5204 34.3263 48.497 38.6054L48.4945 38.6029ZM33.6441 20.6089C32.3921 19.8825 28.6683 14.4084 28.1824 16.1686C30.1782 18.209 32.1987 20.2246 34.2366 22.2228C36.0712 22.3964 35.1787 20.1601 33.6391 20.6089L33.6441 20.6089ZM75.9121 80.6776C76.2468 81.1213 77.774 82.6039 77.4963 81.2453C76.5864 79.6958 73.0114 77.6678 75.9121 80.6776ZM80.3499 86.1616C81.9911 86.2409 79.6532 84.5228 79.2689 84.0344C77.6252 83.9526 79.9656 85.6732 80.3499 86.1616ZM24.8255 12.8415C23.1248 12.539 26.0701 15.6777 26.4767 14.8447C26.4469 14.0216 25.304 13.5084 24.8255 12.8415ZM84.7951 90.6117C84.3092 90.23 82.5836 87.8896 82.6679 89.5308C83.1538 89.9126 84.8794 92.253 84.7951 90.6117ZM60.0675 56.4582C61.5005 56.6714 59.7328 54.6955 59.1403 54.8318C58.4486 55.2607 59.7675 56.0392 60.0675 56.4582ZM62.3037 58.6944L61.2203 57.611C59.3956 57.2689 62.5616 60.4547 62.3037 58.6944ZM64.0045 61.4414L62.921 60.358C61.0963 60.0159 64.2623 63.2016 64.0045 61.4414ZM64.0565 63.0653C64.0342 63.8214 64.9317 64.7536 65.7151 64.7239C65.7374 63.9677 64.8399 63.0355 64.0565 63.0653ZM67.9737 68.0237C67.996 67.2675 67.0985 66.3354 66.3151 66.3651C66.2928 67.1213 67.1902 68.0534 67.9737 68.0237ZM68.5488 69.1245C66.7886 68.8666 69.9744 72.0326 69.6323 70.2079L68.5488 69.1245ZM70.2967 72.9648C70.7727 73.3069 71.1198 74.1449 71.747 74.068C72.6197 73.6614 69.9769 71.4103 70.2967 72.9648ZM73.651 77.3653C75.4113 77.6232 72.2255 74.4572 72.5676 76.2819L73.651 77.3653ZM113.308 123.305C115.069 123.563 111.883 120.397 112.225 122.222C112.587 122.584 112.949 122.946 113.308 123.305ZM22.4604 12.2118C22.9835 11.8473 22.1331 10.9276 21.6918 11.116C21.1538 11.4507 22.0315 12.3928 22.4604 12.2118ZM189.207 235.856C188.706 235.097 187.933 235.901 188.664 236.359C189.348 237.113 189.884 236.24 189.207 235.856ZM87.961 95.8701C88.1197 96.0883 88.3304 96.2296 88.5957 96.1429C89.5328 95.3892 86.7537 94.2711 87.961 95.8701ZM72.4313 138.8C72.942 138.984 72.88 138.336 72.5949 138.27C72.0867 138.059 72.1486 138.726 72.4313 138.8ZM92.3319 101.114C92.8426 101.297 92.7806 100.65 92.4955 100.583C91.9873 100.372 92.0492 101.039 92.3319 101.114ZM93.7872 101.696C93.4302 101.637 93.1079 101.706 93.2789 102.214C93.564 102.316 93.9508 102.187 93.7872 101.696ZM101.438 111.092C101.716 111.033 101.738 110.371 101.245 110.552C100.962 110.602 100.94 111.244 101.438 111.092ZM191.126 237.254C191.163 236.9 191.076 236.575 190.575 236.714C190.491 236.992 190.645 237.388 191.126 237.254Z" fill="#5541D9"/>
</svg>
