<svg width="270" height="128" viewBox="0 0 270 128" fill="none" xmlns="http://www.w3.org/2000/svg">
<path d="M177.517 63.4819C177.327 64.2335 176.766 64.5752 175.934 64.6196C175.815 64.3019 175.822 63.9021 175.365 64.2814C175.525 64.3907 175.689 64.4966 175.934 64.6196C175.848 64.6947 175.8 64.8382 175.733 65.0466C175.157 65.0876 174.555 65.1286 173.913 65.173C173.823 65.5112 173.745 65.805 173.667 66.1022C173.4 66.3995 173.013 66.2355 172.724 66.3824C172.605 66.0647 172.612 65.665 172.155 66.0442C172.315 66.1535 172.478 66.2594 172.724 66.3824C172.757 66.8265 172.181 66.97 171.988 67.3765C171.769 67.2296 171.568 67.093 171.342 66.9427C171.119 67.1716 170.885 67.4107 170.602 67.7011C170.762 67.8582 170.925 68.0188 171.085 68.176C170.756 68.4447 170.297 68.4322 169.71 68.1384C169.517 68.3092 169.324 68.48 169.101 68.6781C168.722 68.5381 168.358 68.4048 167.916 68.2409C167.894 68.521 167.879 68.7533 167.86 68.9924C168.261 69.1359 168.633 69.2658 169.034 69.4058C168.458 69.9183 167.771 69.6518 167.169 69.785C166.638 70.0857 166.467 70.7587 165.791 70.909C165.802 70.3692 165.126 70.3692 164.999 69.9968C164.516 70.2531 164.082 70.482 163.61 70.7314C163.591 71.1037 163.595 71.5137 163.528 71.91C163.513 71.9988 163.242 72.0535 163.09 72.1252C163.015 71.9886 162.96 71.746 162.867 71.7323C162.529 71.6845 162.491 71.9168 162.532 72.1628C162.083 72.132 162.005 72.542 161.741 72.7333C161.477 72.9246 161.399 73.3312 160.987 73.3722C160.868 73.0544 160.875 72.6547 160.418 73.0339C160.578 73.1433 160.742 73.2492 160.987 73.3722C160.957 73.3824 160.987 73.5259 160.964 73.5327C160.206 73.7753 159.746 74.5884 158.81 74.4825C158.559 74.1477 158.185 74.0759 157.687 74.2672C157.992 74.7011 158.434 74.4517 158.81 74.4825C158.813 74.5576 158.787 74.6635 158.832 74.7079C159.003 74.8788 159.2 75.0257 159.389 75.1862C159.181 75.6611 158.702 75.4561 158.334 75.5415C158.26 75.4049 158.204 75.1623 158.111 75.1486C157.773 75.1008 157.736 75.3331 157.777 75.5791C157.513 75.5962 157.253 75.6167 156.948 75.6372C156.651 76.4024 156.391 77.2258 155.306 77.4068C155.235 77.4205 155.209 77.6733 155.165 77.8168C155.012 77.8885 154.845 77.9432 154.708 78.0354C154.57 78.1243 154.459 78.2507 154.336 78.36C154.195 78.2472 154.054 78.1379 153.905 78.0183C153.288 78.073 153.307 78.7734 152.609 78.869C152.575 78.8485 152.374 78.7119 152.1 78.5308C152.014 78.8348 151.969 79.1355 151.839 79.402C151.784 79.5147 151.55 79.5523 151.397 79.6206C151.308 79.3165 151.494 78.9544 151.156 78.7084C150.587 79.1013 150.595 79.1047 150.361 79.665C150.015 79.7743 149.58 79.7675 149.993 80.1877C150.112 80.0408 150.227 79.8905 150.361 79.665C150.658 79.6753 151.026 79.6479 151.397 79.6206C151.293 80.157 150.877 80.5874 150.777 81.1204C150.22 81.5372 149.9 80.8778 149.436 80.8812C149.131 81.1716 149.38 81.5064 149.343 81.8207C149.19 81.889 148.923 81.9437 148.908 82.0325C148.841 82.4288 148.849 82.8319 148.826 83.2248C148.243 83.6108 147.578 83.423 146.772 83.5664C146.567 83.8534 146.277 84.2634 145.951 84.7212C145.683 84.2941 145.49 83.9866 145.285 83.6587C144.854 84.0891 145.181 84.5162 145.115 84.9193C144.606 85.7085 143.498 84.9022 142.952 85.5991C143.145 85.7665 143.335 85.9305 143.576 86.1423C143.238 86.2722 142.926 86.3951 142.618 86.5147C142.529 86.8154 142.439 87.116 142.332 87.4679C142.083 87.3005 141.882 87.1638 141.648 87.0067C141.329 87.0306 140.964 87.0545 140.578 87.0818C140.103 87.4337 139.735 87.8607 139.712 88.4893C139.712 88.5645 139.43 88.6294 139.315 88.7695C139.196 88.4518 139.203 88.0521 138.746 88.4313C138.906 88.5406 139.07 88.6465 139.315 88.7695C139.3 88.9984 139.322 89.299 139.356 89.7158C138.899 89.75 138.575 89.7739 138.289 89.8695C138.171 89.5518 138.178 89.1521 137.721 89.5313C137.881 89.6406 138.044 89.7465 138.289 89.8695C138.2 89.9515 138.193 90.1736 138.081 90.2385C137.643 90.4879 137.175 90.6826 136.655 90.9286C136.257 90.7817 135.789 90.6075 135.154 90.3683C135.083 90.9798 135.027 91.4513 134.964 91.9911C134.741 92.0491 134.492 92.1141 134.18 92.196C133.734 92.934 134.355 93.7915 133.987 94.7139C133.716 94.707 133.396 94.6968 133.051 94.6865C133.288 94.2219 133.463 93.8735 133.69 93.4328C133.281 93.3576 132.891 93.197 132.798 93.2858C132.204 93.8666 131.096 93.8974 130.814 94.8881C130.899 95.0418 131.011 95.2434 131.13 95.4484C131.353 95.24 131.535 95.076 131.78 94.8437C131.888 95.1341 131.973 95.3596 132.04 95.5406C131.676 96.3503 130.402 95.4484 130.298 96.5792C129.974 96.3674 129.774 96.2375 129.54 96.0872C129.317 96.3127 129.079 96.5518 128.797 96.8388C128.964 96.9994 129.127 97.1599 129.328 97.3581C129.127 97.587 128.912 97.8364 128.693 98.0892C128.128 97.9935 127.864 97.5255 127.429 97.2693C126.735 97.6451 127.585 98.4137 126.943 98.8237C126.742 98.4923 126.538 98.1643 126.326 97.8159C125.824 98.4069 126.244 99.0013 126.181 99.6231C125.98 99.8486 125.75 100.108 125.52 100.371C124.962 100.269 124.691 99.8076 124.271 99.5514C123.941 99.6641 123.896 100.142 123.472 100.156C123.354 99.8383 123.361 99.4386 122.904 99.8178C123.064 99.9272 123.227 100.033 123.472 100.156C123.472 100.511 123.506 100.938 123.539 101.365C122.187 101.837 121.615 103.08 120.571 103.911C120.236 103.934 119.876 103.958 119.538 103.982C119.27 104.266 119.025 104.526 118.791 104.775C118.984 104.942 119.177 105.11 119.367 105.274C119.111 105.547 118.869 105.807 118.546 106.152C118.033 105.977 117.48 105.79 116.788 105.554C116.725 106.165 116.673 106.64 116.625 107.105C116.291 107.241 115.975 107.368 115.666 107.494C115.7 107.88 115.726 108.215 115.759 108.615C115.521 108.827 115.258 109.062 114.908 109.377C114.615 109.428 114.18 109.507 113.697 109.592C113.66 109.841 113.627 110.077 113.578 110.432C113.14 110.528 112.635 110.641 112.148 110.747C112.096 111.017 112.048 111.252 111.999 111.491C111.654 111.891 111.137 111.655 110.721 111.772C110.234 112.099 110.576 112.554 110.457 113.029C110.424 113.083 110.365 113.254 110.242 113.357C109.725 113.787 108.477 114.361 107.73 114.552C107.444 114.628 107.24 114.774 107.333 115.092C107.184 115.161 106.92 115.212 106.905 115.297C106.853 115.608 107.106 115.642 107.374 115.605C107.563 115.861 107.756 116.117 107.95 116.373C107.433 116.804 106.437 116.845 106.426 117.794C106.426 117.938 106.285 118.208 106.229 118.201C105.159 118.109 105.126 119.544 103.985 119.424C103.907 119.714 103.829 120.015 103.747 120.319C103.487 120.651 103.079 120.466 102.785 120.62C102.666 120.302 102.674 119.902 102.217 120.282C102.376 120.391 102.54 120.497 102.785 120.62C102.715 121.04 103.004 121.546 102.644 122.075C102.436 121.942 102.239 121.815 102.057 121.696C101.57 121.993 100.972 122.215 100.604 122.611C100.177 123.073 99.5936 123.254 99.1403 123.582C99.1032 123.841 99.0697 124.077 99.0363 124.32C98.3452 124.159 97.7433 123.718 96.9891 124.176C96.9631 124.367 96.9297 124.603 96.8925 124.87C96.7687 125.004 96.3451 125.101 95.6218 125.16C95.4212 125.017 95.2057 124.866 94.9717 124.699C94.6261 124.723 94.2583 124.75 93.9016 124.774C93.4669 124.449 93.0434 124.128 92.6458 123.835C91.9808 123.78 91.3343 124.159 90.7435 123.742C90.8178 123.421 91.3231 123.308 91.1225 122.933C91.468 122.823 91.9027 122.83 91.4903 122.41C91.3714 122.557 91.2563 122.707 91.1225 122.933C90.9256 122.916 90.6507 122.936 90.3608 122.957C90.1974 123.999 89.2499 124.576 88.6406 125.409C88.6592 125.925 88.6778 126.492 88.6964 127.104C88.3731 127.159 88.1279 127.2 87.8678 127.244C87.9075 126.875 87.9904 126.619 88.1168 126.475C88.0424 126.082 88.2171 125.645 87.8493 125.266C87.6152 125.399 87.3774 125.536 87.1359 125.672C86.7644 125.427 86.965 125.051 86.7978 124.781C87.1433 124.672 87.578 124.678 87.1656 124.258C87.0467 124.405 86.9316 124.555 86.7978 124.781C86.1587 124.76 85.9581 124.012 85.2968 123.869C85.2076 124.169 85.1184 124.47 85.0107 124.825C84.5946 124.853 84.1636 124.883 83.7363 124.914C83.6471 124.747 83.5691 124.607 83.4911 124.467C83.8775 124.453 84.0484 124.268 84.0038 123.917C84.1524 123.848 84.4162 123.797 84.4311 123.712C84.4831 123.401 84.2305 123.366 84.0001 123.472C83.8812 123.155 83.8886 122.755 83.4316 123.134C83.5914 123.243 83.7549 123.349 84.0001 123.472C83.9778 123.575 83.989 123.746 84.0038 123.917C83.6174 123.93 83.4465 124.115 83.4911 124.467C83.1939 124.34 82.9004 124.214 82.5771 124.074C82.4582 124.193 82.291 124.364 82.0941 124.562C81.7857 124.583 81.4365 124.644 81.0984 124.62C80.842 124.6 80.6302 124.443 80.5931 124.183C80.9386 124.074 81.3733 124.08 80.9609 123.66C80.842 123.807 80.7268 123.958 80.5931 124.183C80.3962 124.166 80.1249 124.183 79.85 124.207C79.5825 123.612 79.2035 123.1 78.5533 122.765C78.4121 123.11 78.2747 123.455 78.1335 123.8C77.892 123.636 77.6914 123.503 77.4944 123.37C77.2306 123.65 76.9929 123.906 76.7328 124.186C77.1341 124.32 77.5242 124.449 77.9626 124.593C77.2901 125.051 76.5805 124.938 75.8931 124.931C75.8114 124.777 75.7371 124.637 75.6628 124.497C75.8151 124.429 76.0826 124.374 76.0975 124.285C76.1643 123.889 76.1569 123.486 76.1792 123.097C76.874 122.745 77.5427 122.407 78.245 122.048C77.3124 121.658 76.4207 121.259 75.4993 120.927C75.3284 120.866 75.0386 121.074 74.8268 121.149C74.8528 121.474 74.8751 121.727 74.8937 121.979C74.5073 121.993 74.3364 122.178 74.3809 122.529C74.0986 122.711 73.8125 122.888 73.4818 123.1C73.1883 123.121 72.8242 123.144 72.6607 123.158C72.0105 122.909 71.5312 122.724 71.0408 122.536C71.2006 122.342 71.3566 122.157 71.5127 121.966C71.3269 121.805 71.13 121.638 70.9368 121.47C70.9033 121.05 70.8662 120.627 70.8328 120.206C71.0185 120.193 71.2043 120.179 71.3901 120.169C71.4086 120.401 71.3603 120.664 71.4681 120.849C71.5573 120.999 71.8359 121.054 72.0291 121.153C72.0291 121.645 72.4006 121.634 72.8539 121.614C73.1029 121.358 73.3889 121.067 73.6007 120.852C73.2812 120.37 73.0174 119.971 72.7425 119.554C72.226 119.957 72.7202 120.51 72.4861 120.944C72.3338 121.016 72.1814 121.084 72.0291 121.153C72.0105 120.92 72.0626 120.657 71.9511 120.469C71.8619 120.319 71.5833 120.264 71.3901 120.165C71.3009 119.861 71.4904 119.492 71.0222 119.164C70.8067 119.212 70.5021 119.281 70.2011 119.349C70.4538 119.694 70.6433 119.947 70.8328 120.203C70.5615 120.223 70.2903 120.241 69.9893 120.261C69.328 119.718 68.6518 119.164 67.9385 118.58C67.8865 118.409 67.8158 118.187 67.7564 117.993C67.3477 117.798 67.0245 117.818 66.783 118.136C66.456 118.563 66.0771 118.508 65.4863 118.31C65.973 117.876 66.3594 117.535 66.6715 117.258C66.6418 116.882 66.6195 116.633 66.6009 116.384C66.9873 116.37 67.1582 116.185 67.1136 115.834C67.2994 115.82 67.4852 115.806 67.6338 115.724C67.7527 116.042 67.7452 116.442 68.2022 116.062C68.0425 115.953 67.879 115.847 67.6338 115.724C67.5967 115.656 67.5446 115.413 67.4518 115.4C67.1137 115.352 67.0765 115.584 67.1174 115.83C66.731 115.844 66.5601 116.028 66.6046 116.38C65.9879 116.298 65.5903 115.984 65.4083 115.434C65.9396 115.321 66.1774 114.938 66.3854 114.528C65.9656 114.259 65.6089 114.259 65.3488 114.716C65.3674 114.956 65.3897 115.195 65.4083 115.434C65.2448 115.386 65.007 115.383 64.9364 115.28C64.7098 114.956 64.5426 114.593 64.3197 114.183C64.5426 113.896 64.7061 113.411 65.36 113.37C66.0733 113.326 65.5123 112.619 65.9136 112.39C66.4263 112.093 66.0659 111.42 66.5823 111.099C66.8461 110.935 67.0207 110.648 67.2251 110.429C66.8276 110.036 66.4449 110.285 66.0993 110.244C66.1216 109.602 66.861 109.407 67.0468 108.816C66.3743 108.485 65.6052 108.823 64.8621 108.789C64.8473 108.618 64.8324 108.447 64.8213 108.277C65.1519 108.191 65.5606 108.376 65.843 108.017C65.8616 107.399 65.9693 106.746 65.4603 106.09C65.3563 106.459 65.3043 106.767 65.1742 107.04C65.1222 107.149 64.8881 107.183 64.7358 107.252C64.5389 106.989 64.342 106.729 64.1228 106.432C64.1785 106.09 63.8478 105.66 64.2602 105.257C64.4571 105.386 64.6578 105.523 64.8807 105.67C65.2262 105.318 65.5866 104.956 65.8876 104.652C66.2034 104.56 66.4486 104.488 66.7198 104.406C66.6752 104.116 66.6418 103.887 66.6009 103.627C66.0436 103.589 65.5309 103.555 64.9662 103.514C65.1965 103.156 65.3637 102.893 65.5235 102.647C65.2262 102.189 64.9662 101.786 64.7246 101.417C65.2114 100.887 65.3005 100.88 66.2294 101.485C66.4263 101.471 66.6938 101.468 66.9613 101.43C67.1285 101.406 67.2883 101.335 67.4926 101.27C67.4926 100.747 67.0579 100.973 66.7458 100.918C66.4449 100.118 65.3079 99.5172 65.8987 98.3796C66.1774 98.5845 66.3892 98.7417 66.6381 98.9228C66.8684 98.8476 67.1099 98.7724 67.422 98.67C67.1768 98.4445 66.9985 98.2805 66.835 98.1336C66.9799 97.8569 67.1285 97.5802 67.2734 97.3C67.4257 97.2283 67.5781 97.1599 67.749 97.0814C67.7639 96.6851 67.7787 96.282 67.7936 95.8891C68.1354 95.749 68.4475 95.6226 68.8153 95.4723C68.5887 95.2639 68.414 95.0999 68.2245 94.9257C68.3769 94.748 68.5404 94.5567 68.7001 94.3722C68.5032 94.2048 68.3026 94.0374 68.1094 93.8734C68.1056 93.6924 68.1019 93.5284 68.0982 93.3268C68.7596 92.9955 69.4358 92.6538 70.1454 92.2985C70.164 91.9159 70.1603 91.5059 70.2271 91.1097C70.242 91.0208 70.5132 90.9662 70.6284 90.8261C70.7473 91.1438 70.7399 91.5435 71.1968 91.1643C71.0371 91.055 70.8736 90.9491 70.6284 90.8261C70.7176 90.7475 70.7362 90.4947 70.8328 90.464C71.1708 90.3581 71.535 90.3273 71.9102 90.2658C72.423 89.3753 72.688 88.6146 72.7053 87.9837C73.1586 87.4508 73.5524 86.9827 73.8459 86.6377C74.2472 86.5079 74.4887 86.4293 74.8008 86.3302C74.5519 86.1048 74.3698 85.9408 74.1692 85.7563C74.5221 85.5616 74.89 85.3771 75.2318 85.1618C75.3804 85.0696 75.477 84.909 75.6851 84.687C75.6442 84.2053 75.5996 83.6348 75.5587 83.1531C75.8894 82.8012 76.1272 82.5415 76.3984 82.2546C76.6065 82.5962 76.8071 82.9276 77.0115 83.2658C77.279 82.9822 77.5168 82.7226 77.8474 82.3707C77.7917 81.7148 77.7322 80.9734 77.6728 80.2629C78.0109 80.157 78.2598 80.0886 78.4976 79.9964C78.5756 79.9656 78.6202 79.8734 78.6908 79.7982C78.6759 79.6377 78.6648 79.4703 78.6499 79.296C78.4642 79.1355 78.2672 78.9647 78.022 78.7528C78.3601 78.6196 78.6722 78.4932 79.0883 78.3292C79.0883 77.9637 79.0846 77.5606 79.0809 77.1574C79.3819 76.8363 79.6828 76.5117 80.0432 76.1291C80.0358 75.8592 80.0246 75.5313 80.0098 75.1111C80.333 74.7182 80.7083 74.2672 81.143 73.7411C80.868 73.4507 80.6451 73.2116 80.411 72.9622C80.7714 72.46 81.5108 72.1081 81.4142 71.3258C81.7672 71.0832 81.8526 70.5537 82.3765 70.4649C82.4954 70.7826 82.4879 71.1823 82.9449 70.8031C82.7852 70.6938 82.6217 70.5879 82.3765 70.4649C82.3802 70.1403 82.3096 69.744 82.3319 69.3511C82.343 69.1188 82.5251 68.9275 82.8075 68.8934C82.9264 69.2111 82.9189 69.6108 83.3759 69.2316C83.2162 69.1223 83.0527 69.0164 82.8075 68.8934C82.8929 68.644 82.6663 68.3331 82.9449 67.9915C83.1939 67.684 83.2979 67.2774 83.4688 66.9017C84.0781 66.8265 84.6986 66.7513 85.3302 66.6762C85.3451 65.9007 84.5611 66.5156 84.3902 66.1022C84.5871 65.6513 84.7952 65.1798 84.9996 64.7118C85.2373 64.8724 85.4417 65.0056 85.6126 65.1218C85.895 64.8416 86.1476 64.5922 86.3742 64.3702C86.3445 63.991 86.3148 63.6527 86.2888 63.335C86.077 63.1505 85.8801 62.9797 85.698 62.8226C85.542 62.1837 86.1327 61.9275 86.4188 61.521C86.6009 61.5073 86.7829 61.497 86.965 61.4834C87.2325 60.9778 87.4963 60.479 87.7527 59.9939C88.3248 59.8675 88.8301 59.7581 89.5806 59.5907C88.9416 59.3687 88.5589 59.2355 88.1576 59.0954C88.3025 58.9485 88.4251 58.8255 88.5477 58.6957C88.819 58.1183 88.57 57.5444 88.5366 56.844C88.2282 56.8304 87.9124 56.8167 87.3885 56.7962C87.6672 57.1891 87.8195 57.4077 87.9793 57.6298C87.5112 57.9919 86.9278 57.8108 86.404 57.9133C86.3297 57.7767 86.2628 57.5205 86.181 57.5205C85.7538 57.5034 85.1445 57.3975 84.9327 57.6059C84.2639 58.2686 83.231 58.3335 82.5808 58.9656C82.54 59.0066 82.5883 59.1261 82.5957 59.2081C81.7634 59.2662 80.9275 59.3243 80.1027 59.3824C79.9132 59.5737 79.7274 59.7581 79.5342 59.9495C79.1664 59.9734 78.8023 60.0007 78.5459 60.0178C78.1967 60.274 77.9254 60.4756 77.6431 60.6805C77.3273 60.4927 77.108 60.3594 76.8145 60.1852C76.6771 60.3048 76.5024 60.4517 76.2944 60.6293C76.1123 60.5097 75.9117 60.3731 75.6628 60.2091C75.5253 61.1452 74.7636 61.6918 74.2063 62.3443C73.9017 62.1496 73.6825 62.0095 73.4187 61.8421C72.3746 62.4297 71.3455 63.0071 70.1677 63.6698C69.811 63.6937 69.2537 63.7347 68.7113 63.7723C68.4883 63.6083 68.2728 63.4512 67.9682 63.2325C67.697 63.3794 67.3997 63.54 67.1025 63.7006C66.482 64.1959 65.4343 63.6015 64.9327 64.4692C64.2082 64.5581 63.4837 64.6469 62.7035 64.746C62.1796 65.0671 61.6 65.419 60.8904 65.8528C59.7683 65.9314 58.4754 66.0202 57.0969 66.1159C57.0152 66.4029 56.9335 66.7001 56.848 67.0041C56.5768 67.4756 55.5513 66.8572 55.451 67.7694C55.3321 67.3048 55.2133 66.8402 55.0907 66.3653C54.5185 66.3892 54.5222 66.9358 54.1284 67.0691C54.3624 67.2809 54.5408 67.4448 54.7191 67.6088C54.3587 68.0734 53.8237 67.7626 53.467 67.9573C53.0397 67.7284 52.7722 67.2706 52.1443 67.5371C52.07 67.7967 51.9846 68.1008 51.8954 68.4048C51.4198 68.8455 51.078 68.5107 50.7288 68.2306C50.6619 68.2203 50.5579 68.1794 50.5356 68.2033C50.0451 68.7157 49.5621 69.235 49.068 69.7645C48.5255 69.8021 47.9757 69.8397 47.4295 69.8773C47.2326 70.072 47.0468 70.2565 46.7644 70.54C46.4263 70.3931 46.0474 70.2291 45.6684 70.0652C45.5607 70.1813 45.4418 70.3111 45.23 70.5366C44.5204 70.5844 43.7141 70.6425 43.0045 70.6903C42.6106 71.1106 42.3097 71.4351 41.8936 71.8792C41.574 71.4761 41.2508 71.073 40.9127 70.6459C39.8687 71.2165 39.0587 71.6572 38.2153 72.1184C37.9813 71.9749 37.7621 71.8382 37.5317 71.6982C36.9855 72.0125 36.4171 72.3404 35.8226 72.6855C35.4697 72.4224 35.0498 72.1081 34.6746 71.828C34.251 71.8587 33.8869 71.8826 33.5191 71.91C33.3333 72.3028 32.75 72.4463 32.8206 72.9656C31.8063 73.0373 30.7883 73.1057 29.6031 73.1911C29.3616 73.519 29.0495 73.9358 28.782 74.3014C28.2953 74.3356 27.9348 74.3595 27.6302 74.3834C27.3961 74.5952 27.2029 74.766 27.0357 74.9197C26.6159 74.9334 26.2295 74.9642 26.1589 74.4893C26.5044 74.38 26.9391 74.3868 26.5267 73.9666C26.4078 74.1135 26.2926 74.2638 26.1589 74.4893C25.7836 74.4244 25.7056 74.8343 25.4418 75.0256C25.178 75.217 25.1 75.6235 24.6876 75.6645C24.5687 75.3468 24.5761 74.9471 24.1192 75.3263C24.2789 75.4356 24.4424 75.5415 24.6876 75.6645C24.7433 76.0881 24.3495 76.0984 23.9557 76.194C23.4838 75.8558 23.0045 75.5142 22.607 75.2306C21.6187 75.2409 21.615 76.2726 20.8422 76.3751C20.6787 76.3375 20.5004 76.3273 20.3555 76.2555C20.1994 76.1769 20.0768 76.0437 19.9468 75.9412C19.6978 76.153 19.4526 76.3614 19.1368 76.6245C18.7838 76.4024 18.5052 76.2248 18.2117 76.0403C17.6841 76.0779 17.1416 76.1154 16.5955 76.153C16.4134 76.3375 16.2351 76.522 16.053 76.7065C15.7818 76.727 15.5106 76.744 15.2728 76.8329C15.1539 76.5152 15.1613 76.1154 14.7043 76.4947C14.8641 76.604 15.0276 76.7099 15.2728 76.8329C15.1836 76.9115 15.1725 77.1472 15.0684 77.1916C14.8529 77.2838 14.5854 77.2736 14.3588 77.3009C14.1916 76.9593 14.0504 76.6757 13.8832 76.3375C13.664 76.5357 13.4894 76.6928 13.3111 76.8534C12.8726 76.7543 13.0287 76.3478 12.8726 76.0915C12.4714 75.7499 12.0033 76.0505 11.6354 75.9993C11.3122 76.2043 11.0298 76.3819 10.7809 76.6313C10.662 76.3136 10.6694 75.9139 10.2125 76.2931C10.3722 76.4024 10.5357 76.5083 10.7809 76.6313C10.8812 77.1813 11.6243 77.3112 11.9587 77.8509C11.7172 77.9398 11.4794 78.0252 11.249 78.1106C11.0075 77.9398 10.7958 77.7929 10.5803 77.6425C10.0601 77.9158 9.91894 78.5957 9.2836 78.7938C9.1647 78.4761 9.17212 78.0764 8.71515 78.4556C8.87491 78.5649 9.03839 78.6708 9.2836 78.7938C9.33191 79.2277 8.94549 79.2482 8.52935 79.296C8.33618 79.1662 8.11694 79.0227 7.87173 78.8587C7.70825 79.0125 7.52993 79.1765 7.32187 79.3712C7.12124 79.0432 6.92059 78.7153 6.71997 78.3839C6.51562 78.5752 6.33728 78.746 6.17379 78.9032C5.95086 78.7563 5.75024 78.6264 5.55334 78.5C5.21524 78.8622 4.9143 79.1833 4.58734 79.5352C4.38672 79.3985 4.18234 79.2619 3.95199 79.1047C3.06402 79.1662 2.14261 79.2311 1.19519 79.296C1.02798 79.4634 0.842221 79.6479 0.65646 79.8358C0.203183 79.8666 -0.261264 79.9007 -0.721958 79.9315C-0.684818 79.6137 -0.904026 79.4703 -1.1864 79.46C-1.56165 79.4464 -1.91462 79.5318 -1.83658 80.01C-2.11151 80.0305 -2.38645 80.0476 -2.85459 80.0818C-3.0701 80.3893 -3.35617 80.7992 -3.71659 81.3151C-3.93579 80.8607 -4.07325 80.5737 -4.23673 80.2355C-4.74942 80.2697 -5.28073 80.3073 -5.98667 80.3585C-6.05356 80.4132 -6.24674 80.5737 -6.51426 80.789C-6.66288 80.6967 -6.85608 80.5772 -7.07898 80.4405C-7.40595 81.2194 -8.31623 80.789 -8.90696 81.1648C-8.94782 81.6123 -8.98871 82.0837 -9.0333 82.5825C-9.85068 82.2921 -9.25992 81.626 -9.99186 81.0486C-10.2371 80.9085 -10.8687 81.2399 -11.5003 81.1989C-11.6786 81.38 -11.8644 81.5645 -12.0428 81.7421C-12.2434 81.5952 -12.4515 81.4449 -12.6521 81.298C-13.2688 81.6943 -12.392 82.4561 -13.2205 82.8695C-13.3431 82.3776 -13.4583 81.9198 -13.5921 81.4005C-14.1271 81.6909 -14.6101 81.9505 -15.0819 82.2101C-15.0596 82.4834 -15.0374 82.7363 -15.0188 82.9891C-15.4795 83.0198 -15.9402 83.054 -16.3935 83.0847C-16.6053 82.931 -16.8133 82.7807 -17.0771 82.5894C-17.1737 82.9276 -17.2592 83.2282 -17.3557 83.5664C-17.8387 83.6723 -18.3403 83.7817 -18.9385 83.9115C-18.6413 84.1711 -18.4518 84.3351 -18.1546 84.5947C-18.5298 84.687 -18.8382 84.7587 -19.1243 84.827C-19.3175 84.4376 -19.455 84.1506 -19.6222 83.8124C-19.8414 84.014 -20.0197 84.1745 -20.2129 84.3488C-20.4061 84.2121 -20.6104 84.0618 -20.8408 83.8978C-20.9894 84.2599 -21.1343 84.6186 -21.2681 84.9398C-21.8551 85.2028 -22.0966 84.6904 -22.4941 84.5811C-22.836 85.0389 -23.2224 85.3327 -23.8317 84.9193C-23.6459 84.7006 -23.4824 84.5093 -23.2744 84.2668C-23.5642 84.2019 -23.8168 84.1472 -24.062 84.0891C-24.2775 84.2941 -24.467 84.4717 -24.6788 84.6733C-25.7451 84.7485 -26.8449 84.8236 -27.9558 84.9022C-28.1453 85.0867 -28.331 85.2677 -28.5168 85.4488C-28.7174 85.3053 -28.9255 85.1584 -29.1335 85.0115C-29.2524 85.1413 -29.3751 85.2677 -29.5348 85.4386C-29.8878 85.6948 -30.3708 85.5411 -30.8055 85.6265C-31.2328 85.7119 -31.7269 85.5547 -32.117 85.9305C-31.9127 86.115 -31.7269 86.279 -31.5411 86.4464C-31.582 86.501 -31.6229 86.6104 -31.6823 86.6206C-32.2136 86.7128 -32.7486 86.788 -33.5809 86.911C-33.7221 87.1433 -33.9933 87.584 -34.1902 87.8983C-34.7884 87.9393 -35.1488 87.9666 -35.5649 87.994C-35.7358 87.8744 -35.9476 87.7207 -36.1854 87.5533C-36.7092 87.5908 -37.2591 87.6284 -37.8127 87.666C-38.1211 87.8027 -38.1731 88.2707 -38.6412 88.2297C-38.7416 87.5738 -39.1762 87.7207 -39.715 87.9017C-39.6816 88.2912 -39.6481 88.6909 -39.6258 89.0018C-39.9565 89.3537 -40.198 89.6133 -40.4469 89.8832C-40.655 89.7329 -40.863 89.5825 -41.0748 89.4288C-41.3423 89.4459 -41.6173 89.4664 -41.8959 89.4869C-41.9814 89.1828 -41.7993 88.8207 -42.1634 88.5542C-42.6204 88.7626 -42.9399 89.0667 -43.0068 89.5621C-43.6496 89.6065 -44.2886 89.6509 -44.9277 89.6953C-45.1097 89.8764 -45.2918 90.0574 -45.4701 90.2317C-45.6745 90.0847 -45.8788 89.9378 -46.1389 89.7534C-46.2355 90.095 -46.3247 90.3956 -46.4287 90.7646C-46.83 90.8261 -47.261 90.891 -47.6919 90.9593C-47.9297 91.2155 -48.1712 91.4718 -48.4016 91.7212C-48.4684 91.9842 -48.1638 92.3839 -48.736 92.4488C-49.1149 92.015 -48.9255 91.4854 -49.1112 91.0447C-48.7657 90.9354 -48.331 90.9422 -48.7434 90.522C-48.8623 90.6689 -48.9775 90.8193 -49.1112 91.0447C-49.3044 91.1746 -49.5756 91.3385 -49.8654 91.5128C-50.7868 90.9525 -50.8351 90.9559 -51.2178 91.6767C-51.489 91.6972 -51.7603 91.7143 -52.0798 91.7382C-52.221 91.9125 -52.3808 92.1106 -52.5219 92.2849C-53.1127 92.3258 -53.6551 92.3634 -54.2087 92.401C-54.4094 92.2541 -54.6174 92.097 -54.8255 91.9432C-55.0001 92.1209 -55.1784 92.3019 -55.3568 92.483C-55.7172 92.5069 -56.0776 92.5342 -56.3265 92.5513C-56.7203 92.3771 -57.0287 92.2439 -57.2962 92.1755C-57.4151 91.8578 -57.4077 91.4581 -57.8647 91.8373C-57.7049 91.9466 -57.5414 92.0525 -57.2962 92.1755C-57.6455 93.0364 -58.5706 93.5352 -59.087 94.2936C-59.6889 94.3346 -60.2425 94.3756 -60.536 94.3961C-61.4129 94.8608 -62.0594 95.2775 -62.769 95.544C-63.1034 95.6704 -63.7275 95.831 -63.7944 95.1306C-63.2631 95.0179 -63.0254 94.6353 -62.8173 94.2253C-63.2371 93.9554 -63.5938 93.9554 -63.8539 94.4132C-63.8353 94.6524 -63.813 94.8915 -63.7944 95.1306C-64.14 95.2365 -64.2774 94.953 -64.4929 94.8163C-64.8533 94.5874 -65.1617 94.6455 -65.4627 94.9598C-65.2769 95.1272 -65.0948 95.2946 -64.9053 95.462C-65.1803 95.9198 -65.7227 95.6636 -66.1017 95.8207C-66.4807 95.9813 -66.8002 96.2649 -67.1346 96.4903C-67.4578 96.2717 -67.6733 96.1214 -67.8739 95.9847C-68.2158 96.1965 -68.5613 96.4083 -69.126 96.7568C-69.1409 96.8046 -69.2226 97.1087 -69.3452 97.5426C-70.092 97.6621 -70.9057 97.6758 -71.6859 97.7236C-71.9088 97.5699 -72.1132 97.4332 -72.3138 97.2966C-72.4587 97.4503 -72.5813 97.5801 -72.7002 97.71C-73.826 97.2556 -73.8929 97.2658 -74.231 98.0653C-73.8409 98.4069 -73.421 98.7793 -72.8897 99.2439C-73.3021 99.3361 -73.5511 99.3908 -73.774 99.442C-74.0935 99.1892 -74.4167 98.9979 -74.6397 98.7349C-74.7846 98.564 -74.7808 98.2839 -74.8514 98.014C-75.1635 98.0345 -75.4125 98.0516 -75.6354 98.0687C-76.0107 98.383 -75.732 98.7349 -75.7803 99.056C-76.4676 99.0252 -76.7203 98.3659 -77.3556 98.1438C-77.4113 98.3898 -77.4634 98.6187 -77.5154 98.8408C-77.2925 99.0355 -77.0955 99.2063 -76.9023 99.3771C-77.7346 99.6607 -78.3105 100.58 -79.4065 100.255C-79.4808 100.115 -79.5551 99.9784 -79.6703 99.8417C-79.3582 99.8212 -79.0833 99.8007 -78.8083 99.7802C-78.2411 99.1516 -78.1061 98.6381 -78.4034 98.2395C-78.7935 98.7861 -79.4623 99.1482 -79.6703 99.8383C-80.2759 99.8793 -80.9187 99.9237 -81.5614 99.9716C-81.7435 100.153 -81.9255 100.33 -82.1002 100.505C-82.3045 100.361 -82.5089 100.218 -82.7652 100.04C-82.8655 100.385 -82.9547 100.689 -83.0588 101.041C-83.3262 100.938 -83.5863 100.836 -83.8464 100.733C-83.9467 101.037 -84.0433 101.338 -84.1399 101.635C-84.9759 101.478 -84.987 100.692 -85.4812 100.235C-85.6298 100.607 -85.7747 100.959 -85.9196 101.318C-86.1537 101.143 -86.3691 100.986 -86.5661 100.843C-87.3537 100.754 -87.6547 101.833 -88.5204 101.488C-89.0294 101.485 -89.3192 100.723 -89.9805 101.164C-90.0697 101.437 -90.1663 101.734 -90.2852 102.107C-90.497 101.974 -90.6902 101.851 -90.8908 101.728C-91.136 101.898 -91.3961 102.076 -91.7491 102.322C-92.0389 102.155 -92.3324 101.987 -92.6519 101.806C-92.7856 102.134 -92.9305 102.493 -93.068 102.834C-93.2909 102.852 -93.473 102.862 -93.655 102.875C-93.7591 102.746 -93.8594 102.616 -94.0117 102.428C-93.8482 102.107 -93.6699 101.751 -93.4321 101.283C-93.6142 101.078 -93.8334 100.836 -94.0674 100.573C-93.9374 100.419 -93.7739 100.231 -93.6104 100.04C-93.8854 99.8247 -94.164 99.6026 -94.4687 99.36C-94.6433 99.524 -94.8217 99.688 -94.9814 99.8349C-95.2824 99.7017 -95.5833 99.565 -95.888 99.4318C-96.1778 98.7519 -96.6534 98.3146 -97.5711 98.5299C-97.6156 97.9901 -97.6491 97.5904 -97.6825 97.1702C-97.3296 96.9652 -97.2627 96.4152 -96.6979 96.4015C-96.6719 96.6987 -96.6459 96.9994 -96.6088 97.4162C-96.1518 97.3854 -95.8285 97.3649 -95.5016 97.3444C-95.4273 97.4845 -95.3901 97.6655 -95.2712 97.751C-94.7808 98.0994 -94.4204 98.6119 -93.7219 98.7861C-93.5659 98.6973 -93.3764 98.5879 -93.1906 98.4855C-93.7219 98.0516 -94.1975 97.6621 -94.6582 97.2829C-94.9591 97.3034 -95.2304 97.3239 -95.5016 97.341C-95.6428 97.1497 -95.7914 96.9618 -95.9214 96.7671C-96.0069 96.6372 -96.07 96.4937 -96.1406 96.3571C-95.8583 96.1794 -95.5722 95.9984 -95.2155 95.7729C-94.9517 95.7558 -94.5876 95.7285 -94.2272 95.7046C-93.6328 95.117 -94.3238 94.4098 -94.008 93.7983C-93.8557 93.7334 -93.7033 93.6309 -93.5436 93.6138C-92.9974 93.5557 -92.4475 93.5318 -91.9014 93.4908C-91.8716 93.8324 -91.8456 94.1741 -91.723 94.5055C-92.0797 94.5294 -92.3435 94.5499 -92.3992 94.5533C-92.9157 94.5567 -92.9677 94.0033 -93.5101 94.2971C-93.4581 94.5533 -93.3987 94.83 -93.3429 95.1033C-92.7299 95.0179 -92.154 95.2946 -91.723 94.5089C-91.6116 94.3859 -91.4072 94.2492 -91.1917 94.1297C-91.0505 94.0511 -90.8945 93.993 -90.7459 93.9281C-90.653 94.2356 -90.8536 94.6114 -90.5304 94.8266C-89.8728 95.2024 -89.661 94.4713 -89.1928 94.4405C-88.851 94.7173 -88.5204 95.0384 -88.0188 94.6284C-88.2157 94.2492 -88.3383 93.7914 -88.6393 93.484C-88.9142 93.2038 -89.1706 92.7734 -89.7204 92.8315C-89.6684 92.6811 -89.6647 92.4625 -89.5532 92.3976C-89.2003 92.1892 -88.8064 92.0355 -87.9668 91.6494C-87.6658 91.6289 -86.8596 91.5708 -86.1537 91.523C-85.9493 91.3044 -85.8267 91.1745 -85.6223 90.9525C-84.909 90.9012 -84.1028 90.8466 -83.2668 90.7885C-83.3374 90.2385 -84.3517 89.9208 -83.5715 89.3366C-83.3671 89.4801 -83.1628 89.627 -82.8767 89.8285C-82.8321 89.5279 -82.7875 89.299 -82.7652 89.0633C-82.7429 88.8241 -82.7466 88.585 -82.7355 88.3288C-82.0816 88.257 -82.3268 88.708 -82.2005 88.93C-82.1447 89.0257 -81.959 89.0599 -81.7918 89.1418C-81.5057 88.4517 -81.8438 87.789 -81.7992 87.133C-81.0153 86.9452 -80.8369 86.1799 -80.2573 85.7734C-80.8964 85.1174 -81.8178 85.9613 -82.5052 85.3771C-82.1411 85.1892 -81.7918 85.0081 -81.4685 84.8441C-81.6692 84.5742 -81.8624 84.318 -82.1262 84.0959C-81.7806 83.9866 -81.346 83.9935 -81.7584 83.5732C-81.8772 83.7202 -81.9924 83.8705 -82.1262 84.0959C-82.6092 84.1506 -82.5943 83.7646 -82.6761 83.4947C-82.4829 82.808 -81.4723 82.5791 -81.6915 81.7114C-81.3385 81.5269 -80.9744 81.339 -80.5583 81.1238C-80.993 80.97 -81.372 80.8368 -81.8066 80.6865C-81.4054 80.4678 -81.071 80.2902 -80.7032 80.092C-81.424 79.6172 -82.2042 80.2321 -82.8581 79.8358C-82.65 79.6081 -82.3788 79.4202 -82.0444 79.2721C-82.6909 78.7631 -83.3708 78.2233 -84.27 77.5161C-84.1845 77.5264 -84.4409 77.4956 -84.6749 77.4649C-84.7232 77.3726 -84.7975 77.2804 -84.779 77.2599C-84.3034 76.7372 -83.8204 76.2213 -83.3188 75.6884C-83.5046 75.5244 -83.6941 75.357 -83.891 75.1828C-83.917 74.8617 -83.9467 74.5234 -83.9764 74.1545C-83.8687 74.052 -83.7387 73.929 -83.6309 73.8265C-83.3337 73.2218 -83.5975 72.6445 -83.6086 72.0705C-83.891 71.8485 -84.1733 71.6264 -84.5412 71.336C-84.6266 71.6708 -84.701 71.9578 -84.7827 72.2618C-85.0688 72.5386 -85.3846 72.5625 -85.7821 72.2858C-85.6409 72.0979 -85.5035 71.9168 -85.3586 71.7255C-85.6744 71.0525 -86.514 71.1379 -87.0528 70.7723C-87.0825 70.4307 -87.1085 70.0925 -87.1382 69.7543C-87.0156 69.621 -86.893 69.4912 -86.711 69.2965C-86.9748 68.8797 -87.2571 68.4356 -87.6584 67.8035C-87.7476 68.5107 -87.8144 69.0368 -87.9222 69.8772C-88.2045 69.2794 -88.342 68.989 -88.4795 68.6986C-88.9142 68.4766 -89.3526 68.6542 -89.765 68.6918C-89.9694 68.8797 -90.1588 69.0539 -90.3261 69.2042C-90.8351 69.2384 -91.2957 69.2726 -91.8382 69.3101C-91.9868 69.4331 -92.18 69.5971 -92.3881 69.7679C-92.9008 69.5356 -93.447 69.3238 -94.2309 69.5015C-94.465 69.8158 -94.7734 70.236 -95.0149 70.5605C-95.4644 70.5913 -95.7431 70.6118 -96.0217 70.6323C-96.1666 70.1506 -96.5345 69.8943 -97.0398 69.7474C-97.3184 70.0651 -97.1104 70.3999 -97.1364 70.7108C-97.3444 70.8407 -97.5488 70.9773 -97.7605 71.0969C-97.9017 71.1754 -98.0578 71.2335 -98.1692 71.3702C-98.2881 71.0525 -98.2807 70.6528 -98.7377 71.032C-98.5779 71.1413 -98.4144 71.2472 -98.1692 71.3702C-98.2584 71.4488 -98.2844 71.7084 -98.3624 71.7255C-99.0163 71.845 -99.4287 72.2174 -99.7483 72.7367C-99.373 72.8665 -99.0052 72.9929 -98.6114 73.1296C-99.2095 73.7343 -100.06 73.2321 -100.655 73.642C-100.74 73.9392 -100.826 74.2365 -100.941 74.6328C-101.268 74.3765 -101.573 74.2091 -101.766 73.9632C-101.959 73.7206 -102.041 73.4063 -102.182 73.0954C-102.479 73.1569 -102.724 73.2082 -103.081 73.2833C-102.828 73.5874 -102.561 73.7889 -102.475 74.0417C-102.368 74.3663 -102.431 74.7148 -102.958 74.7148C-103.033 74.5781 -103.088 74.3355 -103.181 74.3219C-103.519 74.274 -103.557 74.5064 -103.516 74.7523C-103.701 74.766 -103.887 74.7797 -104.073 74.7899C-104.092 74.5576 -104.043 74.2945 -104.151 74.1101C-104.24 73.9597 -104.519 73.9051 -104.675 73.8777C-104.794 73.56 -104.786 73.1603 -105.243 73.5395C-105.084 73.6489 -104.92 73.7548 -104.675 73.8777C-104.686 74.1511 -104.656 74.4893 -104.627 74.8309C-104.954 74.8958 -105.325 74.7728 -105.723 75.1247C-105.689 75.5108 -105.652 75.9754 -105.615 76.44C-106.072 76.4707 -106.529 76.5049 -106.986 76.5356C-107.168 76.7201 -107.354 76.9046 -107.536 77.0891C-107.993 77.1198 -108.45 77.154 -109.066 77.2155C-108.64 76.6165 -108.535 76.0596 -108.751 75.5449C-109.081 75.8865 -109.364 76.1769 -109.631 76.4537C-109.453 76.8021 -109.341 77.0139 -109.063 77.2155C-108.829 77.3248 -108.769 77.5708 -108.673 77.5845C-108.242 77.6459 -107.8 77.6391 -107.291 77.663C-107.227 77.8988 -107.168 78.1276 -107.112 78.3326C-107.669 78.9202 -108.089 78.6298 -108.468 78.2028C-108.862 78.2301 -109.223 78.254 -109.639 78.2848C-109.966 78.6196 -110.33 78.9886 -110.686 79.3507C-110.891 79.2072 -111.095 79.0603 -111.37 78.869C-111.437 79.1525 -111.489 79.3814 -111.545 79.6069C-111.318 79.8051 -111.121 79.9759 -110.868 80.1945C-111.192 80.3209 -111.493 80.4405 -111.805 80.5635C-112.109 81.0349 -111.831 81.5371 -111.86 82.0222C-112.046 82.0359 -112.232 82.0496 -112.418 82.0598C-112.518 81.7524 -112.343 81.4107 -112.674 81.1135C-112.971 80.8436 -113.142 80.4542 -113.369 80.1159C-113.804 79.9007 -114.428 80.5054 -114.781 79.8495C-114.235 79.4088 -113.547 79.6547 -112.938 79.5249C-112.726 79.6787 -112.514 79.8324 -112.173 80.0784C-112.139 79.7026 -112.117 79.4088 -112.087 79.074C-112.47 79.0261 -112.726 78.9954 -113.008 78.9612C-113.365 78.6811 -113.358 78.5342 -112.864 77.8919C-112.57 78.0149 -112.258 78.1481 -111.901 78.2985C-111.511 78.0798 -111.043 77.8168 -110.564 77.5469C-110.883 77.2941 -111.162 77.072 -111.444 76.8499C-111.567 76.9798 -111.686 77.1096 -111.898 77.3351C-112.421 77.3726 -113.042 77.4136 -113.529 77.4478C-113.826 77.7177 -114 77.8783 -114.253 78.1106C-114.361 77.8099 -114.439 77.5845 -114.543 77.2975C-114.201 77.1608 -113.893 77.0378 -113.581 76.9114C-113.239 76.5288 -113.57 76.1018 -113.491 75.6986C-112.834 75.3878 -113.038 74.6737 -112.685 74.1818C-112.392 73.7753 -112.592 73.0647 -112.577 72.4907C-112.231 72.5226 -111.961 72.608 -111.768 72.7469C-111.389 72.7196 -111.024 72.6957 -110.653 72.6684C-110.304 72.0808 -109.497 71.7972 -109.408 71.0456C-108.899 71.0115 -108.39 70.9739 -108.008 70.9466C-107.636 70.5332 -107.852 70.2086 -107.822 69.9046C-107.294 69.6074 -106.767 69.3136 -106.246 69.0198C-106.488 68.5381 -107.432 69.153 -107.391 68.3297C-107.12 68.3092 -106.845 68.3023 -106.573 68.2647C-106.503 68.2545 -106.388 68.1315 -106.399 68.0939C-106.443 67.9744 -106.529 67.783 -106.614 67.7762C-106.882 67.7523 -107.157 67.7967 -107.432 67.8172C-107.365 67.2774 -106.96 66.9836 -106.395 66.6522C-106.15 66.7787 -105.853 66.9324 -105.492 67.1169C-105.254 66.9085 -104.968 66.6557 -104.463 66.2115C-105.344 66.1603 -105.856 66.1296 -106.466 66.0954C-106.161 65.3643 -105.507 65.7913 -105.024 65.5556C-104.983 65.3916 -104.924 65.1696 -104.872 64.9475C-104.809 64.6879 -104.693 64.4829 -104.348 64.5171C-104.274 64.6537 -104.218 64.8963 -104.125 64.9099C-103.787 64.9578 -103.75 64.7254 -103.791 64.4795C-103.538 64.4624 -103.252 64.5068 -103.051 64.4077C-102.888 64.3257 -102.828 64.0695 -102.721 63.8919C-102.386 63.803 -101.97 63.9978 -101.669 63.5981C-101.825 63.4477 -101.985 63.2872 -102.152 63.1232C-101.662 62.2213 -101.216 63.1232 -100.744 63.1744C-100.376 62.7987 -100.703 62.3716 -100.629 61.907C-100.447 61.8182 -100.228 61.7088 -99.8263 61.5141C-99.5031 61.8933 -99.1649 62.2896 -98.8752 62.6312C-98.3624 62.375 -98.355 62.375 -98.511 61.2647C-98.6931 61.0905 -98.8603 60.9299 -99.1092 60.6908C-98.76 60.5985 -98.5148 60.5302 -98.2918 60.4721C-98.0429 60.6566 -97.8311 60.8138 -97.6231 60.9709C-96.7537 61.0222 -96.6162 60.1442 -95.9846 59.8948C-95.8434 60.0041 -95.7059 60.1168 -95.5647 60.2262C-94.5281 59.8709 -94.87 58.6137 -93.9708 58.1627C-93.7665 58.313 -93.5547 58.4668 -93.3467 58.6171C-92.8897 58.5863 -92.429 58.5522 -91.972 58.5214C-91.9088 59.2525 -91.3626 58.8494 -91.058 59.0578C-90.9093 58.5693 -90.8165 58.272 -90.7384 58.009C-90.17 57.6981 -89.8542 58.0261 -89.5235 58.3096C-89.204 57.7698 -88.8882 57.2335 -88.5649 56.6903C-88.2826 56.8953 -88.0782 57.0422 -87.8739 57.1891C-87.7401 57.049 -87.6212 56.9192 -87.5023 56.7928C-86.815 56.3862 -86.202 56.6766 -85.522 57.0182C-85.4812 56.7552 -85.4477 56.5229 -85.3994 56.2018C-85.039 55.8294 -84.6118 55.3887 -84.1659 54.9275C-83.7758 55.2178 -83.3671 55.5219 -83.0253 55.7747C-82.6352 55.5561 -82.2711 55.3511 -81.7658 55.0675C-81.7249 54.9275 -81.6395 54.6268 -81.5428 54.2989C-81.4128 54.333 -81.2382 54.333 -81.1602 54.4116C-80.9261 54.6473 -80.4728 54.7225 -80.4319 55.1188C-80.7775 55.2281 -81.2122 55.2213 -80.7998 55.6415C-80.6809 55.4946 -80.5657 55.3443 -80.4319 55.1188C-79.6443 54.8933 -79.3656 54.3296 -79.5217 53.5404C-79.0647 53.4345 -78.9384 53.8855 -78.4516 54.029C-78.0207 54.1383 -77.872 53.5883 -77.4485 53.373C-77.1401 53.3525 -76.776 53.3252 -76.4713 53.3047C-76.2559 53.1134 -76.0812 52.9597 -75.8212 52.7274C-75.7171 53.0485 -75.6465 53.274 -75.5462 53.5849C-75.1375 54.0358 -74.6062 53.5097 -74.179 53.7249C-73.8 53.1442 -74.5171 53.192 -74.4725 52.8162C-74.2793 52.7513 -74.0378 52.6693 -73.8074 52.5907C-73.5622 52.7683 -73.3467 52.9221 -73.1201 53.0895C-72.704 53.0246 -72.2321 53.1407 -71.8457 52.8982C-71.8643 52.1329 -72.6816 52.8401 -72.8377 52.355C-72.7634 52.2525 -72.7002 52.0612 -72.5999 52.0441C-72.2432 51.9826 -71.8754 51.9792 -71.5336 51.9553C-71.1583 51.3916 -71.1918 50.6366 -70.4227 50.3325C-70.0586 50.3189 -69.6759 50.2949 -69.6053 50.763C-69.9508 50.8723 -70.3855 50.8655 -69.9731 51.2857C-69.8542 51.1388 -69.739 50.9885 -69.6053 50.763C-69.2115 50.8689 -69.204 50.3428 -68.8139 50.2847C-68.7099 50.3667 -68.5687 50.476 -68.3421 50.6571C-68.186 50.5307 -68.0188 50.394 -67.8256 50.2369C-67.2535 50.1105 -66.6107 49.7996 -66.1871 50.5204C-65.797 50.2779 -65.4589 50.066 -65.1431 49.8679C-64.8199 50.107 -64.6044 50.2642 -64.3963 50.4179C-64.2217 50.2471 -64.0396 50.0695 -63.8576 49.8918C-63.5009 50.1651 -63.2 50.5512 -62.6092 50.1822C-62.5349 49.9533 -62.442 49.6493 -62.3232 49.2735C-62.1076 49.4067 -61.9107 49.5297 -61.7324 49.6424C-61.0896 49.2837 -60.4431 48.925 -59.8301 48.4945C-59.7112 48.8123 -59.7187 49.212 -59.2617 48.8328C-59.4214 48.7234 -59.5849 48.6175 -59.8301 48.4945C-59.6964 48.3681 -59.5997 48.1734 -59.4511 47.8762C-59.0461 48.0743 -58.7452 48.2178 -58.4183 48.3784C-58.2139 48.2315 -57.9538 48.047 -57.6046 47.801C-57.3074 47.9753 -57.0175 48.1427 -56.6646 48.3442C-56.5903 48.0607 -56.5123 47.7669 -56.4305 47.4628C-55.9661 47.1178 -55.3902 47.292 -54.8701 47.1929C-54.8775 47.7361 -54.2013 47.7361 -54.049 48.1973C-53.8037 47.9684 -53.6254 47.801 -53.4285 47.6166C-52.5368 47.5551 -51.6154 47.4902 -50.694 47.4252C-50.3224 47.046 -49.9546 46.6702 -49.4976 46.2056C-49.1447 46.3559 -48.7768 46.5165 -48.4053 46.6737C-48.2864 46.5473 -48.1675 46.4174 -48.0449 46.2876C-47.6734 46.4345 -47.3055 46.5814 -46.8783 46.7488C-46.6813 46.3013 -46.5253 45.946 -46.3618 45.5736C-46.1426 45.7342 -45.9345 45.8845 -45.7191 46.0382C-45.4515 46.0211 -45.1766 46.0006 -44.8979 45.9801C-44.8236 46.1168 -44.7679 46.3594 -44.675 46.373C-44.3369 46.4208 -44.2998 46.1885 -44.3406 45.9426C-44.1549 45.9289 -43.9691 45.9152 -43.787 45.9016C-43.5369 46.2364 -43.1629 46.3081 -42.665 46.1168C-42.9697 45.6829 -43.4118 45.9323 -43.787 45.9016C-43.8576 45.7683 -43.9134 45.5258 -44.0063 45.5121C-44.3444 45.4643 -44.3815 45.6966 -44.3406 45.9426C-44.5264 45.9562 -44.7122 45.9699 -44.8979 45.9801C-44.9202 45.7273 -44.9388 45.4745 -44.9611 45.191C-44.9128 45.1466 -44.8571 45.0509 -44.7828 45.0304C-44.5264 44.9689 -44.2626 44.9074 -44.0026 44.8938C-43.6459 44.8733 -43.096 44.7639 -42.9659 44.9245C-42.3864 45.6453 -41.268 44.8323 -40.7925 45.6385C-40.224 45.2935 -39.663 44.9518 -39.0834 44.5999C-38.9385 44.7059 -38.7304 44.8562 -38.4146 45.0885C-38.3626 44.535 -38.3143 44.0636 -38.2623 43.5307C-37.861 43.6605 -37.4969 43.8689 -37.1291 43.8723C-36.6572 43.8757 -36.3005 43.9645 -35.8844 44.2002C-35.5686 44.3813 -35.041 44.2481 -34.7178 44.2515C-34.2682 43.862 -34.5394 43.5136 -34.4948 43.1958C-34.3314 43.2437 -34.0936 43.2471 -34.023 43.3496C-33.8484 43.5956 -33.7555 43.8859 -33.6106 44.1934C-33.2502 43.8074 -32.9455 43.4828 -32.6409 43.1549C-32.273 43.2915 -31.9015 43.4282 -31.4037 43.6092C-31.1213 43.1344 -30.8538 42.6868 -30.694 42.4169C-30.0104 42.3691 -29.6425 42.3452 -29.2784 42.3179C-29.0853 42.1265 -28.8995 41.9421 -28.6803 41.7268C-28.4536 41.761 -28.1973 41.7986 -27.8554 41.8498C-28.0635 42.1163 -28.2084 42.3008 -28.3756 42.5092C-28.1267 42.7176 -27.8629 42.9328 -27.6028 43.148C-27.0938 43.1309 -26.5216 43.4145 -26.1501 42.8303C-26.5216 42.6971 -26.8895 42.5638 -27.2982 42.4169C-26.7 41.9181 -26.0126 42.1709 -25.4367 42.048C-25.0912 41.8976 -25.0392 41.4262 -24.5711 41.4706C-24.4968 41.6073 -24.441 41.8498 -24.3481 41.8635C-24.01 41.9113 -23.9729 41.679 -24.0138 41.433C-23.7351 41.2588 -23.4564 41.0812 -23.1332 40.8796C-23.0106 41.1461 -22.8768 41.433 -22.7393 41.7268C-22.1263 41.9489 -21.5096 41.7337 -20.8928 41.7132C-20.7739 41.5868 -20.655 41.4569 -20.5361 41.3305C-20.3801 41.2725 -20.2241 41.1802 -20.0606 41.1666C-19.4252 41.1085 -18.7899 41.0709 -18.188 41.0299C-17.9465 41.2041 -17.7347 41.3545 -17.4932 41.5321C-17.2629 41.4535 -17.0251 41.375 -16.7204 41.2725C-16.9657 41.0538 -17.144 40.8898 -17.326 40.7259C-17.2889 40.6712 -17.2517 40.5619 -17.2034 40.555C-16.23 40.432 -15.2529 40.3227 -14.3983 40.2237C-14.0788 40.4321 -13.8819 40.5585 -13.6515 40.7088C-13.5363 40.3501 -13.4435 40.0528 -13.3431 39.742C-12.9084 39.6053 -12.4738 39.4652 -12.3065 40.0767C-12.6521 40.1861 -13.0868 40.1792 -12.6744 40.5994C-12.5555 40.4525 -12.4403 40.3022 -12.3065 40.0767C-11.7344 40.0665 -11.0842 40.0221 -10.4451 39.9777C-10.2259 40.1383 -10.0104 40.2954 -9.7095 40.5209C-9.43826 40.3774 -9.14102 40.2202 -8.55026 39.9059C-8.27161 39.8854 -7.65115 39.8445 -6.98984 39.7966C-6.85236 40.0699 -6.70746 40.3569 -6.56256 40.6507C-5.98294 40.5892 -6.30249 40.1793 -6.22073 39.9128C-5.91608 39.4755 -5.38477 39.7283 -4.83487 39.5028C-4.76059 39.4345 -4.57111 39.2569 -4.38162 39.0792C-4.05093 39.1441 -3.92834 39.6087 -3.48621 39.4926C-3.42307 40.2339 -2.87317 39.8137 -2.56851 40.0323C-2.41989 39.5336 -2.33072 39.2329 -2.24155 38.9323C-1.57651 39.0724 -1.37958 39.8274 -0.662506 39.8103C-0.569611 40.456 -0.134949 40.3159 0.299774 40.1792C0.675018 39.783 0.258911 39.3593 0.478119 38.8981C0.522705 38.8674 0.68988 38.6692 0.793915 38.6932C1.53329 38.8742 2.2355 39.1783 3.0343 39.1578C3.16806 39.1543 3.30923 39.3593 3.45044 39.4721C3.84055 39.3491 3.93344 38.7171 4.65793 39.0519C4.7731 39.2398 4.97745 39.5711 5.16693 39.8752C5.45676 39.6907 5.73538 39.5165 6.01404 39.3423C6.08835 39.4789 6.1441 39.7215 6.23697 39.7351C6.57507 39.783 6.61221 39.5507 6.57135 39.3047C7.2587 39.1988 7.36646 38.4643 7.94977 38.2422C8.09094 38.3549 8.23215 38.4643 8.39563 38.5941C8.65198 38.4301 8.91577 38.2627 9.29102 38.027C9.53995 38.1602 9.83719 38.3174 10.1753 38.4984C10.3053 38.1807 10.4502 37.8288 10.5988 37.4701C10.9035 37.7093 11.2267 37.9006 11.4496 38.1636C11.5983 38.3379 11.602 38.6146 11.68 38.8845C11.9698 38.8845 12.2225 38.8845 12.4974 38.8811C12.6014 38.5462 12.698 38.2456 12.8169 37.8698C13.0324 38.0031 13.2293 38.126 13.4634 38.2729C13.6232 38.1295 13.7978 37.9689 13.9761 37.8083C14.3031 37.8732 14.4257 38.3379 14.8344 38.15C14.9533 38.4677 14.9458 38.8674 15.4028 38.4882C15.2431 38.3789 15.0796 38.2729 14.8344 38.15C14.9235 38.0714 14.9458 37.8117 15.035 37.7912C15.4511 37.6888 15.8858 37.6478 16.2797 37.5931C16.4729 37.9826 16.6141 38.2661 16.7367 38.5155C17.3497 38.7444 17.6098 38.3754 17.907 38.027C18.2525 38.0031 18.6129 37.9791 18.9808 37.9518C19.174 37.7639 19.3597 37.5863 19.5566 37.3984C19.7536 37.5419 19.9616 37.6956 20.1734 37.8493C20.4409 37.8322 20.7196 37.8117 20.9945 37.7912C20.9945 38.3003 21.3772 38.2695 21.797 38.2559C21.9679 38.1021 22.1574 37.9279 22.3729 37.7366C22.4695 37.822 22.6181 37.9006 22.6813 38.0201C22.7928 38.2285 22.8522 38.4643 22.9823 38.8264C23.1866 38.3242 23.3315 37.9723 23.4764 37.617C23.7179 37.7913 23.9334 37.945 24.2009 38.1397C24.4164 38.0372 24.6467 37.9313 24.8696 37.8117C24.9997 37.74 25.1149 37.6443 25.2375 37.5589C25.5979 37.8459 25.9508 38.1226 26.3149 38.4096C26.6605 38.2046 26.8685 37.8322 27.3998 37.8288C27.6933 37.8288 27.7825 37.2583 28.3844 37.2856C28.3287 37.2891 28.455 37.2446 28.507 37.2856C29.0792 37.7195 29.6365 38.1705 30.1418 38.5668C30.6396 38.0065 31.1413 37.4428 31.6688 36.8518C32.3748 37.1148 32.8503 37.2925 33.285 37.453C33.8498 37.3984 33.9984 36.5682 34.7377 36.9235C34.8678 37.1763 35.0127 37.4633 35.1279 37.6819C35.674 37.4906 36.2165 37.3027 36.7218 37.1251C37.0301 37.3369 37.2456 37.4872 37.4611 37.6341C37.7769 37.5214 37.8215 37.0465 38.2785 37.1012C38.3528 37.2378 38.4085 37.4804 38.5014 37.494C38.8395 37.5419 38.8767 37.3096 38.8358 37.0636C39.2779 36.9474 39.4043 37.4086 39.7461 37.4804C39.8613 37.3574 39.9839 37.2276 40.1288 37.0738C40.4892 37.1832 40.8644 37.3915 41.2397 37.3881C41.7264 37.3881 42.1462 37.3984 42.5809 37.945C42.8224 37.4291 43.0379 36.9679 43.272 36.4623C43.703 36.8449 43.8367 36.9611 44.0559 37.1524C44.643 36.821 45.2449 36.4794 45.843 36.1412C46.4226 36.4384 46.5824 37.0294 46.9539 37.5043C47.3032 37.4804 47.6673 37.453 48.0834 37.4257C48.232 37.2788 48.4215 37.0977 48.6073 36.9167C48.8116 37.0636 49.0234 37.2139 49.2241 37.3608C49.4135 37.3471 49.5993 37.3335 49.8408 37.3164C49.9263 37.0226 50.0117 36.7185 50.1269 36.3222C50.3981 36.4384 50.6508 36.5511 50.9851 36.6946C51.0223 36.435 51.0557 36.1992 51.1115 35.8166C51.327 35.7654 51.6353 35.6902 52.0069 35.6014C52.1109 35.943 52.1852 36.1719 52.2707 36.4555C53.0769 36.8552 54.0057 36.2881 54.8677 36.5819C55.0089 36.6946 55.1501 36.8039 55.2913 36.9167C55.6777 36.3359 56.5248 36.3632 56.9892 35.8235C57.1415 35.6458 57.6877 35.7483 57.9961 35.7278C58.2487 35.8986 58.4531 36.0318 58.6611 36.1753C58.9658 35.5467 59.564 35.639 60.1621 35.5775C60.3405 35.6902 60.5597 35.8303 60.8272 35.9977C60.9795 35.861 61.1579 35.7039 61.3696 35.5126C62.0533 35.4647 62.7889 35.4135 63.5692 35.3588C63.7438 35.4852 63.9593 35.639 64.2008 35.8132C64.3494 35.4545 64.4943 35.0958 64.6243 34.7815C65.2188 34.5628 65.5086 34.966 65.9136 35.2393C66.3631 35.0172 66.8053 34.6312 67.2697 34.6073C67.8939 34.5731 68.1874 34.1187 68.6667 33.9786C69.172 33.8317 69.7887 33.9786 70.0934 33.3603C70.3052 33.5038 70.5095 33.6404 70.7399 33.7976C71.2563 33.76 71.8062 33.7224 72.3858 33.6814C72.5493 33.5174 72.735 33.3295 72.9245 33.1417C73.3778 33.1109 73.8422 33.0767 74.2658 32.9777C74.3847 33.2954 74.3772 33.6951 74.8342 33.3159C74.6745 33.2066 74.511 33.1007 74.2658 32.9777C74.355 32.8957 74.4107 32.7454 74.4776 32.5575C75.1909 32.5062 75.9228 32.4584 76.6065 32.4106C77.1043 31.9289 77.6542 31.7068 78.3527 31.741C78.5459 31.881 78.7614 32.0313 78.9806 32.1885C79.159 32.0143 79.3447 31.8366 79.5305 31.6556C79.8091 31.6351 80.0878 31.618 80.3627 31.5975C81.1058 31.2012 81.808 30.6272 82.6106 30.4633C83.48 30.2822 84.1041 29.5477 85.111 29.6878C85.4454 29.7322 85.895 29.1172 86.2145 29.1753C87.0839 29.329 87.4257 28.3417 88.1688 28.5023C88.9602 28.6731 89.0791 27.6072 89.837 27.8361C90.1974 27.228 90.9888 27.2007 91.4829 26.801C91.6798 26.9171 91.8693 27.0333 92.2186 27.2417C92.2186 26.6609 92.2148 26.2578 92.2111 25.7863C92.4303 25.7112 92.6718 25.6258 92.9096 25.5438C93.3629 25.882 93.7827 26.1929 94.2546 26.5448C94.3549 26.2065 94.4404 25.9025 94.5555 25.513C94.8676 25.472 95.2206 25.4276 95.711 25.3627C96.2312 25.0587 96.5842 24.4574 97.0523 23.9654C97.0523 23.7878 97.0523 23.6204 97.0523 23.4564C97.4944 23.207 97.9365 22.9576 98.531 22.6228C98.962 22.5852 99.5936 22.5545 100.433 22.4828C100.069 22.1275 99.902 21.9669 99.7385 21.8063C100.088 21.5376 100.515 21.5603 101.02 21.8746C101.488 21.4476 101.266 20.6004 102.031 20.3373C102.395 20.3134 102.763 20.2861 103.101 20.2621C104.097 19.5686 103.981 18.2055 105.627 17.5086C105.453 17.5291 105.809 17.4881 106.408 17.4198C106.935 16.7365 107.571 15.9098 108.113 15.2094C109.187 15.3392 109.477 14.2119 110.483 14.6491C111.353 13.7199 112.248 12.7633 113.099 11.8512C114.203 11.5096 115.076 10.9869 115.741 10.1328C115.945 10.2729 116.149 10.4095 116.35 10.5462C116.718 9.8663 116.814 8.95416 117.951 8.88583C118.375 8.43146 118.832 8.001 119.218 7.5193C120.463 5.97855 122.257 4.82041 122.997 2.92777C123.71 2.31284 124.097 1.4041 125.178 1.10346C125.553 1.00098 125.795 0.491946 126.118 0.143489C126.831 0.0922421 127.563 0.0409879 128.343 -0.010251C128.693 0.129817 128.941 0.632014 129.514 0.396289C130.208 0.949733 130.911 1.51001 131.609 2.06687C131.706 3.25575 131.806 4.44803 131.903 5.62325C131.735 5.82481 131.576 6.01612 131.416 6.20402C131.576 6.33042 131.717 6.43975 131.899 6.58324C131.65 7.12643 131.394 7.68328 131.048 8.43145C131.1 9.05664 131.171 9.90047 131.238 10.7477C131.063 10.9595 130.896 11.1577 130.714 11.3797C130.781 12.1996 130.851 13.0469 130.922 13.8873C130.743 14.0957 130.576 14.2904 130.409 14.4886C130.55 14.6013 130.691 14.7106 130.851 14.837C131.174 15.3597 131.063 15.9542 131.089 16.5281C130.966 16.6579 130.847 16.7878 130.677 16.9688C130.851 17.1875 131.037 17.4164 131.304 17.7477C131.167 17.9835 131.007 18.2636 130.777 18.6599C130.847 19.5345 130.933 20.5491 131.015 21.5672C130.84 21.779 130.673 21.9771 130.509 22.1753C130.691 22.3359 130.881 22.5033 131.067 22.6741C130.944 22.8039 130.825 22.9337 130.613 23.1626C130.625 23.6409 130.639 24.2182 130.651 24.7922C130.346 25.1167 130.045 25.4413 129.592 25.9264C130.06 26.1553 130.528 26.3808 130.996 26.6097C130.502 27.1699 130.16 27.556 129.829 27.9284C130.078 28.9703 129.298 29.7322 129.053 30.6272C129.194 30.74 129.335 30.8493 129.473 30.9586C129.38 31.3959 128.923 31.2319 128.626 31.4028C128.269 31.9459 128.626 32.5335 128.581 33.1075C127.987 33.7327 127.99 34.5663 127.47 35.2769C128.013 35.4169 128.343 35.5023 128.678 35.5911C128.763 35.9294 128.529 35.9704 128.254 35.9806C128.161 35.9806 128.068 35.9943 127.979 35.9977C127.708 36.7527 127.114 37.4291 127.344 38.3481C126.995 38.5326 126.631 38.7273 126.263 38.9221C126.474 39.1031 126.671 39.2739 126.865 39.4448C127.024 40.169 126.304 40.4457 125.928 40.9923C126.069 41.1324 126.226 41.2896 126.385 41.4535C126.099 42.0514 125.679 42.5365 124.847 42.4409C125.025 43.148 125.066 43.2334 125.505 43.6502C125.2 43.9748 124.899 44.2993 124.591 44.6307C124.364 45.1397 124.877 45.8367 124.089 46.2466C124.275 46.4243 124.45 46.5848 124.62 46.7488C124.052 47.169 124.409 48.0299 123.632 48.3408C124.071 48.6859 124.424 48.966 124.791 49.2564C124.732 49.376 124.695 49.5126 124.609 49.6185C124.056 50.2813 123.472 51.5897 123.45 52.2593C123.086 52.4894 123.008 52.8333 123.216 53.2911C123.688 53.0109 123.417 52.6044 123.45 52.2593C123.725 52.2423 124 52.2218 124.308 52.2013C124.45 51.8562 124.591 51.5043 124.736 51.149C124.973 51.3096 125.178 51.4497 125.378 51.5863C125.523 51.4326 125.642 51.3028 125.824 51.1115C126.006 51.2208 126.196 51.3403 126.567 51.5658C126.798 51.1764 127.05 50.7493 127.214 50.4692C127.838 50.4248 128.206 50.4009 128.652 50.3701C128.73 50.0866 128.815 49.7893 128.897 49.4921C129.495 48.7815 129.818 49.5639 130.309 49.721C130.398 49.4136 130.487 49.1129 130.573 48.8089C131.197 48.2691 131.509 49.0002 131.988 49.1027C132.348 49.0651 132.731 49.0378 132.646 48.539C132.798 48.4672 133.069 48.4126 133.084 48.3237C133.151 47.924 133.147 47.5175 133.173 46.9538C133.519 47.1383 133.775 47.2784 134.032 47.415C135.038 47.0597 135.934 46.5643 136.58 45.7137C137.112 45.6761 137.658 45.6385 138.256 45.5975C138.408 45.2422 138.561 44.8835 138.717 44.5214C138.94 44.6785 139.148 44.8254 139.374 44.986C139.519 44.6341 139.664 44.2891 139.809 43.944C140.054 44.1046 140.255 44.2344 140.481 44.3813C140.6 44.026 140.701 43.7254 140.827 43.3598C141.039 43.4931 141.236 43.6195 141.574 43.8347C141.83 43.4418 142.105 43.0216 142.373 42.6185C142.718 42.8645 142.926 43.0148 143.127 43.1549C143.732 42.7996 143.825 42.2085 144.007 41.6619C144.379 41.802 144.75 41.9455 145.181 42.1095C145.371 41.679 145.527 41.3271 145.713 40.9103C145.939 41.2793 146.14 41.6039 146.46 42.1266C146.552 41.4057 146.619 40.8796 146.694 40.2988C147.017 40.5209 147.221 40.661 147.407 40.7874C147.626 40.5926 147.816 40.4184 147.987 40.2647C148.406 40.251 148.793 40.2203 148.863 40.6951C148.518 40.8044 148.083 40.7976 148.496 41.2178C148.614 41.0709 148.73 40.9206 148.863 40.6951C149.424 40.6439 149.532 40.0153 149.978 39.7488C150.383 39.5028 150.84 39.3218 151.275 39.1134C151.408 39.2193 151.55 39.3286 151.747 39.4858C151.899 39.1305 152.044 38.7957 152.185 38.4711C152.542 38.5394 152.664 39.0075 153.069 38.8196C153.188 39.1373 153.181 39.537 153.638 39.1578C153.478 39.0485 153.314 38.9426 153.069 38.8196C153.021 38.6009 153.24 38.3379 153.444 38.372C154.228 38.5155 154.667 37.9689 155.246 37.7093C155.246 38.2115 155.625 38.1876 156.012 38.1739C156.666 37.7947 156.918 36.9167 157.844 36.9235C157.899 36.6263 157.948 36.394 157.992 36.1446C158.33 35.7312 158.865 36.0626 159.222 35.8474C159.482 36.0353 159.69 36.1856 159.902 36.3393C160.299 35.8542 160.166 35.065 160.95 34.802C161.091 34.9113 161.228 35.024 161.559 35.2837C161.793 34.8532 162.027 34.4194 162.22 34.0675C162.83 34.334 163.205 34.4979 163.621 34.6824C163.814 34.2041 163.959 33.8454 164.104 33.4867C164.338 33.6507 164.542 33.7908 164.732 33.924C164.944 33.7293 165.133 33.555 165.274 33.4252C165.98 33.1622 166.344 34.211 167.121 33.6473C167.143 33.4799 167.177 33.2442 167.214 32.964C167.842 32.455 168.473 32.5472 169.157 33.1622C169.532 32.3491 170.376 32.0382 171.1 31.6316C171.631 31.3344 172.059 31.1158 172.159 30.4872C172.2 30.2344 172.56 30.026 172.772 29.8005C173.002 29.9816 173.143 30.0943 173.326 30.2378C173.496 30.0875 173.671 29.9337 173.853 29.7732C174.232 29.8791 174.47 30.3915 175.023 30.1456C175.191 29.9747 175.376 29.7903 175.562 29.6024C175.833 29.5819 176.108 29.5648 176.383 29.5443C176.458 29.6809 176.513 29.9235 176.606 29.9372C176.944 29.985 176.981 29.7527 176.941 29.5067C177.624 29.3632 177.78 28.6697 178.378 28.3554C178.683 28.3349 179.047 28.3076 179.352 28.2871C179.567 28.0958 179.742 27.942 179.913 27.7917C180.095 27.9352 180.236 28.0479 180.426 28.1983C180.593 28.0514 180.767 27.9044 180.972 27.7234C181.154 27.8464 181.355 27.983 181.596 28.1436C181.741 27.7917 181.882 27.4398 182.012 27.1221C182.584 26.9103 182.896 27.2519 183.287 27.6072C183.587 27.4569 183.885 27.3066 184.628 26.9342C184.747 26.9205 185.363 26.8522 185.98 26.7805C186.281 26.4594 186.582 26.1382 186.883 25.8137C187.314 25.4994 187.998 25.9025 188.354 25.3593C188.648 24.9118 189.172 25.1065 189.807 24.963C189.978 24.6624 190.231 24.208 190.442 23.8356C191.011 24.0884 191.315 24.2251 191.583 24.29C191.702 24.6077 191.694 25.0074 192.151 24.6282C191.992 24.5189 191.828 24.413 191.583 24.29C191.535 24.0748 191.713 23.88 191.962 23.8356C192.382 23.7571 192.816 23.7639 193.21 23.6648C193.329 23.9825 193.322 24.3822 193.779 24.003C193.619 23.8937 193.456 23.7878 193.21 23.6648C193.299 23.5862 193.311 23.3403 193.407 23.3095C193.738 23.2002 194.095 23.1694 194.47 23.1045C194.685 23.2412 194.901 23.3778 195.135 23.5247C195.54 23.3266 195.837 22.9474 196.443 22.961C196.799 22.9679 197.145 22.5067 197.539 22.4315C198.066 22.329 198.52 22.2812 198.962 21.8781C199.214 21.6458 199.761 21.6184 199.991 21.2324C200.437 21.393 200.749 22.0796 201.354 21.4715C201.522 21.3041 201.767 21.2016 201.979 21.0684C202.053 21.2051 202.109 21.4476 202.202 21.4613C202.54 21.5091 202.577 21.2768 202.536 21.0308C202.818 20.8532 203.097 20.6789 203.457 20.4535C203.621 20.4432 203.892 20.4227 204.163 20.4056C204.238 20.5423 204.293 20.7849 204.386 20.7985C204.724 20.8463 204.761 20.614 204.721 20.3681C204.996 20.3476 205.274 20.3305 205.542 20.31C205.727 20.1221 205.913 19.9376 206.099 19.7497C206.653 19.7121 207.202 19.6711 207.73 19.637C207.931 19.4422 208.116 19.2612 208.38 19.0015C208.674 19.1109 208.99 19.2304 209.458 19.4081C209.759 19.1211 210.16 18.7419 210.632 18.2909C210.977 18.472 211.275 18.6292 211.668 18.8341C211.91 18.8171 212.274 18.7931 212.672 18.7658C213.062 18.6052 212.894 18.226 212.972 17.9322C213.507 17.4471 214.221 17.8332 214.693 17.5803C215.135 17.7102 215.261 18.1645 215.681 17.9869C215.8 18.3046 215.792 18.7043 216.249 18.3251C216.09 18.2158 215.926 18.1099 215.681 17.9869C215.77 17.9049 215.789 17.6555 215.885 17.6248C216.223 17.5189 216.588 17.4881 216.959 17.4266C217.182 17.5735 217.401 17.717 217.624 17.8673C218.066 17.7273 217.828 17.3412 217.97 16.9893C218.159 16.9313 218.404 16.8595 218.724 16.7604C218.847 16.6374 219.036 16.453 219.222 16.2651C220.329 16.1865 221.436 16.1113 222.528 16.0328C222.718 15.8483 222.896 15.6741 223.078 15.5032C223.234 15.6262 223.376 15.739 223.517 15.8517C224.156 15.9849 224.78 16.0567 225.222 15.3803C226.095 15.3188 227.009 15.2573 227.927 15.1923C228.139 15.0079 228.332 14.8371 228.566 14.6355C228.741 14.7516 228.945 14.8849 229.164 15.0318C229.331 14.8712 229.513 14.697 229.703 14.5125C230.609 14.451 231.535 14.3861 232.482 14.3178C232.586 14.1948 232.697 14.0616 232.88 13.8429C233.779 13.614 234.8 13.6994 235.781 13.5559C235.904 13.4261 236.023 13.2963 236.227 13.0776C237.472 12.8283 238.865 12.941 240.21 12.7087C240.333 12.5789 240.452 12.449 240.574 12.3192C241.206 12.4456 241.804 12.8898 242.488 12.5105C242.584 12.1894 242.677 11.8854 242.781 11.5301C243.037 11.7009 243.238 11.8375 243.472 11.9947C243.803 11.9708 244.167 11.9469 244.535 11.9195C244.754 12.0801 244.969 12.2372 245.177 12.391C245.36 12.2099 245.545 12.0254 245.739 11.8341C246.66 11.7692 247.581 11.7043 248.462 11.6428C248.67 11.4549 248.845 11.2943 249.023 11.1338C249.198 11.2704 249.335 11.3832 249.42 11.4481C249.993 11.2465 250.531 11.0586 251.04 10.8775C251.345 11.0859 251.564 11.2328 251.817 11.4071C252.136 11.3832 252.501 11.3593 252.909 11.3319C253.065 11.1782 253.251 10.9971 253.448 10.8024C253.801 10.7785 254.169 10.7511 254.54 10.7272C254.748 10.881 254.964 11.0381 255.161 11.1816C255.603 11.2499 255.833 11.0142 256.104 10.7614C256.26 10.6179 256.573 10.6179 256.851 10.5462C257.018 10.881 257.156 11.1679 257.308 11.4754C257.762 11.5608 258.219 11.6496 258.211 10.9835C258.453 11.0689 258.694 11.1543 259.289 11.3627C259.72 11.3319 260.529 11.2773 261.187 11.2294C262.662 11.9537 263.115 12.0903 264.141 12.1245C265.085 13.0401 266.693 13.1972 267.507 14.311C267.845 14.3656 268.101 14.41 268.354 14.4544C268.778 15.1445 269.205 15.8312 269.628 16.5179C270.026 16.839 269.877 17.2831 269.948 17.6897C270.004 18.0211 270.007 18.3593 270.033 18.6667C269.406 19.0425 269.554 19.5721 269.595 20.1289C269.305 20.7473 268.425 21.1299 268.48 21.9772C267.689 22.1001 267.31 22.6946 266.805 23.2139C266.608 23.0806 266.404 22.9474 266.203 22.8141C265.816 23.3813 264.914 23.3163 264.535 23.9347C263.806 23.9859 263.071 24.0372 262.343 24.0884C261.93 25.045 260.529 24.2285 260.262 25.2773C259.98 25.0553 259.838 24.9425 259.664 24.8059C259.333 24.8298 258.973 24.8537 258.438 24.8913C258.211 25.1987 257.903 25.6224 257.665 25.9435C257.115 25.9811 256.743 26.0084 256.387 26.0323C256.197 26.2168 256.019 26.391 255.837 26.5687C255.488 26.2749 255.172 25.9332 254.603 26.2407C254.518 26.5072 254.421 26.8112 254.325 27.1187C253.563 27.2007 254.198 26.3466 253.481 26.2612C253.292 26.6233 253.058 27.0743 252.835 27.5082C252.363 27.1734 252.159 27.023 251.899 26.8386C251.798 27.1836 251.705 27.4877 251.594 27.8669C251.304 27.7234 251.029 27.5902 250.758 27.4569C249.655 27.5287 249.799 28.4989 249.383 29.0694C249.205 29.0899 249.023 29.1104 248.833 29.1343C248.625 28.9806 248.414 28.8269 248.206 28.6731C248.02 28.8542 247.834 29.0387 247.641 29.2334C247.273 29.2573 246.909 29.2847 246.563 29.3086C246.244 29.6502 245.943 29.9747 245.594 30.3437C244.728 30.4052 243.814 30.4667 242.896 30.5316C242.684 30.7195 242.491 30.8903 242.265 31.0885C242.083 30.9689 241.882 30.8322 241.67 30.6888C241.31 31.0406 241.001 31.5975 240.559 31.7102C240.069 31.8366 239.816 32.3457 239.463 32.3183C238.486 32.2466 237.91 33.1861 236.87 33.0289C236.714 32.9264 236.495 32.7864 236.227 32.6087C236.082 32.9435 235.937 33.2783 235.785 33.6336C235.562 33.473 235.354 33.3227 235.146 33.1758C234.667 33.6917 234.184 34.211 233.693 34.7234C233.663 34.7542 233.567 34.7268 233.5 34.7303C233.359 34.6175 233.218 34.5082 232.976 34.3169C232.627 34.7952 232.274 35.2734 231.888 35.803C231.932 35.8474 232.103 36.008 232.311 36.2061C231.839 36.4623 231.367 36.722 230.832 37.0123C230.751 36.7561 230.68 36.5238 230.595 36.2471C230.245 35.8986 229.766 36.1958 229.268 36.1378C228.677 37.1627 227.247 37.3471 226.641 38.3925C226.415 38.2149 226.277 38.1021 226.136 37.9928C225.627 38.3994 224.817 38.4233 224.483 39.0382C224.134 39.6839 223.223 39.5917 222.837 40.1485C222.632 40.0153 222.436 39.8889 222.213 39.7454C222.09 40.1007 221.986 40.4013 221.878 40.702C221.585 40.5756 221.291 40.4492 220.879 40.2715C220.652 40.4457 220.388 40.6473 220.113 40.8591C219.943 40.7395 219.731 40.5926 219.523 40.4457C219.099 40.9001 218.716 41.3955 218.237 41.7918C217.858 42.1061 217.364 42.3042 216.866 42.5878C216.744 42.5024 216.539 42.3623 216.316 42.2086C216.16 42.5604 216.027 42.9328 215.83 43.271C215.711 43.4726 215.488 43.6195 215.324 43.7766C215.079 43.6127 214.86 43.4692 214.667 43.3394C214.251 43.3838 213.86 43.4043 213.95 43.9099C213.433 44.1866 212.894 44.4326 212.404 44.7435C211.973 45.0133 211.787 45.4916 211.197 45.6898C210.662 45.8674 210.279 46.4209 209.748 46.8786C209.432 46.7078 209.138 46.5473 208.845 46.3867C208.599 46.5404 208.321 46.7181 208.042 46.8923C207.968 46.7557 207.912 46.5131 207.819 46.4994C207.481 46.4516 207.444 46.6839 207.485 46.9299C206.757 46.9333 207.08 47.5107 206.864 47.9104C206.693 47.9548 206.452 48.0197 206.103 48.1085C206.01 48.2213 205.85 48.4194 205.664 48.6483C205.449 48.4467 205.256 48.2725 205.096 48.1222C204.501 48.1632 203.963 48.2008 203.424 48.2384C203.19 48.539 202.781 48.7303 202.737 49.1505C203.06 49.4375 203.428 49.2086 203.766 49.2427C203.836 49.7586 203.257 49.9021 203.064 50.3086C202.841 50.1583 202.64 50.0182 202.439 49.8816C202.083 50.476 201.232 50.4384 200.771 50.9987C200.388 51.4633 199.716 51.723 199.177 52.0715C198.743 51.7264 198.338 51.3506 197.881 51.986C198.059 52.1534 198.234 52.314 198.404 52.4712C197.933 52.7411 197.494 52.9904 196.915 53.3184C196.729 53.3321 196.361 53.356 195.785 53.397C195.584 53.6976 195.31 54.1144 195.031 54.5312C194.76 54.3194 194.622 54.2066 194.481 54.0973C194.054 54.3125 193.63 54.5244 193.121 54.7806C193.099 54.9412 193.065 55.1769 193.028 55.4434C192.538 55.9182 191.839 55.6312 191.241 55.7679C190.691 56.0515 190.539 56.7518 189.889 56.9636C189.77 56.6459 189.777 56.2462 189.32 56.6254C189.48 56.7347 189.644 56.8406 189.889 56.9636C189.859 56.9773 189.892 57.1276 189.866 57.1378C188.845 57.5239 187.864 58.0056 186.705 58.2481C186.679 58.46 186.645 58.6923 186.604 59.0134C185.939 59.396 185.092 59.2047 184.063 59.3858C183.896 59.6522 183.617 60.0827 183.431 60.3765C182.581 60.4756 181.968 60.5473 181.388 60.6156C181.28 60.9846 181.195 61.2852 181.113 61.5654C180.886 61.603 180.712 61.6303 180.377 61.6815C179.969 62.194 179.486 62.7953 179.084 63.3009C178.438 63.3453 177.981 63.3794 177.565 63.4785C177.446 63.1608 177.453 62.7611 176.996 63.1403C177.156 63.2496 177.32 63.3555 177.565 63.4785L177.517 63.4819ZM2.08316 50.8962C1.65961 51.0397 1.22864 51.0329 1.64105 51.4531C1.75992 51.3062 1.87512 51.1559 1.78223 51.0363C2.20578 50.8928 2.63678 50.8996 2.22436 50.4794C2.10547 50.6263 1.99029 50.7766 2.08316 50.8962ZM-44.8348 60.397C-44.9091 60.2603 -44.9648 60.0178 -45.0577 60.0041C-45.3958 59.9563 -45.433 60.1886 -45.3921 60.4346C-45.7636 60.4619 -46.1352 60.4858 -46.503 60.5131C-46.3581 60.2364 -46.2169 59.9563 -46.0534 59.642C-46.2318 59.5907 -46.4696 59.5224 -46.6776 59.4643C-47.1346 59.782 -47.5656 60.0554 -47.6139 60.5917C-48.5688 60.4858 -48.892 59.4985 -49.7726 59.2798C-50.1106 59.5702 -49.8394 59.9187 -49.7317 60.1681C-50.1552 60.3116 -50.5862 60.3047 -50.1738 60.7249C-50.0549 60.578 -49.9397 60.4277 -49.884 60.2364C-49.1335 60.2398 -48.9217 61.0837 -48.1824 61.152C-47.8331 61.1247 -47.547 61.0188 -47.6176 60.5951C-47.2461 60.5678 -46.8745 60.5439 -46.5067 60.5166C-46.5439 60.8343 -46.3247 60.9778 -46.0423 60.988C-45.6671 61.0017 -45.3141 60.9163 -45.3921 60.438C-45.2063 60.4243 -45.0206 60.4106 -44.9091 60.2603C-44.7531 60.6498 -44.7605 61.0461 -44.3035 60.6669C-44.4633 60.5576 -44.6267 60.4516 -44.8348 60.4004L-44.8348 60.397ZM-51.9052 62.0607C-52.0612 61.6713 -52.0538 61.275 -52.5108 61.6542C-52.351 61.7635 -52.1876 61.8694 -52.0575 61.784C-51.9015 62.1735 -51.9089 62.5698 -51.4519 62.1905C-51.6117 62.0812 -51.7751 61.9753 -51.9052 62.0607ZM-50.668 63.5161C-50.824 63.1266 -50.8166 62.7303 -51.2736 63.1095C-51.1138 63.2189 -50.9503 63.3248 -50.8203 63.2394C-50.6642 63.6288 -50.6717 64.0251 -50.2147 63.6459C-50.3744 63.5366 -50.5379 63.4307 -50.668 63.5161ZM-48.2418 64.6879C-48.6653 64.8314 -49.0963 64.8245 -48.6839 65.2447C-48.565 65.0978 -48.4499 64.9475 -48.5428 64.8279C-48.1192 64.6845 -47.6882 64.6913 -48.1006 64.2711C-48.2195 64.418 -48.3347 64.5683 -48.2418 64.6879ZM-111.095 75.7567C-111.515 75.9002 -111.95 75.8934 -111.537 76.3136C-111.418 76.1667 -111.303 76.0164 -111.396 75.8968C-110.972 75.7533 -110.541 75.7601 -110.954 75.3399C-111.073 75.4868 -111.188 75.6372 -111.095 75.7567ZM-69.687 75.9549C-70.1069 76.0984 -70.5416 76.0915 -70.1292 76.5117C-70.0103 76.3648 -69.8951 76.2145 -69.988 76.0949C-69.5681 75.9515 -69.1335 75.9583 -69.5459 75.5381C-69.6648 75.685 -69.7799 75.8353 -69.687 75.9549ZM68.793 114.846C68.637 114.457 68.6444 114.06 68.1874 114.44C68.3472 114.549 68.5106 114.655 68.6407 114.569C68.7967 114.959 68.7893 115.355 69.2463 114.976C69.0865 114.867 68.923 114.761 68.793 114.846ZM-9.36768 55.3921C-9.61289 55.047 -9.26364 54.5551 -9.85437 54.3979C-9.98071 54.8626 -9.84573 55.1814 -9.4494 55.3545C-9.48657 55.6722 -9.26737 55.8157 -8.98499 55.826C-8.60974 55.8396 -8.25678 55.7542 -8.33481 55.2759C-8.04129 55.3989 -7.75147 55.5219 -7.42081 55.662C-7.17929 55.4809 -6.99725 55.1119 -6.48825 55.1256C-6.26532 55.1324 -6.06842 54.8899 -6.15387 54.6098C-5.76746 54.5961 -5.59656 54.4116 -6.04984 53.1237C-5.78232 53.3901 -5.84177 53.9846 -5.37735 54.0666C-5.16556 53.7215 -4.6937 53.5507 -4.72342 53.0314C-5.18042 53.0622 -5.61514 53.0929 -5.63742 54.0597C-6.02384 54.0734 -6.19473 54.2579 -6.15015 54.6098C-6.44367 54.4868 -6.73346 54.3638 -7.06412 54.2237C-7.3056 54.4048 -7.48767 54.7737 -7.99667 54.7601C-8.21961 54.7532 -8.41654 54.9958 -8.33109 55.2759C-8.70261 55.3033 -9.07416 55.3272 -9.36026 55.3887L-9.36768 55.3921ZM-109.628 74.3116C-109.784 73.9222 -109.776 73.5259 -110.233 73.9051C-110.073 74.0144 -109.91 74.1203 -109.33 74.1203C-109.275 74.6601 -110.307 74.5576 -109.992 75.2204C-109.702 75.1691 -109.405 75.1179 -108.996 75.0461C-109.137 74.6533 -109.234 74.3868 -109.631 74.3116L-109.628 74.3116ZM69.6327 118.078C69.38 117.248 69.7218 116.633 69.0828 116.247C68.741 116.807 68.7298 117.309 71.2637 117.35C70.6792 117.232 70.0921 117.461 69.5026 118.037C69.7739 118.112 70.0191 118.181 70.4203 118.29C70.6767 118.003 70.9479 117.702 69.629 118.081L69.6327 118.078ZM-56.6609 68.3912C-56.6052 68.9309 -57.6418 68.825 -57.3222 69.4912C-57.0324 69.44 -56.7352 69.3887 -56.3265 69.317C-56.4677 68.9241 -56.5643 68.6576 -57.0138 68.4424C-57.0659 68.1281 -57.1179 67.824 -57.1699 67.5371C-58.0517 67.5097 -58.5817 67.5906 -58.7601 67.7796C-58.7229 67.9744 -58.6821 68.1964 -58.6486 68.3843C-58.0764 68.6371 -57.5526 68.4253 -56.6609 68.3843L-56.6609 68.3912ZM-31.5746 58.436C-31.3244 58.7731 -30.9504 58.846 -30.4525 58.6547C-30.7572 58.2208 -31.1993 58.4702 -31.7306 58.5488C-31.5448 58.3233 -31.5077 57.9851 -31.2476 57.8074C-30.969 57.6127 -30.72 57.3838 -30.4599 57.1686C-30.8761 56.8406 -31.151 56.622 -31.4297 56.4033C-31.7455 56.4033 -32.1207 56.294 -32.2099 56.7244C-32.0353 56.8918 -31.8755 57.049 -31.6897 57.2267C-32.1988 57.6229 -32.4402 58.0158 -31.5783 58.4394L-31.5746 58.436ZM-43.5678 69.3409C-43.3375 69.662 -42.8396 69.7099 -42.613 70.0412C-42.4012 70.3453 -42.208 70.6596 -41.9219 71.0969C-41.6916 70.294 -41.7807 69.6654 -42.052 68.8455C-42.5424 69.1701 -43.1443 68.7465 -43.5158 69.5561C-43.8824 69.7862 -43.9617 70.1301 -43.7536 70.5878C-43.2817 70.3077 -43.553 69.9012 -43.5678 69.3409ZM-55.0967 65.5932C-54.9406 65.9827 -54.9481 66.3789 -54.4911 65.9997C-54.6509 65.8904 -54.8143 65.7845 -55.7543 66.8982C-55.6466 66.519 -55.55 66.232 -55.4831 65.9417C-55.4348 65.7196 -54.5765 65.7503 -55.3902 65.2242C-55.9029 65.5283 -56.7129 64.9509 -57.2665 65.6513C-57.1365 66.0373 -57.3891 66.5088 -56.8912 66.8846C-56.7426 66.5327 -56.6014 66.2047 -56.4342 65.805C-56.2076 66.1706 -56.0107 66.4883 -55.0967 65.5966L-55.0967 65.5932ZM-43.8094 62.3989C-43.4006 62.3375 -43.5344 61.8762 -43.226 61.7191C-42.9251 61.5619 -42.6873 61.3126 -42.4198 61.1042C-42.8656 60.7523 -43.1406 60.5336 -43.4415 60.2979C-43.6942 60.8684 -43.9431 61.4321 -44.1772 61.9651C-44.0323 62.1325 -43.9282 62.2555 -43.7425 62.3511C-43.4118 62.662 -43.1777 62.8841 -42.9288 63.1198C-43.2892 63.3009 -43.6422 63.4819 -43.9988 63.663C-43.7871 63.8543 -43.6087 64.0183 -43.4453 64.1652C-43.605 64.3736 -43.7462 64.5512 -43.9505 64.8143C-43.6087 64.8655 -43.3561 64.8997 -43.2929 64.9099C-42.8433 64.5751 -42.4978 64.3155 -42.5201 64.3326C-42.2823 63.4033 -42.156 62.9011 -42.0222 62.3853C-42.4978 62.1427 -43.0291 62.3853 -43.8131 62.3955L-43.8094 62.3989ZM-75.3864 69.071C-74.9406 69.3033 -74.4799 69.0847 -73.8409 69.1393C-74.4242 68.0119 -72.7708 68.9446 -72.7783 68.1178C-73.3839 68.0632 -73.9003 68.0188 -74.3387 67.9778C-74.4464 67.6327 -74.5171 67.4038 -74.6211 67.069C-74.9926 67.1613 -75.2936 67.2364 -75.6094 67.3184C-75.301 67.6566 -75.0781 67.8992 -74.8812 68.1144C-75.0781 68.4902 -75.2192 68.7567 -75.3864 69.0744L-75.3864 69.071ZM93.0211 123.049C93.4706 123.445 93.9239 123.845 94.4515 124.313C94.537 123.992 94.5964 123.763 94.6521 123.565C94.4292 123.312 94.2434 123.097 94.0354 122.864C94.4701 122.693 94.7785 122.574 95.1871 122.413C94.563 122.181 94.0465 121.993 93.5449 121.805C93.3518 122.26 93.1734 122.687 93.0211 123.045L93.0211 123.049ZM-71.4444 69.5015C-70.7905 69.3204 -70.2927 69.539 -69.936 69.1803C-69.8988 68.7055 -69.7056 68.2033 -70.2221 67.8309C-70.4747 68.316 -71.0692 68.3365 -71.515 68.6235C-71.4964 68.8284 -71.4779 69.0539 -71.4444 69.498L-71.4444 69.5015ZM-107.309 73.8026C-107.465 74.7592 -107.484 75.3809 -107.038 76.2487C-106.759 75.7875 -106.562 75.4629 -106.399 75.1896C-106.625 74.8446 -106.886 74.4517 -107.309 73.8026ZM-81.0636 82.6884C-80.6995 82.9139 -80.4951 83.2897 -79.9675 83.3478C-79.9378 83.112 -79.9081 82.8866 -79.8821 82.6748C-80.2462 82.4493 -80.4505 82.0735 -80.9781 82.0154C-81.0078 82.2511 -81.0376 82.4766 -81.0636 82.6884ZM-7.27591 64.4829C-7.03812 64.3702 -6.58115 64.5888 -6.5737 64.0832C-6.84494 63.868 -7.11615 63.6561 -7.40967 63.4204C-7.64746 63.5332 -8.10443 63.3145 -8.11185 63.8201C-7.84064 64.0354 -7.56943 64.2472 -7.27591 64.4829ZM-74.8329 73.6523C-74.9815 74.9026 -74.9703 74.9026 -74.5579 75.234C-74.3164 74.7626 -74.3536 74.3082 -74.8329 73.6523ZM-110.846 73.5088C-111.273 73.1432 -111.645 73.1672 -112.028 73.6044C-111.6 73.683 -111.493 74.192 -110.924 74.1818C-110.898 73.9461 -110.868 73.7172 -110.846 73.5122L-110.846 73.5088ZM-55.2936 69.58C-54.8664 69.9456 -54.4948 69.9217 -54.1121 69.4844C-54.5394 69.4058 -54.6472 68.8968 -55.2156 68.907C-55.2416 69.1427 -55.2713 69.3716 -55.2936 69.5766L-55.2936 69.58ZM-71.3553 70.2599C-71.8531 69.8943 -72.1578 69.9353 -72.5516 70.2667C-72.4922 70.499 -72.4216 70.7757 -72.4104 70.827C-72.0909 70.6562 -71.7305 70.4614 -71.359 70.2599L-71.3553 70.2599ZM-55.9215 67.438C-55.7803 67.906 -55.3568 68.0393 -55.0781 68.3023C-54.7177 67.93 -54.7437 67.5917 -55.2156 67.2638C-55.4311 67.3184 -55.6726 67.3765 -55.9215 67.438ZM-28.1713 58.9758C-28.5688 58.6376 -28.9366 58.6615 -29.2822 59.051C-29.219 59.314 -29.4011 59.7001 -28.8735 59.7274C-28.6394 59.4746 -28.4053 59.2252 -28.1713 58.9758ZM80.0209 122.922C80.4222 123.264 80.7937 123.237 81.1356 122.844C80.7343 122.502 80.3627 122.529 80.0209 122.922ZM-91.5298 97.8534C-91.9311 97.5118 -92.3026 97.5391 -92.6444 97.932C-92.2432 98.2736 -91.8716 98.2463 -91.5298 97.8534ZM-5.84549 79.6957C-5.86036 79.5898 -5.87522 79.4805 -5.89008 79.3746C-6.13901 79.3609 -6.38794 79.337 -6.63687 79.3439C-6.69632 79.3439 -6.81522 79.4805 -6.80036 79.5181C-6.75205 79.6377 -6.65174 79.829 -6.5737 79.8256C-6.32849 79.8221 -6.08698 79.7436 -5.84177 79.6923L-5.84549 79.6957ZM-77.2664 80.9154C-76.8652 81.257 -76.4936 81.2297 -76.1518 80.8368C-76.5531 80.4952 -76.9246 80.5225 -77.2664 80.9154ZM-73.8817 77.8509C-74.2533 78.2199 -74.2235 78.5615 -73.7963 78.8758C-73.4247 78.5069 -73.4544 78.1652 -73.8817 77.8509ZM-82.4754 75.3638C-82.847 75.7328 -82.8172 76.0744 -82.39 76.3887C-82.0184 76.0198 -82.0482 75.6781 -82.4754 75.3638ZM-56.163 72.2448C-56.5643 71.9031 -56.9358 71.9305 -57.2777 72.3233C-56.8764 72.665 -56.5048 72.6376 -56.163 72.2448ZM-23.5307 60.701C-24.0435 60.4141 -24.4113 60.2911 -24.6119 60.9197C-24.2515 61.0358 -23.9357 61.1212 -23.5307 60.701ZM-53.0087 62.7542C-53.5214 62.4673 -53.8892 62.3443 -54.0898 62.9729C-53.7294 63.089 -53.4136 63.1744 -53.0087 62.7542ZM-46.8931 61.6644C-46.8783 61.7738 -46.8634 61.8797 -46.8485 61.989C-46.5996 62.0027 -46.3507 62.0266 -46.1017 62.0197C-46.0423 62.0197 -45.9234 61.8831 -45.9383 61.8455C-45.9865 61.7259 -46.0869 61.5346 -46.1649 61.538C-46.4101 61.5414 -46.6516 61.62 -46.8968 61.6713L-46.8931 61.6644ZM-7.8555 57.7767C-8.17874 58.2652 -8.3125 58.6034 -7.69202 58.7708C-7.41709 58.4497 -7.45795 58.1696 -7.8555 57.7767ZM-35.7432 58.7298C-36.1147 59.0988 -36.0851 59.4404 -35.6578 59.7547C-35.2862 59.3858 -35.316 59.0441 -35.7432 58.7298ZM4.83627 52.5702C5.349 52.8572 5.7168 52.9802 5.91745 52.3516C5.55704 52.2354 5.24124 52.15 4.83627 52.5702ZM6.44504 51.4189C6.04376 51.0773 5.67224 51.1046 5.33041 51.4975C5.73169 51.8391 6.10321 51.8118 6.44504 51.4189ZM-8.01898 52.4267C-7.61771 52.7684 -7.24619 52.741 -6.90436 52.3482C-7.30563 52.0065 -7.67716 52.0339 -8.01898 52.4267ZM98.5459 122.731C98.6276 122.793 98.6908 122.847 98.7576 122.898C98.8097 122.779 98.884 122.666 98.9025 122.543C98.91 122.499 98.7799 122.441 98.7131 122.386C98.6536 122.502 98.5979 122.618 98.5421 122.728L98.5459 122.731ZM85.8838 122.769C85.9395 122.707 86.0584 122.629 86.0436 122.588C86.0027 122.468 85.9135 122.366 85.8429 122.256C85.7872 122.318 85.6683 122.396 85.6832 122.437C85.7241 122.557 85.8132 122.659 85.8875 122.769L85.8838 122.769ZM79.0401 122.143C79.1515 122.075 79.2667 122.007 79.3819 121.935C79.315 121.884 79.2295 121.774 79.1849 121.788C79.0549 121.826 78.9435 121.908 78.8246 121.973C78.8914 122.024 78.9583 122.079 79.0363 122.14L79.0401 122.143ZM76.1792 117.016C76.2461 117.067 76.3315 117.176 76.3761 117.162C76.5061 117.128 76.6176 117.043 76.7365 116.978C76.6696 116.927 76.5842 116.817 76.5396 116.831C76.4095 116.869 76.2981 116.951 76.1792 117.016ZM68.0091 117.255C68.1205 117.186 68.2357 117.118 68.3509 117.046C68.284 116.995 68.1985 116.886 68.1539 116.899C68.0239 116.937 67.9125 117.019 67.7936 117.084C67.8604 117.135 67.9273 117.19 68.0053 117.251L68.0091 117.255ZM109.64 112.369C109.696 112.308 109.815 112.229 109.8 112.188C109.759 112.069 109.67 111.966 109.599 111.857C109.543 111.918 109.425 111.997 109.439 112.038C109.477 112.158 109.569 112.26 109.64 112.369ZM68.9119 113.664C68.9676 113.603 69.0865 113.524 69.0717 113.483C69.0308 113.364 68.9416 113.261 68.871 113.152C68.8153 113.213 68.6964 113.292 68.7113 113.333C68.7521 113.452 68.8413 113.555 68.9119 113.664ZM67.0839 112.837C67.017 112.913 66.9576 112.971 66.9019 113.032C67.0319 113.08 67.1545 113.148 67.2883 113.165C67.3366 113.172 67.3997 113.053 67.4592 112.991C67.3328 112.94 67.2065 112.885 67.0876 112.834L67.0839 112.837ZM114.303 108.885C114.414 108.816 114.529 108.748 114.645 108.676C114.578 108.625 114.492 108.516 114.448 108.529C114.318 108.564 114.206 108.649 114.087 108.714C114.154 108.765 114.221 108.82 114.299 108.881L114.303 108.885ZM128.135 95.9096C128.202 95.9608 128.288 96.0701 128.332 96.0565C128.462 96.0189 128.574 95.9369 128.693 95.872C128.626 95.8208 128.54 95.7114 128.496 95.7251C128.366 95.7593 128.254 95.8447 128.135 95.9096ZM68.1985 98.2873C68.2543 98.2258 68.3732 98.1473 68.3583 98.1063C68.3174 97.9867 68.2283 97.8842 68.1577 97.7749C68.1019 97.8364 67.983 97.9149 67.9979 97.9559C68.0351 98.0755 68.1279 98.178 68.1985 98.2873ZM-92.3509 100.552C-92.2729 100.614 -92.206 100.668 -92.1392 100.72C-92.0871 100.6 -92.0128 100.487 -91.9942 100.364C-91.9868 100.32 -92.1169 100.262 -92.1838 100.207C-92.2395 100.323 -92.2989 100.44 -92.3547 100.552L-92.3509 100.552ZM-81.7286 99.0389C-81.7955 99.1141 -81.855 99.1721 -81.9107 99.2336C-81.7806 99.2815 -81.658 99.3498 -81.5243 99.3669C-81.476 99.3737 -81.4128 99.2541 -81.3534 99.1926C-81.4797 99.1414 -81.606 99.0867 -81.7286 99.0355L-81.7286 99.0389ZM145.59 82.7875C145.664 82.89 145.739 82.9959 145.817 83.1018C145.873 83.0403 145.991 82.9618 145.977 82.9208C145.936 82.8012 145.847 82.6987 145.776 82.5894C145.72 82.6509 145.661 82.7124 145.594 82.7841L145.59 82.7875ZM147.058 81.216C147.125 81.2673 147.21 81.3766 147.255 81.3629C147.385 81.3288 147.496 81.2433 147.615 81.1784C147.548 81.1272 147.463 81.0179 147.418 81.0315C147.288 81.0691 147.177 81.1511 147.058 81.216ZM-69.1483 95.5918C-69.2189 95.667 -69.2746 95.7251 -69.3304 95.7866C-69.2003 95.8344 -69.0777 95.9027 -68.944 95.9198C-68.8957 95.9266 -68.8325 95.8071 -68.773 95.7456C-68.8994 95.6909 -69.0257 95.6397 -69.1446 95.5884L-69.1483 95.5918ZM-61.9739 94.4303C-61.8624 94.362 -61.7473 94.2936 -61.6321 94.2219C-61.699 94.1707 -61.7844 94.0613 -61.829 94.075C-61.959 94.1126 -62.0705 94.1946 -62.1894 94.2595C-62.1225 94.3107 -62.0556 94.3654 -61.9776 94.4269L-61.9739 94.4303ZM-62.0891 93.0433C-62.1559 93.115 -62.2154 93.1765 -62.2711 93.238C-62.1411 93.2858 -62.0185 93.3542 -61.8847 93.3712C-61.8364 93.3781 -61.7733 93.2585 -61.7138 93.197C-61.8402 93.1423 -61.9665 93.0911 -62.0891 93.0399L-62.0891 93.0433ZM-56.7612 91.236C-56.6869 91.3385 -56.6126 91.4444 -56.5346 91.5503C-56.4788 91.4889 -56.3599 91.4103 -56.3748 91.3693C-56.4157 91.2497 -56.5048 91.1472 -56.5754 91.0379C-56.6312 91.0994 -56.6906 91.1609 -56.7575 91.2326L-56.7612 91.236ZM-86.0236 92.5035C-85.9567 92.4283 -85.8973 92.3703 -85.8416 92.3088C-85.9716 92.2609 -86.0942 92.1926 -86.228 92.1755C-86.2726 92.1687 -86.3394 92.2883 -86.3989 92.3498C-86.2726 92.4044 -86.1462 92.4557 -86.0273 92.5069L-86.0236 92.5035ZM-87.6918 92.6197C-87.6249 92.5479 -87.5655 92.4864 -87.5098 92.4249C-87.6398 92.3771 -87.7624 92.3088 -87.8962 92.2917C-87.9445 92.2849 -88.0076 92.4044 -88.0671 92.4659C-87.9408 92.5206 -87.8144 92.5718 -87.6918 92.6231L-87.6918 92.6197ZM-25.2138 83.7851C-25.3253 83.8534 -25.4405 83.9217 -25.5556 83.9935C-25.4887 84.0447 -25.4033 84.154 -25.3587 84.1404C-25.2287 84.1028 -25.1172 84.0208 -24.9983 83.9559C-25.0652 83.9046 -25.1321 83.85 -25.2101 83.7885L-25.2138 83.7851ZM-27.7069 84.0686C-27.6325 84.1711 -27.5582 84.277 -27.4802 84.3829C-27.4245 84.3214 -27.3056 84.2429 -27.3204 84.2019C-27.3576 84.0823 -27.4505 83.9798 -27.5211 83.8705C-27.5768 83.932 -27.6363 83.9935 -27.7031 84.0652L-27.7069 84.0686ZM-71.8866 86.1218C-71.9683 86.0603 -72.0315 86.0057 -72.0983 85.9544C-72.1504 86.074 -72.2247 86.1867 -72.2432 86.3097C-72.2507 86.3541 -72.1206 86.4122 -72.0537 86.4669C-71.9943 86.3507 -71.9386 86.2346 -71.8828 86.1252L-71.8866 86.1218ZM-79.9601 86.5762C-80.027 86.6479 -80.0864 86.7094 -80.1422 86.7709C-80.0121 86.8187 -79.8895 86.8871 -79.7557 86.9042C-79.7075 86.911 -79.6443 86.7914 -79.5848 86.7299C-79.7112 86.6787 -79.8375 86.624 -79.9601 86.5728L-79.9601 86.5762ZM-11.3926 80.3619C-11.4743 80.3004 -11.5374 80.2458 -11.6043 80.1945C-11.6563 80.3141 -11.7307 80.4268 -11.7492 80.5498C-11.7567 80.5908 -11.6266 80.6523 -11.5598 80.707C-11.5003 80.5908 -11.4446 80.4747 -11.3888 80.3653L-11.3926 80.3619ZM-2.93262 79.2585C-2.85831 79.3609 -2.784 79.4668 -2.70597 79.5762C-2.65024 79.5147 -2.53135 79.4361 -2.54621 79.3951C-2.58707 79.2755 -2.67624 79.173 -2.74683 79.0637C-2.80255 79.1252 -2.86203 79.1867 -2.9289 79.2585L-2.93262 79.2585ZM3.83682 78.5308C3.9483 78.4625 4.06344 78.3941 4.17865 78.3224C4.11175 78.2711 4.0263 78.1618 3.98172 78.1755C3.85168 78.2131 3.74023 78.2951 3.62133 78.36C3.6882 78.4112 3.75509 78.4659 3.8331 78.5274L3.83682 78.5308ZM8.93063 77.2941C8.81918 77.3624 8.70398 77.4307 8.5888 77.5025C8.65567 77.5537 8.74115 77.663 8.78573 77.6494C8.91577 77.6118 9.02722 77.5298 9.14611 77.4649C9.07922 77.4136 9.01239 77.359 8.93435 77.2975L8.93063 77.2941ZM-78.6337 82.3707C-78.7006 82.4425 -78.76 82.5039 -78.8158 82.5654C-78.6857 82.6133 -78.5631 82.6816 -78.4294 82.6987C-78.381 82.7055 -78.3179 82.5859 -78.2585 82.5244C-78.3848 82.4732 -78.5111 82.4185 -78.63 82.3673L-78.6337 82.3707ZM-49.9806 79.5283C-49.9137 79.5796 -49.8283 79.6889 -49.7837 79.6752C-49.6537 79.6377 -49.5422 79.5557 -49.4233 79.4908C-49.4902 79.4395 -49.5756 79.3302 -49.6202 79.3439C-49.7502 79.3814 -49.8617 79.4634 -49.9806 79.5283ZM-73.8966 81.1955C-73.8297 81.2467 -73.7443 81.3561 -73.6997 81.3424C-73.5696 81.3048 -73.4582 81.2228 -73.3393 81.1579C-73.4061 81.1067 -73.4916 80.9974 -73.5362 81.011C-73.6662 81.0486 -73.7777 81.1306 -73.8966 81.1955ZM-78.7192 81.3492C-78.786 81.421 -78.8455 81.4825 -78.9012 81.544C-78.7712 81.5918 -78.6486 81.6601 -78.5148 81.6772C-78.4665 81.684 -78.4034 81.5645 -78.3439 81.503C-78.4702 81.4517 -78.5966 81.3971 -78.7192 81.3458L-78.7192 81.3492ZM-74.9109 80.0544C-74.9778 80.1262 -75.0372 80.1877 -75.0929 80.2492C-74.9629 80.297 -74.8403 80.3653 -74.7065 80.3824C-74.6582 80.3892 -74.5951 80.2697 -74.5356 80.2082C-74.662 80.1569 -74.7883 80.1023 -74.9072 80.051L-74.9109 80.0544ZM-79.243 80.7958C-79.1873 80.7343 -79.0684 80.6557 -79.0833 80.6147C-79.1241 80.4952 -79.2133 80.3927 -79.2839 80.2833C-79.3396 80.3448 -79.4585 80.4234 -79.4437 80.4644C-79.4028 80.584 -79.3136 80.6865 -79.243 80.7958ZM-51.4779 78.3463C-51.4222 78.2848 -51.3033 78.2062 -51.3181 78.1652C-51.359 78.0457 -51.4482 77.9432 -51.5188 77.8338C-51.5745 77.8953 -51.6934 77.9739 -51.6785 78.0149C-51.6377 78.1345 -51.5485 78.237 -51.4779 78.3463ZM-67.8479 77.5059C-67.9148 77.581 -67.9742 77.6391 -68.03 77.7006C-67.8999 77.7484 -67.7773 77.8168 -67.6436 77.8338C-67.5953 77.8407 -67.5321 77.7211 -67.4727 77.6596C-67.599 77.6084 -67.7253 77.5537 -67.8442 77.5025L-67.8479 77.5059ZM-69.0034 77.072C-69.074 77.1472 -69.1297 77.2052 -69.1855 77.2667C-69.0554 77.3146 -68.9328 77.3829 -68.7991 77.4C-68.7545 77.4068 -68.6876 77.2872 -68.6281 77.2257C-68.7545 77.1745 -68.8808 77.1198 -68.9997 77.0686L-69.0034 77.072ZM-76.4156 77.7724C-76.3487 77.8236 -76.2633 77.9329 -76.2187 77.9193C-76.0887 77.8817 -75.9772 77.7997 -75.8583 77.7348C-75.9252 77.6835 -76.0106 77.5742 -76.0552 77.5879C-76.1852 77.6255 -76.2967 77.7074 -76.4156 77.7724ZM-38.1694 74.5166C-38.2474 74.4551 -38.3143 74.4005 -38.3812 74.3492C-38.4332 74.4688 -38.5075 74.5815 -38.5261 74.7045C-38.5335 74.7455 -38.4034 74.807 -38.3366 74.8617C-38.2809 74.7455 -38.2214 74.6293 -38.1657 74.5166L-38.1694 74.5166ZM-83.1739 77.2155C-83.107 77.2667 -83.0216 77.3761 -82.977 77.3624C-82.847 77.3248 -82.7355 77.2428 -82.6166 77.1779C-82.6835 77.1267 -82.7689 77.0173 -82.8135 77.031C-82.9435 77.0686 -83.055 77.1506 -83.1739 77.2155ZM-53.566 73.3516C-53.5102 73.2902 -53.3913 73.2116 -53.4062 73.1706C-53.4434 73.051 -53.5362 72.9485 -53.6068 72.8392C-53.6626 72.9007 -53.7814 72.9793 -53.7666 73.0203C-53.7257 73.1398 -53.6366 73.2423 -53.566 73.3516ZM60.4074 64.8929C60.4631 64.8314 60.582 64.7528 60.5671 64.7118C60.5263 64.5922 60.4371 64.4897 60.3665 64.3804C60.3108 64.4419 60.1919 64.5205 60.2067 64.5615C60.2439 64.6811 60.3368 64.7835 60.4074 64.8929ZM-75.6688 74.1955C-75.7431 74.093 -75.8174 73.9871 -75.8954 73.8812C-75.9512 73.9427 -76.0701 74.0212 -76.0552 74.0622C-76.0143 74.1818 -75.9252 74.2843 -75.8546 74.3936C-75.7989 74.3321 -75.7394 74.2706 -75.6725 74.1989L-75.6688 74.1955ZM-83.1665 74.8275C-83.055 74.7592 -82.9399 74.6908 -82.8247 74.6191C-82.8915 74.5679 -82.977 74.4585 -83.0216 74.4722C-83.1516 74.5098 -83.2631 74.5918 -83.382 74.6567C-83.3151 74.7079 -83.2482 74.7626 -83.1702 74.8241L-83.1665 74.8275ZM-53.2056 71.8587C-53.2724 71.9305 -53.3319 71.9919 -53.3876 72.0534C-53.2576 72.1013 -53.135 72.1696 -53.0012 72.1867C-52.9529 72.1935 -52.8898 72.0739 -52.8303 72.0124C-52.9566 71.9612 -53.083 71.9065 -53.2019 71.8553L-53.2056 71.8587ZM-81.9218 72.9417C-82.0036 72.8802 -82.0667 72.8255 -82.1336 72.7743C-82.1856 72.8939 -82.2599 73.0066 -82.2785 73.1296C-82.2859 73.174 -82.1559 73.2321 -82.089 73.2867C-82.0296 73.1706 -81.9738 73.0544 -81.9181 72.9451L-81.9218 72.9417ZM-69.3415 71.8826C-69.2858 71.8211 -69.1669 71.7426 -69.1817 71.7016C-69.2189 71.582 -69.3118 71.4795 -69.3824 71.3702C-69.4381 71.4317 -69.557 71.5102 -69.5421 71.5512C-69.5013 71.6708 -69.4121 71.7733 -69.3415 71.8826ZM-56.2596 70.1266C-56.1853 70.2291 -56.111 70.335 -56.033 70.4409C-55.9773 70.3794 -55.8584 70.3009 -55.8732 70.2599C-55.9141 70.1403 -56.0033 70.0378 -56.0739 69.9285C-56.1296 69.99 -56.189 70.0515 -56.2559 70.1232L-56.2596 70.1266ZM-82.546 72.1081C-82.6203 72.0056 -82.6946 71.8997 -82.7726 71.7938C-82.8284 71.8553 -82.9473 71.9339 -82.9324 71.9749C-82.8915 72.0944 -82.8024 72.1969 -82.7318 72.3063C-82.6761 72.2448 -82.6166 72.1833 -82.5497 72.1115L-82.546 72.1081ZM-28.2233 67.5507C-28.3347 67.6191 -28.4499 67.6874 -28.5651 67.7591C-28.4982 67.8104 -28.4128 67.9197 -28.3682 67.906C-28.2381 67.8685 -28.1267 67.7865 -28.0078 67.7216C-28.0747 67.6703 -28.1415 67.6157 -28.2195 67.5542L-28.2233 67.5507ZM-70.7905 70.2599C-70.7125 70.3214 -70.6456 70.376 -70.5787 70.4273C-70.5267 70.3077 -70.4524 70.195 -70.4338 70.072C-70.4264 70.0276 -70.5564 69.9695 -70.6233 69.9148C-70.679 70.031 -70.7385 70.1471 -70.7942 70.2599L-70.7905 70.2599ZM-74.1269 70.4922C-74.0452 70.5537 -73.9821 70.6083 -73.9152 70.6596C-73.8632 70.54 -73.7889 70.4273 -73.7703 70.3043C-73.7628 70.2599 -73.8929 70.2018 -73.9597 70.1471C-74.0155 70.2633 -74.0749 70.3794 -74.1306 70.4888L-74.1269 70.4922ZM89.5992 58.3062C89.4877 58.3745 89.3726 58.4429 89.2574 58.5146C89.3243 58.5658 89.4097 58.6752 89.4543 58.6615C89.5843 58.6239 89.6958 58.5419 89.8147 58.477C89.7478 58.4258 89.6809 58.3711 89.6029 58.3096L89.5992 58.3062ZM-5.81577 64.5512C-5.74146 64.6537 -5.66715 64.7596 -5.58911 64.8655C-5.53339 64.804 -5.41449 64.7255 -5.42935 64.6845C-5.47022 64.5649 -5.55939 64.4624 -5.62998 64.3531C-5.6857 64.4146 -5.74515 64.4761 -5.81204 64.5478L-5.81577 64.5512ZM-19.0537 65.3643C-19.1243 65.4395 -19.18 65.4975 -19.2358 65.559C-19.1057 65.6069 -18.9831 65.6752 -18.8493 65.6923C-18.8011 65.6991 -18.7379 65.5795 -18.6784 65.518C-18.8048 65.4668 -18.9311 65.4121 -19.05 65.3609L-19.0537 65.3643ZM89.8147 57.517C89.8964 57.5785 89.9596 57.6332 90.0265 57.6844C90.0785 57.5649 90.1528 57.4521 90.1714 57.3291C90.1788 57.2847 90.0488 57.2267 89.9819 57.172C89.9262 57.2882 89.8667 57.4043 89.811 57.5136L89.8147 57.517ZM-53.8372 67.5302C-53.9115 67.4278 -53.9858 67.3219 -54.0638 67.2125C-54.1195 67.274 -54.2385 67.3526 -54.2236 67.3936C-54.1864 67.5132 -54.0935 67.6157 -54.023 67.725C-53.9672 67.6635 -53.9078 67.602 -53.8409 67.5302L-53.8372 67.5302ZM14.5149 62.1017C14.4368 62.0402 14.3699 61.9856 14.3031 61.9343C14.2511 62.0539 14.1768 62.1666 14.1582 62.2896C14.1508 62.3306 14.2808 62.3921 14.3477 62.4468C14.4034 62.3306 14.4628 62.2145 14.5186 62.1017L14.5149 62.1017ZM-50.8128 66.9119C-50.7014 66.8436 -50.5862 66.7752 -50.471 66.7035C-50.5379 66.6523 -50.6234 66.5429 -50.668 66.5566C-50.798 66.5942 -50.9095 66.6762 -51.0284 66.7411C-50.9615 66.7923 -50.8946 66.847 -50.8166 66.9085L-50.8128 66.9119ZM-53.0681 66.7035C-53.1387 66.7787 -53.1944 66.8367 -53.2502 66.8982C-53.1201 66.9461 -52.9975 67.0144 -52.8637 67.0315C-52.8155 67.0383 -52.7523 66.9187 -52.6928 66.8572C-52.8192 66.806 -52.9455 66.7513 -53.0644 66.7001L-53.0681 66.7035ZM-95.9066 69.5425C-95.7951 69.4741 -95.6799 69.4058 -95.5647 69.3341C-95.6316 69.2828 -95.7171 69.1735 -95.7617 69.1872C-95.8917 69.2247 -96.0031 69.3067 -96.122 69.3716C-96.0552 69.4229 -95.9883 69.4775 -95.9103 69.539L-95.9066 69.5425ZM-3.36731 62.3204C-3.44907 62.2589 -3.51224 62.2042 -3.5791 62.153C-3.63111 62.2725 -3.70542 62.3853 -3.724 62.5083C-3.73142 62.5527 -3.60138 62.6108 -3.53449 62.6654C-3.47504 62.5493 -3.41934 62.4331 -3.36362 62.3238L-3.36731 62.3204ZM-71.6451 66.7137C-71.567 66.7752 -71.5002 66.8299 -71.4333 66.8811C-71.3813 66.7616 -71.3069 66.6488 -71.2884 66.5258C-71.2809 66.4814 -71.411 66.4234 -71.4779 66.3687C-71.5336 66.4849 -71.593 66.601 -71.6488 66.7137L-71.6451 66.7137ZM-3.84659 61.3262C-3.77228 61.4287 -3.698 61.5346 -3.61997 61.6405C-3.56424 61.579 -3.44534 61.5005 -3.46021 61.4595C-3.50107 61.3399 -3.59024 61.2374 -3.66083 61.1281C-3.71655 61.1896 -3.776 61.2511 -3.84287 61.3228L-3.84659 61.3262ZM-8.37195 61.7157C-8.30506 61.7669 -8.21964 61.8762 -8.17505 61.8626C-8.04502 61.825 -7.93353 61.743 -7.81464 61.6781C-7.8815 61.6269 -7.96698 61.5175 -8.01157 61.5312C-8.1416 61.5688 -8.25305 61.6508 -8.37195 61.7191L-8.37195 61.7157ZM-21.0897 62.5288C-21.0154 62.6313 -20.9411 62.7372 -20.8631 62.8465C-20.8073 62.785 -20.6885 62.7064 -20.7033 62.6654C-20.7442 62.5459 -20.8333 62.4434 -20.904 62.334C-20.9597 62.3955 -21.0191 62.457 -21.086 62.5288L-21.0897 62.5288ZM-49.9026 64.4282C-49.9732 64.5034 -50.0289 64.5615 -50.0847 64.623C-49.9546 64.6708 -49.832 64.7391 -49.6982 64.7562C-49.6499 64.763 -49.5868 64.6435 -49.5273 64.582L-49.8989 64.4248L-49.9026 64.4282ZM-20.9077 61.3775C-21.0191 61.4458 -21.1343 61.5141 -21.2495 61.5824C-21.1826 61.6337 -21.0972 61.743 -21.0526 61.7293C-20.9225 61.6918 -20.8111 61.6098 -20.6922 61.5449C-20.7591 61.4936 -20.8259 61.439 -20.904 61.3775L-20.9077 61.3775ZM-26.6294 61.7772C-26.6963 61.8489 -26.7557 61.9104 -26.8114 61.9719C-26.6814 62.0197 -26.5588 62.0881 -26.4251 62.1051C-26.3767 62.112 -26.3136 61.9924 -26.2541 61.9309C-26.3804 61.8797 -26.5068 61.825 -26.6257 61.7738L-26.6294 61.7772ZM13.7903 58.1866C13.8721 58.2481 13.9352 58.3028 14.0021 58.354C14.0542 58.2345 14.1285 58.1217 14.147 57.9987C14.1545 57.9543 14.0244 57.8962 13.9575 57.8416C13.9018 57.9577 13.8424 58.0739 13.7867 58.1866L13.7903 58.1866ZM-26.8077 61.0153C-26.7297 61.0768 -26.6628 61.1315 -26.5959 61.1827C-26.5439 61.0632 -26.4696 60.9504 -26.4511 60.8274C-26.4436 60.783 -26.5736 60.725 -26.6405 60.6703C-26.7 60.7865 -26.7557 60.9026 -26.8114 61.0153L-26.8077 61.0153ZM-44.8757 62.3819C-44.8088 62.3101 -44.7493 62.2486 -44.6936 62.1871C-44.8236 62.1393 -44.9463 62.071 -45.08 62.0539C-45.1283 62.0471 -45.1915 62.1666 -45.2509 62.2281C-45.1246 62.2794 -44.9983 62.334 -44.8794 62.3853L-44.8757 62.3819ZM-50.1812 62.4946C-50.1069 62.5971 -50.0326 62.703 -49.9546 62.8089C-49.8989 62.7474 -49.78 62.6688 -49.7948 62.6278C-49.832 62.5083 -49.9249 62.4058 -49.9955 62.2965C-50.0512 62.358 -50.1107 62.4194 -50.1775 62.4912L-50.1812 62.4946ZM123.484 49.6903C123.539 49.6288 123.658 49.5502 123.643 49.5092C123.602 49.3896 123.513 49.2871 123.443 49.1778C123.387 49.2393 123.268 49.3179 123.283 49.3589C123.324 49.4785 123.413 49.581 123.484 49.6903ZM-36.6907 60.8548C-36.6349 60.7933 -36.5161 60.7147 -36.5309 60.6737C-36.5718 60.5541 -36.661 60.4516 -36.7315 60.3423C-36.7873 60.4038 -36.9062 60.4824 -36.8913 60.5234C-36.8504 60.643 -36.7613 60.7454 -36.6907 60.8548ZM-50.8946 61.5893C-50.8277 61.6405 -50.7423 61.7498 -50.6977 61.7362C-50.5676 61.6986 -50.4562 61.6166 -50.3373 61.5517C-50.4042 61.5005 -50.4896 61.3911 -50.5342 61.4048C-50.6642 61.4424 -50.7757 61.5244 -50.8946 61.5893ZM-23.4713 59.3448C-23.3598 59.2764 -23.2447 59.2081 -23.1295 59.1364C-23.1964 59.0851 -23.2818 58.9758 -23.3264 58.9895C-23.4564 59.027 -23.5679 59.109 -23.6868 59.1739C-23.6199 59.2252 -23.553 59.2799 -23.475 59.3413L-23.4713 59.3448ZM-53.644 61.1896C-53.5697 61.2921 -53.4954 61.398 -53.4173 61.5039C-53.3616 61.4424 -53.2427 61.3638 -53.2576 61.3228C-53.2947 61.2032 -53.3876 61.1007 -53.4582 60.9914C-53.5139 61.0529 -53.5734 61.1144 -53.6403 61.1862L-53.644 61.1896ZM-27.6214 58.9348C-27.5545 58.9861 -27.4691 59.0954 -27.4245 59.0817C-27.2944 59.0475 -27.183 58.9621 -27.0641 58.8972C-27.131 58.846 -27.2164 58.7367 -27.261 58.7503C-27.3911 58.7879 -27.5025 58.8699 -27.6214 58.9348ZM-97.3667 63.4648C-97.2998 63.3931 -97.2404 63.3316 -97.1847 63.2701C-97.3147 63.2223 -97.4373 63.1539 -97.571 63.1369C-97.6194 63.13 -97.6825 63.2496 -97.742 63.3111C-97.6156 63.3658 -97.4893 63.417 -97.3667 63.4682L-97.3667 63.4648ZM123.09 47.3262C123.164 47.4287 123.238 47.5346 123.316 47.6405C123.372 47.579 123.491 47.5004 123.476 47.4594C123.435 47.3399 123.346 47.2374 123.276 47.128C123.22 47.1895 123.16 47.251 123.093 47.3228L123.09 47.3262ZM-36.6907 58.4634C-36.7687 58.4019 -36.8356 58.3472 -36.9024 58.2959C-36.9545 58.4155 -37.0287 58.5283 -37.0473 58.6512C-37.0548 58.6957 -36.9247 58.7537 -36.8579 58.8084C-36.8021 58.6922 -36.7427 58.5761 -36.687 58.4634L-36.6907 58.4634ZM-43.9097 59.1159C-43.984 59.0134 -44.0583 58.9075 -44.1363 58.8016C-44.192 58.8631 -44.3109 58.9416 -44.2961 58.9826C-44.2552 59.1022 -44.166 59.2047 -44.0954 59.314C-44.0397 59.2525 -43.9803 59.191 -43.9134 59.1193L-43.9097 59.1159ZM-34.8924 57.9714C-34.8107 58.0329 -34.7475 58.0876 -34.6806 58.1388C-34.6286 58.0192 -34.5543 57.9065 -34.5357 57.7835C-34.5283 57.7391 -34.6583 57.681 -34.7252 57.6264C-34.7847 57.7425 -34.8404 57.8587 -34.8961 57.968L-34.8924 57.9714ZM15.9341 53.6566C15.8227 53.7249 15.7075 53.7933 15.5923 53.865C15.6592 53.9162 15.7446 54.0256 15.7892 54.0119C15.9193 53.9743 16.0307 53.8923 16.1496 53.8274C16.0828 53.7762 16.0159 53.7215 15.9378 53.66L15.9341 53.6566ZM-29.7169 57.2779C-29.6611 57.2164 -29.5422 57.1378 -29.5571 57.0968C-29.5943 56.9773 -29.6871 56.8748 -29.7577 56.7654C-29.8135 56.8269 -29.9323 56.9055 -29.9175 56.9465C-29.8803 57.0661 -29.7874 57.1686 -29.7169 57.2779ZM-4.95749 54.7054C-4.88318 54.8079 -4.8089 54.9138 -4.73087 55.0197C-4.67514 54.9582 -4.55625 54.8796 -4.57111 54.8386C-4.60825 54.7191 -4.70114 54.6166 -4.77173 54.5073C-4.82745 54.5688 -4.8869 54.6303 -4.95377 54.702L-4.95749 54.7054ZM-10.891 54.9377C-10.8353 54.8762 -10.7164 54.7976 -10.7312 54.7567C-10.7721 54.6371 -10.8613 54.5346 -10.9319 54.4253C-10.9876 54.4868 -11.1065 54.5653 -11.0916 54.6063C-11.0544 54.7259 -10.9616 54.8284 -10.891 54.9377ZM7.72314 52.4301C7.80487 52.4916 7.86804 52.5463 7.9349 52.5975C7.98694 52.478 8.06122 52.3652 8.0798 52.2422C8.08722 52.1978 7.95721 52.1398 7.89032 52.0851C7.83459 52.2013 7.77515 52.3174 7.71942 52.4267L7.72314 52.4301ZM3.73282 51.5317C3.80713 51.6341 3.88141 51.7401 3.95944 51.846C4.01517 51.7845 4.13406 51.7059 4.1192 51.6649C4.07834 51.5453 3.98917 51.4428 3.91858 51.3335C3.86285 51.395 3.80337 51.4565 3.73651 51.5282L3.73282 51.5317ZM230.721 35.089C230.654 35.1607 230.595 35.2222 230.539 35.2837C230.669 35.3315 230.791 35.3999 230.925 35.4169C230.97 35.4238 231.037 35.3042 231.096 35.2427C230.97 35.1914 230.844 35.1368 230.725 35.0855L230.721 35.089ZM-78.3773 54.8352C-78.4516 54.7327 -78.526 54.6268 -78.604 54.5209C-78.6597 54.5824 -78.7786 54.661 -78.7637 54.702C-78.7229 54.8216 -78.6337 54.924 -78.5631 55.0334C-78.5074 54.9719 -78.4479 54.9104 -78.381 54.8386L-78.3773 54.8352ZM84.6429 42.294C84.7172 42.3964 84.7915 42.5023 84.8695 42.6083C84.9252 42.5468 85.0441 42.4682 85.0293 42.4272C84.9884 42.3076 84.8992 42.2051 84.8286 42.0958C84.7729 42.1573 84.7135 42.2188 84.6466 42.2905L84.6429 42.294ZM85.5866 40.1724C85.6609 40.2749 85.7352 40.3808 85.8132 40.4867C85.869 40.4252 85.9879 40.3467 85.973 40.3057C85.9358 40.1861 85.8429 40.0836 85.7724 39.9743C85.7166 40.0358 85.6572 40.0973 85.5903 40.169L85.5866 40.1724ZM92.4452 38.5565C92.3337 38.6248 92.2186 38.6932 92.1034 38.7649C92.1703 38.8161 92.2557 38.9255 92.3003 38.9118C92.4303 38.8776 92.5418 38.7922 92.6607 38.7273C92.5938 38.6761 92.5269 38.6214 92.4489 38.5599L92.4452 38.5565ZM-31.8755 44.576C-31.8198 44.5145 -31.7009 44.436 -31.7158 44.395C-31.7566 44.2754 -31.8458 44.1729 -31.9164 44.0636C-31.9721 44.1251 -32.091 44.2037 -32.0761 44.2447C-32.039 44.3642 -31.9461 44.4667 -31.8755 44.576Z" fill="#5541D9"/>
</svg>
