<svg width="135" height="322" viewBox="0 0 135 322" fill="none" xmlns="http://www.w3.org/2000/svg">
<path d="M25.2749 234.369C7.80978 258.334 -17.0739 282.042 -19.422 314.217C-19.1008 316.742 -16.9586 325.531 -21.4815 319.871C-36.3335 310.882 -32.7288 299.88 -29.6859 284.685C-20.1158 258.937 -2.38736 242.063 10.8613 219.398C28.4921 192.55 40.8532 165.785 49.5476 136.725C52.4512 130.146 53.2893 123.195 56.1049 116.616C58.8079 114.972 60.5633 120.103 63.3628 120.903C63.8737 122.799 66.1663 122.166 64.7567 124.696C66.3456 127.102 65.8692 121.457 69.5769 127.1C74.1525 129.399 70.3534 131.32 70.6501 135.11C69.7346 146.721 69.0909 158.299 69.6775 169.987C70.1524 171.114 69.5691 188.005 71.5102 183.55C81.7324 151.713 97.4552 123.257 107.942 91.3693C115.093 69.5318 120.078 47.4509 115.705 25.1556C114.293 20.5704 114.098 13.4411 109.32 11.4477C108.804 10.9016 109.784 10.2226 109.137 9.7637C106.567 10.1919 103.636 7.558 102.111 5.68799C96.9477 4.63238 99.0495 -0.361727 103.552 0.290486C111.534 5.81635 120.607 10.4937 126.524 18.3331C133.823 29.5458 134.976 44.2068 134.627 57.1003C132.545 95.9552 111.615 135.406 96.3886 171.487C86.3055 191.062 81.12 213.787 83.5488 234.59C81.8479 238.937 93.2418 256.517 83.6992 249.774C71.5977 240.51 69.5818 240.456 65.4929 222.494C61.0842 208.661 56.6183 194.922 55.2069 181.044C47.3164 195.105 36.254 217.88 25.2763 234.366L25.2749 234.369ZM77.7814 204.068C79.2117 202.023 77.8556 200.805 77.3342 203.591C77.958 204.308 77.371 204.821 77.0365 205.774C77.2198 207.458 79.0648 204.17 77.7796 204.063L77.7814 204.068ZM126.431 68.2397C117.865 111.667 88.1887 157.078 78.1432 200.703C89.8348 160.934 124.118 98.7161 126.431 68.2397ZM1.34762 253.385C2.31091 254.297 3.91109 249.942 2.44577 250.984C1.84754 253.221 0.05187 253.362 -0.414163 255.681C0.278265 256.829 0.952587 253.984 1.34619 253.388L1.34762 253.385ZM-7.46036 265.806C-5.56363 265.937 -6.12722 262.366 -4.27304 262.309C-3.79764 259.694 -1.14294 259.162 -1.2444 256.6C-6.53788 263.849 -11.7884 270.23 -15.8442 279.082C-17.1204 280.07 -18.2516 281.807 -15.7229 280.638C-13.6309 274.568 -10.0398 271.044 -7.45893 265.803L-7.46036 265.806ZM-18.9804 286.094C-19.213 287.523 -23.0005 292.953 -21.1827 292.78C-19.9875 290.188 -18.8244 287.582 -17.6836 284.966C-18.1753 283.19 -19.9466 284.821 -18.9787 286.099L-18.9804 286.094ZM22.0804 225.194C22.3757 224.723 23.2167 222.768 22.0462 223.512C20.9227 224.914 20.302 228.977 22.0804 225.194ZM25.6227 219.093C25.1119 217.532 24.3399 220.328 24.0205 220.861C24.5298 222.426 25.3033 219.627 25.6227 219.093ZM-23.095 297.102C-22.7715 298.799 -20.8886 294.929 -21.8118 294.846C-22.5702 295.167 -22.6424 296.417 -23.095 297.102ZM28.1965 213.354C28.0129 213.944 26.4412 216.39 27.9446 215.727C28.1282 215.137 29.6999 212.69 28.1965 213.354ZM5.09806 248.63C4.78658 247.215 3.57037 249.571 3.90894 250.076C4.55619 250.569 4.8135 249.059 5.09806 248.63ZM6.39051 245.744L5.76435 247.142C6.09498 248.969 7.94328 244.875 6.39051 245.744ZM8.35098 243.175L7.72482 244.574C8.05545 246.401 9.90375 242.307 8.35098 243.175ZM9.84969 242.548C10.5641 242.299 11.1153 241.129 10.8083 240.407C10.0938 240.656 9.54269 241.827 9.84969 242.548ZM13.0865 237.121C12.3721 237.37 11.8209 238.54 12.1279 239.262C12.8424 239.013 13.3935 237.842 13.0865 237.121ZM13.91 236.191C14.2964 237.928 16.1191 233.823 14.5362 234.793L13.91 236.191ZM16.8752 233.19C17.0253 232.623 17.6845 232 17.3892 231.441C16.6983 230.771 15.5368 234.042 16.8752 233.19ZM19.7914 228.487C19.405 226.751 17.5823 230.856 19.1653 229.886L19.7914 228.487ZM48.5814 175.062C48.195 173.325 46.3723 177.43 47.9552 176.46C48.1644 175.993 48.3736 175.526 48.5814 175.062ZM-22.8405 299.536C-23.3674 299.178 -23.9237 300.3 -23.5904 300.645C-23.086 301.028 -22.5185 299.873 -22.8405 299.536ZM126.693 64.0351C126.163 64.7734 127.189 65.2098 127.357 64.363C127.817 63.4551 126.811 63.2657 126.693 64.0351ZM31.9813 208.522C32.1286 208.296 32.1856 208.049 32.0099 207.832C30.9718 207.225 30.9175 210.22 31.9813 208.522ZM77.627 207.732C77.6164 207.19 77.0339 207.478 77.073 207.769C77.0572 208.319 77.6583 208.023 77.627 207.732ZM35.3229 202.569C35.3122 202.027 34.7298 202.315 34.7688 202.606C34.7531 203.156 35.3541 202.86 35.3229 202.569ZM35.3486 201.002C35.4202 201.357 35.5999 201.633 36.0138 201.292C36.0072 200.99 35.7489 200.674 35.3486 201.002ZM41.4011 190.505C41.2466 190.267 40.6202 190.482 40.9651 190.878C41.1121 191.125 41.72 190.917 41.4011 190.505ZM127.316 61.7439C126.971 61.8355 126.699 62.0323 127.007 62.4507C127.296 62.4305 127.612 62.1455 127.316 61.7439Z" fill="#5541D9"/>
</svg>
