<svg width="292" height="80" viewBox="0 0 292 80" fill="none" xmlns="http://www.w3.org/2000/svg">
    <path
        d="M233.71 11.2235C278.723 4.79319 104.98 11.995 101.282 13.4495C81.8282 16.1852 62.0666 18.0254 42.5987 20.9486C36.8761 23.0579 30.1733 23.1463 24.3765 25.3157C20.3526 25.39 17.1251 27.6267 13.1402 27.6514C11.1902 25.0751 7.44954 26.7561 5.21291 24.7035C-17.2985 20.4886 40.1497 13.7397 44.0567 12.0127C87.7949 6.90242 137.776 1.79568 177.292 2.16373C194.807 0.457945 219.862 -0.915177 240.212 0.762298C256.466 1.39577 273.998 -0.356019 286.427 9.316C288.586 10.1724 289.563 12.0764 291.902 12.2144C292.114 12.4975 291.513 12.7594 291.35 13.0107C291.173 13.3221 291.364 13.7326 291.063 14.0193C290.21 15.2756 288.862 14.8262 287.56 15.0775C286.399 16.5461 284.18 14.8651 282.909 16.4293C270.017 18.0042 255.564 21.2494 243.202 21.7343C216.561 27.5488 188.893 30.4048 162.308 36.6015C155.418 36.6121 149.543 39.3619 142.72 39.6415C147.352 41.6446 160.103 40.7775 167.769 41.0889C179.5 43.0601 184.611 40.137 195.812 47.8873C202.769 49.1861 199.991 51.628 194.166 50.7822C189.289 52.3712 184.267 53.3727 179.118 54.53C169.903 57.1771 161.317 60.164 152.08 62.8182C151.249 63.9578 147.098 64.202 148.12 65.7698C153.634 65.6884 158.398 66.8315 163.989 66.612C168.622 67.7197 172.745 69.6626 177.225 71.8037C179.27 73.3502 183.269 73.4033 184.172 75.8382C184.929 76.4929 185.644 78.5101 183.903 78.5207C182.289 79.7452 181.599 79.0692 181.642 77.275C179.055 76.9423 176.598 76.3407 174.213 75.4949C164.138 73.2582 152.983 73.8316 142.504 72.515C138.409 70.289 133.727 69.015 129.65 66.5342C127.725 66.1343 126.189 64.5347 124.289 64.2905C123.418 63.9826 124.36 62.6378 123.071 62.6944C124.437 60.6524 125.23 59.5305 127.304 58.3273C134.962 54.5831 143.396 52.7428 151.235 49.3454C151.751 49.5294 152.894 48.9844 151.96 48.6163C142.78 49.0693 132.719 47.5546 124.123 49.3454C109.853 49.0552 96.5645 50.8954 82.989 52.3287C82.4688 49.6816 79.5173 51.7554 78.0946 50.0921C76.1269 49.6922 74.6582 48.1209 72.7012 47.8484C71.7634 46.6204 69.2153 46.9566 69.0596 45.3428C65.917 43.8033 81.4318 41.4499 82.9642 41.0996C96.5822 37.0227 110.062 34.0216 124.508 31.109C160.252 23.6099 196.611 15.6437 233.71 11.2306V11.2235ZM138.912 64.2834C140.105 64.3082 140.374 64.5063 140.975 62.8713C139.928 63.2606 140.795 64.0711 141.205 63.0872C140.642 63.5296 138.608 63.25 138.905 64.6161C139.096 64.1206 138.491 64.2091 138.293 64.4886C137.928 65.0443 138.99 65.1611 138.915 64.2869L138.912 64.2834ZM86.4183 41.6092C86.5315 40.9757 85.2681 40.9261 85.0876 41.3756C84.9425 42.0055 86.2413 42.0551 86.4183 41.6092ZM82.7094 42.363C82.9571 42.8301 83.3995 42.3524 83.2332 42.1152C83.0102 41.6339 82.5502 42.1223 82.7094 42.363ZM152.93 50.7079C153.425 50.4743 152.919 50.0567 152.668 50.2124C152.155 50.4248 152.675 50.853 152.93 50.7079ZM148.301 52.0775C148.457 51.8368 148 51.3484 147.777 51.8297C147.611 52.0668 148.053 52.5411 148.301 52.0775ZM145.919 52.8242C146.008 52.6579 145.926 52.4844 145.647 52.3393C145.137 52.4561 145.459 53.44 145.919 52.8242ZM141.686 53.8222C141.389 54.0345 141.209 54.3141 141.694 54.5547C141.97 54.4238 142.154 54.0557 141.686 53.8222ZM139.305 54.5689C139.007 54.7812 138.827 55.0608 139.312 55.3015C139.588 55.1705 139.772 54.8025 139.305 54.5689ZM144.992 61.4204C144.737 61.2717 144.217 61.7035 144.73 61.9158C144.981 62.0715 145.487 61.6539 144.992 61.4204ZM178.711 75.9939C178.959 76.461 179.401 75.9832 179.235 75.7461C179.012 75.2648 178.552 75.7532 178.711 75.9939Z"
        fill="#C0B8F2" />
</svg>