<svg width="168" height="154" viewBox="0 0 168 154" fill="none" xmlns="http://www.w3.org/2000/svg">
<path d="M137.629 61.8075C137.644 61.6352 137.744 61.3748 137.667 61.3021C137.4 61.057 137.075 60.877 136.617 60.563C136.303 60.7239 135.91 60.9306 135.512 61.1374C135.623 61.4974 135.765 61.9492 135.948 62.5466C135.799 62.7342 135.596 62.9946 135.348 63.3086C135.207 62.9104 135.115 62.6538 135.004 62.3321C134.718 62.6002 134.466 62.8414 134.21 63.0827C133.698 62.9448 133.912 62.0028 133.044 62.1483C132.934 62.2747 132.762 62.4738 132.513 62.7648C132.357 62.738 132.105 62.6997 131.856 62.65C131.562 62.5925 131.306 62.6078 131.195 62.9525C131.027 62.9333 130.767 62.8376 130.702 62.9104C130.473 63.1784 130.672 63.3469 130.928 63.4579C130.84 63.6264 130.748 63.7987 130.66 63.9672C130.317 63.7681 130.057 63.8485 129.885 64.2085C129.388 63.9213 128.987 64.3118 128.563 64.4306C128.273 64.511 128.292 65.116 127.784 64.9858C127.799 64.6067 127.814 64.2085 127.829 63.7872C127.18 63.9251 127.279 64.5646 126.92 64.8556C126.317 65.296 125.961 64.5301 125.403 64.5301C125.048 64.7714 124.464 64.5914 124.223 65.116C123.975 64.9858 123.73 64.8403 123.474 64.7292C123.409 64.6986 123.233 64.7522 123.222 64.7943C123.188 64.9322 123.149 65.1581 123.222 65.2155C123.44 65.3879 123.707 65.4912 123.955 65.6253C123.703 66.1499 123.123 65.9929 122.725 66.2188C121.69 65.6636 121.063 66.4792 120.337 66.9272C120.242 66.686 120.15 66.4409 120.055 66.1958C119.455 66.3413 119.482 66.9349 119.191 67.2833C118.324 67.5858 117.48 68.0185 116.433 67.6969C116.253 67.9917 116.062 68.3057 115.764 68.8035C115.126 69.0026 114.179 69.0716 113.552 69.5579C113.002 69.9868 112.364 70.3391 111.883 70.8598C111.619 70.7986 111.359 70.7373 111.145 70.6875C110.129 71.4342 109.132 72.1618 108.165 72.874C107.94 72.7706 107.768 72.6902 107.646 72.6328C106.973 72.8434 106.335 73.0387 105.671 73.2454C105.506 73.5556 105.331 73.8926 105.101 74.3291C104.605 74.1683 104.097 74.0036 103.504 73.816C103.172 74.3674 102.84 74.9188 102.511 75.4702C101.793 75.4817 101.613 76.0676 101.258 76.7147C100.67 76.8717 99.9552 77.0632 99.2408 77.2585C98.6333 77.0632 98.1978 76.3777 97.4375 76.6152C97.5025 76.8832 97.5674 77.1474 97.6324 77.4116C97.2656 77.5265 96.9027 77.6376 96.5359 77.7524C96.1271 77.561 95.7145 77.3695 95.2598 77.1551C95.1109 77.8635 95.5158 78.323 95.5349 78.8438C95.5426 79.062 95.2904 79.2918 95.1185 79.5828C94.8167 79.1731 94.576 78.8399 94.3888 78.5834C93.7813 78.4072 93.7202 78.8782 93.468 79.1118C93.2923 79.2765 92.9943 79.3071 92.7574 79.399C92.8262 79.6211 92.8835 79.8049 92.9408 79.9887C92.3869 80.6703 91.6342 80.2185 90.958 80.3333C91.0268 80.5975 91.0917 80.8579 91.1605 81.126C90.4384 81.3481 89.7087 81.5702 88.8988 81.8152C88.7383 82.0871 88.5511 82.4049 88.234 82.9487C87.8749 82.9946 87.3094 83.0636 86.8777 83.1133C86.5988 83.6456 86.5071 84.1357 86.2282 84.2851C85.51 84.668 84.9102 85.1964 84.253 85.6521C83.2903 86.3184 82.1136 86.3567 81.0744 86.8354C81.1355 87.0689 81.2005 87.3332 81.2425 87.5055C80.8528 87.7773 80.4937 88.0339 79.9932 88.3862C79.8213 88.3632 79.4698 88.3134 79.0839 88.256C79.0725 88.5508 79.0648 88.8457 79.0496 89.2899C78.572 89.0678 78.1632 88.8763 77.7506 88.6849C77.1699 88.7959 77.189 89.3895 76.8757 89.7724C76.6503 89.8566 76.3867 89.9562 76.0963 90.0634C75.8442 90.542 75.5767 91.0475 75.2749 91.6219C74.9464 91.5721 74.6025 91.5223 74.2587 91.4687C73.5175 91.8019 73.678 92.8549 72.8642 93.1842C72.7687 92.9468 72.6732 92.7094 72.57 92.4567C71.7906 92.6175 71.8518 93.4408 71.2558 94.1683C70.9654 94.1951 70.4 94.2449 70.0026 94.2794C69.7047 94.8461 69.5289 95.1792 69.3264 95.5622C68.3598 95.589 67.6913 96.2821 66.9233 96.7531C66.5604 96.9751 66.3579 97.4538 66.0637 97.8405C65.6435 97.9707 65.185 98.1124 64.6769 98.2694C64.5241 98.5643 64.3483 98.8936 64.1077 99.3531C64.4668 99.8241 64.7762 100.609 65.3302 100.858C66.0332 101.18 65.9644 101.984 66.5948 102.263C67.2901 102.573 67.9511 102.968 68.6273 103.324C68.8833 103.944 69.2768 104.423 70.06 104.71C70.1478 105.185 70.251 105.744 70.3503 106.303C70.4382 106.265 70.5222 106.223 70.6101 106.184C70.8432 106.548 71.0724 106.908 71.3054 107.272C71.741 107.138 72.1994 106.996 72.6693 106.847C72.7458 106.977 72.8757 107.1 72.8986 107.245C73.0896 108.359 74.1975 109.022 74.2587 110.282C74.6025 109.968 74.8623 109.73 75.1336 109.485C75.8977 109.799 74.7286 110.278 75.3933 110.642C75.4812 110.623 75.7257 110.573 75.9626 110.527C76.3332 111.109 76.7114 111.702 77.1469 112.388C77.5443 112.598 78.0524 112.866 78.5452 113.127C78.6064 113.322 78.6637 113.506 78.763 113.828C79.4087 114.168 80.146 114.559 80.7497 114.877C80.9216 115.298 81.0247 115.555 81.0973 115.735C81.6437 116.282 82.6714 115.279 82.9503 116.405C82.6637 116.523 82.4307 116.619 82.1976 116.715C82.3695 117.316 82.9617 117.285 83.3323 117.607C83.4546 118.04 83.5845 118.499 83.6914 118.878C84.1155 119.541 85.147 119.483 85.1127 120.437C85.3648 120.36 85.5444 120.303 85.7736 120.234C85.9952 120.337 86.3237 120.391 86.4842 120.582C86.9961 121.191 87.4508 121.854 88.0773 122.704C88.3371 122.842 88.8414 123.11 89.2006 123.297C89.7316 124.086 90.1786 124.749 90.6447 125.442C90.9542 125.388 91.2216 125.346 91.5272 125.292C91.5425 125.3 91.6419 125.319 91.6571 125.365C91.8902 126.096 92.1118 126.828 92.1767 127.042C92.6925 127.846 92.9255 128.21 93.1624 128.578C93.3152 128.528 93.4986 128.474 93.682 128.417C93.7508 128.432 93.873 128.428 93.8807 128.459C94.1175 129.187 94.3391 129.922 94.5683 130.657C94.7288 130.753 94.8893 130.848 95.0727 130.956C94.9771 132.085 95.2293 133.242 94.9084 134.371C94.8587 134.551 94.7364 134.712 94.6333 134.904C94.7785 135.421 94.9275 135.957 95.0765 136.493C94.8816 136.554 94.6982 136.611 94.4002 136.703C94.1137 137.178 93.7813 137.733 93.4795 138.243C93.2083 138.361 92.9828 138.457 92.6466 138.606C92.9485 138.855 93.1548 139.024 93.3764 139.208C93.3611 139.311 93.3916 139.529 93.3114 139.583C92.5702 140.077 91.7718 140.445 91.2445 141.268C90.9313 141.754 90.2856 142.03 89.7813 142.39C89.7087 142.443 89.6017 142.447 89.51 142.478C89.0592 142.631 88.6084 142.784 88.2034 142.926C87.9742 142.803 87.8061 142.715 87.5845 142.6C87.3362 142.834 87.0764 143.075 86.7822 143.351C86.553 143.282 86.2932 143.209 85.9837 143.117C85.7469 143.336 85.4832 143.573 85.1432 143.883C84.6084 143.6 84.0429 143.301 83.5654 143.048C82.9732 143.232 82.5147 143.374 82.0295 143.523C81.9378 143.274 81.8423 143.025 81.7468 142.777C81.2349 142.918 80.7153 143.064 80.2186 143.205C80.0925 142.899 79.9894 142.643 79.8366 142.279C79.4889 142.298 79.1336 142.317 78.5911 142.344C78.0983 142.083 77.4297 141.731 76.8528 141.425C76.0314 141.452 75.3169 141.475 74.465 141.501C73.5901 141.038 72.5738 140.502 71.7448 140.065C71.0227 140.054 70.4229 139.882 69.9721 140.073C69.2233 140.387 68.7954 139.403 68.123 139.759C67.485 140.096 67.1182 139.346 66.5604 139.388C66.293 139.621 66.0294 139.855 65.7161 140.131C65.6015 139.851 65.5059 139.614 65.4181 139.399C64.994 139.411 64.5623 139.422 63.8708 139.445C63.8249 139.487 63.569 139.732 63.3092 139.977C62.7476 139.897 63.0112 138.878 62.1172 139.055C62.0102 139.181 61.8345 139.38 61.5785 139.671C60.8946 139.633 60.1038 139.583 59.2442 139.533C59.1143 139.69 58.9462 139.897 58.7743 140.104C58.5985 140.1 58.4113 140.131 58.247 140.081C57.9605 139.993 56.3024 139.717 55.8822 139.725C55.6147 139.725 55.3511 139.728 55.0837 139.717C54.9958 139.713 54.9118 139.66 54.7704 139.61C54.5297 139.832 54.2699 140.069 53.9452 140.368C53.6433 140.23 53.311 140.081 52.7799 139.84C52.4132 139.954 51.8821 140.119 51.3511 140.28C50.9117 140.414 50.5144 140.471 50.0063 140.36C49.544 140.261 48.9594 140.556 48.5201 140.234C48.2412 140.54 48.0616 140.739 47.8935 140.919C46.7321 140.87 45.586 140.824 44.3176 140.77C44.2182 140.889 44.0501 141.095 43.8285 141.367C43.542 141.325 43.1943 141.275 42.8428 141.222C42.5831 141.463 42.3271 141.704 42.0749 141.938C41.6852 141.731 41.349 141.555 40.9823 141.36C40.371 141.57 39.7406 141.785 39.0606 142.018C38.9994 142.118 38.9039 142.279 38.8046 142.44C37.7425 142.459 36.6804 142.474 35.6565 142.493C35.3318 142.964 35.0758 143.339 34.8122 143.722C34.2582 143.941 33.9832 143.336 33.5132 143.309C32.9096 143.332 32.9211 143.929 32.6307 144.301C32.0309 144.902 31.2591 144.5 30.5447 144.611C30.3728 144.936 30.1971 145.273 30.0519 145.549C29.2763 146.204 28.3861 145.645 27.5991 145.943C26.8847 146.215 26.1435 146.407 25.368 146.648C25.1464 146.59 24.8904 146.521 24.6306 146.453C24.134 146.824 23.5914 147.146 23.1597 147.582C22.9305 147.816 22.7586 147.946 22.4682 147.835C21.6659 147.525 21.0317 148.13 20.302 148.218C19.6564 149.198 18.472 149.041 17.6582 149.608C16.726 150.282 15.7938 150.952 14.8693 151.622C14.6821 151.522 14.514 151.434 14.2962 151.32C13.364 151.848 12.0689 151.649 11.3353 152.702C10.3076 153.043 9.19969 153.192 8.39739 154.019C8.2866 153.747 8.18726 153.514 8.04591 153.169C7.80522 153.452 7.6333 153.655 7.40025 153.939C6.95707 154.176 6.63615 153.659 6.03251 153.544C5.92554 153.567 5.65429 153.625 5.3219 153.697C4.53871 153.284 3.70202 152.84 2.80421 152.369C2.73162 152.17 2.63229 151.909 2.52531 151.618C2.21585 151.454 1.88347 151.277 1.45558 151.055C1.26455 150.381 1.21489 149.543 0.806095 148.945C0.439329 148.409 0.0305375 147.946 -0.0229492 147.199C0.114588 146.935 0.294151 146.598 0.500457 146.204C-0.156666 145.426 0.328535 144.438 0.0802038 143.542C-2.63359e-05 143.263 0.339996 142.865 0.52338 142.432C-0.129923 141.153 0.404945 139.698 0.225382 138.292C0.408765 138.235 0.592148 138.178 0.901607 138.082C0.664737 137.308 0.424047 136.527 0.183357 135.746C0.542482 135.064 0.897787 134.387 1.28366 133.651C1.05443 133.406 0.813736 133.15 0.599789 132.92C0.611251 132.361 0.618892 131.829 0.634174 131.201C0.809916 130.868 1.0315 130.443 1.39063 129.765C1.21107 129.451 0.928351 128.957 0.695301 128.551C1.1996 128.095 1.82234 128.195 1.88729 127.586C1.56255 127.054 1.23781 126.521 0.882505 125.936C1.1614 125.323 1.42883 124.737 1.69627 124.147C1.55491 123.688 1.41355 123.232 1.25309 122.715C1.40591 122.424 1.57783 122.095 1.69245 121.88C1.82616 121.084 1.13466 120.548 1.41355 119.855C1.6466 119.265 1.19578 118.599 1.71155 118.001C2.06685 117.584 1.38299 116.925 1.86055 116.431C1.38299 115.731 2.04775 115.206 2.15855 114.498C1.98662 114.356 1.78032 114.188 1.52435 113.977C1.26073 113.226 1.85291 113.092 2.40688 112.935C2.50239 112.453 2.00191 112.426 1.79178 112.127C1.63896 111.618 2.17001 111.312 2.23878 110.868C2.29226 110.523 1.97898 110.217 2.14326 109.784C2.29226 109.393 2.10506 108.873 2.24642 108.474C2.40688 108.022 2.65521 107.628 2.38777 107.146C2.79657 106.372 2.2808 105.702 2.15855 104.921C2.39159 104.477 2.65903 103.971 2.92646 103.462C2.76982 102.91 2.617 102.367 2.46036 101.808C2.72398 101.306 2.99141 100.801 3.24738 100.307C3.01433 99.5561 2.78892 98.8247 2.54823 98.0435C2.78128 97.9478 3.01815 97.852 3.25502 97.7563C2.92264 96.9981 3.43077 96.1863 3.04872 95.3477C2.7851 94.7619 3.01051 93.9539 3.01433 93.234C3.32379 93.1038 3.57594 92.9966 3.91215 92.8549C3.68292 92.1044 3.44223 91.327 3.20154 90.5535C3.43841 90.4808 3.61797 90.4233 3.82428 90.3582C3.9962 89.803 3.59123 89.3512 3.511 88.7883C3.66764 88.4934 3.83956 88.1603 4.0153 87.8271C3.94271 87.5361 3.87776 87.2642 3.80135 86.9617C4.0535 86.4831 4.31712 85.9776 4.58073 85.4798C4.50432 85.1926 4.43173 84.9207 4.35532 84.6374C4.53106 84.3042 4.70681 83.9673 4.88255 83.6341C4.73737 83.1708 4.59601 82.7113 4.44319 82.2058C4.89401 81.5242 4.62276 80.6167 4.9475 79.9121C5.30662 79.1348 4.6877 78.1775 5.51293 77.538C5.44798 77.2738 5.37921 77.0019 5.3028 76.7032C5.46708 76.3892 5.64282 76.0523 5.81857 75.7268C5.74216 75.4396 5.66957 75.1677 5.59316 74.8843C5.76508 74.555 5.94464 74.2181 6.10892 73.9002C6.03251 73.6054 5.96375 73.3335 5.8988 73.0808C6.13567 72.6328 6.35725 72.2077 6.57884 71.7865C6.61323 71.0704 6.36872 70.3084 7.03348 69.803C6.71256 69.4162 6.48333 69.1443 6.2159 68.8227C6.46423 68.7193 6.69728 68.6197 6.97999 68.501C7.39643 67.7084 7.8396 66.8698 8.28278 66.0273C8.56167 65.924 8.82529 65.8282 9.0889 65.7325C9.02777 65.4798 8.96282 65.2155 8.89787 64.9513C9.08126 64.8939 9.26464 64.8365 9.54736 64.7484C9.75366 64.4382 10.0058 64.0591 10.3 63.6111C10.533 63.6647 10.7928 63.726 11.1902 63.8179C12.0421 63.523 13.0355 63.1822 13.8607 62.895C14.6668 62.9946 15.1864 63.703 15.9161 63.1746C16.0193 63.435 16.1148 63.68 16.2103 63.9289C16.4624 63.8638 16.726 63.7949 16.9858 63.726C17.3259 63.9059 17.6621 64.0859 18.2351 64.3846C18.2695 64.7445 18.3192 65.2883 18.3803 65.9469C18.854 65.5487 19.1253 65.3189 19.4004 65.093C19.8932 65.4032 19.3698 65.6942 19.3698 65.6827C19.3927 66.2686 19.4882 66.3298 19.6907 66.2839C20.4892 66.1078 21.3106 66.2839 22.1282 65.9967C22.6631 65.8129 23.4501 65.8742 23.9315 66.1575C24.4702 66.4715 24.963 66.1997 25.4329 66.3605C25.494 66.5634 25.5514 66.7472 25.6163 66.9578C25.8723 66.8966 26.1321 66.8315 26.3919 66.7702C26.4492 66.9349 26.5103 67.111 26.6402 67.5016C27.1598 67.9113 27.985 68.1679 28.6803 68.635C28.7376 68.8188 28.7949 69.0026 28.8484 69.1864C28.9783 69.309 29.0891 69.466 29.2381 69.5502C29.9067 69.9217 30.5867 70.2701 31.263 70.6301C31.7749 71.484 32.5161 72.2154 32.6307 73.299C32.9211 73.2263 33.1809 73.1612 33.4597 73.0923C33.5018 73.2646 33.5476 73.4445 33.5896 73.6054C33.9984 74.2066 34.7167 74.2946 35.221 74.7005C35.2783 74.8843 35.3356 75.0681 35.4197 75.3438C35.8475 75.5698 36.3366 75.8302 36.8294 76.0906C36.9631 76.3739 37.0777 76.619 37.242 76.9789C37.6355 77.1857 38.1284 77.4461 38.8122 77.8099C38.8619 78.2617 38.9269 78.8284 38.9727 79.2343C39.519 79.5215 39.8514 79.6977 40.1876 79.8738C40.2831 80.1534 40.3786 80.4176 40.4742 80.6971C40.8868 80.9154 41.3108 81.1375 41.7311 81.3634C41.712 81.5319 41.6165 81.7923 41.6891 81.8574C41.9565 82.0871 42.1246 81.888 42.2354 81.6314C42.4837 81.7616 42.7359 81.8957 42.9498 82.0105C43.1065 82.359 43.2478 82.6845 43.4083 83.0444C43.775 83.0023 44.0348 82.9755 44.4475 82.9296C44.7951 83.435 45.2039 84.0324 45.6012 84.6067C45.8725 84.5531 46.1361 84.4995 46.4532 84.4383C46.9155 85.0969 47.3701 85.7402 47.8706 86.4524C48.1686 86.4984 48.6156 86.058 49.0091 86.5137C50.0381 85.7964 50.6978 85.139 50.9881 84.5416C50.9308 84.3617 50.8773 84.1817 50.7474 83.7643C51.2823 83.7299 51.8172 83.6954 52.3138 83.6648C52.2298 83.0751 52.1801 82.7381 52.1304 82.3935C52.5507 82.1063 52.9098 81.8612 53.2689 81.6123C53.7503 81.9186 53.9299 81.5625 54.1477 81.1872C54.0942 80.946 54.0369 80.678 53.9681 80.3716C54.1935 80.2835 54.438 80.1917 54.6863 80.0959C54.6252 79.8432 54.5603 79.5828 54.4953 79.3262C54.7589 79.2305 55.0225 79.1348 55.225 79.062C55.6873 78.5949 55.3091 78.1392 55.3014 77.5725C55.5651 77.404 55.863 77.2163 56.1954 77.0019C56.1878 76.753 56.1802 76.4199 56.1687 76.0867C56.5546 75.4051 57.3416 75.5813 57.9032 75.2673C58.8812 73.4101 59.8593 71.5491 60.8373 69.6881C61.5365 69.5885 62.3044 69.9561 62.9997 69.3052C63.4276 68.6963 62.7743 68.1372 62.6903 67.3255C63.1984 67.2604 63.7409 67.1876 64.1229 67.1378C64.4095 66.5979 64.5852 66.2571 64.7609 65.9278C65.0322 65.832 65.2996 65.7402 65.5327 65.6597C65.7237 65.296 65.8995 64.9628 66.0599 64.6603C65.9873 64.354 65.9186 64.0821 65.8307 63.7068C66.4687 63.2588 67.122 62.8031 67.9778 62.2019C68.1191 61.9339 68.379 61.4361 68.5967 61.0225C69.2844 60.5822 69.888 60.1954 70.6063 59.7359C70.7094 59.5406 70.8852 59.2037 71.0647 58.8629C70.996 58.6025 70.9272 58.3344 70.8584 58.0702C71.3207 57.9247 71.7754 57.7868 72.2338 57.6452C72.9979 57.0555 72.7878 56.1824 72.7419 55.4242C73.1393 55.2634 73.3952 55.1638 73.7047 55.0375C74.0333 54.4133 74.3847 53.7432 74.7401 53.0692C75.0151 52.9697 75.2787 52.8701 75.5767 52.7629C75.7372 52.4566 75.8595 51.8822 76.1001 51.8286C76.8604 51.6563 77.1622 50.8406 77.9034 50.7143C77.8461 50.5266 77.7888 50.3428 77.7315 50.159C77.7697 50.0263 78.2562 49.8157 79.1909 49.5272C79.1336 49.2745 79.0725 49.0179 79.019 48.7958C79.6035 48.4244 80.1919 48.0491 80.8223 47.6509C80.5892 47.3943 80.3523 47.1339 80.1002 46.8582C80.4211 46.1728 80.8414 47.0688 81.231 46.7893C81.5138 46.5902 81.9111 46.5519 82.3543 46.414C82.2931 45.9431 82.2511 45.5908 82.1938 45.1542C82.1938 45.1581 82.2014 45.0394 82.2664 44.9934C82.8968 44.5224 83.5348 44.0629 84.1919 43.5881C84.1575 43.4732 84.1002 43.2932 84.0429 43.1094C84.7535 42.424 85.5558 41.9032 86.5644 41.7386C86.4919 41.4514 86.4231 41.191 86.3543 40.9268C86.5301 40.8732 86.7134 40.8157 87.0305 40.7162C87.2827 40.2375 87.5807 39.6708 87.8328 39.1921C88.1499 39.0926 88.3333 39.039 88.6237 38.9471C88.5893 38.7365 88.5511 38.5144 88.5091 38.2463C88.7918 37.7638 89.0821 38.2463 89.384 38.2846C89.7354 38.1736 90.1022 38.0625 90.4575 37.9515C90.5263 37.5953 90.1022 37.2699 90.404 36.9061C90.5721 36.9252 90.8357 37.021 90.8969 36.9482C91.1261 36.6802 90.9274 36.5117 90.6715 36.4006C90.9695 35.9603 92.0812 35.0412 92.8682 34.5817C92.8109 34.4018 92.7574 34.218 92.7001 34.038C92.7192 33.9729 92.7192 33.8657 92.7613 33.8465C92.937 33.7738 93.1204 33.678 93.2999 33.678C94.129 33.6934 94.3277 32.5599 95.2407 32.7552C95.1491 32.3953 95.0803 32.1349 95.0115 31.8553C95.1834 31.8132 95.363 31.7673 95.5196 31.729C96.1271 31.3269 96.215 30.6147 96.597 30.0977C97.2159 30.0747 97.8387 30.0556 98.4882 30.0326C98.7747 29.4889 99.0307 29.0026 99.2866 28.5124C99.6152 28.0721 98.7403 27.4249 99.7222 27.0458C99.9285 27.0688 100.28 27.1033 100.628 27.1416C100.605 26.4446 100.612 25.7515 101.189 25.1925C101.491 25.2806 101.743 25.3533 102.068 25.4452C102.29 25.2384 102.546 25.001 102.847 24.7177C103.015 24.9666 103.18 25.204 103.352 25.4529C103.921 25.2001 103.929 24.7866 103.653 24.2352C103.963 23.9901 104.269 23.7335 104.589 23.5038C104.857 23.3123 105.143 23.1477 105.419 22.9715C105.357 22.7801 105.304 22.6001 105.247 22.4163C105.831 21.7998 106.58 22.244 107.249 22.1023C107.176 21.8381 107.107 21.5739 107.035 21.3058C107.164 21.0607 107.294 20.808 107.428 20.5553C107.6 20.5706 107.86 20.6702 107.932 20.5936C108.177 20.3255 108.356 20 108.578 19.6746C108.521 19.4027 108.467 19.1385 108.376 18.6866C108.891 18.6866 109.445 18.6828 109.659 18.6828C110.225 17.76 110.484 17.1664 110.798 16.6303C111.688 17.0094 110.641 17.4651 111.1 17.8595C111.543 17.5838 112.013 17.2928 112.525 16.9711C112.292 16.7222 112.055 16.4657 111.772 16.1632C111.86 15.9487 111.959 15.7113 112.051 15.493C112.719 15.4662 113.357 15.6654 114.018 15.3054C113.976 15.091 113.931 14.8536 113.889 14.6391C114.29 14.3366 114.695 14.0341 115.153 13.6895C115.306 13.9154 115.47 14.1566 115.631 14.3979C116.097 14.3022 116.07 13.8273 116.295 13.5516C116.372 13.5938 116.498 13.6895 116.521 13.6665C117.166 13.0921 117.931 12.759 118.76 12.5484C118.817 12.5331 118.844 12.399 118.886 12.3224C119.333 12.602 119.604 12.3301 119.699 11.9625C119.776 11.6715 119.669 11.3307 119.642 11.0052C120.028 11.0473 120.368 11.0856 120.689 11.1201C120.735 10.6338 120.804 10.1474 120.807 9.66114C120.807 9.53094 120.601 9.40075 120.49 9.27056C120.62 9.15951 120.754 8.95273 120.884 8.95273C121.22 8.95273 121.556 9.04463 121.915 9.10207C121.827 8.78042 121.755 8.52003 121.682 8.25964C122.324 8.05286 122.699 8.49322 123.111 8.82637C123.065 9.16717 123.019 9.50797 122.974 9.87558C123.153 9.8526 123.379 9.88323 123.432 9.80282C123.68 9.40841 123.879 8.98719 124.097 8.57364C124.334 8.57364 124.571 8.56981 124.689 8.56981C125.193 8.04137 124.723 7.60101 124.838 7.10321C124.995 6.96919 125.189 6.80453 125.438 6.5901C125.518 6.93473 125.583 7.2066 125.637 7.44019C125.927 7.59336 126.171 7.72355 126.42 7.85374C126.438 8.30559 126.709 8.57619 127.233 8.66554C127.329 8.02223 126.695 8.12179 126.42 7.85374C126.641 7.43253 126.863 7.01131 127.088 6.58627C127.608 6.59393 128.131 6.59776 128.918 6.60924C129.262 6.77007 129.843 7.03812 130.454 7.32531C130.66 7.07258 130.832 6.8658 131.031 6.62456C131.78 6.67051 132.567 6.71646 133.488 6.7739C133.575 6.49054 133.671 6.17654 133.763 5.88552C133.472 5.73235 133.304 5.64428 133.14 5.55621C133.025 5.1886 132.915 4.82483 132.804 4.46488C133.037 4.29639 133.224 4.33468 134.278 4.79419C134.855 4.58741 134.867 4.18152 134.695 3.67606C134.645 3.52289 134.718 3.33143 134.733 3.15528C135.218 3.4463 135.596 2.98297 136.028 2.97914C136.345 2.55027 136.651 2.13671 137.056 1.58913C137.079 2.55792 136.8 3.38504 137.537 3.99005C137.449 4.15854 137.358 4.33086 137.354 4.507C136.987 4.41893 136.617 4.17386 136.724 4.80185C136.915 4.72527 137.106 4.64868 137.354 4.507C137.767 4.6908 138.168 5.13882 138.829 5.10053C139.192 4.40744 139.574 3.68755 140.009 2.85277C139.597 2.52729 139.134 2.16351 138.366 1.5585C139.108 1.68869 139.444 1.74613 139.788 1.80357C140.219 1.69635 140.204 1.24067 140.422 0.964966C140.59 1.05304 140.762 1.14494 140.93 1.23301C140.575 1.91461 141.197 1.98737 141.553 2.20564C141.885 2.40858 142.236 2.54261 142.454 2.03715C142.638 2.332 142.821 2.62685 143.15 3.14762C143.57 3.01743 144.078 2.86043 144.575 2.70726C144.594 2.76853 144.651 2.95233 144.739 3.24336C145.77 2.92553 146.806 2.60387 147.921 2.25541C147.856 2.68812 147.807 3.03275 147.742 3.46545C148.261 3.77945 148.812 4.10876 149.35 4.43041C149.469 4.80951 149.579 5.17329 149.69 5.53323C149.327 5.64428 148.964 5.75916 148.567 5.88169C148.475 5.64045 148.38 5.39921 148.28 5.14265C148.032 5.20775 147.769 5.2805 147.501 5.34943C147.257 5.21924 147.004 5.08904 146.745 5.03926C146.833 4.67166 147.077 4.29639 146.45 4.40744C146.527 4.5989 146.603 4.79036 146.745 5.03926C146.737 5.12733 146.642 5.34943 146.718 5.46048C146.901 5.74001 147.165 5.96593 147.379 6.19186C146.29 6.78922 145.029 6.73944 144.044 7.57804C143.13 8.35154 141.721 8.12562 140.769 8.93741C140.426 8.73829 140.166 8.81871 139.963 9.23609C139.448 9.014 139.054 8.35154 138.34 8.6732C138.829 9.09441 139.37 9.28204 139.963 9.23609C140.338 9.37395 140.598 9.29353 140.769 8.93741C141.167 9.14802 141.564 9.35863 142.091 9.63433C142.175 9.96365 142.282 10.3887 142.385 10.7984C142.252 11.055 142.126 11.2924 142 11.5336C141.816 11.2388 141.633 10.9439 141.446 10.6452C140.834 10.8329 140.2 11.0282 139.639 11.2005C139.432 11.457 139.264 11.66 139.023 11.9587C138.878 11.614 138.779 11.3881 138.668 11.1201C138.439 11.1737 138.187 11.2311 137.919 11.2924C137.747 10.7946 137.572 10.2815 137.4 9.76836C137.018 9.88706 136.655 9.99811 136.215 10.136C136.468 10.4078 136.727 10.6299 136.911 10.9056C136.987 11.0205 136.892 11.2464 136.876 11.4188C136.361 11.2311 135.963 10.7372 135.088 10.8597C135.386 11.3728 135.658 11.8438 135.833 12.1463C135.348 13.0691 134.997 13.7393 134.641 14.417C134.718 14.6966 134.79 14.9684 134.867 15.2441C134.737 15.4892 134.603 15.7419 134.439 15.9794C134.389 15.9526 134.275 15.853 134.233 15.876C133.797 16.1325 133.365 16.3929 132.957 16.6878C132.88 16.7414 132.911 16.9482 132.888 17.1205C133.117 17.2047 133.354 17.2928 133.648 17.4038C133.915 16.8907 134.16 16.4274 134.439 15.9794C135.214 16.6035 134.924 17.4536 134.989 18.2195C135.157 18.2922 135.325 18.3688 135.551 18.4684C135.788 18.2463 136.04 18.0089 136.322 17.7446C136.632 18.1237 136.941 18.499 137.32 18.9662C137.274 19.1385 137.201 19.3912 137.113 19.7129C137.167 19.9043 137.239 20.1762 137.316 20.4442C137.14 20.7774 136.964 21.1105 136.754 21.5088C136.433 21.4552 136.089 21.3977 135.631 21.3211C135.612 21.8879 135.593 22.4431 135.57 23.0405C136.231 22.646 136.773 21.9721 137.667 22.2363C137.537 22.4852 137.407 22.7303 137.251 23.0251C137.018 23.0787 136.746 23.1438 136.51 23.1975C136.311 23.5727 136.139 23.902 135.963 24.2352C135.348 24.5913 134.989 23.8637 134.45 23.8714C134.099 23.9786 133.744 24.0897 133.392 24.2007C133.465 24.4611 133.537 24.7215 133.656 25.1465C133.251 25.0048 132.945 24.9015 132.685 24.8096C132.632 24.0743 133.086 23.6761 133.277 23.1706C133.449 23.1898 133.717 23.2855 133.774 23.2089C134.049 22.8681 134.267 22.4814 134.431 22.2248C134.294 21.7002 134.198 21.3403 134.11 21.011C133.828 20.8616 133.579 20.7314 133.331 20.6012C133.419 20.4328 133.511 20.2604 133.514 20.0843C133.881 20.1724 134.252 20.4174 134.145 19.7894C133.954 19.866 133.763 19.9426 133.514 20.0843C133.43 20.0728 133.17 19.9771 133.109 20.0537C132.88 20.3217 133.079 20.4902 133.335 20.6012C133.106 21.2752 133.617 21.8113 133.667 22.4354C133.537 22.6805 133.411 22.9256 133.281 23.1706C133.033 23.0405 132.785 22.9064 132.506 22.7609C132.173 22.8758 131.818 23.0022 131.459 23.1285C131.482 23.431 131.505 23.7603 131.528 24.0514C131.119 24.7713 130.351 24.6066 129.789 24.8938C130.317 25.4069 130.649 26.0196 130.744 26.7548C130.63 27.1875 130.133 27.49 130.32 28.0261C130.737 28.007 131.149 27.9878 131.623 27.9687C131.6 28.9758 131.581 29.8373 131.566 30.6568C131.917 30.6415 132.261 30.63 132.609 30.6147C132.506 30.9516 132.12 31.1967 132.277 31.6179C132.414 31.7328 132.552 31.8438 132.693 31.9626C133.228 31.9396 133.759 31.8975 134.129 31.4188C134.24 31.549 134.362 31.6715 134.458 31.8094C134.607 32.02 134.737 32.2459 134.874 32.4642C134.787 32.6327 134.695 32.805 134.607 32.9735C134.271 32.8701 134.026 32.4833 133.595 32.648C133.453 33.0998 133.751 33.4636 133.839 33.8695C134.332 34.1299 134.825 34.3903 135.398 34.6928C135.512 35.1676 135.646 35.7075 135.761 36.1824C136.089 36.3547 136.334 36.4849 136.582 36.6151C135.963 37.3311 136.395 38.1965 136.288 38.9854C136.231 39.4027 136.529 39.8699 136.693 40.4098C136.322 40.6281 136.021 40.8081 135.669 41.0187C135.623 41.7577 136.429 41.5471 136.792 41.8688C137.159 41.7539 137.522 41.6428 137.889 41.528C138.191 40.9536 138.492 40.3792 138.901 39.6057C138.351 39.7167 138.107 39.7665 137.851 39.8201C137.442 39.3223 138.087 39.0351 138.179 38.6101C138.133 38.342 138.087 38.074 138.042 37.7983C138.462 37.6336 138.825 37.871 139.169 38.5565C139.444 38.4952 139.711 38.4378 139.952 38.3842C140.322 38.6024 140.682 38.7824 140.376 39.2649C140.139 39.2687 139.898 39.2725 139.551 39.2802C139.577 39.8316 139.597 40.2643 139.627 40.8387C139.371 40.9765 139.062 41.145 138.722 41.3327C138.542 41.6735 138.336 42.0679 138.026 42.6537C138.427 42.5887 138.645 42.5542 138.974 42.5044C139.05 42.6729 139.146 42.8835 139.272 43.1592C139.73 42.872 140.2 42.581 140.659 42.2976C140.605 42.0602 140.552 41.8151 140.498 41.5548C141.159 41.5816 141.767 41.6045 142.378 41.6275C142.152 41.9032 142.183 42.4087 141.725 42.4623C141.148 42.5274 141.014 42.9907 140.888 43.4043C140.521 43.3162 140.147 43.0711 140.257 43.6991C140.449 43.6225 140.64 43.546 140.888 43.4043C141.148 43.3813 141.492 43.3698 141.839 43.3583C141.847 43.4809 141.881 43.657 141.866 43.8255C141.843 44.0744 141.789 44.3233 141.751 44.5454C142.072 44.7139 142.317 44.8441 142.573 44.89C142.485 45.2576 142.24 45.6329 142.867 45.5218C142.79 45.3304 142.714 45.1389 142.573 44.89C142.787 44.6986 142.768 44.239 143.356 44.1012C143.585 44.8441 143.818 45.6061 144.063 46.3604C144.07 46.3796 144.204 46.3604 144.28 46.3604C144.521 45.8473 145.255 45.8014 145.442 45.2078C145.228 45.0968 145.067 45.0087 144.869 44.9053C144.735 44.3884 144.594 43.8523 144.471 43.3851C144.215 43.2511 144.051 43.163 143.898 43.0826C143.807 42.8107 143.719 42.5504 143.631 42.2938C143.207 42.0717 142.794 41.8534 142.382 41.6352C142.599 41.4973 142.821 41.3671 143.035 41.2178C143.173 41.1182 143.295 40.9995 143.425 40.8885C143.612 41.1872 143.799 41.482 144.036 41.8611C144.185 41.9377 144.429 42.0717 144.678 42.2019C144.659 42.3704 144.563 42.6346 144.636 42.6959C144.903 42.9256 145.071 42.7265 145.182 42.4699C145.419 42.5963 145.656 42.7188 145.927 42.8644C146.443 42.5006 146.974 42.1253 147.505 41.7501H148.888C149.033 42.0564 149.174 42.3666 149.346 42.7342C149.61 42.4814 149.824 42.1559 150.118 42.0219C150.68 41.773 151.287 41.639 151.937 41.4361C151.879 41.9185 151.841 42.2632 151.795 42.6614C152.002 42.7725 152.227 42.8912 152.521 43.0443C152.701 42.8222 152.865 42.6193 153.071 42.3666C153.641 42.1636 153.874 42.3666 153.889 43.1707C153.436 43.1886 153.163 43.4719 153.071 44.0208C153.648 44.017 153.652 43.4809 153.889 43.1707C154.573 43.4234 155.176 42.6729 155.757 42.9065C156.403 43.1669 156.842 42.8069 157.366 42.7112C157.664 42.3627 157.633 41.7692 158.233 41.6084C158.328 41.842 158.424 42.0794 158.527 42.3398C158.772 42.2747 159.035 42.2057 159.306 42.1368C159.547 42.2632 159.803 42.3972 160.063 42.447C159.975 42.8146 159.73 43.1898 160.357 43.0788C160.281 42.8873 160.204 42.6959 160.063 42.447C160.269 42.0334 160.624 42.3512 160.953 42.3244C161.652 42.267 162.332 42.0143 163.001 41.8458C162.932 41.5165 162.879 41.2714 162.802 40.9191C163.146 41.0072 163.398 41.0723 163.688 41.1489C163.662 41.6084 163.639 42.0372 163.616 42.4699C164.353 42.4125 164.2 41.5777 164.804 41.2714C165.274 41.1604 165.492 41.505 165.629 42.0066C165.671 42.1598 165.843 42.2747 165.954 42.4049C165.576 43.0328 164.758 42.7686 164.319 43.2013C164.422 43.5766 164.521 43.9442 164.621 44.3003C165.32 44.2199 165.843 43.8791 166.309 43.32C166.535 43.4196 166.768 43.5268 166.97 43.6149C167.016 43.7642 167.093 43.8753 167.066 43.9404C166.722 44.7062 166.298 45.4223 165.935 46.1498C165.026 45.7516 166.111 45.2883 165.637 44.9092C165.186 45.1964 164.716 45.4989 164.246 45.7975L164.437 46.4102C164.254 46.7625 164.044 47.1569 163.818 47.5858C162.993 47.5513 162.454 46.9348 161.752 46.7663C161.839 46.3987 162.084 46.0235 161.457 46.1345C161.534 46.326 161.61 46.5174 161.752 46.7663C161.625 46.9348 161.492 47.1876 161.366 47.4288C161.434 47.7007 161.503 47.9649 161.572 48.2253C161.098 48.3708 160.64 48.5125 160.185 48.6541C159.933 48.8916 159.685 49.1328 159.482 49.3243C158.764 49.2477 158.856 48.6312 158.569 48.2904C158.191 48.5469 157.599 48.367 157.434 48.9069C157.068 48.8188 156.693 48.5737 156.804 49.2017C156.995 49.1251 157.186 49.0486 157.434 48.9069C157.534 49.1941 157.721 49.4927 157.962 49.8718C158.111 49.9484 158.355 50.0824 158.603 50.2126C158.611 50.5458 158.619 50.8828 158.63 51.2542C157.996 51.5414 157.606 50.8559 157.045 50.7794C157.133 50.4118 157.377 50.0365 156.751 50.1475C156.827 50.339 156.903 50.5305 157.045 50.7794C156.919 50.944 156.789 51.1967 156.659 51.4418C156.395 51.5337 156.139 51.6256 155.883 51.7175C156.006 52.1655 156.307 52.6174 155.62 53.0692C155.245 53.2186 154.932 52.717 154.5 52.5944C154.336 52.6557 154.069 52.6748 154.03 52.782C153.69 53.724 152.735 53.9768 152.09 54.5665C151.837 54.4324 151.585 54.3022 151.325 54.2525C151.413 53.8849 151.658 53.5096 151.031 53.6206C151.108 53.8121 151.184 54.0036 151.325 54.2525C150.913 54.8269 151.73 54.8575 151.887 55.2787C151.979 55.7574 151.555 56.0752 151.379 56.4926C150.531 56.7874 150.458 56.1326 150.275 55.5467C149.927 55.8148 149.591 56.0675 149.056 56.4773C149.289 55.6999 149.461 55.1294 149.698 54.3367C148.655 55.0298 148.567 56.0905 148.002 56.6879C147.711 56.7798 147.528 56.8334 147.329 56.8985C147.398 57.1589 147.463 57.4192 147.551 57.7524C147.184 57.6911 146.844 57.6375 146.496 57.5801C145.988 57.7715 146.019 58.3536 145.698 58.6791C145.335 58.7901 144.972 58.905 144.498 59.0505C144.563 58.6752 144.62 58.3459 144.701 57.8749C143.845 58.0166 143.001 57.4882 142.191 58.1583C142.401 58.434 142.657 58.771 143.046 59.2841C142.347 59.0658 141.843 58.9088 141.323 58.748C140.754 59.1424 140.666 59.8546 140.223 60.4137C139.91 60.3677 139.562 60.3141 139.153 60.249C139.058 60.8043 139.211 61.2523 139.631 61.6199C139.509 61.7271 139.333 61.953 139.279 61.9262C138.718 61.6505 138.129 62.0258 137.576 61.8305L137.629 61.8075ZM128.108 39.2304C128.452 39.4295 128.712 39.3491 128.884 38.9892C129.224 39.1692 129.56 39.3453 129.9 39.5253C129.602 39.7129 129.308 39.9005 128.93 40.1379C128.853 40.2873 128.72 40.5324 128.59 40.7813C128.055 40.6281 127.608 40.7813 127.199 41.1412C127.524 41.685 128.12 41.7615 128.559 42.0679C128.429 42.1789 128.296 42.3895 128.166 42.3857C127.68 42.378 127.195 42.3053 126.729 42.2555C126.63 42.0449 126.534 41.842 126.328 41.4016C126.041 41.9415 125.85 42.244 125.717 42.5695C125.656 42.7188 125.698 42.9103 125.694 43.1247C125.954 43.0635 126.202 43.006 126.546 42.9256C126.649 43.4426 126.76 43.9787 126.848 44.4075C127.149 44.5684 127.314 44.6564 127.512 44.7598C127.486 45.1696 127.459 45.5984 127.432 46.0388C128.227 45.8052 128.189 45.0011 128.582 44.5186C128.769 44.2927 129.01 44.174 129.289 44.396C129.293 44.6373 129.3 44.8747 129.304 45.1696C130.114 45.181 130.813 45.2002 131.512 45.1887C131.692 45.1887 131.956 45.1427 132.04 45.0202C132.506 44.3463 133.255 44.2505 133.938 44.0131C133.977 44.0016 133.977 43.8868 133.996 43.8217C133.663 42.7801 132.788 43.8944 132.319 43.4004C131.971 42.9563 131.749 42.4776 131.948 41.7347C132.173 41.639 132.494 41.5012 132.872 41.3403C132.678 41.1335 132.498 40.9421 132.387 40.8234C131.772 41.0148 131.237 41.1795 130.615 41.3748C130.649 40.7813 130.672 40.3562 130.695 39.9427C130.412 39.7933 130.16 39.6593 129.908 39.5291C130.179 39.3491 130.45 39.1692 130.764 38.9624C130.725 38.8092 130.691 38.5641 130.592 38.3459C130.496 38.1276 130.332 37.9361 130.198 37.737C130.32 37.5073 130.519 37.2852 130.534 37.0478C130.546 36.8563 130.336 36.6534 130.225 36.4542C130.42 35.9564 130.859 35.5544 130.832 34.9608C130.37 34.7081 129.564 35.3744 129.388 34.4477C129.759 34.218 130.118 33.9959 130.492 33.7661C130.343 33.387 130.24 33.1305 130.168 32.9428C130.504 32.7284 130.794 32.5446 130.913 32.3416C131.367 32.4374 131.738 32.6824 131.627 32.0545C131.436 32.131 131.245 32.2076 131.085 32.357C130.397 32.1004 129.854 31.503 129.102 31.4533C128.865 31.7022 128.242 32.02 128.013 32.0315C128.143 31.7864 128.273 31.5375 128.403 31.2886C128.246 30.9057 128.288 30.4347 127.917 30.1437C127.47 30.2547 127.486 30.7104 127.264 30.9861C126.924 30.8061 126.588 30.63 126.248 30.45C126.267 30.2815 126.362 30.0173 126.29 29.956C126.022 29.7263 125.854 29.9254 125.743 30.182C125.575 30.0939 125.403 30.002 125.22 30.0862C125.316 29.6344 125.56 29.2591 124.934 29.3702C125.01 29.5616 125.086 29.7531 125.235 29.9139C124.953 30.0977 124.674 30.2777 124.364 30.4806C124.414 30.653 124.483 30.9057 124.563 31.1929C124.414 31.4762 124.211 31.7749 124.097 32.1081C124.013 32.3608 124.085 32.6288 124.406 32.7246C124.307 33.0539 124.043 33.1152 123.776 33.0309C123.191 32.8548 122.771 32.2497 122.057 32.3799C121.774 32.7437 121.476 33.0998 122.08 33.4445C121.766 33.8886 121.709 34.5128 121.163 34.7962C120.819 34.7387 120.483 34.6813 120.024 34.6009C120.364 35.0527 120.616 35.382 120.895 35.7497C119.997 35.7305 119.172 35.7114 118.229 35.6922C118.546 36.2857 119.073 36.3279 119.424 36.5997C119.703 36.5232 119.975 36.4466 120.158 36.3968C120.49 36.481 120.742 36.55 120.953 36.6036C121.274 36.3125 121.346 35.8607 122.003 35.9373C122.164 36.1938 122.381 36.5461 122.599 36.8984C123.115 36.3623 123.115 36.3623 123.096 36.0598C123.081 35.7956 123.073 35.5314 123.061 35.2633C123.402 35.3667 123.646 35.7611 124.07 35.5927C124.185 35.451 124.414 35.271 124.387 35.1829C124.139 34.4247 124.498 33.7891 124.716 33.1152C124.743 33.0271 124.513 32.8586 124.399 32.7246C124.846 31.8783 125.289 31.0282 125.736 30.182C125.904 30.27 126.076 30.3619 126.244 30.45C126.022 30.7295 126.129 30.9899 126.366 31.1508C126.687 31.369 127.042 31.4801 127.26 30.9861C127.371 31.1163 127.493 31.2388 127.589 31.3767C127.738 31.5873 127.868 31.8132 128.005 32.0315C127.573 32.5982 126.821 32.468 126.236 32.8624C126.217 33.2721 125.648 33.5555 125.877 34.0916L126.515 34.62C126.336 35.137 126.164 35.6348 125.984 36.1556C126.733 36.2475 127.256 35.5927 127.921 35.8875C127.902 36.056 127.807 36.3164 127.879 36.3815C128.147 36.6112 128.315 36.4121 128.425 36.1556C128.777 36.1441 129.125 36.1287 129.572 36.1134C129.721 36.19 129.965 36.324 130.213 36.4542C130.091 36.684 129.893 36.9061 129.877 37.1435C129.866 37.335 130.076 37.5379 130.187 37.737C130.057 37.9859 129.927 38.2348 129.847 38.3803C129.468 38.6177 129.17 38.8054 128.876 38.993C128.532 38.7939 128.273 38.8743 128.273 39.2496C127.818 39.1538 127.447 38.9088 127.558 39.5368C127.749 39.4602 127.94 39.3836 128.101 39.2342L128.108 39.2304ZM157.557 45.7669C158.007 45.8626 158.382 46.1077 158.271 45.4797C158.08 45.5563 157.889 45.6329 157.729 45.7822C157.56 45.6942 157.389 45.6023 157.22 45.5142C157.442 45.2346 157.335 44.9743 157.098 44.8134C156.777 44.5952 156.452 44.419 156.731 43.9595C157.251 44.151 157.648 44.6373 158.271 44.553C158.271 44.262 158.271 43.971 158.271 43.6723C158.684 43.7106 159.031 43.7451 159.379 43.7795C159.379 43.703 159.375 43.6264 159.368 43.4732C159.005 43.2817 158.611 43.0711 158.218 42.8682C157.721 43.232 157.228 43.5919 156.735 43.9633C156.491 43.8331 156.246 43.703 156.002 43.5766C156.036 43.6953 156.07 43.8178 156.109 43.9365C155.669 43.9059 155.23 43.8714 154.71 43.837C155.138 44.4879 155.669 44.756 155.688 45.3495C155.952 45.2729 156.216 45.2002 156.472 45.1236C156.728 45.2576 156.972 45.3878 157.217 45.518C157.129 45.6865 157.037 45.8588 156.957 46.0273C156.501 46.0452 156.227 46.3285 156.135 46.8774C156.712 46.8736 156.716 46.3375 156.949 46.0273C157.293 46.2264 157.553 46.146 157.553 45.7707L157.557 45.7669ZM133.885 13.1151C134.34 13.2108 134.71 13.4559 134.599 12.8279C134.408 12.9045 134.217 12.9811 134.057 13.1304C133.889 13.0423 133.717 12.9504 133.533 13.0347C133.629 12.5828 133.873 12.2076 133.247 12.3186C133.323 12.5101 133.4 12.7015 133.549 12.8624C133.35 13.207 133.43 13.4674 133.931 13.3793C133.503 14.1554 133.294 14.7923 133.304 15.2901C133.919 14.9531 134.229 14.4821 133.789 13.6397C133.877 13.4712 133.969 13.2989 133.885 13.1151ZM128.597 8.37452C129.052 8.47025 129.423 8.71532 129.312 8.08733C129.121 8.16391 128.93 8.2405 128.941 8.40515C128.49 8.30942 128.116 8.06435 128.227 8.69234C128.418 8.61576 128.609 8.53917 128.597 8.37069V8.37452ZM151.956 51.8324C152.407 51.8145 152.677 51.5427 152.766 51.0168C152.124 50.921 152.223 51.5567 152.132 51.8515C151.677 51.7558 151.306 51.5107 151.417 52.1387C151.608 52.0622 151.799 51.9856 151.96 51.8362L151.956 51.8324ZM133.106 17.9093C133.178 18.3075 132.777 18.8398 133.128 19.1729C133.522 18.9623 134.03 19.0581 134.313 18.5488C133.896 18.3305 133.499 18.1199 132.907 19.0236C132.681 19.0427 132.391 18.9853 132.242 19.104C132.055 19.2495 131.986 19.5444 132.303 19.9541C131.02 19.4218 132.032 18.7747 131.642 18.3573C131.379 18.4301 131.119 18.5028 130.706 18.6177C130.622 18.0778 130.542 17.5455 130.458 17.0171C129.954 17.1741 129.598 17.2851 129.228 17.4C129.877 18.3075 130.519 19.2112 131.146 20.0881C131.39 20.0613 131.566 20.0383 131.868 19.7703C132.093 19.7511 132.383 19.8086 132.532 19.6899C132.72 19.5444 132.788 19.2495 133.109 17.9055L133.106 17.9093ZM117.457 33.6053C117.189 34.0303 117.445 34.2486 117.808 34.4477C118.458 34.3673 119.256 34.5052 119.337 33.4636C119.18 33.0845 118.775 33.0577 118.496 32.8586C118.79 32.6748 119.084 32.491 119.432 32.2727C119.252 32.0889 119.069 31.9013 118.867 31.6983C118.389 31.8094 117.946 31.9128 117.598 31.9932C117.388 32.5178 117.22 32.8548 117.136 33.2109C117.113 33.3143 117.338 33.4751 117.453 33.6129L117.457 33.6053ZM123.489 39.3913C123.47 39.5597 123.375 39.8201 123.447 39.8852C123.715 40.115 123.883 39.9159 123.994 39.6593C124.452 39.7895 124.28 40.3026 124.54 40.5515C124.899 40.4405 125.262 40.3256 125.671 40.1992C125.537 39.8469 125.403 39.4946 125.216 38.993C124.807 38.7633 124.116 38.5871 124.02 37.7753C124.005 37.6451 123.573 37.5609 123.348 37.4651C122.841 38.2055 122.635 38.7122 122.729 38.9854C122.981 39.1194 123.237 39.2534 123.489 39.3874V39.3913ZM128.441 23.814C128.433 23.006 128.181 22.7954 127.547 23.0443C127.432 23.4808 126.935 23.7833 127.104 24.3079C127.386 24.7789 128.215 24.6334 128.25 25.3495C128.001 25.4452 127.757 25.5371 127.325 25.7018C127.719 25.9545 127.99 26.1306 128.345 26.3604C128.796 25.5026 129.182 24.7713 129.51 24.1471C129.908 23.9939 130.164 23.8944 130.454 23.7795C130.496 23.5191 130.538 23.2587 130.576 23.0213C130.171 23.0366 129.828 23.0519 129.465 23.2396C129.56 22.7877 129.805 22.4125 129.178 22.5235C129.255 22.715 129.331 22.9064 129.48 23.0673C129.358 23.297 129.289 23.588 129.102 23.7374C128.953 23.8561 128.662 23.7986 128.437 23.8178L128.441 23.814ZM21.6965 83.906C21.792 83.4503 22.0365 83.0789 21.41 83.1899C21.4864 83.3814 21.5628 83.5729 21.7805 83.8103C21.4443 83.9711 21.1311 84.1243 20.791 84.2889C21.3068 85.2194 21.0852 86.2495 21.1769 87.3676C20.9668 87.7659 20.7108 88.256 20.4778 88.6964C20.6497 89.2363 20.7949 89.692 20.94 90.14C20.7566 90.4884 20.5809 90.8254 20.493 90.9901C20.4854 91.7138 20.4816 92.2422 20.4778 92.7668C20.6726 93.0081 21.196 93.0081 21.0241 93.5212C20.5656 93.6399 20.0842 93.7394 20.1263 94.3828C20.3631 94.6431 20.6 94.9035 20.7452 95.0644C20.7261 95.6387 20.7108 96.0829 20.6917 96.5769C20.5389 96.6343 20.2829 96.7262 19.8818 96.8718C20.1148 97.3772 20.3555 97.8942 20.558 98.3345C20.2218 98.9702 19.962 99.4718 19.7175 99.9352C19.8741 100.444 20.0155 100.9 20.1568 101.36C19.3966 102.175 20.2065 103.424 19.366 104.22C19.771 104.902 19.1635 105.645 19.5112 106.307C19.2628 106.41 19.0336 106.506 18.8044 106.602C18.9648 107.115 19.1062 107.574 19.2552 108.065C19.0107 108.16 18.7662 108.252 18.5178 108.348C18.5828 108.605 18.6516 108.873 18.7242 109.152C18.5522 109.481 18.3727 109.818 18.2084 110.132C18.2848 110.427 18.3536 110.699 18.4262 110.986C18.2504 111.319 18.0747 111.653 17.918 111.955C18.0021 112.514 18.3956 112.966 18.239 113.529C18.0403 113.59 17.8569 113.648 17.6888 113.701C17.7117 114.41 17.7346 115.11 17.7614 115.922C17.5513 116.324 17.2838 116.83 16.8598 117.634C17.0431 118.22 17.2953 119.028 17.5856 119.951C17.3946 120.372 17.3424 120.855 17.429 121.402C17.1845 121.494 16.9362 121.586 16.6764 121.685C16.4319 122.263 15.8894 122.738 15.939 123.427C15.9963 123.642 16.0422 123.826 16.0957 124.021C15.9237 124.346 15.748 124.683 15.5875 124.99C15.6525 125.277 15.7136 125.534 15.7671 125.763C15.5035 125.878 15.2743 125.974 15.0565 126.07C15.217 126.594 15.3583 127.054 15.4997 127.509C15.3163 127.927 15.1367 128.344 15.003 128.651C15.1062 128.984 15.1635 129.167 15.217 129.351C15.11 129.795 14.6057 130.102 14.7623 130.638C15.003 130.894 15.2361 131.147 15.4653 131.388C14.8922 132.476 14.3612 133.487 13.7996 134.559C14.2274 135.149 14.0326 136.033 14.6592 136.546C15.5302 136.757 16.0766 136.286 16.5885 135.746C16.9362 135.8 17.2838 135.853 17.6544 135.911C17.5704 135.581 17.5016 135.317 17.4328 135.057C17.9066 134.911 18.3612 134.77 18.8197 134.628C19.068 134.391 19.3201 134.149 19.5608 133.92C19.8015 134.046 19.9696 134.134 20.1301 134.222C20.2332 134.191 20.3479 134.188 20.409 134.13C20.6038 133.946 20.7758 133.74 20.9553 133.54C21.303 133.59 21.6506 133.644 21.9792 133.69C22.1091 133.479 22.2046 133.318 22.4453 132.92C23.0757 132.801 23.9124 132.641 24.3517 132.56C24.8522 132.089 25.047 131.909 25.1846 131.779C25.5284 131.879 25.7844 131.955 26.006 132.016C26.2429 131.756 26.4224 131.557 26.7166 131.239C27.5877 130.998 28.5963 130.718 29.5514 130.454C29.6889 130.236 29.7844 130.075 29.8838 129.918C30.2505 129.803 30.6135 129.692 30.9879 129.577C31.1522 129.665 31.3203 129.753 31.496 129.845C32.4015 129.562 33.3107 129.279 34.22 128.995C34.3117 128.823 34.3996 128.654 34.4875 128.49C35.8705 128.532 36.0691 128.471 37.1809 127.659C37.2726 127.911 37.3643 128.168 37.4598 128.421C38.2048 128.191 38.9345 127.965 39.6642 127.735C40.329 128.149 41.0319 127.919 41.4522 127.483C42.1055 126.797 42.9384 126.79 43.7177 126.548C44.18 126.916 44.6156 126.61 45.0511 126.483C45.7846 126.273 46.5564 126.119 47.2326 125.782C47.9585 125.422 48.6882 125.974 49.4026 125.579C50.14 125.17 50.9996 125.599 51.8401 125.296C52.5316 125.047 53.4065 125.311 54.2011 125.35C54.3807 125.151 54.5603 124.955 54.8239 124.664C55.29 125.051 55.8478 124.948 56.3368 124.668C56.8908 124.35 57.4065 124.703 57.9529 124.645C58.6176 124.576 58.7552 123.879 59.3244 123.753C59.481 123.837 59.6492 123.925 59.8287 124.017C59.9166 124.262 60.0121 124.526 60.1076 124.787C60.7456 124.588 61.3836 124.389 62.0713 124.178C62.1401 123.948 62.2165 123.695 62.2738 123.508C61.9223 122.945 61.1926 123.025 60.9978 122.34C60.8602 121.854 60.4171 121.455 60.0006 120.858C59.0073 120.333 57.823 119.709 56.6539 119.089C56.5546 118.809 56.4629 118.541 56.3635 118.266C56.035 118.09 55.6988 117.913 55.3817 117.745C55.2785 117.462 55.183 117.197 55.0837 116.918C54.5832 116.654 54.0789 116.389 53.7541 116.213C53.2613 115.463 52.8716 114.865 52.4781 114.264C52.226 114.13 51.97 114.004 51.7216 113.862C51.4848 113.724 51.2594 113.571 51.3129 113.605C50.9232 113.046 50.7207 112.755 50.5335 112.484C50.1476 112.583 49.8764 112.652 49.6051 112.721C49.5134 112.472 49.4179 112.212 49.3224 111.94C48.9938 111.767 48.6576 111.587 48.3443 111.423C48.2412 111.136 48.1419 110.871 48.0425 110.596C46.0177 109.527 43.9966 108.459 41.9947 107.402C41.7578 106.636 41.5324 105.905 41.3758 105.403C40.9861 104.86 40.7263 104.496 40.3404 103.956C39.8323 103.638 39.03 103.351 38.5142 102.968C38.3691 102.562 38.3041 102.39 38.2468 102.233C37.987 102.294 37.731 102.355 37.5668 102.394C37.1389 101.743 36.7454 101.145 36.3519 100.552C35.9278 100.33 35.5075 100.104 35.0414 99.8586C34.9536 99.6365 34.8504 99.3761 34.7281 99.0697L33.7692 98.5643C33.5858 98.0282 33.4063 97.4997 33.2343 96.9828C32.9707 97.0441 32.7148 97.1015 32.4855 97.1551C32.3633 96.8603 32.2601 96.6075 32.1035 96.2246C31.2133 96.4812 31.2859 95.52 30.9841 95.2558C30.4568 95.2443 30.1015 95.2328 29.8188 95.229C29.3795 94.4593 29.3642 93.7548 29.4559 93.0464C29.1999 93.1038 28.9478 93.1612 28.8026 93.1957C28.1187 92.2192 27.4807 91.3117 26.835 90.3889C26.4988 90.7067 26.239 90.9518 25.9067 91.2658C25.9296 90.7105 25.9487 90.2778 25.964 89.9868C25.6087 89.5082 24.9668 89.6001 24.8484 89.0218C24.9248 88.7538 24.9974 88.4972 25.0432 88.3479C23.9047 86.7511 22.8235 85.2386 21.7156 83.9022L21.6965 83.906ZM127.39 37.5034C127.107 37.6107 126.848 37.7102 126.699 37.7677C126.339 37.6681 126.091 37.5953 125.507 37.4345C125.946 37.9859 126.183 38.2808 126.42 38.5756C126.359 38.9049 126.297 39.2304 126.236 39.5559C126.851 38.9892 127.478 38.4569 127.386 37.5034H127.39ZM136.357 19.6018C136.128 19.6018 135.979 19.5827 135.841 19.6056C135.574 19.6554 135.314 19.732 135.05 19.7971C135.222 20.3906 135.558 20.5706 136.124 20.3562C136.192 20.1341 136.265 19.889 136.353 19.6018H136.357ZM135.608 36.6878C134.913 36.9788 134.645 37.4881 134.798 38.2272C135.493 37.9361 135.761 37.4269 135.608 36.6878ZM124.25 45.5908C124.479 45.5908 124.628 45.6099 124.765 45.5869C125.033 45.5372 125.293 45.4606 125.556 45.3955C125.384 44.8019 125.048 44.622 124.483 44.8364C124.414 45.0585 124.341 45.3036 124.253 45.5908H124.25ZM126.275 23.2319C126.385 23.2855 126.492 23.3353 126.603 23.3889C126.752 23.1783 126.913 22.9754 127.042 22.7533C127.073 22.6997 127.012 22.5159 126.966 22.5044C126.828 22.4737 126.592 22.4469 126.55 22.5158C126.42 22.7303 126.362 22.9907 126.275 23.2319ZM128.72 26.885C129.006 27.4594 129.251 27.7772 129.751 27.3368C129.598 26.9041 129.308 26.7739 128.72 26.885ZM126.473 27.647C126.187 27.0726 125.942 26.7548 125.442 27.1952C125.594 27.6279 125.885 27.7581 126.473 27.647ZM130.126 29.8526C129.552 30.1398 129.235 30.3849 129.675 30.8865C130.106 30.7334 130.236 30.4423 130.126 29.8526ZM129.044 37.2201C128.934 37.1665 128.827 37.1167 128.716 37.0631C128.567 37.2737 128.406 37.4766 128.276 37.6987C128.246 37.7523 128.307 37.9361 128.353 37.9476C128.49 37.9783 128.727 38.0051 128.769 37.9361C128.899 37.7217 128.956 37.4613 129.044 37.2201ZM124.956 35.7611C124.93 36.0637 124.101 36.1517 124.685 36.6916C125.109 36.5423 125.239 36.2513 124.956 35.7611ZM120.223 37.1397C120.169 37.2507 120.12 37.3579 120.066 37.469C120.276 37.6183 120.479 37.7791 120.7 37.9093C120.754 37.94 120.937 37.8787 120.949 37.8328C120.979 37.6949 121.006 37.4575 120.937 37.4154C120.723 37.2852 120.464 37.2277 120.223 37.1397ZM135.023 45.8129C134.874 45.2691 134.538 45.0891 134.007 45.2768C134.156 45.8205 134.492 46.0005 135.023 45.8129ZM138.832 59.2879C138.722 59.2343 138.615 59.1845 138.504 59.1309C138.355 59.3415 138.194 59.5445 138.065 59.7666C138.034 59.8202 138.095 60.004 138.141 60.0155C138.278 60.0461 138.515 60.0729 138.557 60.004C138.687 59.7895 138.745 59.5291 138.832 59.2879ZM144.242 5.47579C143.669 5.76299 143.352 6.00806 143.791 6.50968C144.223 6.35652 144.353 6.0655 144.242 5.47579ZM14.9915 68.1602C14.9648 68.0722 14.9533 67.9266 14.9075 67.9113C14.7738 67.873 14.6248 67.8922 14.4834 67.8922C14.5102 67.9802 14.5216 68.1258 14.5675 68.1411C14.7012 68.1794 14.8502 68.1602 14.9915 68.1602ZM12.1529 68.1909C12.2561 68.1602 12.3439 68.1334 12.428 68.1066C12.3439 67.9917 12.2752 67.8577 12.172 67.7658C12.1338 67.7352 12.0077 67.8118 11.9199 67.8386C11.9963 67.9573 12.0765 68.076 12.1529 68.1909ZM15.3583 70.722C15.2208 70.722 15.0794 70.7258 14.9381 70.7296C14.9648 70.8177 14.9763 70.9632 15.0221 70.9785C15.1558 71.0168 15.3048 70.9977 15.4462 70.9977L15.3621 70.722H15.3583ZM20.409 82.9487C20.5465 82.9487 20.6879 82.9449 20.8292 82.941C20.8025 82.853 20.791 82.7075 20.7452 82.6921C20.6115 82.6577 20.4625 82.673 20.3211 82.673C20.3479 82.7611 20.3746 82.8453 20.4052 82.9487H20.409ZM144.517 3.71818C144.429 3.74498 144.284 3.75647 144.269 3.80242C144.231 3.93645 144.25 4.08579 144.25 4.22747C144.338 4.20066 144.483 4.18917 144.498 4.14322C144.536 4.0092 144.517 3.85986 144.517 3.71818ZM141.06 3.51523C141.033 3.42716 141.022 3.28165 140.976 3.26633C140.842 3.22804 140.693 3.24718 140.552 3.24718C140.578 3.33526 140.59 3.48077 140.636 3.49608C140.769 3.53438 140.918 3.51523 141.06 3.51523ZM138.378 7.20277C138.347 7.09939 138.32 7.01131 138.294 6.92707C138.179 7.01131 138.045 7.08024 137.954 7.18363C137.923 7.22192 138 7.34829 138.026 7.43636C138.145 7.35977 138.263 7.27936 138.378 7.20277ZM134.687 11.7519C134.657 11.6485 134.63 11.5604 134.603 11.4762C134.489 11.5604 134.355 11.6294 134.263 11.7327C134.233 11.771 134.309 11.8974 134.336 11.9855C134.454 11.9089 134.573 11.8285 134.687 11.7519ZM127.203 9.51563C127.115 9.54243 126.97 9.55392 126.955 9.59987C126.916 9.73389 126.935 9.88323 126.935 10.0249C127.023 9.99811 127.169 9.98662 127.184 9.94067C127.222 9.80665 127.203 9.65731 127.203 9.51563ZM131.707 13.0998C131.845 13.0998 131.986 13.096 132.128 13.0921C132.101 13.0041 132.089 12.8585 132.043 12.8432C131.91 12.8049 131.761 12.8241 131.619 12.8241C131.646 12.9122 131.673 12.9964 131.703 13.0998H131.707ZM132.574 14.5319C132.544 14.4285 132.517 14.3405 132.49 14.2562C132.376 14.3405 132.242 14.4094 132.15 14.5128C132.12 14.5511 132.196 14.6774 132.223 14.7655C132.341 14.6889 132.46 14.6085 132.574 14.5319ZM129.327 16.3891C129.465 16.3891 129.606 16.3853 129.747 16.3814C129.721 16.2934 129.709 16.1478 129.663 16.1325C129.53 16.0942 129.381 16.1134 129.239 16.1134C129.266 16.2015 129.293 16.2857 129.323 16.3891H129.327ZM132.387 20.7927C132.25 20.7927 132.108 20.7965 131.967 20.8004C131.994 20.8884 132.005 21.0339 132.051 21.0493C132.185 21.0875 132.334 21.0684 132.475 21.0684C132.448 20.9803 132.422 20.8961 132.391 20.7927H132.387ZM115.13 15.3858C115.233 15.3552 115.321 15.3284 115.405 15.3016C115.321 15.1867 115.252 15.0527 115.149 14.9608C115.111 14.9302 114.985 15.0067 114.897 15.0297L115.13 15.382V15.3858ZM125.316 24.0169C125.453 24.0169 125.594 24.0131 125.736 24.0092C125.709 23.9212 125.698 23.7757 125.652 23.7603C125.518 23.7221 125.369 23.7412 125.228 23.7412C125.254 23.8293 125.281 23.9135 125.312 24.0169H125.316ZM129.373 26.1613C129.51 26.1613 129.652 26.1574 129.793 26.1536C129.766 26.0655 129.755 25.92 129.709 25.9047C129.575 25.8664 129.426 25.8856 129.285 25.8856C129.312 25.9736 129.339 26.0579 129.369 26.1613H129.373ZM130.332 29.2668C130.469 29.2668 130.611 29.2629 130.752 29.2591C130.725 29.171 130.714 29.0255 130.668 29.0102C130.534 28.9719 130.385 28.9911 130.244 28.9911L130.328 29.2668H130.332ZM128.036 28.7039C128.173 28.7039 128.315 28.7001 128.46 28.6962C128.433 28.6082 128.422 28.4626 128.376 28.4473C128.242 28.409 128.093 28.4282 127.952 28.4282C127.978 28.5162 128.005 28.6005 128.036 28.7039ZM129.197 29.3166C129.3 29.2859 129.388 29.2591 129.472 29.2323C129.388 29.1174 129.319 28.9834 129.216 28.8915C129.178 28.8609 129.052 28.9375 128.964 28.9643C129.041 29.083 129.121 29.2017 129.197 29.3166ZM150.451 43.1439C150.554 43.1133 150.642 43.0865 150.726 43.0596C150.642 42.9448 150.573 42.8107 150.47 42.7188C150.431 42.6882 150.305 42.7648 150.217 42.7916C150.294 42.9103 150.374 43.029 150.451 43.1439ZM159.463 47.582C159.463 47.7198 159.467 47.8615 159.471 48.0032C159.559 47.9764 159.704 47.9649 159.719 47.9189C159.757 47.7849 159.738 47.6356 159.738 47.4939C159.65 47.5207 159.566 47.5475 159.463 47.5781V47.582ZM132.617 33.9078C132.479 33.9078 132.338 33.9116 132.196 33.9155C132.223 34.0035 132.234 34.149 132.28 34.1644C132.414 34.2026 132.563 34.1835 132.704 34.1835C132.678 34.0954 132.651 34.0112 132.62 33.9078H132.617ZM155.394 47.5666C155.394 47.4288 155.39 47.2871 155.387 47.1454C155.299 47.1722 155.154 47.1837 155.138 47.2297C155.1 47.3637 155.119 47.513 155.119 47.6547L155.394 47.5705V47.5666ZM134.882 39.464C134.985 39.4334 135.073 39.4066 135.157 39.3798C135.073 39.2649 135.004 39.1309 134.901 39.039C134.863 39.0083 134.737 39.0849 134.649 39.1117C134.725 39.2304 134.806 39.3491 134.882 39.464ZM136.857 43.1056C136.96 43.075 137.048 43.0482 137.132 43.0214C137.048 42.9065 136.98 42.7725 136.876 42.6806C136.838 42.6499 136.712 42.7265 136.624 42.7533C136.701 42.872 136.781 42.9907 136.857 43.1056ZM138.061 43.2817C137.923 43.2817 137.782 43.2856 137.637 43.2894C137.663 43.3775 137.675 43.523 137.721 43.5383C137.854 43.5766 138.003 43.5574 138.145 43.5574C138.118 43.4694 138.091 43.3851 138.061 43.2817ZM143.459 47.0152C143.432 46.9272 143.421 46.7817 143.375 46.7663C143.241 46.728 143.092 46.7472 142.951 46.7472C142.978 46.8353 142.989 46.9808 143.035 46.9961C143.169 47.0344 143.318 47.0152 143.459 47.0152ZM116.895 34.8345C116.895 34.9723 116.899 35.114 116.903 35.2557C116.991 35.2289 117.136 35.2174 117.151 35.1714C117.189 35.0374 117.17 34.8881 117.17 34.7464L116.895 34.8306V34.8345ZM138.806 48.0338C138.909 48.0032 138.997 47.9764 139.081 47.9496C138.997 47.8347 138.928 47.7007 138.825 47.6088C138.787 47.5781 138.661 47.6547 138.573 47.6815C138.649 47.8002 138.729 47.9189 138.806 48.0338ZM150.156 53.5709C150.019 53.5709 149.877 53.5747 149.736 53.5785C149.763 53.6666 149.774 53.8121 149.82 53.8274C149.954 53.8657 150.103 53.8466 150.244 53.8466C150.217 53.7585 150.191 53.6743 150.16 53.5709H150.156ZM121.915 40.0843C121.915 40.2222 121.919 40.3639 121.923 40.5056C122.011 40.4787 122.156 40.4673 122.171 40.4213C122.21 40.2873 122.19 40.1379 122.19 39.9963C122.103 40.0231 122.019 40.0499 121.915 40.0805V40.0843ZM125.079 42.0794C125.182 42.0487 125.27 42.0219 125.354 41.9951C125.27 41.8802 125.201 41.7462 125.098 41.6543C125.06 41.6237 124.934 41.7003 124.846 41.7271C124.922 41.8458 125.002 41.9645 125.079 42.0794ZM134.607 47.2067C134.519 47.2335 134.374 47.245 134.359 47.2909C134.32 47.425 134.34 47.5743 134.34 47.716C134.427 47.6892 134.573 47.6777 134.588 47.6317C134.626 47.4977 134.607 47.3484 134.607 47.2067ZM148.04 54.9532C147.952 54.98 147.807 54.9915 147.791 55.0375C147.757 55.1715 147.772 55.3208 147.772 55.4625C147.86 55.4357 148.005 55.4242 148.021 55.3783C148.059 55.2442 148.04 55.0949 148.04 54.9532ZM128.586 46.9501C128.559 46.8621 128.548 46.7166 128.502 46.7012C128.368 46.6629 128.219 46.6821 128.078 46.6821C128.105 46.7702 128.116 46.9157 128.162 46.931C128.296 46.9693 128.445 46.9501 128.586 46.9501ZM127.268 46.8085C127.237 46.7051 127.211 46.617 127.184 46.5328C127.069 46.617 126.935 46.6859 126.844 46.7893C126.813 46.8276 126.89 46.954 126.913 47.042C127.031 46.9655 127.149 46.885 127.264 46.8085H127.268ZM145.809 57.3465C145.782 57.2584 145.77 57.1129 145.725 57.0976C145.591 57.0593 145.442 57.0784 145.301 57.0784C145.327 57.1665 145.339 57.312 145.385 57.3273C145.518 57.3656 145.667 57.3465 145.809 57.3465ZM107.887 43.1592C107.86 43.0711 107.848 42.9256 107.802 42.9103C107.669 42.872 107.52 42.8912 107.378 42.8912C107.405 42.9792 107.417 43.1247 107.462 43.1401C107.596 43.1784 107.745 43.1592 107.887 43.1592ZM110.534 69.9944C110.534 69.8566 110.53 69.7149 110.526 69.5732C110.439 69.6 110.293 69.6115 110.278 69.6574C110.244 69.7915 110.259 69.9408 110.259 70.0825C110.347 70.0557 110.431 70.0289 110.534 69.9983V69.9944ZM107.871 71.9741C108.009 71.9741 108.15 71.9703 108.292 71.9665C108.265 71.8784 108.253 71.7329 108.207 71.7176C108.074 71.6793 107.925 71.6984 107.783 71.6984C107.81 71.7865 107.837 71.8707 107.867 71.9741H107.871ZM85.7774 82.9066C85.808 83.01 85.8347 83.098 85.8615 83.1823C85.9761 83.098 86.1098 83.0291 86.2015 82.9257C86.2321 82.8874 86.1556 82.7611 86.1289 82.673C86.0105 82.7496 85.892 82.83 85.7774 82.9066Z" fill="#5541D9"/>
</svg>
