<svg width="204" height="253" viewBox="0 0 204 253" fill="none" xmlns="http://www.w3.org/2000/svg">
<path d="M12.2023 80.3925C-3.96465 55.5335 -17.2482 23.8343 -46.4731 10.1739C-48.9474 9.57392 -57.9221 8.4434 -51.0225 6.23442C-37.3298 -4.43856 -28.3353 2.85031 -15.2227 11.1085C5.4241 29.2266 14.8724 51.8047 31.3269 72.2607C50.1291 98.3022 70.7314 119.39 94.7846 137.87C99.8967 142.928 106.092 146.188 111.237 151.164C111.809 154.275 106.39 154.087 104.644 156.417C102.691 156.219 102.465 158.587 100.603 156.368C97.7894 156.995 103.234 158.562 96.6391 160.015C92.8608 163.471 92.4195 159.236 88.7725 158.163C78.2508 153.17 67.6621 148.442 56.533 144.825C55.3107 144.867 39.7363 138.302 43.2072 141.703C69.3108 162.6 90.2948 187.432 116.351 208.595C134.206 223.058 153.061 235.586 175.451 239.446C180.238 239.761 186.969 242.119 190.534 238.365C191.228 238.077 191.513 239.235 192.173 238.794C192.689 236.24 196.194 234.44 198.485 233.682C201.311 229.234 205.228 232.978 203.014 236.952C195.007 242.441 187.403 249.251 177.969 251.986C164.892 254.81 150.782 250.662 138.86 245.741C103.298 229.948 73.8973 196.333 45.612 169.247C30.9153 152.85 11.5304 139.906 -8.77184 134.761C-12.2279 131.623 -32.7135 136.004 -23.0124 129.491C-10.0437 121.485 -9.27512 119.621 8.9644 122.202C23.4603 123.012 37.8893 123.736 51.3588 127.364C41.0329 114.98 23.6958 96.5271 12.2047 80.3949L12.2023 80.3925ZM21.8017 140.25C23.2025 142.316 24.8239 141.483 22.4067 140.003C21.5141 140.33 21.2439 139.598 20.4729 138.946C18.8341 138.517 21.2489 141.413 21.8067 140.25L21.8017 140.25ZM131.373 234.113C93.85 210.633 61.9971 166.721 24.8164 141.788C57.8073 166.885 103.722 221.09 131.373 234.113ZM2.96224 51.2593C1.76727 51.8345 5.26543 54.8814 4.81421 53.141C2.93745 51.7849 3.44569 50.0569 1.44497 48.795C0.126031 49.033 2.54326 50.6767 2.95977 51.2568L2.96224 51.2593ZM-5.50424 38.6029C-6.30255 40.3285 -2.76472 41.0747 -3.37213 42.8275C-1.09869 44.2035 -1.54743 46.8736 0.882192 47.6917C-4.00433 40.1624 -8.09502 32.9826 -14.9203 26.0383C-15.3888 24.4938 -16.6086 22.8178 -16.4177 25.597C-11.4915 29.715 -9.47841 34.3263 -5.50176 38.6054L-5.50424 38.6029ZM-20.3547 20.6089C-21.6067 19.8825 -25.3305 14.4084 -25.8164 16.1686C-23.8206 18.209 -21.8001 20.2246 -19.7622 22.2228C-17.9275 22.3964 -18.8201 20.1601 -20.3597 20.6089L-20.3547 20.6089ZM21.9133 80.6776C22.248 81.1213 23.7752 82.6039 23.4975 81.2453C22.5876 79.6958 19.0126 77.6678 21.9133 80.6776ZM26.3511 86.1616C27.9923 86.2409 25.6544 84.5228 25.2701 84.0344C23.6264 83.9526 25.9668 85.6732 26.3511 86.1616ZM-29.1732 12.8415C-30.874 12.539 -27.9287 15.6777 -27.5221 14.8447C-27.5518 14.0216 -28.6947 13.5084 -29.1732 12.8415ZM30.7963 90.6117C30.3104 90.23 28.5848 87.8896 28.6691 89.5308C29.1551 89.9126 30.8806 92.253 30.7963 90.6117ZM6.06869 56.4582C7.50167 56.6714 5.734 54.6955 5.14147 54.8318C4.44977 55.2607 5.76871 56.0392 6.06869 56.4582ZM8.30494 58.6944L7.22153 57.611C5.39683 57.2689 8.56277 60.4547 8.30494 58.6944ZM10.0057 61.4414L8.92226 60.358C7.09756 60.0159 10.2635 63.2016 10.0057 61.4414ZM10.0577 63.0653C10.0354 63.8214 10.9329 64.7536 11.7163 64.7239C11.7386 63.9677 10.8412 63.0355 10.0577 63.0653ZM13.9749 68.0237C13.9972 67.2675 13.0997 66.3354 12.3163 66.3651C12.294 67.1213 13.1915 68.0534 13.9749 68.0237ZM14.5501 69.1245C12.7898 68.8666 15.9756 72.0326 15.6335 70.2079L14.5501 69.1245ZM16.2979 72.9648C16.7739 73.3069 17.121 74.1449 17.7482 74.068C18.6209 73.6614 15.9781 71.4103 16.2979 72.9648ZM19.6523 77.3653C21.4125 77.6232 18.2267 74.4572 18.5689 76.2819L19.6523 77.3653ZM59.3097 123.305C61.0699 123.563 57.8841 120.397 58.2262 122.222C58.5882 122.584 58.9502 122.946 59.3097 123.305ZM-31.5384 12.2118C-31.0153 11.8473 -31.8656 10.9276 -32.3069 11.116C-32.8449 11.4507 -31.9673 12.3928 -31.5384 12.2118ZM135.208 235.856C134.707 235.097 133.934 235.901 134.665 236.359C135.349 237.113 135.885 236.24 135.208 235.856ZM33.9623 95.8701C34.1209 96.0883 34.3316 96.2296 34.5969 96.1429C35.5341 95.3892 32.7549 94.2711 33.9623 95.8701ZM18.4325 138.8C18.9432 138.984 18.8812 138.336 18.5961 138.27C18.0879 138.059 18.1499 138.726 18.4325 138.8ZM38.3331 101.114C38.8438 101.297 38.7818 100.65 38.4967 100.583C37.9885 100.372 38.0505 101.039 38.3331 101.114ZM39.7884 101.696C39.4314 101.637 39.1091 101.706 39.2801 102.214C39.5653 102.316 39.952 102.187 39.7884 101.696ZM47.4392 111.092C47.7169 111.033 47.7392 110.371 47.2458 110.552C46.9632 110.602 46.9409 111.244 47.4392 111.092ZM137.127 237.254C137.164 236.9 137.077 236.575 136.577 236.714C136.492 236.992 136.646 237.388 137.127 237.254Z" fill="#5541D9"/>
</svg>
