<svg width="162" height="186" viewBox="0 0 162 186" fill="none" xmlns="http://www.w3.org/2000/svg">
    <path
        d="M26.8935 126.762C26.6866 126.329 26.8184 125.945 27.1967 125.595C27.3788 125.699 27.5332 125.892 27.6007 125.531C27.4815 125.543 27.3619 125.557 27.1967 125.595C27.2076 125.526 27.1739 125.438 27.1234 125.313C27.381 125.066 27.6511 124.808 27.9392 124.533C27.848 124.337 27.769 124.167 27.6886 123.994C27.6984 123.747 27.947 123.673 28.0267 123.488C28.2089 123.592 28.3633 123.785 28.4308 123.424C28.3116 123.436 28.192 123.45 28.0267 123.488C27.8353 123.29 28.0525 122.994 27.9837 122.725C28.146 122.708 28.2955 122.694 28.4627 122.675C28.4782 122.479 28.495 122.272 28.5146 122.023C28.3765 122.011 28.2353 121.999 28.0972 121.988C28.1477 121.73 28.3705 121.554 28.7658 121.462C28.7902 121.305 28.8146 121.147 28.8423 120.965C29.0779 120.882 29.3037 120.801 29.5788 120.704C29.4787 120.562 29.394 120.446 29.3083 120.325C29.0608 120.415 28.8327 120.5 28.5866 120.592C28.6579 120.121 29.0901 119.976 29.3237 119.675C29.4576 119.322 29.2729 118.934 29.5351 118.595C29.7431 118.857 30.0647 118.589 30.272 118.717C30.4004 118.404 30.5167 118.123 30.6426 117.818C30.5042 117.634 30.3405 117.44 30.2157 117.225C30.1876 117.177 30.295 117.044 30.3391 116.95C30.4285 116.985 30.5508 117.079 30.6004 117.048C30.7801 116.937 30.706 116.812 30.5893 116.711C30.8153 116.548 30.6904 116.323 30.7402 116.127C30.7901 115.932 30.6665 115.708 30.8465 115.525C31.0286 115.63 31.183 115.823 31.2505 115.462C31.1313 115.473 31.0117 115.487 30.8465 115.525C30.8565 115.509 30.7857 115.452 30.7936 115.44C31.0582 115.025 30.956 114.457 31.4431 114.137C31.6944 114.197 31.9007 114.084 32.0618 113.796C31.7455 113.71 31.6338 114.003 31.4431 114.137C31.4117 114.103 31.3822 114.042 31.3434 114.039C31.1946 114.025 31.0429 114.033 30.8894 114.031C30.8007 113.723 31.1096 113.631 31.2508 113.445C31.3401 113.481 31.4625 113.574 31.5121 113.544C31.6918 113.433 31.6176 113.308 31.501 113.207C31.6197 113.095 31.7353 112.982 31.8721 112.852C31.711 112.371 31.5093 111.876 31.9538 111.362C31.9819 111.327 31.8944 111.197 31.8589 111.111C31.903 111.016 31.9609 110.924 31.9898 110.826C32.0201 110.73 32.0232 110.625 32.0383 110.525C32.15 110.523 32.2603 110.519 32.3783 110.517C32.65 110.247 32.3644 109.922 32.6588 109.6C32.6828 109.597 32.8322 109.582 33.0345 109.56C32.955 109.381 32.8574 109.221 32.8139 109.043C32.7959 108.967 32.8923 108.857 32.9378 108.764C33.1004 108.873 33.1551 109.119 33.4131 109.102C33.5282 108.691 33.5233 108.692 33.4132 108.333C33.5344 108.145 33.7438 107.976 33.3816 107.939C33.3831 108.056 33.3877 108.173 33.4132 108.333C33.2678 108.446 33.1037 108.604 32.9378 108.764C32.7753 108.468 32.8031 108.099 32.6402 107.806C32.7405 107.387 33.1531 107.574 33.3726 107.389C33.4027 107.131 33.152 107.07 33.0455 106.906C33.0909 106.813 33.1966 106.681 33.1685 106.633C33.0437 106.418 32.8809 106.229 32.7362 106.034C32.8611 105.62 33.2516 105.446 33.5784 105.059C33.5621 104.842 33.538 104.533 33.5125 104.186C33.8085 104.283 34.0219 104.353 34.2487 104.428C34.2836 104.053 33.9593 103.979 33.8318 103.761C33.762 103.185 34.6072 103.131 34.5915 102.583C34.4335 102.58 34.2786 102.577 34.08 102.572C34.1895 102.376 34.2893 102.194 34.3887 102.016C34.3123 101.837 34.2359 101.659 34.1481 101.449C34.3327 101.43 34.4821 101.416 34.6555 101.398C34.798 101.261 34.9618 101.106 35.1347 100.94C35.2218 100.585 35.228 100.236 34.9902 99.9283C34.9605 99.8925 35.0691 99.7501 35.0686 99.6379C35.2507 99.7421 35.4051 99.9351 35.4726 99.5741C35.3534 99.5853 35.2338 99.5995 35.0686 99.6379C34.9852 99.5232 34.8558 99.389 34.6751 99.204C34.879 99.0072 35.0233 98.8681 35.1215 98.7095C35.3036 98.8136 35.4581 99.0067 35.5255 98.6457C35.4063 98.6569 35.2867 98.6711 35.1215 98.7095C35.1315 98.6353 35.0473 98.5267 35.0747 98.4518C35.1846 98.1599 35.3303 97.8823 35.4805 97.5598C35.7276 97.4725 36.0191 97.3704 36.4158 97.233C36.2077 96.9143 36.0479 96.6681 35.8646 96.3864C35.9477 96.2707 36.0404 96.1414 36.1564 95.9791C36.0768 95.4519 35.4429 95.2893 35.2533 94.7053C35.385 94.6013 35.541 94.4799 35.7094 94.3482C35.7799 94.6632 35.8346 94.8979 35.9009 95.1971C36.125 95.0713 36.374 94.9935 36.3831 94.9146C36.4363 94.4034 36.9507 93.9512 36.6935 93.3685C36.5921 93.3291 36.4594 93.2773 36.3218 93.2268C36.2982 93.414 36.2764 93.564 36.2516 93.7713C36.0856 93.6758 35.9558 93.6024 35.8525 93.5427C35.7057 93.0137 36.6682 92.939 36.2708 92.3601C36.5082 92.3331 36.6549 92.3156 36.8257 92.2945C36.8426 92.0992 36.8612 91.8915 36.882 91.6434C36.7391 91.6331 36.5979 91.6214 36.4241 91.6064C36.4291 91.4183 36.433 91.2145 36.4374 91.0076C36.7438 90.83 37.0542 90.9483 37.3622 90.8984C37.5441 90.4451 36.8357 90.4157 36.9794 89.9667C37.2058 90.0451 37.4326 90.1203 37.671 90.2023C37.676 89.723 37.2414 89.6062 37.0257 89.2855C37.032 89.099 37.0389 88.8845 37.0445 88.6683C37.3501 88.4968 37.6614 88.609 37.9623 88.5649C38.075 88.3806 37.9072 88.1356 38.1032 87.9617C38.2853 88.0658 38.4398 88.2588 38.5072 87.8979C38.3881 87.909 38.2685 87.9233 38.1032 87.9617C37.9628 87.7927 37.7782 87.6028 37.5935 87.4129C38.0504 86.6542 37.8311 85.8367 37.9995 85.0293C38.1491 84.8858 38.311 84.732 38.4624 84.587C38.4776 84.3464 38.4916 84.126 38.5043 83.9149C38.3463 83.9116 38.1882 83.9084 38.0333 83.9053C38.0472 83.674 38.0595 83.455 38.0769 83.1632C38.3896 83.0434 38.7271 82.914 39.1489 82.753C38.9373 82.4372 38.7744 82.1908 38.6137 81.9508C38.7188 81.7536 38.819 81.5687 38.9157 81.3867C38.7472 81.2163 38.6026 81.0674 38.4287 80.8905C38.4581 80.6958 38.4904 80.4794 38.5323 80.1919C38.6516 80.0516 38.8273 79.8424 39.0233 79.6109C38.9424 79.4776 38.8651 79.3523 38.7477 79.1642C38.9184 78.9455 39.1141 78.6922 39.3038 78.4494C39.2219 78.3005 39.1517 78.1693 39.0801 78.0365C39.0865 77.7099 39.4253 77.6179 39.5773 77.3982C39.6791 77.0498 39.337 76.9688 39.2059 76.696C39.2002 76.6568 39.161 76.5521 39.1788 76.4549C39.2543 76.046 39.6212 75.2797 39.9007 74.8936C40.0071 74.7448 40.0462 74.5942 39.8765 74.4798C39.9202 74.3886 40.0254 74.2599 39.9987 74.2134C39.9006 74.045 39.7669 74.1286 39.6545 74.2522C39.4632 74.2052 39.27 74.1597 39.0769 74.1142C39.1524 73.7054 39.6097 73.2924 39.2397 72.8363C39.183 72.7681 39.1435 72.5839 39.1727 72.5651C39.7181 72.1861 39.1669 71.4905 39.7566 71.0966C39.679 70.9277 39.5973 70.7539 39.516 70.577C39.5087 70.3166 39.776 70.2428 39.8549 70.0537C40.037 70.1578 40.1914 70.3508 40.2589 69.9899C40.1397 70.001 40.0201 70.0153 39.8549 70.0537C39.7224 69.8259 39.3847 69.7 39.3469 69.3057C39.4985 69.2869 39.6421 69.2692 39.7759 69.2541C39.8899 68.9204 40.0867 68.5784 40.105 68.2445C40.1259 67.8563 40.3318 67.5397 40.4178 67.2046C40.3328 67.0664 40.2556 66.9411 40.1756 66.8125C40.5677 66.6158 41.0282 66.5875 41.2059 66.0717C41.1427 65.9705 41.0655 65.8451 40.9778 65.7037C40.9836 65.5909 41.1468 65.3774 41.4674 65.0634C41.6195 65.0524 41.7814 65.0387 41.9589 65.0258C42.1138 64.8779 42.2779 64.7196 42.4381 64.5672C42.7731 64.5498 43.1014 64.5351 43.4066 64.5177C43.7445 64.2809 43.9021 63.8451 44.3478 63.8098C44.4394 63.9919 44.2436 64.2452 44.4875 64.3447C44.3664 64.5332 44.157 64.7018 44.5192 64.7386C44.5176 64.6218 44.513 64.5048 44.4875 64.3447C44.5879 64.275 44.7106 64.1566 44.8403 64.0323C44.5063 63.4721 44.7287 62.8231 44.6891 62.1859C44.4764 61.9479 44.2434 61.6855 43.9929 61.402C44.125 61.2483 44.2255 61.1319 44.3316 61.008C44.4586 61.1991 44.5204 61.3538 44.517 61.4719C44.7076 61.6294 44.7973 61.9064 45.1221 61.9414C45.1808 61.7855 45.2399 61.6266 45.3008 61.4661C45.5747 61.4363 45.6278 61.6943 45.8139 61.7566C45.6928 61.9451 45.4834 62.1137 45.8456 62.1505C45.8441 62.0337 45.8394 61.9167 45.8139 61.7566C46.126 61.5138 46.5171 61.7903 46.8883 61.5972C46.8119 61.419 46.7355 61.2408 46.6463 61.0292C46.8334 60.8517 47.0262 60.6668 47.2173 60.4833C47.3259 60.5277 47.4183 60.5635 47.5108 60.5993C47.3324 60.7585 47.324 60.9137 47.4843 61.0635C47.4406 61.1547 47.3354 61.2833 47.3621 61.3298C47.4602 61.4982 47.5939 61.4146 47.6616 61.2732C47.8437 61.3773 47.9981 61.5704 48.0656 61.2094C47.9464 61.2206 47.8268 61.2348 47.6616 61.2732C47.6317 61.2157 47.5589 61.1388 47.4843 61.0635C47.6627 60.9043 47.6711 60.749 47.5108 60.5993C47.7021 60.5419 47.8917 60.486 48.1007 60.4249C48.11 60.321 48.122 60.1737 48.1374 60.0017C48.276 59.8701 48.4178 59.7028 48.588 59.5806C48.718 59.489 48.8809 59.48 49.0011 59.5888C48.88 59.7774 48.6706 59.9459 49.0328 59.9828C49.0313 59.8659 49.0266 59.7489 49.0011 59.5888C49.1015 59.5191 49.2238 59.4038 49.3451 59.2838C49.7072 59.4608 50.09 59.5547 50.5315 59.457C50.4623 59.2371 50.3913 59.0187 50.3221 58.7988C50.5018 58.7813 50.6499 58.7654 50.7962 58.751C50.8109 58.5135 50.8227 58.2976 50.8357 58.0616C50.5922 58.1568 50.3554 58.2493 50.0902 58.3543C50.2291 57.8708 50.6112 57.644 50.9408 57.3756C51.0404 57.4164 51.1311 57.4537 51.2218 57.4909C51.1763 57.5836 51.0707 57.7153 51.0987 57.7634C51.2235 57.9783 51.3864 58.1671 51.5297 58.3612C51.3383 58.8031 51.1539 59.2282 50.9617 59.6764C51.5592 59.493 52.1412 59.3307 52.7104 59.1242C52.816 59.0859 52.8714 58.8723 52.9425 58.7528C52.8018 58.6088 52.6913 58.4973 52.5826 58.3844C52.7609 58.2252 52.7693 58.0699 52.6091 57.9202C52.6718 57.7225 52.7377 57.525 52.8112 57.2936C52.9427 57.1678 53.1064 57.0125 53.1788 56.9414C53.5866 56.8031 53.8874 56.7014 54.1949 56.597C54.1959 56.7527 54.1946 56.9021 54.196 57.0548C54.3478 57.0577 54.5076 57.0595 54.6656 57.0628C54.8476 57.2494 55.0327 57.4362 55.2146 57.6228C55.1317 57.7028 55.0487 57.7827 54.9644 57.861C54.8638 57.7578 54.7828 57.6136 54.6587 57.5685C54.5568 57.5322 54.4027 57.6163 54.2717 57.6456C54.0773 57.4116 53.9046 57.5633 53.6971 57.7522C53.68 57.9724 53.6587 58.2236 53.643 58.4096C53.9854 58.5125 54.2688 58.5983 54.5643 58.6879C54.6506 58.2921 54.1968 58.2241 54.1367 57.9253C54.1808 57.831 54.2262 57.7383 54.2717 57.6456C54.3723 57.7487 54.4515 57.8944 54.5788 57.9397C54.6806 57.9759 54.8348 57.8918 54.9658 57.8626C55.1284 57.972 55.1841 58.2223 55.5363 58.1933C55.6199 58.0854 55.7378 57.9325 55.8539 57.781C55.5974 57.7168 55.4074 57.6714 55.216 57.6245C55.3369 57.5075 55.4591 57.3922 55.5942 57.2635C56.1234 57.2605 56.6637 57.2565 57.2338 57.2524C57.3261 57.3131 57.4474 57.3908 57.5526 57.4599C57.824 57.391 57.9696 57.2535 57.9589 57.007C57.9456 56.6747 58.1474 56.5509 58.5067 56.4117C58.4467 56.8104 58.3979 57.1256 58.3589 57.3805C58.5215 57.5475 58.6307 57.6573 58.7381 57.7686C58.5597 57.9278 58.5513 58.0831 58.7116 58.2328C58.6286 58.3127 58.5457 58.3926 58.5074 58.4904C58.3253 58.3862 58.1709 58.1932 58.1034 58.5541C58.2226 58.543 58.3422 58.5288 58.5074 58.4904C58.5521 58.5082 58.6727 58.603 58.7222 58.5728C58.9019 58.4619 58.8278 58.3367 58.7112 58.2359C58.8895 58.0767 58.8979 57.9214 58.7376 57.7717C59.0634 57.5669 59.3766 57.5593 59.6806 57.7489C59.4725 58.0125 59.5106 58.2885 59.5737 58.5657C59.88 58.5281 60.0496 58.3872 59.9924 58.0667C59.8891 57.9603 59.7839 57.8553 59.6806 57.7489C59.7773 57.7071 59.8917 57.6147 59.9658 57.6356C60.2018 57.7004 60.4245 57.8065 60.6925 57.9134C60.6999 58.138 60.8138 58.4333 60.519 58.7112C60.1973 59.0143 60.7436 59.1289 60.6432 59.3963C60.5168 59.7403 60.9542 59.918 60.8355 60.2748C60.7749 60.457 60.8052 60.6625 60.7945 60.8472C61.1388 60.877 61.2222 60.6072 61.4028 60.4901C61.646 60.8044 61.3713 61.1892 61.5165 61.5437C61.9673 61.4355 62.1994 60.9707 62.5663 60.6933C62.6409 60.7687 62.7155 60.844 62.7883 60.9209C62.6648 61.0922 62.3975 61.1659 62.405 61.4481C62.6405 61.7496 62.8471 62.1025 63.3484 62.2133C63.2521 61.9967 63.1553 61.8299 63.1092 61.6485C63.0907 61.576 63.1885 61.4672 63.234 61.3745C63.4316 61.4218 63.6278 61.4675 63.8495 61.5222C63.958 61.7067 64.2854 61.7808 64.2486 62.1355C64.1036 62.1515 63.9542 62.1658 63.7902 62.1841C63.7649 62.488 63.7366 62.8026 63.7136 63.0662C63.5999 63.2349 63.5116 63.3659 63.415 63.5121C63.551 63.6325 63.6573 63.7282 63.7794 63.8355C64.0593 63.6332 64.3166 63.4468 64.6014 63.2431C64.6336 63.5047 64.6581 63.6959 64.6793 63.876C65.0016 63.9763 65.2846 64.0652 65.5453 64.1453C65.523 64.5895 65.4833 64.6279 64.8026 64.7074C64.7144 64.7918 64.5885 64.8991 64.4761 65.0227C64.406 65.1001 64.3584 65.1974 64.2869 65.309C64.4934 65.5576 64.6111 65.2786 64.7811 65.1812C65.2402 65.4425 66.0185 65.2792 66.1871 66.0537C65.9736 66.0663 65.8108 66.0753 65.6208 66.0875C65.541 66.2143 65.4558 66.3455 65.3479 66.5176C65.5536 66.5279 65.7032 66.5354 65.839 66.5407C65.8795 66.7296 65.9182 66.9199 65.96 67.1104C65.9159 67.2047 65.8704 67.2974 65.8202 67.4023C65.9697 67.5967 66.122 67.7943 66.2702 67.987C66.163 68.1887 66.0645 68.3721 65.9489 68.589C66.1391 68.5985 66.287 68.6075 66.4459 68.6155C66.4437 68.7602 66.4415 68.9158 66.4385 69.0667C66.5983 69.0685 66.7598 69.0688 66.9165 69.0704C66.9899 69.1551 67.0564 69.2316 67.1379 69.326C66.9543 69.7449 66.7677 70.1747 66.5706 70.6241C66.713 70.8134 66.8768 71.0069 67.0016 71.2218C67.0296 71.2699 66.9222 71.4031 66.9228 71.5152C66.7407 71.4111 66.5863 71.2181 66.5188 71.579C66.638 71.5679 66.7576 71.5537 66.9228 71.5152C66.9114 71.5879 67.0025 71.7154 66.9687 71.7682C66.8498 71.9522 66.6888 72.1107 66.5346 72.2883C66.6427 72.9144 66.8172 73.3809 67.0583 73.6878C67.0534 74.1204 67.051 74.4987 67.0478 74.7788C66.9083 74.9991 66.8245 75.1319 66.7152 75.3024C66.9227 75.3112 67.0741 75.3173 67.2424 75.3257C67.1515 75.5578 67.0494 75.7909 66.9719 76.0284C66.9377 76.131 66.9552 76.2455 66.944 76.4333C67.1538 76.6463 67.4005 76.9 67.6103 77.1129C67.5921 77.411 67.5816 77.6284 67.566 77.8721C67.3321 77.7919 67.1057 77.7135 66.8748 77.6334C66.8597 77.874 66.8492 78.0915 66.831 78.3895C67.1167 78.6794 67.438 79.0085 67.7471 79.323C67.6281 79.507 67.5367 79.6378 67.4601 79.7757C67.4351 79.8211 67.4504 79.8826 67.4465 79.9463C67.517 80.0168 67.5885 80.092 67.6644 80.169C67.8162 80.1719 67.9774 80.1753 68.1777 80.1792C68.0696 80.3761 67.9711 80.5596 67.838 80.802C67.9825 80.9759 68.1435 81.1661 68.3046 81.3564C68.2884 81.6281 68.2735 81.9014 68.2533 82.2258C68.3635 82.3512 68.4984 82.5028 68.6716 82.6967C68.6731 83.0113 68.6728 83.3741 68.674 83.7961C68.9195 83.8256 69.1201 83.8512 69.3299 83.8773C69.357 84.2586 69.1444 84.7181 69.4996 85.052C69.4275 85.3069 69.5962 85.5925 69.3821 85.8418C69.2 85.7376 69.0456 85.5446 68.9781 85.9055C69.0973 85.8944 69.2169 85.8802 69.3821 85.8418C69.5086 85.9976 69.6988 86.1582 69.8435 86.3538C69.93 86.4687 69.919 86.6316 69.7982 86.7595C69.6161 86.6554 69.4617 86.4623 69.3942 86.8233C69.5134 86.8121 69.633 86.7979 69.7982 86.7595C69.8561 86.9119 70.0868 86.9701 70.0892 87.2427C70.0924 87.4874 70.2036 87.7218 70.2708 87.9681C70.0107 88.2446 69.7453 88.5256 69.4746 88.8109C69.774 89.1856 69.9038 88.5834 70.1485 88.7124C70.2331 89.0047 70.3204 89.3112 70.4082 89.6145C70.2316 89.6321 70.0818 89.6495 69.9546 89.6618C69.931 89.9066 69.9094 90.1251 69.8894 90.3203C70.0534 90.4889 70.2012 90.638 70.3391 90.7788C70.5128 90.7828 70.6739 90.7863 70.8226 90.7891C71.1493 91.0312 70.9696 91.3866 70.9942 91.693C70.913 91.7714 70.8305 91.8482 70.7493 91.9267C70.8219 92.2729 70.8935 92.6143 70.9633 92.9464C70.7412 93.2326 70.5441 93.4843 70.2533 93.8605C70.645 93.7135 70.8796 93.6257 71.1258 93.5337C71.1149 93.6608 71.1052 93.7678 71.0982 93.878C71.1974 94.2598 71.5426 94.4344 71.8353 94.7542C71.9874 94.6388 72.143 94.5205 72.4002 94.3233C72.1124 94.2465 71.9536 94.2027 71.7898 94.1603C71.8694 93.803 72.2183 93.6586 72.427 93.4029C72.5163 93.4385 72.6494 93.5339 72.6883 93.5016C72.8982 93.3409 73.2299 93.1504 73.2482 92.9676C73.3044 92.3881 73.77 91.9491 73.8294 91.3915C73.8327 91.3559 73.7624 91.3181 73.7265 91.282C74.0993 90.9255 74.474 90.5675 74.8433 90.214C74.8578 90.0481 74.8733 89.8869 74.8896 89.7196C75.055 89.5628 75.2174 89.406 75.3326 89.2965C75.3974 89.0366 75.4467 88.8336 75.5 88.6245C75.7245 88.5891 75.8814 88.5658 76.0899 88.5327C76.108 88.4215 76.133 88.2826 76.1617 88.1159C76.2956 88.1008 76.445 88.0865 76.6282 88.0661C76.3236 87.5666 76.4698 87.0056 76.477 86.4751C76.6989 86.4473 76.8585 86.4273 77.0501 86.4026C77.3144 85.7106 77.5757 85.0293 77.8739 84.2486C78.0341 84.0963 78.283 83.8565 78.5261 83.6243C78.6969 83.6142 78.8615 83.6037 79.0928 83.5873C79.1638 83.4103 79.2417 83.2164 79.3196 83.0226C79.4189 82.5418 80.1521 82.4105 80.0478 81.7995C80.3572 81.471 80.6667 81.1424 80.9986 80.787C81.1209 80.4272 81.2575 80.0308 81.4235 79.544C81.9261 79.0632 82.5059 78.51 83.1237 77.9197C83.0491 77.751 82.9705 77.5773 82.891 77.3989C82.8337 77.0675 83.5658 76.9563 83.253 76.4829C83.4932 76.6569 83.7333 76.8309 83.9793 77.0082C84.242 76.7708 84.0242 76.5123 84.1588 76.2932C83.9638 76.285 83.8142 76.2775 83.6646 76.27C83.6523 75.9066 84.0297 75.843 84.1223 75.6095C84.416 75.5494 84.7241 75.6615 84.9175 75.2866C84.8502 75.1337 84.7707 74.9553 84.6929 74.7755C84.7449 74.378 85.0398 74.4021 85.3166 74.3973C85.3525 74.3758 85.4182 74.3542 85.4193 74.334C85.45 73.8964 85.4745 73.4586 85.5003 73.0115C85.7434 72.7792 85.9901 72.544 86.235 72.3103C86.2517 72.1399 86.2671 71.9787 86.2894 71.7323C86.5082 71.6685 86.7533 71.5968 86.9983 71.525C87.0036 71.4272 87.0089 71.3184 87.0205 71.1275C87.3391 70.8243 87.6996 70.4781 88.0182 70.1749C88.0394 69.8194 88.0543 69.5461 88.0767 69.1704C88.388 69.2359 88.701 69.2998 89.0306 69.3693C89.3017 68.6854 89.5127 68.1557 89.7315 67.6031C89.8996 67.5788 90.0578 67.5572 90.2227 67.5327C90.3583 67.1674 90.499 66.7868 90.6454 66.3878C90.9172 66.3734 91.2411 66.3569 91.5303 66.3419C91.7196 66.1599 91.8833 66.0046 92.0474 65.8462C91.9805 65.586 92.2012 65.2872 91.9624 65.0681C92.4165 64.6332 92.8736 64.1984 93.4036 63.6893C93.3888 63.4379 93.3725 63.1164 93.3553 62.8368C93.5733 62.6282 93.7352 62.4744 93.8707 62.3426C93.8983 62.1494 93.9227 61.9918 93.9414 61.8526C94.1357 61.6802 94.3073 61.5129 94.5286 61.7108C94.4074 61.8994 94.198 62.0679 94.5602 62.1048C94.5587 61.9879 94.554 61.8709 94.5286 61.7108C94.7327 61.5934 94.6078 61.3676 94.6576 61.1723C94.7075 60.9771 94.5839 60.7529 94.7639 60.5704C94.946 60.6746 95.1004 60.8676 95.1679 60.5066C95.0487 60.5178 94.9291 60.532 94.7639 60.5704C94.5699 60.391 94.7532 60.2305 94.9027 60.0293C95.2608 60.0037 95.6237 59.9768 95.9249 59.9545C96.3908 59.5591 95.9849 59.0669 96.3119 58.7128C96.4045 58.666 96.4934 58.6004 96.5906 58.5773C96.6959 58.553 96.8069 58.5679 96.9092 58.5653C96.9439 58.3661 96.9782 58.1701 97.0244 57.9202C97.28 57.8863 97.4828 57.8607 97.6953 57.8324C97.9313 57.6061 98.1745 57.3738 98.4194 57.1401C98.433 56.9804 98.445 56.8222 98.4587 56.6625C98.5795 56.5456 98.7018 56.4303 98.7798 56.2941C98.9619 56.3982 99.1163 56.5912 99.1838 56.2303C99.0646 56.2414 98.945 56.2556 98.7798 56.2941C98.7911 56.2215 98.7033 56.1049 98.7352 56.0427C98.8012 55.9137 98.9325 55.8128 99.0295 55.7103C99.244 55.8067 99.4232 55.8857 99.6364 55.9805C99.6624 55.7996 99.6833 55.6559 99.7047 55.5091C99.9523 55.3829 100.039 55.6379 100.214 55.6981C100.54 55.702 100.644 55.374 100.839 55.253C100.912 55.0278 100.976 54.8317 100.996 54.6147C101.178 54.7189 101.332 54.9119 101.4 54.551C101.281 54.5621 101.161 54.5763 100.996 54.6147C100.731 54.3928 100.326 54.6247 99.9536 54.5001C100.033 54.3625 100.113 54.2279 100.189 54.0962C100.371 54.082 100.53 54.0682 100.692 54.0545C100.831 53.719 100.629 53.3399 100.853 52.9945C101.035 53.0987 101.19 53.2917 101.257 52.9307C101.138 52.9419 101.018 52.9561 100.853 52.9945C100.659 52.8073 100.834 52.6448 101.013 52.4576C101.157 52.443 101.318 52.4246 101.499 52.4057C101.516 52.268 101.536 52.1195 101.558 51.9447C101.783 52.0214 102.008 52.0981 102.235 52.1764C102.256 52.0046 102.273 51.8529 102.289 51.7136C102.453 51.6953 102.6 51.6778 102.743 51.6601C102.761 51.3542 102.777 51.0826 102.794 50.786C102.943 50.7717 103.094 50.756 103.266 50.7397C103.664 50.3595 104.077 49.9645 104.502 49.5592C104.515 49.4135 104.53 49.2523 104.544 49.0896C104.748 48.8958 104.955 48.696 105.162 48.4993C105.27 48.6651 105.431 48.6467 105.569 48.54C105.753 48.3982 105.887 48.2181 105.661 48.0215C105.784 47.9031 105.908 47.7863 106.117 47.585C106.098 47.3536 106.072 47.0456 106.04 46.6578C106.324 46.7873 106.502 46.8695 106.714 46.9657C106.944 46.7468 107.182 46.519 107.497 46.2156C107.508 46.1632 107.536 46.0105 107.578 45.8024C107.685 45.7876 107.824 45.7681 107.984 45.745C107.832 45.2453 108.435 45.0903 108.568 44.6781C108.41 44.4491 108.243 44.2087 108.067 43.9539C108.571 43.769 108.553 44.3193 109.129 44.3046C109.301 44.2743 109.471 43.8671 109.788 43.637C109.801 43.4804 109.816 43.3192 109.831 43.1643C109.984 43.1548 110.143 43.1441 110.296 43.1347C110.433 42.7025 109.715 42.6867 109.945 42.1626C110.198 42.3481 110.434 42.5204 110.703 42.7145C110.842 42.3649 110.969 42.0506 111.091 41.7406C110.973 41.6194 110.862 41.508 110.753 41.3951C110.96 41.1984 111.166 41.0001 111.369 40.8063C111.531 40.7958 111.689 40.785 111.89 40.7718C111.803 40.5727 111.724 40.396 111.637 40.197C111.825 39.9557 112.02 39.7055 112.253 39.4073C112.009 39.4013 111.854 39.3982 111.61 39.3922C111.752 39.2 111.871 39.0441 111.98 38.8985C112.225 39.0074 112.404 39.0895 112.617 39.1843C112.642 39.0018 112.663 38.855 112.686 38.6957C112.832 38.6844 112.989 38.6751 113.163 38.6621C113.091 38.4311 113.018 38.2033 112.955 37.9977C113.13 37.6406 113.447 37.7888 113.68 37.6837C113.661 37.3309 113.729 37.0385 114.182 36.9943C114.18 37.1717 114.178 37.3273 114.175 37.5249C114.338 37.4412 114.48 37.3674 114.62 37.2981C114.641 37.1154 114.661 36.956 114.682 36.7765C115.16 36.3193 115.653 35.849 116.15 35.3726C116.167 35.21 116.184 35.0504 116.201 34.8909C116.353 34.8798 116.51 34.8675 116.667 34.8551C116.672 34.7464 116.681 34.6378 116.689 34.4935C116.756 34.2321 117.046 34.1144 117.219 33.9019C117.389 33.6925 117.686 33.5719 117.723 33.239C117.553 33.232 117.4 33.2275 117.245 33.2213C117.243 33.1791 117.219 33.111 117.243 33.0826C117.46 32.8288 117.684 32.5816 118.032 32.1942C118.007 32.0279 117.962 31.7111 117.931 31.4838C118.199 31.2279 118.36 31.0725 118.547 30.8951C118.676 30.8844 118.837 30.8738 119.016 30.8595C119.251 30.6345 119.497 30.3994 119.746 30.1627C119.838 29.9759 119.678 29.7327 119.917 29.5672C120.224 29.8395 120.373 29.5978 120.557 29.2988C120.388 29.1268 120.214 28.9499 120.08 28.8109C120.098 28.5129 120.111 28.2939 120.122 28.0672C120.281 28.0565 120.439 28.0457 120.601 28.0352C120.721 27.9213 120.844 27.8029 120.968 27.683C121.129 27.7939 121.186 28.038 121.464 28.0209C121.599 27.7412 121.631 27.4703 121.467 27.2083C121.755 26.9331 122.041 26.6595 122.328 26.3858C122.343 26.2277 122.358 26.0697 122.374 25.9163C122.529 25.9054 122.684 25.8945 122.881 25.8795C122.792 25.6788 122.715 25.5006 122.619 25.284C122.786 25.0962 122.965 24.895 123.143 24.6922C123.155 24.4764 123.168 24.2591 123.179 24.0494C123.107 23.8979 122.804 23.8282 123.051 23.5712C123.402 23.6278 123.522 23.9545 123.784 24.0907C123.663 24.2792 123.454 24.4478 123.816 24.4846C123.814 24.3678 123.81 24.2508 123.784 24.0907C123.825 23.9526 123.889 23.7674 123.958 23.57C124.617 23.4723 124.639 23.4516 124.536 22.9576C124.657 22.8406 124.779 22.7253 124.922 22.5877C124.92 22.449 124.918 22.2916 124.916 22.153C125.181 21.9 125.424 21.6678 125.672 21.4311C125.826 21.4217 125.987 21.4142 126.147 21.4051C126.16 21.2516 126.173 21.095 126.186 20.9384C126.348 20.7846 126.509 20.6292 126.62 20.5227C126.876 20.4499 127.076 20.3914 127.23 20.3182C127.412 20.4223 127.566 20.6153 127.634 20.2544C127.515 20.2655 127.395 20.2798 127.23 20.3182C127.056 19.7707 127.299 19.1679 127.245 18.6031C127.515 18.3457 127.762 18.1075 127.893 17.9817C128.127 17.4142 128.269 16.9605 128.502 16.5533C128.611 16.3611 128.844 16.038 129.153 16.3447C128.944 16.6083 128.983 16.8842 129.046 17.1614C129.352 17.1239 129.522 16.9829 129.464 16.6624C129.361 16.556 129.256 16.4511 129.153 16.3447C129.275 16.1578 129.453 16.2383 129.609 16.2181C129.871 16.1846 129.995 16.0351 130.014 15.7667C129.859 15.7605 129.706 15.7528 129.55 15.7481C129.5 15.4217 129.859 15.3292 129.977 15.1047C130.094 14.8785 130.134 14.6174 130.204 14.378C130.444 14.3543 130.606 14.3406 130.755 14.3263C130.834 14.0905 130.915 13.8532 131.046 13.4643C131.034 13.4357 130.953 13.2588 130.839 13.0039C131.147 12.6519 131.529 12.3239 131.881 11.9928C132.048 11.9778 132.199 11.962 132.348 11.9477C132.357 11.8174 132.364 11.7072 132.369 11.5985C133.084 11.3696 133.112 11.3383 132.956 10.8245C132.636 10.8162 132.289 10.805 131.853 10.794C132.012 10.5872 132.109 10.4628 132.195 10.3503C132.447 10.3443 132.676 10.3076 132.886 10.3446C133.023 10.3685 133.132 10.5032 133.272 10.6037C133.412 10.4706 133.524 10.3641 133.623 10.2679C133.677 9.9701 133.406 9.91288 133.302 9.74106C133.641 9.48405 134.022 9.69779 134.411 9.55232C134.341 9.41331 134.275 9.28389 134.212 9.15772C134.029 9.15321 133.868 9.14979 133.709 9.1449C133.992 8.68115 133.903 8.01649 134.553 7.73769C134.643 7.77494 134.733 7.81056 134.841 7.83004C134.701 7.96312 134.578 8.08153 134.456 8.19993C134.434 8.72305 134.573 9.02066 134.872 9.09276C134.841 8.67863 135.016 8.24209 134.843 7.83167C135.115 7.57283 135.403 7.2977 135.689 7.02093C135.704 6.86287 135.721 6.70643 135.735 6.55457C135.889 6.54205 136.043 6.52954 136.235 6.51271C136.146 6.30896 136.069 6.12911 135.979 5.92064C136.147 5.86367 136.311 5.80963 136.475 5.75559C136.403 5.57134 136.33 5.39019 136.258 5.21066C136.718 4.95503 137.034 5.32432 137.45 5.34675C137.373 5.11092 137.303 4.8863 137.23 4.65844C137.41 4.6488 137.575 4.63838 137.725 4.6288C138.135 4.35976 137.852 3.7274 138.4 3.54938C138.643 3.34986 139.082 3.59766 139.222 3.1267C139.157 2.96147 139.085 2.78194 138.995 2.55785C139.148 2.53753 139.288 2.51966 139.432 2.49887C139.482 2.32073 139.535 2.13345 139.606 1.87698C139.81 1.84207 140.015 1.80568 140.239 1.76553C140.173 1.55668 140.1 1.32882 140.031 1.11201C140.13 1.01579 140.212 0.938964 140.294 0.860525C140.394 0.881153 140.493 0.903253 140.64 0.932418C140.689 1.14975 140.745 1.38921 140.817 1.70577C140.984 1.73131 141.184 1.76004 141.4 1.79265C141.399 1.91716 141.395 2.07112 141.393 2.22672C141.609 2.22042 141.829 2.21592 142.07 2.21088C142.088 2.06388 142.108 1.91541 142.126 1.7824C142.322 1.72684 142.519 1.6729 142.716 1.61586C143.123 1.82467 143.522 1.84469 143.873 1.37965C144.108 1.61876 144.282 1.79564 144.464 1.98228C144.377 2.21925 144.562 2.50728 144.299 2.73696C144.169 2.60588 144.038 2.47318 143.856 2.28963C143.651 2.48486 143.505 2.62235 143.358 2.76131C143.267 2.72406 143.178 2.65263 143.087 2.65899C142.716 2.68708 142.342 2.58578 141.941 2.77897C141.902 2.88287 141.855 3.00975 141.808 3.13191C142.232 3.12829 142.612 3.12558 142.981 3.12386C143.116 2.99518 143.237 2.87824 143.359 2.76293C143.502 2.79812 143.647 2.82876 143.785 2.86998C143.877 2.89795 143.964 2.94123 144.052 2.97833C143.988 3.17441 143.923 3.37357 143.843 3.62177C143.724 3.73415 143.561 3.89103 143.4 4.04483C143.349 4.55922 143.957 4.62246 144.049 5.0381C144.002 5.12917 143.97 5.23811 143.901 5.30937C143.664 5.55284 143.412 5.78151 143.168 6.01685C143.019 5.86612 142.872 5.71392 142.682 5.60477C142.843 5.45244 142.96 5.33844 142.985 5.31479C143.229 5.10906 143.473 5.35173 143.615 4.99763C143.489 4.89632 143.351 4.78821 143.217 4.68025C142.959 4.96314 142.576 5.05912 142.681 5.60314C142.677 5.70568 142.634 5.85143 142.578 5.99346C142.542 6.08663 142.491 6.17592 142.446 6.26552C142.28 6.156 142.227 5.89799 141.988 5.92337C141.527 6.00453 141.715 6.43592 141.505 6.63556C141.233 6.63903 140.949 6.61699 140.872 7.01018C141.116 7.11271 141.355 7.28198 141.619 7.30927C141.861 7.33385 142.153 7.43726 142.392 7.19234C142.426 7.28438 142.511 7.38983 142.484 7.46475C142.398 7.70336 142.271 7.93211 142.025 8.44755C141.89 8.57623 141.529 8.92247 141.212 9.2242C141.202 9.40894 141.195 9.51914 141.185 9.70551C140.866 10.0118 140.504 10.3564 140.13 10.7144C140.381 10.9481 140.989 10.6983 140.848 11.2845C140.694 11.297 140.539 11.3079 140.323 11.3251C140.421 11.4857 140.49 11.6122 140.573 11.7331C140.657 11.8557 140.753 11.968 140.849 12.0942C140.566 12.3868 140.505 12.0754 140.357 12.0197C140.293 11.9962 140.191 12.0534 140.079 12.0805C140.216 12.5217 140.638 12.7033 140.876 13.0329C140.578 13.4321 140.795 13.8665 140.68 14.2889C141.243 14.3483 141.348 13.5829 141.906 13.5891C141.807 13.8223 141.712 14.0465 141.624 14.2522C141.826 14.3013 142.019 14.3468 142.232 14.3481C142.111 14.5367 141.901 14.7052 142.264 14.7421C142.262 14.6252 142.257 14.5082 142.232 14.3481C142.44 14.1313 142.586 14.3207 142.731 14.4168C142.911 14.8197 142.52 15.328 142.968 15.654C142.873 15.8812 142.774 16.1145 142.661 16.3813C142.928 16.2826 143.161 16.1962 143.427 16.0959C143.323 16.3585 143.234 16.5751 143.138 16.8147C143.668 16.7557 143.796 16.1549 144.264 16.085C144.255 16.2755 144.2 16.4721 144.099 16.6746C144.608 16.6612 145.145 16.6493 145.852 16.6302C145.807 16.6591 145.941 16.5725 146.065 16.4946C146.124 16.5194 146.196 16.5339 146.195 16.5509C146.176 16.9875 146.15 17.4237 146.122 17.8754C146.275 17.88 146.431 17.8847 146.594 17.8897C146.733 18.0322 146.881 18.1813 147.041 18.345C147.03 18.4364 147.017 18.5462 147.006 18.6376C147.104 19.0426 147.457 19.213 147.689 19.4815C147.911 19.4755 148.134 19.4696 148.423 19.4623C148.332 19.2693 148.254 19.1034 148.172 18.9265C148.199 18.6819 148.34 18.5457 148.638 18.5202C148.645 18.6654 148.651 18.8058 148.658 18.954C149.074 19.1493 149.44 18.7769 149.841 18.7378C149.99 18.8885 150.136 19.0391 150.283 19.1882C150.278 19.3001 150.271 19.4102 150.261 19.5748C150.551 19.6688 150.861 19.7684 151.302 19.9104C151.065 19.5388 150.889 19.2622 150.608 18.8199C150.978 18.9927 151.158 19.0765 151.339 19.1602C151.633 19.0941 151.771 18.8363 151.953 18.6554C151.976 18.4853 151.997 18.3276 152.017 18.19C152.246 17.9726 152.451 17.7743 152.694 17.542C152.716 17.4248 152.743 17.2705 152.775 17.107C153.111 17.0149 153.454 16.8998 153.757 16.5055C153.744 16.2635 153.724 15.9418 153.711 15.692C153.913 15.4997 154.037 15.3798 154.161 15.2599C154.421 15.4318 154.697 15.4083 154.995 15.2784C155.002 15.0172 154.771 14.9402 154.661 14.7821C154.708 14.6381 154.751 14.4924 154.805 14.3518C154.841 14.2586 154.892 14.1694 154.891 14.0603C155.073 14.1644 155.228 14.3575 155.295 13.9965C155.176 14.0077 155.056 14.0219 154.891 14.0603C154.903 13.9877 154.812 13.8539 154.843 13.815C155.106 13.4997 155.155 13.1596 155.102 12.7864C154.872 12.8729 154.647 12.9582 154.406 13.0488C154.452 12.5248 155.055 12.4274 155.175 11.9975C155.099 11.8224 155.022 11.6473 154.92 11.4133C155.177 11.4059 155.388 11.3651 155.577 11.4058C155.765 11.4448 155.928 11.562 156.118 11.654C156.235 11.5073 156.331 11.386 156.471 11.2093C156.231 11.1646 156.024 11.1744 155.883 11.088C155.704 10.9762 155.596 10.7855 155.847 10.577C155.936 10.6126 156.059 10.706 156.108 10.6757C156.288 10.5649 156.214 10.4397 156.097 10.3389C156.18 10.259 156.263 10.179 156.348 10.1008C156.448 10.2039 156.529 10.3481 156.653 10.3933C156.755 10.4295 156.909 10.3454 156.994 10.2967C157.176 10.4008 157.331 10.5939 157.398 10.2329C157.279 10.2441 157.159 10.2583 156.994 10.2967C156.892 10.1623 156.744 10.0132 156.595 9.86249C156.724 9.7024 156.95 9.61406 157 9.28959C156.831 9.11922 156.63 8.91293 156.429 8.70664C156.634 8.51142 156.838 8.31457 157.043 8.11935C157.057 7.95966 157.072 7.7985 157.086 7.63881C157.291 7.44359 157.495 7.24674 157.764 6.97375C157.798 7.427 157.968 7.73345 158.274 7.89309C158.296 7.59993 158.316 7.35022 158.333 7.1129C158.111 7.01765 157.974 6.96096 157.762 6.97523C157.608 7.01573 157.482 6.92224 157.431 6.95392C157.201 7.095 156.994 7.27298 156.742 7.46276C156.619 7.37562 156.5 7.29024 156.393 7.21478C156.426 6.71507 156.74 6.68726 157.089 6.74059C157.266 6.57195 157.428 6.41816 157.613 6.23908C157.637 5.95064 157.664 5.63128 157.69 5.31809C157.844 5.30558 158 5.2947 158.206 5.27703C158.126 5.11574 158.06 4.98631 157.997 4.85705C157.811 4.85237 157.65 4.84896 157.444 4.84483C157.547 4.65697 157.643 4.48116 157.743 4.29933C157.702 3.95471 157.371 3.82599 157.193 3.58352C157.276 3.50361 157.359 3.42369 157.443 3.3454C157.612 3.45199 157.664 3.68348 157.939 3.69416C158.187 3.70506 158.422 3.82274 158.664 3.89403C158.956 3.8246 159.013 3.29033 159.441 3.4628C159.355 3.88824 158.931 4.04289 158.692 4.34542C158.531 4.35601 158.369 4.36659 158.11 4.38469C158.242 4.57663 158.348 4.72517 158.466 4.89615C158.667 4.76765 158.801 4.68097 158.949 4.58563C159.229 4.5779 159.284 4.65071 159.302 5.15145C159.114 5.20896 158.913 5.26893 158.684 5.33839C158.585 5.59654 158.466 5.90665 158.345 6.22442C158.597 6.21839 158.817 6.21387 159.039 6.20789C159.046 6.0977 159.051 5.98898 159.063 5.79805C159.297 5.57314 159.576 5.30843 159.794 5.09984C159.829 4.85402 159.849 4.70865 159.877 4.49832C160.047 4.59872 160.173 4.67512 160.336 4.77049C160.227 4.97056 160.129 5.15092 160.031 5.33438C160.02 5.65144 160.346 5.72385 160.468 5.94641C160.278 6.35415 160.657 6.61299 160.684 6.98645C160.705 7.29579 161.081 7.55447 161.301 7.8333C161.123 7.95518 160.961 8.02125 160.814 8.03152C160.645 8.19429 160.481 8.34955 160.315 8.50938C160.381 8.92687 160.11 9.38035 160.365 9.77303C160.136 9.99044 159.909 10.2095 159.738 10.3737C159.724 10.7171 159.955 10.7863 160.061 10.9427C159.928 11.2925 159.793 11.6408 159.662 11.9861C159.967 12.1197 160.173 11.4543 160.479 11.862C160.358 11.979 160.23 12.0909 160.115 12.2159C160.086 12.2487 160.08 12.3527 160.1 12.3662C160.168 12.4054 160.285 12.4626 160.328 12.4321C160.465 12.3378 160.578 12.208 160.701 12.0896C160.882 12.3727 160.806 12.6725 160.668 13.0533C160.501 13.0901 160.299 13.1344 160.055 13.1891C160.024 13.3822 159.988 13.6155 159.923 14.0264C160.362 13.7028 160.618 13.5148 160.922 13.2902C161.066 13.7584 160.586 13.8137 160.449 14.1167C160.495 14.2108 160.554 14.3399 160.617 14.4661C160.69 14.6145 160.716 14.7575 160.538 14.8778C160.449 14.8422 160.326 14.7489 160.277 14.7791C160.097 14.8899 160.171 15.0151 160.288 15.116C160.174 15.2239 160.021 15.3159 159.965 15.4423C159.919 15.5459 159.992 15.6912 160.011 15.8183C159.887 15.9927 159.612 16.0645 159.627 16.3736C159.761 16.3834 159.9 16.3966 160.045 16.4085C160.168 17.0313 159.599 16.7785 159.355 16.9406C159.328 17.2647 159.652 17.3386 159.801 17.5889C159.749 17.7031 159.688 17.8418 159.574 18.0929C159.271 18.0403 158.953 17.9855 158.681 17.9375C158.538 18.262 158.534 18.265 159.047 18.7313C159.203 18.7423 159.346 18.7525 159.559 18.7679C159.429 18.9498 159.339 19.0792 159.256 19.1949C159.065 19.2056 158.902 19.2145 158.741 19.222C158.307 19.5412 158.589 20.0131 158.387 20.3813C158.277 20.3851 158.167 20.3858 158.057 20.3896C157.704 20.9683 158.363 21.4311 158.114 22.0009C157.957 22.0102 157.796 22.0208 157.638 22.0315C157.432 22.2267 157.227 22.425 157.022 22.6203C156.703 22.2975 156.602 22.7051 156.375 22.7264C156.497 23.0175 156.571 23.1955 156.637 23.3515C156.49 23.724 156.21 23.6928 155.941 23.6886C156.002 24.0716 156.064 24.4515 156.125 24.8376C155.91 24.8517 155.754 24.8626 155.599 24.8735C155.591 24.9929 155.586 25.1017 155.579 25.2088C155.413 25.6738 155.006 25.7779 154.548 25.8841C154.633 26.0254 154.708 26.1491 154.812 26.3209C154.788 26.6405 154.759 27.0189 154.729 27.4144C154.429 27.4305 154.115 27.4474 153.852 27.4623C153.753 27.7204 153.661 27.9618 153.533 28.2963C153.568 28.3791 153.647 28.5559 153.73 28.75C153.655 28.7852 153.572 28.8542 153.504 28.8476C153.299 28.828 153.054 28.9714 152.878 28.7991C152.999 28.6106 153.208 28.442 152.846 28.4052C152.848 28.522 152.852 28.639 152.878 28.7991C152.592 29.2176 152.683 29.5958 153.069 29.9095C152.893 30.1405 152.655 29.9759 152.367 30.1C152.119 30.2183 152.265 30.5387 152.149 30.8084C152.01 30.94 151.848 31.0969 151.711 31.2271C151.684 31.4032 151.662 31.5453 151.63 31.7586C151.454 31.647 151.331 31.5677 151.16 31.4595C150.788 31.4065 150.743 31.8667 150.455 31.9332C150.504 32.3592 150.826 32.053 150.954 32.2494C150.887 32.3566 150.805 32.491 150.726 32.6194C150.54 32.6319 150.376 32.6439 150.202 32.6539C150.03 32.8492 149.76 32.9804 149.672 33.2485C149.983 33.6051 150.092 32.9457 150.358 33.1148C150.363 33.1929 150.409 33.3088 150.368 33.3566C150.223 33.5268 150.049 33.6738 149.896 33.8203C149.94 34.2366 150.255 34.5825 150.009 35.0311C149.841 35.1814 149.669 35.3441 149.45 35.1493C149.571 34.9608 149.781 34.7923 149.419 34.7554C149.42 34.8723 149.425 34.9893 149.45 35.1493C149.221 35.2546 149.425 35.5078 149.263 35.6896C149.181 35.6917 149.071 35.6955 148.891 35.6989C148.867 35.8207 148.841 35.9518 148.812 36.1029C148.59 36.3891 148.407 36.791 147.92 36.6156C147.831 36.8851 147.754 37.1194 147.682 37.3385C147.433 37.3525 147.269 37.3629 147.109 37.372C147.094 37.5223 147.077 37.6787 147.061 37.8351C146.783 37.8461 146.488 37.7814 146.352 38.1904C146.407 38.3286 146.483 38.5099 146.575 38.7356C146.42 38.7574 146.278 38.7768 146.149 38.7936C145.985 39.2182 145.819 39.6443 145.698 40.0913C145.515 39.9872 145.361 39.7942 145.294 40.1551C145.413 40.144 145.532 40.1297 145.698 40.0913C145.684 40.2043 145.715 40.3351 145.762 40.5352C145.491 40.601 145.291 40.6517 145.072 40.7045C145.033 40.8551 144.982 41.0457 144.913 41.3007C144.703 41.3353 144.499 41.3702 144.251 41.4138C144.328 41.578 144.407 41.7486 144.489 41.9255C144.404 42.2731 144.061 42.4179 143.853 42.6706C143.642 42.4093 143.32 42.6765 143.066 42.5174C143.039 42.7231 143.021 42.8732 143 43.0388C142.6 43.4204 142.188 43.8154 141.775 44.2104C141.748 44.5376 141.722 44.8617 141.688 45.2633C141.461 45.3313 141.222 45.4003 140.984 45.4724C140.977 45.5795 140.972 45.6882 140.965 45.7984C140.73 45.8754 140.497 45.9509 140.228 46.0401C140.311 46.3308 140.377 46.5614 140.446 46.8031C140.279 46.8134 140.12 46.8241 139.957 46.8362C139.837 46.95 139.714 47.0684 139.59 47.1883C139.5 47.1527 139.378 47.0593 139.328 47.0895C139.149 47.2004 139.223 47.3256 139.339 47.4264C139.256 47.5063 139.174 47.5862 139.092 47.6647C138.841 47.6043 138.635 47.718 138.474 48.0058C138.79 48.0917 138.902 47.7984 139.092 47.6647C139.179 47.7002 139.301 47.7935 139.35 47.7633C139.53 47.6524 139.456 47.5272 139.339 47.4264C139.422 47.3465 139.505 47.2666 139.59 47.1883C139.7 47.2997 139.809 47.4126 139.932 47.5387C139.926 47.5789 139.937 47.6464 139.91 47.6855C139.813 47.8161 139.711 47.9495 139.593 48.0588C139.432 48.2095 139.213 48.4788 139.088 48.4539C138.527 48.3401 138.317 49.1687 137.772 48.9732C137.638 49.362 137.506 49.7462 137.37 50.1426C137.259 50.1495 137.101 50.1602 136.859 50.1745C137.053 50.4583 137.216 50.7016 137.402 50.9756C137.16 51.0725 136.904 51.1173 136.728 51.261C136.502 51.4459 136.297 51.5446 136.006 51.5969C135.784 51.6356 135.586 51.9075 135.431 52.0336C135.371 52.3965 135.638 52.455 135.742 52.6237C135.646 52.6656 135.531 52.7579 135.457 52.7371C135.277 52.6891 135.118 52.5877 134.927 52.4988C134.909 52.8248 134.892 53.0995 134.877 53.3759C134.648 53.4563 134.417 53.5381 134.109 53.6488C134.162 53.9862 134.212 54.3048 134.242 54.4963C133.936 54.7892 133.771 54.9459 133.608 55.1028C133.592 55.2702 133.577 55.4313 133.557 55.6203C133.436 55.6936 133.299 55.7771 133.117 55.8878C133.11 55.6788 133.106 55.5338 133.103 55.3686C132.903 55.3679 132.692 55.3698 132.483 55.3702C132.248 55.5795 131.864 55.6707 131.918 56.0954C132.147 56.0119 132.375 55.93 132.627 55.8383C132.54 56.3119 132.113 56.4633 131.888 56.7494C131.783 56.9574 131.945 57.2022 131.704 57.3661C131.615 57.3305 131.493 57.2371 131.443 57.2674C131.263 57.3782 131.338 57.5034 131.454 57.6042C131.39 57.7972 131.328 57.9918 131.254 58.2154C131.09 58.1371 130.913 58.0535 130.732 57.9681C130.353 58.1048 130.144 58.4509 129.859 58.7044C129.853 58.8115 129.847 58.9202 129.841 59.0273C129.789 59.1166 129.752 59.2221 129.679 59.2932C129.4 59.5719 129.113 59.8409 128.843 60.0983C128.659 60.1108 128.499 60.123 128.314 60.134C128.235 60.2624 128.153 60.3937 128.049 60.5629C128.252 60.57 128.402 60.5775 128.553 60.5835C128.557 60.6242 128.582 60.6909 128.562 60.7132C128.148 61.1564 127.726 61.5945 127.359 61.9794C127.125 62.0065 126.981 62.0242 126.812 62.0438C126.899 62.2599 126.972 62.438 127.048 62.6255C126.895 62.8622 126.743 63.1007 126.422 62.8759C126.543 62.6874 126.753 62.5188 126.391 62.4819C126.392 62.5988 126.397 62.7158 126.422 62.8759C126.154 63.1069 125.863 63.385 125.576 63.6586C125.408 63.6689 125.244 63.6793 125.012 63.691C124.939 63.8664 124.86 64.0587 124.703 64.4416C124.579 64.5615 124.3 64.8262 124.004 65.1103C123.831 65.0346 123.649 64.9554 123.464 64.8729C123.212 65.1312 123.526 65.1999 123.593 65.359C123.621 65.6873 123.268 65.7771 123.096 66.1016C123.087 66.1635 123.067 66.3229 123.047 66.4822C122.865 66.582 122.623 66.4095 122.458 66.6395C122.135 66.3119 122.04 66.729 121.808 66.7454C121.935 67.0414 122.011 67.2196 122.088 67.3978C121.716 67.5941 121.324 67.3128 120.99 67.6043C120.69 67.3339 120.539 67.5723 120.386 67.8091C120.364 68.1459 120.73 68.1829 120.808 68.4889C120.799 68.5211 120.797 68.6814 120.739 68.7112C120.315 68.9173 119.861 69.0502 119.489 69.3756C119.427 69.4301 119.279 69.3884 119.167 69.3906C119.03 69.6032 119.236 69.9405 118.759 70.0676C118.63 70.0238 118.402 69.9469 118.192 69.8772C118.127 70.0795 118.063 70.2724 117.999 70.4654C117.91 70.4298 117.788 70.3365 117.738 70.3667C117.558 70.4776 117.632 70.6027 117.749 70.7036C117.464 71.0256 117.703 71.4175 117.513 71.7536C117.402 71.7558 117.291 71.7596 117.162 71.7625C117.105 71.9418 117.046 72.1256 116.961 72.386C116.79 72.421 116.586 72.4638 116.354 72.5113C116.417 72.7138 116.488 72.9384 116.559 73.1677C116.319 73.1744 116.09 73.2111 115.88 73.1741C115.74 73.15 115.629 73.0199 115.486 72.9223C115.348 73.0369 115.228 73.1367 115.098 73.247C115.181 73.4473 115.254 73.6285 115.346 73.8542C115.191 73.876 115.048 73.8953 114.879 73.918C114.86 74.0493 114.84 74.1947 114.819 74.3416C114.638 74.4399 114.396 74.2674 114.276 74.5182C114.093 74.4141 113.939 74.2211 113.872 74.582C113.991 74.5709 114.11 74.5567 114.276 74.5182C114.264 74.5909 114.356 74.7232 114.322 74.7681C114.165 74.9813 113.974 75.1726 113.808 75.3543C113.562 75.2454 113.383 75.1663 113.226 75.0962C112.844 75.2296 112.867 75.5078 112.863 75.791C112.708 75.939 112.546 76.0928 112.382 76.2511C112.364 76.4168 112.346 76.5747 112.327 76.7419C112.176 76.7515 112.017 76.7606 111.855 76.7712C111.735 76.885 111.61 77.0049 111.488 77.1233C111.286 76.8812 111.117 77.0471 110.922 77.2195C110.902 77.3601 110.881 77.5179 110.854 77.694C110.774 77.6916 110.672 77.713 110.595 77.6811C110.46 77.626 110.338 77.5374 110.133 77.4165C110.234 77.7361 110.305 77.9608 110.376 78.187C110.192 78.1996 110.029 78.2116 109.825 78.2247C109.763 78.3586 109.695 78.5 109.637 78.645C109.603 78.7305 109.586 78.8215 109.561 78.9106C109.277 78.9165 108.999 78.9244 108.713 78.9318C108.63 79.1659 108.678 79.4252 108.426 79.6368C108.287 79.7528 108.47 80.0594 108.173 80.2842C108.198 80.2606 108.155 80.3316 108.115 80.3327C107.671 80.3525 107.228 80.3582 106.831 80.3695C106.815 80.8327 106.8 81.299 106.782 81.7886C106.343 81.9424 106.046 82.0459 105.776 82.1413C105.529 82.3905 105.786 82.844 105.294 82.9673C105.133 82.8984 104.95 82.8192 104.809 82.7607C104.625 83.0676 104.441 83.3713 104.271 83.6555C104.041 83.6766 103.879 83.6903 103.718 83.7056C103.613 83.884 103.779 84.1275 103.54 84.2821C103.451 84.2464 103.328 84.1531 103.279 84.1833C103.099 84.2942 103.173 84.4194 103.29 84.5202C103.126 84.7502 102.883 84.5807 102.692 84.6817C102.686 84.7857 102.679 84.8959 102.671 85.0263C102.456 85.1167 102.196 85.1659 102.018 85.3158C101.787 85.5082 101.583 85.6692 101.16 85.5811C101.249 85.9218 101.329 86.2263 101.418 86.5593C101.062 86.5477 100.952 86.5453 100.772 86.5409C100.624 86.9305 100.473 87.3309 100.322 87.7281C99.9288 87.8158 99.6192 87.5979 99.2548 87.5188C99.0982 87.6682 98.9358 87.8251 98.7487 88.0026C98.7361 88.1312 98.7175 88.2922 98.7007 88.4517C98.5455 88.4626 98.3853 88.4748 98.2319 88.4842C98.1472 88.5656 98.0642 88.6455 97.9561 88.7491C98.0316 88.9226 98.1111 89.101 98.2129 89.335C98.038 89.3869 97.8733 89.4331 97.6576 89.497C97.7425 89.6352 97.8198 89.7605 97.9445 89.9645C97.8623 90.0741 97.7453 90.2317 97.6037 90.4207C97.4192 90.2994 97.2934 90.2199 97.1407 90.1188C96.5993 90.2473 96.3817 90.8841 95.8556 91.085C95.7439 91.0872 95.6335 91.091 95.5218 91.0932C95.5676 91.5221 95.1539 91.8439 95.1463 92.2841C95.1441 92.4288 94.8438 92.5959 94.7053 92.7275C94.5176 92.7461 94.3678 92.7635 94.2121 92.7775C94.3156 93.1969 93.9947 93.3894 93.7345 93.655C93.6052 93.6719 93.4455 93.6919 93.2522 93.718C93.2337 93.8432 93.211 93.9884 93.1859 94.1631C92.8797 94.456 92.55 94.7711 92.2006 95.1055C92.0676 95.1144 91.9043 95.1264 91.7206 95.139C91.7917 95.3683 91.8645 95.5962 91.9269 95.7971C91.7306 96.136 91.4334 96.0588 91.1328 96.0888C91.0068 96.3721 90.9491 96.7304 90.7376 96.9254C90.4543 97.1883 90.4942 97.5204 90.3216 97.7764C90.1394 98.046 89.788 98.2198 89.8875 98.6343C89.7301 98.6498 89.5789 98.6655 89.4072 98.6818C89.1764 98.9038 88.9298 99.139 88.6703 99.3875C88.6574 99.5301 88.6433 99.6929 88.6274 99.8572C88.424 100.051 88.2166 100.251 88.0543 100.465C87.8722 100.361 87.7178 100.168 87.6503 100.529C87.7695 100.518 87.8891 100.504 88.0543 100.465C88.0443 100.539 88.0772 100.633 88.1197 100.749C87.8006 101.055 87.4714 101.367 87.1652 101.66C87.1188 102.086 86.945 102.409 86.5993 102.669C86.4521 102.678 86.2902 102.692 86.1238 102.704C86.1079 102.857 86.0897 103.015 86.0729 103.175C85.9485 103.294 85.8227 103.413 85.7001 103.531C85.5033 104.013 85.3961 104.564 85.0793 104.959C84.7373 105.389 84.7307 105.985 84.1965 106.316C84.02 106.427 84.0492 106.897 83.8742 106.996C83.4 107.266 83.6276 107.871 83.2108 108.088C82.7669 108.32 83.1316 108.874 82.6806 109.064C82.7496 109.496 82.384 109.822 82.3069 110.207C82.1674 110.23 82.0313 110.249 81.7829 110.288C82.0124 110.564 82.1735 110.755 82.3616 110.977C82.287 111.1 82.2059 111.236 82.1252 111.369C81.776 111.387 81.4535 111.405 81.09 111.424C81.1759 111.625 81.2554 111.803 81.3546 112.034C81.2224 112.177 81.072 112.337 80.8644 112.562C80.7372 112.912 80.807 113.338 80.7787 113.757C80.8489 113.841 80.9151 113.921 80.9799 113.999C80.8682 114.292 80.7565 114.585 80.6061 114.979C80.4159 115.168 80.1277 115.432 79.7567 115.798C80.0703 115.823 80.2133 115.833 80.3545 115.845C80.2946 116.111 80.0824 116.269 79.7178 116.319C79.664 116.707 80.1048 117.022 79.8448 117.45C79.681 117.605 79.5169 117.763 79.3655 117.908C79.1661 118.632 79.7595 119.234 79.2522 120.216C79.3271 120.137 79.1737 120.298 78.9162 120.567C78.9353 121.1 78.9599 121.745 78.9786 122.292C78.4167 122.655 78.7244 123.305 78.0727 123.495C78.0264 124.281 77.9786 125.09 77.9345 125.86C77.5447 126.458 77.336 127.052 77.3572 127.721C77.2047 127.735 77.0535 127.751 76.9041 127.765C76.9978 128.234 77.3123 128.706 76.7986 129.188C76.7767 129.571 76.7295 129.956 76.7361 130.338C76.7531 131.563 76.3573 132.823 76.7536 134.015C76.6573 134.589 76.8327 135.174 76.4373 135.745C76.2994 135.942 76.3857 136.279 76.3696 136.573C76.0506 136.879 75.7228 137.193 75.3719 137.525C75.1505 137.597 74.8336 137.456 74.6547 137.794C74.1055 137.806 73.5501 137.817 72.9979 137.828C72.4821 137.301 71.9632 136.773 71.4528 136.253C71.4527 136.091 71.453 135.937 71.4548 135.784C71.3288 135.787 71.2185 135.791 71.0752 135.795C70.9789 135.438 70.8808 135.072 70.7494 134.579C70.4776 134.303 70.1106 133.929 69.7439 133.553C69.7433 133.383 69.7445 133.223 69.7433 133.045C69.3875 132.682 69.0191 132.307 68.6534 131.935C68.6558 131.765 68.6584 131.606 68.6596 131.446C68.5479 131.448 68.4375 131.452 68.3116 131.455C67.9513 131.334 67.7694 131.008 67.5302 130.745C67.5372 130.635 67.5425 130.526 67.5522 130.372C67.3827 130.337 67.2039 130.302 66.9457 130.25C66.918 130.083 66.8832 129.887 66.8362 129.608C66.457 129.22 66.0153 128.771 65.5741 128.319C65.5735 128.149 65.5747 127.989 65.5741 127.83C65.4241 127.826 65.2678 127.821 65.112 127.813C65.119 127.703 65.1242 127.594 65.1345 127.402C64.9402 127.178 64.7049 126.91 64.4728 126.641C64.4894 126.366 64.5043 126.093 64.5282 125.683C64.2151 125.759 63.9033 125.837 63.5902 125.913C63.6038 125.452 63.6138 125.133 63.6239 124.825C63.0937 124.428 63.1637 123.757 62.9266 123.235C62.8149 123.237 62.7046 123.241 62.596 123.243C62.4674 122.998 62.7495 122.896 62.8234 122.697C62.7783 122.298 62.3765 122.159 62.1709 121.869C62.2065 121.336 61.8753 120.941 61.8419 120.398C61.5285 120.546 61.3375 120.636 61.1434 120.726C60.9691 120.599 61.0642 120.487 61.1909 120.373C61.2351 120.336 61.2739 120.293 61.3149 120.256C61.1456 119.79 61.161 119.233 60.6882 118.887C60.7814 118.662 60.8776 118.425 60.9756 118.187C60.8033 118.185 60.6422 118.181 60.4828 118.176C60.1206 117.895 60.354 117.479 60.3165 117.07C60.194 117.059 60.0577 117.046 59.9169 117.032C59.8167 116.634 59.8246 116.237 60.2582 115.954C59.8939 115.688 59.8407 115.664 59.4675 115.639C59.4842 115.364 59.499 115.091 59.5147 114.811C59.4214 114.48 58.9021 114.351 59.1147 113.845C58.9561 113.833 58.8096 113.826 58.6635 113.816C58.7678 113.391 58.258 113.123 58.5044 112.668C58.1595 112.677 57.8809 112.683 57.5913 112.691C57.5723 112.61 57.5359 112.531 57.5347 112.446C57.5361 111.912 57.2964 111.06 57.0424 110.732C57.1247 110.479 57.0259 110.285 56.746 110.149C56.6323 110.469 56.9219 110.555 57.0424 110.732C56.9184 110.849 56.7957 110.968 56.6572 111.099C56.7264 111.319 56.7983 111.542 56.8698 111.768C56.6933 111.786 56.5407 111.8 56.3913 111.814C56.3831 111.945 56.3779 112.054 56.3669 112.217C56.2371 112.236 56.0997 112.255 55.8339 112.294C55.8783 112.57 55.9269 112.873 55.9599 113.071C55.6806 113.339 55.5151 113.496 55.3152 113.686C55.3901 113.852 55.4669 114.027 55.5455 114.201C55.5419 114.775 55.079 114.531 54.7836 114.65C54.8627 114.832 54.9391 115.01 55.0186 115.188C54.9351 115.692 54.4977 115.467 54.2293 115.608C54.0727 115.768 53.9015 115.932 54.1393 116.136C54.0952 116.23 53.9878 116.363 54.0158 116.411C54.142 116.628 54.3044 116.82 54.5148 117.098C54.2776 117.147 54.1003 117.182 53.9244 117.218C53.5859 117.785 53.3558 118.374 53.3846 119.034C53.1467 119.262 52.9018 119.496 52.6335 119.752C52.7015 119.981 52.7708 120.212 52.8397 120.446C52.6716 120.459 52.5146 120.471 52.3433 120.485C52.4135 120.709 52.4809 120.931 52.5484 121.152C52.3683 121.173 52.2216 121.19 52.0557 121.21C52.1396 121.426 52.2107 121.608 52.2951 121.832C52.1417 121.853 51.9981 121.87 51.7522 121.901C51.7856 122.19 51.8209 122.498 51.853 122.796C51.5914 122.815 51.4331 122.826 51.2823 122.839C51.1347 123.247 51.3241 123.565 51.4535 123.897C51.2214 123.977 50.988 124.055 50.7183 124.148C50.7983 124.427 50.8631 124.656 50.9395 124.928C50.6859 124.842 50.4622 124.767 50.1036 124.645C50.3443 125.024 50.5205 125.301 50.7146 125.606C50.4732 125.629 50.3206 125.643 50.1823 125.656C50.155 125.835 50.1337 125.993 50.1132 126.134C49.9189 126.306 49.7473 126.473 49.5261 126.275C49.6472 126.087 49.8567 125.918 49.4944 125.882C49.496 125.998 49.5006 126.115 49.5261 126.275C49.2795 126.522 49.4767 126.863 49.3699 127.166C49.2746 127.443 49.1288 127.71 49.0044 127.981C48.8989 127.983 48.7886 127.987 48.6328 127.99C48.7008 128.219 48.7642 128.436 48.8253 128.646C48.6286 128.754 48.3854 128.58 48.267 128.83C48.0849 128.725 47.9305 128.532 47.863 128.893C47.9822 128.882 48.1018 128.868 48.267 128.83C48.3764 128.914 48.3761 129.126 48.2654 129.191C47.8359 129.432 47.8434 129.866 47.6703 130.218C47.4719 129.979 47.3011 130.14 47.1227 130.3C46.9616 130.738 47.1884 131.256 46.7457 131.618C46.8367 131.782 46.9055 131.911 46.9828 132.047C46.9854 132.378 46.6 132.431 46.5154 132.675C46.3175 132.688 46.1591 132.699 45.9976 132.709C46.0003 133.097 46.3758 133.42 46.1069 133.855C45.9965 133.858 45.8866 133.859 45.6267 133.866C45.6855 134.164 45.7457 134.462 45.7928 134.706C45.3977 134.82 45.1545 134.89 44.8836 134.967C44.9808 135.271 45.0536 135.499 45.1265 135.727C44.9503 135.741 44.7978 135.755 44.655 135.767C44.6313 135.943 44.61 136.101 44.5942 136.219C44.3624 136.623 43.7747 136.268 43.6282 136.843C43.6837 136.931 43.761 137.056 43.854 137.204C43.7566 137.695 43.4197 137.9 42.8516 137.878C42.9944 138.413 42.7162 138.894 42.5323 139.374C42.3971 139.725 42.2802 139.998 42.481 140.337C42.5614 140.473 42.4724 140.715 42.4608 140.905C42.2797 140.91 42.168 140.913 42.0247 140.916C42.0028 141.055 41.9805 141.197 41.9574 141.346C41.7353 141.445 41.4197 141.295 41.2536 141.631C41.2416 141.778 41.2261 141.94 41.212 142.102C41.0912 142.219 40.9671 142.336 40.8445 142.455C40.7551 142.419 40.6328 142.326 40.5832 142.356C40.4035 142.467 40.4776 142.592 40.5943 142.693C40.3259 143.031 40.5257 143.423 40.3654 143.808C40.2286 143.939 40.0663 144.095 39.9295 144.226C39.9026 144.402 39.8803 144.544 39.8584 144.683C39.7151 144.687 39.6034 144.689 39.4539 144.692C39.4324 144.828 39.4075 144.967 39.3818 145.134C39.2466 145.147 39.0972 145.162 38.9189 145.181C38.989 145.405 39.061 145.628 39.1247 145.831C38.9363 146.158 38.6528 146.119 38.3269 146.104C38.2431 146.294 38.1612 146.483 37.9549 146.954C37.9038 147.008 37.6375 147.284 37.3725 147.562C37.3563 147.833 37.3401 148.105 37.3252 148.378C37.2444 148.698 36.76 148.776 36.805 149.176C36.8423 149.505 36.5162 149.619 36.2707 149.938C36.3082 150.149 36.3677 150.465 36.4141 150.726C36.0438 150.83 35.8449 150.885 35.6921 150.96C35.5099 150.856 35.3555 150.663 35.288 151.024C35.4072 151.013 35.5268 150.999 35.6921 150.96C35.8001 151.044 35.7922 151.207 35.6914 151.326C35.5228 151.529 35.3133 151.698 35.1652 151.901C34.9831 151.797 34.8286 151.604 34.7611 151.965C34.8803 151.953 34.9999 151.939 35.1652 151.901C35.1538 151.973 35.2457 152.095 35.2119 152.148C35.0979 152.33 34.9404 152.486 34.7876 152.665C34.6311 152.685 34.4746 152.705 34.3052 152.728C34.1909 152.982 34.1994 153.28 33.906 153.513C33.7336 153.651 33.7516 154.006 33.594 154.198C33.3836 154.455 33.1869 154.657 33.1359 155.023C33.1076 155.234 32.8586 155.463 32.9016 155.737C32.6261 155.837 32.2063 155.634 32.1586 156.162C32.1453 156.308 32.0691 156.454 32.0211 156.601C31.9317 156.565 31.8094 156.472 31.7598 156.502C31.5801 156.613 31.6542 156.738 31.7709 156.839C31.7068 157.035 31.6431 157.228 31.5608 157.478C31.4871 157.547 31.3662 157.664 31.244 157.779C31.1546 157.744 31.0323 157.65 30.9827 157.681C30.803 157.791 30.8771 157.917 30.9938 158.017C30.8711 158.136 30.7453 158.254 30.6262 158.37C30.6121 158.532 30.5967 158.694 30.5826 158.856C30.3342 159.093 30.0888 159.33 29.8514 159.554C29.833 159.726 29.8162 159.886 29.7933 160.114C29.6105 160.178 29.4131 160.246 29.1202 160.346C29.0905 160.602 29.0495 160.94 29.0033 161.341C28.7674 161.392 28.564 161.435 28.2956 161.493C28.1875 161.596 28.0238 161.752 27.8456 161.922C27.7235 162.152 27.9528 162.266 28.0318 162.437C27.9691 162.879 27.4773 162.978 27.3528 163.284C27.0912 163.397 26.8516 163.231 26.7221 163.481C26.54 163.377 26.3855 163.184 26.3181 163.545C26.4373 163.534 26.5569 163.52 26.7221 163.481C26.7121 163.556 26.8018 163.682 26.768 163.734C26.6491 163.918 26.488 164.077 26.3356 164.253C26.1716 164.271 26.0106 164.29 25.8452 164.306C25.6903 164.548 25.9559 164.637 26.0278 164.86C25.9607 164.963 25.8724 165.094 25.7596 165.267C25.7499 165.374 25.7327 165.537 25.7186 165.7C25.223 166.175 24.7262 166.648 24.2377 167.117C24.2205 167.28 24.2045 167.433 24.1855 167.586C24.0627 167.589 23.9509 167.591 23.8393 167.594C23.4827 167.783 23.1575 167.995 23.2145 168.492C22.8235 168.866 22.4132 169.257 22.0024 169.65C21.9745 169.821 21.9502 169.979 21.9185 170.167C21.7895 170.181 21.6397 170.199 21.4774 170.215C21.4613 170.358 21.4436 170.513 21.4264 170.675C21.0195 171.063 20.6052 171.459 20.1816 171.866C20.1807 171.966 20.1804 172.073 20.1802 172.249C19.843 172.713 19.3234 173.076 18.9136 173.532C18.9066 173.643 18.9013 173.751 18.8905 173.936C18.3971 174.546 17.69 175.043 17.1421 175.685C17.1351 175.796 17.1299 175.904 17.1229 176.015C16.7725 176.204 16.3125 176.229 16.1372 176.68C16.2182 176.871 16.2942 177.052 16.3851 177.262C16.1957 177.282 16.0463 177.296 15.8728 177.314C15.725 177.456 15.5613 177.612 15.3972 177.77C15.2295 177.78 15.0649 177.791 14.9052 177.8C14.8901 177.958 14.8747 178.119 14.8584 178.286C14.4458 178.681 14.0333 179.076 13.6388 179.454C13.6141 179.625 13.5945 179.77 13.5731 179.917C13.4361 179.921 13.3261 179.922 13.2598 179.925C13.0674 180.247 12.8854 180.549 12.7149 180.836C12.4876 180.858 12.3253 180.875 12.1363 180.892C11.9938 181.029 11.8301 181.184 11.6465 181.359C11.633 181.494 11.6163 181.653 11.5996 181.824C11.4411 181.975 11.277 182.133 11.1098 182.291C10.95 182.3 10.7855 182.311 10.6351 182.32C10.3978 182.462 10.3814 182.666 10.3523 182.893C10.3348 183.023 10.1864 183.146 10.0822 183.291C9.8704 183.197 9.69161 183.115 9.49764 183.029C9.24832 183.168 8.99587 183.306 9.26268 183.62C9.11407 183.675 8.96546 183.73 8.60038 183.865C8.40755 184.05 8.04394 184.396 7.75008 184.679C6.76235 184.918 6.49276 185.032 5.99156 185.421C5.18091 185.358 4.35368 185.919 3.52657 185.711C3.34416 185.819 3.20469 185.899 3.06698 185.978C2.59282 185.817 2.11824 185.659 1.64542 185.5C1.32944 185.504 1.22461 185.234 1.03037 185.069C0.872908 184.933 0.737476 184.774 0.603598 184.638C0.753709 184.211 0.473762 184.018 0.234258 183.769C0.127713 183.361 0.395285 182.831 0.0339525 182.45C0.361725 182.079 0.307044 181.646 0.342145 181.199C0.488448 181.185 0.638289 181.168 0.786364 181.152C0.746017 180.729 1.20106 180.403 1.13692 179.959C1.46301 179.647 1.79263 179.332 2.11871 179.02C1.93682 178.402 2.92566 178.237 2.6384 177.632C2.86046 177.626 2.97216 177.624 3.10921 177.62C3.25703 177.478 3.41898 177.324 3.65858 177.095C3.64486 176.859 3.62411 176.536 3.61029 176.289C3.85696 176.054 4.02286 175.894 4.18304 175.742C4.20025 175.579 4.21621 175.426 4.23259 175.269C4.5148 175.271 4.80001 175.309 4.94886 174.938C4.88419 174.777 4.80997 174.595 4.7344 174.41C5.06424 174.07 5.09961 174.728 5.4744 174.485C5.4214 174.238 5.35451 173.931 5.28907 173.636C5.64579 173.609 5.80238 173.6 5.99898 173.585C5.91033 173.381 5.83435 173.2 5.73749 172.975C5.93203 172.929 6.11544 172.884 6.29709 172.84C6.79354 172.37 6.3412 171.965 6.31363 171.53C6.39035 171.449 6.46883 171.368 6.5495 171.281C6.70921 171.272 6.87069 171.262 7.0304 171.253C7.04719 171.093 7.06263 170.932 7.07756 170.763C7.24305 170.606 7.40541 170.449 7.5603 170.301C7.57725 170.013 7.59212 169.739 7.61241 169.426C7.99982 169.055 8.41021 168.664 8.82101 168.271C8.84748 168.098 8.87186 167.94 8.90134 167.756C9.03518 167.741 9.1846 167.727 9.34202 167.711C9.37436 167.402 9.30096 167.015 9.46668 166.786C9.64998 166.533 9.56897 166.191 9.74764 166.064C10.2407 165.712 10.1433 165.038 10.7002 164.701C10.8149 164.688 10.9745 164.668 11.172 164.647C11.1086 164.431 11.0452 164.214 10.9772 163.985C11.1467 163.973 11.305 163.962 11.462 163.95C11.4861 163.515 11.5106 163.077 11.5413 162.64C11.5433 162.614 11.6001 162.588 11.6305 162.56C11.7422 162.558 11.8526 162.554 12.043 162.55C12.0201 162.184 11.999 161.817 11.9735 161.413C11.9347 161.409 11.79 161.401 11.6127 161.389C11.7359 161.08 11.8577 160.77 11.9974 160.421C12.1375 160.51 12.2629 160.593 12.4129 160.691C12.7167 160.718 12.8272 160.388 13.0869 160.219C12.9629 159.498 13.5702 158.845 13.4451 158.108C13.6231 158.103 13.7331 158.102 13.8434 158.099C13.9248 157.704 14.3006 157.373 14.2166 156.948C14.1275 156.503 14.5969 156.187 14.5606 155.769C14.7105 155.752 14.8541 155.734 15.0168 155.714C14.9347 155.497 14.8654 155.313 14.7978 155.127C14.9873 155.071 15.1769 155.016 15.4432 154.937C15.4822 154.765 15.528 154.565 15.575 154.355C15.7036 154.345 15.8623 154.331 16.0193 154.318C16.0412 153.935 16.0275 153.548 16.0988 153.17C16.1548 152.871 16.3115 152.581 16.4362 152.25C16.5283 152.242 16.6809 152.228 16.8476 152.213C16.7828 151.984 16.6992 151.754 16.6592 151.515C16.6361 151.372 16.6841 151.214 16.6997 151.075C16.8812 151.056 17.0421 151.038 17.1853 151.023C17.3657 150.837 17.5431 150.674 17.3009 150.468C17.4371 150.133 17.5961 149.803 17.7065 149.461C17.8048 149.162 17.7042 148.862 17.9068 148.534C18.0911 148.238 18.0544 147.823 18.1261 147.396C18.3438 147.352 18.5469 147.313 18.7499 147.273C18.8058 147.103 18.8681 146.908 18.9318 146.715C19.0211 146.751 19.1435 146.844 19.1931 146.814C19.3728 146.703 19.2986 146.578 19.182 146.477C19.527 146.188 19.1451 146.041 19.0896 145.766C19.1533 145.677 19.2425 145.551 19.3735 145.37C19.3732 145.28 19.3708 145.123 19.3687 144.94C19.5509 144.951 19.7116 144.958 19.847 144.966C20.1135 144.712 20.3549 144.481 20.5963 144.25C20.5888 144.015 20.7075 143.762 20.5627 143.545C20.2955 143.536 20.2111 143.79 20.0368 143.907C19.7993 143.69 20.0183 143.393 19.9495 143.123C20.1149 143.106 20.2657 143.094 20.4151 143.079C20.3498 142.656 20.7693 142.337 20.767 141.889C20.7654 141.517 20.9826 141.127 21.1011 140.749C21.4442 140.741 21.7854 140.76 21.7516 140.277C21.6006 140.268 21.4541 140.26 21.3107 140.253C21.4285 139.938 21.5384 139.647 21.6845 139.261C21.7674 139.182 21.9329 139.025 22.1906 138.778C22.1672 138.555 22.1333 138.249 22.1011 137.94C22.3138 137.934 22.4237 137.933 22.5341 137.929C22.6522 137.658 22.7699 137.39 22.9108 137.067C22.8579 136.982 22.7806 136.856 22.693 136.715C22.7386 136.295 23.1842 136.156 23.4147 135.854C23.5641 135.502 23.3598 135.109 23.5853 134.751C23.7675 134.855 23.9219 135.048 23.9894 134.687C23.8702 134.699 23.7506 134.713 23.5853 134.751C23.5941 134.733 23.5188 134.675 23.5271 134.66C23.8605 134.072 24.1366 133.455 24.592 132.882C24.5207 132.771 24.4448 132.647 24.3373 132.478C24.5024 132.034 24.9809 131.79 25.3988 131.297C25.373 131.104 25.3354 130.789 25.3077 130.576C25.6732 130.193 25.9364 129.916 26.185 129.655C26.0905 129.437 26.0123 129.26 25.9405 129.095C26.0334 128.987 26.1057 128.905 26.2444 128.749C26.2363 128.343 26.2284 127.867 26.2194 127.467C26.5093 127.191 26.7132 126.994 26.8719 126.782C27.054 126.887 27.2084 127.08 27.2759 126.719C27.1567 126.73 27.0371 126.744 26.8719 126.782L26.8935 126.762ZM115.303 63.417C115.447 63.1813 115.655 63.0143 115.293 62.9774C115.294 63.0942 115.299 63.2113 115.391 63.2314C115.246 63.467 115.038 63.6341 115.4 63.671C115.399 63.5541 115.394 63.4371 115.303 63.417ZM133.862 40.3567C133.951 40.3923 134.074 40.4856 134.123 40.4554C134.303 40.3445 134.229 40.2194 134.112 40.1185C134.278 39.9587 134.445 39.8005 134.61 39.6421C134.65 39.831 134.694 40.02 134.74 40.2341C134.845 40.188 134.985 40.1265 135.107 40.0719C135.199 39.7402 135.296 39.4399 135.107 39.1658C135.603 38.8388 136.147 39.1806 136.652 38.9366C136.698 38.6649 136.431 38.6063 136.281 38.5303C136.426 38.2947 136.634 38.1276 136.272 38.0907C136.273 38.2076 136.278 38.3246 136.327 38.4376C135.969 38.7326 135.534 38.4149 135.156 38.6746C135.001 38.8256 134.906 38.9891 135.107 39.1627C134.941 39.3225 134.774 39.4807 134.61 39.639C134.502 39.4733 134.341 39.4916 134.203 39.5984C134.019 39.7402 133.885 39.9203 134.111 40.1169C134.028 40.1968 133.945 40.2767 133.951 40.3923C133.723 40.2687 133.57 40.0773 133.503 40.4383C133.622 40.4271 133.742 40.4129 133.861 40.355L133.862 40.3567ZM136.567 36.7712C136.795 36.8948 136.948 37.0862 137.016 36.7252C136.897 36.7364 136.777 36.7506 136.749 36.8426C136.521 36.719 136.368 36.5276 136.3 36.8886C136.42 36.8774 136.539 36.8632 136.567 36.7712ZM135.404 36.568C135.632 36.6915 135.785 36.8829 135.852 36.522C135.733 36.5331 135.614 36.5474 135.585 36.6394C135.357 36.5158 135.204 36.3244 135.137 36.6854C135.256 36.6742 135.376 36.66 135.404 36.568ZM133.787 36.9695C133.931 36.7339 134.139 36.5668 133.777 36.5299C133.778 36.6468 133.783 36.7638 133.874 36.7839C133.73 37.0196 133.522 37.1866 133.884 37.2235C133.883 37.1067 133.878 36.9896 133.787 36.9695ZM159.305 6.86586C159.448 6.6317 159.658 6.46314 159.295 6.42628C159.297 6.54313 159.301 6.66014 159.393 6.6803C159.248 6.91593 159.04 7.08301 159.403 7.11988C159.401 7.00303 159.397 6.88602 159.305 6.86586ZM139.533 23.1359C139.676 22.9017 139.886 22.7332 139.524 22.6963C139.525 22.8132 139.53 22.9302 139.621 22.9503C139.478 23.1845 139.269 23.353 139.631 23.3899C139.629 23.273 139.625 23.156 139.533 23.1359ZM58.3031 59.366C58.5312 59.4896 58.6843 59.681 58.7518 59.32C58.6326 59.3312 58.513 59.3454 58.4849 59.4374C58.2568 59.3139 58.1037 59.1225 58.0362 59.4834C58.1554 59.4723 58.275 59.458 58.3031 59.366ZM118.972 56.7534C119.225 56.8206 119.253 57.1926 119.596 57.0339C119.473 56.763 119.283 56.6647 119.026 56.739C118.918 56.5732 118.757 56.5916 118.619 56.6983C118.435 56.8401 118.301 57.0202 118.527 57.2168C118.338 57.2743 118.152 57.3304 117.939 57.3944C117.896 57.576 117.955 57.8234 117.708 58.0181C117.599 58.1029 117.601 58.2961 117.753 58.3956C117.574 58.5548 117.566 58.7101 118.291 59.1435C118.058 59.1225 117.851 58.8163 117.598 58.9608C117.634 59.2086 117.477 59.4763 117.696 59.7115C117.901 59.5163 118.096 59.3299 117.724 58.8613C117.903 58.7021 117.911 58.5468 117.751 58.397C117.939 58.3395 118.126 58.2835 118.338 58.2194C118.381 58.0379 118.322 57.7905 118.57 57.5958C118.678 57.511 118.676 57.3178 118.525 57.2183C118.691 57.0585 118.858 56.9003 118.97 56.758L118.972 56.7534ZM159.178 8.1331C159.406 8.25667 159.559 8.44808 159.627 8.08712C159.508 8.09826 159.388 8.11251 159.112 8.34156C158.873 8.10688 159.404 7.74742 158.992 7.55702C158.875 7.69592 158.754 7.83776 158.588 8.03339C158.81 8.16444 158.961 8.253 159.18 8.13164L159.178 8.1331ZM56.6265 58.1608C57.0747 58.4558 57.1552 58.8833 57.6117 58.8144C57.5528 58.4128 57.3597 58.1696 56.1384 59.1515C56.4632 58.9768 56.6519 58.6359 56.7046 58.1289C56.5459 58.2004 56.4022 58.2648 56.1682 58.3714C56.1597 58.6092 56.1495 58.8593 56.6269 58.1577L56.6265 58.1608ZM136.327 31.881C136.087 31.6463 136.622 31.2871 136.207 31.0965C136.089 31.2354 135.968 31.3772 135.802 31.5729C136.025 31.7039 136.176 31.7925 136.475 31.7172C136.624 31.8461 136.769 31.9701 136.907 32.0861C137.337 31.7506 137.557 31.5027 137.567 31.3423C137.473 31.2643 137.365 31.1749 137.275 31.0987C136.903 31.2046 136.738 31.5124 136.33 31.8843L136.327 31.881ZM128.331 46.5297C128.078 46.4682 127.872 46.5814 127.71 46.8691C128.027 46.9551 128.139 46.6617 128.36 46.4144C128.361 46.595 128.477 46.7706 128.423 46.9578C128.368 47.1606 128.34 47.3678 128.301 47.573C128.629 47.5645 128.846 47.5598 129.065 47.5537C129.215 47.4289 129.437 47.3326 129.309 47.0926C129.16 47.082 129.022 47.0704 128.863 47.0593C128.949 46.6697 128.908 46.3874 128.331 46.5266L128.331 46.5297ZM129.725 36.6037C129.488 36.542 129.233 36.716 128.994 36.6479C128.773 36.587 128.557 36.5139 128.248 36.419C128.456 36.8918 128.747 37.1556 129.2 37.4383C129.305 37.0901 129.758 37.0538 129.615 36.5219C129.699 36.2676 129.6 36.0727 129.321 35.9372C129.207 36.2569 129.496 36.3431 129.725 36.6037ZM136.689 33.8299C136.461 33.7063 136.308 33.5149 136.24 33.8759C136.36 33.8647 136.479 33.8505 136.486 32.9493C136.585 33.1723 136.652 33.3469 136.735 33.5115C136.8 33.6362 136.38 33.9607 136.975 33.8894C137.098 33.5421 137.712 33.4966 137.698 32.9448C137.484 32.8126 137.418 32.4885 137.032 32.5065C137.101 32.7326 137.163 32.9444 137.242 33.2006C136.989 33.1163 136.77 33.043 136.688 33.8283L136.689 33.8299ZM132.583 39.8098C132.413 40.0005 132.659 40.167 132.574 40.3636C132.493 40.5573 132.479 40.7699 132.434 40.9747C132.785 40.9659 133.002 40.9612 133.239 40.9544C133.133 40.5832 133.029 40.2167 132.93 39.8708C132.795 39.8484 132.696 39.831 132.57 39.859C132.29 39.8418 132.091 39.8287 131.88 39.8149C131.979 39.5864 132.076 39.3608 132.174 39.1337C131.997 39.1264 131.848 39.1189 131.712 39.1137C131.706 38.9514 131.703 38.8111 131.696 38.6053C131.513 38.716 131.379 38.7996 131.345 38.8197C131.264 39.1566 131.202 39.4166 131.206 39.3996C131.46 39.9356 131.598 40.2243 131.739 40.5225C132.061 40.45 132.218 40.1246 132.586 39.8099L132.583 39.8098ZM144.964 24.1574C144.661 24.2232 144.528 24.5092 144.202 24.7358C144.925 25.0414 143.77 25.2512 144.101 25.6415C144.41 25.4282 144.673 25.2452 144.898 25.0914C145.086 25.213 145.21 25.2939 145.392 25.412C145.532 25.2213 145.645 25.0667 145.763 24.9029C145.483 24.8639 145.281 24.8366 145.102 24.8121C145.047 24.5555 145.009 24.373 144.963 24.1558L144.964 24.1574ZM43.5387 65.0397C43.1682 65.0289 42.7947 65.018 42.3588 65.0039C42.4451 65.1904 42.5073 65.3227 42.5591 65.439C42.765 65.4711 42.9384 65.5001 43.1292 65.5283C42.9899 65.7814 42.8905 65.9601 42.7596 66.198C43.1483 66.0618 43.4682 65.9471 43.781 65.8382C43.6933 65.5458 43.6093 65.2722 43.54 65.0414L43.5387 65.0397ZM142.919 25.5106C142.68 25.8551 142.357 25.9479 142.329 26.2595C142.499 26.5 142.606 26.8152 142.998 26.7882C142.927 26.4576 143.201 26.2129 143.3 25.9003C143.21 25.8101 143.112 25.7102 142.921 25.5122L142.919 25.5106ZM158.277 9.29143C157.973 8.77482 157.736 8.47177 157.181 8.23526C157.231 8.56474 157.265 8.7969 157.296 8.99149C157.54 9.06603 157.819 9.1501 158.277 9.29143ZM142.283 15.4375C142.021 15.4741 141.775 15.3762 141.501 15.557C141.58 15.6809 141.655 15.7999 141.726 15.9109C141.989 15.8742 142.234 15.9722 142.508 15.7913C142.429 15.6675 142.354 15.5485 142.283 15.4375ZM114.385 53.2565C114.316 53.4041 114.012 53.4807 114.208 53.7241C114.423 53.7193 114.635 53.7128 114.868 53.709C114.937 53.5614 115.24 53.4848 115.044 53.2414C114.83 53.2462 114.617 53.2526 114.385 53.2565ZM142.891 22.1974C142.467 21.544 142.462 21.5484 142.135 21.5538C142.206 21.8734 142.403 22.0748 142.891 22.1974ZM160.075 8.03333C160.423 8.03833 160.59 7.88014 160.599 7.52092C160.365 7.65241 160.113 7.45289 159.846 7.68242C159.927 7.80481 160.003 7.92541 160.074 8.0317L160.075 8.03333ZM135.207 31.8559C134.86 31.8509 134.692 32.0092 134.683 32.3684C134.917 32.2369 135.17 32.4364 135.436 32.2069C135.355 32.0845 135.279 31.9639 135.209 31.8576L135.207 31.8559ZM142.577 25.1851C142.959 25.1622 143.087 25.0223 143.144 24.7091C143.024 24.6221 142.881 24.5184 142.855 24.4984C142.771 24.7059 142.676 24.941 142.579 25.1837L142.577 25.1851ZM136.352 32.6265C136.1 32.4597 135.846 32.5638 135.61 32.5488C135.585 32.8683 135.731 33.0189 136.085 32.9884C136.166 32.8772 136.258 32.7542 136.352 32.6265ZM126.499 47.6179C126.821 47.6217 126.987 47.4649 126.997 47.1431C126.863 47.043 126.797 46.7875 126.536 46.983C126.524 47.1957 126.511 47.4068 126.499 47.6179ZM49.7714 59.9623C49.4456 59.9584 49.2797 60.1182 49.2724 60.4401C49.5982 60.444 49.7641 60.2842 49.7714 59.9623ZM141.267 4.08883C141.593 4.09273 141.759 3.9329 141.766 3.61097C141.441 3.60707 141.275 3.7669 141.267 4.08883ZM107.692 46.5866C107.741 46.6311 107.791 46.6773 107.84 46.7218C107.964 46.6299 108.092 46.5429 108.208 46.4412C108.236 46.4178 108.238 46.3058 108.216 46.2938C108.146 46.256 108.023 46.2047 107.987 46.2371C107.872 46.3356 107.788 46.4685 107.692 46.5897L107.692 46.5866ZM141.178 17.7813C140.852 17.7774 140.686 17.9373 140.679 18.2592C141.004 18.2631 141.17 18.1033 141.178 17.7813ZM140.779 20.5764C140.81 20.2541 140.661 20.1034 140.333 20.1227C140.302 20.445 140.452 20.5958 140.779 20.5764ZM145.849 18.3631C145.88 18.0408 145.731 17.89 145.403 17.9094C145.372 18.2317 145.522 18.3824 145.849 18.3631ZM134.568 30.245C134.893 30.2489 135.059 30.0891 135.067 29.7672C134.741 29.7633 134.575 29.9231 134.568 30.245ZM123.61 48.6313C123.967 48.5652 124.191 48.4783 124.038 48.1C123.82 48.1872 123.636 48.2714 123.61 48.6313ZM136.818 36.0053C137.175 35.9391 137.399 35.8523 137.246 35.474C137.028 35.5612 136.845 35.6454 136.818 36.0053ZM134.34 38.9404C134.29 38.8943 134.241 38.8498 134.191 38.8037C134.067 38.8956 133.939 38.9826 133.823 39.0842C133.795 39.1077 133.793 39.2197 133.814 39.2317C133.885 39.2694 134.008 39.3208 134.044 39.2883C134.159 39.1898 134.243 39.057 134.339 38.9357L134.34 38.9404ZM117.31 56.2169C117.271 55.8568 117.201 55.6431 116.84 55.8087C116.836 56.0701 116.966 56.1872 117.31 56.2169ZM130.197 44.7425C130.228 44.4202 130.079 44.2695 129.751 44.2888C129.72 44.6111 129.87 44.7619 130.197 44.7425ZM113.332 63.7088C112.975 63.775 112.751 63.8618 112.904 64.2401C113.121 64.1529 113.305 64.0687 113.332 63.7088ZM113.022 64.8922C113.348 64.8961 113.513 64.7362 113.521 64.4143C113.195 64.4104 113.029 64.5702 113.022 64.8922ZM119.502 58.6967C119.177 58.6928 119.011 58.8527 119.003 59.1746C119.329 59.1785 119.495 59.0187 119.502 58.6967ZM41.0367 67.3742C40.9735 67.3773 40.9218 67.3762 40.8698 67.3783C40.8923 67.4557 40.9015 67.5387 40.9413 67.6045C40.9553 67.6286 41.0401 67.6048 41.0935 67.6044C41.0759 67.5257 41.0565 67.4484 41.0398 67.3744L41.0367 67.3742ZM47.0438 62.3524C47.0416 62.4036 47.0161 62.488 47.0394 62.5016C47.1061 62.5423 47.189 62.5558 47.2658 62.5799C47.268 62.5287 47.2935 62.4443 47.2702 62.4307C47.2035 62.39 47.1206 62.3765 47.0421 62.3538L47.0438 62.3524ZM50.5458 59.9451C50.5198 60.0216 50.492 60.0996 50.4656 60.1793C50.5176 60.1772 50.6015 60.1954 50.6173 60.1713C50.6643 60.1021 50.6849 60.019 50.7158 59.9412C50.6637 59.9432 50.6103 59.9436 50.5489 59.9452L50.5458 59.9451ZM53.9329 61.2533C53.8808 61.2553 53.797 61.2371 53.7812 61.2612C53.7329 61.3289 53.7136 61.4135 53.6827 61.4914C53.7348 61.4893 53.8186 61.5076 53.8344 61.4834C53.8814 61.4142 53.902 61.3311 53.9329 61.2533ZM57.7241 57.9107C57.6981 57.9873 57.6703 58.0653 57.6439 58.1449C57.6959 58.1429 57.7798 58.1611 57.7956 58.137C57.8426 58.0677 57.8632 57.9847 57.8941 57.9068C57.842 57.9089 57.7886 57.9093 57.7272 57.9109L57.7241 57.9107ZM39.8552 76.6866C39.853 76.7378 39.8275 76.8222 39.8508 76.8358C39.9175 76.8765 40.0004 76.89 40.0772 76.9141C40.0794 76.8629 40.1049 76.7785 40.0816 76.7649C40.0167 76.7227 39.932 76.7107 39.8552 76.6866ZM58.7137 59.9752C58.7115 60.0265 58.686 60.1108 58.7092 60.1244C58.7759 60.1652 58.8588 60.1787 58.9356 60.2028C58.9378 60.1515 58.9633 60.0671 58.94 60.0535C58.8734 60.0128 58.7904 59.9993 58.7137 59.9752ZM59.9098 59.646C59.9119 59.5838 59.9172 59.5327 59.9194 59.4814C59.8386 59.5101 59.7533 59.526 59.683 59.5708C59.6573 59.5866 59.6745 59.6684 59.6705 59.7212C59.7509 59.6956 59.8326 59.6717 59.9093 59.6491L59.9098 59.646ZM39.0147 80.1866C38.9887 80.2631 38.9609 80.3411 38.9345 80.4208C38.9866 80.4187 39.0704 80.4369 39.0862 80.4128C39.1346 80.3452 39.1538 80.2605 39.1847 80.1826C39.1326 80.1847 39.0792 80.1851 39.0178 80.1867L39.0147 80.1866ZM37.5638 91.824C37.5117 91.8261 37.4279 91.8078 37.4121 91.832C37.3651 91.9012 37.3445 91.9843 37.3136 92.0621C37.3657 92.0601 37.4495 92.0783 37.4653 92.0542C37.5136 91.9865 37.5329 91.9019 37.5638 91.824ZM65.1298 67.0064C65.1276 67.0577 65.1021 67.1421 65.1254 67.1557C65.192 67.1964 65.275 67.2099 65.3517 67.234C65.3539 67.1827 65.3794 67.0984 65.3562 67.0847C65.2912 67.0426 65.2066 67.0305 65.1298 67.0064ZM140.591 2.48076C140.53 2.48234 140.477 2.48278 140.424 2.48483C140.447 2.56226 140.456 2.64524 140.496 2.71108C140.51 2.73513 140.595 2.71136 140.648 2.71093C140.629 2.63367 140.611 2.55492 140.593 2.47928L140.591 2.48076ZM136.138 7.39842C136.14 7.33625 136.145 7.28514 136.147 7.23387C136.066 7.2625 135.981 7.27847 135.911 7.3232C135.885 7.33904 135.902 7.42087 135.898 7.47361C135.979 7.44806 136.06 7.42413 136.139 7.40005L136.138 7.39842ZM34.4481 104.963C34.3723 104.944 34.2951 104.923 34.2161 104.903C34.2139 104.954 34.1884 105.039 34.2117 105.052C34.2784 105.093 34.3613 105.106 34.4381 105.131C34.4403 105.079 34.4442 105.027 34.4477 104.966L34.4481 104.963ZM34.3712 106.29C34.3191 106.292 34.2353 106.274 34.2195 106.298C34.1711 106.366 34.1519 106.451 34.121 106.528C34.173 106.526 34.2569 106.545 34.2727 106.52C34.3197 106.451 34.3403 106.368 34.3712 106.29ZM131.517 14.0095C131.521 13.9459 131.524 13.8962 131.526 13.845C131.446 13.8736 131.36 13.8896 131.29 13.9343C131.264 13.9501 131.281 14.032 131.277 14.0847C131.359 14.0608 131.439 14.0352 131.516 14.0126L131.517 14.0095ZM128.564 17.3972C128.538 17.4738 128.51 17.5518 128.483 17.6314C128.535 17.6294 128.619 17.6476 128.635 17.6235C128.682 17.5542 128.703 17.4712 128.734 17.3933C128.682 17.3954 128.628 17.3958 128.567 17.3974L128.564 17.3972ZM129.166 18.0114C129.17 17.9508 129.174 17.8981 129.176 17.8468C129.095 17.8755 129.01 17.8914 128.94 17.9362C128.914 17.952 128.931 18.0338 128.927 18.0866C129.009 18.0626 129.089 18.0371 129.168 18.013L129.166 18.0114ZM127.347 20.9765C127.271 20.9571 127.194 20.9361 127.115 20.9165C127.113 20.9678 127.087 21.0522 127.11 21.0658C127.177 21.1065 127.26 21.12 127.337 21.1441C127.339 21.0928 127.343 21.0401 127.346 20.9795L127.347 20.9765ZM140.763 8.80928C140.761 8.87145 140.756 8.92256 140.753 8.97384C140.834 8.94519 140.919 8.92923 140.99 8.8845C141.014 8.87013 140.998 8.78683 141.002 8.7341C140.921 8.75802 140.84 8.78357 140.763 8.80618L140.763 8.80928ZM141.51 8.09477C141.507 8.15532 141.503 8.20805 141.501 8.25933C141.582 8.23068 141.667 8.21471 141.737 8.16998C141.763 8.15415 141.746 8.07233 141.75 8.01959C141.668 8.04351 141.588 8.06906 141.509 8.09314L141.51 8.09477ZM115.288 36.9875C115.314 36.911 115.341 36.8329 115.368 36.7533C115.316 36.7554 115.232 36.7371 115.216 36.7613C115.169 36.8305 115.148 36.9136 115.118 36.9914C115.17 36.9894 115.223 36.9889 115.284 36.9873L115.288 36.9875ZM116.361 35.8674C116.285 35.848 116.208 35.827 116.129 35.8075C116.127 35.8588 116.101 35.9431 116.125 35.9567C116.19 35.9989 116.274 36.011 116.351 36.0351C116.353 35.9838 116.357 35.931 116.361 35.8705L116.361 35.8674ZM136.561 17.4313C136.625 17.4282 136.676 17.4293 136.728 17.4272C136.706 17.3498 136.697 17.2668 136.657 17.201C136.643 17.1769 136.558 17.2007 136.505 17.2011C136.522 17.2798 136.542 17.3571 136.558 17.4311L136.561 17.4313ZM140.222 14.0246C140.225 13.964 140.229 13.9113 140.231 13.86C140.151 13.8886 140.065 13.9046 139.995 13.9493C139.969 13.9652 139.986 14.047 139.982 14.0997C140.063 14.0742 140.144 14.0503 140.223 14.0262L140.222 14.0246ZM110.067 44.0776C110.13 44.0746 110.182 44.0756 110.234 44.0736C110.211 43.9961 110.202 43.9131 110.162 43.8473C110.15 43.8249 110.064 43.847 110.01 43.8474C110.028 43.9262 110.047 44.0035 110.064 44.0775L110.067 44.0776ZM106.48 47.9458C106.404 47.9264 106.327 47.9054 106.246 47.8842C106.244 47.9355 106.219 48.0199 106.242 48.0335C106.309 48.0742 106.391 48.0877 106.468 48.1118C106.47 48.0605 106.474 48.0078 106.478 47.9472L106.48 47.9458ZM103.548 50.9671C103.522 51.0436 103.494 51.1217 103.467 51.2013C103.52 51.1992 103.603 51.2175 103.619 51.1933C103.666 51.1241 103.687 51.041 103.718 50.9632C103.666 50.9652 103.612 50.9657 103.551 50.9673L103.548 50.9671ZM101.614 53.5683C101.64 53.4918 101.668 53.4138 101.694 53.3341C101.642 53.3362 101.558 53.318 101.542 53.3421C101.495 53.4113 101.475 53.4944 101.444 53.5722C101.496 53.5702 101.549 53.5698 101.611 53.5682L101.614 53.5683ZM141.253 16.5489C141.256 16.4883 141.26 16.4356 141.262 16.3843C141.182 16.4129 141.096 16.4289 141.026 16.4736C141 16.4895 141.018 16.5713 141.014 16.624C141.094 16.5985 141.176 16.5746 141.252 16.5519L141.253 16.5489ZM128.749 29.2242C128.697 29.2263 128.613 29.2081 128.597 29.2322C128.55 29.3015 128.529 29.3845 128.499 29.4624C128.551 29.4603 128.634 29.4785 128.65 29.4544C128.697 29.3852 128.718 29.3021 128.749 29.2242ZM139.464 18.9799C139.412 18.9819 139.328 18.9637 139.313 18.9878C139.266 19.0571 139.245 19.1401 139.214 19.218C139.266 19.2159 139.35 19.2342 139.366 19.21C139.413 19.1408 139.433 19.0577 139.464 18.9799ZM141.697 17.0009C141.701 16.9403 141.705 16.8876 141.707 16.8363C141.626 16.865 141.541 16.8809 141.47 16.9257C141.445 16.9415 141.462 17.0233 141.458 17.0761C141.538 17.0505 141.62 17.0266 141.698 17.0025L141.697 17.0009ZM140.398 19.1217C140.401 19.0611 140.405 19.0084 140.407 18.9571C140.327 18.9858 140.241 19.0017 140.171 19.0465C140.145 19.0623 140.162 19.1441 140.158 19.1969C140.239 19.1713 140.32 19.1474 140.397 19.1248L140.398 19.1217ZM142.165 17.0571C142.163 17.1083 142.137 17.1927 142.161 17.2063C142.227 17.247 142.31 17.2606 142.387 17.2846C142.389 17.2334 142.415 17.149 142.391 17.1354C142.325 17.0947 142.242 17.0812 142.165 17.0571ZM129.928 29.1947C129.926 29.246 129.9 29.3303 129.924 29.3439C129.99 29.3847 130.073 29.3982 130.15 29.4223C130.152 29.371 130.178 29.2866 130.154 29.273C130.088 29.2323 130.005 29.2188 129.928 29.1947ZM138.046 23.125C138.048 23.0629 138.053 23.0118 138.055 22.9605C137.975 22.9891 137.889 23.0051 137.819 23.0498C137.793 23.0657 137.81 23.1475 137.806 23.2002C137.887 23.1747 137.968 23.1508 138.045 23.1281L138.046 23.125ZM138.767 22.8747C138.771 22.8111 138.774 22.7615 138.776 22.7102C138.696 22.7388 138.61 22.7548 138.54 22.7995C138.516 22.8139 138.531 22.8972 138.527 22.9499C138.608 22.9244 138.689 22.9005 138.766 22.8778L138.767 22.8747ZM142.015 19.6124C141.963 19.6144 141.879 19.5962 141.863 19.6203C141.816 19.6896 141.796 19.7726 141.765 19.8505C141.817 19.8484 141.901 19.8667 141.917 19.8426C141.964 19.7733 141.984 19.6903 142.015 19.6124ZM125.112 36.2756C125.173 36.274 125.227 36.2735 125.279 36.2715C125.256 36.194 125.247 36.1111 125.207 36.0452C125.195 36.0228 125.109 36.0449 125.055 36.0454C125.075 36.1226 125.092 36.2014 125.11 36.277L125.112 36.2756ZM145.449 17.2064C145.397 17.2084 145.314 17.1902 145.298 17.2143C145.251 17.2836 145.23 17.3666 145.199 17.4445C145.251 17.4424 145.335 17.4607 145.351 17.4365C145.398 17.3673 145.419 17.2842 145.449 17.2064ZM132.895 30.7449C132.893 30.7962 132.867 30.8806 132.891 30.8942C132.955 30.9364 133.04 30.9484 133.117 30.9725C133.119 30.9212 133.145 30.8369 133.121 30.8233C133.055 30.7826 132.972 30.769 132.895 30.7449ZM82.0326 79.8097C82.0304 79.8609 82.0049 79.9453 82.0282 79.9589C82.0948 79.9996 82.1778 80.0132 82.2545 80.0372C82.2567 79.986 82.2822 79.9016 82.259 79.888C82.194 79.8458 82.1094 79.8338 82.0326 79.8097ZM143.074 21.6087C143.149 21.628 143.227 21.6491 143.306 21.6686C143.308 21.6173 143.333 21.533 143.31 21.5193C143.243 21.4786 143.16 21.4651 143.084 21.441C143.081 21.4923 143.077 21.545 143.074 21.6056L143.074 21.6087ZM146.39 18.345C146.364 18.4216 146.336 18.4996 146.309 18.5792C146.361 18.5772 146.445 18.5954 146.461 18.5713C146.508 18.502 146.529 18.419 146.56 18.3411C146.508 18.3432 146.454 18.3436 146.393 18.3452L146.39 18.345ZM133.314 31.5974C133.317 31.5369 133.321 31.4841 133.323 31.4328C133.242 31.4615 133.157 31.4775 133.087 31.5222C133.061 31.538 133.078 31.6198 133.074 31.6726C133.155 31.647 133.236 31.6231 133.313 31.6005L133.314 31.5974ZM146.543 19.7338C146.606 19.7307 146.658 19.7318 146.71 19.7297C146.687 19.6523 146.678 19.5693 146.638 19.5035C146.624 19.4794 146.539 19.5032 146.486 19.5036C146.504 19.5824 146.523 19.6596 146.54 19.7336L146.543 19.7338ZM140.978 25.2092C140.976 25.2604 140.951 25.3448 140.974 25.3584C141.039 25.4006 141.123 25.4126 141.2 25.4367C141.202 25.3855 141.228 25.3011 141.205 25.2875C141.138 25.2468 141.055 25.2333 140.978 25.2092ZM135.451 31.2142C135.375 31.1948 135.298 31.1738 135.219 31.1543C135.216 31.2056 135.191 31.2899 135.214 31.3036C135.281 31.3443 135.364 31.3578 135.441 31.3819C135.443 31.3306 135.447 31.2779 135.45 31.2173L135.451 31.2142ZM147.169 19.8836C147.245 19.903 147.322 19.924 147.401 19.9435C147.403 19.8922 147.429 19.8079 147.406 19.7942C147.339 19.7535 147.256 19.74 147.179 19.7159C147.177 19.7672 147.173 19.8199 147.17 19.8805L147.169 19.8836ZM123.135 43.5192C123.161 43.4426 123.188 43.3646 123.215 43.2849C123.163 43.287 123.079 43.2688 123.063 43.2929C123.016 43.3622 122.995 43.4452 122.965 43.5231C123.017 43.521 123.07 43.5206 123.131 43.519L123.135 43.5192ZM142.309 25.4083C142.247 25.4099 142.194 25.4103 142.142 25.4124C142.164 25.4898 142.174 25.5728 142.213 25.6386C142.227 25.6627 142.312 25.6389 142.366 25.6385C142.346 25.5612 142.329 25.4825 142.311 25.4068L142.309 25.4083ZM143.804 23.9793C143.741 23.9823 143.689 23.9813 143.637 23.9834C143.659 24.0608 143.669 24.1438 143.708 24.2096C143.722 24.2337 143.807 24.2099 143.861 24.2095C143.841 24.1322 143.824 24.0535 143.807 23.9794L143.804 23.9793ZM70.7521 94.4788C70.7781 94.4022 70.8059 94.3242 70.8323 94.2446C70.7802 94.2466 70.6964 94.2284 70.6806 94.2525C70.6336 94.3218 70.613 94.4048 70.5821 94.4827C70.6341 94.4806 70.6875 94.4802 70.749 94.4786L70.7521 94.4788ZM113.663 53.8011C113.587 53.7817 113.51 53.7607 113.431 53.7411C113.429 53.7924 113.403 53.8768 113.427 53.8904C113.493 53.9311 113.576 53.9446 113.653 53.9687C113.655 53.9175 113.659 53.8647 113.663 53.8042L113.663 53.8011ZM119.638 48.1828C119.642 48.1191 119.645 48.0695 119.647 48.0182C119.567 48.0469 119.481 48.0628 119.411 48.1076C119.385 48.1234 119.402 48.2052 119.398 48.258C119.479 48.2324 119.56 48.2085 119.637 48.1859L119.638 48.1828ZM70.9615 94.9392C70.8983 94.9423 70.8466 94.9413 70.7946 94.9433C70.8171 95.0207 70.8263 95.1037 70.8661 95.1696C70.8801 95.1936 70.9649 95.1698 71.0183 95.1694C70.9989 95.0921 70.9813 95.0134 70.9646 94.9394L70.9615 94.9392ZM135.325 33.4064C135.4 33.4258 135.478 33.4468 135.558 33.4679C135.56 33.4167 135.586 33.3323 135.562 33.3187C135.497 33.2765 135.413 33.2645 135.336 33.2404C135.334 33.2916 135.33 33.3444 135.326 33.4049L135.325 33.4064ZM104.962 63.0006C105.023 62.999 105.077 62.9986 105.129 62.9965C105.106 62.9191 105.097 62.8361 105.057 62.7703C105.045 62.7479 104.958 62.77 104.905 62.7704C104.924 62.8477 104.942 62.9264 104.96 63.0021L104.962 63.0006ZM134.131 34.8957C134.105 34.9722 134.077 35.0502 134.05 35.1299C134.102 35.1278 134.186 35.146 134.202 35.1219C134.249 35.0527 134.27 34.9696 134.301 34.8918C134.249 34.8938 134.195 34.8943 134.134 34.8958L134.131 34.8957ZM135.286 34.1035C135.289 34.0399 135.293 33.9902 135.295 33.939C135.214 33.9676 135.129 33.9836 135.059 34.0283C135.033 34.0441 135.05 34.126 135.046 34.1787C135.127 34.1532 135.208 34.1292 135.285 34.1066L135.286 34.1035ZM154.537 15.8238C154.511 15.9003 154.484 15.9783 154.457 16.058C154.509 16.0559 154.593 16.0741 154.609 16.05C154.656 15.9807 154.676 15.8977 154.707 15.8198C154.655 15.8219 154.602 15.8223 154.54 15.8239L154.537 15.8238ZM113.38 55.8297C113.443 55.8266 113.495 55.8276 113.547 55.8256C113.525 55.7482 113.515 55.6652 113.476 55.5993C113.462 55.5753 113.377 55.5991 113.323 55.5995C113.341 55.6782 113.36 55.7555 113.377 55.8295L113.38 55.8297ZM144.117 26.7571C144.055 26.7587 144.002 26.7592 143.95 26.7612C143.972 26.8386 143.981 26.9216 144.021 26.9874C144.035 27.0115 144.12 26.9877 144.173 26.9873C144.154 26.91 144.136 26.8313 144.118 26.7557L144.117 26.7571ZM114.001 56.1131C113.925 56.0937 113.848 56.0727 113.769 56.0531C113.767 56.1044 113.741 56.1888 113.765 56.2024C113.831 56.2431 113.914 56.2566 113.991 56.2807C113.993 56.2294 113.997 56.1767 114.001 56.1162L114.001 56.1131ZM115.999 54.1394C115.947 54.1415 115.863 54.1233 115.848 54.1474C115.801 54.2167 115.78 54.2997 115.749 54.3776C115.801 54.3755 115.885 54.3937 115.901 54.3696C115.948 54.3003 115.968 54.2173 115.998 54.1378L115.999 54.1394ZM121.727 48.7267C121.651 48.7074 121.574 48.6864 121.493 48.6652C121.491 48.7165 121.466 48.8008 121.489 48.8144C121.555 48.8552 121.638 48.8687 121.715 48.8928C121.717 48.8415 121.721 48.7887 121.725 48.7282L121.727 48.7267ZM134.679 36.4366C134.683 36.373 134.687 36.3234 134.689 36.2721C134.608 36.3007 134.523 36.3167 134.452 36.3614C134.427 36.3773 134.444 36.4591 134.44 36.5118L134.679 36.4397L134.679 36.4366ZM122.095 49.3462C122.121 49.2697 122.149 49.1917 122.177 49.1137C122.124 49.1157 122.041 49.0975 122.025 49.1216C121.978 49.1909 121.957 49.2739 121.926 49.3518C121.978 49.3497 122.032 49.3493 122.093 49.3477L122.095 49.3462ZM124.658 46.8949C124.662 46.8344 124.666 46.7816 124.668 46.7304C124.587 46.759 124.502 46.775 124.431 46.8197C124.406 46.8356 124.423 46.9174 124.419 46.9701C124.499 46.9446 124.581 46.9206 124.658 46.898L124.658 46.8949ZM106.854 64.5763C106.791 64.5793 106.739 64.5783 106.687 64.5804C106.709 64.6578 106.719 64.7408 106.758 64.8066C106.772 64.8307 106.857 64.8069 106.911 64.8065C106.891 64.7292 106.874 64.6505 106.855 64.5748L106.854 64.5763ZM125.044 47.1868C124.983 47.1884 124.929 47.1888 124.877 47.1909C124.9 47.2683 124.909 47.3513 124.949 47.4171C124.963 47.4412 125.048 47.4174 125.101 47.417C125.083 47.3382 125.064 47.261 125.046 47.1853L125.044 47.1868ZM133.097 39.3965C133.094 39.4571 133.09 39.5098 133.087 39.5611C133.168 39.5324 133.254 39.5165 133.324 39.4717C133.35 39.4559 133.332 39.3741 133.336 39.3213C133.256 39.3469 133.174 39.3708 133.098 39.3934L133.097 39.3965ZM135.576 37.2461C135.5 37.2268 135.423 37.2058 135.344 37.1862C135.342 37.2375 135.316 37.3219 135.339 37.3355C135.404 37.3777 135.489 37.3897 135.566 37.4138C135.568 37.3625 135.572 37.3098 135.575 37.2492L135.576 37.2461ZM58.0418 111.967C58.0396 112.019 58.0141 112.103 58.0374 112.117C58.104 112.157 58.187 112.171 58.2637 112.195C58.2659 112.144 58.2914 112.059 58.2682 112.046C58.2015 112.005 58.1186 111.992 58.0418 111.967ZM129.808 43.3574C129.806 43.4087 129.78 43.4931 129.803 43.5067C129.87 43.5474 129.953 43.5609 130.03 43.585C130.032 43.5338 130.058 43.4494 130.034 43.4358C129.968 43.3951 129.885 43.3816 129.808 43.3574ZM136.273 37.3948C136.221 37.3969 136.137 37.3786 136.121 37.4028C136.074 37.472 136.054 37.5551 136.023 37.6329C136.075 37.6309 136.159 37.6491 136.174 37.625C136.221 37.5557 136.242 37.4727 136.273 37.3948ZM124.118 49.2998C124.092 49.3764 124.064 49.4544 124.037 49.534C124.089 49.532 124.173 49.5502 124.189 49.5261C124.236 49.4568 124.257 49.3738 124.288 49.2959C124.235 49.298 124.182 49.2984 124.121 49.3L124.118 49.2998ZM137.738 36.4983C137.663 36.479 137.585 36.458 137.506 36.4384C137.504 36.4897 137.479 36.5741 137.502 36.5877C137.567 36.6299 137.652 36.6419 137.728 36.666C137.731 36.6147 137.735 36.562 137.738 36.5014L137.738 36.4983ZM126.253 47.8547C126.201 47.8568 126.117 47.8386 126.102 47.8627C126.053 47.9303 126.034 48.015 126.003 48.0928C126.055 48.0908 126.139 48.109 126.155 48.0849C126.202 48.0156 126.222 47.9326 126.253 47.8547ZM157.634 18.1372C157.63 18.1978 157.626 18.2505 157.624 18.3018C157.705 18.2731 157.79 18.2572 157.86 18.2124C157.886 18.1966 157.869 18.1148 157.873 18.062C157.791 18.0859 157.711 18.1115 157.632 18.1356L157.634 18.1372ZM59.1634 112.936C59.0875 112.917 59.0103 112.896 58.9314 112.876C58.9292 112.927 58.9037 113.012 58.9269 113.025C58.9936 113.066 59.0765 113.08 59.1533 113.104C59.1555 113.052 59.1595 113 59.163 112.939L59.1634 112.936ZM130.753 44.4948C130.814 44.4932 130.868 44.4928 130.92 44.4907C130.897 44.4133 130.888 44.3303 130.848 44.2645C130.834 44.2404 130.749 44.2642 130.696 44.2646C130.715 44.3419 130.733 44.4206 130.751 44.4963L130.753 44.4948ZM133.928 41.3316C134.004 41.3509 134.081 41.3719 134.16 41.3915C134.163 41.3402 134.188 41.2558 134.165 41.2422C134.098 41.2015 134.015 41.188 133.938 41.1639C133.936 41.2152 133.932 41.2679 133.929 41.3285L133.928 41.3316ZM130.092 45.4394C130.029 45.4425 129.977 45.4415 129.925 45.4435C129.948 45.5209 129.957 45.6039 129.997 45.6698C130.011 45.6938 130.096 45.6701 130.149 45.6696C130.131 45.5909 130.112 45.5136 130.095 45.4396L130.092 45.4394ZM107.624 67.578C107.65 67.5014 107.678 67.4234 107.705 67.3438C107.653 67.3458 107.569 67.3276 107.553 67.3517C107.506 67.421 107.485 67.504 107.454 67.5819C107.506 67.5798 107.56 67.5794 107.621 67.5778L107.624 67.578ZM127.905 47.8146C127.903 47.8659 127.877 47.9502 127.9 47.9639C127.965 48.0061 128.05 48.0181 128.127 48.0422C128.129 47.9909 128.154 47.9066 128.131 47.8929C128.066 47.8508 127.982 47.8387 127.905 47.8146ZM117.146 58.8229C117.07 58.8035 116.993 58.7825 116.914 58.763C116.912 58.8142 116.886 58.8986 116.909 58.9122C116.974 58.9544 117.059 58.9664 117.136 58.9905C117.138 58.9393 117.142 58.8865 117.145 58.826L117.146 58.8229ZM119.876 56.3675C119.874 56.4188 119.848 56.5031 119.872 56.5168C119.938 56.5575 120.021 56.571 120.098 56.5951C120.1 56.5438 120.126 56.4594 120.102 56.4458C120.037 56.4036 119.953 56.3916 119.876 56.3675ZM112.014 64.9163C111.951 64.9194 111.899 64.9183 111.847 64.9204C111.87 64.9978 111.879 65.0808 111.919 65.1466C111.933 65.1707 112.018 65.1469 112.071 65.1465C112.052 65.0692 112.034 64.9905 112.017 64.9165L112.014 64.9163ZM114.267 63.7667C114.191 63.7473 114.114 63.7263 114.035 63.7068C114.033 63.758 114.007 63.8424 114.031 63.856C114.097 63.8967 114.18 63.9102 114.257 63.9343C114.259 63.8831 114.263 63.8303 114.267 63.7698L114.267 63.7667ZM12.8105 161.291C12.814 161.231 12.8179 161.178 12.8201 161.127C12.7394 161.156 12.6541 161.172 12.5837 161.216C12.5598 161.231 12.5753 161.314 12.5713 161.367C12.6516 161.341 12.7333 161.317 12.8101 161.295L12.8105 161.291ZM152.013 29.7459C152.089 29.7653 152.166 29.7863 152.245 29.8058C152.247 29.7546 152.272 29.6702 152.249 29.6566C152.183 29.6159 152.1 29.6024 152.023 29.5783C152.021 29.6296 152.017 29.6823 152.013 29.7428L152.013 29.7459ZM79.4373 100.135C79.3614 100.116 79.2842 100.095 79.2053 100.075C79.2031 100.127 79.1776 100.211 79.2008 100.225C79.2675 100.265 79.3504 100.279 79.4272 100.303C79.4294 100.252 79.4334 100.199 79.4368 100.138L79.4373 100.135ZM79.8269 101.517C79.751 101.498 79.6738 101.477 79.5949 101.457C79.5927 101.509 79.5672 101.593 79.5904 101.607C79.6554 101.649 79.74 101.661 79.8168 101.685C79.819 101.634 79.823 101.581 79.8264 101.52L79.8269 101.517ZM77.2035 104.996C77.2295 104.92 77.2573 104.842 77.2837 104.762C77.2317 104.764 77.1478 104.746 77.132 104.77C77.0837 104.838 77.0644 104.922 77.0335 105C77.0856 104.998 77.139 104.998 77.2004 104.996L77.2035 104.996ZM133.951 53.0025C133.949 53.0538 133.923 53.1381 133.947 53.1517C134.013 53.1924 134.096 53.206 134.173 53.23C134.175 53.1788 134.201 53.0944 134.177 53.0808C134.113 53.0386 134.028 53.0266 133.951 53.0025Z"
        fill="#5541D9" />
</svg>