<svg width="154" height="57" viewBox="0 0 154 57" fill="none" xmlns="http://www.w3.org/2000/svg">
<path fill-rule="evenodd" clip-rule="evenodd" d="M150.583 38.2358C148.449 36.9035 145.466 35.9366 142.065 35.4721C140.461 32.6094 139.552 31.0267 138.776 29.9213C138.001 28.8158 137.359 28.1865 136.29 27.2331C138.237 26.6516 139.862 26.1628 141.001 25.4822C142.141 24.8016 142.792 23.9284 142.792 22.5789C142.792 21.974 142.557 21.45 142.166 21.0782C141.775 20.7055 141.23 20.4841 140.61 20.4841C140.076 20.4841 139.605 20.6002 139.021 20.8802C138.439 21.1593 137.744 21.6013 136.761 22.253C137.636 20.4373 138.193 19.3084 138.775 18.2092C139.359 17.1091 139.968 16.0387 140.952 14.34C143.968 11.9661 146.011 10.3717 147.3 9.10871C148.589 7.84568 149.123 6.91483 149.123 5.86785C149.123 5.37903 148.952 5.00633 148.706 4.75696C148.471 4.51726 148.161 4.38243 147.839 4.37886C146.534 4.37886 144.513 6.25316 142.236 9.23744C139.958 12.2226 137.422 16.3187 135.091 20.7641C133.531 23.0218 131.873 25.0348 130.402 26.4842C128.931 27.9335 127.648 28.8176 126.836 28.8176C126.558 28.8176 126.333 28.7122 126.178 28.5259C126.023 28.3395 125.937 28.0722 125.937 27.7463C125.937 26.35 126.749 24.8376 127.627 23.6736C128.503 22.5105 129.445 21.6958 129.701 21.6958C130.064 21.6958 130.152 22.0451 130.258 22.3935C130.366 22.7428 130.494 23.0921 130.943 23.0921C131.199 23.0921 131.423 22.9525 131.584 22.7428C131.744 22.5339 131.841 22.2548 131.841 21.9749C131.841 21.5797 131.68 21.207 131.385 20.9333C131.092 20.6596 130.664 20.485 130.128 20.485C128.868 20.485 128.162 21.0899 127.285 21.73C126.409 22.3701 125.36 23.0452 123.413 23.1848C123.328 22.4862 123.135 21.8119 122.767 21.3105C122.397 20.81 121.853 20.4841 121.06 20.4841C119.115 20.4841 117.221 22.614 115.424 24.7431C113.627 26.8731 111.928 29.0021 110.366 29.0021C110.109 29.0021 109.895 28.8743 109.746 28.6708C109.596 28.4674 109.511 28.1874 109.511 27.8849C109.511 26.6057 110.376 25.1041 111.286 23.923C112.194 22.7419 113.146 21.8803 113.318 21.8803C113.596 21.8803 113.735 22.2179 113.9 22.5555C114.065 22.8931 114.259 23.2307 114.642 23.2307C114.856 23.2307 115.049 23.1146 115.189 22.939C115.327 22.7653 115.412 22.5321 115.412 22.2999C115.412 21.7642 115.189 21.369 114.846 21.107C114.503 20.8451 114.043 20.7172 113.572 20.7172C112.611 20.7172 112.129 20.7172 111.253 21.4968C110.375 22.2764 109.103 23.8357 106.557 26.9541L106.064 27.4663L105.574 27.9776C105.273 28.2801 105.059 28.4665 104.877 28.5772C104.695 28.6879 104.546 28.723 104.376 28.723C104.14 28.723 103.937 28.6528 103.792 28.5304C103.648 28.408 103.563 28.2342 103.563 28.0245C103.563 27.9074 103.583 27.7562 103.648 27.5527C103.713 27.3493 103.82 27.0936 103.991 26.7677L104.225 26.3023L104.462 25.836C104.868 25.0456 105.167 24.3578 105.366 23.7591C105.563 23.1596 105.659 22.6482 105.659 22.2053C105.66 21.9899 105.619 21.7767 105.539 21.58C105.459 21.3833 105.341 21.2076 105.193 21.0647C104.898 20.7773 104.515 20.6196 104.119 20.6218C103.605 20.6218 103.124 20.7731 102.628 21.0701C102.131 21.3672 101.616 21.8092 101.039 22.3908C100.933 21.7624 100.761 21.2628 100.472 20.9189C100.184 20.5759 99.7771 20.3896 99.2001 20.3896C97.7447 20.3896 96.2919 22.4493 95.002 24.509C93.7121 26.5688 92.5901 28.6285 91.7991 28.6285C91.6913 28.6285 91.5851 28.57 91.5052 28.4827C91.4254 28.3954 91.3719 28.2783 91.3719 28.1631C91.3719 28.0479 91.4139 27.8831 91.5052 27.6518C91.595 27.4186 91.7349 27.1161 91.9283 26.72L92.7836 25.0213L93.6388 23.3225C93.6594 23.2757 93.9055 22.7167 94.1467 22.1639C94.3879 21.6112 94.6225 21.0647 94.6225 21.0404C94.6225 20.9936 94.6019 20.8892 94.4505 20.7965C94.3007 20.7028 94.0224 20.6218 93.5096 20.6218C93.275 20.6218 93.0816 20.6686 92.889 20.8199C92.6963 20.9711 92.5045 21.2277 92.2683 21.6463C91.9481 21.2043 91.6699 20.8901 91.3595 20.6857C91.0492 20.4823 90.7068 20.3896 90.2581 20.3896C89.3156 20.3896 88.8563 20.8082 87.8628 21.5122C86.8676 22.2161 85.339 23.2055 82.2579 24.3461C86.4511 15.3851 89.9585 10.044 92.4189 6.8149C94.8769 3.58576 96.2902 2.46856 96.2902 1.95633C96.2907 1.91127 96.2796 1.86697 96.2581 1.8285C96.2478 1.81072 96.2336 1.79606 96.2168 1.78584C96.2 1.77562 96.1811 1.77017 96.1618 1.76999C95.477 1.76999 94.0126 2.91058 92.5301 4.28974C91.0492 5.6689 89.5527 7.28663 88.8036 8.23998C87.6265 9.72987 86.7828 10.9515 85.739 12.7033C84.6969 14.4543 83.4564 16.7355 81.4883 20.3427C81.4883 18.3406 81.4784 17.1541 81.2907 16.0774C81.1038 15.0007 80.7408 14.0348 80.0354 12.4756C82.2818 7.79706 84.2705 4.98112 85.6979 3.23016C87.1252 1.4792 87.992 0.792328 87.992 0.372818C87.9961 0.272895 87.9651 0.175036 87.9056 0.0991454C87.8785 0.0668374 87.8453 0.041277 87.8084 0.0241922C87.7715 0.00710741 87.7316 -0.00110348 87.6916 0.000118963C87.4355 0.000118963 86.1629 1.22174 84.5002 2.44336C82.8366 3.66498 80.7828 4.8875 78.9645 4.8875C78.2812 4.8875 77.7569 4.70115 77.3074 4.38156C76.8588 4.06198 76.4843 3.60827 76.0991 3.07263C76.0991 2.5838 76.0563 1.99054 75.9336 1.51881C75.811 1.04709 75.6076 0.697803 75.2866 0.697803C75.1582 0.697803 75.0405 0.813932 74.9549 0.988577C74.8693 1.16322 74.8158 1.39638 74.8158 1.62864C74.8158 1.95453 74.9121 2.31553 75.0084 2.68192C75.1047 3.04832 75.201 3.42011 75.201 3.7694C75.201 4.28164 75.1368 4.8866 75.0191 5.57348C74.8814 6.34519 74.7138 7.11017 74.517 7.86638C74.4099 8.28499 74.3564 8.49475 74.1803 8.62258C74.0041 8.75131 73.7045 8.79722 73.1052 8.88995C72.7628 8.93676 72.4204 9.00608 72.1051 9.088C71.8209 9.15987 71.5406 9.24913 71.2655 9.35537C70.1954 9.82079 69.2973 10.775 68.6668 11.985C68.014 13.2574 67.6716 14.6922 67.6724 16.1512C67.6724 16.5465 67.6938 16.9777 67.7745 17.5538C67.8552 18.13 67.9943 18.8511 68.2289 19.8287C66.967 21.5509 66.1109 22.6564 65.1009 23.7564C64.09 24.8565 62.9245 25.9503 61.0419 27.6491C60.3784 27.1602 60.0475 26.9037 59.8706 26.7704C59.6944 26.6363 59.673 26.6246 59.6302 26.6246C59.5889 26.6256 59.5483 26.6365 59.5114 26.6566C59.4744 26.6767 59.4419 26.7054 59.4162 26.7407C59.3615 26.8126 59.3312 26.9029 59.3306 26.9964C59.3306 27.1593 59.3841 27.2989 59.5125 27.4672C59.6409 27.6365 59.8434 27.8336 60.143 28.1127C59.4581 28.5322 59.0202 28.7762 58.6885 28.9157C58.4312 29.0333 58.1549 29.0927 57.876 29.0903C57.6192 29.0903 57.4159 29.0435 57.2768 28.9571C57.1377 28.8707 57.0628 28.7419 57.0628 28.579C57.0628 28.4395 57.1163 28.2531 57.234 27.9857C57.3517 27.7175 57.5328 27.3682 57.7904 26.9028L58.2185 26.0881L58.6465 25.2733C59.0746 24.482 59.3734 23.9005 59.566 23.4233C59.7586 22.9462 59.8442 22.5735 59.8442 22.2017C59.8442 21.7597 59.6837 21.4104 59.4162 21.1719C59.1486 20.9333 58.7741 20.8046 58.3469 20.8046C57.7913 20.8046 57.2776 20.9684 56.7319 21.2934C56.1861 21.6184 55.6091 22.1081 54.9242 22.7599C54.9242 22.1774 54.8707 21.631 54.6674 21.2295C54.4641 20.828 54.1109 20.5723 53.5125 20.5723C53.0631 20.5723 52.486 20.8289 51.839 21.3636C51.192 21.8984 50.4759 22.7131 49.7482 23.8303L49.1926 24.6918L48.6361 25.5533C47.9735 26.4373 47.3635 27.1827 46.8713 27.7058C46.379 28.2297 46.0045 28.5322 45.8119 28.5322C45.7649 28.5332 45.7182 28.5232 45.6749 28.5031C45.6316 28.4829 45.5928 28.4529 45.5608 28.4152C45.5027 28.3452 45.4704 28.2541 45.4703 28.1595C45.4703 28.0893 45.5024 27.9389 45.588 27.7175C45.6736 27.4969 45.8119 27.2061 46.0267 26.8569L46.3897 26.251L46.7536 25.646C47.1816 24.9015 47.524 24.2849 47.7586 23.7258C47.9932 23.1668 48.1225 22.6672 48.1225 22.1549C48.1225 21.6427 47.962 21.2358 47.6944 20.9558C47.4269 20.6758 47.0524 20.5255 46.6252 20.5255C46.1765 20.5255 45.7271 20.6299 45.2612 20.8163C44.7961 21.0026 44.3154 21.27 43.8017 21.5959C44.2261 20.6394 44.6718 19.6945 45.1385 18.7619C45.5987 17.8482 46.1543 16.8012 47.0532 15.1259C49.363 13.2867 51.3846 11.5763 52.8285 10.0224C54.2723 8.46864 55.1382 7.07327 55.1382 5.86245C55.1382 5.48976 55.032 5.16477 54.8337 4.93161C54.6361 4.69845 54.3472 4.55892 53.9833 4.55892C51.2241 4.55892 48.4221 9.06279 45.802 13.5667C43.1819 18.0697 40.7429 22.5735 38.7113 22.5735C38.1335 22.5735 38.0693 22.0379 37.8232 21.5032C37.5779 20.9684 37.1498 20.4328 35.8451 20.4328C35.2459 20.4328 34.7544 20.5021 33.8234 20.7821C32.8925 21.062 31.5244 21.55 29.171 22.3881C32.2298 15.1034 35.2031 10.4951 37.4116 7.5684C39.6201 4.64173 41.0639 3.39671 41.0639 2.83766C41.0666 2.73035 41.0345 2.62546 40.9734 2.54148C40.9424 2.50202 40.9039 2.47057 40.8604 2.44939C40.817 2.42822 40.7698 2.41785 40.7223 2.41905C40.4655 2.41905 39.802 3.17525 38.6578 3.93235C37.5137 4.68945 35.8879 5.44565 33.7057 5.44565C32.3154 5.44565 31.289 5.271 30.4543 4.99733C29.6204 4.72456 28.9792 4.35186 28.3585 3.95575C28.0803 3.25807 27.8342 2.69902 27.5724 2.31462C27.3106 1.93112 27.0324 1.72137 26.6908 1.72137C26.5275 1.72947 26.373 1.80432 26.2578 1.93112C26.195 1.99302 26.1441 2.06811 26.1084 2.15194C26.0726 2.23576 26.0526 2.3266 26.0496 2.41905C26.0496 2.72153 26.1994 3.03572 26.4504 3.3733C26.7015 3.71089 27.0546 4.07188 27.4613 4.46709C27.5041 4.8857 27.5362 5.2584 27.5576 5.56088C27.579 5.86336 27.5897 6.09652 27.5897 6.23605C27.5897 9.12221 26.1146 11.3098 24.6387 12.8456C23.1628 14.3823 21.6868 15.2663 21.6868 15.5454C21.6868 15.639 21.7404 15.72 21.821 15.7786C21.9017 15.8371 22.0079 15.8722 22.1149 15.8722C22.9273 15.8722 24.018 15.1277 24.9704 14.2779C25.9228 13.428 26.7353 12.4738 26.9921 12.0552C27.6547 10.9848 28.0721 9.97293 28.3289 8.89625C28.5857 7.81957 28.6812 6.67897 28.7034 5.35202C29.7513 5.79404 30.6066 6.10822 31.3877 6.31167C32.1689 6.51513 32.8744 6.60875 33.6234 6.60875C33.9864 6.60875 34.3075 6.58534 34.7997 6.51512C35.5358 6.40251 36.2705 6.27826 37.0033 6.14243C34.6079 9.0988 33.025 11.1468 31.5005 13.5847C29.976 16.0225 28.5116 18.8502 26.3508 23.3657C22.5866 25.0645 19.3565 26.7641 16.4689 28.6897C13.5812 30.6162 11.036 32.7687 8.64066 35.3758C5.94565 38.3088 3.78569 41.4389 2.29907 44.3547C0.812454 47.2688 0 49.9686 0 52.04C0 53.2968 0.406639 54.3906 1.12278 55.172C1.83975 55.9507 2.86623 56.417 4.10672 56.417C6.03126 56.417 8.34186 55.5438 10.6195 54.0719C13.0222 52.5027 15.1601 50.4932 16.9397 48.1312C18.4156 46.1759 20.3196 42.8603 22.3569 38.6409C24.3942 34.4224 26.5649 29.3019 28.5758 23.7393C29.3241 23.39 29.7949 23.1695 30.2757 22.9831C30.7572 22.7968 31.2486 22.6455 32.0405 22.4358C31.1844 23.7393 30.6074 24.6936 30.2435 25.5083C29.8797 26.323 29.7299 26.9982 29.7299 27.7427C29.7299 28.7203 29.9867 29.4414 30.409 29.9186C30.8313 30.3957 31.4198 30.6279 32.0825 30.6279C33.323 30.6279 34.3815 30.0464 35.3553 28.9409C36.3283 27.8354 37.2165 26.206 38.1146 24.112C38.7344 23.8789 39.1196 23.7393 39.4884 23.5593C39.8572 23.3792 40.2103 23.1578 40.7668 22.7626L39.3122 25.6487L37.8577 28.5349C37.6223 28.9769 37.4947 29.256 37.4248 29.454C37.3717 29.5901 37.3446 29.7365 37.3449 29.8843C37.3449 30.0239 37.3984 30.14 37.5054 30.2219C37.6124 30.3039 37.7729 30.3507 37.987 30.3507L38.2438 30.3732L38.5006 30.3966C39.4209 30.3966 40.3939 28.4413 41.4525 26.486C42.5119 24.5306 43.656 22.5762 44.9171 22.5762C45.1525 22.5762 45.2702 22.6221 45.3287 22.768C45.3871 22.9129 45.3871 23.1578 45.3871 23.5539L44.5747 25.0438L43.7622 26.5328C43.484 27.0684 43.3128 27.487 43.2115 27.8246C43.1274 28.0826 43.082 28.3538 43.0774 28.6276C43.0774 29.0696 43.2379 29.5116 43.521 29.8438C43.8042 30.176 44.2108 30.3966 44.7031 30.3966C45.2595 30.3966 45.9115 30.0356 46.5799 29.454C47.2483 28.8725 47.9332 28.0686 48.553 27.1845L49.2584 26.1601L49.9639 25.1365C50.8619 23.8798 51.3221 23.2514 51.611 22.9372C51.8999 22.623 52.0177 22.623 52.2308 22.623C52.3379 22.623 52.4235 22.6699 52.4819 22.7455C52.5439 22.8293 52.5764 22.9348 52.5733 23.0426C52.5733 23.1587 52.5626 23.2514 52.4177 23.5548C52.2737 23.8573 51.9954 24.3695 51.4612 25.3228L50.7977 26.5337L50.1343 27.7436C50.0915 27.8372 49.856 28.2909 49.6321 28.7383C49.4074 29.1867 49.1934 29.6287 49.1934 29.6989C49.1934 29.8375 49.2255 29.9663 49.2897 30.059C49.3539 30.1517 49.4502 30.2102 49.5786 30.2102L49.9211 30.2327L50.2635 30.2561C51.4826 30.2561 52.4984 28.3593 53.5306 26.4625C54.5628 24.5657 55.6107 22.669 56.894 22.669C57.041 22.6638 57.185 22.7154 57.3007 22.8148C57.3456 22.8527 57.3824 22.901 57.4083 22.9563C57.4342 23.0115 57.4486 23.0723 57.4505 23.1344C57.4505 23.2505 57.4291 23.3666 57.3056 23.6286C57.1829 23.8906 56.9582 24.2975 56.5516 24.9961L56.0379 25.9269L55.5243 26.8587C55.2461 27.37 55.0543 27.731 54.9308 28.0281C54.8081 28.3251 54.7546 28.5574 54.7546 28.814C54.7546 29.3019 54.958 29.7439 55.2732 30.0644C55.5885 30.3849 56.0165 30.5829 56.466 30.5829C57.0002 30.5829 57.6744 30.3966 58.4119 30.077C59.1503 29.7574 59.952 29.3028 60.7439 28.7672C61.4957 29.3551 62.3177 29.8274 63.187 30.1706C64.123 30.5361 65.1708 30.7693 66.3043 30.7693C69.085 30.7693 70.7856 29.3964 71.9462 28.0236C73.1069 26.6498 73.7267 25.2769 74.3474 25.2769C74.754 25.2769 75.0528 25.3706 75.6043 25.5038C76.155 25.6379 76.9576 25.8117 78.3685 25.9746C77.7273 27.6734 77.3955 28.5466 77.2243 29.0003C77.0531 29.4549 77.0424 29.4891 77.0424 29.5125C77.0424 29.6989 77.1173 29.8375 77.2408 29.9375C77.3634 30.0356 77.5346 30.095 77.7273 30.1175L78.1339 30.14L78.5389 30.1634C79.0097 30.1634 79.2443 30.1634 79.5933 29.6215C79.9407 29.0804 80.4 27.9983 81.3203 25.8333C82.1962 25.5542 82.7436 25.3796 83.2564 25.1878C83.7692 24.9961 84.2499 24.7863 84.999 24.437C84.6146 25.2283 84.3141 25.8918 84.1116 26.4797C83.9091 27.0675 83.8013 27.5797 83.8013 28.0686C83.8013 28.8374 83.9939 29.4765 84.3306 29.9249C84.6681 30.3723 85.1488 30.6279 85.7259 30.6279C86.1539 30.6279 86.4634 30.5703 86.9301 30.3201C87.3944 30.0698 88.015 29.6269 89.0637 28.859C89.2341 29.3712 89.4268 29.7898 89.6943 30.0806C89.9626 30.3714 90.3051 30.5343 90.7743 30.5343C91.972 30.5343 93.4479 28.5448 94.7789 26.5553C96.11 24.5658 97.2986 22.5753 97.9184 22.5753C98.0246 22.5753 98.1325 22.6212 98.2123 22.7032C98.2913 22.7851 98.3456 22.9012 98.3456 23.0408C98.3456 23.1803 98.3341 23.3207 98.2123 23.6457C98.0888 23.9716 97.8534 24.4838 97.404 25.3679L96.7207 26.7416L96.0359 28.1145C95.8433 28.5097 95.705 28.8014 95.6128 29.0165C95.523 29.2317 95.4794 29.3721 95.4794 29.4648C95.4794 29.6278 95.5436 29.7439 95.6399 29.8249C95.7363 29.9059 95.8647 29.9537 95.9922 29.9762L96.3553 30.023L96.7199 30.0698C97.0401 30.0698 97.2327 30.023 97.4097 29.8366C97.5851 29.6503 97.7456 29.3253 98.0032 28.7663L98.3662 27.9983L98.7292 27.2295C99.4577 25.6937 100.185 24.518 100.841 23.7267C101.499 22.9354 102.088 22.5276 102.536 22.5276C102.729 22.5276 102.899 22.5978 103.024 22.7077C103.148 22.8175 103.221 22.9696 103.221 23.1326C103.221 23.2487 103.189 23.3765 103.076 23.6385C102.964 23.8996 102.773 24.2957 102.451 24.9474L102.066 25.7622L101.68 26.5769C101.423 27.1125 101.264 27.496 101.167 27.8219C101.071 28.1478 101.039 28.4152 101.039 28.7185C101.039 29.2533 101.221 29.6962 101.558 30.0041C101.894 30.3129 102.387 30.4875 103.007 30.4875C103.435 30.4875 103.81 30.3822 104.242 30.1031C104.676 29.8231 105.168 29.3703 105.831 28.6717L106.217 28.2756L106.601 27.8804L107.072 27.4384L107.541 26.9964C107.499 27.2989 107.467 27.5662 107.446 27.7877C107.428 27.9577 107.417 28.1287 107.414 28.2999C107.414 28.8356 107.637 29.3703 108.019 29.7727C108.431 30.2054 108.981 30.4451 109.552 30.4407C110.407 30.4407 111.359 30.0338 112.343 29.3532C113.328 28.6726 114.344 27.7184 115.327 26.6246C115.263 26.9505 115.221 27.2412 115.194 27.4861C115.167 27.731 115.157 27.929 115.157 28.0677C115.157 28.8131 115.359 29.4297 115.727 29.86C116.097 30.2903 116.633 30.5343 117.295 30.5343C118.386 30.5343 119.444 29.9177 120.444 28.841C121.444 27.7652 122.384 26.2294 123.241 24.3902C123.626 24.3434 123.872 24.3092 124.133 24.2507C124.395 24.1931 124.673 24.1111 125.122 23.9716C124.759 24.6 124.449 25.24 124.23 25.8918C124.011 26.5436 123.882 27.207 123.882 27.8813C123.882 28.6033 124.085 29.2083 124.444 29.6332C124.803 30.0581 125.316 30.3021 125.935 30.3021C126.919 30.3021 127.786 29.9762 128.823 29.1849C129.86 28.3936 131.069 27.1368 132.736 25.2751L132.181 26.5787L131.625 27.8813C131.389 28.4629 131.23 28.8473 131.127 29.1209C131.026 29.3946 130.984 29.5567 130.984 29.698C130.984 29.8609 131.036 29.9771 131.134 30.0581C131.23 30.1391 131.368 30.1859 131.539 30.2093L131.967 30.2318L132.395 30.2552C133.037 30.2552 133.325 29.6152 133.571 28.9751C133.817 28.3341 134.021 27.695 134.49 27.695C134.961 27.695 135.784 28.4161 136.704 29.6908C137.623 30.9646 138.64 32.7912 139.497 35.0022C137.805 34.8167 136.085 34.6421 134.256 34.5143C132.298 34.3748 130.336 34.3048 128.374 34.3045C127.07 34.3045 125.391 34.3747 123.509 34.5197C121.626 34.6655 119.541 34.8861 117.423 35.1885C116.91 35.2588 116.546 35.3173 116.092 35.3983C115.637 35.4793 115.092 35.5846 114.214 35.7476C112.911 35.9798 112.173 36.1194 111.761 36.2652C111.35 36.4101 111.263 36.5614 111.263 36.818C111.263 36.9809 111.318 37.097 111.415 37.1727C111.51 37.2483 111.649 37.2834 111.82 37.2834C112.056 37.2834 113.992 36.9107 116.974 36.5389C119.958 36.1662 123.99 35.7944 128.418 35.7944C131.776 35.7944 133.905 35.8637 135.659 36.0384C137.412 36.2121 138.793 36.4921 140.653 36.9107C142.513 39.8202 144.107 42.0195 145.711 43.4923C147.315 44.9642 148.931 45.7096 150.835 45.7096C151.776 45.7096 152.567 45.4656 153.123 45.0281C153.679 44.5924 154 43.9631 154 43.1952C154.001 41.2669 152.716 39.5673 150.583 38.2358ZM145.412 7.29203C146.364 6.16853 147.155 5.49425 147.497 5.49425C147.625 5.49425 147.764 5.57528 147.872 5.70311C147.979 5.83095 148.054 6.00559 148.054 6.19194C148.054 6.58714 147.401 7.5531 146.364 8.63518C145.326 9.71727 143.904 10.9164 142.364 11.777C143.348 9.98643 144.46 8.41552 145.412 7.29203ZM51.5929 7.25512C52.5609 6.13252 53.3841 5.58518 53.7265 5.58518C53.8335 5.58518 53.9405 5.6554 54.0204 5.75983C54.104 5.86736 54.1511 6.00312 54.1537 6.14423C54.1537 6.70327 53.2985 7.90149 52.1757 9.14111C51.0529 10.3798 49.6626 11.6609 48.5925 12.382C49.5128 10.0774 50.6249 8.37861 51.5929 7.25512ZM22.2721 31.8055C20.4697 35.3996 18.6229 38.967 16.7323 42.5066C14.6151 46.4388 12.2831 49.6157 10.059 51.8105C7.83397 54.0044 5.71681 55.2134 4.02688 55.2134C3.17079 55.2134 2.45465 54.9109 1.9517 54.3348C1.44875 53.7586 1.16065 52.9088 1.16065 51.815C1.16065 50.9075 1.7385 48.8361 3.10741 46.1075C4.47632 43.378 6.63628 39.9913 9.80213 36.4534C10.9321 35.2111 12.1207 34.0344 13.3631 32.928C14.6134 31.8062 15.909 30.7462 17.2459 29.7511C18.465 28.8671 20.2406 27.7382 21.8013 26.8298C23.3628 25.9224 24.7103 25.2355 25.0741 25.2355C25.1383 25.2355 25.1811 25.2589 25.2083 25.2994C25.2346 25.34 25.2453 25.3985 25.2453 25.4687C25.2445 25.7487 23.9719 28.4134 22.2721 31.8055ZM35.3759 27.469C34.6005 28.5754 33.6703 29.4243 32.7287 29.4243C32.4076 29.4243 32.1623 29.2956 31.996 29.075C31.8298 28.8536 31.745 28.5394 31.745 28.1667C31.745 27.6085 31.9689 26.8406 32.3484 25.9971C32.7764 25.0671 33.2908 24.1877 33.8835 23.3729C34.4178 22.6275 34.8137 22.2089 35.1932 21.9758C35.5727 21.7435 35.9365 21.6967 36.4073 21.6967C36.4073 22.208 36.418 22.5348 36.5094 22.8544C36.6008 23.1749 36.7712 23.4891 37.0922 23.9779C36.6849 25.2299 36.1062 26.407 35.3759 27.469ZM75.5986 6.68707C75.7961 5.77333 76.0423 4.8893 76.2349 4.8893C76.4703 4.8893 76.695 5.14497 77.0745 5.40153C77.4548 5.6581 77.9898 5.91377 78.8451 5.91377C79.3579 5.91377 79.8386 5.85525 80.3951 5.72742C80.9516 5.59958 81.5829 5.40154 82.3954 5.12246C80.7491 7.5423 79.7539 8.89265 79.1604 9.63804C78.5669 10.3825 78.3743 10.5221 78.3306 10.5221C78.245 10.5221 77.4754 10.1143 76.7271 9.67765C75.9789 9.24194 75.2512 8.77562 75.2512 8.65949C75.2504 8.54336 75.4002 7.60081 75.5986 6.68707ZM70.025 11.7032C70.8811 10.6031 72.0351 9.96303 73.2337 9.96303C73.3835 9.96303 73.4798 9.97473 73.5382 10.0035C73.5975 10.0323 73.6189 10.0792 73.6189 10.1485C73.6189 10.1953 72.7628 12.2784 71.7791 14.3499C70.7955 16.4213 69.6834 18.4811 69.1697 18.4811C68.9557 18.4811 68.8166 18.1669 68.731 17.7249C68.6454 17.2828 68.6133 16.7121 68.6133 16.2008C68.6133 14.3616 69.1697 12.8024 70.025 11.7032ZM69.918 26.4463C68.95 27.7148 67.4419 28.9715 65.282 28.9715C65.0251 28.9715 64.1905 28.8896 63.4208 28.7275C62.6512 28.5646 61.9457 28.3206 61.9457 27.9956C61.9457 27.9479 62.2132 27.7625 62.7903 27.2566C63.3673 26.7506 64.2555 25.9242 65.496 24.5973L67.1637 22.8292L68.8322 21.0602C68.875 21.0602 69.4957 21.7237 70.1048 22.4043C70.7148 23.0849 71.3132 23.7834 71.3132 23.8528C71.3132 23.8978 70.886 25.1779 69.918 26.4463ZM71.9158 22.5366C71.659 22.5366 71.1025 22.118 70.6111 21.577C70.1188 21.035 69.6916 20.3724 69.6916 19.8836C69.6916 19.7675 70.109 19.104 70.6753 18.1957C71.2416 17.2882 71.9586 16.1359 72.5578 15.0422C73.6057 13.1337 74.0659 11.912 74.3655 11.1666C74.6651 10.4221 74.8042 10.1539 75.2101 10.1539C75.8513 10.1539 76.4719 10.4798 76.9321 10.8408C77.3922 11.2018 77.6902 11.597 77.6902 11.7374C77.6902 11.8535 76.3649 14.5533 74.9804 17.2243C73.595 19.8953 72.1512 22.5366 71.9158 22.5366ZM80.4437 20.2167C80.2782 21.1305 79.9794 22.2593 79.4435 23.7024C79.2526 24.2138 79.1233 24.5054 78.9422 24.6684C78.7611 24.8313 78.5241 24.8664 78.1191 24.8664C77.2202 24.8664 76.3641 24.7611 75.7336 24.5928C75.1022 24.4235 74.6964 24.1912 74.6964 23.9356C74.6964 23.8654 75.8406 21.3402 77.0062 18.833C78.1726 16.325 79.3587 13.8349 79.4435 13.8349C79.8296 13.8349 80.1284 14.556 80.3325 15.441C80.535 16.325 80.6412 17.3729 80.6412 18.0246C80.6421 18.6053 80.6099 19.303 80.4437 20.2167ZM89.4004 26.7182C88.3583 28.0155 87.2026 29.0048 86.754 29.0048C86.6494 29.0021 86.5465 28.9747 86.4525 28.9245C86.3584 28.8744 86.2754 28.8026 86.2091 28.714C86.0665 28.537 85.9867 28.3099 85.9843 28.074C85.9843 27.0045 86.8511 25.4093 87.8619 24.0823C88.872 22.7563 90.0277 21.6976 90.6047 21.6976C90.8187 21.6976 91.0113 21.802 91.1496 21.965C91.2879 22.1279 91.3744 22.3494 91.3744 22.5825C91.3752 23.815 90.4442 25.421 89.4004 26.7182ZM120.319 27.6275C119.592 28.5871 118.801 29.2389 118.031 29.2389C117.753 29.2389 117.507 29.0876 117.33 28.8554C117.146 28.6084 117.046 28.2996 117.047 27.9812C117.047 26.4229 117.891 24.8745 118.843 23.7168C119.795 22.5591 120.854 21.7912 121.282 21.7912C121.346 21.7912 121.432 21.8029 121.517 21.8137C121.601 21.8245 121.689 21.8371 121.753 21.8371C121.753 22.4187 121.763 22.7689 121.827 23.0885C121.891 23.409 122.009 23.6997 122.222 24.1651C121.709 25.3994 121.047 26.6678 120.319 27.6275ZM135.004 26.3572C135.602 25.1239 136.319 24.0769 137.052 23.3378C137.784 22.5987 138.533 22.1684 139.196 22.1684C139.474 22.1684 139.752 22.2729 139.961 22.4304C140.17 22.587 140.308 22.7968 140.308 23.0065C140.308 23.7051 139.688 24.392 138.715 24.979C137.742 25.5659 136.416 26.0547 135.004 26.3572ZM152.446 43.9919C152.134 44.2618 151.747 44.4076 151.349 44.4051C150.322 44.4051 148.954 43.7075 147.526 42.4561C146.098 41.2048 144.611 39.4007 143.349 37.1898C145.554 37.5147 147.949 38.2484 149.793 39.2495C151.638 40.2497 152.931 41.519 152.931 42.9144C152.932 43.3582 152.741 43.73 152.446 43.9919Z" fill="black"/>
</svg>
