<svg width="56" height="53" viewBox="0 0 56 53" fill="none" xmlns="http://www.w3.org/2000/svg">
<g clip-path="url(#clip0_62_1163)">
<path d="M29.8557 16.81C33.4044 16.81 36.3015 13.9269 36.3015 10.3696C36.3015 6.81223 33.416 3.92914 29.8557 3.92914C26.2953 3.92914 23.4098 6.81223 23.4098 10.3696C23.4098 13.9269 26.2953 16.81 29.8557 16.81Z" fill="#BFBBF2"/>
<path d="M55.9069 34.9108C55.6393 34.0738 54.8946 33.539 54.022 33.539H49.4145C49.4145 33.539 49.3679 33.5158 49.3563 33.4925L47.9252 29.1098C47.6576 28.2727 46.9129 27.738 46.0403 27.738C45.1676 27.738 44.423 28.2727 44.1554 29.1098L43.8063 30.1677L43.3526 25.9012C43.3526 25.8198 43.3409 25.7384 43.3293 25.657V25.5873H43.3176C42.7475 21.3905 39.5362 18.2401 35.6268 18.2401H24.0964C20.408 18.2401 17.3364 21.0418 16.5219 24.8898C16.4404 25.2734 16.3939 25.6803 16.359 26.0755L15.8238 29.877L15.5678 29.1098C15.3002 28.2727 14.5555 27.738 13.6829 27.738C12.8103 27.738 12.0656 28.2727 11.798 29.1098L10.3669 33.4925C10.3669 33.4925 10.332 33.539 10.3087 33.539H5.7012C4.82856 33.539 4.08391 34.0738 3.8163 34.9108C3.54869 35.7478 3.82794 36.6081 4.53768 37.1313L8.27257 39.84C8.27257 39.84 8.30747 39.8865 8.29584 39.9097L6.86471 44.2925C6.5971 45.1295 6.87635 45.9898 7.58609 46.5129C8.29584 47.0244 9.21501 47.0244 9.91312 46.5129L13.648 43.8042C13.648 43.8042 13.6945 43.7926 13.7178 43.8042L17.4527 46.5129C17.8018 46.7687 18.209 46.8966 18.6162 46.8966C19.0234 46.8966 19.4307 46.7687 19.7797 46.5129C20.3382 46.106 20.6175 45.4783 20.5826 44.8156V42.6533L23.7124 44.9202C23.7939 44.9784 23.8171 45.0714 23.7939 45.1644L22.1533 50.2098C21.8624 51.1049 22.1649 52.0466 22.9329 52.593C23.3168 52.872 23.7473 53.0115 24.1895 53.0115C24.6316 53.0115 25.0621 52.872 25.4461 52.593L29.7394 49.4774C29.8209 49.4193 29.914 49.4193 29.9954 49.4774L34.2888 52.593C35.0567 53.151 36.034 53.151 36.802 52.593C37.5699 52.035 37.8724 51.1049 37.5815 50.2098L35.941 45.1644C35.9177 45.0714 35.941 44.9784 36.0224 44.9202L38.4193 43.1764L39.1755 45.1528C39.2453 45.6759 39.5013 46.1758 39.9551 46.5129C40.6648 47.0244 41.584 47.0244 42.2821 46.5129L46.017 43.8042C46.017 43.8042 46.0635 43.7926 46.0868 43.8042L49.8217 46.5129C50.1708 46.7687 50.578 46.8966 50.9852 46.8966C51.3924 46.8966 51.7997 46.7687 52.1487 46.5129C52.8585 46.0014 53.1377 45.1295 52.8701 44.2925L51.439 39.9097C51.439 39.9097 51.439 39.8516 51.4623 39.84L55.1971 37.1313C55.9069 36.6197 56.1861 35.7478 55.9185 34.9108H55.9069Z" fill="#BFBBF2"/>
<path d="M19.9425 28.4703C19.4073 28.4703 18.9768 28.0402 18.9768 27.5054V22.088C18.9768 21.5533 19.4073 21.1231 19.9425 21.1231C20.4777 21.1231 20.9082 21.5533 20.9082 22.088V27.5054C20.9082 28.0402 20.4777 28.4703 19.9425 28.4703Z" fill="#5541D9"/>
<path d="M32.3573 28.4703C31.8221 28.4703 31.3916 28.0402 31.3916 27.5054V22.088C31.3916 21.5533 31.8221 21.1231 32.3573 21.1231C32.8925 21.1231 33.323 21.5533 33.323 22.088V27.5054C33.323 28.0402 32.8925 28.4703 32.3573 28.4703Z" fill="#5541D9"/>
<path d="M38.745 23.6689C38.233 23.6689 37.8025 23.262 37.7909 22.7389C37.6745 19.0885 35.1032 16.2403 31.9268 16.2403H20.3963C17.2199 16.2403 14.6486 19.1001 14.5322 22.7389C14.5206 23.2737 14.0552 23.6805 13.5432 23.6689C13.008 23.6573 12.6008 23.2039 12.6124 22.6808C12.7637 17.9957 16.1728 14.3221 20.3963 14.3221H31.9268C36.1387 14.3221 39.5594 17.9957 39.7107 22.6808C39.7223 23.2155 39.3151 23.6573 38.7799 23.6689H38.745Z" fill="#5541D9"/>
<path d="M26.156 12.8691C22.6072 12.8691 19.7101 9.986 19.7101 6.42864C19.7101 2.87128 22.5956 -0.000183105 26.156 -0.000183105C29.7163 -0.000183105 32.6018 2.88291 32.6018 6.44026C32.6018 9.99762 29.7163 12.8807 26.156 12.8807V12.8691ZM26.156 1.918C23.666 1.918 21.6415 3.94081 21.6415 6.42864C21.6415 8.91646 23.666 10.9393 26.156 10.9393C28.6459 10.9393 30.6704 8.91646 30.6704 6.42864C30.6704 3.94081 28.6459 1.918 26.156 1.918Z" fill="#5541D9"/>
<path d="M20.478 49.0587C20.0358 49.0587 19.6053 48.9192 19.2214 48.6402C18.4534 48.0822 18.1509 47.1521 18.4418 46.257L20.0824 41.2116C20.1056 41.1186 20.0824 41.0256 20.0009 40.9674L15.7076 37.8518C14.9396 37.2938 14.6371 36.3638 14.928 35.4686C15.2189 34.5735 16.0217 33.9922 16.9641 33.9922H22.2698C22.3629 33.9922 22.4443 33.9341 22.4792 33.8411L24.1198 28.7957C24.4106 27.9005 25.2135 27.3193 26.1559 27.3193C27.0984 27.3193 27.9012 27.9005 28.1921 28.7957L29.8326 33.8411C29.8559 33.9341 29.949 33.9922 30.0421 33.9922H35.3477C36.2901 33.9922 37.093 34.5735 37.3838 35.4686C37.6747 36.3638 37.3722 37.3055 36.6043 37.8518L32.3109 40.9674C32.2295 41.0256 32.2062 41.1186 32.2295 41.2116L33.87 46.257C34.1609 47.1521 33.8584 48.0938 33.0905 48.6402C32.3226 49.1982 31.3452 49.1982 30.5773 48.6402L26.2839 45.5246C26.2141 45.4665 26.1094 45.4665 26.0279 45.5246L21.7346 48.6402C21.3506 48.9192 20.9201 49.0587 20.478 49.0587ZM16.9758 35.9104C16.9758 35.9104 16.8129 35.9104 16.7664 36.0615C16.7198 36.2127 16.8129 36.2824 16.8478 36.3057L21.1412 39.4213C21.8975 39.9677 22.2 40.9209 21.9207 41.8045L20.2802 46.8499C20.2802 46.8499 20.2336 47.001 20.3616 47.094C20.4896 47.187 20.5827 47.1173 20.6176 47.094L24.911 43.9784C25.6672 43.432 26.6679 43.432 27.4242 43.9784L31.7175 47.094C31.7175 47.094 31.8455 47.187 31.9735 47.094C32.1015 47.001 32.0666 46.8847 32.0549 46.8499L30.4144 41.8045C30.1235 40.9209 30.4377 39.9677 31.1939 39.4213L35.4873 36.3057C35.4873 36.3057 35.6153 36.2127 35.5688 36.0615C35.5222 35.9104 35.4059 35.9104 35.3593 35.9104H30.0537C29.1229 35.9104 28.3084 35.3175 28.0175 34.434L26.377 29.3886C26.377 29.3886 26.3304 29.2375 26.1676 29.2375C26.0047 29.2375 25.9698 29.3537 25.9581 29.3886L24.3176 34.434C24.0267 35.3175 23.2122 35.9104 22.2814 35.9104H16.9758Z" fill="#5541D9"/>
<path d="M47.2619 42.9438C46.8547 42.9438 46.4475 42.8159 46.0984 42.5602L42.3635 39.8514C42.3635 39.8514 42.317 39.8398 42.2937 39.8514L38.5588 42.5602C37.8491 43.0717 36.9299 43.0717 36.2318 42.5602C35.5221 42.0486 35.2428 41.1767 35.5104 40.3397C35.6733 39.8398 36.2202 39.5608 36.7205 39.7236C37.2208 39.8863 37.5 40.4327 37.3371 40.9326C37.3371 40.9559 37.3255 40.9791 37.3604 41.0024C37.3953 41.0256 37.407 41.014 37.4302 41.0024L41.1651 38.2936C41.8632 37.7821 42.794 37.7821 43.4921 38.2936L47.227 41.0024C47.227 41.0024 47.2619 41.0256 47.2968 41.0024C47.3317 40.9791 47.3317 40.9559 47.3201 40.9326L45.889 36.5498C45.6214 35.7361 45.9123 34.8409 46.6104 34.3294L50.3452 31.6207C50.3452 31.6207 50.3802 31.5974 50.3685 31.5509C50.3569 31.5044 50.3336 31.5044 50.3103 31.5044H45.7028C44.8418 31.5044 44.0855 30.958 43.8179 30.1326L42.3868 25.7499C42.3868 25.7499 42.3752 25.7034 42.3286 25.7034C42.2821 25.7034 42.2821 25.715 42.2705 25.7499L40.851 30.1326C40.5834 30.9464 39.8271 31.5044 38.9661 31.5044H34.3585C34.3585 31.5044 34.312 31.5044 34.3004 31.5509C34.2887 31.5974 34.3004 31.6091 34.3236 31.6207C34.7541 31.9346 34.8472 32.5275 34.5331 32.9576C34.2189 33.3877 33.6255 33.4807 33.195 33.1669C32.4853 32.6553 32.206 31.7834 32.4736 30.9464C32.7413 30.1094 33.4859 29.5746 34.3585 29.5746H38.9661C38.9661 29.5746 39.0126 29.5514 39.0242 29.5281L40.4554 25.1454C40.723 24.3083 41.4676 23.7736 42.3403 23.7736C43.2129 23.7736 43.9575 24.3083 44.2252 25.1454L45.6563 29.5281C45.6563 29.5281 45.6912 29.5746 45.7145 29.5746H50.322C51.1946 29.5746 51.9393 30.1094 52.2069 30.9464C52.4745 31.7834 52.1952 32.6437 51.4855 33.1669L47.7506 35.8756C47.7506 35.8756 47.7157 35.9221 47.7273 35.9453L49.1585 40.3281C49.4261 41.1651 49.1468 42.0254 48.4371 42.5485C48.088 42.8043 47.6808 42.9322 47.2736 42.9322L47.2619 42.9438Z" fill="#5541D9"/>
<path d="M14.9047 42.9438C14.4974 42.9438 14.0902 42.8159 13.7412 42.5602L10.0063 39.8514C10.0063 39.8514 9.95973 39.8398 9.93646 39.8514L6.20157 42.5602C5.49183 43.0717 4.57265 43.0717 3.87454 42.5602C3.1648 42.0486 2.88556 41.1767 3.15316 40.3397L4.58429 35.957C4.58429 35.957 4.58429 35.8988 4.56102 35.8872L0.826133 33.1785C0.116389 32.667 -0.162855 31.7951 0.104753 30.958C0.372362 30.121 1.11701 29.5863 1.98965 29.5863H6.59717C6.59717 29.5863 6.64371 29.563 6.65535 29.5398L8.08647 25.157C8.35408 24.32 9.09873 23.7852 9.97136 23.7852C10.844 23.7852 11.5887 24.32 11.8563 25.157L13.2874 29.5398C13.2874 29.5398 13.3223 29.5863 13.3456 29.5863H17.9531C18.8257 29.5863 19.5704 30.121 19.838 30.958C20.1056 31.7951 19.8263 32.6554 19.1166 33.1785C18.6861 33.4924 18.0811 33.3877 17.7786 32.9692C17.4644 32.5391 17.5575 31.9346 17.988 31.6323C18.0113 31.6207 18.0229 31.6091 18.0113 31.5626C17.9996 31.5161 17.9764 31.5161 17.9531 31.5161H13.3456C12.4846 31.5161 11.7283 30.9697 11.4607 30.1443L10.0295 25.7615C10.0295 25.7615 10.0179 25.715 9.97136 25.715C9.92482 25.715 9.92483 25.7266 9.91319 25.7615L8.4937 30.1443C8.22609 30.958 7.46981 31.5161 6.60881 31.5161H1.98965C1.98965 31.5161 1.94311 31.5161 1.93147 31.5626C1.91984 31.6091 1.93147 31.6207 1.95474 31.6323L5.68963 34.341C6.38774 34.8525 6.67862 35.7361 6.41101 36.5615L4.97988 40.9442C4.97988 40.9442 4.96825 40.9907 5.00315 41.014C5.03806 41.0372 5.0497 41.0256 5.07297 41.014L8.80785 38.3053C9.50596 37.7938 10.4368 37.7938 11.1349 38.3053L14.8698 41.014C14.8698 41.014 14.9047 41.0372 14.9396 41.014C14.9745 40.9907 14.9745 40.9675 14.9628 40.9442C14.8 40.4443 15.0792 39.8979 15.5795 39.7352C16.0798 39.5724 16.6267 39.8514 16.7896 40.3513C17.0572 41.1884 16.7779 42.0486 16.0682 42.5718C15.7191 42.8275 15.3119 42.9554 14.9047 42.9554V42.9438Z" fill="#5541D9"/>
<path d="M42.41 49.5703H9.88979C9.35457 49.5703 8.92407 49.1402 8.92407 48.6054C8.92407 48.0707 9.35457 47.6405 9.88979 47.6405H42.3984C42.9336 47.6405 43.3641 48.0707 43.3641 48.6054C43.3641 49.1402 42.9336 49.5703 42.3984 49.5703H42.41Z" fill="#5541D9"/>
</g>
<defs>
<clipPath id="clip0_62_1163">
<rect width="56" height="53" fill="white"/>
</clipPath>
</defs>
</svg>
