<svg width="65" height="60" viewBox="0 0 65 60" fill="none" xmlns="http://www.w3.org/2000/svg">
<g clip-path="url(#clip0_59_1102)">
<path d="M63.3259 29.7092V4.67504C63.3259 4.09335 62.8507 3.61938 62.2674 3.61938H29.0114C28.4281 3.61938 27.9529 4.09335 27.9529 4.67504V18.4955H24.9502C24.2374 18.4955 23.5569 18.2801 22.9844 17.8707L22.52 17.5476C21.6559 16.9767 21.6559 16.5027 21.6559 16.5027C23.4165 15.3501 24.5938 13.368 24.5938 11.1275C24.5938 7.59425 21.7099 4.71813 18.1672 4.71813C16.8387 4.71813 15.6074 5.12746 14.5813 5.81687C12.8748 6.96948 11.7515 8.91921 11.7515 11.1275C11.7515 11.6122 11.8055 12.0969 11.9135 12.5494C12.2699 14.1329 13.242 15.4794 14.5381 16.3842C14.1601 17.2783 13.3608 17.8815 13.3608 17.8815C12.7776 18.2908 12.0971 18.5063 11.395 18.5063H9.91532C7.77673 18.5063 6.04858 20.2406 6.04858 22.3627V36.8618C6.04858 38.8007 7.63632 40.3842 9.58049 40.3842C10.0881 40.3842 10.5634 40.2765 11.0062 40.0826V57.544C11.0062 58.9013 12.1079 60 13.4688 60H22.9088C24.2698 60 25.3714 58.9013 25.3714 57.544V26.3267H27.9853V29.7092C27.0024 30.2154 26.3111 31.228 26.3111 32.4022C26.3111 34.0718 27.672 35.4399 29.357 35.4399H61.9974C63.6716 35.4399 65.0433 34.0826 65.0433 32.4022C65.0433 31.228 64.3628 30.2154 63.3691 29.7092H63.3259Z" fill="#BFBBF2"/>
<path d="M19.9926 56.3806H15.2726C14.6894 56.3806 14.2141 55.9067 14.2141 55.325C14.2141 54.7433 14.6894 54.2693 15.2726 54.2693H19.9926C20.187 54.2693 20.349 54.1077 20.349 53.9138V21.6517C20.349 21.07 20.8243 20.5961 21.4075 20.5961H37.2849C38.2894 20.5961 39.0995 19.7882 39.0995 18.7864C39.0995 17.7846 38.2894 16.9767 37.2849 16.9767H22.0664C20.9215 16.9767 19.8198 16.632 18.8801 15.9641L18.4157 15.6409C17.9404 15.307 17.8216 14.6499 18.1565 14.176C18.4913 13.702 19.1501 13.5835 19.6254 13.9174L20.0898 14.2406C20.6731 14.6499 21.3535 14.8654 22.0556 14.8654H37.2741C39.4343 14.8654 41.1948 16.6212 41.1948 18.7756C41.1948 20.93 39.4343 22.6858 37.2741 22.6858H22.4552V53.9138C22.4552 55.2711 21.3535 56.3699 19.9926 56.3699V56.3806Z" fill="#5541D9"/>
<path d="M15.2726 56.3806H10.5526C9.19166 56.3806 8.08997 55.2819 8.08997 53.9246V21.9533C8.08997 21.3716 8.56521 20.8977 9.14846 20.8977C9.73171 20.8977 10.2069 21.3716 10.2069 21.9533V53.9246C10.2069 54.1185 10.369 54.2801 10.5634 54.2801H15.2834C15.8666 54.2801 16.3419 54.754 16.3419 55.3357C16.3419 55.9174 15.8666 56.3914 15.2834 56.3914L15.2726 56.3806Z" fill="#5541D9"/>
<path d="M15.2726 56.3806C14.6894 56.3806 14.2141 55.9066 14.2141 55.3249V37.368C14.2141 36.7863 14.6894 36.3124 15.2726 36.3124C15.8559 36.3124 16.3311 36.7863 16.3311 37.368V55.3249C16.3311 55.9066 15.8559 56.3806 15.2726 56.3806Z" fill="#5541D9"/>
<path d="M15.2725 13.9067C11.7298 13.9067 8.84595 11.0305 8.84595 7.49732C8.84595 3.9641 11.7298 1.08798 15.2725 1.08798C18.8152 1.08798 21.6991 3.9641 21.6991 7.49732C21.6991 11.0305 18.8152 13.9067 15.2725 13.9067ZM15.2725 3.19929C12.8963 3.19929 10.9629 5.12748 10.9629 7.49732C10.9629 9.86716 12.8963 11.7953 15.2725 11.7953C17.6487 11.7953 19.5821 9.86716 19.5821 7.49732C19.5821 5.12748 17.6487 3.19929 15.2725 3.19929Z" fill="#5541D9"/>
<path d="M15.2726 56.3806C14.6894 56.3806 14.2141 55.9066 14.2141 55.3249V37.368C14.2141 36.7863 14.6894 36.3124 15.2726 36.3124C15.8559 36.3124 16.3311 36.7863 16.3311 37.368V55.3249C16.3311 55.9066 15.8559 56.3806 15.2726 56.3806Z" fill="#5541D9"/>
<path d="M15.2726 56.3806C14.6894 56.3806 14.2141 55.9066 14.2141 55.3249V37.368C14.2141 36.7863 14.6894 36.3124 15.2726 36.3124C15.8559 36.3124 16.3311 36.7863 16.3311 37.368V55.3249C16.3311 55.9066 15.8559 56.3806 15.2726 56.3806Z" fill="#5541D9"/>
<path d="M6.66435 36.7648C4.72018 36.7648 3.13245 35.1813 3.13245 33.2424V18.7433C3.13245 16.6104 4.8714 14.8869 6.99918 14.8869H8.47891C9.19177 14.8869 9.87223 14.6715 10.4447 14.2621L10.9091 13.939C11.3844 13.605 12.0432 13.7235 12.378 14.1975C12.7129 14.6715 12.6049 15.3286 12.1188 15.6625L11.6544 15.9857C10.7147 16.6427 9.61301 16.9982 8.46811 16.9982H6.98838C6.01629 16.9982 5.22783 17.7846 5.22783 18.7541V33.2532C5.22783 34.0395 5.86508 34.6751 6.65355 34.6751C7.44202 34.6751 8.07927 34.0395 8.07927 33.2532V21.9749C8.07927 21.3932 8.55451 20.9192 9.13776 20.9192C9.72101 20.9192 10.1963 21.3932 10.1963 21.9749V33.2532C10.1963 35.1921 8.60852 36.7756 6.66435 36.7756V36.7648Z" fill="#5541D9"/>
<path d="M15.2726 56.3806C14.6894 56.3806 14.2141 55.9066 14.2141 55.3249V37.368C14.2141 36.7863 14.6894 36.3124 15.2726 36.3124C15.8559 36.3124 16.3311 36.7863 16.3311 37.368V55.3249C16.3311 55.9066 15.8559 56.3806 15.2726 56.3806Z" fill="#5541D9"/>
<path d="M41.4217 56.3806H1.05861C0.475363 56.3806 0.00012207 55.9066 0.00012207 55.3249C0.00012207 54.7433 0.475363 54.2693 1.05861 54.2693H41.4217C42.0049 54.2693 42.4802 54.7433 42.4802 55.3249C42.4802 55.9066 42.0049 56.3806 41.4217 56.3806Z" fill="#5541D9"/>
<path d="M15.2727 31.8097C14.9594 31.8097 14.657 31.6697 14.4518 31.4219L12.3456 28.8689C12.1728 28.6535 12.0864 28.3842 12.108 28.1149L12.7885 19.7882C12.8317 19.2065 13.3393 18.7864 13.9226 18.8295C14.5058 18.8725 14.9378 19.3896 14.8838 19.9605L14.2358 27.8564L15.2511 29.0952L16.2664 27.8564L15.6183 19.9605C15.5751 19.3788 16.0071 18.8725 16.5796 18.8295C17.1628 18.7864 17.6705 19.2172 17.7137 19.7882L18.3941 28.1149C18.4157 28.3842 18.3293 28.6535 18.1565 28.8689L16.0503 31.4219C15.8451 31.6697 15.5535 31.8097 15.2295 31.8097H15.2727Z" fill="#5541D9"/>
<path d="M59.3944 27.8456H26.1275C25.5443 27.8456 25.069 27.3716 25.069 26.7899V24.4201C25.069 23.8384 25.5443 23.3645 26.1275 23.3645C26.7108 23.3645 27.186 23.8384 27.186 24.4201V25.7343H58.3359V2.10054H27.1752V12.1508C27.1752 12.7325 26.7 13.2065 26.1167 13.2065C25.5335 13.2065 25.0582 12.7325 25.0582 12.1508V1.05566C25.0582 0.473968 25.5335 0 26.1167 0H59.3836C59.9668 0 60.4421 0.473968 60.4421 1.05566V26.8007C60.4421 27.3824 59.9668 27.8564 59.3836 27.8564L59.3944 27.8456Z" fill="#5541D9"/>
<path d="M51.5314 22.6104H46.6602C46.0769 22.6104 45.6017 22.1365 45.6017 21.5548V6.25854C45.6017 5.67685 46.0769 5.20288 46.6602 5.20288H51.5314C52.1146 5.20288 52.5899 5.67685 52.5899 6.25854V21.5548C52.5899 22.1365 52.1146 22.6104 51.5314 22.6104ZM47.7187 20.5099H50.4729V7.31419H47.7187V20.5099Z" fill="#5541D9"/>
<path d="M41.4325 15.3609C40.8493 15.3609 40.374 14.8869 40.374 14.3052V9.65172H37.6198V12.6679C37.6198 13.2496 37.1445 13.7235 36.5613 13.7235C35.978 13.7235 35.5028 13.2496 35.5028 12.6679V8.59606C35.5028 8.01437 35.978 7.54041 36.5613 7.54041H41.4325C42.0158 7.54041 42.491 8.01437 42.491 8.59606V14.3052C42.491 14.8869 42.0158 15.3609 41.4325 15.3609Z" fill="#5541D9"/>
<path d="M59.0704 31.8097H26.4408C24.7666 31.8097 23.3949 30.4524 23.3949 28.772C23.3949 27.0916 24.7558 25.7343 26.4408 25.7343H59.0812C60.7553 25.7343 62.127 27.0916 62.127 28.772C62.127 30.4524 60.7661 31.8097 59.0812 31.8097H59.0704ZM26.43 27.8456C25.9223 27.8456 25.5011 28.2657 25.5011 28.772C25.5011 29.2783 25.9223 29.6984 26.43 29.6984H59.0704C59.578 29.6984 59.9993 29.2783 59.9993 28.772C59.9993 28.2657 59.578 27.8456 59.0704 27.8456H26.4408H26.43Z" fill="#5541D9"/>
</g>
<defs>
<clipPath id="clip0_59_1102">
<rect width="65" height="60" fill="white" transform="translate(0.000244141)"/>
</clipPath>
</defs>
</svg>
