<svg width="56" height="63" viewBox="0 0 56 63" fill="none" xmlns="http://www.w3.org/2000/svg">
<g clip-path="url(#clip0_59_745)">
<path d="M55.2076 42.1878C55.3132 41.7809 55.3978 41.3636 55.4823 40.9568C55.514 40.8003 55.5352 40.6438 55.5669 40.4873C55.6303 40.1222 55.6937 39.7571 55.7465 39.3815C55.7677 39.2146 55.7888 39.0477 55.8099 38.8912C55.8522 38.5157 55.8839 38.1297 55.9156 37.7541C55.9262 37.6081 55.9367 37.4516 55.9473 37.3055C55.979 36.7839 56.0002 36.2623 56.0002 35.7303C56.0002 35.1982 55.979 34.6766 55.9473 34.155C55.9473 34.009 55.9262 33.8629 55.9156 33.7064C55.8839 33.3204 55.8522 32.9449 55.8099 32.5589C55.7888 32.392 55.7677 32.2355 55.7465 32.0686C55.6937 31.693 55.6408 31.3279 55.5669 30.9523C55.5352 30.7958 55.514 30.6394 55.4823 30.4933C55.3978 30.076 55.3027 29.6587 55.2076 29.2414C55.1864 29.158 55.1758 29.0745 55.1547 28.9911C52.7241 19.5604 45.3053 12.0909 35.8575 9.462C35.8258 9.45157 35.7941 9.44114 35.7624 9.43071C34.1455 8.99256 32.4757 8.69002 30.7637 8.54397C30.2459 8.49181 29.7069 8.45008 29.1256 8.43965C25.8284 8.38749 23.979 8.71089 22.9856 8.99256C22.0556 6.38451 19.5404 4.50671 16.5814 4.50671C12.8403 4.50671 9.78615 7.51119 9.78615 11.2146C9.78615 13.4575 10.9169 15.4501 12.6395 16.6602C12.6184 17.1088 12.5338 17.547 12.4176 17.9434C12.2591 17.9642 12.1005 18.0164 11.9632 18.1103L11.4665 18.4546C11.1177 18.6945 10.7373 18.8823 10.3251 18.997C9.99751 19.0909 9.64876 19.1431 9.28945 19.1431H7.70424C5.47439 19.1431 3.64612 20.9374 3.64612 23.149V38.547C3.64612 40.5499 5.3053 42.1878 7.33436 42.1878C7.9156 42.1878 8.46514 42.0417 8.96184 41.8018V60.5067C8.96184 61.8942 10.1032 63.0209 11.5087 63.0209H28.2908C28.2908 63.0209 28.333 63.0209 28.3542 63.0209C28.5444 63.0209 28.7241 63.0209 28.9037 63.0104H29.2525C31.4823 62.927 33.6382 62.6036 35.699 62.0403C35.7518 62.0403 35.7941 62.0194 35.8469 61.9985C45.2947 59.3696 52.7029 51.9002 55.1441 42.4799C55.1653 42.386 55.1758 42.2921 55.197 42.2087L55.2076 42.1878ZM12.0583 12.5082C11.942 12.1326 11.8786 11.7467 11.8575 11.3398C11.9209 11.7258 11.9843 12.1222 12.0583 12.5082Z" fill="#BFBBF2"/>
<path d="M22.1716 37.7019C20.1426 37.7019 18.4834 36.0745 18.4834 34.0715L18.4517 24.6617C18.4517 24.0983 18.9061 23.6393 19.4768 23.6393C20.0475 23.6393 20.5125 24.0983 20.5125 24.6512L20.5442 34.0611C20.5442 34.9478 21.2733 35.6572 22.1716 35.6572C22.6049 35.6572 23.0171 35.4903 23.3235 35.1877C23.63 34.8852 23.7991 34.4784 23.7991 34.0506L23.778 18.6214C23.778 17.5365 22.8903 16.6602 21.7912 16.6602H20.206C18.9907 16.6602 17.8387 16.295 16.8453 15.6065L16.3486 15.2623C15.8837 14.9389 15.7674 14.3025 16.095 13.8435C16.4226 13.3845 17.0673 13.2697 17.5323 13.5931L18.029 13.9374C18.663 14.386 19.4134 14.6155 20.1954 14.6155H21.7806C24.0105 14.6155 25.8282 16.4098 25.8387 18.611L25.8599 34.0402C25.8599 35.0104 25.4794 35.9284 24.7819 36.617C24.0844 37.3055 23.1545 37.6915 22.1716 37.6915V37.7019Z" fill="#5541D9"/>
<path d="M12.914 58.4933H7.85195C6.4464 58.4933 5.30505 57.3666 5.30505 55.9792V22.0432C5.30505 21.4799 5.77005 21.0209 6.34072 21.0209C6.91139 21.0209 7.37639 21.4799 7.37639 22.0432V55.9792C7.37639 56.24 7.58775 56.4486 7.85195 56.4486H12.914C13.4847 56.4486 13.9497 56.9076 13.9497 57.471C13.9497 58.0343 13.4847 58.4933 12.914 58.4933Z" fill="#5541D9"/>
<path d="M12.9141 58.4933C12.3434 58.4933 11.8784 58.0343 11.8784 57.4709V38.4113C11.8784 37.848 12.3434 37.389 12.9141 37.389C13.4848 37.389 13.9498 37.848 13.9498 38.4113V57.4709C13.9498 58.0343 13.4848 58.4933 12.9141 58.4933Z" fill="#5541D9"/>
<path d="M12.9141 13.4054C9.17306 13.4054 6.1189 10.4009 6.1189 6.69747C6.1189 2.99404 9.17306 0 12.9141 0C16.6552 0 19.7094 3.00447 19.7094 6.7079C19.7094 10.4113 16.6658 13.4158 12.9141 13.4158V13.4054ZM12.9141 2.03428C10.3038 2.03428 8.19023 4.13115 8.19023 6.69747C8.19023 9.26378 10.3144 11.3607 12.9141 11.3607C15.5139 11.3607 17.6381 9.26378 17.6381 6.69747C17.6381 4.13115 15.5244 2.03428 12.9141 2.03428Z" fill="#5541D9"/>
<path d="M12.9141 58.4933C12.3434 58.4933 11.8784 58.0343 11.8784 57.4709V38.4113C11.8784 37.848 12.3434 37.389 12.9141 37.389C13.4848 37.389 13.9498 37.848 13.9498 38.4113V57.4709C13.9498 58.0343 13.4848 58.4933 12.9141 58.4933Z" fill="#5541D9"/>
<path d="M17.9762 58.4933H12.9141C12.3434 58.4933 11.8784 58.0343 11.8784 57.471C11.8784 56.9076 12.3434 56.4486 12.9141 56.4486H17.9762C18.2404 56.4486 18.4517 56.24 18.4517 55.9792V22.0432C18.4517 21.4799 18.9167 21.0209 19.4874 21.0209C20.0581 21.0209 20.5231 21.4799 20.5231 22.0432V55.9792C20.5231 57.3666 19.3817 58.4933 17.9762 58.4933Z" fill="#5541D9"/>
<path d="M12.9141 58.4933C12.3434 58.4933 11.8784 58.0343 11.8784 57.4709V38.4113C11.8784 37.848 12.3434 37.389 12.9141 37.389C13.4848 37.389 13.9498 37.848 13.9498 38.4113V57.4709C13.9498 58.0343 13.4848 58.4933 12.9141 58.4933Z" fill="#5541D9"/>
<path d="M3.68824 37.6602C1.64861 37.6602 0 36.0223 0 34.0193V18.6214C0 16.4202 1.8177 14.6155 4.05812 14.6155H5.64333C6.42536 14.6155 7.17569 14.3755 7.80977 13.9374L8.30647 13.5931C8.77147 13.2697 9.41612 13.3845 9.74372 13.8435C10.0713 14.3025 9.95508 14.9389 9.49009 15.2623L8.99339 15.6065C8.01057 16.295 6.84808 16.6602 5.63276 16.6602H4.04756C2.94848 16.6602 2.06077 17.5365 2.06077 18.6214V34.0193C2.06077 34.9061 2.78996 35.6259 3.68824 35.6259C4.58653 35.6259 5.31572 34.9061 5.31572 34.0193V24.6512C5.31572 24.0879 5.78071 23.6289 6.35139 23.6289C6.92206 23.6289 7.38705 24.0879 7.38705 24.6512V34.0193C7.38705 36.0223 5.72787 37.6602 3.69881 37.6602H3.68824Z" fill="#5541D9"/>
<path d="M12.9141 58.4933C12.3434 58.4933 11.8784 58.0343 11.8784 57.4709V38.4113C11.8784 37.848 12.3434 37.389 12.9141 37.389C13.4848 37.389 13.9498 37.848 13.9498 38.4113V57.4709C13.9498 58.0343 13.4848 58.4933 12.9141 58.4933Z" fill="#5541D9"/>
<path d="M12.9143 30.1699C12.6078 30.1699 12.3119 30.0343 12.1111 29.7943L9.84958 27.082C9.68049 26.8733 9.59595 26.6125 9.61708 26.3517L10.3463 17.5156C10.3885 16.9523 10.8852 16.5454 11.4559 16.5872C12.0266 16.6289 12.4493 17.1296 12.3965 17.6826L11.699 26.1118L12.8932 27.5514L14.0874 26.1118L13.3899 17.6826C13.3476 17.1192 13.7703 16.6289 14.3304 16.5872C14.9117 16.5559 15.3978 16.9627 15.4401 17.5156L16.1693 26.3517C16.1904 26.6125 16.1059 26.8733 15.9368 27.082L13.6752 29.7943C13.4744 30.0343 13.1891 30.1699 12.872 30.1699H12.9143Z" fill="#5541D9"/>
<path d="M24.708 58.4933C24.1374 58.4933 23.6724 58.0343 23.6724 57.4709C23.6724 56.9076 24.1374 56.4486 24.708 56.4486C38.8058 56.4486 50.2827 45.1296 50.2827 31.2027C50.2827 17.2757 38.8058 5.96719 24.708 5.96719C24.1374 5.96719 23.6724 5.50818 23.6724 4.94484C23.6724 4.3815 24.1374 3.92249 24.708 3.92249C39.9471 3.92249 52.3434 16.1594 52.3434 31.2027C52.3434 46.2459 39.9471 58.4828 24.708 58.4828V58.4933Z" fill="#5541D9"/>
<path d="M25.9762 44.8898H23.461C22.8903 44.8898 22.4253 44.4307 22.4253 43.8674C22.4253 43.3041 22.8903 42.8451 23.461 42.8451H25.9762C29.675 42.8451 33.0145 42.5634 36.1743 41.9896C41.712 40.9881 46.457 39.246 49.5851 37.0656C50.0501 35.1461 50.2826 33.1744 50.2826 31.2027C50.2826 29.231 50.0501 27.2594 49.5851 25.3398C45.136 22.2519 37.5059 20.0924 29.0514 19.5604C28.4808 19.5291 28.0475 19.0388 28.0898 18.4755C28.1215 17.9121 28.6182 17.4844 29.1888 17.5261C38.3513 18.1103 46.3407 20.4367 51.1175 23.9106C51.3077 24.0462 51.4451 24.2549 51.5085 24.4844C52.0686 26.6752 52.354 28.9389 52.354 31.2132C52.354 33.4874 52.0686 35.7407 51.5085 37.9419C51.4451 38.1714 51.3077 38.3696 51.1175 38.5157C47.7569 40.9673 42.5785 42.9181 36.5548 44.0135C33.2681 44.6081 29.8018 44.9002 25.9762 44.9002V44.8898Z" fill="#5541D9"/>
<path d="M51.3077 32.2251H41.3314C40.7608 32.2251 40.2958 31.7661 40.2958 31.2027C40.2958 30.6394 40.7608 30.1804 41.3314 30.1804H51.3077C51.8783 30.1804 52.3433 30.6394 52.3433 31.2027C52.3433 31.7661 51.8783 32.2251 51.3077 32.2251Z" fill="#5541D9"/>
<path d="M41.7013 32.2251H41.3314C40.7608 32.2251 40.2958 31.7661 40.2958 31.2027C40.2958 30.6394 40.7608 30.1804 41.3314 30.1804H41.7013C42.272 30.1804 42.737 30.6394 42.737 31.2027C42.737 31.7661 42.272 32.2251 41.7013 32.2251Z" fill="#5541D9"/>
<path d="M48.9405 58.4933H16.93C16.3593 58.4933 15.8943 58.0342 15.8943 57.4709C15.8943 56.9076 16.3593 56.4485 16.93 56.4485H48.9405C49.5112 56.4485 49.9762 56.9076 49.9762 57.4709C49.9762 58.0342 49.5112 58.4933 48.9405 58.4933Z" fill="#5541D9"/>
<path d="M31.852 57.5336C31.6829 57.5336 31.5244 57.4918 31.3659 57.4084C30.8586 57.1371 30.6789 56.5216 30.9431 56.0313C34.0501 50.3145 35.8996 41.0403 35.8996 31.2131C35.8996 21.386 34.0501 12.1014 30.9431 6.39495C30.6684 5.89421 30.8586 5.27871 31.3659 5.0179C31.8731 4.7571 32.4966 4.93444 32.7608 5.43519C36.0158 11.4337 37.9603 21.073 37.9603 31.2236C37.9603 41.3741 36.0158 51.0134 32.7608 57.0119C32.5706 57.3562 32.2219 57.5544 31.852 57.5544V57.5336Z" fill="#5541D9"/>
<path d="M32.6129 31.933H28.6499C28.0793 31.933 27.6143 31.4739 27.6143 30.9106C27.6143 30.3473 28.0793 29.8882 28.6499 29.8882H32.6129C33.1836 29.8882 33.6486 30.3473 33.6486 30.9106C33.6486 31.4739 33.1836 31.933 32.6129 31.933Z" fill="#5541D9"/>
<path d="M28.6499 27.0298C28.3223 27.0298 28.0053 26.8733 27.8045 26.5917C27.4769 26.1327 27.5931 25.4963 28.0581 25.1729L31.2602 22.9613C31.7252 22.6379 32.3699 22.7526 32.6975 23.2116C33.0251 23.6707 32.9088 24.307 32.4439 24.6304L29.2417 26.842C29.0621 26.9672 28.8507 27.0298 28.6499 27.0298Z" fill="#5541D9"/>
<path d="M31.852 39.0477C31.6512 39.0477 31.4399 38.9851 31.2602 38.8599L28.0581 36.6483C27.5931 36.3249 27.4769 35.6885 27.8045 35.2295C28.1321 34.7705 28.7767 34.6558 29.2417 34.9792L32.4439 37.1908C32.9088 37.5142 33.0251 38.1505 32.6975 38.6096C32.4967 38.8912 32.1797 39.0477 31.852 39.0477Z" fill="#5541D9"/>
</g>
<defs>
<clipPath id="clip0_59_745">
<rect width="56" height="63" fill="white"/>
</clipPath>
</defs>
</svg>
