<svg width="48" height="49" viewBox="0 0 48 49" fill="none" xmlns="http://www.w3.org/2000/svg">
<g clip-path="url(#clip0_62_1137)">
<path d="M45.9774 11.704H39.6399V5.87778C39.6399 4.15563 38.2162 2.75049 36.4712 2.75049H17.1809C15.4359 2.75049 14.0121 4.15563 14.0121 5.87778V11.704H7.66596C6.55473 11.704 5.65186 12.595 5.65186 13.6917V24.9243C5.65186 25.9182 6.0512 26.8092 6.70232 27.4775V45.8729C6.70232 47.595 8.12608 49.0002 9.87106 49.0002H43.781C45.526 49.0002 46.9497 47.595 46.9497 45.8729V27.4775C47.5922 26.8092 48.0002 25.9182 48.0002 24.9243V13.6917C48.0002 12.595 47.0973 11.704 45.9861 11.704H45.9774Z" fill="#BFBBF2"/>
<path d="M40.0739 46.2497H6.15532C4.41034 46.2497 2.98657 44.8445 2.98657 43.1224V24.3672C2.98657 23.8959 3.37724 23.5104 3.85472 23.5104C4.3322 23.5104 4.72287 23.8959 4.72287 24.3672V43.1138C4.72287 43.8935 5.3653 44.5361 6.164 44.5361H40.0739C40.8639 44.5361 41.5151 43.9021 41.5151 43.1138V24.3672C41.5151 23.8959 41.9057 23.5104 42.3832 23.5104C42.8607 23.5104 43.2514 23.8959 43.2514 24.3672V43.1138C43.2514 44.836 41.8276 46.2411 40.0826 46.2411L40.0739 46.2497Z" fill="#5541D9"/>
<path d="M13.3176 40.3037C10.8781 40.3037 8.89001 38.3416 8.89001 35.9341V35.0259C8.89001 34.5546 9.28068 34.1691 9.75816 34.1691H16.8857C17.3632 34.1691 17.7538 34.5546 17.7538 35.0259V35.9341C17.7538 38.3416 15.7658 40.3037 13.3263 40.3037H13.3176ZM10.6176 35.8741V35.9341C10.6176 37.4077 11.833 38.5987 13.3176 38.5987C14.8021 38.5987 16.0175 37.3992 16.0175 35.9341V35.8741H10.6176Z" fill="#5541D9"/>
<path d="M18.1966 35.874H8.44725C7.96977 35.874 7.5791 35.4885 7.5791 35.0172V29.0711C7.5791 28.5999 7.96977 28.2143 8.44725 28.2143H18.1966C18.6741 28.2143 19.0647 28.5999 19.0647 29.0711V35.0172C19.0647 35.4885 18.6741 35.874 18.1966 35.874ZM9.3154 34.169H17.3371V29.9279H9.30672V34.169H9.3154Z" fill="#5541D9"/>
<path d="M14.6371 32.901H11.9979C11.5204 32.901 11.1298 32.5155 11.1298 32.0442C11.1298 31.573 11.5204 31.1874 11.9979 31.1874H14.6371C15.1146 31.1874 15.5052 31.573 15.5052 32.0442C15.5052 32.5155 15.1146 32.901 14.6371 32.901Z" fill="#5541D9"/>
<path d="M17.9014 22.3881H8.73375C8.25627 22.3881 7.8656 22.0025 7.8656 21.5313C7.8656 21.0601 8.25627 20.6745 8.73375 20.6745H17.9014C18.3789 20.6745 18.7696 21.0601 18.7696 21.5313C18.7696 22.0025 18.3789 22.3881 17.9014 22.3881Z" fill="#5541D9"/>
<path d="M32.9117 40.3037C30.4722 40.3037 28.4841 38.3416 28.4841 35.9341V35.0259C28.4841 34.5546 28.8748 34.1691 29.3523 34.1691H36.4798C36.9573 34.1691 37.3479 34.5546 37.3479 35.0259V35.9341C37.3479 38.3416 35.3599 40.3037 32.9204 40.3037H32.9117ZM30.2117 35.8741V35.9341C30.2117 37.4077 31.4272 38.5987 32.9117 38.5987C34.3962 38.5987 35.6116 37.3992 35.6116 35.9341V35.8741H30.2117Z" fill="#5541D9"/>
<path d="M37.782 35.874H28.0327C27.5552 35.874 27.1646 35.4885 27.1646 35.0172V29.0711C27.1646 28.5999 27.5552 28.2143 28.0327 28.2143H37.782C38.2595 28.2143 38.6502 28.5999 38.6502 29.0711V35.0172C38.6502 35.4885 38.2595 35.874 37.782 35.874ZM28.9009 34.169H36.9226V29.9279H28.9009V34.169Z" fill="#5541D9"/>
<path d="M34.2312 32.901H31.592C31.1145 32.901 30.7239 32.5155 30.7239 32.0442C30.7239 31.573 31.1145 31.1874 31.592 31.1874H34.2312C34.7087 31.1874 35.0994 31.573 35.0994 32.0442C35.0994 32.5155 34.7087 32.901 34.2312 32.901Z" fill="#5541D9"/>
<path d="M37.4955 22.3881H28.3279C27.8504 22.3881 27.4597 22.0025 27.4597 21.5313C27.4597 21.0601 27.8504 20.6745 28.3279 20.6745H37.4955C37.973 20.6745 38.3637 21.0601 38.3637 21.5313C38.3637 22.0025 37.973 22.3881 37.4955 22.3881Z" fill="#5541D9"/>
<path d="M16.8857 29.9278H9.75816C9.28068 29.9278 8.89001 29.5422 8.89001 29.071V21.5398C8.89001 21.0685 9.28068 20.683 9.75816 20.683H16.8857C17.3632 20.683 17.7538 21.0685 17.7538 21.5398V29.071C17.7538 29.5422 17.3632 29.9278 16.8857 29.9278ZM10.6176 28.2228H16.0175V22.3966H10.6176V28.2228Z" fill="#5541D9"/>
<path d="M36.4711 29.9278H29.3436C28.8661 29.9278 28.4755 29.5422 28.4755 29.071V21.5398C28.4755 21.0685 28.8661 20.683 29.3436 20.683H36.4711C36.9486 20.683 37.3393 21.0685 37.3393 21.5398V29.071C37.3393 29.5422 36.9486 29.9278 36.4711 29.9278ZM30.2031 28.2228H35.603V22.3966H30.2031V28.2228Z" fill="#5541D9"/>
<path d="M16.8857 29.9278H9.75816C9.28068 29.9278 8.89001 29.5422 8.89001 29.071V21.5398C8.89001 21.0685 9.28068 20.683 9.75816 20.683H16.8857C17.3632 20.683 17.7538 21.0685 17.7538 21.5398V29.071C17.7538 29.5422 17.3632 29.9278 16.8857 29.9278ZM10.6176 28.2228H16.0175V22.3966H10.6176V28.2228Z" fill="#5541D9"/>
<path d="M36.4711 29.9278H29.3436C28.8661 29.9278 28.4755 29.5422 28.4755 29.071V21.5398C28.4755 21.0685 28.8661 20.683 29.3436 20.683H36.4711C36.9486 20.683 37.3393 21.0685 37.3393 21.5398V29.071C37.3393 29.5422 36.9486 29.9278 36.4711 29.9278ZM30.2031 28.2228H35.603V22.3966H30.2031V28.2228Z" fill="#5541D9"/>
<path d="M40.5428 25.8751H36.4711C35.9937 25.8751 35.603 25.4896 35.603 25.0183V22.388H30.2031V25.0183C30.2031 25.4896 29.8124 25.8751 29.335 25.8751H16.877C16.3995 25.8751 16.0089 25.4896 16.0089 25.0183V22.388H10.609V25.0183C10.609 25.4896 10.2183 25.8751 9.74081 25.8751H5.68655C3.62035 25.8751 1.94482 24.213 1.94482 22.1824V10.9498C1.94482 9.8531 2.8477 8.96204 3.95893 8.96204H42.2704C43.3816 8.96204 44.2845 9.8531 44.2845 10.9498V22.1824C44.2845 24.2215 42.6003 25.8751 40.5428 25.8751ZM37.3393 24.1701H40.5428C41.654 24.1701 42.5569 23.2791 42.5569 22.1824V10.9498C42.5569 10.7956 42.4266 10.6671 42.2704 10.6671H3.95893C3.80266 10.6671 3.67244 10.7956 3.67244 10.9498V22.1824C3.67244 23.2791 4.57532 24.1701 5.68655 24.1701H8.89002V21.5398C8.89002 21.0685 9.28069 20.683 9.75817 20.683H16.8857C17.3632 20.683 17.7538 21.0685 17.7538 21.5398V24.1701H28.4842V21.5398C28.4842 21.0685 28.8748 20.683 29.3523 20.683H36.4798C36.9573 20.683 37.348 21.0685 37.348 21.5398V24.1701H37.3393Z" fill="#5541D9"/>
<path d="M31.1839 10.6587H15.045C14.5675 10.6587 14.1769 10.2731 14.1769 9.8019V5.19236C14.1769 4.41268 14.8193 3.77008 15.618 3.77008H30.6023C31.3923 3.77008 32.0434 4.40411 32.0434 5.19236V9.81047C32.0434 10.2817 31.6527 10.6673 31.1753 10.6673L31.1839 10.6587ZM15.9132 8.95368H30.3158V5.4751H15.9132V8.96225V8.95368Z" fill="#5541D9"/>
<path d="M35.0647 10.6587H11.1645C10.6871 10.6587 10.2964 10.2731 10.2964 9.8019V3.12748C10.2964 1.40532 11.7202 0.000183105 13.4651 0.000183105H32.7554C34.5004 0.000183105 35.9242 1.40532 35.9242 3.12748V9.81047C35.9242 10.2817 35.5335 10.6673 35.056 10.6673L35.0647 10.6587ZM12.024 8.95367H34.1965V3.12748C34.1965 2.3478 33.5541 1.7052 32.7554 1.7052H13.4651C12.6751 1.7052 12.024 2.33923 12.024 3.12748V8.95367Z" fill="#5541D9"/>
<path d="M29.8123 14.7884H2.80418C2.3267 14.7884 1.93604 14.4028 1.93604 13.9316C1.93604 13.4603 2.3267 13.0748 2.80418 13.0748H29.8123C30.2898 13.0748 30.6805 13.4603 30.6805 13.9316C30.6805 14.4028 30.2898 14.7884 29.8123 14.7884Z" fill="#5541D9"/>
<path d="M32.1131 14.7884H29.8125C29.335 14.7884 28.9443 14.4028 28.9443 13.9316C28.9443 13.4603 29.335 13.0748 29.8125 13.0748H32.1131C32.5906 13.0748 32.9812 13.4603 32.9812 13.9316C32.9812 14.4028 32.5906 14.7884 32.1131 14.7884Z" fill="#5541D9"/>
<path d="M38.1206 14.7884H35.1168C34.6393 14.7884 34.2487 14.4028 34.2487 13.9316C34.2487 13.4603 34.6393 13.0748 35.1168 13.0748H38.1206C38.5981 13.0748 38.9888 13.4603 38.9888 13.9316C38.9888 14.4028 38.5981 14.7884 38.1206 14.7884Z" fill="#5541D9"/>
<path d="M43.425 14.7884H41.1244C40.6469 14.7884 40.2562 14.4028 40.2562 13.9316C40.2562 13.4603 40.6469 13.0748 41.1244 13.0748H43.425C43.9025 13.0748 44.2931 13.4603 44.2931 13.9316C44.2931 14.4028 43.9025 14.7884 43.425 14.7884Z" fill="#5541D9"/>
<path d="M45.3696 46.2498H0.868272C0.390789 46.2498 0.00012207 45.8643 0.00012207 45.393C0.00012207 44.9218 0.390789 44.5363 0.868272 44.5363H45.3696C45.8471 44.5363 46.2378 44.9218 46.2378 45.393C46.2378 45.8643 45.8471 46.2498 45.3696 46.2498Z" fill="#5541D9"/>
</g>
<defs>
<clipPath id="clip0_62_1137">
<rect width="48" height="49" fill="white" transform="translate(0.000244141)"/>
</clipPath>
</defs>
</svg>
