<svg width="66" height="61" viewBox="0 0 66 61" fill="none" xmlns="http://www.w3.org/2000/svg">
<g clip-path="url(#clip0_59_841)">
<path d="M60.4774 27.3247C60.7241 26.6685 60.8769 25.9537 60.8769 25.2038C60.8769 22.2277 58.7148 19.7553 55.8713 19.2398C55.4483 16.3104 53.2746 13.9318 50.4428 13.2054C50.6896 12.5492 50.8423 11.8345 50.8423 11.0963C50.8423 7.74514 48.1163 5.02673 44.7558 5.02673C41.3953 5.02673 38.6693 7.74514 38.6693 11.0963C38.6693 11.8462 38.822 12.5492 39.0688 13.2054C37.2475 13.6741 35.7083 14.8106 34.7212 16.3456C33.7342 14.8106 32.1832 13.6741 30.3737 13.2054C30.6205 12.5492 30.7732 11.8345 30.7732 11.0963C30.7732 7.74514 28.0472 5.02673 24.6867 5.02673C21.3262 5.02673 18.6002 7.74514 18.6002 11.0963C18.6002 11.8462 18.7529 12.5492 18.9997 13.2054C16.1679 13.9318 13.9942 16.3104 13.5712 19.2398C10.7277 19.7553 8.56565 22.2277 8.56565 25.2038C8.56565 25.9537 8.7184 26.6568 8.96515 27.3129C5.79264 28.1332 3.44263 30.9922 3.44263 34.4019V37.7882C3.44263 38.4326 3.97138 38.9599 4.61763 38.9599H64.8249C65.4711 38.9599 65.9999 38.4326 65.9999 37.7882V34.4019C65.9999 30.9922 63.6499 28.1214 60.4774 27.3129V27.3247Z" fill="#BFBBF2"/>
<path d="M42.4997 43.9398C42.347 43.518 41.9592 43.2133 41.5127 43.1665L29.9977 42.0064C29.6452 41.9713 29.3044 42.1002 29.0577 42.3462C28.8109 42.5923 28.6817 42.9438 28.7169 43.2836L29.8802 54.7665C29.9272 55.2118 30.2209 55.5985 30.6557 55.7508C31.0787 55.9031 31.5604 55.7976 31.8777 55.4813L33.5697 53.794L35.2969 55.5047C35.5202 55.7273 35.8257 55.8445 36.1194 55.8445C36.4132 55.8445 36.7187 55.7273 36.9419 55.5047C37.4002 55.0477 37.4002 54.3096 36.9419 53.8526L34.3922 51.3099C33.9339 50.853 33.1937 50.853 32.7354 51.3099L31.9599 52.0833L31.1844 44.4788L38.8219 45.2404L38.0464 46.0137C37.8232 46.2364 37.7057 46.5293 37.7057 46.834C37.7057 47.1386 37.8349 47.4432 38.0464 47.6542L40.8547 50.4546C41.313 50.9116 42.0532 50.9116 42.5115 50.4546C42.9697 49.9976 42.9697 49.2594 42.5115 48.8024L40.5374 46.834L42.2295 45.1467C42.5467 44.8303 42.6525 44.3499 42.4997 43.9281V43.9398Z" fill="#BFBBF2"/>
<path d="M38.0935 49.7045C37.6352 49.2476 36.895 49.2476 36.4367 49.7045C35.9785 50.1615 35.9785 50.8997 36.4367 51.3567L40.608 55.5163C40.8312 55.7389 41.1367 55.8561 41.4305 55.8561C41.7242 55.8561 42.0297 55.7389 42.253 55.5163C42.7112 55.0593 42.7112 54.3211 42.253 53.8642L38.0817 49.7045H38.0935Z" fill="#BFBBF2"/>
<path d="M59.7135 58.6567H17.9421C17.2958 58.6567 16.7671 59.184 16.7671 59.8285C16.7671 60.4729 17.2958 61.0002 17.9421 61.0002H59.7135C60.3598 61.0002 60.8885 60.4729 60.8885 59.8285C60.8885 59.184 60.3598 58.6567 59.7135 58.6567Z" fill="#BFBBF2"/>
<path d="M4.64107 45.8613H18.3416C18.9879 45.8613 19.5166 45.334 19.5166 44.6895C19.5166 44.0451 18.9879 43.5178 18.3416 43.5178H4.64107C3.99482 43.5178 3.46606 44.0451 3.46606 44.6895C3.46606 45.334 3.99482 45.8613 4.64107 45.8613Z" fill="#BFBBF2"/>
<path d="M19.5049 51.8841C19.5049 51.2397 18.9761 50.7124 18.3299 50.7124H4.64107C3.99482 50.7124 3.46606 51.2397 3.46606 51.8841C3.46606 52.5286 3.99482 53.0559 4.64107 53.0559H18.3416C18.9879 53.0559 19.5166 52.5286 19.5166 51.8841H19.5049Z" fill="#BFBBF2"/>
<path d="M64.8247 43.5295H51.1241C50.4778 43.5295 49.9491 44.0568 49.9491 44.7013C49.9491 45.3457 50.4778 45.873 51.1241 45.873H64.8247C65.4709 45.873 65.9997 45.3457 65.9997 44.7013C65.9997 44.0568 65.4709 43.5295 64.8247 43.5295Z" fill="#BFBBF2"/>
<path d="M64.8247 50.7124H51.1241C50.4778 50.7124 49.9491 51.2397 49.9491 51.8841C49.9491 52.5286 50.4778 53.0559 51.1241 53.0559H64.8247C65.4709 53.0559 65.9997 52.5286 65.9997 51.8841C65.9997 51.2397 65.4709 50.7124 64.8247 50.7124Z" fill="#BFBBF2"/>
<path d="M51.3241 26.2466C47.9636 26.2466 45.2375 23.5282 45.2375 20.1771C45.2375 16.8259 47.9636 14.1075 51.3241 14.1075C54.6846 14.1075 57.4106 16.8259 57.4106 20.1771C57.4106 23.5282 54.6846 26.2466 51.3241 26.2466ZM51.3241 16.4393C49.2561 16.4393 47.5758 18.1148 47.5758 20.1771C47.5758 22.2393 49.2561 23.9149 51.3241 23.9149C53.3921 23.9149 55.0723 22.2393 55.0723 20.1771C55.0723 18.1148 53.3921 16.4393 51.3241 16.4393Z" fill="#5541D9"/>
<path d="M61.3586 33.9332C60.7124 33.9332 60.1836 33.4059 60.1836 32.7614V29.3752C60.1836 26.7856 58.2096 24.6531 55.6716 24.407C54.5319 25.5788 52.9691 26.2467 51.3124 26.2467C49.6556 26.2467 48.1046 25.5788 46.9531 24.407C44.4268 24.6648 42.4411 26.7974 42.4411 29.3752C42.4411 30.0196 41.9123 30.5469 41.2661 30.5469C40.6198 30.5469 40.0911 30.0196 40.0911 29.3752C40.0911 25.3327 43.3928 22.0402 47.4466 22.0402C47.7991 22.0402 48.1398 22.2042 48.3631 22.4854C49.0798 23.3876 50.1491 23.9032 51.3006 23.9032C52.4521 23.9032 53.5214 23.3876 54.2381 22.4854C54.4614 22.2042 54.8021 22.0402 55.1546 22.0402C59.2084 22.0402 62.5101 25.3327 62.5101 29.3752V32.7614C62.5101 33.4059 61.9814 33.9332 61.3351 33.9332H61.3586Z" fill="#5541D9"/>
<path d="M31.2666 26.2466C27.9061 26.2466 25.1801 23.5282 25.1801 20.1771C25.1801 16.8259 27.9061 14.1075 31.2666 14.1075C34.6271 14.1075 37.3531 16.8259 37.3531 20.1771C37.3531 23.5282 34.6271 26.2466 31.2666 26.2466ZM31.2666 16.4393C29.1986 16.4393 27.5183 18.1148 27.5183 20.1771C27.5183 22.2393 29.1986 23.9149 31.2666 23.9149C33.3346 23.9149 35.0148 22.2393 35.0148 20.1771C35.0148 18.1148 33.3346 16.4393 31.2666 16.4393Z" fill="#5541D9"/>
<path d="M41.3013 33.9332C40.655 33.9332 40.1263 33.4059 40.1263 32.7614V29.3752C40.1263 26.7856 38.1523 24.6531 35.6142 24.407C34.4745 25.5788 32.9117 26.2467 31.255 26.2467C29.5982 26.2467 28.0472 25.5905 26.8957 24.407C24.3695 24.6648 22.3837 26.7974 22.3837 29.3752C22.3837 30.0196 21.8549 30.5469 21.2087 30.5469C20.5624 30.5469 20.0337 30.0196 20.0337 29.3752C20.0337 25.3327 23.3355 22.0402 27.3892 22.0402C27.7417 22.0402 28.0825 22.2042 28.3057 22.4854C29.0225 23.3876 30.0917 23.9032 31.2432 23.9032C32.3947 23.9032 33.464 23.3876 34.1807 22.4854C34.404 22.2042 34.7447 22.0402 35.0972 22.0402C39.151 22.0402 42.4528 25.3327 42.4528 29.3752V32.7614C42.4528 33.4059 41.924 33.9332 41.2778 33.9332H41.3013Z" fill="#5541D9"/>
<path d="M41.3012 12.1391C37.9407 12.1391 35.2147 9.42067 35.2147 6.06953C35.2147 2.7184 37.9407 0 41.3012 0C44.6618 0 47.3878 2.7184 47.3878 6.06953C47.3878 9.42067 44.6618 12.1391 41.3012 12.1391ZM41.3012 2.33173C39.2332 2.33173 37.553 4.0073 37.553 6.06953C37.553 8.13177 39.2332 9.80734 41.3012 9.80734C43.3693 9.80734 45.0495 8.13177 45.0495 6.06953C45.0495 4.0073 43.3693 2.33173 41.3012 2.33173Z" fill="#5541D9"/>
<path d="M51.324 16.4395C50.6777 16.4395 50.149 15.9122 50.149 15.2677C50.149 12.6782 48.175 10.5457 45.637 10.2996C44.4972 11.4713 42.9344 12.1392 41.2777 12.1392C39.6209 12.1392 38.0699 11.4831 36.9184 10.2996C34.3922 10.5574 32.4064 12.6899 32.4064 15.2677C32.4064 15.9122 31.8777 16.4395 31.2314 16.4395C30.5851 16.4395 30.0564 15.9122 30.0564 15.2677C30.0564 11.2253 33.3582 7.93274 37.4119 7.93274C37.7644 7.93274 38.1052 8.09678 38.3284 8.37799C39.0452 9.28022 40.1144 9.79578 41.2659 9.79578C42.4174 9.79578 43.4867 9.28022 44.2034 8.37799C44.4267 8.09678 44.7675 7.93274 45.12 7.93274C49.1737 7.93274 52.4755 11.2253 52.4755 15.2677C52.4755 15.9122 51.9467 16.4395 51.3005 16.4395H51.324Z" fill="#5541D9"/>
<path d="M21.2324 12.1391C17.8719 12.1391 15.1459 9.42067 15.1459 6.06953C15.1459 2.7184 17.8836 0 21.2324 0C24.5812 0 27.3189 2.7184 27.3189 6.06953C27.3189 9.42067 24.5929 12.1391 21.2324 12.1391ZM21.2324 2.33173C19.1644 2.33173 17.4841 4.0073 17.4841 6.06953C17.4841 8.13177 19.1644 9.80734 21.2324 9.80734C23.3004 9.80734 24.9807 8.13177 24.9807 6.06953C24.9807 4.0073 23.3004 2.33173 21.2324 2.33173Z" fill="#5541D9"/>
<path d="M31.2668 16.4395C30.6206 16.4395 30.0918 15.9122 30.0918 15.2677C30.0918 12.6782 28.1178 10.5457 25.5798 10.2996C24.4401 11.4713 22.8773 12.1392 21.2206 12.1392C19.5638 12.1392 18.0128 11.4831 16.8613 10.2996C14.335 10.5574 12.3493 12.6899 12.3493 15.2677C12.3493 15.9122 11.8205 16.4395 11.1743 16.4395C10.528 16.4395 9.99927 15.9122 9.99927 15.2677C9.99927 11.2253 13.301 7.93274 17.3548 7.93274C17.7073 7.93274 18.048 8.09678 18.2713 8.37799C18.9881 9.28022 20.0573 9.79578 21.2088 9.79578C22.3603 9.79578 23.4296 9.28022 24.1463 8.37799C24.3696 8.09678 24.7103 7.93274 25.0628 7.93274C29.1166 7.93274 32.4184 11.2253 32.4184 15.2677C32.4184 15.9122 31.8896 16.4395 31.2433 16.4395H31.2668Z" fill="#5541D9"/>
<path d="M11.1977 26.2466C7.83722 26.2466 5.11121 23.5282 5.11121 20.1771C5.11121 16.8259 7.83722 14.1075 11.1977 14.1075C14.5582 14.1075 17.2843 16.8259 17.2843 20.1771C17.2843 23.5282 14.5582 26.2466 11.1977 26.2466ZM11.1977 16.4393C9.12972 16.4393 7.44947 18.1148 7.44947 20.1771C7.44947 22.2393 9.12972 23.9149 11.1977 23.9149C13.2657 23.9149 14.946 22.2393 14.946 20.1771C14.946 18.1148 13.2657 16.4393 11.1977 16.4393Z" fill="#5541D9"/>
<path d="M21.2322 33.9332C20.5859 33.9332 20.0572 33.4059 20.0572 32.7614V29.3752C20.0572 26.7856 18.0832 24.6531 15.5452 24.407C14.4054 25.5788 12.8426 26.2467 11.1859 26.2467C9.52914 26.2467 7.97813 25.5905 6.82663 24.407C4.30037 24.6648 2.31461 26.7974 2.31461 29.3752V32.7614C2.31461 33.4059 1.78586 33.9332 1.1396 33.9332C0.493352 33.9332 -0.0354004 33.4059 -0.0354004 32.7614V29.3752C-0.0354004 25.3327 3.26636 22.0402 7.32013 22.0402C7.67263 22.0402 8.01338 22.2042 8.23663 22.4854C8.95338 23.3876 10.0226 23.9032 11.1741 23.9032C12.3256 23.9032 13.3949 23.3876 14.1117 22.4854C14.3349 22.2042 14.6757 22.0402 15.0282 22.0402C19.0819 22.0402 22.3837 25.3327 22.3837 29.3752V32.7614C22.3837 33.4059 21.8549 33.9332 21.2087 33.9332H21.2322Z" fill="#5541D9"/>
<path d="M32.6417 50.8178C32.3479 50.8178 32.0424 50.7006 31.8191 50.478L30.0919 48.7673L28.3999 50.4546C28.0826 50.7709 27.6009 50.8764 27.1779 50.7241C26.7549 50.5718 26.4494 50.1851 26.4024 49.7398L25.2391 38.2569C25.2039 37.9054 25.3331 37.5656 25.5799 37.3195C25.8266 37.0735 26.1791 36.9563 26.5199 36.9797L38.0349 38.1398C38.4814 38.1866 38.8692 38.4796 39.0219 38.9131C39.1747 39.3349 39.0689 39.8153 38.7517 40.1317L37.0597 41.819L39.0337 43.7875C39.4919 44.2444 39.4919 44.9826 39.0337 45.4396C38.5754 45.8966 37.8352 45.8966 37.3769 45.4396L34.5687 42.6392C34.3454 42.4165 34.2279 42.1236 34.2279 41.819C34.2279 41.5143 34.3454 41.2097 34.5687 40.9988L35.3442 40.2254L27.7066 39.4638L28.4704 47.0683L29.2459 46.295C29.7041 45.838 30.4444 45.838 30.9026 46.295L33.4524 48.8376C33.9107 49.2946 33.9107 50.0328 33.4524 50.4897C33.2292 50.7124 32.9237 50.8295 32.6299 50.8295L32.6417 50.8178Z" fill="#5541D9"/>
<path d="M37.9643 50.8178C37.6705 50.8178 37.365 50.7006 37.1418 50.478L32.9705 46.3183C32.5123 45.8614 32.5123 45.1232 32.9705 44.6662C33.4288 44.2092 34.169 44.2092 34.6273 44.6662L38.7985 48.8258C39.2568 49.2828 39.2568 50.021 38.7985 50.478C38.5753 50.7006 38.2698 50.8178 37.976 50.8178H37.9643Z" fill="#5541D9"/>
<path d="M56.2473 55.9616H14.4759C13.8297 55.9616 13.3009 55.4343 13.3009 54.7899C13.3009 54.1454 13.8297 53.6182 14.4759 53.6182H56.2473C56.8936 53.6182 57.4223 54.1454 57.4223 54.7899C57.4223 55.4343 56.8936 55.9616 56.2473 55.9616Z" fill="#5541D9"/>
<path d="M14.8754 40.8228H1.17488C0.52863 40.8228 -0.00012207 40.2955 -0.00012207 39.6511C-0.00012207 39.0066 0.52863 38.4794 1.17488 38.4794H14.8754C15.5217 38.4794 16.0504 39.0066 16.0504 39.6511C16.0504 40.2955 15.5217 40.8228 14.8754 40.8228Z" fill="#5541D9"/>
<path d="M14.8754 48.0172H1.17488C0.52863 48.0172 -0.00012207 47.4899 -0.00012207 46.8454C-0.00012207 46.201 0.52863 45.6737 1.17488 45.6737H14.8754C15.5217 45.6737 16.0504 46.201 16.0504 46.8454C16.0504 47.4899 15.5217 48.0172 14.8754 48.0172Z" fill="#5541D9"/>
<path d="M61.3585 40.8228H47.6579C47.0117 40.8228 46.4829 40.2955 46.4829 39.6511C46.4829 39.0066 47.0117 38.4794 47.6579 38.4794H61.3585C62.0047 38.4794 62.5335 39.0066 62.5335 39.6511C62.5335 40.2955 62.0047 40.8228 61.3585 40.8228Z" fill="#5541D9"/>
<path d="M61.3585 48.0172H47.6579C47.0117 48.0172 46.4829 47.4899 46.4829 46.8454C46.4829 46.201 47.0117 45.6737 47.6579 45.6737H61.3585C62.0047 45.6737 62.5335 46.201 62.5335 46.8454C62.5335 47.4899 62.0047 48.0172 61.3585 48.0172Z" fill="#5541D9"/>
</g>
<defs>
<clipPath id="clip0_59_841">
<rect width="66" height="61" fill="white"/>
</clipPath>
</defs>
</svg>
