<svg width="52" height="52" viewBox="0 0 52 52" fill="none" xmlns="http://www.w3.org/2000/svg">
<g clip-path="url(#clip0_59_975)">
<path d="M51.147 50.3504H49.9835C49.9932 50.2567 50.0126 50.163 50.0126 50.0693V47.6703C50.0126 46.602 49.1205 45.7399 48.0152 45.7399H47.9376C47.9473 45.6462 47.9667 45.5525 47.9667 45.4587V43.0598C47.9667 42.966 47.9473 42.8723 47.9376 42.7786H49.0915C50.1968 42.7786 51.0888 41.9165 51.0888 40.8482V38.4492C51.0888 37.3809 50.1968 36.5188 49.0915 36.5188H48.1897C48.1994 36.425 48.2188 36.3313 48.2188 36.2376V33.8386C48.2188 32.7703 47.3268 31.9082 46.2214 31.9082H41.2958V21.853H43.7489C44.0786 21.853 44.3792 21.6656 44.5246 21.3751C44.6603 21.0846 44.6119 20.7379 44.3986 20.4942L42.8666 18.7606V7.17797C42.8666 6.71879 42.4884 6.35332 42.0133 6.35332H39.279V3.80439C39.279 3.34521 38.9009 2.97974 38.4258 2.97974H4.07261C3.59751 2.97974 3.21936 3.34521 3.21936 3.80439V47.8015C3.21936 48.2607 3.59751 48.6262 4.07261 48.6262H6.80691V51.1751C6.80691 51.6343 7.18505 51.9997 7.66016 51.9997H51.147C51.6221 51.9997 52.0003 51.6343 52.0003 51.1751C52.0003 50.7159 51.6221 50.3504 51.147 50.3504Z" fill="#BFBBF2"/>
<path d="M4.44104 45.6464H0.853498C0.378391 45.6464 0.000244141 45.281 0.000244141 44.8218V0.824653C0.000244141 0.365471 0.378391 0 0.853498 0H35.197C35.6721 0 36.0502 0.365471 36.0502 0.824653V4.19823C36.0502 4.65742 35.6721 5.02289 35.197 5.02289H5.2943V44.8218C5.2943 45.281 4.91615 45.6464 4.44104 45.6464ZM1.70675 43.9971H3.58779V4.19823C3.58779 3.73905 3.96593 3.37358 4.44104 3.37358H34.3437V1.64931H1.70675V43.9971Z" fill="#5541D9"/>
<path d="M47.9279 49.0197H4.44102C3.96591 49.0197 3.58777 48.6542 3.58777 48.1951V4.19794C3.58777 3.73876 3.96591 3.37329 4.44102 3.37329H38.7845C39.2596 3.37329 39.6377 3.73876 39.6377 4.19794V8.67731C39.6377 9.13649 39.2596 9.50196 38.7845 9.50196C38.3094 9.50196 37.9312 9.13649 37.9312 8.67731V5.0226H5.29428V47.3704H47.9279C48.403 47.3704 48.7811 47.7359 48.7811 48.1951C48.7811 48.6542 48.403 49.0197 47.9279 49.0197Z" fill="#5541D9"/>
<path d="M27.9347 11.1045H12.7894C12.3143 11.1045 11.9362 10.739 11.9362 10.2799C11.9362 9.82067 12.3143 9.4552 12.7894 9.4552H27.9347C28.4098 9.4552 28.7879 9.82067 28.7879 10.2799C28.7879 10.739 28.4098 11.1045 27.9347 11.1045Z" fill="#5541D9"/>
<path d="M22.6309 16.1836H9.90965C9.43454 16.1836 9.0564 15.8181 9.0564 15.359C9.0564 14.8998 9.43454 14.5343 9.90965 14.5343H22.6309C23.106 14.5343 23.4841 14.8998 23.4841 15.359C23.4841 15.8181 23.106 16.1836 22.6309 16.1836Z" fill="#5541D9"/>
<path d="M22.6309 21.2627H9.90965C9.43454 21.2627 9.0564 20.8972 9.0564 20.4381C9.0564 19.9789 9.43454 19.6134 9.90965 19.6134H22.6309C23.106 19.6134 23.4841 19.9789 23.4841 20.4381C23.4841 20.8972 23.106 21.2627 22.6309 21.2627Z" fill="#5541D9"/>
<path d="M22.6309 26.3512H9.90965C9.43454 26.3512 9.0564 25.9857 9.0564 25.5266C9.0564 25.0674 9.43454 24.7019 9.90965 24.7019H22.6309C23.106 24.7019 23.4841 25.0674 23.4841 25.5266C23.4841 25.9857 23.106 26.3512 22.6309 26.3512Z" fill="#5541D9"/>
<path d="M44.7961 49.0198H26.8293C25.7239 49.0198 24.8319 48.1576 24.8319 47.0893V44.6903C24.8319 43.622 25.7239 42.7599 26.8293 42.7599H44.7961C45.9015 42.7599 46.7935 43.622 46.7935 44.6903V47.0893C46.7935 48.1576 45.9015 49.0198 44.7961 49.0198ZM26.8293 44.4092C26.6645 44.4092 26.5384 44.5404 26.5384 44.6903V47.0893C26.5384 47.2486 26.6742 47.3704 26.8293 47.3704H44.7961C44.9609 47.3704 45.087 47.2486 45.087 47.0893V44.6903C45.087 44.531 44.9512 44.4092 44.7961 44.4092H26.8293Z" fill="#5541D9"/>
<path d="M40.4329 49.0198H31.1925C30.3587 49.0198 29.7478 48.2045 29.7478 47.0893V44.6903C29.7478 43.5752 30.3587 42.7599 31.1925 42.7599H40.4329C41.2667 42.7599 41.8776 43.5752 41.8776 44.6903V47.0893C41.8776 48.2045 41.2764 49.0198 40.4329 49.0198ZM31.4834 47.3704H40.1323C40.1517 47.3048 40.1614 47.2018 40.1614 47.0893V44.6903C40.1614 44.5685 40.142 44.4748 40.1323 44.4092H31.4834C31.464 44.4748 31.4543 44.5779 31.4543 44.6903V47.0893C31.4543 47.2111 31.4737 47.3048 31.4834 47.3704Z" fill="#5541D9"/>
<path d="M42.7502 44.4092H24.7834C23.678 44.4092 22.786 43.547 22.786 42.4787V40.0797C22.786 39.0114 23.678 38.1493 24.7834 38.1493H42.7502C43.8556 38.1493 44.7476 39.0114 44.7476 40.0797V42.4787C44.7476 43.547 43.8556 44.4092 42.7502 44.4092ZM24.7834 39.7986C24.6186 39.7986 24.4925 39.9298 24.4925 40.0797V42.4787C24.4925 42.638 24.6283 42.7599 24.7834 42.7599H42.7502C42.915 42.7599 43.0411 42.6287 43.0411 42.4787V40.0797C43.0411 39.9204 42.9053 39.7986 42.7502 39.7986H24.7834Z" fill="#5541D9"/>
<path d="M38.3868 44.4092H29.1465C28.3126 44.4092 27.7018 43.5939 27.7018 42.4787V40.0797C27.7018 38.9646 28.3126 38.1493 29.1465 38.1493H38.3868C39.2207 38.1493 39.8316 38.9646 39.8316 40.0797V42.4787C39.8316 43.5939 39.2304 44.4092 38.3868 44.4092ZM29.4374 42.7599H38.0863C38.1057 42.6943 38.1154 42.5912 38.1154 42.4787V40.0797C38.1154 39.9579 38.096 39.8642 38.0863 39.7986H29.4374C29.418 39.8642 29.4083 39.9673 29.4083 40.0797V42.4787C29.4083 42.6005 29.4277 42.6943 29.4374 42.7599Z" fill="#5541D9"/>
<path d="M45.8722 39.7987H27.8957C26.7904 39.7987 25.8983 38.9365 25.8983 37.8682V35.4693C25.8983 34.401 26.7904 33.5388 27.8957 33.5388H45.8625C46.9679 33.5388 47.8599 34.401 47.8599 35.4693V37.8682C47.8599 38.9365 46.9679 39.7987 45.8625 39.7987H45.8722ZM27.9054 35.1881C27.7406 35.1881 27.6145 35.3193 27.6145 35.4693V37.8682C27.6145 38.0276 27.7406 38.1494 27.9054 38.1494H45.8722C46.037 38.1494 46.1631 38.0276 46.1631 37.8682V35.4693C46.1631 35.3099 46.0273 35.1881 45.8722 35.1881H27.8957H27.9054Z" fill="#5541D9"/>
<path d="M41.509 39.7987H32.2687C31.4348 39.7987 30.824 38.9834 30.824 37.8682V35.4693C30.824 34.3541 31.4251 33.5388 32.2687 33.5388H41.509C42.3429 33.5388 42.9538 34.3541 42.9538 35.4693V37.8682C42.9538 38.9834 42.3429 39.7987 41.509 39.7987ZM32.5596 38.1494H41.2085C41.2279 38.0838 41.2375 37.9807 41.2375 37.8682V35.4693C41.2375 35.3474 41.2182 35.2537 41.2085 35.1881H32.5596C32.5402 35.2537 32.5305 35.3568 32.5305 35.4693V37.8682C32.5305 37.9901 32.5499 38.0838 32.5596 38.1494Z" fill="#5541D9"/>
<path d="M42.9925 35.1881H25.0257C23.9204 35.1881 23.0283 34.326 23.0283 33.2577V30.8587C23.0283 29.7904 23.9204 28.9282 25.0257 28.9282H42.9925C44.0979 28.9282 44.9899 29.7904 44.9899 30.8587V33.2577C44.9899 34.326 44.0979 35.1881 42.9925 35.1881ZM25.0257 30.5775C24.8609 30.5775 24.7348 30.7087 24.7348 30.8587V33.2577C24.7348 33.417 24.8706 33.5388 25.0257 33.5388H42.9925C43.1574 33.5388 43.2834 33.417 43.2834 33.2577V30.8587C43.2834 30.6994 43.1477 30.5775 42.9925 30.5775H25.0257Z" fill="#5541D9"/>
<path d="M38.6293 35.1881H29.3889C28.5551 35.1881 27.9442 34.3728 27.9442 33.2577V30.8587C27.9442 29.7435 28.5454 28.9282 29.3889 28.9282H38.6293C39.4631 28.9282 40.074 29.7435 40.074 30.8587V33.2577C40.074 34.3728 39.4631 35.1881 38.6293 35.1881ZM29.6798 33.5388H38.3287C38.3481 33.4732 38.3578 33.3701 38.3578 33.2577V30.8587C38.3578 30.7368 38.3384 30.6431 38.3287 30.5775H29.6798C29.6604 30.6431 29.6507 30.7462 29.6507 30.8587V33.2577C29.6507 33.3795 29.6701 33.4732 29.6798 33.5388Z" fill="#5541D9"/>
<path d="M32.1583 9.99996L39.0619 9.99996C39.537 9.99996 39.9152 10.3654 39.9152 10.8246L39.9152 17.6749L42.3683 17.6749C42.6979 17.6749 42.9985 17.8623 43.144 18.1528C43.2797 18.4433 43.2312 18.79 43.0179 19.0337L36.2597 26.6804C36.0949 26.8679 35.8622 26.9709 35.6101 26.9709C35.358 26.9709 35.1253 26.8679 34.9605 26.6804L28.2023 19.0337C27.989 18.79 27.9405 18.4433 28.0763 18.1528C28.212 17.8623 28.5223 17.6749 28.852 17.6749L31.3051 17.6749L31.3051 10.8246C31.3051 10.3654 31.6832 9.99996 32.1583 9.99996ZM38.2184 11.6493L33.0116 11.6493L33.0116 18.4995C33.0116 18.9587 32.6334 19.3242 32.1583 19.3242L30.7039 19.3242L35.6101 24.8718L40.5163 19.3242L39.0619 19.3242C38.5868 19.3242 38.2087 18.9587 38.2087 18.4995L38.2087 11.6493L38.2184 11.6493Z" fill="#5541D9"/>
</g>
<defs>
<clipPath id="clip0_59_975">
<rect width="52" height="52" fill="white" transform="translate(0.000244141)"/>
</clipPath>
</defs>
</svg>
