<svg width="65" height="49" viewBox="0 0 65 49" fill="none" xmlns="http://www.w3.org/2000/svg">
<path d="M64.8952 11.2988C64.616 10.4233 63.8363 9.86308 62.9171 9.86308H57.7506C57.6575 9.86308 57.576 9.80472 57.5528 9.71134L55.9586 4.78566C55.6793 3.91024 54.8997 3.34998 53.9805 3.34998C53.0612 3.34998 52.2816 3.91024 52.0023 4.78566L50.4081 9.71134C50.3849 9.79304 50.3034 9.8514 50.2103 9.8514H45.0438C44.1246 9.8514 43.3449 10.4117 43.0657 11.2871C42.7864 12.1625 43.0773 13.0729 43.822 13.6215L45.4046 14.7771H14.2893C9.9024 14.7771 6.33008 18.3605 6.33008 22.7609C6.33008 27.1613 9.85586 30.6863 14.1962 30.733C12.474 32.192 11.3686 34.3864 11.3686 36.8259C11.3686 41.2263 14.9409 44.8097 19.3278 44.8097H35.3276V48.0546C35.3276 48.4398 35.5603 48.7783 35.9094 48.93C36.0257 48.9767 36.1537 49 36.2701 49C36.5145 49 36.7588 48.9067 36.9334 48.7199L39.6097 46.0353L42.2628 48.6966C42.5304 48.965 42.9377 49.0467 43.2984 48.9067C43.6475 48.7549 43.8802 48.4164 43.8802 48.0313V44.8097H59.7171C60.2407 44.8097 60.6597 44.3895 60.6597 43.8643C60.6597 43.339 60.2407 42.9188 59.7171 42.9188H58.7048C57.099 39.0203 57.099 34.6549 58.7048 30.7564H59.7171C60.2407 30.7564 60.6597 30.3362 60.6597 29.8109C60.6597 29.2857 60.2407 28.8655 59.7171 28.8655H53.6546C52.7703 26.7061 52.3747 24.4183 52.4677 22.1306L53.8292 21.1384C53.899 21.0801 54.0037 21.0801 54.0735 21.1384L58.251 24.1849C58.9957 24.7218 59.9498 24.7218 60.6946 24.1849C61.4393 23.648 61.7302 22.7259 61.4509 21.8505L59.8568 16.9248C59.8335 16.8314 59.8568 16.738 59.9382 16.6913L64.1156 13.6449C64.8603 13.108 65.1512 12.1858 64.872 11.3104L64.8952 11.2988ZM56.9244 11.5322H56.8895V11.5089C56.8895 11.5089 56.9128 11.5205 56.9244 11.5322Z" fill="#BFBBF2"/>
<path d="M28.7414 17.1115H9.61148C9.08785 17.1115 8.66895 17.5317 8.66895 18.0569C8.66895 18.5822 9.08785 19.0024 9.61148 19.0024H15.9183V22.9943C15.9183 23.5195 16.3372 23.9397 16.8609 23.9397H20.4215C20.9452 23.9397 21.3641 23.5195 21.3641 22.9943V19.0024H28.7182C29.2418 19.0024 29.6607 18.5822 29.6607 18.0569C29.6607 17.5317 29.2418 17.1115 28.7182 17.1115H28.7414ZM19.4906 22.0488H17.815V19.014H19.4906V22.0488Z" fill="#5541D9"/>
<path d="M42.1233 21.2202C41.6928 21.2202 41.2739 21.0802 40.9015 20.8117C40.1568 20.2748 39.8659 19.3527 40.1452 18.4773L41.7393 13.5516C41.7626 13.4699 41.7393 13.3648 41.6579 13.3181L37.4805 10.2717C36.7358 9.73476 36.4448 8.81265 36.7241 7.93724C37.0034 7.06182 37.783 6.50155 38.7023 6.50155H43.8688C43.9619 6.50155 44.0433 6.44319 44.0666 6.36149L45.6607 1.43581C45.94 0.560389 46.7196 0.00012207 47.6389 0.00012207C48.5582 0.00012207 49.3378 0.560389 49.6171 1.43581L51.2112 6.36149C51.2345 6.45486 51.316 6.51322 51.409 6.51322H56.5755C57.4948 6.51322 58.2744 7.07349 58.5537 7.94891C58.833 8.82432 58.5421 9.73476 57.7973 10.2834L53.6199 13.3298C53.5501 13.3882 53.5152 13.4815 53.5385 13.5632L55.1326 18.4889C55.4119 19.3643 55.121 20.2748 54.3763 20.8234C53.6316 21.3603 52.6774 21.3603 51.9327 20.8234L47.7553 17.7769C47.6855 17.7186 47.5807 17.7186 47.5109 17.7769L43.3335 20.8234C42.9611 21.0918 42.5422 21.2319 42.1117 21.2319L42.1233 21.2202ZM38.7139 8.38078C38.7139 8.38078 38.5626 8.38078 38.5161 8.52085C38.4696 8.66091 38.5626 8.73095 38.5975 8.75429L42.775 11.8007C43.508 12.3377 43.8106 13.2714 43.5313 14.1352L41.9372 19.0609C41.9372 19.0609 41.8906 19.2009 42.0186 19.2943C42.1466 19.3877 42.2397 19.3177 42.263 19.2943L46.4404 16.2479C47.1735 15.7109 48.1509 15.7109 48.884 16.2479L53.0614 19.2943C53.0614 19.2943 53.1894 19.3877 53.3058 19.2943C53.4338 19.2009 53.3988 19.0959 53.3872 19.0609L51.793 14.1352C51.5138 13.2714 51.8163 12.3377 52.5494 11.8007L56.7268 8.75429C56.7268 8.75429 56.8548 8.66091 56.8083 8.52085C56.7617 8.38078 56.6453 8.38078 56.6104 8.38078H51.444C50.5363 8.38078 49.7451 7.79717 49.4658 6.93342L47.8716 2.00775C47.8716 2.00775 47.8251 1.86768 47.6738 1.86768C47.5225 1.86768 47.4876 1.97273 47.476 2.00775L45.8818 6.93342C45.6026 7.79717 44.8113 8.36911 43.9037 8.36911H38.7372L38.7139 8.38078Z" fill="#5541D9"/>
<path d="M53.3987 27.3948C53.9223 27.3948 54.3412 26.9746 54.3412 26.4494C54.3412 25.9241 53.9223 25.5039 53.3987 25.5039H47.3362C46.2889 22.9594 45.9398 20.2164 46.254 17.5318L44.2642 18.9091C44.2061 21.1385 44.5435 23.3796 45.3115 25.5039H7.95918C4.61959 25.5039 1.89671 22.7726 1.89671 19.4227C1.89671 16.0728 4.61959 13.3415 7.95918 13.3415H42.9726L43.2519 12.4427L41.4832 11.4506H7.95918C3.57232 11.4506 0 15.0339 0 19.4344C0 23.8348 3.52578 27.3598 7.86609 27.4065C6.14393 28.8655 5.03849 31.0599 5.03849 33.4994C5.03849 37.8998 8.61081 41.4832 12.9977 41.4832H28.9975V44.7281C28.9975 45.1133 29.2302 45.4518 29.5793 45.6035C29.6957 45.6502 29.8237 45.6735 29.94 45.6735C30.1844 45.6735 30.4287 45.5801 30.6033 45.3934L33.2796 42.7088L35.9327 45.37C36.2003 45.6385 36.6076 45.7202 36.9683 45.5801C37.3174 45.4284 37.5501 45.0899 37.5501 44.7047V41.4832H53.387C53.9107 41.4832 54.3296 41.063 54.3296 40.5377C54.3296 40.0125 53.9107 39.5923 53.387 39.5923H52.3747C50.7689 35.6938 50.7689 31.3284 52.3747 27.4298H53.387L53.3987 27.3948ZM35.6651 42.382L33.9545 40.6661C33.6054 40.316 32.9771 40.316 32.6164 40.6661L30.8826 42.4053V33.0559H35.6651V42.3703V42.382ZM50.35 39.5573H37.5501V33.0675H42.9377C43.4613 33.0675 43.8802 32.6473 43.8802 32.1221C43.8802 31.5968 43.4613 31.1766 42.9377 31.1766H23.8194C23.2957 31.1766 22.8768 31.5968 22.8768 32.1221C22.8768 32.6473 23.2957 33.0675 23.8194 33.0675H28.9975V39.5573H12.9977C9.65807 39.5573 6.93519 36.826 6.93519 33.4761C6.93519 30.1261 9.65807 27.3948 12.9977 27.3948H50.35C48.9304 31.3284 48.9304 35.6237 50.35 39.5573Z" fill="#5541D9"/>
</svg>
