<svg width="63" height="68" viewBox="0 0 63 68" fill="none" xmlns="http://www.w3.org/2000/svg">
<g clip-path="url(#clip0_59_807)">
<path d="M50.0567 39.4483C50.7022 38.7 51.3246 37.9401 51.9124 37.1567C51.9354 37.1216 51.9585 37.0983 51.9815 37.0632C58.5051 28.5047 62.3663 18.1223 62.9887 7.21379C63.0117 6.88642 62.8849 6.57074 62.666 6.3369C62.4354 6.10306 62.1242 5.98614 61.8015 6.00953C51.0364 6.64089 40.813 10.5694 32.3762 17.1753C32.3416 17.1987 32.307 17.222 32.284 17.2571C31.5117 17.8651 30.7625 18.4848 30.0364 19.1395C29.8635 19.2915 29.7022 19.4318 29.5293 19.5838C28.7686 20.2736 28.0079 20.9868 27.2818 21.7234L11.4338 37.7998C11.1687 38.0687 11.0534 38.4662 11.1226 38.8403C11.2033 39.2145 11.4568 39.5302 11.8141 39.6705C20.032 42.9325 26.6017 49.5852 29.8174 57.9332C29.9557 58.2956 30.2669 58.5529 30.6358 58.6347C30.7164 58.6464 30.7856 58.6581 30.8663 58.6581C31.166 58.6581 31.4541 58.5412 31.6616 58.319L47.5095 42.2427C48.2357 41.5061 48.9387 40.7344 49.6187 39.9628C49.7686 39.7991 49.9069 39.6237 50.0567 39.4483Z" fill="#BFBBF2"/>
<path d="M20.4931 49.1174C20.0551 48.6731 19.3405 48.6731 18.9025 49.1174L11.745 56.3781C11.307 56.8224 11.307 57.5472 11.745 57.9915C11.964 58.2137 12.2521 58.3306 12.5403 58.3306C12.8284 58.3306 13.1166 58.2137 13.3355 57.9915L20.4931 50.7309C20.931 50.2866 20.931 49.5617 20.4931 49.1174Z" fill="#BFBBF2"/>
<path d="M9.37077 43.33L2.21325 50.5907C1.77527 51.035 1.77527 51.7599 2.21325 52.2042C2.43224 52.4263 2.72039 52.5432 3.00853 52.5432C3.29668 52.5432 3.58482 52.4263 3.80381 52.2042L10.9613 44.9435C11.3993 44.4992 11.3993 43.7743 10.9613 43.33C10.5233 42.8858 9.80875 42.8858 9.37077 43.33Z" fill="#BFBBF2"/>
<path d="M24.6077 58.7863L17.4502 66.047C17.0122 66.4913 17.0122 67.2162 17.4502 67.6605C17.6692 67.8826 17.9573 67.9995 18.2455 67.9995C18.5336 67.9995 18.8218 67.8826 19.0407 67.6605L26.1983 60.3998C26.6362 59.9555 26.6362 59.2306 26.1983 58.7863C25.7603 58.3421 25.0457 58.3421 24.6077 58.7863Z" fill="#BFBBF2"/>
<path d="M42.1846 20.3554C41.8964 20.3554 41.6083 20.2385 41.3893 20.0163C40.9513 19.5721 40.9513 18.8472 41.3893 18.4029L43.0375 16.7309C43.4754 16.2866 44.19 16.2866 44.628 16.7309C45.066 17.1752 45.066 17.9001 44.628 18.3444L42.9798 20.0163C42.7608 20.2385 42.4727 20.3554 42.1846 20.3554Z" fill="#5541D9"/>
<path d="M33.8398 33.4036C32.4221 33.4036 30.9814 32.8424 29.8634 31.7083C28.8376 30.6677 28.2383 29.2998 28.1922 27.8734C28.1461 26.4119 28.6647 25.0556 29.6559 24.0384C30.0939 23.5941 30.8085 23.5941 31.2465 24.0384C31.6845 24.4827 31.6845 25.2076 31.2465 25.6519C30.7048 26.2014 30.4166 26.9614 30.4397 27.7915C30.4743 28.645 30.8316 29.4635 31.454 30.0948C32.7218 31.3809 34.6812 31.4745 35.8338 30.3053C36.9863 29.1361 36.8941 27.1485 35.6263 25.8624C33.4825 23.6877 33.3903 20.2503 35.4188 18.1925C37.4474 16.1347 40.836 16.2283 42.9798 18.4029C44.0056 19.4435 44.6049 20.8115 44.651 22.2379C44.6971 23.6994 44.1784 25.0556 43.1872 26.0728C42.7492 26.5171 42.0346 26.5171 41.5967 26.0728C41.1587 25.6285 41.1587 24.9036 41.5967 24.4593C42.1384 23.9098 42.4265 23.1498 42.4035 22.3197C42.3689 21.4662 42.0116 20.6478 41.3892 20.0164C40.1214 18.7303 38.162 18.6368 37.0094 19.806C35.8568 20.9752 35.949 22.9628 37.2169 24.2489C39.3607 26.4236 39.4529 29.861 37.4243 31.9188C36.4446 32.9126 35.1537 33.4036 33.8398 33.4036Z" fill="#5541D9"/>
<path d="M28.8147 33.9179C28.5265 33.9179 28.2384 33.801 28.0194 33.5789C27.5814 33.1346 27.5814 32.4097 28.0194 31.9654L29.8635 30.0947C30.3015 29.6504 31.0161 29.6504 31.4541 30.0947C31.8921 30.539 31.8921 31.2639 31.4541 31.7082L29.61 33.5789C29.391 33.801 29.1028 33.9179 28.8147 33.9179Z" fill="#5541D9"/>
<path d="M28.9877 52.6486C28.907 52.6486 28.8378 52.6486 28.7571 52.6252C28.3883 52.5434 28.0771 52.2861 27.9388 51.9237C24.7231 43.5874 18.1649 36.923 9.93552 33.661C9.57822 33.5207 9.32466 33.205 9.24398 32.8309C9.1633 32.4567 9.27855 32.0592 9.55517 31.7903L25.4031 15.7139C34.6238 6.34873 46.8988 0.771704 59.9344 3.97975e-05C60.2571 -0.023344 60.5683 0.105267 60.7989 0.327413C61.0294 0.56125 61.1446 0.876931 61.1216 1.2043C60.3609 14.4278 54.8631 26.868 45.6309 36.2332L29.7829 52.3095C29.564 52.5317 29.2873 52.6486 28.9877 52.6486ZM12.3214 32.2112C19.8708 35.6603 25.9679 41.8453 29.368 49.5035L44.0288 34.6314C52.5694 25.9677 57.7791 14.5564 58.7703 2.38518C46.7604 3.40238 35.5228 8.67542 26.9822 17.3391L12.3214 32.2112Z" fill="#5541D9"/>
<path d="M36.3641 42.9325C31.7192 42.9325 27.2933 41.0968 23.9508 37.7062C20.009 33.7076 18.1994 28.189 18.9716 22.5535C19.0062 22.308 19.1215 22.0742 19.2944 21.8988L25.403 15.7021C28.5842 12.4751 32.1917 9.65737 36.122 7.319C36.2949 7.21377 36.5024 7.15531 36.7098 7.167C41.3202 7.23715 45.6539 9.09616 48.9041 12.3933C52.1544 15.6904 53.987 20.0865 54.0562 24.7633C54.0562 24.9737 54.0101 25.1842 53.9063 25.3596C51.6012 29.3465 48.8235 33.0061 45.6423 36.233L39.5337 42.4297C39.3608 42.6051 39.1418 42.722 38.8882 42.7571C38.0468 42.874 37.2055 42.9325 36.3641 42.9325ZM21.1615 23.2433C20.6083 28.0253 22.1989 32.6904 25.5413 36.081C28.8954 39.4834 33.4941 41.0852 38.1967 40.5239L44.0287 34.6079C47.0024 31.5913 49.6072 28.189 51.7856 24.471C51.6473 20.5074 50.0567 16.8011 47.3021 13.9951C44.5359 11.189 40.8822 9.58722 36.9749 9.44692C33.3097 11.6567 29.9557 14.2991 26.9821 17.3156L21.15 23.2317L21.1615 23.2433Z" fill="#5541D9"/>
<path d="M10.6616 52.3328C10.3735 52.3328 10.0853 52.2159 9.86633 51.9937C9.42835 51.5494 9.42835 50.8245 9.86633 50.3803L17.0238 43.1196C17.4618 42.6753 18.1764 42.6753 18.6144 43.1196C19.0524 43.5639 19.0524 44.2888 18.6144 44.7331L11.4569 51.9937C11.2379 52.2159 10.9498 52.3328 10.6616 52.3328Z" fill="#5541D9"/>
<path d="M1.12962 46.5454C0.84148 46.5454 0.553335 46.4285 0.334345 46.2064C-0.103636 45.7621 -0.103636 45.0372 0.334345 44.5929L7.49186 37.3322C7.92984 36.888 8.64444 36.888 9.08242 37.3322C9.5204 37.7765 9.5204 38.5014 9.08242 38.9457L1.9249 46.2064C1.70591 46.4285 1.41777 46.5454 1.12962 46.5454Z" fill="#5541D9"/>
<path d="M16.3667 62.002C16.0785 62.002 15.7904 61.8851 15.5714 61.6629C15.1334 61.2186 15.1334 60.4937 15.5714 60.0494L22.7289 52.7888C23.1669 52.3445 23.8815 52.3445 24.3195 52.7888C24.7575 53.2331 24.7575 53.958 24.3195 54.4023L17.162 61.6629C16.943 61.8851 16.6548 62.002 16.3667 62.002Z" fill="#5541D9"/>
</g>
<defs>
<clipPath id="clip0_59_807">
<rect width="63" height="68" fill="white" transform="translate(0.000244141)"/>
</clipPath>
</defs>
</svg>
