<svg width="58" height="66" viewBox="0 0 58 66" fill="none" xmlns="http://www.w3.org/2000/svg">
<g clip-path="url(#clip0_59_871)">
<path d="M22.0643 18.1909C26.3288 18.1909 29.8054 14.6976 29.8054 10.3864C29.8054 6.07515 26.3404 2.58179 22.0643 2.58179C17.7882 2.58179 14.3232 6.07515 14.3232 10.3864C14.3232 14.6976 17.7882 18.1909 22.0643 18.1909Z" fill="#BFBBF2"/>
<path d="M50.3284 30.0262H38.5199C38.5199 29.3485 37.9636 27.4792 37.9636 27.4792C37.5928 26.0538 36.9554 24.7686 36.1211 23.6704V23.647C34.3712 21.357 31.787 19.9316 28.9942 19.9316H15.1344C10.0703 19.9316 5.96801 24.383 5.78259 30.108V39.0108C5.78259 41.7447 7.71786 44.023 10.2789 44.5371C10.4411 46.4181 11.0553 48.2174 12.0403 49.8063C12.0403 49.8297 12.0519 49.853 12.0635 49.8647C12.9442 51.5355 16.1079 54.2227 16.1079 54.2227V64.8196C16.1079 65.4622 16.6293 65.9879 17.2667 65.9879H50.3284C50.9658 65.9879 51.4873 65.4622 51.4873 64.8196V36.8026V31.1945C51.4873 30.5519 50.9658 30.0262 50.3284 30.0262Z" fill="#BFBBF2"/>
<path d="M49.8418 21.6607C50.4792 21.6607 51.0007 21.1349 51.0007 20.4923V19.768C51.0007 19.1254 50.4792 18.5996 49.8418 18.5996C49.2045 18.5996 48.683 19.1254 48.683 19.768V20.4923C48.683 21.1349 49.2045 21.6607 49.8418 21.6607Z" fill="#BFBBF2"/>
<path d="M52.5649 21.7078H51.8465C51.2091 21.7078 50.6876 22.2335 50.6876 22.8761C50.6876 23.5187 51.2091 24.0445 51.8465 24.0445H52.5649C53.2023 24.0445 53.7238 23.5187 53.7238 22.8761C53.7238 22.2335 53.2023 21.7078 52.5649 21.7078Z" fill="#BFBBF2"/>
<path d="M47.1184 24.0445H47.8369C48.4743 24.0445 48.9958 23.5187 48.9958 22.8761C48.9958 22.2335 48.4743 21.7078 47.8369 21.7078H47.1184C46.4811 21.7078 45.9596 22.2335 45.9596 22.8761C45.9596 23.5187 46.4811 24.0445 47.1184 24.0445Z" fill="#BFBBF2"/>
<path d="M48.683 25.2594V25.9838C48.683 26.6264 49.2045 27.1521 49.8418 27.1521C50.4792 27.1521 51.0007 26.6264 51.0007 25.9838V25.2594C51.0007 24.6168 50.4792 24.0911 49.8418 24.0911C49.2045 24.0911 48.683 24.6168 48.683 25.2594Z" fill="#BFBBF2"/>
<path d="M38.7748 10.246C39.4122 10.246 39.9336 9.72023 39.9336 9.07764V8.22474C39.9336 7.58215 39.4122 7.0564 38.7748 7.0564C38.1374 7.0564 37.616 7.58215 37.616 8.22474V9.07764C37.616 9.72023 38.1374 10.246 38.7748 10.246Z" fill="#BFBBF2"/>
<path d="M41.1272 13.0501H41.9732C42.6105 13.0501 43.132 12.5243 43.132 11.8817C43.132 11.2391 42.6105 10.7134 41.9732 10.7134H41.1272C40.4899 10.7134 39.9684 11.2391 39.9684 11.8817C39.9684 12.5243 40.4899 13.0501 41.1272 13.0501Z" fill="#BFBBF2"/>
<path d="M35.5647 13.0501H36.4107C37.048 13.0501 37.5695 12.5243 37.5695 11.8817C37.5695 11.2391 37.048 10.7134 36.4107 10.7134H35.5647C34.9274 10.7134 34.4059 11.2391 34.4059 11.8817C34.4059 12.5243 34.9274 13.0501 35.5647 13.0501Z" fill="#BFBBF2"/>
<path d="M38.7748 16.7069C39.4122 16.7069 39.9336 16.1812 39.9336 15.5386V14.6857C39.9336 14.0431 39.4122 13.5173 38.7748 13.5173C38.1374 13.5173 37.616 14.0431 37.616 14.6857V15.5386C37.616 16.1812 38.1374 16.7069 38.7748 16.7069Z" fill="#BFBBF2"/>
<path d="M53.8164 7.29007C54.4538 7.29007 54.9753 6.76432 54.9753 6.12173V5.31557C54.9753 4.67297 54.4538 4.14722 53.8164 4.14722C53.1791 4.14722 52.6576 4.67297 52.6576 5.31557V6.12173C52.6576 6.76432 53.1791 7.29007 53.8164 7.29007Z" fill="#BFBBF2"/>
<path d="M56.841 7.60571H56.0414C55.404 7.60571 54.8826 8.13147 54.8826 8.77406C54.8826 9.41665 55.404 9.94241 56.0414 9.94241H56.841C57.4784 9.94241 57.9998 9.41665 57.9998 8.77406C57.9998 8.13147 57.4784 7.60571 56.841 7.60571Z" fill="#BFBBF2"/>
<path d="M50.7802 9.93069H51.5798C52.2171 9.93069 52.7386 9.40493 52.7386 8.76234C52.7386 8.11975 52.2171 7.59399 51.5798 7.59399H50.7802C50.1428 7.59399 49.6213 8.11975 49.6213 8.76234C49.6213 9.40493 50.1428 9.93069 50.7802 9.93069Z" fill="#BFBBF2"/>
<path d="M53.8164 10.2576C53.1791 10.2576 52.6576 10.7833 52.6576 11.4259V12.2321C52.6576 12.8747 53.1791 13.4004 53.8164 13.4004C54.4538 13.4004 54.9753 12.8747 54.9753 12.2321V11.4259C54.9753 10.7833 54.4538 10.2576 53.8164 10.2576Z" fill="#BFBBF2"/>
<path d="M11.206 34.1975C10.5686 34.1975 10.0471 33.6717 10.0471 33.0291V26.7785C10.0471 26.1359 10.5686 25.6101 11.206 25.6101C11.8433 25.6101 12.3648 26.1359 12.3648 26.7785V33.0291C12.3648 33.6717 11.8433 34.1975 11.206 34.1975Z" fill="#5541D9"/>
<path d="M26.1203 34.1975C25.4829 34.1975 24.9614 33.6717 24.9614 33.0291V26.7785C24.9614 26.1359 25.4829 25.6101 26.1203 25.6101C26.7576 25.6101 27.2791 26.1359 27.2791 26.7785V33.0291C27.2791 33.6717 26.7576 34.1975 26.1203 34.1975Z" fill="#5541D9"/>
<path d="M7.98441 42.0604C4.90189 42.0604 2.38721 39.5251 2.38721 36.4173V27.5144C2.56103 21.7895 6.67492 17.3381 11.7391 17.3381H25.5988C29.7243 17.3381 33.4094 20.4343 34.5682 24.874C34.7305 25.4932 34.3596 26.1358 33.7454 26.2994C33.1313 26.4629 32.4939 26.0891 32.3317 25.4698C31.4394 22.0466 28.6697 19.6631 25.5872 19.6631H11.7391C7.92647 19.6631 4.83236 23.1215 4.6933 27.5495V36.4056C4.6933 38.2282 6.16503 39.7237 7.98441 39.7237C8.62177 39.7237 9.14325 40.2494 9.14325 40.892C9.14325 41.5346 8.62177 42.0604 7.98441 42.0604Z" fill="#5541D9"/>
<path d="M18.669 15.5972C14.4045 15.5972 10.928 12.1038 10.928 7.79264C10.928 3.48143 14.4045 -0.000244141 18.669 -0.000244141C22.9336 -0.000244141 26.4101 3.49312 26.4101 7.80432C26.4101 12.1155 22.9452 15.6089 18.669 15.6089V15.5972ZM18.669 2.32477C15.6792 2.32477 13.2457 4.7783 13.2457 7.79264C13.2457 10.807 15.6792 13.2605 18.669 13.2605C21.6588 13.2605 24.0924 10.807 24.0924 7.79264C24.0924 4.7783 21.6588 2.32477 18.669 2.32477Z" fill="#5541D9"/>
<path d="M53.4458 63.406H1.15884C0.521478 63.406 0 62.8803 0 62.2377C0 61.5951 0.521478 61.0693 1.15884 61.0693H53.4458C54.0831 61.0693 54.6046 61.5951 54.6046 62.2377C54.6046 62.8803 54.0831 63.406 53.4458 63.406Z" fill="#5541D9"/>
<path d="M11.5306 50.0752C11.2525 50.0752 10.9859 49.9818 10.7658 49.7831C8.27424 47.5165 6.83728 44.2802 6.83728 40.9037C6.83728 34.3259 12.1448 28.9749 18.6691 28.9749C21.9717 28.9749 24.8341 30.0965 26.9432 32.2229C27.3951 32.6785 27.3951 33.4146 26.9432 33.8702C26.4912 34.3259 25.7612 34.3259 25.3092 33.8702C23.6173 32.1644 21.3807 31.2999 18.6691 31.2999C13.4195 31.2999 9.14337 35.6111 9.14337 40.9037C9.14337 43.6259 10.3022 46.2314 12.307 48.054C12.7821 48.4863 12.8169 49.2223 12.3997 49.7014C12.1679 49.9584 11.8551 50.0869 11.5422 50.0869L11.5306 50.0752Z" fill="#5541D9"/>
<path d="M20.7895 47.5399H16.5366C15.482 47.5399 14.6129 46.6754 14.6129 45.6005V45.2032C14.6129 44.5607 15.1344 44.0349 15.7718 44.0349C16.4091 44.0349 16.9306 44.5607 16.9306 45.2032H20.4071V42.0487H16.5366C15.482 42.0487 14.6129 41.1841 14.6129 40.1093V36.1836C14.6129 35.1204 15.4705 34.2441 16.5366 34.2441H20.7895C21.8441 34.2441 22.7132 35.1087 22.7132 36.1836V36.5107C22.7132 37.1533 22.1917 37.6791 21.5544 37.6791C20.917 37.6791 20.4303 37.1884 20.4071 36.5808H16.9306V39.7354H20.7895C21.8441 39.7354 22.7132 40.6 22.7132 41.6748V45.6005C22.7132 46.6637 21.8557 47.5399 20.7895 47.5399Z" fill="#5541D9"/>
<path d="M30.4079 63.406H13.8712C13.2339 63.406 12.7124 62.8802 12.7124 62.2376V56.6295C12.7124 55.9869 13.2339 55.4612 13.8712 55.4612H30.3963C31.0337 55.4612 31.5552 55.9869 31.5552 56.6295V62.2376C31.5552 62.8802 31.0337 63.406 30.3963 63.406H30.4079ZM15.0301 61.0809H29.2491V57.7979H15.0301V61.0809Z" fill="#5541D9"/>
<path d="M30.4079 57.798H13.8712C13.2339 57.798 12.7124 57.2723 12.7124 56.6297V51.0216C12.7124 50.379 13.2339 49.8533 13.8712 49.8533H30.3963C31.0337 49.8533 31.5552 50.379 31.5552 51.0216V56.6297C31.5552 57.2723 31.0337 57.798 30.3963 57.798H30.4079ZM15.0301 55.473H29.2491V52.19H15.0301V55.473Z" fill="#5541D9"/>
<path d="M46.9331 35.3657H30.408C29.7706 35.3657 29.2491 34.8399 29.2491 34.1973V28.5892C29.2491 27.9467 29.7706 27.4209 30.408 27.4209H46.9331C47.5704 27.4209 48.0919 27.9467 48.0919 28.5892V34.1973C48.0919 34.8399 47.5704 35.3657 46.9331 35.3657ZM31.5552 33.0407H45.7742V29.7576H31.5552V33.0407Z" fill="#5541D9"/>
<path d="M46.9331 46.5935H30.408C29.7706 46.5935 29.2491 46.0677 29.2491 45.4251V39.817C29.2491 39.1744 29.7706 38.6487 30.408 38.6487H46.9331C47.5704 38.6487 48.0919 39.1744 48.0919 39.817V45.4251C48.0919 46.0677 47.5704 46.5935 46.9331 46.5935ZM31.5552 44.2684H45.7742V40.9854H31.5552V44.2684Z" fill="#5541D9"/>
<path d="M46.9331 40.9855H30.408C29.7706 40.9855 29.2491 40.4598 29.2491 39.8172V34.2091C29.2491 33.5665 29.7706 33.0408 30.408 33.0408H46.9331C47.5704 33.0408 48.0919 33.5665 48.0919 34.2091V39.8172C48.0919 40.4598 47.5704 40.9855 46.9331 40.9855ZM31.5552 38.6605H45.7742V35.3775H31.5552V38.6605Z" fill="#5541D9"/>
<path d="M46.9331 63.406H30.408C29.7706 63.406 29.2491 62.8802 29.2491 62.2376V56.6295C29.2491 55.9869 29.7706 55.4612 30.408 55.4612H46.9331C47.5704 55.4612 48.0919 55.9869 48.0919 56.6295V62.2376C48.0919 62.8802 47.5704 63.406 46.9331 63.406ZM31.5552 61.0809H45.7742V57.7979H31.5552V61.0809Z" fill="#5541D9"/>
<path d="M46.9331 57.798H30.408C29.7706 57.798 29.2491 57.2723 29.2491 56.6297V51.0216C29.2491 50.379 29.7706 49.8533 30.408 49.8533H46.9331C47.5704 49.8533 48.0919 50.379 48.0919 51.0216V56.6297C48.0919 57.2723 47.5704 57.798 46.9331 57.798ZM31.5552 55.473H45.7742V52.19H31.5552V55.473Z" fill="#5541D9"/>
<path d="M46.9331 52.1899H30.408C29.7706 52.1899 29.2491 51.6641 29.2491 51.0215V45.4135C29.2491 44.7709 29.7706 44.2451 30.408 44.2451H46.9331C47.5704 44.2451 48.0919 44.7709 48.0919 45.4135V51.0215C48.0919 51.6641 47.5704 52.1899 46.9331 52.1899ZM31.5552 49.8649H45.7742V46.5818H31.5552V49.8649Z" fill="#5541D9"/>
<path d="M42.1122 43.065C41.4748 43.065 40.9534 42.5393 40.9534 41.8967V39.817C40.9534 39.1744 41.4748 38.6487 42.1122 38.6487C42.7496 38.6487 43.2711 39.1744 43.2711 39.817V41.8967C43.2711 42.5393 42.7496 43.065 42.1122 43.065Z" fill="#5541D9"/>
<path d="M36.6657 48.6615C36.0283 48.6615 35.5068 48.1357 35.5068 47.4931V45.4135C35.5068 44.7709 36.0283 44.2451 36.6657 44.2451C37.303 44.2451 37.8245 44.7709 37.8245 45.4135V47.4931C37.8245 48.1357 37.303 48.6615 36.6657 48.6615Z" fill="#5541D9"/>
<path d="M38.6704 31.8373C38.0331 31.8373 37.5116 31.3115 37.5116 30.6689V28.5892C37.5116 27.9467 38.0331 27.4209 38.6704 27.4209C39.3078 27.4209 39.8293 27.9467 39.8293 28.5892V30.6689C39.8293 31.3115 39.3078 31.8373 38.6704 31.8373Z" fill="#5541D9"/>
<path d="M35.7849 37.4571C35.1476 37.4571 34.6261 36.9314 34.6261 36.2888V34.2091C34.6261 33.5665 35.1476 33.0408 35.7849 33.0408C36.4223 33.0408 36.9438 33.5665 36.9438 34.2091V36.2888C36.9438 36.9314 36.4223 37.4571 35.7849 37.4571Z" fill="#5541D9"/>
<path d="M18.8195 54.2696C18.1821 54.2696 17.6606 53.7439 17.6606 53.1013V51.0216C17.6606 50.379 18.1821 49.8533 18.8195 49.8533C19.4568 49.8533 19.9783 50.379 19.9783 51.0216V53.1013C19.9783 53.7439 19.4568 54.2696 18.8195 54.2696Z" fill="#5541D9"/>
<path d="M24.5789 60.1815C23.9415 60.1815 23.42 59.6557 23.42 59.0131V56.9335C23.42 56.2909 23.9415 55.7651 24.5789 55.7651C25.2162 55.7651 25.7377 56.2909 25.7377 56.9335V59.0131C25.7377 59.6557 25.2162 60.1815 24.5789 60.1815Z" fill="#5541D9"/>
<path d="M35.727 60.1815C35.0896 60.1815 34.5681 59.6557 34.5681 59.0131V56.9335C34.5681 56.2909 35.0896 55.7651 35.727 55.7651C36.3643 55.7651 36.8858 56.2909 36.8858 56.9335V59.0131C36.8858 59.6557 36.3643 60.1815 35.727 60.1815Z" fill="#5541D9"/>
<path d="M41.6139 54.2696C40.9766 54.2696 40.4551 53.7439 40.4551 53.1013V51.0216C40.4551 50.379 40.9766 49.8533 41.6139 49.8533C42.2513 49.8533 42.7728 50.379 42.7728 51.0216V53.1013C42.7728 53.7439 42.2513 54.2696 41.6139 54.2696Z" fill="#5541D9"/>
<path d="M26.1203 46.5935C25.4829 46.5935 24.9614 46.0677 24.9614 45.4251V37.8776C24.9614 37.235 25.4829 36.7092 26.1203 36.7092C26.7576 36.7092 27.2791 37.235 27.2791 37.8776V45.4251C27.2791 46.0677 26.7576 46.5935 26.1203 46.5935Z" fill="#5541D9"/>
<path d="M46.4462 19.0672C45.8088 19.0672 45.2874 18.5414 45.2874 17.8988V17.1745C45.2874 16.5319 45.8088 16.0061 46.4462 16.0061C47.0836 16.0061 47.605 16.5319 47.605 17.1745V17.8988C47.605 18.5414 47.0836 19.0672 46.4462 19.0672Z" fill="#5541D9"/>
<path d="M49.1697 21.4507H48.4512C47.8138 21.4507 47.2924 20.925 47.2924 20.2824C47.2924 19.6398 47.8138 19.114 48.4512 19.114H49.1697C49.807 19.114 50.3285 19.6398 50.3285 20.2824C50.3285 20.925 49.807 21.4507 49.1697 21.4507Z" fill="#5541D9"/>
<path d="M44.4415 21.4507H43.7231C43.0857 21.4507 42.5642 20.925 42.5642 20.2824C42.5642 19.6398 43.0857 19.114 43.7231 19.114H44.4415C45.0789 19.114 45.6004 19.6398 45.6004 20.2824C45.6004 20.925 45.0789 21.4507 44.4415 21.4507Z" fill="#5541D9"/>
<path d="M46.4462 24.5584C45.8088 24.5584 45.2874 24.0326 45.2874 23.39V22.6657C45.2874 22.0231 45.8088 21.4973 46.4462 21.4973C47.0836 21.4973 47.605 22.0231 47.605 22.6657V23.39C47.605 24.0326 47.0836 24.5584 46.4462 24.5584Z" fill="#5541D9"/>
<path d="M35.3677 7.65248C34.7303 7.65248 34.2089 7.12673 34.2089 6.48413V5.63124C34.2089 4.98865 34.7303 4.46289 35.3677 4.46289C36.0051 4.46289 36.5265 4.98865 36.5265 5.63124V6.48413C36.5265 7.12673 36.0051 7.65248 35.3677 7.65248Z" fill="#5541D9"/>
<path d="M38.5779 10.4563H37.732C37.0946 10.4563 36.5731 9.93057 36.5731 9.28798C36.5731 8.64539 37.0946 8.11963 37.732 8.11963H38.5779C39.2153 8.11963 39.7368 8.64539 39.7368 9.28798C39.7368 9.93057 39.2153 10.4563 38.5779 10.4563Z" fill="#5541D9"/>
<path d="M33.0153 10.4563H32.1693C31.532 10.4563 31.0105 9.93057 31.0105 9.28798C31.0105 8.64539 31.532 8.11963 32.1693 8.11963H33.0153C33.6527 8.11963 34.1741 8.64539 34.1741 9.28798C34.1741 9.93057 33.6527 10.4563 33.0153 10.4563Z" fill="#5541D9"/>
<path d="M35.3677 14.1134C34.7303 14.1134 34.2089 13.5877 34.2089 12.9451V12.0922C34.2089 11.4496 34.7303 10.9238 35.3677 10.9238C36.0051 10.9238 36.5265 11.4496 36.5265 12.0922V12.9451C36.5265 13.5877 36.0051 14.1134 35.3677 14.1134Z" fill="#5541D9"/>
<path d="M50.4212 4.69657C49.7838 4.69657 49.2623 4.17081 49.2623 3.52822V2.72206C49.2623 2.07947 49.7838 1.55371 50.4212 1.55371C51.0585 1.55371 51.58 2.07947 51.58 2.72206V3.52822C51.58 4.17081 51.0585 4.69657 50.4212 4.69657Z" fill="#5541D9"/>
<path d="M53.4457 7.3489H52.6461C52.0088 7.3489 51.4873 6.82315 51.4873 6.18056C51.4873 5.53796 52.0088 5.01221 52.6461 5.01221H53.4457C54.0831 5.01221 54.6046 5.53796 54.6046 6.18056C54.6046 6.82315 54.0831 7.3489 53.4457 7.3489Z" fill="#5541D9"/>
<path d="M48.1845 7.3489H47.3849C46.7476 7.3489 46.2261 6.82315 46.2261 6.18056C46.2261 5.53796 46.7476 5.01221 47.3849 5.01221H48.1845C48.8219 5.01221 49.3434 5.53796 49.3434 6.18056C49.3434 6.82315 48.8219 7.3489 48.1845 7.3489Z" fill="#5541D9"/>
<path d="M50.4212 10.7954C49.7838 10.7954 49.2623 10.2697 49.2623 9.6271V8.82094C49.2623 8.17834 49.7838 7.65259 50.4212 7.65259C51.0585 7.65259 51.58 8.17834 51.58 8.82094V9.6271C51.58 10.2697 51.0585 10.7954 50.4212 10.7954Z" fill="#5541D9"/>
</g>
<defs>
<clipPath id="clip0_59_871">
<rect width="58" height="66" fill="white"/>
</clipPath>
</defs>
</svg>
