<svg width="61" height="64" viewBox="0 0 61 64" fill="none" xmlns="http://www.w3.org/2000/svg">
<g clip-path="url(#clip0_62_1282)">
<path d="M61.0003 34.6691C60.9577 28.4038 58.9376 22.3178 55.2371 17.3056C51.5366 12.2934 46.3508 8.61954 40.4422 6.82405C34.5336 5.02856 28.2139 5.20619 22.412 7.33082C16.6102 9.45545 11.6324 13.415 8.21029 18.6274C7.96399 18.9888 7.74506 19.4058 7.49876 19.795C7.25246 20.1843 6.9788 20.6847 6.7325 21.1573C6.4862 21.63 6.13043 22.3806 5.85677 23.0201L5.47364 23.6039C5.25471 24.1321 5.00841 24.6604 4.81684 25.1886C4.81684 25.1886 4.81684 25.1886 4.81684 25.411C3.61119 29.092 3.13699 32.9795 3.42174 36.8481C3.7065 40.7167 4.74455 44.4893 6.47567 47.9471C8.2068 51.405 10.5965 54.4792 13.5063 56.9915C16.416 59.5038 19.7878 61.4041 23.4261 62.5822L23.6724 62.749C24.5207 62.9992 25.3965 63.1382 26.2448 63.3328H26.409C27.2574 63.4997 28.1058 63.6387 28.9815 63.7499H30.0761C30.7056 63.7499 31.335 63.8889 31.9644 63.8889C32.9845 63.9618 34.0076 63.9804 35.0295 63.9445L35.9052 63.8055L37.383 63.6109C44.0329 62.3606 50.0397 58.7784 54.3558 53.4892C58.672 48.2 61.0235 41.5394 61.0003 34.6691ZM51.6136 16.014L48.877 17.6265C48.6856 17.7423 48.5399 17.9222 48.4649 18.1353C48.39 18.3484 48.3905 18.5814 48.4665 18.7942L45.7298 20.3789C45.5278 20.4609 45.3024 20.4609 45.1004 20.3789L41.7069 19.5726C40.2344 19.231 38.6892 19.4694 37.383 20.2399L31.9097 23.3815L26.3269 20.1843C25.2993 19.5711 24.1812 19.1299 23.0156 18.8776H22.4409C20.9324 18.5368 19.4836 17.965 18.1443 17.1817L16.9128 16.4588C16.953 16.2757 16.953 16.0859 16.9128 15.9028C16.8853 15.7502 16.8275 15.6049 16.7428 15.4758C16.6581 15.3468 16.5483 15.2366 16.4202 15.1521L14.5867 14.0957C19.7876 9.49791 26.5411 7.1287 33.4265 7.48648C40.3118 7.84426 46.7921 10.9011 51.5041 16.014H51.6136ZM5.47364 34.6691C5.47694 32.1007 5.83623 29.5457 6.54093 27.0791L9.00392 28.5249C9.15014 28.6215 9.32215 28.6701 9.49652 28.6639C9.63099 28.6591 9.76317 28.6271 9.88534 28.5698C10.0075 28.5125 10.1172 28.4311 10.208 28.3302L12.9447 29.9149C13.1372 30.0251 13.2832 30.2032 13.3552 30.4154L14.3678 33.7794C14.812 35.2562 15.7896 36.5076 17.1044 37.2825L22.5777 40.4241V47.0409C22.5811 48.2576 22.7657 49.4668 23.125 50.6274L23.2892 51.2112C23.7476 52.7052 23.9783 54.2615 23.9734 55.8263V57.2442C23.7561 57.2838 23.5596 57.4006 23.4192 57.5738C23.2789 57.7469 23.2037 57.9652 23.2071 58.1895V60.1912C18.0317 58.2981 13.5544 54.8341 10.3822 50.2686C7.21 45.7032 5.49639 40.2573 5.47364 34.6691ZM38.3135 61.1643V58.1895C38.3159 57.9611 38.2369 57.7396 38.091 57.5658C37.9451 57.392 37.7422 57.2778 37.5198 57.2442V54.047C37.5193 53.9336 37.5407 53.8212 37.583 53.7163C37.6253 53.6113 37.6875 53.5158 37.7661 53.4354L40.1197 50.8776C41.1537 49.7536 41.7306 48.2736 41.7343 46.7351V40.4241L47.3718 37.1156C48.3868 36.504 49.3087 35.7454 50.1084 34.8637L50.5189 34.4189C51.554 33.2588 52.7641 32.2734 54.104 31.4997L55.3355 30.7768C55.4495 30.9257 55.6007 31.0409 55.7733 31.1104H56.0196C56.1813 31.1516 56.3505 31.1516 56.5122 31.1104L58.5647 29.9149C58.8725 31.5179 59.0283 33.1471 59.0299 34.7803C58.9925 40.902 56.929 46.8329 53.1712 51.6186C49.4135 56.4043 44.1802 59.7666 38.3135 61.1643Z" fill="#BFBBF2"/>
<path d="M23.344 36.2816C23.0827 36.2816 22.8321 36.1762 22.6473 35.9885C22.4626 35.8008 22.3588 35.5462 22.3588 35.2807V31.0827C22.3588 30.8172 22.4626 30.5626 22.6473 30.3749C22.8321 30.1872 23.0827 30.0818 23.344 30.0818C23.6052 30.0818 23.8558 30.1872 24.0406 30.3749C24.2254 30.5626 24.3292 30.8172 24.3292 31.0827V35.2807C24.3292 35.5462 24.2254 35.8008 24.0406 35.9885C23.8558 36.1762 23.6052 36.2816 23.344 36.2816Z" fill="#5541D9"/>
<path d="M26.6006 36.2815C26.3393 36.2815 26.0887 36.1761 25.9039 35.9884C25.7192 35.8007 25.6154 35.5461 25.6154 35.2806V27.6073C25.6154 27.3419 25.7192 27.0873 25.9039 26.8996C26.0887 26.7119 26.3393 26.6064 26.6006 26.6064C26.8618 26.6064 27.1124 26.7119 27.2972 26.8996C27.482 27.0873 27.5857 27.3419 27.5857 27.6073V35.2806C27.5857 35.5461 27.482 35.8007 27.2972 35.9884C27.1124 36.1761 26.8618 36.2815 26.6006 36.2815Z" fill="#5541D9"/>
<path d="M29.8846 36.1425C29.6233 36.1425 29.3727 36.0371 29.188 35.8494C29.0032 35.6617 28.8994 35.4071 28.8994 35.1416V27.6073C28.8994 27.3419 29.0032 27.0873 29.188 26.8996C29.3727 26.7119 29.6233 26.6064 29.8846 26.6064C30.1459 26.6064 30.3965 26.7119 30.5812 26.8996C30.766 27.0873 30.8698 27.3419 30.8698 27.6073V35.2528C30.8428 35.4986 30.7271 35.7254 30.5452 35.8897C30.3633 36.054 30.128 36.144 29.8846 36.1425Z" fill="#5541D9"/>
<path d="M33.1412 42.0365C32.8846 42.0366 32.6381 41.935 32.4541 41.7533C32.2701 41.5715 32.1631 41.3241 32.156 41.0635V34.6134C32.156 34.348 32.2598 34.0934 32.4446 33.9057C32.6293 33.718 32.8799 33.6125 33.1412 33.6125C33.4025 33.6125 33.6531 33.718 33.8378 33.9057C34.0226 34.0934 34.1264 34.348 34.1264 34.6134V41.0635C34.1193 41.3241 34.0123 41.5715 33.8283 41.7533C33.6443 41.935 33.3978 42.0366 33.1412 42.0365Z" fill="#5541D9"/>
<path d="M33.1411 53.6021H21.483C21.2217 53.6021 20.9711 53.4967 20.7863 53.309C20.6016 53.1213 20.4978 52.8667 20.4978 52.6012V50.2381C20.4889 48.6743 20.2585 47.12 19.8136 45.6229L19.622 45.0391C19.2924 43.8833 19.1355 42.6837 19.1568 41.4805V31.166C19.1341 30.542 19.3188 29.9283 19.6812 29.424C20.0436 28.9197 20.5626 28.5539 21.1546 28.3858C21.5671 28.275 22.0009 28.275 22.4134 28.3858V27.8019C22.3875 27.1851 22.5644 26.5771 22.9162 26.0737C23.268 25.5703 23.7747 25.2002 24.3565 25.0217C24.8311 24.8892 25.3322 24.8892 25.8069 25.0217C25.9638 24.6258 26.2084 24.2719 26.5216 23.9875C26.8348 23.703 27.2083 23.4956 27.6131 23.3814C28.0005 23.2946 28.4018 23.2944 28.7893 23.3808C29.1768 23.4672 29.5411 23.6382 29.8571 23.8819C30.2296 24.177 30.5139 24.5717 30.6781 25.0217C31.1528 24.8892 31.6539 24.8892 32.1286 25.0217C32.7205 25.1899 33.2395 25.5556 33.6019 26.06C33.9643 26.5643 34.149 27.1779 34.1263 27.8019V31.6942C34.5372 31.5376 34.9738 31.4621 35.4125 31.4718C36.2038 31.5601 36.9359 31.9398 37.4704 32.5391C38.0049 33.1385 38.3048 33.9159 38.3134 34.7246V41.1468C38.3152 42.6864 37.7375 44.1684 36.6988 45.2893L34.3452 47.8749C34.264 47.9534 34.2 48.0485 34.1576 48.1539C34.1151 48.2593 34.0951 48.3727 34.0989 48.4865V52.6012C34.099 52.8619 33.999 53.1124 33.8201 53.2993C33.6412 53.4862 33.3976 53.5949 33.1411 53.6021ZM22.4682 51.6004H32.1559V48.4865C32.1444 47.7515 32.4199 47.0418 32.9222 46.5126L35.2757 43.927C35.9808 43.179 36.3732 42.1825 36.3704 41.1468V34.7246C36.3947 34.4026 36.2981 34.0831 36.1001 33.8305C35.9022 33.5778 35.6174 33.4105 35.3031 33.3623C35.153 33.3549 35.0031 33.3781 34.862 33.4306C34.721 33.4832 34.5918 33.5639 34.4821 33.6681C34.26 33.8877 34.1322 34.1874 34.1263 34.5022C34.1263 34.7676 34.0225 35.0222 33.8378 35.2099C33.653 35.3976 33.4024 35.5031 33.1411 35.5031C32.8798 35.5031 32.6292 35.3976 32.4445 35.2099C32.2597 35.0222 32.1559 34.7676 32.1559 34.5022V27.8019C32.17 27.6458 32.1317 27.4894 32.0472 27.3582C31.9628 27.227 31.8371 27.1286 31.6907 27.0791C31.6033 27.0278 31.5042 27.0009 31.4033 27.0009C31.3025 27.0009 31.2034 27.0278 31.116 27.0791C31.0366 27.1409 30.9728 27.2211 30.93 27.3129C30.8871 27.4048 30.8665 27.5057 30.8697 27.6073C30.8697 27.8728 30.7659 28.1273 30.5811 28.315C30.3964 28.5027 30.1458 28.6082 29.8845 28.6082C29.6232 28.6082 29.3726 28.5027 29.1879 28.315C29.0031 28.1273 28.8993 27.8728 28.8993 27.6073V26.0226C28.9025 25.921 28.8819 25.8201 28.839 25.7282C28.7962 25.6364 28.7324 25.5562 28.653 25.4944C28.5648 25.4457 28.466 25.4202 28.3657 25.4202C28.2653 25.4202 28.1665 25.4457 28.0783 25.4944C27.9294 25.5431 27.8004 25.6403 27.7114 25.771C27.6224 25.9016 27.5782 26.0585 27.5857 26.2172V27.7185C27.5857 27.984 27.4819 28.2385 27.2972 28.4262C27.1124 28.6139 26.8618 28.7194 26.6005 28.7194C26.3414 28.7124 26.0948 28.6047 25.9115 28.4185C25.7282 28.2323 25.6222 27.9818 25.6153 27.7185C25.6185 27.6169 25.5979 27.516 25.5551 27.4241C25.5122 27.3323 25.4484 27.2521 25.369 27.1903C25.2817 27.139 25.1826 27.1121 25.0817 27.1121C24.9808 27.1121 24.8817 27.139 24.7943 27.1903C24.6479 27.2398 24.5222 27.3382 24.4378 27.4694C24.3533 27.6006 24.315 27.757 24.3291 27.9131V31.305C24.3291 31.5704 24.2253 31.825 24.0405 32.0127C23.8558 32.2004 23.6052 32.3058 23.3439 32.3058C23.0826 32.3058 22.832 32.2004 22.6473 32.0127C22.4625 31.825 22.3587 31.5704 22.3587 31.305C22.3998 31.1736 22.3981 31.0323 22.3537 30.902C22.3093 30.7717 22.2247 30.6595 22.1124 30.5821C22.0242 30.5335 21.9254 30.508 21.8251 30.508C21.7247 30.508 21.6259 30.5335 21.5377 30.5821C21.3888 30.6308 21.2598 30.728 21.1708 30.8587C21.0818 30.9894 21.0376 31.1462 21.0451 31.305V41.6195C21.0612 42.592 21.218 43.5569 21.5103 44.4831L21.6745 45.0669C22.1956 46.7493 22.4632 48.5021 22.4682 50.2659V51.6004Z" fill="#5541D9"/>
<path d="M29.1183 24.132C28.9564 24.171 28.7877 24.171 28.6258 24.132L25.7249 22.2415C25.5248 22.0969 25.3851 21.8815 25.3331 21.6377C25.2811 21.3939 25.3207 21.1391 25.444 20.9233C25.5673 20.7076 25.7655 20.5464 25.9997 20.4714C26.2339 20.3964 26.4873 20.4129 26.7101 20.5178L29.6109 22.2415C29.7247 22.3048 29.8246 22.391 29.9046 22.4948C29.9846 22.5986 30.043 22.7178 30.0762 22.8452C30.1095 22.9726 30.1169 23.1055 30.0981 23.2359C30.0793 23.3663 30.0346 23.4914 29.9667 23.6038C29.889 23.7644 29.7681 23.8993 29.6179 23.9928C29.4677 24.0863 29.2945 24.1346 29.1183 24.132Z" fill="#5541D9"/>
<path d="M26.6006 26.4953C26.4387 26.5343 26.27 26.5343 26.108 26.4953L24.0829 25.1886C23.8543 25.0559 23.6869 24.8363 23.6176 24.5783C23.5483 24.3202 23.5828 24.0447 23.7135 23.8124C23.8441 23.5802 24.0602 23.4101 24.3143 23.3397C24.5683 23.2694 24.8395 23.3044 25.0681 23.4371L27.0932 24.6326C27.3174 24.7661 27.4805 24.9842 27.5472 25.2393C27.6138 25.4945 27.5785 25.766 27.449 25.9949C27.3701 26.1525 27.248 26.2835 27.0975 26.3723C26.947 26.4611 26.7745 26.5038 26.6006 26.4953Z" fill="#5541D9"/>
<path d="M20.4978 30.5822C20.3372 30.6317 20.1658 30.6317 20.0052 30.5822L15.9002 28.1912C15.6761 28.0577 15.5129 27.8396 15.4463 27.5845C15.3796 27.3294 15.4149 27.0578 15.5444 26.8289C15.6068 26.7134 15.6917 26.6119 15.7938 26.5306C15.896 26.4494 16.0133 26.3901 16.1387 26.3563C16.2641 26.3225 16.3949 26.3149 16.5233 26.334C16.6516 26.3532 16.7748 26.3986 16.8854 26.4675L20.9904 28.8585C21.2145 28.992 21.3777 29.2101 21.4443 29.4652C21.511 29.7204 21.4757 29.9919 21.3462 30.2208C21.2496 30.3527 21.1199 30.4559 20.9707 30.5195C20.8214 30.583 20.6581 30.6047 20.4978 30.5822Z" fill="#5541D9"/>
<path d="M20.06 35.1973C19.9521 35.2244 19.8394 35.2244 19.7316 35.1973C19.5376 35.1428 19.3531 35.0584 19.1843 34.9471L13.6836 31.6943C12.3669 30.9347 11.3874 29.6908 10.9469 28.219L9.96174 24.855C9.93635 24.7452 9.88931 24.6418 9.82345 24.551C9.7576 24.4602 9.67431 24.3839 9.57861 24.3267L6.04833 22.2416C5.79167 22.1268 5.58664 21.9185 5.47363 21.6578C5.37777 21.417 5.37777 21.1479 5.47363 20.9071L11.5216 10.6482C11.5835 10.5308 11.6692 10.428 11.7729 10.3465C11.8767 10.2651 11.9962 10.2068 12.1237 10.1756C12.3607 10.0782 12.6256 10.0782 12.8626 10.1756L14.8877 11.3711C16.2125 12.1832 17.6524 12.7833 19.1569 13.1504H19.759C20.9157 13.4323 22.0296 13.8718 23.0703 14.4571L29.2004 18.0713C29.4005 18.2159 29.5402 18.4313 29.5922 18.6751C29.6442 18.9189 29.6046 19.1737 29.4813 19.3895C29.358 19.6052 29.1598 19.7664 28.9256 19.8414C28.6914 19.9164 28.438 19.8999 28.2152 19.795L22.0851 16.3476C21.235 15.8353 20.3118 15.4601 19.3485 15.2355L18.7464 15.0965C17.0538 14.711 15.4294 14.064 13.9299 13.1782L12.7531 12.4831L7.88188 21.0461L10.6185 22.603C11.2378 22.9758 11.6968 23.5711 11.9048 24.2711L12.8626 27.6352C13.1713 28.6157 13.8238 29.4468 14.6961 29.9705L20.1695 33.1678H20.3884C20.629 33.2561 20.8264 33.436 20.9387 33.6695C21.0511 33.903 21.0696 34.1717 20.9905 34.4188C20.9466 34.6372 20.8302 34.8337 20.6609 34.9754C20.4915 35.1171 20.2794 35.1954 20.06 35.1973Z" fill="#5541D9"/>
<path d="M33.3874 33.7515C33.2136 33.76 33.0411 33.7173 32.8905 33.6285C32.74 33.5397 32.618 33.4086 32.5391 33.2511C32.4096 33.0222 32.3743 32.7506 32.4409 32.4955C32.5075 32.2403 32.6707 32.0223 32.8948 31.8888L36.0967 30.026C36.322 29.8944 36.5893 29.8586 36.8404 29.9263C37.0916 29.994 37.3063 30.1597 37.4377 30.3875C37.5045 30.5015 37.5477 30.6282 37.5646 30.7598C37.5814 30.8914 37.5716 31.0251 37.5357 31.1527C37.4998 31.2803 37.4386 31.399 37.3559 31.5017C37.2731 31.6044 37.1706 31.6888 37.0546 31.7497L33.88 33.6125C33.7338 33.7092 33.5618 33.7577 33.3874 33.7515Z" fill="#5541D9"/>
<path d="M33.3874 29.9148C33.2136 29.9233 33.0411 29.8806 32.8905 29.7918C32.74 29.703 32.618 29.572 32.5391 29.4144C32.4096 29.1855 32.3743 28.914 32.4409 28.6588C32.5075 28.4037 32.6707 28.1856 32.8948 28.0521L34.4547 27.1346C34.5679 27.0689 34.6928 27.0265 34.8221 27.0098C34.9515 26.9931 35.0828 27.0024 35.2086 27.0373C35.3344 27.0721 35.4522 27.1318 35.5553 27.2129C35.6583 27.294 35.7447 27.3949 35.8094 27.5099C35.8741 27.6249 35.9158 27.7518 35.9323 27.8832C35.9487 28.0146 35.9395 28.148 35.9052 28.2758C35.8709 28.4036 35.8122 28.5232 35.7323 28.628C35.6525 28.7327 35.5531 28.8204 35.4399 28.8861L33.88 29.8036C33.727 29.8801 33.558 29.9183 33.3874 29.9148Z" fill="#5541D9"/>
<path d="M32.2928 26.7175C32.0774 26.7157 31.8686 26.6422 31.6982 26.5084C31.5279 26.3745 31.4054 26.1877 31.3495 25.9764C31.2937 25.7651 31.3075 25.541 31.3889 25.3385C31.4702 25.1359 31.6147 24.966 31.8002 24.8548L32.7854 24.2988C33.0082 24.1939 33.2615 24.1774 33.4957 24.2524C33.73 24.3274 33.9281 24.4886 34.0514 24.7044C34.1748 24.9201 34.2143 25.1749 34.1624 25.4187C34.1104 25.6625 33.9707 25.8779 33.7706 26.0225L32.7854 26.5785C32.6427 26.6829 32.468 26.7322 32.2928 26.7175Z" fill="#5541D9"/>
<path d="M31.116 23.6038C30.9403 23.6023 30.7678 23.5557 30.6147 23.4682C30.4616 23.3806 30.3328 23.2551 30.2403 23.1034C30.1773 22.9884 30.1372 22.8619 30.1223 22.7312C30.1075 22.6005 30.1182 22.468 30.1538 22.3415C30.1893 22.215 30.2491 22.0968 30.3297 21.9938C30.4103 21.8907 30.5101 21.8049 30.6234 21.7411L36.0967 18.516C36.3196 18.4112 36.5729 18.3946 36.8071 18.4697C37.0413 18.5447 37.2395 18.7059 37.3628 18.9216C37.4861 19.1374 37.5257 19.3921 37.4737 19.636C37.4218 19.8798 37.282 20.0951 37.0819 20.2398L31.6086 23.4648C31.4604 23.5569 31.2898 23.6051 31.116 23.6038Z" fill="#5541D9"/>
<path d="M37.4377 35.1973C37.2304 35.1865 37.0317 35.1096 36.87 34.9774C36.7083 34.8452 36.5919 34.6645 36.5373 34.461C36.4826 34.2576 36.4927 34.0418 36.5659 33.8445C36.6391 33.6472 36.7718 33.4785 36.9451 33.3623L42.9931 29.8315C43.861 29.3288 44.646 28.6909 45.3192 27.941L45.7297 27.4961C46.906 26.1902 48.2719 25.0745 49.78 24.1877L50.9294 23.4927L46.0855 14.9575L43.3488 16.5422C42.7307 16.9138 41.9935 17.0236 41.2964 16.848L37.9303 16.0417C36.9334 15.8228 35.8922 15.981 35.002 16.4866L29.5287 19.7116C29.2758 19.8676 29.085 20.1092 28.9899 20.3939C28.8948 20.6786 28.9015 20.9883 29.0088 21.2685C29.1547 21.5451 29.3996 21.7541 29.6929 21.8523C29.975 21.9613 30.2866 21.9613 30.5687 21.8523C30.7939 21.7208 31.0612 21.6849 31.3124 21.7526C31.5635 21.8203 31.7782 21.986 31.9096 22.2138C31.9765 22.3278 32.0196 22.4545 32.0365 22.5861C32.0534 22.7177 32.0435 22.8514 32.0077 22.979C31.9718 23.1066 31.9106 23.2254 31.8278 23.328C31.7451 23.4307 31.6425 23.5151 31.5265 23.5761L28.7898 25.1608C28.5646 25.2924 28.2973 25.3282 28.0461 25.2605C27.795 25.1928 27.5803 25.0271 27.4489 24.7993C27.3821 24.6853 27.3389 24.5586 27.322 24.427C27.3052 24.2954 27.315 24.1617 27.3509 24.0341C27.3868 23.9065 27.4479 23.7878 27.5307 23.6851C27.6134 23.5824 27.716 23.498 27.832 23.4371L28.051 23.298C27.746 23.004 27.5119 22.6424 27.3668 22.2416C27.0355 21.5051 26.9866 20.6695 27.2295 19.8983C27.4724 19.127 27.9898 18.4756 28.6804 18.0713L34.1537 14.8463C35.4073 14.0985 36.8864 13.8415 38.3134 14.1234L41.6795 14.9019C41.8815 14.9839 42.1069 14.9839 42.3089 14.9019L45.8392 12.8445C46.0762 12.7471 46.3411 12.7471 46.5781 12.8445C46.8303 12.9191 47.0454 13.088 47.1802 13.3172L53.1187 23.3536C53.1866 23.466 53.2313 23.5911 53.2501 23.7215C53.2689 23.8519 53.2615 23.9849 53.2282 24.1123C53.1949 24.2396 53.1365 24.3588 53.0566 24.4626C52.9766 24.5664 52.8767 24.6526 52.7629 24.7159L50.7652 25.9114C49.431 26.6494 48.2133 27.5866 47.1528 28.6916L46.7423 29.1364C45.95 30.0261 45.0268 30.7858 44.0056 31.3884L37.9576 34.947C37.8118 35.0798 37.6312 35.1667 37.4377 35.1973Z" fill="#5541D9"/>
<path d="M52.6809 25.55H52.4073C52.2813 25.506 52.1654 25.4365 52.0666 25.3457C51.9678 25.2549 51.8882 25.1447 51.8326 25.0218L45.2099 13.4006C45.0803 13.1718 45.045 12.9002 45.1117 12.645C45.1783 12.3899 45.3415 12.1718 45.5656 12.0383L49.2601 9.89756C49.4602 9.78916 49.6904 9.75216 49.9137 9.79249C50.137 9.83282 50.3405 9.94814 50.4916 10.12C53.5015 13.6938 55.6309 17.9442 56.7038 22.5196C56.7436 22.731 56.7206 22.9496 56.6378 23.1476C56.555 23.3456 56.416 23.5142 56.2386 23.6317L53.1735 25.411C53.022 25.4953 52.8535 25.5428 52.6809 25.55ZM47.3992 13.2616L53.0367 23.1869L54.7334 22.2416C53.7675 18.4987 52.0224 15.0098 49.6159 12.0105L47.3992 13.2616Z" fill="#5541D9"/>
<path d="M6.15782 23.0755C5.99613 23.1167 5.82692 23.1167 5.66523 23.0755L1.99811 20.7957C1.79777 20.6885 1.64278 20.5108 1.56218 20.2959C1.48157 20.0809 1.48089 19.8435 1.56025 19.628C3.08388 15.1709 5.64728 11.155 9.03131 7.92343C9.18608 7.77374 9.38456 7.67923 9.59682 7.65416C9.80909 7.62909 10.0236 7.6748 10.2081 7.78442L13.2458 9.59154C13.3577 9.64849 13.4554 9.73071 13.5313 9.8319C13.6072 9.9331 13.6593 10.0506 13.6836 10.1754C13.7785 10.4259 13.7785 10.7033 13.6836 10.9538L7.00618 22.575C6.92013 22.7265 6.79652 22.8524 6.64768 22.9402C6.49883 23.028 6.32994 23.0746 6.15782 23.0755ZM3.69483 19.4612L5.80206 20.7123L11.4122 10.8148L9.8523 9.89737C7.16124 12.6105 5.06317 15.8692 3.69483 19.4612Z" fill="#5541D9"/>
<path d="M28.7078 58.384C25.9254 58.3793 23.159 57.9577 20.4978 57.1329C20.293 57.0775 20.112 56.9547 19.9832 56.7836C19.8545 56.6126 19.7852 56.403 19.7863 56.1876V52.5734C19.7863 52.3079 19.8901 52.0534 20.0748 51.8657C20.2596 51.678 20.5102 51.5725 20.7715 51.5725H33.9348C34.1961 51.5725 34.4466 51.678 34.6314 51.8657C34.8162 52.0534 34.92 52.3079 34.92 52.5734V56.8827C34.9168 57.1168 34.8329 57.3424 34.6829 57.5202C34.5329 57.698 34.3262 57.8167 34.099 57.8557C32.3214 58.198 30.5169 58.3748 28.7078 58.384ZM21.6746 55.6038C25.3482 56.614 29.1909 56.8225 32.9496 56.2154V53.7411H21.6746V55.6038Z" fill="#5541D9"/>
<path d="M28.7078 58.384C21.3208 58.3922 14.215 55.5073 8.86826 50.3292C3.5215 45.1511 0.345309 38.0784 0.00025964 30.5821C-0.00713087 30.4506 0.0110934 30.319 0.0538878 30.1947C0.0966822 30.0704 0.163205 29.9558 0.249644 29.8577C0.336083 29.7596 0.440738 29.6797 0.557611 29.6227C0.674484 29.5657 0.801277 29.5328 0.930722 29.5257C1.07044 29.5129 1.21122 29.5314 1.34311 29.58C1.475 29.6285 1.59478 29.706 1.69397 29.8067C1.79317 29.9075 1.86937 30.0292 1.91718 30.1632C1.96499 30.2972 1.98324 30.4402 1.97065 30.5821C2.2207 35.5231 3.79168 40.3014 6.51469 44.4032C9.2377 48.5051 13.0097 51.7754 17.4252 53.8624C21.8407 55.9495 26.7327 56.7744 31.5751 56.2485C36.4176 55.7226 41.0273 53.8657 44.9087 50.8775C45.0088 50.7779 45.1286 50.7011 45.2602 50.6522C45.3917 50.6033 45.5321 50.5836 45.6718 50.5941C45.8115 50.6047 45.9473 50.6455 46.0703 50.7137C46.1933 50.7818 46.3005 50.8759 46.3849 50.9895C46.4693 51.1031 46.5288 51.2337 46.5596 51.3725C46.5903 51.5114 46.5916 51.6553 46.5633 51.7947C46.5349 51.9341 46.4776 52.0657 46.3953 52.1808C46.3129 52.2959 46.2073 52.3919 46.0855 52.4622C41.0952 56.3308 34.985 58.413 28.7078 58.384Z" fill="#5541D9"/>
<path d="M1.36857 25.3553H1.17701C1.04928 25.3319 0.927365 25.283 0.81827 25.2116C0.709175 25.1402 0.61505 25.0475 0.541302 24.939C0.467555 24.8305 0.415639 24.7083 0.388538 24.5793C0.361436 24.4504 0.359683 24.3172 0.38338 24.1876C1.04979 20.372 2.45179 16.7277 4.50883 13.4643C6.56587 10.2008 9.2374 7.38242 12.3699 5.1711C12.5842 5.03996 12.8396 4.99657 13.0843 5.04972C13.3289 5.10288 13.5445 5.24859 13.6873 5.45731C13.83 5.66602 13.8893 5.9221 13.853 6.17357C13.8167 6.42504 13.6877 6.65308 13.4919 6.81141C10.5718 8.86795 8.08159 11.4918 6.16516 14.5315C4.24873 17.5712 2.94403 20.9664 2.3264 24.5212C2.29327 24.7545 2.1779 24.9677 2.00174 25.1211C1.82557 25.2745 1.60059 25.3577 1.36857 25.3553Z" fill="#5541D9"/>
<path d="M23.2345 2.52992C23.0105 2.53451 22.7919 2.45913 22.6169 2.31689C22.4419 2.17465 22.3215 1.97457 22.2767 1.75147C22.2275 1.49021 22.2798 1.21976 22.4227 0.996859C22.5656 0.77396 22.7879 0.615948 23.043 0.555985L24.6302 0.277966C24.8876 0.246409 25.1469 0.319187 25.3518 0.480523C25.5567 0.641858 25.6907 0.878745 25.7249 1.13983C25.7442 1.26779 25.7382 1.39838 25.7072 1.52394C25.6762 1.64951 25.6208 1.76754 25.5444 1.8711C25.4679 1.97467 25.3719 2.06169 25.2619 2.12708C25.1519 2.19247 25.0302 2.2349 24.9039 2.2519L23.3987 2.52992H23.2345Z" fill="#5541D9"/>
<path d="M17.7064 4.30931C17.4786 4.31333 17.2564 4.23699 17.0777 4.09329C16.8991 3.94959 16.775 3.74742 16.7266 3.52121C16.6782 3.295 16.7085 3.05873 16.8123 2.85265C16.9161 2.64657 17.087 2.48342 17.2959 2.39098C17.9162 2.11296 18.5365 1.86275 19.1568 1.64033C19.2771 1.59673 19.4048 1.578 19.5323 1.58527C19.6598 1.59253 19.7846 1.62563 19.8994 1.68262C20.0141 1.73961 20.1165 1.81934 20.2005 1.91712C20.2844 2.0149 20.3483 2.12875 20.3883 2.25197C20.4772 2.49909 20.4668 2.77184 20.3592 3.01118C20.2516 3.25052 20.0557 3.43722 19.8136 3.53086C19.2116 3.72547 18.6369 3.97569 18.0622 4.22591L17.7064 4.30931Z" fill="#5541D9"/>
<path d="M12.9447 6.97833C12.7848 6.98173 12.6265 6.94554 12.4835 6.87288C12.3404 6.80023 12.217 6.69329 12.1237 6.5613C11.9755 6.3436 11.9182 6.07511 11.9643 5.81459C12.0105 5.55406 12.1563 5.32273 12.37 5.17121L13.6836 4.28154C13.7908 4.21028 13.9111 4.1616 14.0372 4.13839C14.1633 4.11518 14.2927 4.11792 14.4177 4.14643C14.5428 4.17495 14.6609 4.22867 14.7651 4.30441C14.8694 4.38015 14.9576 4.47636 15.0246 4.58737C15.0942 4.70016 15.1409 4.82594 15.1621 4.95731C15.1832 5.08869 15.1784 5.22304 15.1478 5.35249C15.1172 5.48194 15.0615 5.60389 14.984 5.71121C14.9064 5.81852 14.8086 5.90904 14.6962 5.97746C14.2857 6.22768 13.8478 6.5057 13.4373 6.81152C13.2907 6.91087 13.1206 6.96848 12.9447 6.97833Z" fill="#5541D9"/>
<path d="M56.4848 30.1929C56.2235 30.1929 55.9729 30.0874 55.7882 29.8997C55.6034 29.712 55.4996 29.4575 55.4996 29.192C55.4851 21.9804 52.6569 15.0688 47.6348 9.97201C42.6127 4.87524 35.8065 2.00908 28.7078 2.00174C27.4449 2.00106 26.1833 2.08465 24.9312 2.25195C24.8032 2.27568 24.6718 2.27266 24.545 2.24309C24.4182 2.21353 24.2987 2.15803 24.1937 2.07998C24.0887 2.00194 24.0005 1.90298 23.9343 1.78915C23.8682 1.67532 23.8256 1.549 23.8092 1.4179C23.7769 1.15734 23.844 0.89412 23.9967 0.682186C24.1493 0.470252 24.376 0.325652 24.6302 0.278019C25.9825 0.100355 27.3442 0.00750595 28.7078 0C36.3313 -3.50568e-06 43.6429 3.07469 49.0361 8.54845C54.4293 14.0222 57.4628 21.4472 57.47 29.192C57.47 29.4575 57.3662 29.712 57.1814 29.8997C56.9967 30.0874 56.7461 30.1929 56.4848 30.1929Z" fill="#5541D9"/>
<path d="M45.4835 52.8235C45.3315 52.8251 45.1816 52.7877 45.0477 52.7148C44.9137 52.6419 44.8001 52.5359 44.7172 52.4065C44.6374 52.3035 44.579 52.1851 44.5453 52.0585C44.5117 51.932 44.5036 51.7998 44.5215 51.67C44.5393 51.5402 44.5829 51.4153 44.6494 51.303C44.716 51.1907 44.8042 51.0932 44.9088 51.0164L46.0855 50.0711C46.2815 49.9015 46.5357 49.818 46.7924 49.8388C47.049 49.8597 47.2869 49.9833 47.4539 50.1823C47.6208 50.3814 47.703 50.6397 47.6825 50.9004C47.662 51.1611 47.5404 51.4028 47.3444 51.5724L46.0855 52.6011C45.9138 52.7395 45.7026 52.8175 45.4835 52.8235Z" fill="#5541D9"/>
<path d="M50.601 47.5691C50.3735 47.5632 50.1535 47.4854 49.9716 47.3467C49.7708 47.1828 49.6411 46.9455 49.6104 46.6856C49.5797 46.4258 49.6504 46.1641 49.8074 45.9566C50.3763 45.2421 50.8974 44.4898 51.3673 43.7046C51.4369 43.5927 51.5276 43.4959 51.6342 43.4198C51.7409 43.3438 51.8613 43.29 51.9886 43.2615C52.1159 43.2331 52.2474 43.2306 52.3756 43.2541C52.5039 43.2777 52.6262 43.3268 52.7356 43.3988C52.9452 43.5458 53.0927 43.7676 53.1485 44.0201C53.2042 44.2726 53.1643 44.5372 53.0366 44.7611C52.5167 45.5951 51.942 46.4014 51.3673 47.1798C51.2753 47.2977 51.1591 47.3936 51.0267 47.4608C50.8943 47.5281 50.749 47.565 50.601 47.5691ZM54.7334 40.146H54.3776C54.1336 40.0466 53.9371 39.8546 53.8299 39.6108C53.7226 39.3669 53.713 39.0902 53.8029 38.8393C54.1746 37.9635 54.4855 37.0624 54.7334 36.1425C54.8037 35.889 54.9695 35.6739 55.1949 35.5437C55.4203 35.4136 55.6871 35.379 55.9375 35.4474C56.1882 35.5192 56.402 35.6864 56.5346 35.9142C56.6671 36.142 56.7081 36.413 56.649 36.6707C56.4007 37.6143 56.0992 38.5425 55.7459 39.4509C55.6788 39.6656 55.5423 39.8511 55.3585 39.9772C55.1748 40.1033 54.9545 40.1628 54.7334 40.146Z" fill="#5541D9"/>
<path d="M56.4301 31.8054C56.1712 31.7842 55.9303 31.6627 55.7571 31.466C55.5839 31.2694 55.4917 31.0127 55.4996 30.749C55.4996 30.2207 55.4996 29.7203 55.4996 29.1921C55.5383 28.9587 55.6571 28.7469 55.835 28.5941C56.0128 28.4413 56.2382 28.3574 56.4711 28.3574C56.704 28.3574 56.9294 28.4413 57.1073 28.5941C57.2851 28.7469 57.4039 28.9587 57.4426 29.1921C57.4426 29.7481 57.4426 30.3041 57.4426 30.8602C57.4285 31.1207 57.3147 31.3654 57.1255 31.542C56.9364 31.7185 56.6868 31.8131 56.4301 31.8054Z" fill="#5541D9"/>
</g>
<defs>
<clipPath id="clip0_62_1282">
<rect width="61" height="64" fill="white" transform="translate(0.000244141)"/>
</clipPath>
</defs>
</svg>
