<svg width="66" height="38" viewBox="0 0 66 38" fill="none" xmlns="http://www.w3.org/2000/svg">
<g clip-path="url(#clip0_59_824)">
<path d="M65.93 22.6905L59.153 5.40423C59.0599 5.1643 58.8736 4.97008 58.629 4.86725C58.3845 4.76442 58.1167 4.753 57.8722 4.85582L49.791 7.96346C49.2903 8.15769 49.0458 8.7061 49.2321 9.19738C49.2321 9.19738 49.4067 9.66581 49.593 10.1571L47.1594 10.5113C46.2395 10.6484 45.2846 10.5455 44.4113 10.2371L36.8192 7.52931C35.7829 7.1637 34.6534 7.17513 33.6287 7.58643L31.1019 8.58042C29.7744 8.10056 28.3072 8.03201 26.9099 8.45474L21.7748 9.99714C20.5987 10.3513 19.3644 10.3627 18.1767 10.0428L16.9773 9.71151L17.2684 8.6604C17.3383 8.40904 17.3033 8.14626 17.1753 7.92919C17.0472 7.71211 16.8259 7.54073 16.5814 7.48361L8.67491 5.40423C8.15092 5.26713 7.61528 5.56418 7.47554 6.07831L2.52671 23.913C2.45684 24.1643 2.49178 24.4271 2.61986 24.6442C2.74795 24.8727 2.96919 25.0326 3.22537 25.0897L11.1551 27.1463C11.2367 27.1691 11.3298 27.1805 11.4113 27.1805C11.8422 27.1805 12.2381 26.8949 12.3545 26.4722L12.5641 25.6953L13.0299 25.8438C13.6703 26.038 14.3224 26.1409 14.9628 26.1409C15.3937 26.1409 15.8129 26.0837 16.2321 26.0038C16.2088 26.6436 16.3602 27.2948 16.7095 27.8889C17.1986 28.7115 17.9904 29.2942 18.9336 29.5227C19.213 29.5912 19.5041 29.6255 19.7836 29.6255C19.8185 29.6255 19.8651 29.6255 19.9 29.6255C19.9117 30.0825 20.0281 30.5395 20.261 30.9623C20.6569 31.6706 21.3206 32.1848 22.1125 32.4018C22.357 32.4704 22.6015 32.4932 22.846 32.5047C22.8693 33.0531 23.0324 33.59 23.3467 34.0356C23.9057 34.824 24.8256 35.2695 25.7571 35.2695C26.188 35.2695 26.6188 35.1781 27.0264 34.9839L27.3058 34.8468C27.3757 35.1439 27.4921 35.4181 27.6784 35.6808C28.1559 36.3549 28.9244 36.7205 29.7162 36.7205C30.0655 36.7205 30.4149 36.652 30.7409 36.5035L34.9794 34.6069L36.598 36.8576C37.1453 37.6231 38.0302 38.0344 38.9152 38.0344C39.4858 38.0344 40.0563 37.863 40.5454 37.5203L41.2208 37.0519C41.6866 36.732 42.0359 36.275 42.2338 35.7608C42.2804 35.7608 42.327 35.7951 42.3736 35.7951C42.5366 35.8179 42.688 35.8294 42.8393 35.8294C43.4099 35.8294 43.9572 35.658 44.4346 35.3267L45.0867 34.8697C45.3662 34.6754 45.5874 34.4355 45.7737 34.1727C46.0998 34.4012 46.4724 34.5612 46.8799 34.6297C47.0429 34.6526 47.1943 34.664 47.3457 34.664C47.9163 34.664 48.4635 34.4926 48.941 34.1613L49.593 33.7043C50.1986 33.2816 50.5945 32.6646 50.7225 31.9448C50.7691 31.6935 50.7575 31.4535 50.7342 31.2136C51.0952 31.1451 51.4561 31.0308 51.7822 30.8023L52.411 30.3682C53.622 29.5227 53.9131 27.8775 53.0514 26.6778L52.9699 26.5636L55.7645 25.284L56.242 26.3808C56.405 26.7464 56.7659 26.9635 57.1386 26.9635C57.255 26.9635 57.3714 26.9406 57.4879 26.8949L65.3129 23.9472C65.5574 23.8558 65.7554 23.673 65.8602 23.4331C65.965 23.2046 65.9766 22.9304 65.8834 22.6905H65.93Z" fill="#BFBBF2"/>
<path d="M8.90774 22.405C8.82623 22.405 8.74471 22.405 8.65156 22.3707L0.721781 20.3142C0.465606 20.2457 0.256008 20.0857 0.127921 19.8686C-0.000166633 19.6515 -0.0350996 19.3773 0.0347663 19.1374L4.99524 1.2685C5.13498 0.754368 5.68226 0.457314 6.19461 0.594416L14.1011 2.67379C14.3573 2.74234 14.5669 2.90229 14.695 3.11937C14.823 3.33645 14.858 3.61065 14.7881 3.85058L9.85093 21.6852C9.73448 22.1194 9.33858 22.3936 8.90774 22.3936V22.405ZM2.18897 18.6918L8.22072 20.2571L12.6456 4.28474L6.63709 2.70807L2.18897 18.6918Z" fill="#5541D9"/>
<path d="M12.4709 21.3537C11.8188 21.3537 11.1667 21.2509 10.538 21.0567L9.09406 20.6111C8.59336 20.4511 8.30225 19.937 8.44198 19.4343L12.3428 5.32424C12.4127 5.07289 12.5757 4.86724 12.8086 4.74156C13.0415 4.61588 13.3093 4.58161 13.5538 4.65016L15.6964 5.23284C16.8725 5.55274 18.1184 5.54132 19.2945 5.18714L24.4296 3.64475C26.6304 2.98209 29.0524 3.51907 30.7408 5.05004L37.448 11.0939C38.4727 12.0194 38.7754 13.4818 38.1932 14.7271C37.809 15.5497 37.0754 16.1667 36.1787 16.4295C35.2938 16.6808 34.3273 16.5437 33.5588 16.0639L29.6579 13.6189C28.6099 12.9677 27.2708 12.9677 26.2345 13.6417L15.9875 20.314C14.9279 21.011 13.7052 21.3651 12.4593 21.3651L12.4709 21.3537ZM10.5845 19.0573L11.1202 19.2286C12.401 19.6285 13.7867 19.4343 14.9046 18.7031L25.1516 12.0308C26.8284 10.934 29.0175 10.9226 30.7176 11.9851L34.6184 14.4301C34.9212 14.6243 35.2821 14.67 35.6315 14.5786C35.9808 14.4758 36.2603 14.2473 36.4116 13.9159C36.6329 13.4361 36.5281 12.8763 36.1205 12.5107L29.4134 6.46676C28.2257 5.39279 26.5373 5.02719 25.0002 5.48419L19.8651 7.02659C18.3397 7.48359 16.7094 7.50644 15.1724 7.08371L13.9847 6.76381L10.5845 19.0458V19.0573Z" fill="#5541D9"/>
<path d="M49.0342 22.359C48.6616 22.359 48.3122 22.1534 48.1492 21.7992C47.9163 21.3194 48.1259 20.7481 48.6266 20.5196L52.5624 18.7144L47.8465 7.20932L44.9703 7.62062C43.7244 7.80342 42.4435 7.67775 41.2674 7.25502L33.6753 4.54726C33.0931 4.34161 32.4643 4.35303 31.8937 4.57011L29.006 5.71262C28.5052 5.90685 27.923 5.66692 27.7251 5.17564C27.5271 4.68436 27.76 4.12453 28.2724 3.91888L31.1602 2.77636C32.1849 2.37648 33.3143 2.35363 34.3507 2.71924L41.9428 5.42699C42.8161 5.73547 43.7709 5.8383 44.6908 5.7012L48.3355 5.17564C48.7896 5.10709 49.2205 5.35844 49.3951 5.76975L54.7515 18.8173C54.9495 19.2971 54.7282 19.8341 54.2508 20.0512L49.465 22.2448C49.3253 22.3019 49.1856 22.3362 49.0458 22.3362L49.0342 22.359Z" fill="#5541D9"/>
<path d="M47.7764 26.495C46.9264 26.495 46.0996 26.1065 45.5756 25.3753L43.7941 22.9075C42.9324 21.7193 43.2235 20.0626 44.4345 19.2172L45.0633 18.783C46.2743 17.9376 47.9627 18.2232 48.8244 19.4114L50.606 21.8792C51.4677 23.0674 51.1766 24.7241 49.9655 25.5695L49.3368 26.0037C48.8593 26.335 48.3237 26.4836 47.7881 26.4836L47.7764 26.495ZM46.6236 20.234C46.4723 20.234 46.3325 20.2797 46.2044 20.3597L45.5756 20.7938C45.2496 21.0223 45.1681 21.4679 45.401 21.7878L47.1826 24.2557C47.4154 24.5756 47.8696 24.6555 48.1956 24.427L48.8244 23.9929C49.1504 23.7644 49.232 23.3188 48.9991 22.9989L47.2175 20.5311C47.0778 20.3368 46.8449 20.234 46.6236 20.234Z" fill="#5541D9"/>
<path d="M44.9003 29.8656C44.749 29.8656 44.5859 29.8542 44.4346 29.8313C43.701 29.7057 43.0722 29.3172 42.6413 28.7231L38.1699 22.5307C37.7391 21.9366 37.5761 21.2168 37.7041 20.5084C37.8322 19.8001 38.2281 19.1717 38.8336 18.7489L39.4857 18.2919C40.0912 17.8692 40.8248 17.7093 41.5468 17.8349C42.2804 17.9606 42.9092 18.3491 43.34 18.9432L47.8114 25.1356C48.2422 25.7297 48.4053 26.4495 48.2772 27.1578C48.1491 27.8776 47.7532 28.4946 47.1477 28.9173L46.4956 29.3743C46.0182 29.7057 45.4709 29.877 44.9003 29.877V29.8656ZM41.081 19.7201C40.918 19.7201 40.7666 19.7658 40.6269 19.8686L39.9748 20.3256C39.8001 20.4513 39.6837 20.6227 39.6487 20.8283C39.6138 21.034 39.6604 21.2396 39.7885 21.411L44.2599 27.6034C44.388 27.7748 44.5626 27.8891 44.7722 27.9233C44.9818 27.9576 45.1914 27.9233 45.3661 27.7862L46.0182 27.3292C46.1928 27.2035 46.3093 27.0322 46.3442 26.8265C46.3792 26.6209 46.3442 26.4152 46.2045 26.2438L41.7331 20.0514C41.5817 19.8343 41.3372 19.7201 41.081 19.7201Z" fill="#5541D9"/>
<path d="M40.394 31.0195C40.2426 31.0195 40.0796 31.008 39.9283 30.9852C39.1947 30.8595 38.5659 30.471 38.135 29.8769L34.8164 25.2726C34.3856 24.6785 34.2225 23.9587 34.3506 23.2504C34.4787 22.542 34.8746 21.9136 35.4801 21.4909L36.1322 21.0339C36.7377 20.6112 37.4713 20.4512 38.1933 20.5769C38.9152 20.7026 39.5556 21.091 39.9865 21.6851L43.3051 26.2894C44.1901 27.5119 43.8873 29.2029 42.6414 30.0712L41.9893 30.5282C41.5235 30.8595 40.9646 31.0309 40.394 31.0309V31.0195ZM37.7158 22.462C37.5528 22.462 37.3898 22.5077 37.2617 22.6106L36.6096 23.0676C36.435 23.1932 36.3185 23.3646 36.2836 23.5703C36.2486 23.7759 36.2952 23.9816 36.4233 24.1529L39.7419 28.7573C39.87 28.9287 40.0447 29.0429 40.2543 29.0772C40.4639 29.1115 40.6735 29.0658 40.8482 28.9401L41.5002 28.4831C41.6749 28.3574 41.7913 28.186 41.8263 27.9804C41.8612 27.7747 41.8146 27.5691 41.6865 27.3977L38.3679 22.7934C38.2398 22.622 38.0652 22.5077 37.8556 22.4734C37.809 22.4734 37.7624 22.4734 37.7158 22.4734V22.462Z" fill="#5541D9"/>
<path d="M36.4465 33.2132C35.5615 33.2132 34.6766 32.8019 34.1293 32.0364L31.3929 28.2547C30.4846 26.9979 30.799 25.2613 32.0682 24.3815L32.7436 23.9131C33.3607 23.4789 34.1176 23.319 34.8629 23.4447C35.6081 23.5703 36.2602 23.9702 36.7027 24.5758L39.4391 28.3575C39.8816 28.963 40.0446 29.7056 39.9165 30.4369C39.7884 31.1681 39.3809 31.8079 38.7637 32.242L38.0883 32.7105C37.5876 33.0532 37.0171 33.2246 36.4581 33.2246L36.4465 33.2132ZM34.3854 25.3184C34.2108 25.3184 34.0361 25.3755 33.8847 25.4783L33.2094 25.9468C32.8135 26.221 32.7203 26.758 32.9998 27.135L35.7362 30.9167C35.8643 31.0995 36.0739 31.2252 36.2951 31.2595C36.528 31.2937 36.7492 31.248 36.9472 31.1109L37.6226 30.6425C37.8089 30.5054 37.937 30.3112 37.9719 30.0941C38.0068 29.877 37.9603 29.6485 37.8205 29.4543L35.0841 25.6726C34.9444 25.4898 34.7464 25.3641 34.5252 25.3184C34.4786 25.3184 34.4204 25.307 34.3738 25.307L34.3854 25.3184Z" fill="#5541D9"/>
<path d="M27.2476 31.9105C26.4558 31.9105 25.6872 31.5449 25.2098 30.8708C24.8023 30.2995 24.6625 29.5797 24.8256 28.9056C24.9886 28.2316 25.4427 27.6489 26.0599 27.3176L28.8312 25.8551C29.3086 25.6038 29.9025 25.7752 30.1587 26.2436C30.4148 26.712 30.2402 27.2947 29.7628 27.5461L26.9914 29.0085C26.8167 29.0999 26.7469 29.2598 26.7352 29.3398C26.7119 29.4198 26.7003 29.5912 26.8167 29.7511C26.9565 29.9453 27.2243 30.0253 27.4572 29.9225L32.4293 27.6946C32.9184 27.4775 33.5122 27.6946 33.7335 28.1744C33.9547 28.6543 33.7335 29.2256 33.2444 29.4541L28.2723 31.682C27.9462 31.8305 27.5853 31.899 27.2476 31.899V31.9105Z" fill="#5541D9"/>
<path d="M23.3001 30.4597C22.3569 30.4597 21.437 30.0141 20.8897 29.2258C20.4356 28.5746 20.2726 27.752 20.4472 26.975C20.6219 26.1981 21.1226 25.524 21.8329 25.1242L29.8559 20.5541C30.3216 20.2913 30.9271 20.4399 31.195 20.9083C31.4628 21.3653 31.3114 21.9594 30.834 22.2222L22.811 26.7922C22.5782 26.9293 22.4151 27.135 22.3569 27.3978C22.2987 27.6491 22.3569 27.9119 22.4966 28.129C22.7645 28.506 23.2768 28.6431 23.696 28.4375L26.4208 27.135C26.9098 26.9065 27.4921 27.1007 27.7366 27.5806C27.9695 28.0604 27.7715 28.6317 27.2825 28.8716L24.5577 30.1741C24.1501 30.3683 23.7193 30.4597 23.2885 30.4597H23.3001Z" fill="#5541D9"/>
<path d="M20.4589 27.706C20.1911 27.706 19.9116 27.6718 19.6438 27.5918C18.8403 27.3747 18.1883 26.8606 17.7923 26.1522C17.0122 24.7583 17.478 22.9989 18.8636 22.1648L26.7352 17.4234C27.201 17.1492 27.8065 17.2863 28.0859 17.7433C28.3654 18.2003 28.2257 18.7944 27.7599 19.0686L19.8883 23.8101C19.3993 24.1071 19.2246 24.7241 19.5041 25.2153C19.6438 25.4667 19.8767 25.6495 20.1561 25.7295C20.4356 25.8095 20.7267 25.7638 20.9829 25.6267L27.2825 22.0163C27.7482 21.7421 28.3537 21.9021 28.6216 22.3591C28.901 22.8161 28.738 23.4102 28.2722 23.673L21.9727 27.2833C21.4952 27.5575 20.9712 27.6946 20.4473 27.6946L20.4589 27.706Z" fill="#5541D9"/>
<path d="M17.3034 24.827C17.024 24.827 16.7328 24.7927 16.4534 24.7241C15.5102 24.4956 14.7184 23.9244 14.2293 23.0904C13.2745 21.4908 13.7635 19.4457 15.3355 18.4175L20.8666 14.8186C21.3207 14.5215 21.9262 14.6472 22.229 15.0928C22.5317 15.5383 22.4036 16.1324 21.9495 16.4295L16.4185 20.0284C15.7198 20.4854 15.4986 21.3994 15.9294 22.1192C16.1506 22.4848 16.5 22.7476 16.9308 22.8504C17.35 22.9533 17.7925 22.8847 18.1535 22.6562L21.2392 20.7482C21.6933 20.4626 22.3105 20.5997 22.5899 21.0453C22.881 21.4908 22.7413 22.0964 22.2872 22.3706L19.2014 24.2786C18.6309 24.6327 17.9788 24.8155 17.3151 24.8155L17.3034 24.827Z" fill="#5541D9"/>
<path d="M54.7048 22.1649C54.3206 22.1649 53.9596 21.9478 53.8082 21.5822L52.9233 19.5714L47.5552 6.501L46.7518 4.4102C46.5655 3.91892 46.81 3.37052 47.3107 3.17629L55.3919 0.0686506C55.6364 -0.0227505 55.9042 -0.0227505 56.1487 0.0800757C56.3933 0.182902 56.5796 0.377129 56.6727 0.617057L63.4497 17.9033C63.5429 18.1432 63.5312 18.406 63.4264 18.6459C63.3216 18.8744 63.1237 19.0572 62.8792 19.1601L55.0542 22.1077C54.9377 22.1534 54.8213 22.1763 54.7048 22.1763V22.1649ZM49.3834 5.79264L55.2405 19.9712L61.2722 17.6976L55.1823 2.21658L48.9293 4.61585L49.3834 5.79264Z" fill="#5541D9"/>
</g>
<defs>
<clipPath id="clip0_59_824">
<rect width="66" height="38" fill="white"/>
</clipPath>
</defs>
</svg>
