<svg width="64" height="68" viewBox="0 0 64 68" fill="none" xmlns="http://www.w3.org/2000/svg">
<g clip-path="url(#clip0_62_1178)">
<path d="M16.8295 53.0775C16.7023 53.0659 16.5868 53.0775 16.4712 53.1124C16.1013 52.7405 15.4078 51.9851 15.2228 51.1948C16.5521 50.3348 17.4305 48.8472 17.4305 47.1504C17.4305 44.5005 15.2806 42.3389 12.6453 42.3389C10.0099 42.3389 7.86001 44.5005 7.86001 47.1504C7.86001 48.452 8.38015 49.6258 9.21237 50.4975C9.23548 51.1367 9.16613 52.2989 8.41482 53.1008C5.27088 53.4843 2.90137 56.1574 2.90137 59.3418V67.0704C2.90137 67.5934 3.31748 68.0117 3.83761 68.0117H21.4298C21.95 68.0117 22.3661 67.5934 22.3661 67.0704V59.3418C22.3661 56.1457 19.985 53.4494 16.8179 53.0892L16.8295 53.0775Z" fill="#BFBBF2"/>
<path d="M37.6349 53.0775C37.554 53.0775 37.4847 53.0775 37.4153 53.1008C37.0223 52.7173 36.3173 51.9154 36.167 51.1018C37.4153 50.2302 38.236 48.789 38.236 47.1504C38.236 44.5005 36.0861 42.3389 33.4507 42.3389C30.8154 42.3389 28.6655 44.5005 28.6655 47.1504C28.6655 48.5217 29.255 49.7653 30.1796 50.6369C30.1796 51.2994 30.0756 52.357 29.3821 53.0892C29.3474 53.0892 29.3127 53.0775 29.2665 53.0892C26.0995 53.4494 23.7184 56.1457 23.7184 59.3418V67.0704C23.7184 67.5934 24.1345 68.0117 24.6546 68.0117H42.2468C42.767 68.0117 43.1831 67.5934 43.1831 67.0704V59.3418C43.1831 56.1457 40.802 53.4494 37.6349 53.0892V53.0775Z" fill="#BFBBF2"/>
<path d="M59.4577 53.2982L58.9029 52.845C58.9029 52.845 57.7123 51.8222 57.4234 50.753C58.4174 49.8697 59.0531 48.5913 59.0531 47.1618C59.0531 44.512 56.9032 42.3503 54.2679 42.3503C51.6325 42.3503 49.4826 44.512 49.4826 47.1618C49.4826 48.7075 50.2224 50.0673 51.3551 50.9506C51.228 51.7641 50.8465 52.6939 49.8178 53.1471C46.7895 53.6236 44.5355 56.2386 44.5355 59.3416V67.0702C44.5355 67.5932 44.9516 68.0116 45.4718 68.0116H63.064C63.5841 68.0116 64.0002 67.5932 64.0002 67.0702V59.3416C64.0002 56.4943 62.1046 54.0536 59.4577 53.2982Z" fill="#BFBBF2"/>
<path d="M15.8585 37.1324H33.4507C33.9708 37.1324 34.3869 36.714 34.3869 36.191V28.4624C34.3869 25.2663 32.0059 22.5701 28.8388 22.2098C28.8388 22.2098 27.7292 21.2568 27.394 20.2108C28.6307 19.3392 29.4399 17.898 29.4399 16.271C29.4399 13.6212 27.29 11.4595 24.6546 11.4595C22.0192 11.4595 19.8693 13.6212 19.8693 16.271C19.8693 17.6307 20.4357 18.851 21.3373 19.7343C21.3141 20.5013 21.0945 21.6287 20.1814 22.2679C17.1646 22.756 14.9222 25.3593 14.9222 28.4624V36.191C14.9222 36.714 15.3384 37.1324 15.8585 37.1324Z" fill="#BFBBF2"/>
<path d="M36.9645 21.6169C37.0685 21.6634 37.1841 21.675 37.2997 21.675C37.5655 21.675 37.8198 21.5588 38.0047 21.3612L42.7669 15.9338C42.8478 15.8408 42.9634 15.7943 43.079 15.7943H51.3087C53.7013 15.7943 55.6432 13.8418 55.6432 11.4361V7.50789C55.6432 5.10215 53.7013 3.14966 51.3087 3.14966H40.6979C38.3052 3.14966 36.3634 5.10215 36.3634 7.50789V20.7337C36.3634 21.1288 36.6061 21.4775 36.9645 21.6169Z" fill="#BFBBF2"/>
<path d="M14.2287 64.862C13.7086 64.862 13.2925 64.4436 13.2925 63.9206V59.0278C13.2925 58.5048 13.7086 58.0864 14.2287 58.0864C14.7489 58.0864 15.165 58.5048 15.165 59.0278V63.9206C15.165 64.4436 14.7489 64.862 14.2287 64.862Z" fill="#5541D9"/>
<path d="M9.73253 48.8122C7.09717 48.8122 4.94727 46.6505 4.94727 44.0007C4.94727 41.3509 7.09717 39.1892 9.73253 39.1892C12.3679 39.1892 14.5178 41.3509 14.5178 44.0007C14.5178 46.6505 12.3679 48.8122 9.73253 48.8122ZM9.73253 41.072C8.12588 41.072 6.81976 42.3852 6.81976 44.0007C6.81976 45.6161 8.12588 46.9294 9.73253 46.9294C11.3392 46.9294 12.6453 45.6161 12.6453 44.0007C12.6453 42.3852 11.3392 41.072 9.73253 41.072Z" fill="#5541D9"/>
<path d="M5.23605 64.862C4.71591 64.862 4.2998 64.4436 4.2998 63.9206V59.0278C4.2998 58.5048 4.71591 58.0864 5.23605 58.0864C5.75619 58.0864 6.1723 58.5048 6.1723 59.0278V63.9206C6.1723 64.4436 5.75619 64.862 5.23605 64.862Z" fill="#5541D9"/>
<path d="M35.0459 64.862C34.5257 64.862 34.1096 64.4436 34.1096 63.9206V59.0278C34.1096 58.5048 34.5257 58.0864 35.0459 58.0864C35.566 58.0864 35.9821 58.5048 35.9821 59.0278V63.9206C35.9821 64.4436 35.566 64.862 35.0459 64.862Z" fill="#5541D9"/>
<path d="M30.5495 48.8122C27.9142 48.8122 25.7643 46.6505 25.7643 44.0007C25.7643 41.3509 27.9142 39.1892 30.5495 39.1892C33.1849 39.1892 35.3348 41.3509 35.3348 44.0007C35.3348 46.6505 33.1849 48.8122 30.5495 48.8122ZM30.5495 41.072C28.9429 41.072 27.6368 42.3852 27.6368 44.0007C27.6368 45.6161 28.9429 46.9294 30.5495 46.9294C32.1562 46.9294 33.4623 45.6161 33.4623 44.0007C33.4623 42.3852 32.1562 41.072 30.5495 41.072Z" fill="#5541D9"/>
<path d="M26.0531 64.862C25.5329 64.862 25.1168 64.4436 25.1168 63.9206V59.0278C25.1168 58.5048 25.5329 58.0864 26.0531 58.0864C26.5732 58.0864 26.9893 58.5048 26.9893 59.0278V63.9206C26.9893 64.4436 26.5732 64.862 26.0531 64.862Z" fill="#5541D9"/>
<path d="M55.8513 64.862C55.3312 64.862 54.915 64.4436 54.915 63.9206V59.0278C54.915 58.5048 55.3312 58.0864 55.8513 58.0864C56.3714 58.0864 56.7875 58.5048 56.7875 59.0278V63.9206C56.7875 64.4436 56.3714 64.862 55.8513 64.862Z" fill="#5541D9"/>
<path d="M51.355 48.8122C48.7196 48.8122 46.5697 46.6505 46.5697 44.0007C46.5697 41.3509 48.7196 39.1892 51.355 39.1892C53.9903 39.1892 56.1402 41.3509 56.1402 44.0007C56.1402 46.6505 53.9903 48.8122 51.355 48.8122ZM51.355 41.072C49.7483 41.072 48.4422 42.3852 48.4422 44.0007C48.4422 45.6161 49.7483 46.9294 51.355 46.9294C52.9616 46.9294 54.2677 45.6161 54.2677 44.0007C54.2677 42.3852 52.9616 41.072 51.355 41.072Z" fill="#5541D9"/>
<path d="M46.8587 64.862C46.3386 64.862 45.9225 64.4436 45.9225 63.9206V59.0278C45.9225 58.5048 46.3386 58.0864 46.8587 58.0864C47.3789 58.0864 47.795 58.5048 47.795 59.0278V63.9206C47.795 64.4436 47.3789 64.862 46.8587 64.862Z" fill="#5541D9"/>
<path d="M18.5286 64.8621H0.936369C0.416232 64.8621 0.00012207 64.4437 0.00012207 63.9208V56.1922C0.00012207 52.9961 2.3812 50.2998 5.54825 49.9396C6.05683 49.8814 6.53073 50.2534 6.58853 50.7647C6.64632 51.2877 6.27645 51.7526 5.76787 51.8107C3.54861 52.0664 1.88417 53.9491 1.88417 56.1922V62.9678H17.5923V56.1922C17.5923 53.9491 15.9279 52.0664 13.7086 51.8107C13.1885 51.7526 12.8186 51.2877 12.888 50.7647C12.9458 50.2417 13.4197 49.8698 13.9282 49.9396C17.0953 50.2998 19.4764 52.9961 19.4764 56.1922V63.9208C19.4764 64.4437 19.0603 64.8621 18.5401 64.8621H18.5286Z" fill="#5541D9"/>
<path d="M39.3456 64.8621H21.7534C21.2332 64.8621 20.8171 64.4437 20.8171 63.9208V56.1922C20.8171 52.9961 23.1982 50.2998 26.3653 49.9396C26.8738 49.8814 27.3478 50.2534 27.4055 50.7647C27.4633 51.2877 27.0935 51.7526 26.5849 51.8107C24.3656 52.0664 22.7012 53.9491 22.7012 56.1922V62.9678H38.4209V56.1922C38.4209 53.9491 36.7449 52.0664 34.5372 51.8107C34.0171 51.7526 33.6472 51.2877 33.7165 50.7647C33.7743 50.2417 34.2482 49.8698 34.7568 49.9396C37.9239 50.2998 40.3049 52.9961 40.3049 56.1922V63.9208C40.3049 64.4437 39.8888 64.8621 39.3687 64.8621H39.3456Z" fill="#5541D9"/>
<path d="M60.1511 64.8621H42.5589C42.0388 64.8621 41.6227 64.4437 41.6227 63.9208V56.1922C41.6227 52.9961 44.0038 50.2998 47.1708 49.9396C47.6794 49.8814 48.1533 50.2534 48.2111 50.7647C48.2689 51.2877 47.899 51.7526 47.3904 51.8107C45.1712 52.0664 43.5067 53.9491 43.5067 56.1922V62.9678H59.2264V56.1922C59.2264 53.9491 57.562 52.0664 55.3427 51.8107C54.8226 51.7526 54.4527 51.2877 54.5221 50.7647C54.5799 50.2417 55.0538 49.8698 55.5624 49.9396C58.7294 50.2998 61.1105 52.9961 61.1105 56.1922V63.9208C61.1105 64.4437 60.6944 64.8621 60.1742 64.8621H60.1511Z" fill="#5541D9"/>
<path d="M26.2498 33.9826C25.7297 33.9826 25.3136 33.5642 25.3136 33.0412V28.1484C25.3136 27.6254 25.7297 27.207 26.2498 27.207C26.77 27.207 27.1861 27.6254 27.1861 28.1484V33.0412C27.1861 33.5642 26.77 33.9826 26.2498 33.9826Z" fill="#5541D9"/>
<path d="M21.7535 17.9443C19.1182 17.9443 16.9683 15.7826 16.9683 13.1328C16.9683 10.483 19.1182 8.32129 21.7535 8.32129C24.3889 8.32129 26.5388 10.483 26.5388 13.1328C26.5388 15.7826 24.3889 17.9443 21.7535 17.9443ZM21.7535 10.204C20.1469 10.204 18.8408 11.5173 18.8408 13.1328C18.8408 14.7482 20.1469 16.0615 21.7535 16.0615C23.3602 16.0615 24.6663 14.7482 24.6663 13.1328C24.6663 11.5173 23.3602 10.204 21.7535 10.204Z" fill="#5541D9"/>
<path d="M17.257 33.9826C16.7369 33.9826 16.3208 33.5642 16.3208 33.0412V28.1484C16.3208 27.6254 16.7369 27.207 17.257 27.207C17.7772 27.207 18.1933 27.6254 18.1933 28.1484V33.0412C18.1933 33.5642 17.7772 33.9826 17.257 33.9826Z" fill="#5541D9"/>
<path d="M30.5496 33.9825H12.9574C12.4372 33.9825 12.0211 33.5641 12.0211 33.0411V25.3125C12.0211 22.1165 14.4022 19.4202 17.5692 19.0599C18.0778 18.9902 18.5517 19.3737 18.6095 19.8851C18.6673 20.4081 18.2974 20.8729 17.7889 20.9311C15.5696 21.1867 13.9052 23.0695 13.9052 25.3125V32.0881H29.6249V25.3125C29.6249 23.0695 27.9604 21.1867 25.7412 20.9311C25.221 20.8729 24.8512 20.4081 24.9205 19.8851C24.9783 19.3621 25.4407 18.9902 25.9608 19.0599C29.1279 19.4202 31.5089 22.1165 31.5089 25.3125V33.0411C31.5089 33.5641 31.0928 33.9825 30.5727 33.9825H30.5496Z" fill="#5541D9"/>
<path d="M35.8087 33.9826H10.1717C9.65158 33.9826 9.23547 33.5642 9.23547 33.0412C9.23547 32.5182 9.65158 32.0999 10.1717 32.0999H35.8087C36.3288 32.0999 36.745 32.5182 36.745 33.0412C36.745 33.5642 36.3288 33.9826 35.8087 33.9826Z" fill="#5541D9"/>
<path d="M34.3985 18.5254C34.2829 18.5254 34.1789 18.5021 34.0633 18.4673C33.6935 18.3278 33.4623 17.9791 33.4623 17.584V4.35823C33.4623 1.95249 35.4041 0 37.7968 0H48.4076C50.8002 0 52.742 1.95249 52.742 4.35823V8.28645C52.742 10.6922 50.8002 12.6447 48.4076 12.6447H40.1778C40.0622 12.6447 39.9467 12.6912 39.8657 12.7841L35.1036 18.2116C34.9187 18.4208 34.6644 18.5254 34.3985 18.5254ZM37.7968 1.88276C36.4444 1.88276 35.3348 2.98684 35.3348 4.35823V15.0853L38.4556 11.529C38.8948 11.0292 39.519 10.7503 40.1778 10.7503H48.4076C49.7599 10.7503 50.8695 9.64621 50.8695 8.27483V4.35823C50.8695 2.99846 49.7715 1.88276 48.4076 1.88276H37.7968Z" fill="#5541D9"/>
<path d="M44.2581 6.50829C44.2581 7.15912 43.7379 7.68211 43.0906 7.68211C42.4434 7.68211 41.9232 7.15912 41.9232 6.50829C41.9232 5.85746 42.4434 5.33447 43.0906 5.33447C43.7379 5.33447 44.2581 5.85746 44.2581 6.50829Z" fill="#5541D9"/>
<path d="M47.899 6.50829C47.899 7.15912 47.3789 7.68211 46.7316 7.68211C46.0843 7.68211 45.5642 7.15912 45.5642 6.50829C45.5642 5.85746 46.0843 5.33447 46.7316 5.33447C47.3789 5.33447 47.899 5.85746 47.899 6.50829Z" fill="#5541D9"/>
<path d="M40.6171 6.50829C40.6171 7.15912 40.0969 7.68211 39.4496 7.68211C38.8024 7.68211 38.2822 7.15912 38.2822 6.50829C38.2822 5.85746 38.8024 5.33447 39.4496 5.33447C40.0969 5.33447 40.6171 5.85746 40.6171 6.50829Z" fill="#5541D9"/>
</g>
<defs>
<clipPath id="clip0_62_1178">
<rect width="64" height="68" fill="white" transform="translate(0.000244141)"/>
</clipPath>
</defs>
</svg>
