<svg width="56" height="58" viewBox="0 0 56 58" fill="none" xmlns="http://www.w3.org/2000/svg">
<g clip-path="url(#clip0_62_1209)">
<path d="M52.7484 12.18H41.5606C40.7172 10.3831 38.8779 9.1784 36.866 9.1784H36.3376C35.5551 6.75876 33.2891 5.01294 30.6268 5.01294C27.9645 5.01294 25.6985 6.76897 24.916 9.1784H24.3877C22.3655 9.1784 20.5364 10.3831 19.693 12.18H8.50523C6.70665 12.18 5.25356 13.6502 5.25356 15.447V47.5558C5.25356 47.8212 5.22307 48.0663 5.20275 48.3011C5.14178 48.9545 5.06049 49.6998 5.57872 50.2817C5.90389 50.6493 6.39164 50.833 7.0115 50.833H19.693C20.5364 52.6299 22.3757 53.8346 24.3877 53.8346H24.916C25.6985 56.2543 27.9645 58.0001 30.6268 58.0001C33.2891 58.0001 35.5551 56.2441 36.3376 53.8346H36.866C38.8881 53.8346 40.7172 52.6299 41.5606 50.833H52.7484C54.547 50.833 56.0001 49.3629 56.0001 47.566V15.447C56.0001 13.6399 54.5368 12.18 52.7484 12.18ZM42.3024 14.4669L42.2312 14.2219H42.597L42.3024 14.4669Z" fill="#BFBBF2"/>
<path d="M25.475 52.9974C22.1623 52.9974 19.4594 50.2919 19.4594 46.9534C19.4594 43.6149 22.1521 40.9094 25.475 40.9094C28.7978 40.9094 31.4906 43.6149 31.4906 46.9534C31.4906 50.2919 28.7978 52.9974 25.475 52.9974ZM25.475 42.9513C23.2801 42.9513 21.4815 44.7482 21.4815 46.9636C21.4815 49.1791 23.2699 50.976 25.475 50.976C27.68 50.976 29.4684 49.1791 29.4684 46.9636C29.4684 44.7482 27.68 42.9513 25.475 42.9513Z" fill="#5541D9"/>
<path d="M31.7139 48.8215H30.4031C30.1084 48.8215 29.8239 48.6888 29.6308 48.4642C29.4377 48.2396 29.3564 47.9333 29.4072 47.6372C29.4479 47.3922 29.4682 47.1676 29.4682 46.9532C29.4682 45.7485 28.9297 44.6152 28.005 43.8495C27.6696 43.5739 27.5477 43.1247 27.69 42.7163C27.8322 42.3079 28.2184 42.0425 28.6451 42.0425H29.7629C30.271 42.0425 30.7486 41.7566 30.9924 41.3074C31.6631 40.0618 31.6225 38.5304 30.9111 37.3155L29.6918 35.243C29.1735 34.3751 29.2345 33.2929 29.834 32.4864C30.2811 31.884 30.9721 31.5165 31.7241 31.4961C32.476 31.4757 33.1873 31.7819 33.6751 32.3537L36.4796 35.6309C37.8921 37.2746 38.3595 39.5003 37.7397 41.5728L36.7032 45.0849C36.0529 47.2799 34.0002 48.8113 31.7241 48.8113L31.7139 48.8215ZM31.4904 46.7899H31.7139C33.106 46.7899 34.3559 45.8506 34.7522 44.5132L35.7887 41.0011C36.2053 39.5922 35.8903 38.0812 34.9351 36.9684L32.1305 33.6911C32.0086 33.5482 31.8562 33.538 31.7749 33.538C31.6936 33.538 31.5412 33.5686 31.4294 33.7217C31.3176 33.8647 31.3074 34.0587 31.3989 34.222L32.6183 36.2945C33.6954 38.122 33.7462 40.4192 32.7504 42.2875C32.3033 43.1145 31.5513 43.7066 30.6876 43.9618C31.1753 44.8194 31.4599 45.7995 31.4802 46.8103L31.4904 46.7899Z" fill="#5541D9"/>
<path d="M20.5464 48.8218H19.2356C16.9594 48.8218 14.9068 47.2904 14.2564 45.0954L13.22 41.5833C12.6001 39.5006 13.0777 37.2851 14.48 35.6414L17.2846 32.3642C17.7723 31.7924 18.4836 31.4862 19.2356 31.5066C19.9875 31.527 20.6785 31.8945 21.1256 32.4969C21.7251 33.3034 21.7861 34.3856 21.2679 35.2534L19.5709 38.1121C19.1441 38.837 19.1238 39.7456 19.5201 40.4909C20.0282 41.4506 21.024 42.0427 22.1011 42.0427H22.2942C22.721 42.0427 23.1071 42.3082 23.2494 42.7166C23.3916 43.125 23.2697 43.5742 22.9344 43.8498C21.9995 44.6155 21.4711 45.7488 21.4711 46.9535C21.4711 47.1679 21.4914 47.3925 21.5321 47.6375C21.5829 47.9336 21.5016 48.2399 21.3085 48.4645C21.1155 48.6891 20.8309 48.8218 20.5362 48.8218H20.5464ZM15.1507 41.0014L16.1871 44.5134C16.5834 45.8509 17.8333 46.7902 19.2254 46.7902H19.449C19.4795 45.6977 19.7945 44.6564 20.3533 43.7579C19.2559 43.3393 18.321 42.5328 17.7418 41.4608C17.0102 40.0927 17.0407 38.4082 17.8333 37.0809L19.5303 34.2223C19.6217 34.0692 19.6116 33.865 19.4998 33.722C19.388 33.5689 19.2356 33.5485 19.1543 33.5383C19.0832 33.5383 18.9206 33.5485 18.7986 33.6914L15.9941 36.9686C15.0389 38.0815 14.7137 39.5925 15.1303 41.0014H15.1507Z" fill="#5541D9"/>
<path d="M15.1203 45.8201H1.84938C1.22953 45.8201 0.751938 45.6363 0.416608 45.2688C-0.101628 44.697 -0.0304975 43.9518 0.040633 43.2881C0.060956 43.0635 0.0914405 42.8083 0.0914405 42.5428V10.4443C0.0914405 8.6372 1.5547 7.17725 3.34312 7.17725H15.1203C15.6792 7.17725 16.1364 7.63667 16.1364 8.19819C16.1364 8.75971 15.6792 9.21914 15.1203 9.21914H3.35328C2.67246 9.21914 2.12374 9.77045 2.12374 10.4545V42.5633C2.12374 42.9104 2.09326 43.2269 2.06277 43.5127C2.06277 43.6046 2.04245 43.7067 2.03229 43.8088H15.1203C15.6792 43.8088 16.1364 44.2682 16.1364 44.8298C16.1364 45.3913 15.6792 45.8507 15.1203 45.8507V45.8201Z" fill="#5541D9"/>
<path d="M47.5964 45.82H35.8294C35.2705 45.82 34.8132 45.3606 34.8132 44.7991C34.8132 44.2376 35.2705 43.7782 35.8294 43.7782H47.5964C48.2772 43.7782 48.8259 43.2268 48.8259 42.5428V10.4442C48.8259 9.7602 48.2772 9.20889 47.5964 9.20889H35.8294C35.2705 9.20889 34.8132 8.74946 34.8132 8.18794C34.8132 7.62642 35.2705 7.16699 35.8294 7.16699H47.5964C49.395 7.16699 50.8481 8.63716 50.8481 10.434V42.5428C50.8481 44.3499 49.3848 45.8098 47.5964 45.8098V45.82Z" fill="#5541D9"/>
<path d="M25.475 12.0776C22.1623 12.0776 19.4594 9.37205 19.4594 6.03355C19.4594 2.69506 22.1521 -0.000244141 25.475 -0.000244141C28.7978 -0.000244141 31.4906 2.70527 31.4906 6.04376C31.4906 9.38226 28.7978 12.0878 25.475 12.0878V12.0776ZM25.475 2.03144C23.2801 2.03144 21.4815 3.82831 21.4815 6.04376C21.4815 8.25922 23.2699 10.0561 25.475 10.0561C27.68 10.0561 29.4684 8.25922 29.4684 6.04376C29.4684 3.82831 27.68 2.03144 25.475 2.03144Z" fill="#5541D9"/>
<path d="M19.1545 21.491C18.433 21.491 17.7522 21.1745 17.2848 20.6232L14.4802 17.346C13.0678 15.7022 12.6004 13.4766 13.2202 11.404L14.2567 7.89198C14.907 5.69695 16.9596 4.16553 19.2358 4.16553H20.5466C20.8413 4.16553 21.1258 4.29825 21.3189 4.52286C21.512 4.74747 21.5933 5.05375 21.5425 5.34983C21.5018 5.59485 21.4815 5.81946 21.4815 6.03386C21.4815 7.23858 22.0201 8.37183 22.9448 9.13754C23.2801 9.41319 23.402 9.86241 23.2598 10.2708C23.1175 10.6792 22.7314 10.9446 22.3046 10.9446H21.1868C20.6787 10.9446 20.2011 11.2305 19.9573 11.6797C19.2866 12.9253 19.3273 14.4567 20.0386 15.6716L21.2579 17.7441C21.766 18.6119 21.7152 19.6941 21.1157 20.5007C20.6686 21.103 19.9776 21.4706 19.2256 21.491C19.1952 21.491 19.1647 21.491 19.1444 21.491H19.1545ZM19.2358 6.19721C17.8437 6.19721 16.5938 7.13648 16.1975 8.47392L15.161 11.986C14.7444 13.3949 15.0594 14.9059 16.0248 16.0187L18.8293 19.296C18.9513 19.4389 19.1037 19.4593 19.185 19.4491C19.2663 19.4491 19.4187 19.4185 19.5305 19.2653C19.6423 19.1224 19.6524 18.9182 19.561 18.7651L18.3416 16.6925C17.2645 14.8651 17.2137 12.5781 18.2095 10.6996C18.6566 9.87262 19.4086 9.28047 20.2723 9.02523C19.7845 8.16764 19.5 7.18753 19.4797 6.17679H19.2561L19.2358 6.19721Z" fill="#5541D9"/>
<path d="M31.7851 21.491C31.7851 21.491 31.7241 21.491 31.7038 21.491C30.9518 21.4706 30.2608 21.1031 29.8137 20.5007C29.2142 19.6942 29.1532 18.612 29.6613 17.7442L31.3583 14.8855C31.7851 14.1606 31.8054 13.252 31.4091 12.5067C30.901 11.547 29.9052 10.9549 28.8281 10.9549H28.635C28.2082 10.9549 27.8221 10.6894 27.6798 10.281C27.5376 9.87266 27.6595 9.42345 27.9948 9.14779C28.9297 8.38208 29.4581 7.24883 29.4581 6.04411C29.4581 5.82972 29.4378 5.60511 29.3971 5.36008C29.3463 5.064 29.4276 4.75772 29.6207 4.53311C29.8137 4.3085 30.0983 4.17578 30.3929 4.17578H31.7038C33.9799 4.17578 36.0326 5.7072 36.6829 7.90224L37.7194 11.4143C38.3392 13.497 37.8616 15.7125 36.4594 17.3562L33.6548 20.6334C33.1874 21.1848 32.5065 21.5012 31.7851 21.5012V21.491ZM30.5758 9.23968C31.6733 9.65827 32.6183 10.4648 33.1874 11.5368C33.919 12.9049 33.8885 14.5894 33.0959 15.9167L31.3989 18.7753C31.3075 18.9285 31.3176 19.1327 31.4294 19.2756C31.5412 19.4287 31.6936 19.4491 31.7749 19.4594C31.846 19.4594 32.0086 19.4491 32.1306 19.3062L34.9351 16.029C35.8903 14.9161 36.2155 13.4051 35.7887 11.9962L34.7522 8.48418C34.3559 7.14674 33.1061 6.20747 31.7139 6.20747H31.4904C31.4599 7.29988 31.1449 8.34124 30.586 9.23968H30.5758Z" fill="#5541D9"/>
<path d="M30.7385 25.8399H20.0893C19.5304 25.8399 19.0731 25.3805 19.0731 24.819V20.1328C19.0731 19.8368 19.2052 19.5509 19.4389 19.3569C19.4694 19.3365 19.4897 19.3059 19.5101 19.2855C19.6218 19.1425 19.632 18.9383 19.5405 18.7852L19.256 18.3053C19.0731 17.9889 19.063 17.6009 19.256 17.2844C19.4389 16.9679 19.7743 16.7739 20.1401 16.7739H30.7588C31.3177 16.7739 31.775 17.2334 31.775 17.7949V17.9174C31.775 18.1012 31.7242 18.2849 31.6327 18.4381L31.4193 18.7954C31.3279 18.9383 31.338 19.1221 31.4193 19.265L31.4803 19.3263C31.6632 19.5203 31.7648 19.7653 31.7648 20.0307V24.8394C31.7648 25.4009 31.3076 25.8604 30.7487 25.8604L30.7385 25.8399ZM21.0953 23.8082H29.7224V20.3881C29.4074 19.9082 29.2651 19.3569 29.3159 18.8056H21.6135C21.6643 19.3978 21.5017 20.0001 21.1257 20.5004C21.0953 20.5412 21.0953 23.8082 21.0953 23.8082Z" fill="#5541D9"/>
<path d="M6.95048 38.4489C6.39159 38.4489 5.93433 37.9895 5.93433 37.428V15.5593C5.93433 14.9978 6.39159 14.5383 6.95048 14.5383C7.50936 14.5383 7.96663 14.9978 7.96663 15.5593V37.4382C7.96663 37.9997 7.50936 38.4591 6.95048 38.4591V38.4489Z" fill="#5541D9"/>
<path d="M13.0779 32.7008C12.519 32.7008 12.0618 32.2414 12.0618 31.6799V21.2968C12.0618 20.7353 12.519 20.2759 13.0779 20.2759C13.6368 20.2759 14.0941 20.7353 14.0941 21.2968V31.6799C14.0941 32.2414 13.6368 32.7008 13.0779 32.7008Z" fill="#5541D9"/>
<path d="M43.8875 38.4489C43.3286 38.4489 42.8713 37.9895 42.8713 37.428V15.5593C42.8713 14.9978 43.3286 14.5383 43.8875 14.5383C44.4464 14.5383 44.9036 14.9978 44.9036 15.5593V37.4382C44.9036 37.9997 44.4464 38.4591 43.8875 38.4591V38.4489Z" fill="#5541D9"/>
<path d="M37.7701 32.7008C37.2112 32.7008 36.7539 32.2414 36.7539 31.6799V21.2968C36.7539 20.7353 37.2112 20.2759 37.7701 20.2759C38.3289 20.2759 38.7862 20.7353 38.7862 21.2968V31.6799C38.7862 32.2414 38.3289 32.7008 37.7701 32.7008Z" fill="#5541D9"/>
</g>
<defs>
<clipPath id="clip0_62_1209">
<rect width="56" height="58" fill="white"/>
</clipPath>
</defs>
</svg>
