<svg width="64" height="52" viewBox="0 0 64 52" fill="none" xmlns="http://www.w3.org/2000/svg">
<g clip-path="url(#clip0_62_1312)">
<path d="M63.0594 7.47864H61.0972V4.77875C61.0972 4.52097 60.9953 4.27374 60.8138 4.09147C60.6323 3.90919 60.3862 3.80678 60.1296 3.80678H40.3194C38.8852 3.87193 37.4997 4.34923 36.3275 5.18198C35.1554 6.01474 34.2459 7.16794 33.707 8.5046C33.177 7.16501 32.2741 6.00707 31.1062 5.1692C29.9384 4.33133 28.5551 3.84897 27.1216 3.77979H7.36517C7.10853 3.77979 6.86241 3.88219 6.68093 4.06447C6.49946 4.24674 6.39751 4.49397 6.39751 4.75175V7.45164H4.43531C4.17867 7.45164 3.93254 7.55405 3.75107 7.73633C3.5696 7.9186 3.46765 8.16583 3.46765 8.42361V47.3561C3.46765 47.6139 3.5696 47.8611 3.75107 48.0434C3.93254 48.2257 4.17867 48.3281 4.43531 48.3281H23.2509L23.0897 51.028C23.0897 51.2857 23.1916 51.533 23.3731 51.7152C23.5546 51.8975 23.8007 51.9999 24.0573 51.9999H43.3299C43.5865 51.9999 43.8327 51.8975 44.0141 51.7152C44.1956 51.533 44.2976 51.2857 44.2976 51.028V48.3281H63.1132C63.3651 48.321 63.6044 48.2155 63.7801 48.034C63.9558 47.8525 64.0541 47.6093 64.054 47.3561V8.45061C64.054 8.32066 64.0281 8.19203 63.9778 8.07231C63.9275 7.95259 63.8538 7.84422 63.7611 7.7536C63.6684 7.66298 63.5585 7.59196 63.438 7.54473C63.3175 7.49751 63.1887 7.47503 63.0594 7.47864Z" fill="#BFBBF2"/>
<path d="M30.2665 48.2201C30.0099 48.2201 29.7637 48.1177 29.5823 47.9355C29.4008 47.7532 29.2988 47.506 29.2988 47.2482C29.4583 45.5663 28.9574 43.8883 27.903 42.572C26.8485 41.2556 25.3239 40.405 23.6541 40.2015H3.87086C3.61422 40.2015 3.36809 40.099 3.18662 39.9168C3.00515 39.7345 2.9032 39.4873 2.9032 39.2295V0.971963C2.9032 0.714182 3.00515 0.46696 3.18662 0.284681C3.36809 0.102403 3.61422 0 3.87086 0L23.6541 0C25.8396 0.199352 27.8593 1.25385 29.2774 2.93591C30.6956 4.61796 31.3984 6.79267 31.2342 8.99065V47.2482C31.2342 47.3758 31.2091 47.5022 31.1605 47.6201C31.1119 47.7381 31.0406 47.8452 30.9507 47.9355C30.8609 48.0257 30.7542 48.0973 30.6368 48.1462C30.5194 48.195 30.3936 48.2201 30.2665 48.2201ZM4.83852 38.2575H23.6541C24.7623 38.2815 25.8496 38.5649 26.8295 39.0851C27.8094 39.6054 28.655 40.3482 29.2988 41.2544V8.99065C29.4583 7.30874 28.9574 5.63079 27.903 4.31446C26.8485 2.99812 25.3239 2.14751 23.6541 1.94393H4.83852V38.2575Z" fill="#5541D9"/>
<path d="M12.3379 6.2097H8.35975C8.10311 6.2097 7.85698 6.1073 7.67551 5.92502C7.49404 5.74274 7.39209 5.49552 7.39209 5.23774C7.39209 4.97996 7.49404 4.73273 7.67551 4.55046C7.85698 4.36818 8.10311 4.26577 8.35975 4.26577H12.3379C12.4758 4.24635 12.6162 4.25703 12.7496 4.2971C12.883 4.33716 13.0062 4.40567 13.1108 4.49794C13.2154 4.59021 13.299 4.70407 13.3558 4.83174C13.4126 4.95942 13.4413 5.0979 13.44 5.23774C13.4413 5.37757 13.4126 5.51606 13.3558 5.64373C13.299 5.77141 13.2154 5.88527 13.1108 5.97754C13.0062 6.0698 12.883 6.13831 12.7496 6.17838C12.6162 6.21845 12.4758 6.22913 12.3379 6.2097Z" fill="#5541D9"/>
<path d="M30.2665 13.4995C30.0099 13.4995 29.7638 13.3971 29.5823 13.2148C29.4008 13.0326 29.2989 12.7853 29.2989 12.5276C29.3724 10.9409 28.8217 9.3889 27.7655 8.20678C26.7093 7.02466 25.2325 6.30735 23.6542 6.20979H17.0687C16.8168 6.20276 16.5775 6.09726 16.4018 5.91574C16.2261 5.73422 16.1278 5.491 16.1279 5.23783C16.1279 5.11019 16.153 4.9838 16.2016 4.86588C16.2502 4.74795 16.3215 4.64081 16.4114 4.55055C16.5012 4.4603 16.6079 4.3887 16.7253 4.33986C16.8427 4.29101 16.9685 4.26587 17.0956 4.26587H23.6542C25.7456 4.39128 27.7063 5.32938 29.1211 6.88152C30.5359 8.43365 31.2938 10.478 31.2342 12.5815C31.2204 12.8299 31.1124 13.0634 30.9324 13.2342C30.7524 13.4049 30.5141 13.4999 30.2665 13.4995Z" fill="#5541D9"/>
<path d="M18.8159 11.5286H8.35975C8.23268 11.5286 8.10684 11.5035 7.98944 11.4547C7.87204 11.4058 7.76537 11.3342 7.67551 11.244C7.58566 11.1537 7.51438 11.0466 7.46575 10.9286C7.41712 10.8107 7.39209 10.6843 7.39209 10.5567C7.39209 10.429 7.41712 10.3026 7.46575 10.1847C7.51438 10.0668 7.58566 9.95965 7.67551 9.8694C7.76537 9.77914 7.87204 9.70755 7.98944 9.6587C8.10684 9.60986 8.23268 9.58472 8.35975 9.58472H18.8159C19.0725 9.58472 19.3186 9.68712 19.5001 9.8694C19.6816 10.0517 19.7835 10.2989 19.7835 10.5567C19.7835 10.8145 19.6816 11.0617 19.5001 11.244C19.3186 11.4262 19.0725 11.5286 18.8159 11.5286Z" fill="#5541D9"/>
<path d="M30.2665 18.8994C30.0144 18.8995 29.7723 18.8008 29.5916 18.6243C29.4109 18.4478 29.3058 18.2075 29.2988 17.9544C29.3946 16.3514 28.8545 14.7756 27.7967 13.5714C26.739 12.3673 25.2495 11.6328 23.6541 11.5286H22.6058C22.3492 11.5286 22.1031 11.4262 21.9216 11.244C21.7401 11.0617 21.6382 10.8145 21.6382 10.5567C21.6382 10.2989 21.7401 10.0517 21.9216 9.8694C22.1031 9.68712 22.3492 9.58472 22.6058 9.58472H23.6541C25.7503 9.71021 27.7151 10.6521 29.1307 12.2101C30.5462 13.768 31.3009 15.8192 31.2342 17.9274C31.2342 18.055 31.2091 18.1814 31.1605 18.2994C31.1119 18.4173 31.0406 18.5244 30.9507 18.6147C30.8609 18.7049 30.7542 18.7765 30.6368 18.8254C30.5194 18.8742 30.3936 18.8994 30.2665 18.8994Z" fill="#5541D9"/>
<path d="M10.4025 16.8474H8.3597C8.22098 16.8709 8.07883 16.8637 7.94316 16.8263C7.80749 16.789 7.68156 16.7224 7.57414 16.6311C7.46673 16.5399 7.38041 16.4262 7.3212 16.298C7.262 16.1699 7.23132 16.0303 7.23132 15.889C7.23132 15.7477 7.262 15.6081 7.3212 15.4799C7.38041 15.3517 7.46673 15.238 7.57414 15.1468C7.68156 15.0555 7.80749 14.9889 7.94316 14.9516C8.07883 14.9142 8.22098 14.907 8.3597 14.9305H10.4025C10.5413 14.907 10.6834 14.9142 10.8191 14.9516C10.9547 14.9889 11.0807 15.0555 11.1881 15.1468C11.2955 15.238 11.3818 15.3517 11.441 15.4799C11.5002 15.6081 11.5309 15.7477 11.5309 15.889C11.5309 16.0303 11.5002 16.1699 11.441 16.298C11.3818 16.4262 11.2955 16.5399 11.1881 16.6311C11.0807 16.7224 10.9547 16.789 10.8191 16.8263C10.6834 16.8637 10.5413 16.8709 10.4025 16.8474Z" fill="#5541D9"/>
<path d="M30.2665 24.2991C30.0098 24.2991 29.7637 24.1967 29.5822 24.0145C29.4008 23.8322 29.2988 23.585 29.2988 23.3272C29.3536 22.529 29.2508 21.7279 28.9965 20.9698C28.7421 20.2116 28.3412 19.5114 27.8167 18.9094C27.2922 18.3073 26.6545 17.8152 25.9402 17.4613C25.2258 17.1075 24.4489 16.8989 23.6541 16.8474H16.4235C16.2848 16.8709 16.1427 16.8637 16.007 16.8263C15.8713 16.789 15.7454 16.7224 15.638 16.6311C15.5306 16.5399 15.4443 16.4262 15.385 16.298C15.3258 16.1699 15.2952 16.0303 15.2952 15.889C15.2952 15.7477 15.3258 15.6081 15.385 15.4799C15.4443 15.3517 15.5306 15.238 15.638 15.1468C15.7454 15.0555 15.8713 14.9889 16.007 14.9516C16.1427 14.9142 16.2848 14.907 16.4235 14.9305H23.6541C25.7455 15.0559 27.7062 15.994 29.121 17.5461C30.5359 19.0983 31.2937 21.1426 31.2341 23.2462C31.2453 23.3805 31.2286 23.5156 31.185 23.643C31.1414 23.7705 31.0719 23.8874 30.9809 23.9864C30.8899 24.0855 30.7794 24.1644 30.6564 24.2182C30.5334 24.272 30.4006 24.2996 30.2665 24.2991Z" fill="#5541D9"/>
<path d="M30.2665 29.5369C30.0099 29.5369 29.7637 29.4345 29.5823 29.2522C29.4008 29.07 29.2989 28.8227 29.2989 28.5649C29.387 26.9692 28.8428 25.4033 27.7852 24.2094C26.7275 23.0155 25.2423 22.2906 23.6542 22.1932H8.35975C8.10311 22.1932 7.85698 22.0908 7.67551 21.9085C7.49404 21.7262 7.39209 21.479 7.39209 21.2212C7.39209 20.9635 7.49404 20.7162 7.67551 20.5339C7.85698 20.3517 8.10311 20.2493 8.35975 20.2493H23.6542C25.7456 20.3747 27.7063 21.3128 29.1211 22.8649C30.5359 24.4171 31.2938 26.4614 31.2342 28.5649C31.2342 28.8227 31.1322 29.07 30.9508 29.2522C30.7693 29.4345 30.5232 29.5369 30.2665 29.5369Z" fill="#5541D9"/>
<path d="M16.1279 27.512H8.35975C8.10311 27.512 7.85698 27.4096 7.67551 27.2274C7.49404 27.0451 7.39209 26.7979 7.39209 26.5401C7.39209 26.2823 7.49404 26.0351 7.67551 25.8528C7.85698 25.6705 8.10311 25.5681 8.35975 25.5681H16.1279C16.3846 25.5681 16.6307 25.6705 16.8122 25.8528C16.9936 26.0351 17.0956 26.2823 17.0956 26.5401C17.0956 26.7979 16.9936 27.0451 16.8122 27.2274C16.6307 27.4096 16.3846 27.512 16.1279 27.512Z" fill="#5541D9"/>
<path d="M30.2665 34.8828C30.0099 34.8828 29.7638 34.7804 29.5823 34.5981C29.4008 34.4158 29.2989 34.1686 29.2989 33.9108C29.3873 32.3123 28.8439 30.7434 27.7869 29.5452C26.7298 28.347 25.2446 27.6163 23.6542 27.512H22.0145C21.7579 27.512 21.5118 27.4096 21.3303 27.2274C21.1488 27.0451 21.0469 26.7979 21.0469 26.5401C21.0469 26.2823 21.1488 26.0351 21.3303 25.8528C21.5118 25.6705 21.7579 25.5681 22.0145 25.5681H23.6542C25.7504 25.6936 27.7152 26.6355 29.1307 28.1935C30.5463 29.7514 31.3009 31.8026 31.2342 33.9108C31.2342 34.0384 31.2092 34.1648 31.1605 34.2827C31.1119 34.4007 31.0406 34.5078 30.9508 34.5981C30.8609 34.6883 30.7542 34.7599 30.6368 34.8088C30.5194 34.8576 30.3936 34.8828 30.2665 34.8828Z" fill="#5541D9"/>
<path d="M10.1875 32.8308H8.3597C8.22098 32.8543 8.07883 32.8471 7.94316 32.8097C7.80749 32.7724 7.68156 32.7058 7.57414 32.6145C7.46673 32.5233 7.38041 32.4096 7.3212 32.2814C7.262 32.1533 7.23132 32.0137 7.23132 31.8724C7.23132 31.7311 7.262 31.5915 7.3212 31.4633C7.38041 31.3351 7.46673 31.2214 7.57414 31.1302C7.68156 31.0389 7.80749 30.9723 7.94316 30.935C8.07883 30.8976 8.22098 30.8904 8.3597 30.9139H10.1875C10.3262 30.8904 10.4684 30.8976 10.604 30.935C10.7397 30.9723 10.8656 31.0389 10.9731 31.1302C11.0805 31.2214 11.1668 31.3351 11.226 31.4633C11.2852 31.5915 11.3159 31.7311 11.3159 31.8724C11.3159 32.0137 11.2852 32.1533 11.226 32.2814C11.1668 32.4096 11.0805 32.5233 10.9731 32.6145C10.8656 32.7058 10.7397 32.7724 10.604 32.8097C10.4684 32.8471 10.3262 32.8543 10.1875 32.8308Z" fill="#5541D9"/>
<path d="M30.2665 40.2015C30.0099 40.2015 29.7638 40.0991 29.5823 39.9169C29.4008 39.7346 29.2989 39.4874 29.2989 39.2296C29.3873 37.6311 28.8439 36.0622 27.7869 34.864C26.7298 33.6658 25.2446 32.9351 23.6542 32.8308H14.1657C14.027 32.8543 13.8849 32.8471 13.7492 32.8097C13.6135 32.7724 13.4876 32.7058 13.3802 32.6145C13.2728 32.5233 13.1864 32.4096 13.1272 32.2814C13.068 32.1533 13.0374 32.0137 13.0374 31.8724C13.0374 31.7311 13.068 31.5915 13.1272 31.4633C13.1864 31.3351 13.2728 31.2214 13.3802 31.1302C13.4876 31.0389 13.6135 30.9723 13.7492 30.935C13.8849 30.8976 14.027 30.8904 14.1657 30.9139H23.6542C25.7456 31.0393 27.7063 31.9774 29.1211 33.5295C30.5359 35.0817 31.2938 37.126 31.2342 39.2296C31.2342 39.3572 31.2092 39.4836 31.1605 39.6015C31.1119 39.7194 31.0406 39.8266 30.9508 39.9169C30.8609 40.0071 30.7542 40.0787 30.6368 40.1275C30.5194 40.1764 30.3936 40.2015 30.2665 40.2015Z" fill="#5541D9"/>
<path d="M30.2665 48.2201C30.0099 48.2201 29.7637 48.1177 29.5823 47.9355C29.4008 47.7532 29.2989 47.506 29.2989 47.2482V8.99065C29.1346 6.79267 29.8374 4.61796 31.2556 2.93591C32.6737 1.25385 34.6934 0.199352 36.8789 0L56.6621 0C56.9188 0 57.1649 0.102403 57.3464 0.284681C57.5279 0.46696 57.6298 0.714182 57.6298 0.971963V39.2295C57.6298 39.4873 57.5279 39.7345 57.3464 39.9168C57.1649 40.099 56.9188 40.2015 56.6621 40.2015H36.8789C35.2091 40.405 33.6845 41.2556 32.6301 42.572C31.5756 43.8883 31.0747 45.5663 31.2342 47.2482C31.2342 47.3758 31.2091 47.5022 31.1605 47.6201C31.1119 47.7381 31.0406 47.8452 30.9508 47.9355C30.8609 48.0257 30.7542 48.0973 30.6368 48.1462C30.5194 48.195 30.3936 48.2201 30.2665 48.2201ZM36.8789 1.94393C35.2091 2.14751 33.6845 2.99812 32.6301 4.31446C31.5756 5.63079 31.0747 7.30874 31.2342 8.99065V41.3894C31.8795 40.4847 32.7254 39.743 33.705 39.223C34.6846 38.7029 35.7711 38.4186 36.8789 38.3925H55.6945V1.94393H36.8789Z" fill="#5541D9"/>
<path d="M52.2001 6.20979H46.8242C46.6843 6.23356 46.541 6.22614 46.4042 6.18805C46.2675 6.14997 46.1408 6.08215 46.0331 5.98941C45.9254 5.89667 45.8393 5.78127 45.7809 5.65139C45.7225 5.52151 45.6933 5.38032 45.6953 5.23783C45.6953 4.98005 45.7972 4.73283 45.9787 4.55055C46.1602 4.36827 46.4063 4.26587 46.6629 4.26587H52.0388C52.2908 4.2729 52.5301 4.3784 52.7058 4.55992C52.8815 4.74144 52.9797 4.98466 52.9796 5.23783C52.9839 5.46598 52.9082 5.68839 52.7657 5.86609C52.6232 6.04379 52.423 6.16547 52.2001 6.20979Z" fill="#5541D9"/>
<path d="M30.2665 13.4996C30.0098 13.4996 29.7637 13.3972 29.5822 13.2149C29.4007 13.0326 29.2988 12.7854 29.2988 12.5276C29.2392 10.424 29.9971 8.3797 31.4119 6.82756C32.8267 5.27543 34.7874 4.33733 36.8788 4.21191H41.2333C41.4899 4.21191 41.736 4.31432 41.9175 4.4966C42.099 4.67887 42.2009 4.9261 42.2009 5.18388C42.2009 5.44166 42.099 5.68888 41.9175 5.87116C41.736 6.05344 41.4899 6.15584 41.2333 6.15584H36.8788C35.2907 6.25327 33.8055 6.97814 32.7478 8.17206C31.6901 9.36599 31.1459 10.9319 31.2341 12.5276C31.2341 12.6552 31.2091 12.7816 31.1605 12.8995C31.1118 13.0175 31.0406 13.1246 30.9507 13.2149C30.8608 13.3051 30.7542 13.3767 30.6368 13.4256C30.5194 13.4744 30.3935 13.4996 30.2665 13.4996Z" fill="#5541D9"/>
<path d="M30.2665 18.8992C30.0145 18.8993 29.7723 18.8006 29.5916 18.6241C29.4109 18.4477 29.3059 18.2073 29.2989 17.9543C29.2322 15.8461 29.9868 13.7949 31.4024 12.2369C32.8179 10.6789 34.7827 9.73706 36.8789 9.61157H52.2002C52.4568 9.61157 52.7029 9.71398 52.8844 9.89625C53.0659 10.0785 53.1678 10.3258 53.1678 10.5835C53.1678 10.8413 53.0659 11.0885 52.8844 11.2708C52.7029 11.4531 52.4568 11.5555 52.2002 11.5555H36.8789C35.2884 11.6598 33.8032 12.3904 32.7462 13.5887C31.6892 14.7869 31.1458 16.3558 31.2342 17.9543C31.2272 18.2073 31.1222 18.4477 30.9414 18.6241C30.7607 18.8006 30.5186 18.8993 30.2665 18.8992Z" fill="#5541D9"/>
<path d="M30.2665 24.2991C30.0098 24.2991 29.7637 24.1967 29.5822 24.0144C29.4007 23.8322 29.2988 23.5849 29.2988 23.3272C29.2392 21.2236 29.9971 19.1793 31.4119 17.6271C32.8267 16.075 34.7874 15.1369 36.8788 15.0115H52.2001C52.4257 15.0496 52.6305 15.1669 52.7783 15.3423C52.926 15.5178 53.007 15.7401 53.007 15.9699C53.007 16.1997 52.926 16.4221 52.7783 16.5976C52.6305 16.773 52.4257 16.8902 52.2001 16.9284H36.8788C35.2883 17.0327 33.8032 17.7633 32.7461 18.9616C31.6891 20.1598 31.1457 21.7287 31.2341 23.3272C31.2341 23.4548 31.2091 23.5812 31.1605 23.6991C31.1118 23.817 31.0406 23.9242 30.9507 24.0144C30.8608 24.1047 30.7542 24.1763 30.6368 24.2251C30.5194 24.274 30.3935 24.2991 30.2665 24.2991Z" fill="#5541D9"/>
<path d="M52.2002 22.1932H43.3031C43.0465 22.1932 42.8003 22.0908 42.6189 21.9085C42.4374 21.7262 42.3354 21.479 42.3354 21.2212C42.3354 20.9635 42.4374 20.7162 42.6189 20.5339C42.8003 20.3517 43.0465 20.2493 43.3031 20.2493H52.2002C52.4569 20.2493 52.703 20.3517 52.8845 20.5339C53.0659 20.7162 53.1679 20.9635 53.1679 21.2212C53.1679 21.479 53.0659 21.7262 52.8845 21.9085C52.703 22.0908 52.4569 22.1932 52.2002 22.1932Z" fill="#5541D9"/>
<path d="M30.2665 29.5369C30.0098 29.5369 29.7637 29.4345 29.5822 29.2522C29.4007 29.07 29.2988 28.8227 29.2988 28.5649C29.2392 26.4614 29.9971 24.4171 31.4119 22.8649C32.8267 21.3128 34.7874 20.3747 36.8788 20.2493H38.6529C38.9095 20.2493 39.1556 20.3517 39.3371 20.5339C39.5186 20.7162 39.6205 20.9635 39.6205 21.2212C39.6205 21.479 39.5186 21.7262 39.3371 21.9085C39.1556 22.0908 38.9095 22.1932 38.6529 22.1932H36.8788C35.2907 22.2906 33.8055 23.0155 32.7478 24.2094C31.6901 25.4033 31.1459 26.9692 31.2341 28.5649C31.2341 28.6926 31.2091 28.819 31.1605 28.9369C31.1118 29.0548 31.0406 29.162 30.9507 29.2522C30.8608 29.3425 30.7542 29.4141 30.6368 29.4629C30.5194 29.5118 30.3935 29.5369 30.2665 29.5369Z" fill="#5541D9"/>
<path d="M30.2665 34.8828C30.0099 34.8828 29.7638 34.7804 29.5823 34.5981C29.4008 34.4158 29.2989 34.1686 29.2989 33.9108C29.2322 31.8026 29.9868 29.7514 31.4024 28.1935C32.8179 26.6355 34.7827 25.6936 36.8789 25.5681H52.2002C52.4568 25.5681 52.7029 25.6705 52.8844 25.8528C53.0659 26.0351 53.1678 26.2823 53.1678 26.5401C53.1678 26.7979 53.0659 27.0451 52.8844 27.2274C52.7029 27.4096 52.4568 27.512 52.2002 27.512H36.8789C35.2884 27.6163 33.8032 28.347 32.7462 29.5452C31.6892 30.7434 31.1458 32.3123 31.2342 33.9108C31.2342 34.0384 31.2092 34.1648 31.1605 34.2827C31.1119 34.4007 31.0406 34.5078 30.9508 34.5981C30.8609 34.6883 30.7542 34.7599 30.6368 34.8088C30.5194 34.8576 30.3936 34.8828 30.2665 34.8828Z" fill="#5541D9"/>
<path d="M52.2001 32.8308H49.3509C49.2122 32.8543 49.07 32.8471 48.9344 32.8097C48.7987 32.7724 48.6728 32.7058 48.5654 32.6145C48.4579 32.5233 48.3716 32.4096 48.3124 32.2814C48.2532 32.1533 48.2225 32.0137 48.2225 31.8724C48.2225 31.7311 48.2532 31.5915 48.3124 31.4633C48.3716 31.3351 48.4579 31.2214 48.5654 31.1302C48.6728 31.0389 48.7987 30.9723 48.9344 30.935C49.07 30.8976 49.2122 30.8904 49.3509 30.9139H52.2001C52.4257 30.9521 52.6306 31.0693 52.7783 31.2447C52.926 31.4202 53.0071 31.6426 53.0071 31.8724C53.0071 32.1021 52.926 32.3245 52.7783 32.5C52.6306 32.6754 52.4257 32.7927 52.2001 32.8308Z" fill="#5541D9"/>
<path d="M30.2665 40.2015C30.0098 40.2015 29.7637 40.0991 29.5822 39.9169C29.4007 39.7346 29.2988 39.4874 29.2988 39.2296C29.2392 37.126 29.9971 35.0817 31.4119 33.5295C32.8267 31.9774 34.7874 31.0393 36.8788 30.9139H43.8675C44.0062 30.8904 44.1483 30.8976 44.284 30.935C44.4197 30.9723 44.5456 31.0389 44.653 31.1302C44.7604 31.2214 44.8468 31.3351 44.906 31.4633C44.9652 31.5915 44.9958 31.7311 44.9958 31.8724C44.9958 32.0137 44.9652 32.1533 44.906 32.2814C44.8468 32.4096 44.7604 32.5233 44.653 32.6145C44.5456 32.7058 44.4197 32.7724 44.284 32.8097C44.1483 32.8471 44.0062 32.8543 43.8675 32.8308H36.8788C35.2883 32.9351 33.8032 33.6658 32.7461 34.864C31.6891 36.0622 31.1457 37.6311 31.2341 39.2296C31.2341 39.3572 31.2091 39.4836 31.1605 39.6015C31.1118 39.7194 31.0406 39.8266 30.9507 39.9169C30.8608 40.0071 30.7542 40.0787 30.6368 40.1275C30.5194 40.1764 30.3935 40.2015 30.2665 40.2015Z" fill="#5541D9"/>
<path d="M59.5652 44.5484H39.9163C39.6596 44.5484 39.4135 44.446 39.232 44.2637C39.0506 44.0814 38.9486 43.8342 38.9486 43.5764C38.9486 43.3187 39.0506 43.0714 39.232 42.8892C39.4135 42.7069 39.6596 42.6045 39.9163 42.6045H58.7319V5.6429H56.7966C56.5399 5.6429 56.2938 5.5405 56.1123 5.35822C55.9309 5.17594 55.8289 4.92872 55.8289 4.67094C55.8289 4.41316 55.9309 4.16593 56.1123 3.98366C56.2938 3.80138 56.5399 3.69897 56.7966 3.69897H59.6996C59.9562 3.69897 60.2023 3.80138 60.3838 3.98366C60.5653 4.16593 60.6672 4.41316 60.6672 4.67094V43.5764C60.6686 43.7163 60.6399 43.8548 60.583 43.9824C60.5262 44.1101 60.4427 44.224 60.3381 44.3162C60.2334 44.4085 60.1102 44.477 59.9768 44.5171C59.8435 44.5571 59.703 44.5678 59.5652 44.5484Z" fill="#5541D9"/>
<path d="M39.9162 48.2201H30.2665C30.1394 48.2201 30.0136 48.1949 29.8962 48.1461C29.7788 48.0972 29.6721 48.0256 29.5823 47.9354C29.4924 47.8451 29.4211 47.738 29.3725 47.62C29.3239 47.5021 29.2988 47.3757 29.2988 47.2481C29.2988 47.1204 29.3239 46.9941 29.3725 46.8761C29.4211 46.7582 29.4924 46.6511 29.5823 46.5608C29.6721 46.4706 29.7788 46.399 29.8962 46.3501C30.0136 46.3013 30.1394 46.2761 30.2665 46.2761H39.9162C40.1729 46.2761 40.419 46.3785 40.6005 46.5608C40.7819 46.7431 40.8839 46.9903 40.8839 47.2481C40.8839 47.5059 40.7819 47.7531 40.6005 47.9354C40.419 48.1176 40.1729 48.2201 39.9162 48.2201Z" fill="#5541D9"/>
<path d="M20.6437 44.5484H0.967905C0.711265 44.5484 0.465137 44.446 0.283665 44.2637C0.102194 44.0814 0.000244141 43.8342 0.000244141 43.5764L0.000244141 4.67094C0.000244141 4.41316 0.102194 4.16593 0.283665 3.98366C0.465137 3.80138 0.711265 3.69897 0.967905 3.69897H3.87089C4.12753 3.69897 4.37365 3.80138 4.55513 3.98366C4.7366 4.16593 4.83855 4.41316 4.83855 4.67094C4.83855 4.92872 4.7366 5.17594 4.55513 5.35822C4.37365 5.5405 4.12753 5.6429 3.87089 5.6429H1.93557V42.6045H20.7512C21.0078 42.6045 21.254 42.7069 21.4354 42.8892C21.6169 43.0714 21.7189 43.3187 21.7189 43.5764C21.7189 43.8342 21.6169 44.0814 21.4354 44.2637C21.254 44.446 21.0078 44.5484 20.7512 44.5484H20.6437Z" fill="#5541D9"/>
<path d="M30.2665 48.2201H20.6437C20.387 48.2201 20.1409 48.1176 19.9594 47.9354C19.778 47.7531 19.676 47.5059 19.676 47.2481C19.676 46.9903 19.778 46.7431 19.9594 46.5608C20.1409 46.3785 20.387 46.2761 20.6437 46.2761H30.2665C30.5232 46.2761 30.7693 46.3785 30.9508 46.5608C31.1322 46.7431 31.2342 46.9903 31.2342 47.2481C31.2342 47.5059 31.1322 47.7531 30.9508 47.9354C30.7693 48.1176 30.5232 48.2201 30.2665 48.2201Z" fill="#5541D9"/>
</g>
<defs>
<clipPath id="clip0_62_1312">
<rect width="64" height="52" fill="white" transform="translate(0.000244141)"/>
</clipPath>
</defs>
</svg>
